ISO-10303-21;
HEADER;
/* Generated by software containing ST-Developer
 * from STEP Tools, Inc. (www.steptools.com) 
 */

FILE_DESCRIPTION(
/* description */ (''),
/* implementation_level */ '2;1');

FILE_NAME(
/* name */ 'body1orumcek.step',
/* time_stamp */ '2026-08-11T16:26:34+03:00',
/* author */ (''),
/* organization */ (''),
/* preprocessor_version */ 'ST-DEVELOPER v20.1',
/* originating_system */ 'Autodesk Translation Framework v15.8.0.0',
/* authorisation */ '');

FILE_SCHEMA (('AUTOMOTIVE_DESIGN { 1 0 10303 214 3 1 1 }'));
ENDSEC;

DATA;
#10=MECHANICAL_DESIGN_GEOMETRIC_PRESENTATION_REPRESENTATION('',(#13),#1107);
#11=SHAPE_REPRESENTATION_RELATIONSHIP('SRR','None',#1114,#12);
#12=ADVANCED_BREP_SHAPE_REPRESENTATION('',(#14),#1106);
#13=STYLED_ITEM('',(#1124),#14);
#14=MANIFOLD_SOLID_BREP('Body1',#597);
#15=CYLINDRICAL_SURFACE('',#620,5.04999999999999);
#16=CYLINDRICAL_SURFACE('',#634,35.);
#17=CYLINDRICAL_SURFACE('',#639,15.);
#18=B_SPLINE_SURFACE_WITH_KNOTS('',3,1,((#845,#846),(#847,#848),(#849,#850),
(#851,#852)),.UNSPECIFIED.,.F.,.F.,.F.,(4,4),(2,2),(0.,1.),(0.,0.239999999999999),
 .UNSPECIFIED.);
#19=B_SPLINE_SURFACE_WITH_KNOTS('',3,1,((#861,#862),(#863,#864),(#865,#866),
(#867,#868)),.UNSPECIFIED.,.F.,.F.,.F.,(4,4),(2,2),(-1.,0.),(0.,0.239999999999999),
 .UNSPECIFIED.);
#20=B_SPLINE_SURFACE_WITH_KNOTS('',3,1,((#877,#878),(#879,#880),(#881,#882),
(#883,#884)),.UNSPECIFIED.,.F.,.F.,.F.,(4,4),(2,2),(-1.,0.),(0.,0.239999999999999),
 .UNSPECIFIED.);
#21=B_SPLINE_SURFACE_WITH_KNOTS('',3,1,((#891,#892),(#893,#894),(#895,#896),
(#897,#898)),.UNSPECIFIED.,.F.,.F.,.F.,(4,4),(2,2),(-1.,0.),(0.,0.239999999999999),
 .UNSPECIFIED.);
#22=B_SPLINE_SURFACE_WITH_KNOTS('',3,1,((#905,#906),(#907,#908),(#909,#910),
(#911,#912)),.UNSPECIFIED.,.F.,.F.,.F.,(4,4),(2,2),(-1.,0.),(0.,0.239999999999999),
 .UNSPECIFIED.);
#23=B_SPLINE_SURFACE_WITH_KNOTS('',3,1,((#919,#920),(#921,#922),(#923,#924),
(#925,#926)),.UNSPECIFIED.,.F.,.F.,.F.,(4,4),(2,2),(-1.,0.),(0.,0.239999999999999),
 .UNSPECIFIED.);
#24=B_SPLINE_SURFACE_WITH_KNOTS('',3,1,((#933,#934),(#935,#936),(#937,#938),
(#939,#940)),.UNSPECIFIED.,.F.,.F.,.F.,(4,4),(2,2),(-1.,0.),(0.,0.239999999999999),
 .UNSPECIFIED.);
#25=B_SPLINE_SURFACE_WITH_KNOTS('',3,1,((#945,#946),(#947,#948),(#949,#950),
(#951,#952)),.UNSPECIFIED.,.F.,.F.,.F.,(4,4),(2,2),(0.,0.738437431889152),
(0.,0.239999999999999),.UNSPECIFIED.);
#26=B_SPLINE_SURFACE_WITH_KNOTS('',3,1,((#961,#962),(#963,#964),(#965,#966),
(#967,#968)),.UNSPECIFIED.,.F.,.F.,.F.,(4,4),(2,2),(0.61418603328809,1.),
(0.,0.239999999999999),.UNSPECIFIED.);
#27=B_SPLINE_SURFACE_WITH_KNOTS('',3,1,((#975,#976),(#977,#978),(#979,#980),
(#981,#982)),.UNSPECIFIED.,.F.,.F.,.F.,(4,4),(2,2),(0.,0.111225079249362),
(0.,0.239999999999999),.UNSPECIFIED.);
#28=B_SPLINE_SURFACE_WITH_KNOTS('',3,1,((#988,#989),(#990,#991),(#992,#993),
(#994,#995)),.UNSPECIFIED.,.F.,.F.,.F.,(4,4),(2,2),(0.0281695357288772,
1.),(0.,0.239999999999999),.UNSPECIFIED.);
#29=B_SPLINE_SURFACE_WITH_KNOTS('',3,1,((#1002,#1003),(#1004,#1005),(#1006,
#1007),(#1008,#1009)),.UNSPECIFIED.,.F.,.F.,.F.,(4,4),(2,2),(0.844149009808558,
0.994634186709059),(0.,0.239999999999999),.UNSPECIFIED.);
#30=B_SPLINE_SURFACE_WITH_KNOTS('',3,1,((#1018,#1019),(#1020,#1021),(#1022,
#1023),(#1024,#1025)),.UNSPECIFIED.,.F.,.F.,.F.,(4,4),(2,2),(0.,0.084402928271428),
(0.,0.239999999999999),.UNSPECIFIED.);
#31=B_SPLINE_SURFACE_WITH_KNOTS('',3,1,((#1034,#1035),(#1036,#1037),(#1038,
#1039),(#1040,#1041)),.UNSPECIFIED.,.F.,.F.,.F.,(4,4),(2,2),(0.,1.),(0.,
0.239999999999999),.UNSPECIFIED.);
#32=FACE_BOUND('',#80,.T.);
#33=FACE_BOUND('',#107,.T.);
#34=ELLIPSE('',#616,58.8148859096273,29.1384921773177);
#35=ELLIPSE('',#619,58.8148859097333,29.138492177344);
#36=CIRCLE('',#613,15.);
#37=CIRCLE('',#614,5.04999999999999);
#38=CIRCLE('',#615,5.04999999999999);
#39=CIRCLE('',#617,15.);
#40=CIRCLE('',#618,35.);
#41=CIRCLE('',#621,5.04999999999999);
#42=CIRCLE('',#622,5.04999999999999);
#43=CIRCLE('',#627,35.);
#44=CIRCLE('',#629,15.);
#45=CIRCLE('',#635,35.);
#46=CIRCLE('',#637,15.);
#47=FACE_OUTER_BOUND('',#78,.T.);
#48=FACE_OUTER_BOUND('',#79,.T.);
#49=FACE_OUTER_BOUND('',#81,.T.);
#50=FACE_OUTER_BOUND('',#82,.T.);
#51=FACE_OUTER_BOUND('',#83,.T.);
#52=FACE_OUTER_BOUND('',#84,.T.);
#53=FACE_OUTER_BOUND('',#85,.T.);
#54=FACE_OUTER_BOUND('',#86,.T.);
#55=FACE_OUTER_BOUND('',#87,.T.);
#56=FACE_OUTER_BOUND('',#88,.T.);
#57=FACE_OUTER_BOUND('',#89,.T.);
#58=FACE_OUTER_BOUND('',#90,.T.);
#59=FACE_OUTER_BOUND('',#91,.T.);
#60=FACE_OUTER_BOUND('',#92,.T.);
#61=FACE_OUTER_BOUND('',#93,.T.);
#62=FACE_OUTER_BOUND('',#94,.T.);
#63=FACE_OUTER_BOUND('',#95,.T.);
#64=FACE_OUTER_BOUND('',#96,.T.);
#65=FACE_OUTER_BOUND('',#97,.T.);
#66=FACE_OUTER_BOUND('',#98,.T.);
#67=FACE_OUTER_BOUND('',#99,.T.);
#68=FACE_OUTER_BOUND('',#100,.T.);
#69=FACE_OUTER_BOUND('',#101,.T.);
#70=FACE_OUTER_BOUND('',#102,.T.);
#71=FACE_OUTER_BOUND('',#103,.T.);
#72=FACE_OUTER_BOUND('',#104,.T.);
#73=FACE_OUTER_BOUND('',#105,.T.);
#74=FACE_OUTER_BOUND('',#106,.T.);
#75=FACE_OUTER_BOUND('',#108,.T.);
#76=FACE_OUTER_BOUND('',#109,.T.);
#77=FACE_OUTER_BOUND('',#110,.T.);
#78=EDGE_LOOP('',(#378,#379,#380));
#79=EDGE_LOOP('',(#381,#382,#383,#384,#385,#386,#387,#388,#389,#390,#391,
#392,#393,#394,#395,#396,#397));
#80=EDGE_LOOP('',(#398,#399,#400,#401,#402,#403));
#81=EDGE_LOOP('',(#404,#405,#406,#407));
#82=EDGE_LOOP('',(#408,#409,#410,#411));
#83=EDGE_LOOP('',(#412,#413,#414,#415));
#84=EDGE_LOOP('',(#416,#417,#418,#419));
#85=EDGE_LOOP('',(#420,#421,#422,#423));
#86=EDGE_LOOP('',(#424,#425,#426,#427));
#87=EDGE_LOOP('',(#428,#429,#430,#431));
#88=EDGE_LOOP('',(#432,#433,#434,#435));
#89=EDGE_LOOP('',(#436,#437,#438,#439));
#90=EDGE_LOOP('',(#440,#441,#442,#443));
#91=EDGE_LOOP('',(#444,#445,#446,#447));
#92=EDGE_LOOP('',(#448,#449,#450,#451));
#93=EDGE_LOOP('',(#452,#453,#454,#455));
#94=EDGE_LOOP('',(#456,#457,#458,#459));
#95=EDGE_LOOP('',(#460,#461,#462,#463,#464,#465,#466,#467));
#96=EDGE_LOOP('',(#468,#469,#470,#471,#472,#473));
#97=EDGE_LOOP('',(#474,#475,#476,#477,#478,#479));
#98=EDGE_LOOP('',(#480,#481,#482,#483,#484,#485,#486));
#99=EDGE_LOOP('',(#487,#488,#489,#490));
#100=EDGE_LOOP('',(#491,#492,#493,#494,#495));
#101=EDGE_LOOP('',(#496,#497,#498,#499,#500,#501));
#102=EDGE_LOOP('',(#502,#503,#504,#505));
#103=EDGE_LOOP('',(#506,#507,#508,#509,#510,#511));
#104=EDGE_LOOP('',(#512,#513,#514,#515,#516,#517));
#105=EDGE_LOOP('',(#518,#519,#520,#521,#522,#523));
#106=EDGE_LOOP('',(#524,#525,#526,#527,#528,#529,#530,#531,#532));
#107=EDGE_LOOP('',(#533));
#108=EDGE_LOOP('',(#534,#535,#536,#537,#538,#539));
#109=EDGE_LOOP('',(#540,#541,#542,#543,#544,#545,#546,#547));
#110=EDGE_LOOP('',(#548,#549,#550,#551));
#111=B_SPLINE_CURVE_WITH_KNOTS('',3,(#758,#759,#760,#761),.UNSPECIFIED.,
 .F.,.F.,(4,4),(0.00806202508370015,0.430418691586052),.UNSPECIFIED.);
#112=B_SPLINE_CURVE_WITH_KNOTS('',3,(#771,#772,#773,#774),.UNSPECIFIED.,
 .F.,.F.,(4,4),(0.560704287602182,1.),.UNSPECIFIED.);
#113=B_SPLINE_CURVE_WITH_KNOTS('',3,(#776,#777,#778,#779),.UNSPECIFIED.,
 .F.,.F.,(4,4),(0.,0.084402928271428),.UNSPECIFIED.);
#114=B_SPLINE_CURVE_WITH_KNOTS('',3,(#785,#786,#787,#788),.UNSPECIFIED.,
 .F.,.F.,(4,4),(-1.02997211721628,0.),.UNSPECIFIED.);
#115=B_SPLINE_CURVE_WITH_KNOTS('',3,(#794,#795,#796,#797),.UNSPECIFIED.,
 .F.,.F.,(4,4),(0.0281695357288767,1.),.UNSPECIFIED.);
#116=B_SPLINE_CURVE_WITH_KNOTS('',3,(#807,#808,#809,#810),.UNSPECIFIED.,
 .F.,.F.,(4,4),(0.614186033288048,1.),.UNSPECIFIED.);
#117=B_SPLINE_CURVE_WITH_KNOTS('',3,(#811,#812,#813,#814),.UNSPECIFIED.,
 .F.,.F.,(4,4),(0.,0.358705524528665),.UNSPECIFIED.);
#118=B_SPLINE_CURVE_WITH_KNOTS('',3,(#817,#818,#819,#820),.UNSPECIFIED.,
 .F.,.F.,(4,4),(-1.,0.),.UNSPECIFIED.);
#119=B_SPLINE_CURVE_WITH_KNOTS('',3,(#822,#823,#824,#825),.UNSPECIFIED.,
 .F.,.F.,(4,4),(-1.,0.),.UNSPECIFIED.);
#120=B_SPLINE_CURVE_WITH_KNOTS('',3,(#827,#828,#829,#830),.UNSPECIFIED.,
 .F.,.F.,(4,4),(-1.,0.),.UNSPECIFIED.);
#121=B_SPLINE_CURVE_WITH_KNOTS('',3,(#832,#833,#834,#835),.UNSPECIFIED.,
 .F.,.F.,(4,4),(-1.,0.),.UNSPECIFIED.);
#122=B_SPLINE_CURVE_WITH_KNOTS('',3,(#837,#838,#839,#840),.UNSPECIFIED.,
 .F.,.F.,(4,4),(-1.,0.),.UNSPECIFIED.);
#123=B_SPLINE_CURVE_WITH_KNOTS('',3,(#841,#842,#843,#844),.UNSPECIFIED.,
 .F.,.F.,(4,4),(-1.,0.),.UNSPECIFIED.);
#124=B_SPLINE_CURVE_WITH_KNOTS('',3,(#857,#858,#859,#860),.UNSPECIFIED.,
 .F.,.F.,(4,4),(-0.430418691586071,-0.00806202508370167),.UNSPECIFIED.);
#125=B_SPLINE_CURVE_WITH_KNOTS('',3,(#872,#873,#874,#875),.UNSPECIFIED.,
 .F.,.F.,(4,4),(0.,1.),.UNSPECIFIED.);
#126=B_SPLINE_CURVE_WITH_KNOTS('',3,(#887,#888,#889,#890),.UNSPECIFIED.,
 .F.,.F.,(4,4),(0.,1.),.UNSPECIFIED.);
#127=B_SPLINE_CURVE_WITH_KNOTS('',3,(#901,#902,#903,#904),.UNSPECIFIED.,
 .F.,.F.,(4,4),(0.,1.),.UNSPECIFIED.);
#128=B_SPLINE_CURVE_WITH_KNOTS('',3,(#915,#916,#917,#918),.UNSPECIFIED.,
 .F.,.F.,(4,4),(0.,1.),.UNSPECIFIED.);
#129=B_SPLINE_CURVE_WITH_KNOTS('',3,(#929,#930,#931,#932),.UNSPECIFIED.,
 .F.,.F.,(4,4),(0.,1.),.UNSPECIFIED.);
#130=B_SPLINE_CURVE_WITH_KNOTS('',3,(#941,#942,#943,#944),.UNSPECIFIED.,
 .F.,.F.,(4,4),(0.,1.),.UNSPECIFIED.);
#131=B_SPLINE_CURVE_WITH_KNOTS('',3,(#957,#958,#959,#960),.UNSPECIFIED.,
 .F.,.F.,(4,4),(-0.358705524528665,0.),.UNSPECIFIED.);
#132=B_SPLINE_CURVE_WITH_KNOTS('',3,(#971,#972,#973,#974),.UNSPECIFIED.,
 .F.,.F.,(4,4),(-1.,-0.61418603328809),.UNSPECIFIED.);
#133=B_SPLINE_CURVE_WITH_KNOTS('',3,(#998,#999,#1000,#1001),
 .UNSPECIFIED.,.F.,.F.,(4,4),(-1.,-0.0281695357288772),.UNSPECIFIED.);
#134=B_SPLINE_CURVE_WITH_KNOTS('',3,(#1013,#1014,#1015,#1016),
 .UNSPECIFIED.,.F.,.F.,(4,4),(-1.02925546804568,0.),.UNSPECIFIED.);
#135=B_SPLINE_CURVE_WITH_KNOTS('',3,(#1029,#1030,#1031,#1032),
 .UNSPECIFIED.,.F.,.F.,(4,4),(-0.084402928271428,0.),.UNSPECIFIED.);
#136=B_SPLINE_CURVE_WITH_KNOTS('',3,(#1044,#1045,#1046,#1047),
 .UNSPECIFIED.,.F.,.F.,(4,4),(-1.,-0.56070428760416),.UNSPECIFIED.);
#137=LINE('',#755,#185);
#138=LINE('',#757,#186);
#139=LINE('',#765,#187);
#140=LINE('',#767,#188);
#141=LINE('',#769,#189);
#142=LINE('',#781,#190);
#143=LINE('',#803,#191);
#144=LINE('',#854,#192);
#145=LINE('',#856,#193);
#146=LINE('',#870,#194);
#147=LINE('',#876,#195);
#148=LINE('',#886,#196);
#149=LINE('',#900,#197);
#150=LINE('',#914,#198);
#151=LINE('',#928,#199);
#152=LINE('',#954,#200);
#153=LINE('',#956,#201);
#154=LINE('',#970,#202);
#155=LINE('',#984,#203);
#156=LINE('',#987,#204);
#157=LINE('',#997,#205);
#158=LINE('',#1011,#206);
#159=LINE('',#1017,#207);
#160=LINE('',#1027,#208);
#161=LINE('',#1033,#209);
#162=LINE('',#1043,#210);
#163=LINE('',#1050,#211);
#164=LINE('',#1055,#212);
#165=LINE('',#1057,#213);
#166=LINE('',#1059,#214);
#167=LINE('',#1060,#215);
#168=LINE('',#1063,#216);
#169=LINE('',#1065,#217);
#170=LINE('',#1067,#218);
#171=LINE('',#1068,#219);
#172=LINE('',#1070,#220);
#173=LINE('',#1071,#221);
#174=LINE('',#1075,#222);
#175=LINE('',#1080,#223);
#176=LINE('',#1082,#224);
#177=LINE('',#1083,#225);
#178=LINE('',#1086,#226);
#179=LINE('',#1087,#227);
#180=LINE('',#1089,#228);
#181=LINE('',#1091,#229);
#182=LINE('',#1094,#230);
#183=LINE('',#1098,#231);
#184=LINE('',#1102,#232);
#185=VECTOR('',#645,10.);
#186=VECTOR('',#646,10.);
#187=VECTOR('',#649,10.);
#188=VECTOR('',#650,10.);
#189=VECTOR('',#651,10.);
#190=VECTOR('',#652,10.);
#191=VECTOR('',#663,10.);
#192=VECTOR('',#666,10.);
#193=VECTOR('',#667,10.);
#194=VECTOR('',#668,10.);
#195=VECTOR('',#669,10.);
#196=VECTOR('',#670,10.);
#197=VECTOR('',#671,10.);
#198=VECTOR('',#672,10.);
#199=VECTOR('',#673,10.);
#200=VECTOR('',#674,10.);
#201=VECTOR('',#675,10.);
#202=VECTOR('',#676,10.);
#203=VECTOR('',#677,10.);
#204=VECTOR('',#680,10.);
#205=VECTOR('',#681,10.);
#206=VECTOR('',#682,10.);
#207=VECTOR('',#683,10.);
#208=VECTOR('',#684,10.);
#209=VECTOR('',#685,10.);
#210=VECTOR('',#686,10.);
#211=VECTOR('',#689,5.04999999999999);
#212=VECTOR('',#696,10.);
#213=VECTOR('',#697,10.);
#214=VECTOR('',#698,10.);
#215=VECTOR('',#699,10.);
#216=VECTOR('',#702,10.);
#217=VECTOR('',#703,10.);
#218=VECTOR('',#704,10.);
#219=VECTOR('',#705,10.);
#220=VECTOR('',#708,10.);
#221=VECTOR('',#709,10.);
#222=VECTOR('',#714,10.);
#223=VECTOR('',#721,10.);
#224=VECTOR('',#722,10.);
#225=VECTOR('',#723,10.);
#226=VECTOR('',#726,10.);
#227=VECTOR('',#727,10.);
#228=VECTOR('',#730,10.);
#229=VECTOR('',#733,10.);
#230=VECTOR('',#736,10.);
#231=VECTOR('',#741,10.);
#232=VECTOR('',#748,10.);
#233=VERTEX_POINT('',#753);
#234=VERTEX_POINT('',#754);
#235=VERTEX_POINT('',#756);
#236=VERTEX_POINT('',#763);
#237=VERTEX_POINT('',#764);
#238=VERTEX_POINT('',#766);
#239=VERTEX_POINT('',#768);
#240=VERTEX_POINT('',#770);
#241=VERTEX_POINT('',#775);
#242=VERTEX_POINT('',#780);
#243=VERTEX_POINT('',#782);
#244=VERTEX_POINT('',#784);
#245=VERTEX_POINT('',#789);
#246=VERTEX_POINT('',#791);
#247=VERTEX_POINT('',#793);
#248=VERTEX_POINT('',#798);
#249=VERTEX_POINT('',#800);
#250=VERTEX_POINT('',#802);
#251=VERTEX_POINT('',#804);
#252=VERTEX_POINT('',#806);
#253=VERTEX_POINT('',#815);
#254=VERTEX_POINT('',#816);
#255=VERTEX_POINT('',#821);
#256=VERTEX_POINT('',#826);
#257=VERTEX_POINT('',#831);
#258=VERTEX_POINT('',#836);
#259=VERTEX_POINT('',#853);
#260=VERTEX_POINT('',#855);
#261=VERTEX_POINT('',#869);
#262=VERTEX_POINT('',#871);
#263=VERTEX_POINT('',#885);
#264=VERTEX_POINT('',#899);
#265=VERTEX_POINT('',#913);
#266=VERTEX_POINT('',#927);
#267=VERTEX_POINT('',#953);
#268=VERTEX_POINT('',#955);
#269=VERTEX_POINT('',#969);
#270=VERTEX_POINT('',#983);
#271=VERTEX_POINT('',#985);
#272=VERTEX_POINT('',#996);
#273=VERTEX_POINT('',#1010);
#274=VERTEX_POINT('',#1012);
#275=VERTEX_POINT('',#1026);
#276=VERTEX_POINT('',#1028);
#277=VERTEX_POINT('',#1042);
#278=VERTEX_POINT('',#1049);
#279=VERTEX_POINT('',#1054);
#280=VERTEX_POINT('',#1056);
#281=VERTEX_POINT('',#1058);
#282=VERTEX_POINT('',#1062);
#283=VERTEX_POINT('',#1064);
#284=VERTEX_POINT('',#1066);
#285=VERTEX_POINT('',#1073);
#286=VERTEX_POINT('',#1079);
#287=VERTEX_POINT('',#1081);
#288=VERTEX_POINT('',#1085);
#289=VERTEX_POINT('',#1093);
#290=VERTEX_POINT('',#1097);
#291=EDGE_CURVE('',#233,#234,#137,.T.);
#292=EDGE_CURVE('',#235,#233,#138,.T.);
#293=EDGE_CURVE('',#235,#234,#111,.T.);
#294=EDGE_CURVE('',#236,#237,#139,.T.);
#295=EDGE_CURVE('',#238,#236,#140,.T.);
#296=EDGE_CURVE('',#239,#238,#141,.T.);
#297=EDGE_CURVE('',#239,#240,#112,.T.);
#298=EDGE_CURVE('',#240,#241,#113,.T.);
#299=EDGE_CURVE('',#242,#241,#142,.T.);
#300=EDGE_CURVE('',#243,#242,#36,.T.);
#301=EDGE_CURVE('',#243,#244,#114,.T.);
#302=EDGE_CURVE('',#245,#244,#37,.T.);
#303=EDGE_CURVE('',#246,#245,#38,.T.);
#304=EDGE_CURVE('',#246,#247,#115,.T.);
#305=EDGE_CURVE('',#247,#248,#34,.T.);
#306=EDGE_CURVE('',#249,#248,#39,.T.);
#307=EDGE_CURVE('',#250,#249,#143,.T.);
#308=EDGE_CURVE('',#251,#250,#40,.T.);
#309=EDGE_CURVE('',#251,#252,#116,.T.);
#310=EDGE_CURVE('',#252,#237,#117,.T.);
#311=EDGE_CURVE('',#253,#254,#118,.T.);
#312=EDGE_CURVE('',#254,#255,#119,.T.);
#313=EDGE_CURVE('',#255,#256,#120,.T.);
#314=EDGE_CURVE('',#256,#257,#121,.T.);
#315=EDGE_CURVE('',#257,#258,#122,.T.);
#316=EDGE_CURVE('',#258,#253,#123,.T.);
#317=EDGE_CURVE('',#234,#259,#144,.T.);
#318=EDGE_CURVE('',#260,#235,#145,.T.);
#319=EDGE_CURVE('',#259,#260,#124,.T.);
#320=EDGE_CURVE('',#258,#261,#146,.T.);
#321=EDGE_CURVE('',#262,#261,#125,.T.);
#322=EDGE_CURVE('',#253,#262,#147,.T.);
#323=EDGE_CURVE('',#257,#263,#148,.T.);
#324=EDGE_CURVE('',#261,#263,#126,.T.);
#325=EDGE_CURVE('',#256,#264,#149,.T.);
#326=EDGE_CURVE('',#263,#264,#127,.T.);
#327=EDGE_CURVE('',#255,#265,#150,.T.);
#328=EDGE_CURVE('',#264,#265,#128,.T.);
#329=EDGE_CURVE('',#254,#266,#151,.T.);
#330=EDGE_CURVE('',#265,#266,#129,.T.);
#331=EDGE_CURVE('',#266,#262,#130,.T.);
#332=EDGE_CURVE('',#237,#267,#152,.T.);
#333=EDGE_CURVE('',#252,#268,#153,.T.);
#334=EDGE_CURVE('',#267,#268,#131,.T.);
#335=EDGE_CURVE('',#269,#251,#154,.T.);
#336=EDGE_CURVE('',#268,#269,#132,.T.);
#337=EDGE_CURVE('',#247,#270,#155,.T.);
#338=EDGE_CURVE('',#271,#270,#35,.T.);
#339=EDGE_CURVE('',#248,#271,#156,.T.);
#340=EDGE_CURVE('',#272,#246,#157,.T.);
#341=EDGE_CURVE('',#270,#272,#133,.T.);
#342=EDGE_CURVE('',#273,#243,#158,.T.);
#343=EDGE_CURVE('',#274,#273,#134,.T.);
#344=EDGE_CURVE('',#244,#274,#159,.T.);
#345=EDGE_CURVE('',#240,#275,#160,.T.);
#346=EDGE_CURVE('',#276,#275,#135,.T.);
#347=EDGE_CURVE('',#241,#276,#161,.T.);
#348=EDGE_CURVE('',#277,#239,#162,.T.);
#349=EDGE_CURVE('',#275,#277,#136,.T.);
#350=EDGE_CURVE('',#245,#278,#163,.T.);
#351=EDGE_CURVE('',#278,#278,#41,.T.);
#352=EDGE_CURVE('',#272,#274,#42,.T.);
#353=EDGE_CURVE('',#279,#276,#164,.T.);
#354=EDGE_CURVE('',#279,#280,#165,.T.);
#355=EDGE_CURVE('',#281,#280,#166,.T.);
#356=EDGE_CURVE('',#242,#281,#167,.T.);
#357=EDGE_CURVE('',#282,#259,#168,.T.);
#358=EDGE_CURVE('',#283,#282,#169,.T.);
#359=EDGE_CURVE('',#284,#283,#170,.T.);
#360=EDGE_CURVE('',#284,#233,#171,.T.);
#361=EDGE_CURVE('',#277,#282,#172,.T.);
#362=EDGE_CURVE('',#260,#279,#173,.T.);
#363=EDGE_CURVE('',#269,#285,#43,.T.);
#364=EDGE_CURVE('',#285,#267,#174,.T.);
#365=EDGE_CURVE('',#271,#273,#44,.T.);
#366=EDGE_CURVE('',#286,#285,#175,.T.);
#367=EDGE_CURVE('',#287,#286,#176,.T.);
#368=EDGE_CURVE('',#287,#236,#177,.T.);
#369=EDGE_CURVE('',#288,#287,#178,.T.);
#370=EDGE_CURVE('',#288,#238,#179,.T.);
#371=EDGE_CURVE('',#283,#288,#180,.T.);
#372=EDGE_CURVE('',#280,#284,#181,.T.);
#373=EDGE_CURVE('',#250,#289,#182,.T.);
#374=EDGE_CURVE('',#286,#289,#45,.T.);
#375=EDGE_CURVE('',#289,#290,#183,.T.);
#376=EDGE_CURVE('',#290,#281,#46,.T.);
#377=EDGE_CURVE('',#249,#290,#184,.T.);
#378=ORIENTED_EDGE('',*,*,#291,.F.);
#379=ORIENTED_EDGE('',*,*,#292,.F.);
#380=ORIENTED_EDGE('',*,*,#293,.T.);
#381=ORIENTED_EDGE('',*,*,#294,.F.);
#382=ORIENTED_EDGE('',*,*,#295,.F.);
#383=ORIENTED_EDGE('',*,*,#296,.F.);
#384=ORIENTED_EDGE('',*,*,#297,.T.);
#385=ORIENTED_EDGE('',*,*,#298,.T.);
#386=ORIENTED_EDGE('',*,*,#299,.F.);
#387=ORIENTED_EDGE('',*,*,#300,.F.);
#388=ORIENTED_EDGE('',*,*,#301,.T.);
#389=ORIENTED_EDGE('',*,*,#302,.F.);
#390=ORIENTED_EDGE('',*,*,#303,.F.);
#391=ORIENTED_EDGE('',*,*,#304,.T.);
#392=ORIENTED_EDGE('',*,*,#305,.T.);
#393=ORIENTED_EDGE('',*,*,#306,.F.);
#394=ORIENTED_EDGE('',*,*,#307,.F.);
#395=ORIENTED_EDGE('',*,*,#308,.F.);
#396=ORIENTED_EDGE('',*,*,#309,.T.);
#397=ORIENTED_EDGE('',*,*,#310,.T.);
#398=ORIENTED_EDGE('',*,*,#311,.T.);
#399=ORIENTED_EDGE('',*,*,#312,.T.);
#400=ORIENTED_EDGE('',*,*,#313,.T.);
#401=ORIENTED_EDGE('',*,*,#314,.T.);
#402=ORIENTED_EDGE('',*,*,#315,.T.);
#403=ORIENTED_EDGE('',*,*,#316,.T.);
#404=ORIENTED_EDGE('',*,*,#317,.F.);
#405=ORIENTED_EDGE('',*,*,#293,.F.);
#406=ORIENTED_EDGE('',*,*,#318,.F.);
#407=ORIENTED_EDGE('',*,*,#319,.F.);
#408=ORIENTED_EDGE('',*,*,#316,.F.);
#409=ORIENTED_EDGE('',*,*,#320,.T.);
#410=ORIENTED_EDGE('',*,*,#321,.F.);
#411=ORIENTED_EDGE('',*,*,#322,.F.);
#412=ORIENTED_EDGE('',*,*,#315,.F.);
#413=ORIENTED_EDGE('',*,*,#323,.T.);
#414=ORIENTED_EDGE('',*,*,#324,.F.);
#415=ORIENTED_EDGE('',*,*,#320,.F.);
#416=ORIENTED_EDGE('',*,*,#314,.F.);
#417=ORIENTED_EDGE('',*,*,#325,.T.);
#418=ORIENTED_EDGE('',*,*,#326,.F.);
#419=ORIENTED_EDGE('',*,*,#323,.F.);
#420=ORIENTED_EDGE('',*,*,#313,.F.);
#421=ORIENTED_EDGE('',*,*,#327,.T.);
#422=ORIENTED_EDGE('',*,*,#328,.F.);
#423=ORIENTED_EDGE('',*,*,#325,.F.);
#424=ORIENTED_EDGE('',*,*,#312,.F.);
#425=ORIENTED_EDGE('',*,*,#329,.T.);
#426=ORIENTED_EDGE('',*,*,#330,.F.);
#427=ORIENTED_EDGE('',*,*,#327,.F.);
#428=ORIENTED_EDGE('',*,*,#311,.F.);
#429=ORIENTED_EDGE('',*,*,#322,.T.);
#430=ORIENTED_EDGE('',*,*,#331,.F.);
#431=ORIENTED_EDGE('',*,*,#329,.F.);
#432=ORIENTED_EDGE('',*,*,#332,.F.);
#433=ORIENTED_EDGE('',*,*,#310,.F.);
#434=ORIENTED_EDGE('',*,*,#333,.T.);
#435=ORIENTED_EDGE('',*,*,#334,.F.);
#436=ORIENTED_EDGE('',*,*,#309,.F.);
#437=ORIENTED_EDGE('',*,*,#335,.F.);
#438=ORIENTED_EDGE('',*,*,#336,.F.);
#439=ORIENTED_EDGE('',*,*,#333,.F.);
#440=ORIENTED_EDGE('',*,*,#305,.F.);
#441=ORIENTED_EDGE('',*,*,#337,.T.);
#442=ORIENTED_EDGE('',*,*,#338,.F.);
#443=ORIENTED_EDGE('',*,*,#339,.F.);
#444=ORIENTED_EDGE('',*,*,#304,.F.);
#445=ORIENTED_EDGE('',*,*,#340,.F.);
#446=ORIENTED_EDGE('',*,*,#341,.F.);
#447=ORIENTED_EDGE('',*,*,#337,.F.);
#448=ORIENTED_EDGE('',*,*,#301,.F.);
#449=ORIENTED_EDGE('',*,*,#342,.F.);
#450=ORIENTED_EDGE('',*,*,#343,.F.);
#451=ORIENTED_EDGE('',*,*,#344,.F.);
#452=ORIENTED_EDGE('',*,*,#298,.F.);
#453=ORIENTED_EDGE('',*,*,#345,.T.);
#454=ORIENTED_EDGE('',*,*,#346,.F.);
#455=ORIENTED_EDGE('',*,*,#347,.F.);
#456=ORIENTED_EDGE('',*,*,#348,.F.);
#457=ORIENTED_EDGE('',*,*,#349,.F.);
#458=ORIENTED_EDGE('',*,*,#345,.F.);
#459=ORIENTED_EDGE('',*,*,#297,.F.);
#460=ORIENTED_EDGE('',*,*,#303,.T.);
#461=ORIENTED_EDGE('',*,*,#350,.T.);
#462=ORIENTED_EDGE('',*,*,#351,.F.);
#463=ORIENTED_EDGE('',*,*,#350,.F.);
#464=ORIENTED_EDGE('',*,*,#302,.T.);
#465=ORIENTED_EDGE('',*,*,#344,.T.);
#466=ORIENTED_EDGE('',*,*,#352,.F.);
#467=ORIENTED_EDGE('',*,*,#340,.T.);
#468=ORIENTED_EDGE('',*,*,#299,.T.);
#469=ORIENTED_EDGE('',*,*,#347,.T.);
#470=ORIENTED_EDGE('',*,*,#353,.F.);
#471=ORIENTED_EDGE('',*,*,#354,.T.);
#472=ORIENTED_EDGE('',*,*,#355,.F.);
#473=ORIENTED_EDGE('',*,*,#356,.F.);
#474=ORIENTED_EDGE('',*,*,#291,.T.);
#475=ORIENTED_EDGE('',*,*,#317,.T.);
#476=ORIENTED_EDGE('',*,*,#357,.F.);
#477=ORIENTED_EDGE('',*,*,#358,.F.);
#478=ORIENTED_EDGE('',*,*,#359,.F.);
#479=ORIENTED_EDGE('',*,*,#360,.T.);
#480=ORIENTED_EDGE('',*,*,#346,.T.);
#481=ORIENTED_EDGE('',*,*,#349,.T.);
#482=ORIENTED_EDGE('',*,*,#361,.T.);
#483=ORIENTED_EDGE('',*,*,#357,.T.);
#484=ORIENTED_EDGE('',*,*,#319,.T.);
#485=ORIENTED_EDGE('',*,*,#362,.T.);
#486=ORIENTED_EDGE('',*,*,#353,.T.);
#487=ORIENTED_EDGE('',*,*,#336,.T.);
#488=ORIENTED_EDGE('',*,*,#363,.T.);
#489=ORIENTED_EDGE('',*,*,#364,.T.);
#490=ORIENTED_EDGE('',*,*,#334,.T.);
#491=ORIENTED_EDGE('',*,*,#338,.T.);
#492=ORIENTED_EDGE('',*,*,#341,.T.);
#493=ORIENTED_EDGE('',*,*,#352,.T.);
#494=ORIENTED_EDGE('',*,*,#343,.T.);
#495=ORIENTED_EDGE('',*,*,#365,.F.);
#496=ORIENTED_EDGE('',*,*,#332,.T.);
#497=ORIENTED_EDGE('',*,*,#364,.F.);
#498=ORIENTED_EDGE('',*,*,#366,.F.);
#499=ORIENTED_EDGE('',*,*,#367,.F.);
#500=ORIENTED_EDGE('',*,*,#368,.T.);
#501=ORIENTED_EDGE('',*,*,#294,.T.);
#502=ORIENTED_EDGE('',*,*,#295,.T.);
#503=ORIENTED_EDGE('',*,*,#368,.F.);
#504=ORIENTED_EDGE('',*,*,#369,.F.);
#505=ORIENTED_EDGE('',*,*,#370,.T.);
#506=ORIENTED_EDGE('',*,*,#296,.T.);
#507=ORIENTED_EDGE('',*,*,#370,.F.);
#508=ORIENTED_EDGE('',*,*,#371,.F.);
#509=ORIENTED_EDGE('',*,*,#358,.T.);
#510=ORIENTED_EDGE('',*,*,#361,.F.);
#511=ORIENTED_EDGE('',*,*,#348,.T.);
#512=ORIENTED_EDGE('',*,*,#292,.T.);
#513=ORIENTED_EDGE('',*,*,#360,.F.);
#514=ORIENTED_EDGE('',*,*,#372,.F.);
#515=ORIENTED_EDGE('',*,*,#354,.F.);
#516=ORIENTED_EDGE('',*,*,#362,.F.);
#517=ORIENTED_EDGE('',*,*,#318,.T.);
#518=ORIENTED_EDGE('',*,*,#308,.T.);
#519=ORIENTED_EDGE('',*,*,#373,.T.);
#520=ORIENTED_EDGE('',*,*,#374,.F.);
#521=ORIENTED_EDGE('',*,*,#366,.T.);
#522=ORIENTED_EDGE('',*,*,#363,.F.);
#523=ORIENTED_EDGE('',*,*,#335,.T.);
#524=ORIENTED_EDGE('',*,*,#367,.T.);
#525=ORIENTED_EDGE('',*,*,#374,.T.);
#526=ORIENTED_EDGE('',*,*,#375,.T.);
#527=ORIENTED_EDGE('',*,*,#376,.T.);
#528=ORIENTED_EDGE('',*,*,#355,.T.);
#529=ORIENTED_EDGE('',*,*,#372,.T.);
#530=ORIENTED_EDGE('',*,*,#359,.T.);
#531=ORIENTED_EDGE('',*,*,#371,.T.);
#532=ORIENTED_EDGE('',*,*,#369,.T.);
#533=ORIENTED_EDGE('',*,*,#351,.T.);
#534=ORIENTED_EDGE('',*,*,#321,.T.);
#535=ORIENTED_EDGE('',*,*,#324,.T.);
#536=ORIENTED_EDGE('',*,*,#326,.T.);
#537=ORIENTED_EDGE('',*,*,#328,.T.);
#538=ORIENTED_EDGE('',*,*,#330,.T.);
#539=ORIENTED_EDGE('',*,*,#331,.T.);
#540=ORIENTED_EDGE('',*,*,#339,.T.);
#541=ORIENTED_EDGE('',*,*,#365,.T.);
#542=ORIENTED_EDGE('',*,*,#342,.T.);
#543=ORIENTED_EDGE('',*,*,#300,.T.);
#544=ORIENTED_EDGE('',*,*,#356,.T.);
#545=ORIENTED_EDGE('',*,*,#376,.F.);
#546=ORIENTED_EDGE('',*,*,#377,.F.);
#547=ORIENTED_EDGE('',*,*,#306,.T.);
#548=ORIENTED_EDGE('',*,*,#307,.T.);
#549=ORIENTED_EDGE('',*,*,#377,.T.);
#550=ORIENTED_EDGE('',*,*,#375,.F.);
#551=ORIENTED_EDGE('',*,*,#373,.F.);
#552=PLANE('',#611);
#553=PLANE('',#612);
#554=PLANE('',#623);
#555=PLANE('',#624);
#556=PLANE('',#625);
#557=PLANE('',#626);
#558=PLANE('',#628);
#559=PLANE('',#630);
#560=PLANE('',#631);
#561=PLANE('',#632);
#562=PLANE('',#633);
#563=PLANE('',#636);
#564=PLANE('',#638);
#565=PLANE('',#640);
#566=ADVANCED_FACE('',(#47),#552,.T.);
#567=ADVANCED_FACE('',(#48,#32),#553,.T.);
#568=ADVANCED_FACE('',(#49),#18,.F.);
#569=ADVANCED_FACE('',(#50),#19,.F.);
#570=ADVANCED_FACE('',(#51),#20,.F.);
#571=ADVANCED_FACE('',(#52),#21,.F.);
#572=ADVANCED_FACE('',(#53),#22,.F.);
#573=ADVANCED_FACE('',(#54),#23,.F.);
#574=ADVANCED_FACE('',(#55),#24,.F.);
#575=ADVANCED_FACE('',(#56),#25,.F.);
#576=ADVANCED_FACE('',(#57),#26,.F.);
#577=ADVANCED_FACE('',(#58),#27,.F.);
#578=ADVANCED_FACE('',(#59),#28,.F.);
#579=ADVANCED_FACE('',(#60),#29,.F.);
#580=ADVANCED_FACE('',(#61),#30,.F.);
#581=ADVANCED_FACE('',(#62),#31,.F.);
#582=ADVANCED_FACE('',(#63),#15,.F.);
#583=ADVANCED_FACE('',(#64),#554,.T.);
#584=ADVANCED_FACE('',(#65),#555,.F.);
#585=ADVANCED_FACE('',(#66),#556,.F.);
#586=ADVANCED_FACE('',(#67),#557,.F.);
#587=ADVANCED_FACE('',(#68),#558,.F.);
#588=ADVANCED_FACE('',(#69),#559,.F.);
#589=ADVANCED_FACE('',(#70),#560,.F.);
#590=ADVANCED_FACE('',(#71),#561,.F.);
#591=ADVANCED_FACE('',(#72),#562,.F.);
#592=ADVANCED_FACE('',(#73),#16,.F.);
#593=ADVANCED_FACE('',(#74,#33),#563,.T.);
#594=ADVANCED_FACE('',(#75),#564,.F.);
#595=ADVANCED_FACE('',(#76),#17,.T.);
#596=ADVANCED_FACE('',(#77),#565,.T.);
#597=CLOSED_SHELL('',(#566,#567,#568,#569,#570,#571,#572,#573,#574,#575,
#576,#577,#578,#579,#580,#581,#582,#583,#584,#585,#586,#587,#588,#589,#590,
#591,#592,#593,#594,#595,#596));
#598=DERIVED_UNIT_ELEMENT(#600,1.);
#599=DERIVED_UNIT_ELEMENT(#1109,-3.);
#600=(
MASS_UNIT()
NAMED_UNIT(*)
SI_UNIT(.KILO.,.GRAM.)
);
#601=DERIVED_UNIT((#598,#599));
#602=MEASURE_REPRESENTATION_ITEM('density measure',
POSITIVE_RATIO_MEASURE(7850.),#601);
#603=PROPERTY_DEFINITION_REPRESENTATION(#608,#605);
#604=PROPERTY_DEFINITION_REPRESENTATION(#609,#606);
#605=REPRESENTATION('material name',(#607),#1106);
#606=REPRESENTATION('density',(#602),#1106);
#607=DESCRIPTIVE_REPRESENTATION_ITEM('Steel','Steel');
#608=PROPERTY_DEFINITION('material property','material name',#1116);
#609=PROPERTY_DEFINITION('material property','density of part',#1116);
#610=AXIS2_PLACEMENT_3D('',#751,#641,#642);
#611=AXIS2_PLACEMENT_3D('',#752,#643,#644);
#612=AXIS2_PLACEMENT_3D('',#762,#647,#648);
#613=AXIS2_PLACEMENT_3D('',#783,#653,#654);
#614=AXIS2_PLACEMENT_3D('',#790,#655,#656);
#615=AXIS2_PLACEMENT_3D('',#792,#657,#658);
#616=AXIS2_PLACEMENT_3D('',#799,#659,#660);
#617=AXIS2_PLACEMENT_3D('',#801,#661,#662);
#618=AXIS2_PLACEMENT_3D('',#805,#664,#665);
#619=AXIS2_PLACEMENT_3D('',#986,#678,#679);
#620=AXIS2_PLACEMENT_3D('',#1048,#687,#688);
#621=AXIS2_PLACEMENT_3D('',#1051,#690,#691);
#622=AXIS2_PLACEMENT_3D('',#1052,#692,#693);
#623=AXIS2_PLACEMENT_3D('',#1053,#694,#695);
#624=AXIS2_PLACEMENT_3D('',#1061,#700,#701);
#625=AXIS2_PLACEMENT_3D('',#1069,#706,#707);
#626=AXIS2_PLACEMENT_3D('',#1072,#710,#711);
#627=AXIS2_PLACEMENT_3D('',#1074,#712,#713);
#628=AXIS2_PLACEMENT_3D('',#1076,#715,#716);
#629=AXIS2_PLACEMENT_3D('',#1077,#717,#718);
#630=AXIS2_PLACEMENT_3D('',#1078,#719,#720);
#631=AXIS2_PLACEMENT_3D('',#1084,#724,#725);
#632=AXIS2_PLACEMENT_3D('',#1088,#728,#729);
#633=AXIS2_PLACEMENT_3D('',#1090,#731,#732);
#634=AXIS2_PLACEMENT_3D('',#1092,#734,#735);
#635=AXIS2_PLACEMENT_3D('',#1095,#737,#738);
#636=AXIS2_PLACEMENT_3D('',#1096,#739,#740);
#637=AXIS2_PLACEMENT_3D('',#1099,#742,#743);
#638=AXIS2_PLACEMENT_3D('',#1100,#744,#745);
#639=AXIS2_PLACEMENT_3D('',#1101,#746,#747);
#640=AXIS2_PLACEMENT_3D('',#1103,#749,#750);
#641=DIRECTION('axis',(0.,0.,1.));
#642=DIRECTION('refdir',(1.,0.,0.));
#643=DIRECTION('center_axis',(0.,0.,-1.));
#644=DIRECTION('ref_axis',(1.,0.,0.));
#645=DIRECTION('',(0.91910816958045,-0.394005295155376,0.));
#646=DIRECTION('',(-0.745521964111652,-0.666481058265803,0.));
#647=DIRECTION('center_axis',(0.,0.,-1.));
#648=DIRECTION('ref_axis',(1.,0.,0.));
#649=DIRECTION('',(-0.745521964111648,-0.666481058265808,0.));
#650=DIRECTION('',(-0.288965776456359,0.95733942780864,0.));
#651=DIRECTION('',(-0.745521964111648,-0.666481058265808,0.));
#652=DIRECTION('',(-0.6664810582658,0.745521964111655,0.));
#653=DIRECTION('center_axis',(0.,0.,1.));
#654=DIRECTION('ref_axis',(-0.745521964111651,-0.666481058265805,0.));
#655=DIRECTION('center_axis',(0.,0.,-1.));
#656=DIRECTION('ref_axis',(1.,0.,0.));
#657=DIRECTION('center_axis',(0.,0.,-1.));
#658=DIRECTION('ref_axis',(1.,0.,0.));
#659=DIRECTION('center_axis',(0.,0.,1.));
#660=DIRECTION('ref_axis',(0.999456637000814,-0.0329610490582888,0.));
#661=DIRECTION('center_axis',(0.,0.,1.));
#662=DIRECTION('ref_axis',(-0.745521964111651,-0.666481058265805,0.));
#663=DIRECTION('',(0.666481058265805,-0.74552196411165,0.));
#664=DIRECTION('center_axis',(0.,0.,-1.));
#665=DIRECTION('ref_axis',(0.745521964111651,0.666481058265804,0.));
#666=DIRECTION('',(0.,0.,-1.));
#667=DIRECTION('',(0.,0.,1.));
#668=DIRECTION('',(0.,0.,-1.));
#669=DIRECTION('',(0.,0.,-1.));
#670=DIRECTION('',(0.,0.,-1.));
#671=DIRECTION('',(0.,0.,-1.));
#672=DIRECTION('',(0.,0.,-1.));
#673=DIRECTION('',(0.,0.,-1.));
#674=DIRECTION('',(0.,0.,-1.));
#675=DIRECTION('',(0.,0.,-1.));
#676=DIRECTION('',(0.,0.,1.));
#677=DIRECTION('',(0.,0.,-1.));
#678=DIRECTION('center_axis',(0.,0.,-1.));
#679=DIRECTION('ref_axis',(0.999456637000815,-0.0329610490582744,0.));
#680=DIRECTION('',(0.,0.,-1.));
#681=DIRECTION('',(0.,0.,1.));
#682=DIRECTION('',(0.,0.,1.));
#683=DIRECTION('',(0.,0.,-1.));
#684=DIRECTION('',(0.,0.,-1.));
#685=DIRECTION('',(0.,0.,-1.));
#686=DIRECTION('',(0.,0.,1.));
#687=DIRECTION('center_axis',(0.,0.,1.));
#688=DIRECTION('ref_axis',(1.,0.,0.));
#689=DIRECTION('',(0.,0.,1.));
#690=DIRECTION('center_axis',(0.,0.,-1.));
#691=DIRECTION('ref_axis',(1.,0.,0.));
#692=DIRECTION('center_axis',(0.,0.,1.));
#693=DIRECTION('ref_axis',(1.,0.,0.));
#694=DIRECTION('center_axis',(0.745521964111655,0.6664810582658,0.));
#695=DIRECTION('ref_axis',(-0.6664810582658,0.745521964111655,0.));
#696=DIRECTION('',(0.6664810582658,-0.745521964111655,0.));
#697=DIRECTION('',(0.,0.,1.));
#698=DIRECTION('',(-0.6664810582658,0.745521964111655,0.));
#699=DIRECTION('',(0.,0.,1.));
#700=DIRECTION('center_axis',(0.394005295155376,0.91910816958045,0.));
#701=DIRECTION('ref_axis',(0.91910816958045,-0.394005295155376,0.));
#702=DIRECTION('',(-0.91910816958045,0.394005295155376,0.));
#703=DIRECTION('',(0.,0.,-1.));
#704=DIRECTION('',(0.91910816958045,-0.394005295155376,0.));
#705=DIRECTION('',(0.,0.,-1.));
#706=DIRECTION('center_axis',(0.,0.,1.));
#707=DIRECTION('ref_axis',(-1.,0.,0.));
#708=DIRECTION('',(0.745521964111648,0.666481058265808,0.));
#709=DIRECTION('',(0.745521964111652,0.666481058265803,0.));
#710=DIRECTION('center_axis',(0.,0.,1.));
#711=DIRECTION('ref_axis',(-1.,0.,0.));
#712=DIRECTION('center_axis',(0.,0.,1.));
#713=DIRECTION('ref_axis',(0.745521964111651,0.666481058265804,0.));
#714=DIRECTION('',(0.745521964111648,0.666481058265808,0.));
#715=DIRECTION('center_axis',(0.,0.,1.));
#716=DIRECTION('ref_axis',(-1.,0.,0.));
#717=DIRECTION('center_axis',(0.,0.,1.));
#718=DIRECTION('ref_axis',(-0.745521964111651,-0.666481058265805,0.));
#719=DIRECTION('center_axis',(0.666481058265808,-0.745521964111648,0.));
#720=DIRECTION('ref_axis',(-0.745521964111648,-0.666481058265808,0.));
#721=DIRECTION('',(0.,0.,-1.));
#722=DIRECTION('',(-0.745521964111648,-0.666481058265808,0.));
#723=DIRECTION('',(0.,0.,-1.));
#724=DIRECTION('center_axis',(-0.95733942780864,-0.288965776456359,0.));
#725=DIRECTION('ref_axis',(-0.288965776456359,0.95733942780864,0.));
#726=DIRECTION('',(-0.288965776456359,0.95733942780864,0.));
#727=DIRECTION('',(0.,0.,-1.));
#728=DIRECTION('center_axis',(0.666481058265808,-0.745521964111648,0.));
#729=DIRECTION('ref_axis',(-0.745521964111648,-0.666481058265808,0.));
#730=DIRECTION('',(-0.745521964111648,-0.666481058265808,0.));
#731=DIRECTION('center_axis',(0.666481058265803,-0.745521964111652,0.));
#732=DIRECTION('ref_axis',(-0.745521964111652,-0.666481058265803,0.));
#733=DIRECTION('',(-0.745521964111652,-0.666481058265803,0.));
#734=DIRECTION('center_axis',(0.,0.,1.));
#735=DIRECTION('ref_axis',(0.745521964111651,0.666481058265804,0.));
#736=DIRECTION('',(0.,0.,1.));
#737=DIRECTION('center_axis',(0.,0.,-1.));
#738=DIRECTION('ref_axis',(0.745521964111651,0.666481058265804,0.));
#739=DIRECTION('center_axis',(0.,0.,1.));
#740=DIRECTION('ref_axis',(-1.,0.,0.));
#741=DIRECTION('',(0.666481058265805,-0.74552196411165,0.));
#742=DIRECTION('center_axis',(0.,0.,1.));
#743=DIRECTION('ref_axis',(-0.745521964111651,-0.666481058265805,0.));
#744=DIRECTION('center_axis',(0.,0.,1.));
#745=DIRECTION('ref_axis',(-1.,0.,0.));
#746=DIRECTION('center_axis',(0.,0.,1.));
#747=DIRECTION('ref_axis',(-0.745521964111651,-0.666481058265805,0.));
#748=DIRECTION('',(0.,0.,1.));
#749=DIRECTION('center_axis',(-0.74552196411165,-0.666481058265805,0.));
#750=DIRECTION('ref_axis',(0.666481058265805,-0.74552196411165,0.));
#751=CARTESIAN_POINT('',(0.,0.,0.));
#752=CARTESIAN_POINT('Origin',(18.4370497025956,63.0466774510599,72.1035162724936));
#753=CARTESIAN_POINT('',(132.764912659889,33.5682924529954,72.1035162724936));
#754=CARTESIAN_POINT('',(143.849466677655,28.8165416558837,72.1035162724936));
#755=CARTESIAN_POINT('',(79.137564615957,56.5573809996618,72.1035162724936));
#756=CARTESIAN_POINT('',(140.774116397118,40.7283532421035,72.1035162724936));
#757=CARTESIAN_POINT('',(113.400342050235,16.2567709498518,72.1035162724936));
#758=CARTESIAN_POINT('Ctrl Pts',(140.774116397118,40.7283532421035,72.1035162724936));
#759=CARTESIAN_POINT('Ctrl Pts',(139.837356482874,35.4609934823535,72.1035162724936));
#760=CARTESIAN_POINT('Ctrl Pts',(141.346070868565,31.5951372340777,72.1035162724936));
#761=CARTESIAN_POINT('Ctrl Pts',(143.849466677655,28.8165416558837,72.1035162724936));
#762=CARTESIAN_POINT('Origin',(18.4370497025956,63.0466774510599,72.1035162724936));
#763=CARTESIAN_POINT('',(129.197376376673,30.0650532564894,72.1035162724936));
#764=CARTESIAN_POINT('',(119.64580143804,21.5261448411075,72.1035162724936));
#765=CARTESIAN_POINT('',(106.610808674956,9.87313367653408,72.1035162724936));
#766=CARTESIAN_POINT('',(133.690932549203,15.1779668070464,72.1035162724936));
#767=CARTESIAN_POINT('',(122.257852525648,53.0555951617439,72.1035162724936));
#768=CARTESIAN_POINT('',(146.407519522726,26.546329848827,72.1035162724936));
#769=CARTESIAN_POINT('',(120.356070920091,3.25687914199202,72.1035162724936));
#770=CARTESIAN_POINT('',(155.846290432076,22.7364482575286,72.1035162724936));
#771=CARTESIAN_POINT('Ctrl Pts',(146.407519522726,26.546329848827,72.1035162724936));
#772=CARTESIAN_POINT('Ctrl Pts',(149.506005137163,24.3228779700649,72.1035162724936));
#773=CARTESIAN_POINT('Ctrl Pts',(153.196410051184,23.1707802985562,72.1035162724936));
#774=CARTESIAN_POINT('Ctrl Pts',(155.846290432076,22.7364482575286,72.1035162724936));
#775=CARTESIAN_POINT('',(160.979121092166,22.4709145863414,72.1035162724936));
#776=CARTESIAN_POINT('Ctrl Pts',(155.846290432076,22.7364482575286,72.1035162724936));
#777=CARTESIAN_POINT('Ctrl Pts',(157.695481957201,22.5317654077637,72.1035162724936));
#778=CARTESIAN_POINT('Ctrl Pts',(159.400025888785,22.4486149229235,72.1035162724936));
#779=CARTESIAN_POINT('Ctrl Pts',(160.979121092166,22.4709145863414,72.1035162724936));
#780=CARTESIAN_POINT('',(186.760942716851,-6.36848611024387,72.1035162724936));
#781=CARTESIAN_POINT('',(132.131084785137,54.7401657850813,72.1035162724936));
#782=CARTESIAN_POINT('',(189.782855017215,-21.1849666038384,72.1035162724936));
#783=CARTESIAN_POINT('Origin',(175.578113255177,-16.3657019842309,72.1035162724936));
#784=CARTESIAN_POINT('',(180.623704861135,-16.5766648859172,72.1035162724936));
#785=CARTESIAN_POINT('Ctrl Pts',(189.782855017049,-21.1849666037861,72.1035162724936));
#786=CARTESIAN_POINT('Ctrl Pts',(186.784944938183,-20.2419668984288,72.1035162724936));
#787=CARTESIAN_POINT('Ctrl Pts',(183.700858171111,-18.7357981161626,72.1035162724936));
#788=CARTESIAN_POINT('Ctrl Pts',(180.623704861135,-16.5766648859172,72.1035162724936));
#789=CARTESIAN_POINT('',(170.528113255177,-16.3657019842309,72.1035162724936));
#790=CARTESIAN_POINT('Origin',(175.578113255177,-16.3657019842309,72.1035162724936));
#791=CARTESIAN_POINT('',(180.589022352934,-16.9928303714177,72.1035162724936));
#792=CARTESIAN_POINT('Origin',(175.578113255177,-16.3657019842309,72.1035162724936));
#793=CARTESIAN_POINT('',(169.240628089242,-26.9522449629914,72.1035162724936));
#794=CARTESIAN_POINT('Ctrl Pts',(180.589022352934,-16.9928303714177,72.1035162724936));
#795=CARTESIAN_POINT('Ctrl Pts',(183.640036052995,-24.4143617985435,72.1035162724936));
#796=CARTESIAN_POINT('Ctrl Pts',(175.263296803892,-30.0777491178418,72.1035162724936));
#797=CARTESIAN_POINT('Ctrl Pts',(169.240628089242,-26.9522449629914,72.1035162724936));
#798=CARTESIAN_POINT('',(169.195480869094,-29.9400161040715,72.1035162724936));
#799=CARTESIAN_POINT('Origin',(227.929867167934,-30.1247764081417,72.1035162724936));
#800=CARTESIAN_POINT('',(164.395283793503,-26.362917858218,72.1035162724936));
#801=CARTESIAN_POINT('Origin',(175.578113255177,-16.3657019842309,72.1035162724936));
#802=CARTESIAN_POINT('',(131.071230880212,10.9131803473645,72.1035162724936));
#803=CARTESIAN_POINT('',(93.1033994051419,53.3837831398983,72.1035162724936));
#804=CARTESIAN_POINT('',(127.811214294957,14.1126056881892,72.1035162724936));
#805=CARTESIAN_POINT('Origin',(104.977962136305,-12.4136566919386,72.1035162724936));
#806=CARTESIAN_POINT('',(131.140086697869,14.0554774075378,72.1035162724936));
#807=CARTESIAN_POINT('Ctrl Pts',(127.811214294957,14.1126056881892,72.1035162724936));
#808=CARTESIAN_POINT('Ctrl Pts',(128.786837994584,14.1151352567284,72.1035162724936));
#809=CARTESIAN_POINT('Ctrl Pts',(129.803056180901,14.0790156136688,72.1035162724936));
#810=CARTESIAN_POINT('Ctrl Pts',(131.140086697869,14.0554774075378,72.1035162724936));
#811=CARTESIAN_POINT('Ctrl Pts',(131.140086697869,14.0554774075378,72.1035162724936));
#812=CARTESIAN_POINT('Ctrl Pts',(129.164273563952,16.5609044134912,72.1035162724936));
#813=CARTESIAN_POINT('Ctrl Pts',(124.707890277875,19.5541574961932,72.1035162724936));
#814=CARTESIAN_POINT('Ctrl Pts',(119.64580143804,21.5261448411075,72.1035162724936));
#815=CARTESIAN_POINT('',(176.269378277306,-11.127620037378,72.1035162724936));
#816=CARTESIAN_POINT('',(170.546296648507,0.145651738439838,72.1035162724936));
#817=CARTESIAN_POINT('Ctrl Pts',(176.269378277306,-11.127620037378,72.1035162724936));
#818=CARTESIAN_POINT('Ctrl Pts',(172.330149973397,-7.06752701789256,72.1035162724936));
#819=CARTESIAN_POINT('Ctrl Pts',(170.914302238183,-3.45356214515085,72.1035162724936));
#820=CARTESIAN_POINT('Ctrl Pts',(170.546296648507,0.145651738439838,72.1035162724936));
#821=CARTESIAN_POINT('',(164.431778156762,-1.13111916610116,72.1035162724936));
#822=CARTESIAN_POINT('Ctrl Pts',(170.546296648507,0.145651738439838,72.1035162724936));
#823=CARTESIAN_POINT('Ctrl Pts',(168.779776422601,-0.795829457391406,72.1035162724936));
#824=CARTESIAN_POINT('Ctrl Pts',(166.030777139955,-1.63424601394048,72.1035162724936));
#825=CARTESIAN_POINT('Ctrl Pts',(164.431778156762,-1.13111916610116,72.1035162724936));
#826=CARTESIAN_POINT('',(162.234965808778,11.3866196720947,72.1035162724936));
#827=CARTESIAN_POINT('Ctrl Pts',(164.431778156762,-1.13111916610116,72.1035162724936));
#828=CARTESIAN_POINT('Ctrl Pts',(163.401791026025,-0.558687391580293,72.1035162724936));
#829=CARTESIAN_POINT('Ctrl Pts',(161.876588192468,4.14564203117976,72.1035162724936));
#830=CARTESIAN_POINT('Ctrl Pts',(162.234965808778,11.3866196720947,72.1035162724936));
#831=CARTESIAN_POINT('',(140.239482952409,9.60595278061518,72.1035162724936));
#832=CARTESIAN_POINT('Ctrl Pts',(162.234965808778,11.3866196720947,72.1035162724936));
#833=CARTESIAN_POINT('Ctrl Pts',(157.312049800973,7.33347637375481,72.1035162724936));
#834=CARTESIAN_POINT('Ctrl Pts',(148.361303411965,7.83978965500481,72.1035162724936));
#835=CARTESIAN_POINT('Ctrl Pts',(140.239482952409,9.60595278061518,72.1035162724936));
#836=CARTESIAN_POINT('',(157.597867384057,-13.3499925257814,72.1035162724936));
#837=CARTESIAN_POINT('Ctrl Pts',(140.239482952409,9.60595278061518,72.1035162724936));
#838=CARTESIAN_POINT('Ctrl Pts',(149.475593681817,2.86799211052546,72.1035162724936));
#839=CARTESIAN_POINT('Ctrl Pts',(154.818748064904,-4.53137324630134,72.1035162724936));
#840=CARTESIAN_POINT('Ctrl Pts',(157.597867384057,-13.3499925257814,72.1035162724936));
#841=CARTESIAN_POINT('Ctrl Pts',(157.597867384057,-13.3499925257814,72.1035162724936));
#842=CARTESIAN_POINT('Ctrl Pts',(161.213054638581,-8.65733753577587,72.1035162724936));
#843=CARTESIAN_POINT('Ctrl Pts',(170.312025119691,-5.31877939902657,72.1035162724936));
#844=CARTESIAN_POINT('Ctrl Pts',(176.269378277306,-11.127620037378,72.1035162724936));
#845=CARTESIAN_POINT('Ctrl Pts',(140.830442738442,41.0315205002654,72.1035162724936));
#846=CARTESIAN_POINT('Ctrl Pts',(140.830442738442,41.0315205002654,69.7035162724936));
#847=CARTESIAN_POINT('Ctrl Pts',(138.390211600213,28.4332143414367,72.1035162724936));
#848=CARTESIAN_POINT('Ctrl Pts',(138.390211600213,28.4332143414367,69.7035162724936));
#849=CARTESIAN_POINT('Ctrl Pts',(149.814179700952,23.7251491001952,72.1035162724936));
#850=CARTESIAN_POINT('Ctrl Pts',(149.814179700952,23.7251491001952,69.7035162724936));
#851=CARTESIAN_POINT('Ctrl Pts',(155.846290432076,22.7364482575286,72.1035162724936));
#852=CARTESIAN_POINT('Ctrl Pts',(155.846290432076,22.7364482575286,69.7035162724936));
#853=CARTESIAN_POINT('',(143.849466677655,28.8165416558837,70.1035162724936));
#854=CARTESIAN_POINT('',(143.849466677655,28.8165416558837,72.1035162724936));
#855=CARTESIAN_POINT('',(140.774116397118,40.7283532421035,70.1035162724936));
#856=CARTESIAN_POINT('',(140.774116397118,40.7283532421035,70.1035162724936));
#857=CARTESIAN_POINT('Ctrl Pts',(143.849466677655,28.8165416558837,70.1035162724936));
#858=CARTESIAN_POINT('Ctrl Pts',(141.346070868576,31.5951372340696,70.1035162724936));
#859=CARTESIAN_POINT('Ctrl Pts',(139.837356482875,35.460993482353,70.1035162724936));
#860=CARTESIAN_POINT('Ctrl Pts',(140.774116397118,40.7283532421035,70.1035162724936));
#861=CARTESIAN_POINT('Ctrl Pts',(157.597867384057,-13.3499925257814,72.1035162724936));
#862=CARTESIAN_POINT('Ctrl Pts',(157.597867384057,-13.3499925257814,69.7035162724936));
#863=CARTESIAN_POINT('Ctrl Pts',(161.213054638581,-8.65733753577587,72.1035162724936));
#864=CARTESIAN_POINT('Ctrl Pts',(161.213054638581,-8.65733753577587,69.7035162724936));
#865=CARTESIAN_POINT('Ctrl Pts',(170.312025119691,-5.31877939902657,72.1035162724936));
#866=CARTESIAN_POINT('Ctrl Pts',(170.312025119691,-5.31877939902657,69.7035162724936));
#867=CARTESIAN_POINT('Ctrl Pts',(176.269378277306,-11.127620037378,72.1035162724936));
#868=CARTESIAN_POINT('Ctrl Pts',(176.269378277306,-11.127620037378,69.7035162724936));
#869=CARTESIAN_POINT('',(157.597867384057,-13.3499925257814,70.1035162724936));
#870=CARTESIAN_POINT('',(157.597867384057,-13.3499925257814,72.1035162724936));
#871=CARTESIAN_POINT('',(176.269378277306,-11.127620037378,70.1035162724936));
#872=CARTESIAN_POINT('Ctrl Pts',(176.269378277306,-11.127620037378,70.1035162724936));
#873=CARTESIAN_POINT('Ctrl Pts',(170.312025119691,-5.31877939902657,70.1035162724936));
#874=CARTESIAN_POINT('Ctrl Pts',(161.213054638581,-8.65733753577587,70.1035162724936));
#875=CARTESIAN_POINT('Ctrl Pts',(157.597867384057,-13.3499925257814,70.1035162724936));
#876=CARTESIAN_POINT('',(176.269378277306,-11.127620037378,72.1035162724936));
#877=CARTESIAN_POINT('Ctrl Pts',(140.239482952409,9.60595278061518,72.1035162724936));
#878=CARTESIAN_POINT('Ctrl Pts',(140.239482952409,9.60595278061518,69.7035162724936));
#879=CARTESIAN_POINT('Ctrl Pts',(149.475593681817,2.86799211052546,72.1035162724936));
#880=CARTESIAN_POINT('Ctrl Pts',(149.475593681817,2.86799211052546,69.7035162724936));
#881=CARTESIAN_POINT('Ctrl Pts',(154.818748064904,-4.53137324630134,72.1035162724936));
#882=CARTESIAN_POINT('Ctrl Pts',(154.818748064904,-4.53137324630134,69.7035162724936));
#883=CARTESIAN_POINT('Ctrl Pts',(157.597867384057,-13.3499925257814,72.1035162724936));
#884=CARTESIAN_POINT('Ctrl Pts',(157.597867384057,-13.3499925257814,69.7035162724936));
#885=CARTESIAN_POINT('',(140.239482952409,9.60595278061518,70.1035162724936));
#886=CARTESIAN_POINT('',(140.239482952409,9.60595278061518,72.1035162724936));
#887=CARTESIAN_POINT('Ctrl Pts',(157.597867384057,-13.3499925257814,70.1035162724936));
#888=CARTESIAN_POINT('Ctrl Pts',(154.818748064904,-4.53137324630134,70.1035162724936));
#889=CARTESIAN_POINT('Ctrl Pts',(149.475593681817,2.86799211052546,70.1035162724936));
#890=CARTESIAN_POINT('Ctrl Pts',(140.239482952409,9.60595278061518,70.1035162724936));
#891=CARTESIAN_POINT('Ctrl Pts',(162.234965808778,11.3866196720947,72.1035162724936));
#892=CARTESIAN_POINT('Ctrl Pts',(162.234965808778,11.3866196720947,69.7035162724936));
#893=CARTESIAN_POINT('Ctrl Pts',(157.312049800973,7.33347637375481,72.1035162724936));
#894=CARTESIAN_POINT('Ctrl Pts',(157.312049800973,7.33347637375481,69.7035162724936));
#895=CARTESIAN_POINT('Ctrl Pts',(148.361303411965,7.83978965500481,72.1035162724936));
#896=CARTESIAN_POINT('Ctrl Pts',(148.361303411965,7.83978965500481,69.7035162724936));
#897=CARTESIAN_POINT('Ctrl Pts',(140.239482952409,9.60595278061518,72.1035162724936));
#898=CARTESIAN_POINT('Ctrl Pts',(140.239482952409,9.60595278061518,69.7035162724936));
#899=CARTESIAN_POINT('',(162.234965808778,11.3866196720947,70.1035162724936));
#900=CARTESIAN_POINT('',(162.234965808778,11.3866196720947,72.1035162724936));
#901=CARTESIAN_POINT('Ctrl Pts',(140.239482952409,9.60595278061518,70.1035162724936));
#902=CARTESIAN_POINT('Ctrl Pts',(148.361303411965,7.83978965500481,70.1035162724936));
#903=CARTESIAN_POINT('Ctrl Pts',(157.312049800973,7.33347637375481,70.1035162724936));
#904=CARTESIAN_POINT('Ctrl Pts',(162.234965808778,11.3866196720947,70.1035162724936));
#905=CARTESIAN_POINT('Ctrl Pts',(164.431778156762,-1.13111916610116,72.1035162724936));
#906=CARTESIAN_POINT('Ctrl Pts',(164.431778156762,-1.13111916610116,69.7035162724936));
#907=CARTESIAN_POINT('Ctrl Pts',(163.401791026025,-0.558687391580293,72.1035162724936));
#908=CARTESIAN_POINT('Ctrl Pts',(163.401791026025,-0.558687391580293,69.7035162724936));
#909=CARTESIAN_POINT('Ctrl Pts',(161.876588192468,4.14564203117976,72.1035162724936));
#910=CARTESIAN_POINT('Ctrl Pts',(161.876588192468,4.14564203117976,69.7035162724936));
#911=CARTESIAN_POINT('Ctrl Pts',(162.234965808778,11.3866196720947,72.1035162724936));
#912=CARTESIAN_POINT('Ctrl Pts',(162.234965808778,11.3866196720947,69.7035162724936));
#913=CARTESIAN_POINT('',(164.431778156762,-1.13111916610116,70.1035162724936));
#914=CARTESIAN_POINT('',(164.431778156762,-1.13111916610116,72.1035162724936));
#915=CARTESIAN_POINT('Ctrl Pts',(162.234965808778,11.3866196720947,70.1035162724936));
#916=CARTESIAN_POINT('Ctrl Pts',(161.876588192468,4.14564203117976,70.1035162724936));
#917=CARTESIAN_POINT('Ctrl Pts',(163.401791026025,-0.558687391580293,70.1035162724936));
#918=CARTESIAN_POINT('Ctrl Pts',(164.431778156762,-1.13111916610116,70.1035162724936));
#919=CARTESIAN_POINT('Ctrl Pts',(170.546296648507,0.145651738439838,72.1035162724936));
#920=CARTESIAN_POINT('Ctrl Pts',(170.546296648507,0.145651738439838,69.7035162724936));
#921=CARTESIAN_POINT('Ctrl Pts',(168.779776422601,-0.795829457391406,72.1035162724936));
#922=CARTESIAN_POINT('Ctrl Pts',(168.779776422601,-0.795829457391406,69.7035162724936));
#923=CARTESIAN_POINT('Ctrl Pts',(166.030777139955,-1.63424601394048,72.1035162724936));
#924=CARTESIAN_POINT('Ctrl Pts',(166.030777139955,-1.63424601394048,69.7035162724936));
#925=CARTESIAN_POINT('Ctrl Pts',(164.431778156762,-1.13111916610116,72.1035162724936));
#926=CARTESIAN_POINT('Ctrl Pts',(164.431778156762,-1.13111916610116,69.7035162724936));
#927=CARTESIAN_POINT('',(170.546296648507,0.145651738439838,70.1035162724936));
#928=CARTESIAN_POINT('',(170.546296648507,0.145651738439838,72.1035162724936));
#929=CARTESIAN_POINT('Ctrl Pts',(164.431778156762,-1.13111916610116,70.1035162724936));
#930=CARTESIAN_POINT('Ctrl Pts',(166.030777139955,-1.63424601394048,70.1035162724936));
#931=CARTESIAN_POINT('Ctrl Pts',(168.779776422601,-0.795829457391406,70.1035162724936));
#932=CARTESIAN_POINT('Ctrl Pts',(170.546296648507,0.145651738439838,70.1035162724936));
#933=CARTESIAN_POINT('Ctrl Pts',(176.269378277306,-11.127620037378,72.1035162724936));
#934=CARTESIAN_POINT('Ctrl Pts',(176.269378277306,-11.127620037378,69.7035162724936));
#935=CARTESIAN_POINT('Ctrl Pts',(172.330149973397,-7.06752701789256,72.1035162724936));
#936=CARTESIAN_POINT('Ctrl Pts',(172.330149973397,-7.06752701789256,69.7035162724936));
#937=CARTESIAN_POINT('Ctrl Pts',(170.914302238183,-3.45356214515085,72.1035162724936));
#938=CARTESIAN_POINT('Ctrl Pts',(170.914302238183,-3.45356214515085,69.7035162724936));
#939=CARTESIAN_POINT('Ctrl Pts',(170.546296648507,0.145651738439838,72.1035162724936));
#940=CARTESIAN_POINT('Ctrl Pts',(170.546296648507,0.145651738439838,69.7035162724936));
#941=CARTESIAN_POINT('Ctrl Pts',(170.546296648507,0.145651738439838,70.1035162724936));
#942=CARTESIAN_POINT('Ctrl Pts',(170.914302238183,-3.45356214515085,70.1035162724936));
#943=CARTESIAN_POINT('Ctrl Pts',(172.330149973397,-7.06752701789256,70.1035162724936));
#944=CARTESIAN_POINT('Ctrl Pts',(176.269378277306,-11.127620037378,70.1035162724936));
#945=CARTESIAN_POINT('Ctrl Pts',(131.140086697869,14.0554774075378,72.1035162724936));
#946=CARTESIAN_POINT('Ctrl Pts',(131.140086697869,14.0554774075378,69.7035162724936));
#947=CARTESIAN_POINT('Ctrl Pts',(127.072643414357,19.2131930197883,72.1035162724936));
#948=CARTESIAN_POINT('Ctrl Pts',(127.072643414357,19.2131930197883,69.7035162724936));
#949=CARTESIAN_POINT('Ctrl Pts',(112.492778060664,26.4382694809781,72.1035162724936));
#950=CARTESIAN_POINT('Ctrl Pts',(112.492778060664,26.4382694809781,69.7035162724936));
#951=CARTESIAN_POINT('Ctrl Pts',(103.757233342196,22.5650485615639,72.1035162724936));
#952=CARTESIAN_POINT('Ctrl Pts',(103.757233342196,22.5650485615639,69.7035162724936));
#953=CARTESIAN_POINT('',(119.64580143804,21.5261448411075,70.1035162724936));
#954=CARTESIAN_POINT('',(119.64580143804,21.5261448411075,72.1035162724936));
#955=CARTESIAN_POINT('',(131.140086697869,14.0554774075378,70.1035162724936));
#956=CARTESIAN_POINT('',(131.140086697869,14.0554774075378,72.1035162724936));
#957=CARTESIAN_POINT('Ctrl Pts',(119.64580143804,21.5261448411075,70.1035162724936));
#958=CARTESIAN_POINT('Ctrl Pts',(124.707890277875,19.5541574961932,70.1035162724936));
#959=CARTESIAN_POINT('Ctrl Pts',(129.164273563952,16.5609044134912,70.1035162724936));
#960=CARTESIAN_POINT('Ctrl Pts',(131.140086697869,14.0554774075378,70.1035162724936));
#961=CARTESIAN_POINT('Ctrl Pts',(127.811214294957,14.1126056881892,72.1035162724936));
#962=CARTESIAN_POINT('Ctrl Pts',(127.811214294957,14.1126056881892,69.7035162724936));
#963=CARTESIAN_POINT('Ctrl Pts',(128.786837994584,14.1151352567284,72.1035162724936));
#964=CARTESIAN_POINT('Ctrl Pts',(128.786837994584,14.1151352567284,69.7035162724936));
#965=CARTESIAN_POINT('Ctrl Pts',(129.803056180901,14.0790156136688,72.1035162724936));
#966=CARTESIAN_POINT('Ctrl Pts',(129.803056180901,14.0790156136688,69.7035162724936));
#967=CARTESIAN_POINT('Ctrl Pts',(131.140086697869,14.0554774075378,72.1035162724936));
#968=CARTESIAN_POINT('Ctrl Pts',(131.140086697869,14.0554774075378,69.7035162724936));
#969=CARTESIAN_POINT('',(127.811214294957,14.1126056881892,70.1035162724936));
#970=CARTESIAN_POINT('',(127.811214294957,14.1126056881892,72.1035162724936));
#971=CARTESIAN_POINT('Ctrl Pts',(131.140086697869,14.0554774075378,70.1035162724936));
#972=CARTESIAN_POINT('Ctrl Pts',(129.803056180901,14.0790156136688,70.1035162724936));
#973=CARTESIAN_POINT('Ctrl Pts',(128.786837994584,14.1151352567284,70.1035162724936));
#974=CARTESIAN_POINT('Ctrl Pts',(127.811214294957,14.1126056881892,70.1035162724936));
#975=CARTESIAN_POINT('Ctrl Pts',(169.240628089242,-26.9522449629914,72.1035162724936));
#976=CARTESIAN_POINT('Ctrl Pts',(169.240628089242,-26.9522449629914,69.7035162724936));
#977=CARTESIAN_POINT('Ctrl Pts',(169.120934835565,-27.9577740062193,72.1035162724936));
#978=CARTESIAN_POINT('Ctrl Pts',(169.120934835565,-27.9577740062193,69.7035162724936));
#979=CARTESIAN_POINT('Ctrl Pts',(169.108615850224,-28.9551751716161,72.1035162724936));
#980=CARTESIAN_POINT('Ctrl Pts',(169.108615850224,-28.9551751716161,69.7035162724936));
#981=CARTESIAN_POINT('Ctrl Pts',(169.195480869094,-29.9400161040715,72.1035162724936));
#982=CARTESIAN_POINT('Ctrl Pts',(169.195480869094,-29.9400161040715,69.7035162724936));
#983=CARTESIAN_POINT('',(169.240628089242,-26.9522449629914,70.1035162724936));
#984=CARTESIAN_POINT('',(169.240628089242,-26.9522449629914,72.1035162724936));
#985=CARTESIAN_POINT('',(169.195480869094,-29.9400161040715,70.1035162724936));
#986=CARTESIAN_POINT('Origin',(227.92986716804,-30.1247764081446,70.1035162724936));
#987=CARTESIAN_POINT('',(169.195480869094,-29.9400161040715,72.1035162724936));
#988=CARTESIAN_POINT('Ctrl Pts',(180.589022352934,-16.9928303714177,72.1035162724936));
#989=CARTESIAN_POINT('Ctrl Pts',(180.589022352934,-16.9928303714177,69.7035162724936));
#990=CARTESIAN_POINT('Ctrl Pts',(183.640036052995,-24.4143617985435,72.1035162724936));
#991=CARTESIAN_POINT('Ctrl Pts',(183.640036052995,-24.4143617985435,69.7035162724936));
#992=CARTESIAN_POINT('Ctrl Pts',(175.263296803892,-30.0777491178418,72.1035162724936));
#993=CARTESIAN_POINT('Ctrl Pts',(175.263296803892,-30.0777491178418,69.7035162724936));
#994=CARTESIAN_POINT('Ctrl Pts',(169.240628089242,-26.9522449629914,72.1035162724936));
#995=CARTESIAN_POINT('Ctrl Pts',(169.240628089242,-26.9522449629914,69.7035162724936));
#996=CARTESIAN_POINT('',(180.589022352934,-16.9928303714177,70.1035162724936));
#997=CARTESIAN_POINT('',(180.589022352934,-16.9928303714177,72.1035162724936));
#998=CARTESIAN_POINT('Ctrl Pts',(169.240628089242,-26.9522449629914,70.1035162724936));
#999=CARTESIAN_POINT('Ctrl Pts',(175.263296803892,-30.0777491178418,70.1035162724936));
#1000=CARTESIAN_POINT('Ctrl Pts',(183.640036052995,-24.4143617985435,70.1035162724936));
#1001=CARTESIAN_POINT('Ctrl Pts',(180.589022352934,-16.9928303714178,70.1035162724936));
#1002=CARTESIAN_POINT('Ctrl Pts',(189.782855017049,-21.1849666037861,72.1035162724936));
#1003=CARTESIAN_POINT('Ctrl Pts',(189.782855017049,-21.1849666037861,69.7035162724936));
#1004=CARTESIAN_POINT('Ctrl Pts',(186.784944938183,-20.2419668984288,72.1035162724936));
#1005=CARTESIAN_POINT('Ctrl Pts',(186.784944938183,-20.2419668984288,69.7035162724936));
#1006=CARTESIAN_POINT('Ctrl Pts',(183.700858171111,-18.7357981161626,72.1035162724936));
#1007=CARTESIAN_POINT('Ctrl Pts',(183.700858171111,-18.7357981161626,69.7035162724936));
#1008=CARTESIAN_POINT('Ctrl Pts',(180.623704861135,-16.5766648859172,72.1035162724936));
#1009=CARTESIAN_POINT('Ctrl Pts',(180.623704861135,-16.5766648859172,69.7035162724936));
#1010=CARTESIAN_POINT('',(189.782855017215,-21.1849666038384,70.1035162724936));
#1011=CARTESIAN_POINT('',(189.782855017049,-21.1849666037861,72.1035162724936));
#1012=CARTESIAN_POINT('',(180.623704861135,-16.5766648859172,70.1035162724936));
#1013=CARTESIAN_POINT('Ctrl Pts',(180.623704861135,-16.5766648859172,70.1035162724936));
#1014=CARTESIAN_POINT('Ctrl Pts',(183.700858171111,-18.7357981161626,70.1035162724936));
#1015=CARTESIAN_POINT('Ctrl Pts',(186.784944938183,-20.2419668984288,70.1035162724936));
#1016=CARTESIAN_POINT('Ctrl Pts',(189.782855017049,-21.1849666037861,70.1035162724936));
#1017=CARTESIAN_POINT('',(180.623704861135,-16.5766648859172,72.1035162724936));
#1018=CARTESIAN_POINT('Ctrl Pts',(155.846290432076,22.7364482575286,72.1035162724936));
#1019=CARTESIAN_POINT('Ctrl Pts',(155.846290432076,22.7364482575286,69.7035162724936));
#1020=CARTESIAN_POINT('Ctrl Pts',(157.695481957201,22.5317654077637,72.1035162724936));
#1021=CARTESIAN_POINT('Ctrl Pts',(157.695481957201,22.5317654077637,69.7035162724936));
#1022=CARTESIAN_POINT('Ctrl Pts',(159.400025888785,22.4486149229235,72.1035162724936));
#1023=CARTESIAN_POINT('Ctrl Pts',(159.400025888785,22.4486149229235,69.7035162724936));
#1024=CARTESIAN_POINT('Ctrl Pts',(160.979121092166,22.4709145863414,72.1035162724936));
#1025=CARTESIAN_POINT('Ctrl Pts',(160.979121092166,22.4709145863414,69.7035162724936));
#1026=CARTESIAN_POINT('',(155.846290432076,22.7364482575286,70.1035162724936));
#1027=CARTESIAN_POINT('',(155.846290432076,22.7364482575286,72.1035162724936));
#1028=CARTESIAN_POINT('',(160.979121092166,22.4709145863415,70.1035162724936));
#1029=CARTESIAN_POINT('Ctrl Pts',(160.979121092166,22.4709145863414,70.1035162724936));
#1030=CARTESIAN_POINT('Ctrl Pts',(159.400025888785,22.4486149229235,70.1035162724936));
#1031=CARTESIAN_POINT('Ctrl Pts',(157.695481957201,22.5317654077637,70.1035162724936));
#1032=CARTESIAN_POINT('Ctrl Pts',(155.846290432076,22.7364482575286,70.1035162724936));
#1033=CARTESIAN_POINT('',(160.979121092166,22.4709145863414,72.1035162724936));
#1034=CARTESIAN_POINT('Ctrl Pts',(140.830442738442,41.0315205002654,72.1035162724936));
#1035=CARTESIAN_POINT('Ctrl Pts',(140.830442738442,41.0315205002654,69.7035162724936));
#1036=CARTESIAN_POINT('Ctrl Pts',(138.390211600213,28.4332143414367,72.1035162724936));
#1037=CARTESIAN_POINT('Ctrl Pts',(138.390211600213,28.4332143414367,69.7035162724936));
#1038=CARTESIAN_POINT('Ctrl Pts',(149.814179700952,23.7251491001952,72.1035162724936));
#1039=CARTESIAN_POINT('Ctrl Pts',(149.814179700952,23.7251491001952,69.7035162724936));
#1040=CARTESIAN_POINT('Ctrl Pts',(155.846290432076,22.7364482575286,72.1035162724936));
#1041=CARTESIAN_POINT('Ctrl Pts',(155.846290432076,22.7364482575286,69.7035162724936));
#1042=CARTESIAN_POINT('',(146.407519522726,26.546329848827,70.1035162724936));
#1043=CARTESIAN_POINT('',(146.407519522726,26.546329848827,70.1035162724936));
#1044=CARTESIAN_POINT('Ctrl Pts',(155.846290432076,22.7364482575286,70.1035162724936));
#1045=CARTESIAN_POINT('Ctrl Pts',(153.196410051196,23.1707802985542,70.1035162724936));
#1046=CARTESIAN_POINT('Ctrl Pts',(149.506005137154,24.3228779700846,70.1035162724936));
#1047=CARTESIAN_POINT('Ctrl Pts',(146.407519522726,26.546329848827,70.1035162724936));
#1048=CARTESIAN_POINT('Origin',(175.578113255177,-16.3657019842309,70.1035162724936));
#1049=CARTESIAN_POINT('',(170.528113255177,-16.3657019842309,78.1035162724936));
#1050=CARTESIAN_POINT('',(170.528113255177,-16.3657019842309,70.1035162724936));
#1051=CARTESIAN_POINT('Origin',(175.578113255177,-16.3657019842309,78.1035162724936));
#1052=CARTESIAN_POINT('Origin',(175.578113255177,-16.3657019842309,70.1035162724936));
#1053=CARTESIAN_POINT('Origin',(186.760942716851,-6.36848611024387,70.1035162724936));
#1054=CARTESIAN_POINT('',(142.932430625648,42.657841064525,70.1035162724936));
#1055=CARTESIAN_POINT('',(136.620024735932,49.7188627977107,70.1035162724936));
#1056=CARTESIAN_POINT('',(142.932430625648,42.657841064525,78.1035162724936));
#1057=CARTESIAN_POINT('',(142.932430625648,42.657841064525,74.1035162724936));
#1058=CARTESIAN_POINT('',(186.760942716851,-6.36848611024387,78.1035162724936));
#1059=CARTESIAN_POINT('',(136.620024735932,49.7188627977107,78.1035162724936));
#1060=CARTESIAN_POINT('',(186.760942716851,-6.36848611024387,70.1035162724936));
#1061=CARTESIAN_POINT('Origin',(132.764912659889,33.5682924529954,78.1035162724936));
#1062=CARTESIAN_POINT('',(147.294836740699,27.3395729012391,70.1035162724936));
#1063=CARTESIAN_POINT('',(99.275489120759,47.9246115923862,70.1035162724936));
#1064=CARTESIAN_POINT('',(147.294836740699,27.3395729012391,78.1035162724936));
#1065=CARTESIAN_POINT('',(147.294836740699,27.3395729012391,78.1035162724936));
#1066=CARTESIAN_POINT('',(132.764912659889,33.5682924529954,78.1035162724936));
#1067=CARTESIAN_POINT('',(99.275489120759,47.9246115923862,78.1035162724936));
#1068=CARTESIAN_POINT('',(132.764912659889,33.5682924529954,78.1035162724936));
#1069=CARTESIAN_POINT('Origin',(65.9370497025956,62.6331359959283,70.1035162724936));
#1070=CARTESIAN_POINT('',(133.453652678335,14.9658435604435,70.1035162724936));
#1071=CARTESIAN_POINT('',(126.497923808479,27.9657353683033,70.1035162724936));
#1072=CARTESIAN_POINT('Origin',(65.9370497025956,62.6331359959283,70.1035162724936));
#1073=CARTESIAN_POINT('',(118.014546914998,20.0678373825023,70.1035162724936));
#1074=CARTESIAN_POINT('Origin',(104.977962136305,-12.4136566919386,70.1035162724936));
#1075=CARTESIAN_POINT('',(119.708390433199,21.5820980949856,70.1035162724936));
#1076=CARTESIAN_POINT('Origin',(65.9370497025956,62.6331359959283,70.1035162724936));
#1077=CARTESIAN_POINT('Origin',(175.578113255177,-16.3657019842309,70.1035162724936));
#1078=CARTESIAN_POINT('Origin',(129.197376376673,30.0650532564894,78.1035162724936));
#1079=CARTESIAN_POINT('',(118.014546914998,20.0678373825023,78.1035162724936));
#1080=CARTESIAN_POINT('',(118.014546914998,20.0678373825023,70.1035162724936));
#1081=CARTESIAN_POINT('',(129.197376376673,30.0650532564894,78.1035162724936));
#1082=CARTESIAN_POINT('',(119.708390433199,21.5820980949856,78.1035162724936));
#1083=CARTESIAN_POINT('',(129.197376376673,30.0650532564894,78.1035162724936));
#1084=CARTESIAN_POINT('Origin',(133.690932549203,15.1779668070464,78.1035162724936));
#1085=CARTESIAN_POINT('',(133.690932549203,15.1779668070464,78.1035162724936));
#1086=CARTESIAN_POINT('',(124.298207208762,46.2959296788185,78.1035162724936));
#1087=CARTESIAN_POINT('',(133.690932549203,15.1779668070464,78.1035162724936));
#1088=CARTESIAN_POINT('Origin',(147.294836740699,27.3395729012391,78.1035162724936));
#1089=CARTESIAN_POINT('',(133.453652678335,14.9658435604435,78.1035162724936));
#1090=CARTESIAN_POINT('Origin',(142.932430625648,42.657841064525,78.1035162724936));
#1091=CARTESIAN_POINT('',(126.497923808479,27.9657353683033,78.1035162724936));
#1092=CARTESIAN_POINT('Origin',(104.977962136305,-12.4136566919386,70.1035162724936));
#1093=CARTESIAN_POINT('',(131.071230880212,10.9131803473645,78.1035162724936));
#1094=CARTESIAN_POINT('',(131.071230880212,10.9131803473645,70.1035162724936));
#1095=CARTESIAN_POINT('Origin',(104.977962136305,-12.4136566919386,78.1035162724936));
#1096=CARTESIAN_POINT('Origin',(65.9370497025956,62.6331359959283,78.1035162724936));
#1097=CARTESIAN_POINT('',(164.395283793503,-26.362917858218,78.1035162724936));
#1098=CARTESIAN_POINT('',(131.071230880212,10.9131803473645,78.1035162724936));
#1099=CARTESIAN_POINT('Origin',(175.578113255177,-16.3657019842309,78.1035162724936));
#1100=CARTESIAN_POINT('Origin',(65.9370497025956,62.6331359959283,70.1035162724936));
#1101=CARTESIAN_POINT('Origin',(175.578113255177,-16.3657019842309,70.1035162724936));
#1102=CARTESIAN_POINT('',(164.395283793503,-26.362917858218,70.1035162724936));
#1103=CARTESIAN_POINT('Origin',(131.071230880212,10.9131803473645,70.1035162724936));
#1104=UNCERTAINTY_MEASURE_WITH_UNIT(LENGTH_MEASURE(0.01),#1108,
'DISTANCE_ACCURACY_VALUE',
'Maximum model space distance between geometric entities at asserted c
onnectivities');
#1105=UNCERTAINTY_MEASURE_WITH_UNIT(LENGTH_MEASURE(0.01),#1108,
'DISTANCE_ACCURACY_VALUE',
'Maximum model space distance between geometric entities at asserted c
onnectivities');
#1106=(
GEOMETRIC_REPRESENTATION_CONTEXT(3)
GLOBAL_UNCERTAINTY_ASSIGNED_CONTEXT((#1104))
GLOBAL_UNIT_ASSIGNED_CONTEXT((#1108,#1110,#1111))
REPRESENTATION_CONTEXT('','3D')
);
#1107=(
GEOMETRIC_REPRESENTATION_CONTEXT(3)
GLOBAL_UNCERTAINTY_ASSIGNED_CONTEXT((#1105))
GLOBAL_UNIT_ASSIGNED_CONTEXT((#1108,#1110,#1111))
REPRESENTATION_CONTEXT('','3D')
);
#1108=(
LENGTH_UNIT()
NAMED_UNIT(*)
SI_UNIT(.MILLI.,.METRE.)
);
#1109=(
LENGTH_UNIT()
NAMED_UNIT(*)
SI_UNIT($,.METRE.)
);
#1110=(
NAMED_UNIT(*)
PLANE_ANGLE_UNIT()
SI_UNIT($,.RADIAN.)
);
#1111=(
NAMED_UNIT(*)
SI_UNIT($,.STERADIAN.)
SOLID_ANGLE_UNIT()
);
#1112=SHAPE_DEFINITION_REPRESENTATION(#1113,#1114);
#1113=PRODUCT_DEFINITION_SHAPE('',$,#1116);
#1114=SHAPE_REPRESENTATION('',(#610),#1106);
#1115=PRODUCT_DEFINITION_CONTEXT('part definition',#1120,'design');
#1116=PRODUCT_DEFINITION('FusionComponent','(Unsaved)',#1117,#1115);
#1117=PRODUCT_DEFINITION_FORMATION('',$,#1122);
#1118=PRODUCT_RELATED_PRODUCT_CATEGORY('(Unsaved)','(Unsaved)',(#1122));
#1119=APPLICATION_PROTOCOL_DEFINITION('international standard',
'automotive_design',2009,#1120);
#1120=APPLICATION_CONTEXT(
'Core Data for Automotive Mechanical Design Process');
#1121=PRODUCT_CONTEXT('part definition',#1120,'mechanical');
#1122=PRODUCT('FusionComponent','(Unsaved)',$,(#1121));
#1123=PRESENTATION_STYLE_ASSIGNMENT((#1125));
#1124=PRESENTATION_STYLE_ASSIGNMENT((#1126));
#1125=SURFACE_STYLE_USAGE(.BOTH.,#1127);
#1126=SURFACE_STYLE_USAGE(.BOTH.,#1128);
#1127=SURFACE_SIDE_STYLE('',(#1129));
#1128=SURFACE_SIDE_STYLE('',(#1130));
#1129=SURFACE_STYLE_FILL_AREA(#1131);
#1130=SURFACE_STYLE_FILL_AREA(#1132);
#1131=FILL_AREA_STYLE('Steel - Satin',(#1133));
#1132=FILL_AREA_STYLE('Opaque(243,203,124)',(#1134));
#1133=FILL_AREA_STYLE_COLOUR('Steel - Satin',#1135);
#1134=FILL_AREA_STYLE_COLOUR('Opaque(243,203,124)',#1136);
#1135=COLOUR_RGB('Steel - Satin',0.627450980392157,0.627450980392157,0.627450980392157);
#1136=COLOUR_RGB('Opaque(243,203,124)',0.952941176470588,0.796078431372549,
0.486274509803922);
ENDSEC;
END-ISO-10303-21;
