ISO-10303-21;
HEADER;
/* Generated by software containing ST-Developer
 * from STEP Tools, Inc. (www.steptools.com) 
 */

FILE_DESCRIPTION(
/* description */ (''),
/* implementation_level */ '2;1');

FILE_NAME(
/* name */ 'orumcekustgovdebacak1.step',
/* time_stamp */ '2026-08-18T12:15:42+03:00',
/* author */ (''),
/* organization */ (''),
/* preprocessor_version */ 'ST-DEVELOPER v20.1',
/* originating_system */ 'Autodesk Translation Framework v15.8.0.0',
/* authorisation */ '');

FILE_SCHEMA (('AUTOMOTIVE_DESIGN { 1 0 10303 214 3 1 1 }'));
ENDSEC;

DATA;
#10=MECHANICAL_DESIGN_GEOMETRIC_PRESENTATION_REPRESENTATION('',(#13),#1088);
#11=SHAPE_REPRESENTATION_RELATIONSHIP('SRR','None',#1095,#12);
#12=ADVANCED_BREP_SHAPE_REPRESENTATION('',(#14),#1087);
#13=STYLED_ITEM('',(#1105),#14);
#14=MANIFOLD_SOLID_BREP('Body6',#600);
#15=ELLIPSE('',#627,59.0748438430946,29.1941763146879);
#16=ELLIPSE('',#628,59.0748438430946,29.1941763146879);
#17=B_SPLINE_CURVE_WITH_KNOTS('',3,(#825,#826,#827,#828),.UNSPECIFIED.,
 .F.,.F.,(4,4),(0.,1.),.UNSPECIFIED.);
#18=B_SPLINE_CURVE_WITH_KNOTS('',3,(#832,#833,#834,#835),.UNSPECIFIED.,
 .F.,.F.,(4,4),(0.,1.),.UNSPECIFIED.);
#19=B_SPLINE_CURVE_WITH_KNOTS('',3,(#846,#847,#848,#849),.UNSPECIFIED.,
 .F.,.F.,(4,4),(0.,1.),.UNSPECIFIED.);
#20=B_SPLINE_CURVE_WITH_KNOTS('',3,(#852,#853,#854,#855),.UNSPECIFIED.,
 .F.,.F.,(4,4),(0.,1.),.UNSPECIFIED.);
#21=B_SPLINE_CURVE_WITH_KNOTS('',3,(#865,#866,#867,#868),.UNSPECIFIED.,
 .F.,.F.,(4,4),(0.,1.),.UNSPECIFIED.);
#22=B_SPLINE_CURVE_WITH_KNOTS('',3,(#871,#872,#873,#874),.UNSPECIFIED.,
 .F.,.F.,(4,4),(0.,1.),.UNSPECIFIED.);
#23=B_SPLINE_CURVE_WITH_KNOTS('',3,(#884,#885,#886,#887),.UNSPECIFIED.,
 .F.,.F.,(4,4),(0.,1.),.UNSPECIFIED.);
#24=B_SPLINE_CURVE_WITH_KNOTS('',3,(#890,#891,#892,#893),.UNSPECIFIED.,
 .F.,.F.,(4,4),(0.,1.),.UNSPECIFIED.);
#25=B_SPLINE_CURVE_WITH_KNOTS('',3,(#903,#904,#905,#906),.UNSPECIFIED.,
 .F.,.F.,(4,4),(0.,1.),.UNSPECIFIED.);
#26=B_SPLINE_CURVE_WITH_KNOTS('',3,(#909,#910,#911,#912),.UNSPECIFIED.,
 .F.,.F.,(4,4),(0.,1.),.UNSPECIFIED.);
#27=B_SPLINE_CURVE_WITH_KNOTS('',3,(#921,#922,#923,#924),.UNSPECIFIED.,
 .F.,.F.,(4,4),(0.,1.),.UNSPECIFIED.);
#28=B_SPLINE_CURVE_WITH_KNOTS('',3,(#925,#926,#927,#928),.UNSPECIFIED.,
 .F.,.F.,(4,4),(0.,1.),.UNSPECIFIED.);
#29=B_SPLINE_CURVE_WITH_KNOTS('',3,(#939,#940,#941,#942),.UNSPECIFIED.,
 .F.,.F.,(4,4),(-0.0895645055089654,0.),.UNSPECIFIED.);
#30=B_SPLINE_CURVE_WITH_KNOTS('',3,(#946,#947,#948,#949),.UNSPECIFIED.,
 .F.,.F.,(4,4),(-0.0895645055089654,0.),.UNSPECIFIED.);
#31=B_SPLINE_CURVE_WITH_KNOTS('',3,(#961,#962,#963,#964),.UNSPECIFIED.,
 .F.,.F.,(4,4),(-1.,-0.840398477583052),.UNSPECIFIED.);
#32=B_SPLINE_CURVE_WITH_KNOTS('',3,(#968,#969,#970,#971),.UNSPECIFIED.,
 .F.,.F.,(4,4),(-1.,-0.840398477583052),.UNSPECIFIED.);
#33=B_SPLINE_CURVE_WITH_KNOTS('',3,(#982,#983,#984,#985),.UNSPECIFIED.,
 .F.,.F.,(4,4),(-1.,0.),.UNSPECIFIED.);
#34=B_SPLINE_CURVE_WITH_KNOTS('',3,(#988,#989,#990,#991),.UNSPECIFIED.,
 .F.,.F.,(4,4),(-1.,0.),.UNSPECIFIED.);
#35=B_SPLINE_CURVE_WITH_KNOTS('',3,(#1031,#1032,#1033,#1034),
 .UNSPECIFIED.,.F.,.F.,(4,4),(-1.,-0.90291379445882),.UNSPECIFIED.);
#36=B_SPLINE_CURVE_WITH_KNOTS('',3,(#1044,#1045,#1046,#1047,#1048,#1049),
 .UNSPECIFIED.,.F.,.F.,(4,2,4),(-0.2,-0.1,0.),.UNSPECIFIED.);
#37=B_SPLINE_CURVE_WITH_KNOTS('',3,(#1050,#1051,#1052,#1053),
 .UNSPECIFIED.,.F.,.F.,(4,4),(-1.,-0.90291379445882),.UNSPECIFIED.);
#38=B_SPLINE_SURFACE_WITH_KNOTS('',3,1,((#815,#816),(#817,#818),(#819,#820),
(#821,#822)),.UNSPECIFIED.,.F.,.F.,.F.,(4,4),(2,2),(0.,1.),(0.,0.24),
 .UNSPECIFIED.);
#39=B_SPLINE_SURFACE_WITH_KNOTS('',3,1,((#837,#838),(#839,#840),(#841,#842),
(#843,#844)),.UNSPECIFIED.,.F.,.F.,.F.,(4,4),(2,2),(0.,1.),(0.,0.24),
 .UNSPECIFIED.);
#40=B_SPLINE_SURFACE_WITH_KNOTS('',3,1,((#856,#857),(#858,#859),(#860,#861),
(#862,#863)),.UNSPECIFIED.,.F.,.F.,.F.,(4,4),(2,2),(0.,1.),(0.,0.24),
 .UNSPECIFIED.);
#41=B_SPLINE_SURFACE_WITH_KNOTS('',3,1,((#875,#876),(#877,#878),(#879,#880),
(#881,#882)),.UNSPECIFIED.,.F.,.F.,.F.,(4,4),(2,2),(0.,1.),(0.,0.24),
 .UNSPECIFIED.);
#42=B_SPLINE_SURFACE_WITH_KNOTS('',3,1,((#894,#895),(#896,#897),(#898,#899),
(#900,#901)),.UNSPECIFIED.,.F.,.F.,.F.,(4,4),(2,2),(0.,1.),(0.,0.24),
 .UNSPECIFIED.);
#43=B_SPLINE_SURFACE_WITH_KNOTS('',3,1,((#913,#914),(#915,#916),(#917,#918),
(#919,#920)),.UNSPECIFIED.,.F.,.F.,.F.,(4,4),(2,2),(0.,1.),(0.,0.24),
 .UNSPECIFIED.);
#44=B_SPLINE_SURFACE_WITH_KNOTS('',3,1,((#929,#930),(#931,#932),(#933,#934),
(#935,#936)),.UNSPECIFIED.,.F.,.F.,.F.,(4,4),(2,2),(-0.0895645055089654,
0.),(0.,0.24),.UNSPECIFIED.);
#45=B_SPLINE_SURFACE_WITH_KNOTS('',3,1,((#951,#952),(#953,#954),(#955,#956),
(#957,#958)),.UNSPECIFIED.,.F.,.F.,.F.,(4,4),(2,2),(-1.,-0.840398477583052),
(0.,0.24),.UNSPECIFIED.);
#46=B_SPLINE_SURFACE_WITH_KNOTS('',3,1,((#973,#974),(#975,#976),(#977,#978),
(#979,#980)),.UNSPECIFIED.,.F.,.F.,.F.,(4,4),(2,2),(-1.,0.),(0.,0.24),
 .UNSPECIFIED.);
#47=B_SPLINE_SURFACE_WITH_KNOTS('',3,1,((#992,#993),(#994,#995),(#996,#997),
(#998,#999)),.UNSPECIFIED.,.F.,.F.,.F.,(4,4),(2,2),(-0.105528766713226,
0.),(0.,0.24),.UNSPECIFIED.);
#48=B_SPLINE_SURFACE_WITH_KNOTS('',3,1,((#1035,#1036),(#1037,#1038),(#1039,
#1040),(#1041,#1042)),.UNSPECIFIED.,.F.,.F.,.F.,(4,4),(2,2),(-1.,0.),(0.,
0.24),.UNSPECIFIED.);
#49=LINE('',#777,#100);
#50=LINE('',#782,#101);
#51=LINE('',#787,#102);
#52=LINE('',#793,#103);
#53=LINE('',#795,#104);
#54=LINE('',#799,#105);
#55=LINE('',#801,#106);
#56=LINE('',#803,#107);
#57=LINE('',#805,#108);
#58=LINE('',#807,#109);
#59=LINE('',#809,#110);
#60=LINE('',#811,#111);
#61=LINE('',#813,#112);
#62=LINE('',#814,#113);
#63=LINE('',#830,#114);
#64=LINE('',#836,#115);
#65=LINE('',#851,#116);
#66=LINE('',#870,#117);
#67=LINE('',#889,#118);
#68=LINE('',#908,#119);
#69=LINE('',#944,#120);
#70=LINE('',#950,#121);
#71=LINE('',#966,#122);
#72=LINE('',#972,#123);
#73=LINE('',#987,#124);
#74=LINE('',#1003,#125);
#75=LINE('',#1011,#126);
#76=LINE('',#1013,#127);
#77=LINE('',#1017,#128);
#78=LINE('',#1018,#129);
#79=LINE('',#1021,#130);
#80=LINE('',#1022,#131);
#81=LINE('',#1023,#132);
#82=LINE('',#1027,#133);
#83=LINE('',#1029,#134);
#84=LINE('',#1030,#135);
#85=LINE('',#1056,#136);
#86=LINE('',#1058,#137);
#87=LINE('',#1060,#138);
#88=LINE('',#1062,#139);
#89=LINE('',#1064,#140);
#90=LINE('',#1066,#141);
#91=LINE('',#1067,#142);
#92=LINE('',#1069,#143);
#93=LINE('',#1071,#144);
#94=LINE('',#1073,#145);
#95=LINE('',#1075,#146);
#96=LINE('',#1077,#147);
#97=LINE('',#1079,#148);
#98=LINE('',#1081,#149);
#99=LINE('',#1083,#150);
#100=VECTOR('',#658,2.7);
#101=VECTOR('',#665,1.49999999999999);
#102=VECTOR('',#670,5.04999999999999);
#103=VECTOR('',#677,10.);
#104=VECTOR('',#678,10.);
#105=VECTOR('',#681,10.);
#106=VECTOR('',#682,10.);
#107=VECTOR('',#683,10.);
#108=VECTOR('',#684,10.);
#109=VECTOR('',#685,10.);
#110=VECTOR('',#686,10.);
#111=VECTOR('',#687,10.);
#112=VECTOR('',#688,10.);
#113=VECTOR('',#689,10.);
#114=VECTOR('',#690,10.);
#115=VECTOR('',#691,10.);
#116=VECTOR('',#692,10.);
#117=VECTOR('',#693,10.);
#118=VECTOR('',#694,10.);
#119=VECTOR('',#695,10.);
#120=VECTOR('',#696,10.);
#121=VECTOR('',#697,10.);
#122=VECTOR('',#698,10.);
#123=VECTOR('',#699,10.);
#124=VECTOR('',#700,10.);
#125=VECTOR('',#703,10.);
#126=VECTOR('',#716,10.);
#127=VECTOR('',#717,10.);
#128=VECTOR('',#722,10.);
#129=VECTOR('',#723,10.);
#130=VECTOR('',#726,10.);
#131=VECTOR('',#727,10.);
#132=VECTOR('',#728,10.);
#133=VECTOR('',#731,10.);
#134=VECTOR('',#732,10.);
#135=VECTOR('',#733,10.);
#136=VECTOR('',#736,10.);
#137=VECTOR('',#737,10.);
#138=VECTOR('',#738,10.);
#139=VECTOR('',#739,10.);
#140=VECTOR('',#740,10.);
#141=VECTOR('',#741,10.);
#142=VECTOR('',#742,10.);
#143=VECTOR('',#745,10.);
#144=VECTOR('',#748,10.);
#145=VECTOR('',#751,10.);
#146=VECTOR('',#754,10.);
#147=VECTOR('',#757,10.);
#148=VECTOR('',#760,10.);
#149=VECTOR('',#763,10.);
#150=VECTOR('',#766,10.);
#151=CYLINDRICAL_SURFACE('',#617,2.7);
#152=CYLINDRICAL_SURFACE('',#619,1.49999999999999);
#153=CYLINDRICAL_SURFACE('',#621,5.04999999999999);
#154=CYLINDRICAL_SURFACE('',#632,15.);
#155=FACE_BOUND('',#194,.T.);
#156=FACE_BOUND('',#199,.T.);
#157=FACE_BOUND('',#201,.T.);
#158=FACE_BOUND('',#220,.T.);
#159=FACE_BOUND('',#221,.T.);
#160=FACE_OUTER_BOUND('',#193,.T.);
#161=FACE_OUTER_BOUND('',#195,.T.);
#162=FACE_OUTER_BOUND('',#196,.T.);
#163=FACE_OUTER_BOUND('',#197,.T.);
#164=FACE_OUTER_BOUND('',#198,.T.);
#165=FACE_OUTER_BOUND('',#200,.T.);
#166=FACE_OUTER_BOUND('',#202,.T.);
#167=FACE_OUTER_BOUND('',#203,.T.);
#168=FACE_OUTER_BOUND('',#204,.T.);
#169=FACE_OUTER_BOUND('',#205,.T.);
#170=FACE_OUTER_BOUND('',#206,.T.);
#171=FACE_OUTER_BOUND('',#207,.T.);
#172=FACE_OUTER_BOUND('',#208,.T.);
#173=FACE_OUTER_BOUND('',#209,.T.);
#174=FACE_OUTER_BOUND('',#210,.T.);
#175=FACE_OUTER_BOUND('',#211,.T.);
#176=FACE_OUTER_BOUND('',#212,.T.);
#177=FACE_OUTER_BOUND('',#213,.T.);
#178=FACE_OUTER_BOUND('',#214,.T.);
#179=FACE_OUTER_BOUND('',#215,.T.);
#180=FACE_OUTER_BOUND('',#216,.T.);
#181=FACE_OUTER_BOUND('',#217,.T.);
#182=FACE_OUTER_BOUND('',#218,.T.);
#183=FACE_OUTER_BOUND('',#219,.T.);
#184=FACE_OUTER_BOUND('',#222,.T.);
#185=FACE_OUTER_BOUND('',#223,.T.);
#186=FACE_OUTER_BOUND('',#224,.T.);
#187=FACE_OUTER_BOUND('',#225,.T.);
#188=FACE_OUTER_BOUND('',#226,.T.);
#189=FACE_OUTER_BOUND('',#227,.T.);
#190=FACE_OUTER_BOUND('',#228,.T.);
#191=FACE_OUTER_BOUND('',#229,.T.);
#192=FACE_OUTER_BOUND('',#230,.T.);
#193=EDGE_LOOP('',(#381));
#194=EDGE_LOOP('',(#382));
#195=EDGE_LOOP('',(#383,#384,#385,#386));
#196=EDGE_LOOP('',(#387,#388,#389,#390));
#197=EDGE_LOOP('',(#391,#392,#393,#394));
#198=EDGE_LOOP('',(#395));
#199=EDGE_LOOP('',(#396));
#200=EDGE_LOOP('',(#397,#398,#399,#400,#401,#402,#403,#404,#405,#406,#407,
#408));
#201=EDGE_LOOP('',(#409));
#202=EDGE_LOOP('',(#410,#411,#412,#413));
#203=EDGE_LOOP('',(#414,#415,#416,#417));
#204=EDGE_LOOP('',(#418,#419,#420,#421));
#205=EDGE_LOOP('',(#422,#423,#424,#425));
#206=EDGE_LOOP('',(#426,#427,#428,#429));
#207=EDGE_LOOP('',(#430,#431,#432,#433));
#208=EDGE_LOOP('',(#434,#435,#436,#437));
#209=EDGE_LOOP('',(#438,#439,#440,#441));
#210=EDGE_LOOP('',(#442,#443,#444,#445));
#211=EDGE_LOOP('',(#446,#447,#448,#449));
#212=EDGE_LOOP('',(#450,#451,#452,#453,#454,#455));
#213=EDGE_LOOP('',(#456,#457,#458,#459));
#214=EDGE_LOOP('',(#460,#461,#462,#463,#464,#465,#466,#467));
#215=EDGE_LOOP('',(#468,#469,#470,#471));
#216=EDGE_LOOP('',(#472,#473,#474,#475,#476,#477));
#217=EDGE_LOOP('',(#478,#479,#480,#481,#482,#483));
#218=EDGE_LOOP('',(#484,#485,#486,#487));
#219=EDGE_LOOP('',(#488,#489,#490,#491,#492,#493,#494,#495,#496,#497,#498,
#499,#500,#501,#502,#503));
#220=EDGE_LOOP('',(#504));
#221=EDGE_LOOP('',(#505,#506,#507,#508,#509,#510));
#222=EDGE_LOOP('',(#511,#512,#513,#514));
#223=EDGE_LOOP('',(#515,#516,#517,#518));
#224=EDGE_LOOP('',(#519,#520,#521,#522,#523,#524));
#225=EDGE_LOOP('',(#525,#526,#527,#528));
#226=EDGE_LOOP('',(#529,#530,#531,#532));
#227=EDGE_LOOP('',(#533,#534,#535,#536));
#228=EDGE_LOOP('',(#537,#538,#539,#540));
#229=EDGE_LOOP('',(#541,#542,#543,#544));
#230=EDGE_LOOP('',(#545,#546,#547,#548));
#231=CIRCLE('',#615,2.7);
#232=CIRCLE('',#616,1.49999999999999);
#233=CIRCLE('',#618,2.7);
#234=CIRCLE('',#620,1.49999999999999);
#235=CIRCLE('',#622,5.04999999999999);
#236=CIRCLE('',#623,5.04999999999999);
#237=CIRCLE('',#626,15.);
#238=CIRCLE('',#631,15.);
#239=CIRCLE('',#633,15.);
#240=CIRCLE('',#634,15.);
#241=VERTEX_POINT('',#771);
#242=VERTEX_POINT('',#773);
#243=VERTEX_POINT('',#776);
#244=VERTEX_POINT('',#780);
#245=VERTEX_POINT('',#784);
#246=VERTEX_POINT('',#786);
#247=VERTEX_POINT('',#791);
#248=VERTEX_POINT('',#792);
#249=VERTEX_POINT('',#794);
#250=VERTEX_POINT('',#796);
#251=VERTEX_POINT('',#798);
#252=VERTEX_POINT('',#800);
#253=VERTEX_POINT('',#802);
#254=VERTEX_POINT('',#804);
#255=VERTEX_POINT('',#806);
#256=VERTEX_POINT('',#808);
#257=VERTEX_POINT('',#810);
#258=VERTEX_POINT('',#812);
#259=VERTEX_POINT('',#823);
#260=VERTEX_POINT('',#824);
#261=VERTEX_POINT('',#829);
#262=VERTEX_POINT('',#831);
#263=VERTEX_POINT('',#845);
#264=VERTEX_POINT('',#850);
#265=VERTEX_POINT('',#864);
#266=VERTEX_POINT('',#869);
#267=VERTEX_POINT('',#883);
#268=VERTEX_POINT('',#888);
#269=VERTEX_POINT('',#902);
#270=VERTEX_POINT('',#907);
#271=VERTEX_POINT('',#937);
#272=VERTEX_POINT('',#938);
#273=VERTEX_POINT('',#943);
#274=VERTEX_POINT('',#945);
#275=VERTEX_POINT('',#959);
#276=VERTEX_POINT('',#960);
#277=VERTEX_POINT('',#965);
#278=VERTEX_POINT('',#967);
#279=VERTEX_POINT('',#981);
#280=VERTEX_POINT('',#986);
#281=VERTEX_POINT('',#1000);
#282=VERTEX_POINT('',#1002);
#283=VERTEX_POINT('',#1009);
#284=VERTEX_POINT('',#1012);
#285=VERTEX_POINT('',#1016);
#286=VERTEX_POINT('',#1020);
#287=VERTEX_POINT('',#1025);
#288=VERTEX_POINT('',#1026);
#289=VERTEX_POINT('',#1028);
#290=VERTEX_POINT('',#1043);
#291=VERTEX_POINT('',#1055);
#292=VERTEX_POINT('',#1057);
#293=VERTEX_POINT('',#1059);
#294=VERTEX_POINT('',#1061);
#295=VERTEX_POINT('',#1063);
#296=VERTEX_POINT('',#1065);
#297=EDGE_CURVE('',#241,#241,#231,.T.);
#298=EDGE_CURVE('',#242,#242,#232,.T.);
#299=EDGE_CURVE('',#241,#243,#49,.T.);
#300=EDGE_CURVE('',#243,#243,#233,.T.);
#301=EDGE_CURVE('',#244,#244,#234,.T.);
#302=EDGE_CURVE('',#244,#242,#50,.T.);
#303=EDGE_CURVE('',#245,#245,#235,.T.);
#304=EDGE_CURVE('',#245,#246,#51,.T.);
#305=EDGE_CURVE('',#246,#246,#236,.T.);
#306=EDGE_CURVE('',#247,#248,#52,.T.);
#307=EDGE_CURVE('',#249,#248,#53,.T.);
#308=EDGE_CURVE('',#250,#249,#237,.T.);
#309=EDGE_CURVE('',#251,#250,#54,.T.);
#310=EDGE_CURVE('',#251,#252,#55,.T.);
#311=EDGE_CURVE('',#252,#253,#56,.T.);
#312=EDGE_CURVE('',#253,#254,#57,.T.);
#313=EDGE_CURVE('',#254,#255,#58,.T.);
#314=EDGE_CURVE('',#255,#256,#59,.T.);
#315=EDGE_CURVE('',#256,#257,#60,.T.);
#316=EDGE_CURVE('',#257,#258,#61,.T.);
#317=EDGE_CURVE('',#258,#247,#62,.T.);
#318=EDGE_CURVE('',#259,#260,#17,.T.);
#319=EDGE_CURVE('',#259,#261,#63,.T.);
#320=EDGE_CURVE('',#261,#262,#18,.T.);
#321=EDGE_CURVE('',#260,#262,#64,.T.);
#322=EDGE_CURVE('',#263,#259,#19,.T.);
#323=EDGE_CURVE('',#263,#264,#65,.T.);
#324=EDGE_CURVE('',#264,#261,#20,.T.);
#325=EDGE_CURVE('',#265,#263,#21,.T.);
#326=EDGE_CURVE('',#265,#266,#66,.T.);
#327=EDGE_CURVE('',#266,#264,#22,.T.);
#328=EDGE_CURVE('',#267,#265,#23,.T.);
#329=EDGE_CURVE('',#267,#268,#67,.T.);
#330=EDGE_CURVE('',#268,#266,#24,.T.);
#331=EDGE_CURVE('',#269,#267,#25,.T.);
#332=EDGE_CURVE('',#269,#270,#68,.T.);
#333=EDGE_CURVE('',#270,#268,#26,.T.);
#334=EDGE_CURVE('',#260,#269,#27,.T.);
#335=EDGE_CURVE('',#262,#270,#28,.T.);
#336=EDGE_CURVE('',#271,#272,#29,.T.);
#337=EDGE_CURVE('',#273,#271,#69,.T.);
#338=EDGE_CURVE('',#273,#274,#30,.T.);
#339=EDGE_CURVE('',#272,#274,#70,.T.);
#340=EDGE_CURVE('',#275,#276,#31,.T.);
#341=EDGE_CURVE('',#275,#277,#71,.T.);
#342=EDGE_CURVE('',#277,#278,#32,.T.);
#343=EDGE_CURVE('',#276,#278,#72,.T.);
#344=EDGE_CURVE('',#279,#275,#33,.T.);
#345=EDGE_CURVE('',#279,#280,#73,.T.);
#346=EDGE_CURVE('',#280,#277,#34,.T.);
#347=EDGE_CURVE('',#281,#279,#15,.T.);
#348=EDGE_CURVE('',#282,#281,#74,.T.);
#349=EDGE_CURVE('',#282,#280,#16,.T.);
#350=EDGE_CURVE('',#276,#281,#238,.T.);
#351=EDGE_CURVE('',#278,#283,#239,.T.);
#352=EDGE_CURVE('',#250,#283,#75,.T.);
#353=EDGE_CURVE('',#249,#284,#76,.T.);
#354=EDGE_CURVE('',#284,#282,#240,.T.);
#355=EDGE_CURVE('',#248,#285,#77,.T.);
#356=EDGE_CURVE('',#285,#284,#78,.T.);
#357=EDGE_CURVE('',#286,#251,#79,.T.);
#358=EDGE_CURVE('',#283,#273,#80,.T.);
#359=EDGE_CURVE('',#286,#271,#81,.T.);
#360=EDGE_CURVE('',#287,#288,#82,.T.);
#361=EDGE_CURVE('',#288,#289,#83,.T.);
#362=EDGE_CURVE('',#289,#286,#84,.T.);
#363=EDGE_CURVE('',#272,#287,#35,.T.);
#364=EDGE_CURVE('',#290,#287,#36,.T.);
#365=EDGE_CURVE('',#274,#290,#37,.T.);
#366=EDGE_CURVE('',#285,#291,#85,.T.);
#367=EDGE_CURVE('',#291,#292,#86,.T.);
#368=EDGE_CURVE('',#292,#293,#87,.T.);
#369=EDGE_CURVE('',#293,#294,#88,.T.);
#370=EDGE_CURVE('',#294,#295,#89,.T.);
#371=EDGE_CURVE('',#295,#296,#90,.T.);
#372=EDGE_CURVE('',#296,#290,#91,.T.);
#373=EDGE_CURVE('',#252,#289,#92,.T.);
#374=EDGE_CURVE('',#253,#288,#93,.T.);
#375=EDGE_CURVE('',#254,#296,#94,.T.);
#376=EDGE_CURVE('',#255,#295,#95,.T.);
#377=EDGE_CURVE('',#256,#294,#96,.T.);
#378=EDGE_CURVE('',#257,#293,#97,.T.);
#379=EDGE_CURVE('',#258,#292,#98,.T.);
#380=EDGE_CURVE('',#247,#291,#99,.T.);
#381=ORIENTED_EDGE('',*,*,#297,.T.);
#382=ORIENTED_EDGE('',*,*,#298,.F.);
#383=ORIENTED_EDGE('',*,*,#297,.F.);
#384=ORIENTED_EDGE('',*,*,#299,.T.);
#385=ORIENTED_EDGE('',*,*,#300,.F.);
#386=ORIENTED_EDGE('',*,*,#299,.F.);
#387=ORIENTED_EDGE('',*,*,#301,.T.);
#388=ORIENTED_EDGE('',*,*,#302,.T.);
#389=ORIENTED_EDGE('',*,*,#298,.T.);
#390=ORIENTED_EDGE('',*,*,#302,.F.);
#391=ORIENTED_EDGE('',*,*,#303,.F.);
#392=ORIENTED_EDGE('',*,*,#304,.T.);
#393=ORIENTED_EDGE('',*,*,#305,.T.);
#394=ORIENTED_EDGE('',*,*,#304,.F.);
#395=ORIENTED_EDGE('',*,*,#305,.F.);
#396=ORIENTED_EDGE('',*,*,#301,.F.);
#397=ORIENTED_EDGE('',*,*,#306,.T.);
#398=ORIENTED_EDGE('',*,*,#307,.F.);
#399=ORIENTED_EDGE('',*,*,#308,.F.);
#400=ORIENTED_EDGE('',*,*,#309,.F.);
#401=ORIENTED_EDGE('',*,*,#310,.T.);
#402=ORIENTED_EDGE('',*,*,#311,.T.);
#403=ORIENTED_EDGE('',*,*,#312,.T.);
#404=ORIENTED_EDGE('',*,*,#313,.T.);
#405=ORIENTED_EDGE('',*,*,#314,.T.);
#406=ORIENTED_EDGE('',*,*,#315,.T.);
#407=ORIENTED_EDGE('',*,*,#316,.T.);
#408=ORIENTED_EDGE('',*,*,#317,.T.);
#409=ORIENTED_EDGE('',*,*,#303,.T.);
#410=ORIENTED_EDGE('',*,*,#318,.F.);
#411=ORIENTED_EDGE('',*,*,#319,.T.);
#412=ORIENTED_EDGE('',*,*,#320,.T.);
#413=ORIENTED_EDGE('',*,*,#321,.F.);
#414=ORIENTED_EDGE('',*,*,#322,.F.);
#415=ORIENTED_EDGE('',*,*,#323,.T.);
#416=ORIENTED_EDGE('',*,*,#324,.T.);
#417=ORIENTED_EDGE('',*,*,#319,.F.);
#418=ORIENTED_EDGE('',*,*,#325,.F.);
#419=ORIENTED_EDGE('',*,*,#326,.T.);
#420=ORIENTED_EDGE('',*,*,#327,.T.);
#421=ORIENTED_EDGE('',*,*,#323,.F.);
#422=ORIENTED_EDGE('',*,*,#328,.F.);
#423=ORIENTED_EDGE('',*,*,#329,.T.);
#424=ORIENTED_EDGE('',*,*,#330,.T.);
#425=ORIENTED_EDGE('',*,*,#326,.F.);
#426=ORIENTED_EDGE('',*,*,#331,.F.);
#427=ORIENTED_EDGE('',*,*,#332,.T.);
#428=ORIENTED_EDGE('',*,*,#333,.T.);
#429=ORIENTED_EDGE('',*,*,#329,.F.);
#430=ORIENTED_EDGE('',*,*,#334,.F.);
#431=ORIENTED_EDGE('',*,*,#321,.T.);
#432=ORIENTED_EDGE('',*,*,#335,.T.);
#433=ORIENTED_EDGE('',*,*,#332,.F.);
#434=ORIENTED_EDGE('',*,*,#336,.F.);
#435=ORIENTED_EDGE('',*,*,#337,.F.);
#436=ORIENTED_EDGE('',*,*,#338,.T.);
#437=ORIENTED_EDGE('',*,*,#339,.F.);
#438=ORIENTED_EDGE('',*,*,#340,.F.);
#439=ORIENTED_EDGE('',*,*,#341,.T.);
#440=ORIENTED_EDGE('',*,*,#342,.T.);
#441=ORIENTED_EDGE('',*,*,#343,.F.);
#442=ORIENTED_EDGE('',*,*,#344,.F.);
#443=ORIENTED_EDGE('',*,*,#345,.T.);
#444=ORIENTED_EDGE('',*,*,#346,.T.);
#445=ORIENTED_EDGE('',*,*,#341,.F.);
#446=ORIENTED_EDGE('',*,*,#347,.F.);
#447=ORIENTED_EDGE('',*,*,#348,.F.);
#448=ORIENTED_EDGE('',*,*,#349,.T.);
#449=ORIENTED_EDGE('',*,*,#345,.F.);
#450=ORIENTED_EDGE('',*,*,#318,.T.);
#451=ORIENTED_EDGE('',*,*,#334,.T.);
#452=ORIENTED_EDGE('',*,*,#331,.T.);
#453=ORIENTED_EDGE('',*,*,#328,.T.);
#454=ORIENTED_EDGE('',*,*,#325,.T.);
#455=ORIENTED_EDGE('',*,*,#322,.T.);
#456=ORIENTED_EDGE('',*,*,#340,.T.);
#457=ORIENTED_EDGE('',*,*,#350,.T.);
#458=ORIENTED_EDGE('',*,*,#347,.T.);
#459=ORIENTED_EDGE('',*,*,#344,.T.);
#460=ORIENTED_EDGE('',*,*,#351,.T.);
#461=ORIENTED_EDGE('',*,*,#352,.F.);
#462=ORIENTED_EDGE('',*,*,#308,.T.);
#463=ORIENTED_EDGE('',*,*,#353,.T.);
#464=ORIENTED_EDGE('',*,*,#354,.T.);
#465=ORIENTED_EDGE('',*,*,#348,.T.);
#466=ORIENTED_EDGE('',*,*,#350,.F.);
#467=ORIENTED_EDGE('',*,*,#343,.T.);
#468=ORIENTED_EDGE('',*,*,#355,.T.);
#469=ORIENTED_EDGE('',*,*,#356,.T.);
#470=ORIENTED_EDGE('',*,*,#353,.F.);
#471=ORIENTED_EDGE('',*,*,#307,.T.);
#472=ORIENTED_EDGE('',*,*,#357,.T.);
#473=ORIENTED_EDGE('',*,*,#309,.T.);
#474=ORIENTED_EDGE('',*,*,#352,.T.);
#475=ORIENTED_EDGE('',*,*,#358,.T.);
#476=ORIENTED_EDGE('',*,*,#337,.T.);
#477=ORIENTED_EDGE('',*,*,#359,.F.);
#478=ORIENTED_EDGE('',*,*,#360,.T.);
#479=ORIENTED_EDGE('',*,*,#361,.T.);
#480=ORIENTED_EDGE('',*,*,#362,.T.);
#481=ORIENTED_EDGE('',*,*,#359,.T.);
#482=ORIENTED_EDGE('',*,*,#336,.T.);
#483=ORIENTED_EDGE('',*,*,#363,.T.);
#484=ORIENTED_EDGE('',*,*,#364,.T.);
#485=ORIENTED_EDGE('',*,*,#363,.F.);
#486=ORIENTED_EDGE('',*,*,#339,.T.);
#487=ORIENTED_EDGE('',*,*,#365,.T.);
#488=ORIENTED_EDGE('',*,*,#366,.T.);
#489=ORIENTED_EDGE('',*,*,#367,.T.);
#490=ORIENTED_EDGE('',*,*,#368,.T.);
#491=ORIENTED_EDGE('',*,*,#369,.T.);
#492=ORIENTED_EDGE('',*,*,#370,.T.);
#493=ORIENTED_EDGE('',*,*,#371,.T.);
#494=ORIENTED_EDGE('',*,*,#372,.T.);
#495=ORIENTED_EDGE('',*,*,#365,.F.);
#496=ORIENTED_EDGE('',*,*,#338,.F.);
#497=ORIENTED_EDGE('',*,*,#358,.F.);
#498=ORIENTED_EDGE('',*,*,#351,.F.);
#499=ORIENTED_EDGE('',*,*,#342,.F.);
#500=ORIENTED_EDGE('',*,*,#346,.F.);
#501=ORIENTED_EDGE('',*,*,#349,.F.);
#502=ORIENTED_EDGE('',*,*,#354,.F.);
#503=ORIENTED_EDGE('',*,*,#356,.F.);
#504=ORIENTED_EDGE('',*,*,#300,.T.);
#505=ORIENTED_EDGE('',*,*,#335,.F.);
#506=ORIENTED_EDGE('',*,*,#320,.F.);
#507=ORIENTED_EDGE('',*,*,#324,.F.);
#508=ORIENTED_EDGE('',*,*,#327,.F.);
#509=ORIENTED_EDGE('',*,*,#330,.F.);
#510=ORIENTED_EDGE('',*,*,#333,.F.);
#511=ORIENTED_EDGE('',*,*,#362,.F.);
#512=ORIENTED_EDGE('',*,*,#373,.F.);
#513=ORIENTED_EDGE('',*,*,#310,.F.);
#514=ORIENTED_EDGE('',*,*,#357,.F.);
#515=ORIENTED_EDGE('',*,*,#361,.F.);
#516=ORIENTED_EDGE('',*,*,#374,.F.);
#517=ORIENTED_EDGE('',*,*,#311,.F.);
#518=ORIENTED_EDGE('',*,*,#373,.T.);
#519=ORIENTED_EDGE('',*,*,#372,.F.);
#520=ORIENTED_EDGE('',*,*,#375,.F.);
#521=ORIENTED_EDGE('',*,*,#312,.F.);
#522=ORIENTED_EDGE('',*,*,#374,.T.);
#523=ORIENTED_EDGE('',*,*,#360,.F.);
#524=ORIENTED_EDGE('',*,*,#364,.F.);
#525=ORIENTED_EDGE('',*,*,#371,.F.);
#526=ORIENTED_EDGE('',*,*,#376,.F.);
#527=ORIENTED_EDGE('',*,*,#313,.F.);
#528=ORIENTED_EDGE('',*,*,#375,.T.);
#529=ORIENTED_EDGE('',*,*,#370,.F.);
#530=ORIENTED_EDGE('',*,*,#377,.F.);
#531=ORIENTED_EDGE('',*,*,#314,.F.);
#532=ORIENTED_EDGE('',*,*,#376,.T.);
#533=ORIENTED_EDGE('',*,*,#369,.F.);
#534=ORIENTED_EDGE('',*,*,#378,.F.);
#535=ORIENTED_EDGE('',*,*,#315,.F.);
#536=ORIENTED_EDGE('',*,*,#377,.T.);
#537=ORIENTED_EDGE('',*,*,#368,.F.);
#538=ORIENTED_EDGE('',*,*,#379,.F.);
#539=ORIENTED_EDGE('',*,*,#316,.F.);
#540=ORIENTED_EDGE('',*,*,#378,.T.);
#541=ORIENTED_EDGE('',*,*,#367,.F.);
#542=ORIENTED_EDGE('',*,*,#380,.F.);
#543=ORIENTED_EDGE('',*,*,#317,.F.);
#544=ORIENTED_EDGE('',*,*,#379,.T.);
#545=ORIENTED_EDGE('',*,*,#366,.F.);
#546=ORIENTED_EDGE('',*,*,#355,.F.);
#547=ORIENTED_EDGE('',*,*,#306,.F.);
#548=ORIENTED_EDGE('',*,*,#380,.T.);
#549=PLANE('',#614);
#550=PLANE('',#624);
#551=PLANE('',#625);
#552=PLANE('',#629);
#553=PLANE('',#630);
#554=PLANE('',#635);
#555=PLANE('',#636);
#556=PLANE('',#637);
#557=PLANE('',#638);
#558=PLANE('',#639);
#559=PLANE('',#640);
#560=PLANE('',#641);
#561=PLANE('',#642);
#562=PLANE('',#643);
#563=PLANE('',#644);
#564=PLANE('',#645);
#565=PLANE('',#646);
#566=PLANE('',#647);
#567=ADVANCED_FACE('',(#160,#155),#549,.F.);
#568=ADVANCED_FACE('',(#161),#151,.F.);
#569=ADVANCED_FACE('',(#162),#152,.F.);
#570=ADVANCED_FACE('',(#163),#153,.F.);
#571=ADVANCED_FACE('',(#164,#156),#550,.T.);
#572=ADVANCED_FACE('',(#165,#157),#551,.T.);
#573=ADVANCED_FACE('',(#166),#38,.F.);
#574=ADVANCED_FACE('',(#167),#39,.F.);
#575=ADVANCED_FACE('',(#168),#40,.F.);
#576=ADVANCED_FACE('',(#169),#41,.F.);
#577=ADVANCED_FACE('',(#170),#42,.F.);
#578=ADVANCED_FACE('',(#171),#43,.F.);
#579=ADVANCED_FACE('',(#172),#44,.F.);
#580=ADVANCED_FACE('',(#173),#45,.F.);
#581=ADVANCED_FACE('',(#174),#46,.F.);
#582=ADVANCED_FACE('',(#175),#47,.F.);
#583=ADVANCED_FACE('',(#176),#552,.F.);
#584=ADVANCED_FACE('',(#177),#553,.F.);
#585=ADVANCED_FACE('',(#178),#154,.T.);
#586=ADVANCED_FACE('',(#179),#554,.T.);
#587=ADVANCED_FACE('',(#180),#555,.T.);
#588=ADVANCED_FACE('',(#181),#556,.F.);
#589=ADVANCED_FACE('',(#182),#48,.F.);
#590=ADVANCED_FACE('',(#183,#158,#159),#557,.T.);
#591=ADVANCED_FACE('',(#184),#558,.F.);
#592=ADVANCED_FACE('',(#185),#559,.F.);
#593=ADVANCED_FACE('',(#186),#560,.F.);
#594=ADVANCED_FACE('',(#187),#561,.F.);
#595=ADVANCED_FACE('',(#188),#562,.F.);
#596=ADVANCED_FACE('',(#189),#563,.F.);
#597=ADVANCED_FACE('',(#190),#564,.F.);
#598=ADVANCED_FACE('',(#191),#565,.F.);
#599=ADVANCED_FACE('',(#192),#566,.F.);
#600=CLOSED_SHELL('',(#567,#568,#569,#570,#571,#572,#573,#574,#575,#576,
#577,#578,#579,#580,#581,#582,#583,#584,#585,#586,#587,#588,#589,#590,#591,
#592,#593,#594,#595,#596,#597,#598,#599));
#601=DERIVED_UNIT_ELEMENT(#603,1.);
#602=DERIVED_UNIT_ELEMENT(#1090,-3.);
#603=(
MASS_UNIT()
NAMED_UNIT(*)
SI_UNIT(.KILO.,.GRAM.)
);
#604=DERIVED_UNIT((#601,#602));
#605=MEASURE_REPRESENTATION_ITEM('density measure',
POSITIVE_RATIO_MEASURE(7850.),#604);
#606=PROPERTY_DEFINITION_REPRESENTATION(#611,#608);
#607=PROPERTY_DEFINITION_REPRESENTATION(#612,#609);
#608=REPRESENTATION('material name',(#610),#1087);
#609=REPRESENTATION('density',(#605),#1087);
#610=DESCRIPTIVE_REPRESENTATION_ITEM('Steel','Steel');
#611=PROPERTY_DEFINITION('material property','material name',#1097);
#612=PROPERTY_DEFINITION('material property','density of part',#1097);
#613=AXIS2_PLACEMENT_3D('',#769,#648,#649);
#614=AXIS2_PLACEMENT_3D('',#770,#650,#651);
#615=AXIS2_PLACEMENT_3D('',#772,#652,#653);
#616=AXIS2_PLACEMENT_3D('',#774,#654,#655);
#617=AXIS2_PLACEMENT_3D('',#775,#656,#657);
#618=AXIS2_PLACEMENT_3D('',#778,#659,#660);
#619=AXIS2_PLACEMENT_3D('',#779,#661,#662);
#620=AXIS2_PLACEMENT_3D('',#781,#663,#664);
#621=AXIS2_PLACEMENT_3D('',#783,#666,#667);
#622=AXIS2_PLACEMENT_3D('',#785,#668,#669);
#623=AXIS2_PLACEMENT_3D('',#788,#671,#672);
#624=AXIS2_PLACEMENT_3D('',#789,#673,#674);
#625=AXIS2_PLACEMENT_3D('',#790,#675,#676);
#626=AXIS2_PLACEMENT_3D('',#797,#679,#680);
#627=AXIS2_PLACEMENT_3D('',#1001,#701,#702);
#628=AXIS2_PLACEMENT_3D('',#1004,#704,#705);
#629=AXIS2_PLACEMENT_3D('',#1005,#706,#707);
#630=AXIS2_PLACEMENT_3D('',#1006,#708,#709);
#631=AXIS2_PLACEMENT_3D('',#1007,#710,#711);
#632=AXIS2_PLACEMENT_3D('',#1008,#712,#713);
#633=AXIS2_PLACEMENT_3D('',#1010,#714,#715);
#634=AXIS2_PLACEMENT_3D('',#1014,#718,#719);
#635=AXIS2_PLACEMENT_3D('',#1015,#720,#721);
#636=AXIS2_PLACEMENT_3D('',#1019,#724,#725);
#637=AXIS2_PLACEMENT_3D('',#1024,#729,#730);
#638=AXIS2_PLACEMENT_3D('',#1054,#734,#735);
#639=AXIS2_PLACEMENT_3D('',#1068,#743,#744);
#640=AXIS2_PLACEMENT_3D('',#1070,#746,#747);
#641=AXIS2_PLACEMENT_3D('',#1072,#749,#750);
#642=AXIS2_PLACEMENT_3D('',#1074,#752,#753);
#643=AXIS2_PLACEMENT_3D('',#1076,#755,#756);
#644=AXIS2_PLACEMENT_3D('',#1078,#758,#759);
#645=AXIS2_PLACEMENT_3D('',#1080,#761,#762);
#646=AXIS2_PLACEMENT_3D('',#1082,#764,#765);
#647=AXIS2_PLACEMENT_3D('',#1084,#767,#768);
#648=DIRECTION('axis',(0.,0.,1.));
#649=DIRECTION('refdir',(1.,0.,0.));
#650=DIRECTION('center_axis',(0.,0.,1.));
#651=DIRECTION('ref_axis',(-1.,0.,0.));
#652=DIRECTION('center_axis',(0.,0.,-1.));
#653=DIRECTION('ref_axis',(-1.,0.,0.));
#654=DIRECTION('center_axis',(0.,0.,-1.));
#655=DIRECTION('ref_axis',(-1.,0.,0.));
#656=DIRECTION('center_axis',(0.,0.,-1.));
#657=DIRECTION('ref_axis',(-1.,0.,0.));
#658=DIRECTION('',(0.,0.,-1.));
#659=DIRECTION('center_axis',(0.,0.,1.));
#660=DIRECTION('ref_axis',(-1.,0.,0.));
#661=DIRECTION('center_axis',(0.,0.,-1.));
#662=DIRECTION('ref_axis',(-1.,0.,0.));
#663=DIRECTION('center_axis',(0.,0.,1.));
#664=DIRECTION('ref_axis',(-1.,0.,0.));
#665=DIRECTION('',(0.,0.,-1.));
#666=DIRECTION('center_axis',(0.,0.,-1.));
#667=DIRECTION('ref_axis',(-1.,0.,0.));
#668=DIRECTION('center_axis',(0.,0.,-1.));
#669=DIRECTION('ref_axis',(-1.,0.,0.));
#670=DIRECTION('',(0.,0.,-1.));
#671=DIRECTION('center_axis',(0.,0.,-1.));
#672=DIRECTION('ref_axis',(-1.,0.,0.));
#673=DIRECTION('center_axis',(0.,0.,1.));
#674=DIRECTION('ref_axis',(-1.,0.,0.));
#675=DIRECTION('center_axis',(0.,0.,1.));
#676=DIRECTION('ref_axis',(-1.,0.,0.));
#677=DIRECTION('',(-0.745521964111652,-0.666481058265804,0.));
#678=DIRECTION('',(-0.666481058265805,0.74552196411165,0.));
#679=DIRECTION('center_axis',(0.,0.,-1.));
#680=DIRECTION('ref_axis',(-0.745521964111651,-0.666481058265805,0.));
#681=DIRECTION('',(0.6664810582658,-0.745521964111655,0.));
#682=DIRECTION('',(-0.745521964111613,-0.666481058265847,0.));
#683=DIRECTION('',(0.919108169580843,-0.394005295154459,0.));
#684=DIRECTION('',(-0.745521964111672,-0.66648105826578,0.));
#685=DIRECTION('',(-0.288965776456317,0.957339427808652,0.));
#686=DIRECTION('',(-0.74552196411166,-0.666481058265794,0.));
#687=DIRECTION('',(0.919108169581121,-0.39400529515381,0.));
#688=DIRECTION('',(-0.745521964111647,-0.666481058265809,0.));
#689=DIRECTION('',(-0.28896577645635,0.957339427808643,0.));
#690=DIRECTION('',(0.,0.,1.));
#691=DIRECTION('',(0.,0.,1.));
#692=DIRECTION('',(0.,0.,1.));
#693=DIRECTION('',(0.,0.,1.));
#694=DIRECTION('',(0.,0.,1.));
#695=DIRECTION('',(0.,0.,1.));
#696=DIRECTION('',(0.,0.,-1.));
#697=DIRECTION('',(0.,0.,1.));
#698=DIRECTION('',(0.,0.,1.));
#699=DIRECTION('',(0.,0.,1.));
#700=DIRECTION('',(0.,0.,1.));
#701=DIRECTION('center_axis',(0.,0.,-1.));
#702=DIRECTION('ref_axis',(0.999456676987673,-0.0329598365402252,0.));
#703=DIRECTION('',(0.,0.,-1.));
#704=DIRECTION('center_axis',(0.,0.,-1.));
#705=DIRECTION('ref_axis',(0.999456676987673,-0.0329598365402252,0.));
#706=DIRECTION('center_axis',(0.,0.,1.));
#707=DIRECTION('ref_axis',(-1.,0.,0.));
#708=DIRECTION('center_axis',(0.,0.,1.));
#709=DIRECTION('ref_axis',(-1.,0.,0.));
#710=DIRECTION('center_axis',(0.,0.,-1.));
#711=DIRECTION('ref_axis',(-0.745521964111651,-0.666481058265805,0.));
#712=DIRECTION('center_axis',(0.,0.,-1.));
#713=DIRECTION('ref_axis',(-0.745521964111651,-0.666481058265805,0.));
#714=DIRECTION('center_axis',(0.,0.,1.));
#715=DIRECTION('ref_axis',(-0.745521964111651,-0.666481058265805,0.));
#716=DIRECTION('',(0.,0.,-1.));
#717=DIRECTION('',(0.,0.,-1.));
#718=DIRECTION('center_axis',(0.,0.,1.));
#719=DIRECTION('ref_axis',(-0.745521964111651,-0.666481058265805,0.));
#720=DIRECTION('center_axis',(-0.74552196411165,-0.666481058265805,0.));
#721=DIRECTION('ref_axis',(-0.666481058265805,0.74552196411165,0.));
#722=DIRECTION('',(0.,0.,-1.));
#723=DIRECTION('',(0.666481058265805,-0.74552196411165,0.));
#724=DIRECTION('center_axis',(0.745521964111655,0.6664810582658,0.));
#725=DIRECTION('ref_axis',(0.6664810582658,-0.745521964111655,0.));
#726=DIRECTION('',(0.,0.,1.));
#727=DIRECTION('',(-0.6664810582658,0.745521964111655,0.));
#728=DIRECTION('',(0.6664810582658,-0.745521964111655,0.));
#729=DIRECTION('center_axis',(0.,0.,1.));
#730=DIRECTION('ref_axis',(-1.,0.,0.));
#731=DIRECTION('',(0.745521964111672,0.66648105826578,0.));
#732=DIRECTION('',(-0.919108169580843,0.394005295154459,0.));
#733=DIRECTION('',(0.745521964111613,0.666481058265847,0.));
#734=DIRECTION('center_axis',(0.,0.,-1.));
#735=DIRECTION('ref_axis',(1.,0.,0.));
#736=DIRECTION('',(0.745521964111652,0.666481058265804,0.));
#737=DIRECTION('',(0.28896577645635,-0.957339427808643,0.));
#738=DIRECTION('',(0.745521964111647,0.666481058265809,0.));
#739=DIRECTION('',(-0.919108169581121,0.39400529515381,0.));
#740=DIRECTION('',(0.74552196411166,0.666481058265794,0.));
#741=DIRECTION('',(0.288965776456317,-0.957339427808652,0.));
#742=DIRECTION('',(0.745521964111672,0.66648105826578,0.));
#743=DIRECTION('center_axis',(0.666481058265847,-0.745521964111613,0.));
#744=DIRECTION('ref_axis',(-0.745521964111613,-0.666481058265847,0.));
#745=DIRECTION('',(0.,0.,-1.));
#746=DIRECTION('center_axis',(0.394005295154459,0.919108169580843,0.));
#747=DIRECTION('ref_axis',(0.919108169580843,-0.394005295154459,0.));
#748=DIRECTION('',(0.,0.,-1.));
#749=DIRECTION('center_axis',(0.66648105826578,-0.745521964111672,0.));
#750=DIRECTION('ref_axis',(-0.745521964111672,-0.66648105826578,0.));
#751=DIRECTION('',(0.,0.,-1.));
#752=DIRECTION('center_axis',(-0.957339427808653,-0.288965776456317,0.));
#753=DIRECTION('ref_axis',(-0.288965776456317,0.957339427808652,0.));
#754=DIRECTION('',(0.,0.,-1.));
#755=DIRECTION('center_axis',(0.666481058265794,-0.74552196411166,0.));
#756=DIRECTION('ref_axis',(-0.74552196411166,-0.666481058265794,0.));
#757=DIRECTION('',(0.,0.,-1.));
#758=DIRECTION('center_axis',(0.39400529515381,0.919108169581121,0.));
#759=DIRECTION('ref_axis',(0.919108169581121,-0.39400529515381,0.));
#760=DIRECTION('',(0.,0.,-1.));
#761=DIRECTION('center_axis',(0.666481058265809,-0.745521964111647,0.));
#762=DIRECTION('ref_axis',(-0.745521964111647,-0.666481058265809,0.));
#763=DIRECTION('',(0.,0.,-1.));
#764=DIRECTION('center_axis',(-0.957339427808642,-0.28896577645635,0.));
#765=DIRECTION('ref_axis',(-0.28896577645635,0.957339427808643,0.));
#766=DIRECTION('',(0.,0.,-1.));
#767=DIRECTION('center_axis',(0.666481058265804,-0.745521964111652,0.));
#768=DIRECTION('ref_axis',(-0.745521964111652,-0.666481058265804,0.));
#769=CARTESIAN_POINT('',(0.,0.,0.));
#770=CARTESIAN_POINT('Origin',(175.578113255177,-16.3657019842309,6.1035162724936));
#771=CARTESIAN_POINT('',(178.278113255177,-16.3657019842309,6.1035162724936));
#772=CARTESIAN_POINT('Origin',(175.578113255177,-16.3657019842309,6.1035162724936));
#773=CARTESIAN_POINT('',(177.078113255177,-16.3657019842309,6.1035162724936));
#774=CARTESIAN_POINT('Origin',(175.578113255177,-16.3657019842309,6.1035162724936));
#775=CARTESIAN_POINT('Origin',(175.578113255177,-16.3657019842309,10.1035162724936));
#776=CARTESIAN_POINT('',(178.278113255177,-16.3657019842309,4.1035162724936));
#777=CARTESIAN_POINT('',(178.278113255177,-16.3657019842309,10.1035162724936));
#778=CARTESIAN_POINT('Origin',(175.578113255177,-16.3657019842309,4.10351627249359));
#779=CARTESIAN_POINT('Origin',(175.578113255177,-16.3657019842309,10.1035162724936));
#780=CARTESIAN_POINT('',(177.078113255177,-16.3657019842309,8.1035162724936));
#781=CARTESIAN_POINT('Origin',(175.578113255177,-16.3657019842309,8.1035162724936));
#782=CARTESIAN_POINT('',(177.078113255177,-16.3657019842309,10.1035162724936));
#783=CARTESIAN_POINT('Origin',(175.578113255177,-16.3657019842309,10.1035162724936));
#784=CARTESIAN_POINT('',(180.628113255177,-16.3657019842309,10.1035162724936));
#785=CARTESIAN_POINT('Origin',(175.578113255177,-16.3657019842309,10.1035162724936));
#786=CARTESIAN_POINT('',(180.628113255177,-16.3657019842309,8.1035162724936));
#787=CARTESIAN_POINT('',(180.628113255177,-16.3657019842309,10.1035162724936));
#788=CARTESIAN_POINT('Origin',(175.578113255177,-16.3657019842309,8.1035162724936));
#789=CARTESIAN_POINT('Origin',(175.578113255177,-16.3657019842309,8.1035162724936));
#790=CARTESIAN_POINT('Origin',(18.4370497025956,62.6331359959283,10.1035162724936));
#791=CARTESIAN_POINT('',(135.561413199577,14.8929940647274,10.1035162724936));
#792=CARTESIAN_POINT('',(131.088281414907,10.8941077151326,10.1035162724936));
#793=CARTESIAN_POINT('',(114.872848726141,-3.60215028784133,10.1035162724936));
#794=CARTESIAN_POINT('',(164.395283793503,-26.362917858218,10.1035162724936));
#795=CARTESIAN_POINT('',(109.868165329149,34.6308102466262,10.1035162724936));
#796=CARTESIAN_POINT('',(186.760942716851,-6.36848611024387,10.1035162724936));
#797=CARTESIAN_POINT('Origin',(175.578113255177,-16.3657019842309,10.1035162724936));
#798=CARTESIAN_POINT('',(153.453940338256,30.8885394631064,10.1035162724936));
#799=CARTESIAN_POINT('',(107.163365262039,82.6689164485776,10.1035162724936));
#800=CARTESIAN_POINT('',(148.092605766194,26.0956183805423,10.1035162724936));
#801=CARTESIAN_POINT('',(123.819112295485,4.39562241134863,10.1035162724936));
#802=CARTESIAN_POINT('',(154.177347722913,23.487197924777,10.1035162724936));
#803=CARTESIAN_POINT('',(86.7129738807108,52.4079728758145,10.1035162724936));
#804=CARTESIAN_POINT('',(146.722128081796,16.8223873421191,10.1035162724936));
#805=CARTESIAN_POINT('',(126.180259162605,-1.54161425015189,10.1035162724936));
#806=CARTESIAN_POINT('',(144.80909733933,23.1602304556965,10.1035162724936));
#807=CARTESIAN_POINT('',(135.029643281177,55.5594199622381,10.1035162724936));
#808=CARTESIAN_POINT('',(138.844921626437,17.8283819895702,10.1035162724936));
#809=CARTESIAN_POINT('',(119.496690796017,0.531467907643064,10.1035162724936));
#810=CARTESIAN_POINT('',(144.92966358316,15.219961533808,10.1035162724936));
#811=CARTESIAN_POINT('',(79.8744042043501,43.1079920411827,10.1035162724936));
#812=CARTESIAN_POINT('',(137.474443942043,8.55515095114988,10.1035162724936));
#813=CARTESIAN_POINT('',(121.556417092731,-5.67523244563588,10.1035162724936));
#814=CARTESIAN_POINT('',(125.024538356215,49.8015076511408,10.1035162724936));
#815=CARTESIAN_POINT('Ctrl Pts',(161.992617210419,11.3358148830542,2.10351627249359));
#816=CARTESIAN_POINT('Ctrl Pts',(161.992617210419,11.3358148830542,4.50351627249359));
#817=CARTESIAN_POINT('Ctrl Pts',(161.634450280538,4.09910099997214,2.10351627249359));
#818=CARTESIAN_POINT('Ctrl Pts',(161.634450280538,4.09910099997214,4.50351627249359));
#819=CARTESIAN_POINT('Ctrl Pts',(163.158756463399,-0.602455933748764,2.10351627249359));
#820=CARTESIAN_POINT('Ctrl Pts',(163.158756463399,-0.602455933748764,4.50351627249359));
#821=CARTESIAN_POINT('Ctrl Pts',(164.188138075541,-1.17455804492939,2.10351627249359));
#822=CARTESIAN_POINT('Ctrl Pts',(164.188138075541,-1.17455804492939,4.50351627249359));
#823=CARTESIAN_POINT('',(161.992617210419,11.3358148830542,2.10351627249359));
#824=CARTESIAN_POINT('',(164.188138075541,-1.17455804492939,2.10351627249359));
#825=CARTESIAN_POINT('Ctrl Pts',(161.992617210419,11.3358148830542,2.10351627249359));
#826=CARTESIAN_POINT('Ctrl Pts',(161.634450280538,4.09910099997214,2.10351627249359));
#827=CARTESIAN_POINT('Ctrl Pts',(163.158756463399,-0.602455933748764,2.10351627249359));
#828=CARTESIAN_POINT('Ctrl Pts',(164.188138075541,-1.17455804492939,2.10351627249359));
#829=CARTESIAN_POINT('',(161.992617210419,11.3358148830542,4.10351627249359));
#830=CARTESIAN_POINT('',(161.992617210419,11.3358148830542,2.10351627249359));
#831=CARTESIAN_POINT('',(164.188138075541,-1.17455804492938,4.10351627249359));
#832=CARTESIAN_POINT('Ctrl Pts',(161.992617210419,11.3358148830542,4.10351627249359));
#833=CARTESIAN_POINT('Ctrl Pts',(161.634450280538,4.09910099997214,4.10351627249359));
#834=CARTESIAN_POINT('Ctrl Pts',(163.158756463399,-0.602455933748764,4.10351627249359));
#835=CARTESIAN_POINT('Ctrl Pts',(164.188138075541,-1.17455804492939,4.10351627249359));
#836=CARTESIAN_POINT('',(164.188138075541,-1.17455804492939,2.10351627249359));
#837=CARTESIAN_POINT('Ctrl Pts',(140.010065266958,9.55620855345421,2.10351627249359));
#838=CARTESIAN_POINT('Ctrl Pts',(140.010065266958,9.55620855345421,4.50351627249359));
#839=CARTESIAN_POINT('Ctrl Pts',(148.127110993734,7.79108373655967,2.10351627249359));
#840=CARTESIAN_POINT('Ctrl Pts',(148.127110993734,7.79108373655967,4.50351627249359));
#841=CARTESIAN_POINT('Ctrl Pts',(157.07259533313,7.28508183811199,2.10351627249359));
#842=CARTESIAN_POINT('Ctrl Pts',(157.07259533313,7.28508183811199,4.50351627249359));
#843=CARTESIAN_POINT('Ctrl Pts',(161.992617210419,11.3358148830542,2.10351627249359));
#844=CARTESIAN_POINT('Ctrl Pts',(161.992617210419,11.3358148830542,4.50351627249359));
#845=CARTESIAN_POINT('',(140.010065266958,9.55620855345421,2.10351627249359));
#846=CARTESIAN_POINT('Ctrl Pts',(140.010065266958,9.55620855345421,2.10351627249359));
#847=CARTESIAN_POINT('Ctrl Pts',(148.127110993734,7.79108373655967,2.10351627249359));
#848=CARTESIAN_POINT('Ctrl Pts',(157.07259533313,7.28508183811199,2.10351627249359));
#849=CARTESIAN_POINT('Ctrl Pts',(161.992617210419,11.3358148830542,2.10351627249359));
#850=CARTESIAN_POINT('',(140.010065266958,9.55620855345421,4.10351627249359));
#851=CARTESIAN_POINT('',(140.010065266958,9.55620855345421,2.10351627249359));
#852=CARTESIAN_POINT('Ctrl Pts',(140.010065266958,9.55620855345421,4.10351627249359));
#853=CARTESIAN_POINT('Ctrl Pts',(148.127110993734,7.79108373655967,4.10351627249359));
#854=CARTESIAN_POINT('Ctrl Pts',(157.07259533313,7.28508183811199,4.10351627249359));
#855=CARTESIAN_POINT('Ctrl Pts',(161.992617210419,11.3358148830542,4.10351627249359));
#856=CARTESIAN_POINT('Ctrl Pts',(157.358244887065,-13.3862411942672,2.10351627249359));
#857=CARTESIAN_POINT('Ctrl Pts',(157.358244887065,-13.3862411942672,4.50351627249359));
#858=CARTESIAN_POINT('Ctrl Pts',(154.580759382914,-4.5728062882613,2.10351627249359));
#859=CARTESIAN_POINT('Ctrl Pts',(154.580759382914,-4.5728062882613,4.50351627249359));
#860=CARTESIAN_POINT('Ctrl Pts',(149.240746184062,2.82221592281354,2.10351627249359));
#861=CARTESIAN_POINT('Ctrl Pts',(149.240746184062,2.82221592281354,4.50351627249359));
#862=CARTESIAN_POINT('Ctrl Pts',(140.010065266958,9.55620855345421,2.10351627249359));
#863=CARTESIAN_POINT('Ctrl Pts',(140.010065266958,9.55620855345421,4.50351627249359));
#864=CARTESIAN_POINT('',(157.358244887065,-13.3862411942672,2.10351627249359));
#865=CARTESIAN_POINT('Ctrl Pts',(157.358244887065,-13.3862411942672,2.10351627249359));
#866=CARTESIAN_POINT('Ctrl Pts',(154.580759382914,-4.5728062882613,2.10351627249359));
#867=CARTESIAN_POINT('Ctrl Pts',(149.240746184062,2.82221592281354,2.10351627249359));
#868=CARTESIAN_POINT('Ctrl Pts',(140.010065266958,9.55620855345421,2.10351627249359));
#869=CARTESIAN_POINT('',(157.358244887065,-13.3862411942671,4.10351627249359));
#870=CARTESIAN_POINT('',(157.358244887065,-13.3862411942672,2.10351627249359));
#871=CARTESIAN_POINT('Ctrl Pts',(157.358244887065,-13.3862411942672,4.10351627249359));
#872=CARTESIAN_POINT('Ctrl Pts',(154.580759382914,-4.5728062882613,4.10351627249359));
#873=CARTESIAN_POINT('Ctrl Pts',(149.240746184062,2.82221592281354,4.10351627249359));
#874=CARTESIAN_POINT('Ctrl Pts',(140.010065266958,9.55620855345421,4.10351627249359));
#875=CARTESIAN_POINT('Ctrl Pts',(176.018778995545,-11.1651820785394,2.10351627249359));
#876=CARTESIAN_POINT('Ctrl Pts',(176.018778995545,-11.1651820785394,4.50351627249359));
#877=CARTESIAN_POINT('Ctrl Pts',(170.06492810316,-5.35975639647154,2.10351627249359));
#878=CARTESIAN_POINT('Ctrl Pts',(170.06492810316,-5.35975639647154,4.50351627249359));
#879=CARTESIAN_POINT('Ctrl Pts',(160.971306811045,-8.6963518300246,2.10351627249359));
#880=CARTESIAN_POINT('Ctrl Pts',(160.971306811045,-8.6963518300246,4.50351627249359));
#881=CARTESIAN_POINT('Ctrl Pts',(157.358244887065,-13.3862411942672,2.10351627249359));
#882=CARTESIAN_POINT('Ctrl Pts',(157.358244887065,-13.3862411942672,4.50351627249359));
#883=CARTESIAN_POINT('',(176.018778995545,-11.1651820785394,2.10351627249359));
#884=CARTESIAN_POINT('Ctrl Pts',(176.018778995545,-11.1651820785394,2.10351627249359));
#885=CARTESIAN_POINT('Ctrl Pts',(170.06492810316,-5.35975639647154,2.10351627249359));
#886=CARTESIAN_POINT('Ctrl Pts',(160.971306811045,-8.6963518300246,2.10351627249359));
#887=CARTESIAN_POINT('Ctrl Pts',(157.358244887065,-13.3862411942672,2.10351627249359));
#888=CARTESIAN_POINT('',(176.018778995545,-11.1651820785394,4.10351627249359));
#889=CARTESIAN_POINT('',(176.018778995545,-11.1651820785394,2.10351627249359));
#890=CARTESIAN_POINT('Ctrl Pts',(176.018778995545,-11.1651820785394,4.10351627249359));
#891=CARTESIAN_POINT('Ctrl Pts',(170.06492810316,-5.35975639647154,4.10351627249359));
#892=CARTESIAN_POINT('Ctrl Pts',(160.971306811045,-8.6963518300246,4.10351627249359));
#893=CARTESIAN_POINT('Ctrl Pts',(157.358244887065,-13.3862411942672,4.10351627249359));
#894=CARTESIAN_POINT('Ctrl Pts',(170.299061906209,0.101462259432594,2.10351627249359));
#895=CARTESIAN_POINT('Ctrl Pts',(170.299061906209,0.101462259432594,4.50351627249359));
#896=CARTESIAN_POINT('Ctrl Pts',(170.666851149272,-3.49562882091511,2.10351627249359));
#897=CARTESIAN_POINT('Ctrl Pts',(170.666851149272,-3.49562882091511,4.50351627249359));
#898=CARTESIAN_POINT('Ctrl Pts',(172.081866522502,-7.10747594501484,2.10351627249359));
#899=CARTESIAN_POINT('Ctrl Pts',(172.081866522502,-7.10747594501484,4.50351627249359));
#900=CARTESIAN_POINT('Ctrl Pts',(176.018778995545,-11.1651820785394,2.10351627249359));
#901=CARTESIAN_POINT('Ctrl Pts',(176.018778995545,-11.1651820785394,4.50351627249359));
#902=CARTESIAN_POINT('',(170.299061906209,0.101462259432594,2.10351627249359));
#903=CARTESIAN_POINT('Ctrl Pts',(170.299061906209,0.101462259432594,2.10351627249359));
#904=CARTESIAN_POINT('Ctrl Pts',(170.666851149272,-3.49562882091511,2.10351627249359));
#905=CARTESIAN_POINT('Ctrl Pts',(172.081866522502,-7.10747594501484,2.10351627249359));
#906=CARTESIAN_POINT('Ctrl Pts',(176.018778995545,-11.1651820785394,2.10351627249359));
#907=CARTESIAN_POINT('',(170.299061906209,0.101462259432594,4.10351627249359));
#908=CARTESIAN_POINT('',(170.299061906209,0.101462259432594,2.10351627249359));
#909=CARTESIAN_POINT('Ctrl Pts',(170.299061906209,0.101462259432594,4.10351627249359));
#910=CARTESIAN_POINT('Ctrl Pts',(170.666851149272,-3.49562882091511,4.10351627249359));
#911=CARTESIAN_POINT('Ctrl Pts',(172.081866522502,-7.10747594501484,4.10351627249359));
#912=CARTESIAN_POINT('Ctrl Pts',(176.018778995545,-11.1651820785394,4.10351627249359));
#913=CARTESIAN_POINT('Ctrl Pts',(164.188138075541,-1.17455804492939,2.10351627249359));
#914=CARTESIAN_POINT('Ctrl Pts',(164.188138075541,-1.17455804492939,4.50351627249359));
#915=CARTESIAN_POINT('Ctrl Pts',(165.786197024058,-1.67739597306558,2.10351627249359));
#916=CARTESIAN_POINT('Ctrl Pts',(165.786197024058,-1.67739597306558,4.50351627249359));
#917=CARTESIAN_POINT('Ctrl Pts',(168.533580198954,-0.839479176063422,2.10351627249359));
#918=CARTESIAN_POINT('Ctrl Pts',(168.533580198954,-0.839479176063422,4.50351627249359));
#919=CARTESIAN_POINT('Ctrl Pts',(170.299061906209,0.101462259432594,2.10351627249359));
#920=CARTESIAN_POINT('Ctrl Pts',(170.299061906209,0.101462259432594,4.50351627249359));
#921=CARTESIAN_POINT('Ctrl Pts',(164.188138075541,-1.17455804492939,2.10351627249359));
#922=CARTESIAN_POINT('Ctrl Pts',(165.786197024058,-1.67739597306558,2.10351627249359));
#923=CARTESIAN_POINT('Ctrl Pts',(168.533580198954,-0.839479176063422,2.10351627249359));
#924=CARTESIAN_POINT('Ctrl Pts',(170.299061906209,0.101462259432594,2.10351627249359));
#925=CARTESIAN_POINT('Ctrl Pts',(164.188138075541,-1.17455804492939,4.10351627249359));
#926=CARTESIAN_POINT('Ctrl Pts',(165.786197024058,-1.67739597306558,4.10351627249359));
#927=CARTESIAN_POINT('Ctrl Pts',(168.533580198954,-0.839479176063422,4.10351627249359));
#928=CARTESIAN_POINT('Ctrl Pts',(170.299061906209,0.101462259432594,4.10351627249359));
#929=CARTESIAN_POINT('Ctrl Pts',(161.02564222506,22.4188763086776,2.10351627249359));
#930=CARTESIAN_POINT('Ctrl Pts',(161.02564222506,22.4188763086776,4.50351627249359));
#931=CARTESIAN_POINT('Ctrl Pts',(159.367160103961,22.3816120534633,2.10351627249359));
#932=CARTESIAN_POINT('Ctrl Pts',(159.367160103961,22.3816120534633,4.50351627249359));
#933=CARTESIAN_POINT('Ctrl Pts',(157.568821062711,22.4619130284452,2.10351627249359));
#934=CARTESIAN_POINT('Ctrl Pts',(157.568821062711,22.4619130284452,4.50351627249359));
#935=CARTESIAN_POINT('Ctrl Pts',(155.607697668742,22.6789847502519,2.10351627249359));
#936=CARTESIAN_POINT('Ctrl Pts',(155.607697668742,22.6789847502519,4.50351627249359));
#937=CARTESIAN_POINT('',(161.02564222506,22.4188763086776,2.10351627249359));
#938=CARTESIAN_POINT('',(155.607697668742,22.6789847502519,2.10351627249359));
#939=CARTESIAN_POINT('Ctrl Pts',(161.02564222506,22.4188763086776,2.10351627249359));
#940=CARTESIAN_POINT('Ctrl Pts',(159.367160103961,22.3816120534633,2.10351627249359));
#941=CARTESIAN_POINT('Ctrl Pts',(157.568821062711,22.4619130284452,2.10351627249359));
#942=CARTESIAN_POINT('Ctrl Pts',(155.607697668742,22.6789847502519,2.10351627249359));
#943=CARTESIAN_POINT('',(161.02564222506,22.4188763086776,4.10351627249359));
#944=CARTESIAN_POINT('',(161.02564222506,22.4188763086776,2.10351627249359));
#945=CARTESIAN_POINT('',(155.607697668742,22.6789847502519,4.10351627249359));
#946=CARTESIAN_POINT('Ctrl Pts',(161.02564222506,22.4188763086776,4.10351627249359));
#947=CARTESIAN_POINT('Ctrl Pts',(159.367160103961,22.3816120534633,4.10351627249359));
#948=CARTESIAN_POINT('Ctrl Pts',(157.568821062711,22.4619130284452,4.10351627249359));
#949=CARTESIAN_POINT('Ctrl Pts',(155.607697668742,22.6789847502519,4.10351627249359));
#950=CARTESIAN_POINT('',(155.607697668742,22.6789847502519,2.10351627249359));
#951=CARTESIAN_POINT('Ctrl Pts',(180.041605959605,-16.377689332822,2.10351627249359));
#952=CARTESIAN_POINT('Ctrl Pts',(180.041605959605,-16.377689332822,4.50351627249359));
#953=CARTESIAN_POINT('Ctrl Pts',(183.302604077208,-18.7157545780898,2.10351627249359));
#954=CARTESIAN_POINT('Ctrl Pts',(183.302604077208,-18.7157545780898,4.50351627249359));
#955=CARTESIAN_POINT('Ctrl Pts',(186.575128809708,-20.3161789701047,2.10351627249359));
#956=CARTESIAN_POINT('Ctrl Pts',(186.575128809708,-20.3161789701047,4.50351627249359));
#957=CARTESIAN_POINT('Ctrl Pts',(189.74816774688,-21.286022674517,2.10351627249359));
#958=CARTESIAN_POINT('Ctrl Pts',(189.74816774688,-21.286022674517,4.50351627249359));
#959=CARTESIAN_POINT('',(180.041605959605,-16.377689332822,2.10351627249359));
#960=CARTESIAN_POINT('',(189.7481677471,-21.2860226745842,2.10351627249359));
#961=CARTESIAN_POINT('Ctrl Pts',(180.041605959605,-16.377689332822,2.10351627249359));
#962=CARTESIAN_POINT('Ctrl Pts',(183.302604077208,-18.7157545780898,2.10351627249359));
#963=CARTESIAN_POINT('Ctrl Pts',(186.575128809708,-20.3161789701047,2.10351627249359));
#964=CARTESIAN_POINT('Ctrl Pts',(189.74816774688,-21.286022674517,2.10351627249359));
#965=CARTESIAN_POINT('',(180.041605959605,-16.377689332822,4.10351627249359));
#966=CARTESIAN_POINT('',(180.041605959605,-16.377689332822,2.10351627249359));
#967=CARTESIAN_POINT('',(189.7481677471,-21.2860226745842,4.10351627249359));
#968=CARTESIAN_POINT('Ctrl Pts',(180.041605959605,-16.377689332822,4.10351627249359));
#969=CARTESIAN_POINT('Ctrl Pts',(183.302604077208,-18.7157545780898,4.10351627249359));
#970=CARTESIAN_POINT('Ctrl Pts',(186.575128809709,-20.3161789701047,4.10351627249359));
#971=CARTESIAN_POINT('Ctrl Pts',(189.74816774688,-21.286022674517,4.10351627249359));
#972=CARTESIAN_POINT('',(189.74816774688,-21.286022674517,2.10351627249359));
#973=CARTESIAN_POINT('Ctrl Pts',(168.99416093575,-26.980500442047,2.10351627249359));
#974=CARTESIAN_POINT('Ctrl Pts',(168.99416093575,-26.980500442047,4.50351627249359));
#975=CARTESIAN_POINT('Ctrl Pts',(175.187759791087,-30.194696208496,2.10351627249359));
#976=CARTESIAN_POINT('Ctrl Pts',(175.187759791087,-30.194696208496,4.50351627249359));
#977=CARTESIAN_POINT('Ctrl Pts',(183.872412183156,-24.1086002793502,2.10351627249359));
#978=CARTESIAN_POINT('Ctrl Pts',(183.872412183156,-24.1086002793502,4.50351627249359));
#979=CARTESIAN_POINT('Ctrl Pts',(180.041605959605,-16.377689332822,2.10351627249359));
#980=CARTESIAN_POINT('Ctrl Pts',(180.041605959605,-16.377689332822,4.50351627249359));
#981=CARTESIAN_POINT('',(168.99416093575,-26.980500442047,2.10351627249359));
#982=CARTESIAN_POINT('Ctrl Pts',(168.99416093575,-26.980500442047,2.10351627249359));
#983=CARTESIAN_POINT('Ctrl Pts',(175.187759791087,-30.194696208496,2.10351627249359));
#984=CARTESIAN_POINT('Ctrl Pts',(183.872412183156,-24.1086002793502,2.10351627249359));
#985=CARTESIAN_POINT('Ctrl Pts',(180.041605959605,-16.377689332822,2.10351627249359));
#986=CARTESIAN_POINT('',(168.99416093575,-26.980500442047,4.10351627249359));
#987=CARTESIAN_POINT('',(168.99416093575,-26.980500442047,2.10351627249359));
#988=CARTESIAN_POINT('Ctrl Pts',(168.99416093575,-26.980500442047,4.10351627249359));
#989=CARTESIAN_POINT('Ctrl Pts',(175.187759791087,-30.194696208496,4.10351627249359));
#990=CARTESIAN_POINT('Ctrl Pts',(183.872412183156,-24.1086002793502,4.10351627249359));
#991=CARTESIAN_POINT('Ctrl Pts',(180.041605959605,-16.377689332822,4.10351627249359));
#992=CARTESIAN_POINT('Ctrl Pts',(168.936483005329,-29.8151907337813,2.10351627249359));
#993=CARTESIAN_POINT('Ctrl Pts',(168.936483005329,-29.8151907337813,4.50351627249359));
#994=CARTESIAN_POINT('Ctrl Pts',(168.863768846184,-28.8801283728121,2.10351627249359));
#995=CARTESIAN_POINT('Ctrl Pts',(168.863768846184,-28.8801283728121,4.50351627249359));
#996=CARTESIAN_POINT('Ctrl Pts',(168.880664448719,-27.9339704482308,2.10351627249359));
#997=CARTESIAN_POINT('Ctrl Pts',(168.880664448719,-27.9339704482308,4.50351627249359));
#998=CARTESIAN_POINT('Ctrl Pts',(168.99416093575,-26.980500442047,2.10351627249359));
#999=CARTESIAN_POINT('Ctrl Pts',(168.99416093575,-26.980500442047,4.50351627249359));
#1000=CARTESIAN_POINT('',(168.936483005329,-29.8151907337813,2.10351627249359));
#1001=CARTESIAN_POINT('Origin',(227.943273533974,-30.1608204100489,2.10351627249359));
#1002=CARTESIAN_POINT('',(168.936483005329,-29.8151907337813,4.10351627249359));
#1003=CARTESIAN_POINT('',(168.936483005329,-29.8151907337813,2.10351627249359));
#1004=CARTESIAN_POINT('Origin',(227.943273533974,-30.1608204100489,4.10351627249359));
#1005=CARTESIAN_POINT('Origin',(18.4370497025956,62.6331359959283,2.10351627249359));
#1006=CARTESIAN_POINT('Origin',(18.4370497025956,62.6331359959283,2.10351627249359));
#1007=CARTESIAN_POINT('Origin',(175.578113255177,-16.3657019842309,2.10351627249359));
#1008=CARTESIAN_POINT('Origin',(175.578113255177,-16.3657019842309,80.1035162724936));
#1009=CARTESIAN_POINT('',(186.760942716852,-6.36848611024387,4.10351627249359));
#1010=CARTESIAN_POINT('Origin',(175.578113255177,-16.3657019842309,4.10351627249359));
#1011=CARTESIAN_POINT('',(186.760942716851,-6.36848611024387,80.1035162724936));
#1012=CARTESIAN_POINT('',(164.395283793503,-26.362917858218,4.10351627249359));
#1013=CARTESIAN_POINT('',(164.395283793503,-26.362917858218,80.1035162724936));
#1014=CARTESIAN_POINT('Origin',(175.578113255177,-16.3657019842309,4.10351627249359));
#1015=CARTESIAN_POINT('Origin',(164.395283793503,-26.362917858218,80.1035162724936));
#1016=CARTESIAN_POINT('',(131.088281414907,10.8941077151326,4.10351627249359));
#1017=CARTESIAN_POINT('',(131.088281414906,10.8941077151324,45.1035162724936));
#1018=CARTESIAN_POINT('',(104.594679996315,40.5297012867978,4.10351627249359));
#1019=CARTESIAN_POINT('Origin',(136.620024735932,49.7188627977107,80.1035162724936));
#1020=CARTESIAN_POINT('',(153.453940338256,30.8885394631063,2.10351627249359));
#1021=CARTESIAN_POINT('',(153.453940338256,30.8885394631063,45.1035162724936));
#1022=CARTESIAN_POINT('',(101.889879929205,88.5678074887494,4.10351627249359));
#1023=CARTESIAN_POINT('',(136.620024735932,49.7188627977107,2.10351627249359));
#1024=CARTESIAN_POINT('Origin',(18.4370497025956,62.6331359959283,2.10351627249359));
#1025=CARTESIAN_POINT('',(153.717060365868,23.0757106452637,2.10351627249359));
#1026=CARTESIAN_POINT('',(154.177347722913,23.487197924777,2.10351627249359));
#1027=CARTESIAN_POINT('',(126.180259162605,-1.54161425015189,2.10351627249359));
#1028=CARTESIAN_POINT('',(148.092605766194,26.0956183805423,2.10351627249359));
#1029=CARTESIAN_POINT('',(86.7129738807108,52.4079728758145,2.10351627249359));
#1030=CARTESIAN_POINT('',(123.819112295485,4.39562241134863,2.10351627249359));
#1031=CARTESIAN_POINT('Ctrl Pts',(155.607697668742,22.6789847502519,2.10351627249359));
#1032=CARTESIAN_POINT('Ctrl Pts',(155.022407214955,22.7749181987629,2.10351627249359));
#1033=CARTESIAN_POINT('Ctrl Pts',(154.386324440196,22.9058886372723,2.10351627249359));
#1034=CARTESIAN_POINT('Ctrl Pts',(153.717060365868,23.0757106452637,2.10351627249359));
#1035=CARTESIAN_POINT('Ctrl Pts',(155.607697668742,22.6789847502519,2.10351627249359));
#1036=CARTESIAN_POINT('Ctrl Pts',(155.607697668742,22.6789847502519,4.50351627249359));
#1037=CARTESIAN_POINT('Ctrl Pts',(149.579133152039,23.6671112093736,2.10351627249359));
#1038=CARTESIAN_POINT('Ctrl Pts',(149.579133152039,23.6671112093736,4.50351627249359));
#1039=CARTESIAN_POINT('Ctrl Pts',(138.16188108193,28.3724017653276,2.10351627249359));
#1040=CARTESIAN_POINT('Ctrl Pts',(138.16188108193,28.3724017653276,4.50351627249359));
#1041=CARTESIAN_POINT('Ctrl Pts',(140.600677633952,40.9633015125403,2.10351627249359));
#1042=CARTESIAN_POINT('Ctrl Pts',(140.600677633952,40.9633015125403,4.50351627249359));
#1043=CARTESIAN_POINT('',(153.717060365868,23.0757106452637,4.10351627249359));
#1044=CARTESIAN_POINT('Ctrl Pts',(153.717060365868,23.0757106452637,4.10351627249359));
#1045=CARTESIAN_POINT('Ctrl Pts',(153.717060365868,23.0757106452637,3.77018293916026));
#1046=CARTESIAN_POINT('Ctrl Pts',(153.717060365868,23.0757106452637,3.43684960582692));
#1047=CARTESIAN_POINT('Ctrl Pts',(153.717060365868,23.0757106452637,2.77018293916026));
#1048=CARTESIAN_POINT('Ctrl Pts',(153.717060365868,23.0757106452637,2.43684960582692));
#1049=CARTESIAN_POINT('Ctrl Pts',(153.717060365868,23.0757106452637,2.10351627249359));
#1050=CARTESIAN_POINT('Ctrl Pts',(155.607697668742,22.6789847502519,4.10351627249359));
#1051=CARTESIAN_POINT('Ctrl Pts',(155.022407214955,22.7749181987629,4.10351627249359));
#1052=CARTESIAN_POINT('Ctrl Pts',(154.386324440196,22.9058886372723,4.10351627249359));
#1053=CARTESIAN_POINT('Ctrl Pts',(153.717060365868,23.0757106452637,4.10351627249359));
#1054=CARTESIAN_POINT('Origin',(21.6047339517581,86.6915330029934,4.10351627249359));
#1055=CARTESIAN_POINT('',(135.561413199577,14.8929940647274,4.10351627249359));
#1056=CARTESIAN_POINT('',(121.730176183556,2.52815717551958,4.10351627249359));
#1057=CARTESIAN_POINT('',(137.474443942043,8.55515095114988,4.10351627249359));
#1058=CARTESIAN_POINT('',(121.829053707491,60.3881019623984,4.10351627249359));
#1059=CARTESIAN_POINT('',(144.92966358316,15.219961533808,4.10351627249359));
#1060=CARTESIAN_POINT('',(128.413744550146,0.455075017725122,4.10351627249359));
#1061=CARTESIAN_POINT('',(138.844921626437,17.8283819895702,4.10351627249359));
#1062=CARTESIAN_POINT('',(76.856194820657,44.4018446239532,4.10351627249359));
#1063=CARTESIAN_POINT('',(144.80909733933,23.1602304556965,4.10351627249359));
#1064=CARTESIAN_POINT('',(126.354018253432,6.66177537100381,4.10351627249359));
#1065=CARTESIAN_POINT('',(146.722128081796,16.8223873421191,4.10351627249359));
#1066=CARTESIAN_POINT('',(131.834158632453,66.146014273496,4.10351627249359));
#1067=CARTESIAN_POINT('',(133.03758662002,4.58869321320864,4.10351627249359));
#1068=CARTESIAN_POINT('Origin',(153.453940338256,30.8885394631064,10.1035162724936));
#1069=CARTESIAN_POINT('',(148.092605766194,26.0956183805423,10.1035162724936));
#1070=CARTESIAN_POINT('Origin',(148.092605766194,26.0956183805423,10.1035162724936));
#1071=CARTESIAN_POINT('',(154.177347722913,23.487197924777,10.1035162724936));
#1072=CARTESIAN_POINT('Origin',(154.177347722913,23.487197924777,10.1035162724936));
#1073=CARTESIAN_POINT('',(146.722128081796,16.8223873421191,10.1035162724936));
#1074=CARTESIAN_POINT('Origin',(146.722128081796,16.8223873421191,10.1035162724936));
#1075=CARTESIAN_POINT('',(144.80909733933,23.1602304556965,10.1035162724936));
#1076=CARTESIAN_POINT('Origin',(144.80909733933,23.1602304556965,10.1035162724936));
#1077=CARTESIAN_POINT('',(138.844921626437,17.8283819895702,10.1035162724936));
#1078=CARTESIAN_POINT('Origin',(138.844921626437,17.8283819895702,10.1035162724936));
#1079=CARTESIAN_POINT('',(144.92966358316,15.219961533808,10.1035162724936));
#1080=CARTESIAN_POINT('Origin',(144.92966358316,15.219961533808,10.1035162724936));
#1081=CARTESIAN_POINT('',(137.474443942043,8.55515095114988,10.1035162724936));
#1082=CARTESIAN_POINT('Origin',(137.474443942043,8.55515095114988,10.1035162724936));
#1083=CARTESIAN_POINT('',(135.561413199577,14.8929940647274,10.1035162724936));
#1084=CARTESIAN_POINT('Origin',(135.561413199577,14.8929940647274,10.1035162724936));
#1085=UNCERTAINTY_MEASURE_WITH_UNIT(LENGTH_MEASURE(0.01),#1089,
'DISTANCE_ACCURACY_VALUE',
'Maximum model space distance between geometric entities at asserted c
onnectivities');
#1086=UNCERTAINTY_MEASURE_WITH_UNIT(LENGTH_MEASURE(0.01),#1089,
'DISTANCE_ACCURACY_VALUE',
'Maximum model space distance between geometric entities at asserted c
onnectivities');
#1087=(
GEOMETRIC_REPRESENTATION_CONTEXT(3)
GLOBAL_UNCERTAINTY_ASSIGNED_CONTEXT((#1085))
GLOBAL_UNIT_ASSIGNED_CONTEXT((#1089,#1091,#1092))
REPRESENTATION_CONTEXT('','3D')
);
#1088=(
GEOMETRIC_REPRESENTATION_CONTEXT(3)
GLOBAL_UNCERTAINTY_ASSIGNED_CONTEXT((#1086))
GLOBAL_UNIT_ASSIGNED_CONTEXT((#1089,#1091,#1092))
REPRESENTATION_CONTEXT('','3D')
);
#1089=(
LENGTH_UNIT()
NAMED_UNIT(*)
SI_UNIT(.MILLI.,.METRE.)
);
#1090=(
LENGTH_UNIT()
NAMED_UNIT(*)
SI_UNIT($,.METRE.)
);
#1091=(
NAMED_UNIT(*)
PLANE_ANGLE_UNIT()
SI_UNIT($,.RADIAN.)
);
#1092=(
NAMED_UNIT(*)
SI_UNIT($,.STERADIAN.)
SOLID_ANGLE_UNIT()
);
#1093=SHAPE_DEFINITION_REPRESENTATION(#1094,#1095);
#1094=PRODUCT_DEFINITION_SHAPE('',$,#1097);
#1095=SHAPE_REPRESENTATION('',(#613),#1087);
#1096=PRODUCT_DEFINITION_CONTEXT('part definition',#1101,'design');
#1097=PRODUCT_DEFINITION('FusionComponent','Component51 v1',#1098,#1096);
#1098=PRODUCT_DEFINITION_FORMATION('',$,#1103);
#1099=PRODUCT_RELATED_PRODUCT_CATEGORY('Component51 v1',
'Component51 v1',(#1103));
#1100=APPLICATION_PROTOCOL_DEFINITION('international standard',
'automotive_design',2009,#1101);
#1101=APPLICATION_CONTEXT(
'Core Data for Automotive Mechanical Design Process');
#1102=PRODUCT_CONTEXT('part definition',#1101,'mechanical');
#1103=PRODUCT('FusionComponent','Component51 v1',$,(#1102));
#1104=PRESENTATION_STYLE_ASSIGNMENT((#1106));
#1105=PRESENTATION_STYLE_ASSIGNMENT((#1107));
#1106=SURFACE_STYLE_USAGE(.BOTH.,#1108);
#1107=SURFACE_STYLE_USAGE(.BOTH.,#1109);
#1108=SURFACE_SIDE_STYLE('',(#1110));
#1109=SURFACE_SIDE_STYLE('',(#1111));
#1110=SURFACE_STYLE_FILL_AREA(#1112);
#1111=SURFACE_STYLE_FILL_AREA(#1113);
#1112=FILL_AREA_STYLE('Steel - Satin',(#1114));
#1113=FILL_AREA_STYLE('Opaque(243,203,124)',(#1115));
#1114=FILL_AREA_STYLE_COLOUR('Steel - Satin',#1116);
#1115=FILL_AREA_STYLE_COLOUR('Opaque(243,203,124)',#1117);
#1116=COLOUR_RGB('Steel - Satin',0.627450980392157,0.627450980392157,0.627450980392157);
#1117=COLOUR_RGB('Opaque(243,203,124)',0.952941176470588,0.796078431372549,
0.486274509803922);
ENDSEC;
END-ISO-10303-21;
