ISO-10303-21;
HEADER;
/* Generated by software containing ST-Developer
 * from STEP Tools, Inc. (www.steptools.com) 
 */

FILE_DESCRIPTION(
/* description */ (''),
/* implementation_level */ '2;1');

FILE_NAME(
/* name */ 'orumcekustbacak3.step',
/* time_stamp */ '2026-08-19T14:24:54+03:00',
/* author */ (''),
/* organization */ (''),
/* preprocessor_version */ 'ST-DEVELOPER v20.1',
/* originating_system */ 'Autodesk Translation Framework v15.8.0.0',
/* authorisation */ '');

FILE_SCHEMA (('AUTOMOTIVE_DESIGN { 1 0 10303 214 3 1 1 }'));
ENDSEC;

DATA;
#10=MECHANICAL_DESIGN_GEOMETRIC_PRESENTATION_REPRESENTATION('',(#13),#1258);
#11=SHAPE_REPRESENTATION_RELATIONSHIP('SRR','None',#1265,#12);
#12=ADVANCED_BREP_SHAPE_REPRESENTATION('',(#14),#1257);
#13=STYLED_ITEM('',(#1275),#14);
#14=MANIFOLD_SOLID_BREP('Body1',#694);
#15=ELLIPSE('',#736,109.816342106825,62.1732287761312);
#16=ELLIPSE('',#737,109.816342106825,62.1732287761312);
#17=B_SPLINE_SURFACE_WITH_KNOTS('',3,1,((#1018,#1019),(#1020,#1021),(#1022,
#1023),(#1024,#1025)),.UNSPECIFIED.,.F.,.F.,.F.,(4,4),(2,2),(0.,1.),(0.,
0.24),.UNSPECIFIED.);
#18=B_SPLINE_SURFACE_WITH_KNOTS('',3,1,((#1118,#1119),(#1120,#1121),(#1122,
#1123),(#1124,#1125)),.UNSPECIFIED.,.F.,.F.,.F.,(4,4),(2,2),(0.,0.303668894801994),
(0.,0.24),.UNSPECIFIED.);
#19=B_SPLINE_SURFACE_WITH_KNOTS('',3,1,((#1132,#1133),(#1134,#1135),(#1136,
#1137),(#1138,#1139)),.UNSPECIFIED.,.F.,.F.,.F.,(4,4),(2,2),(0.,1.),(0.,
0.24),.UNSPECIFIED.);
#20=B_SPLINE_SURFACE_WITH_KNOTS('',3,1,((#1146,#1147),(#1148,#1149),(#1150,
#1151),(#1152,#1153)),.UNSPECIFIED.,.F.,.F.,.F.,(4,4),(2,2),(0.47725673734827,
1.),(0.,0.24),.UNSPECIFIED.);
#21=B_SPLINE_SURFACE_WITH_KNOTS('',3,1,((#1158,#1159),(#1160,#1161),(#1162,
#1163),(#1164,#1165)),.UNSPECIFIED.,.F.,.F.,.F.,(4,4),(2,2),(-0.626056797836563,
-0.176317139273981),(0.,0.24),.UNSPECIFIED.);
#22=B_SPLINE_SURFACE_WITH_KNOTS('',3,1,((#1172,#1173),(#1174,#1175),(#1176,
#1177),(#1178,#1179)),.UNSPECIFIED.,.F.,.F.,.F.,(4,4),(2,2),(-1.,-0.635610477453223),
(0.,0.24),.UNSPECIFIED.);
#23=B_SPLINE_SURFACE_WITH_KNOTS('',3,1,((#1188,#1189),(#1190,#1191),(#1192,
#1193),(#1194,#1195)),.UNSPECIFIED.,.F.,.F.,.F.,(4,4),(2,2),(-0.210295266950956,
0.),(0.,0.24),.UNSPECIFIED.);
#24=B_SPLINE_SURFACE_WITH_KNOTS('',3,1,((#1197,#1198),(#1199,#1200),(#1201,
#1202),(#1203,#1204)),.UNSPECIFIED.,.F.,.F.,.F.,(4,4),(2,2),(0.,0.382824481071752),
(0.,0.24),.UNSPECIFIED.);
#25=B_SPLINE_SURFACE_WITH_KNOTS('',3,1,((#1205,#1206),(#1207,#1208),(#1209,
#1210),(#1211,#1212)),.UNSPECIFIED.,.F.,.F.,.F.,(4,4),(2,2),(0.,1.),(0.,
0.24),.UNSPECIFIED.);
#26=B_SPLINE_SURFACE_WITH_KNOTS('',3,1,((#1219,#1220),(#1221,#1222),(#1223,
#1224),(#1225,#1226)),.UNSPECIFIED.,.F.,.F.,.F.,(4,4),(2,2),(0.,1.),(0.,
0.24),.UNSPECIFIED.);
#27=B_SPLINE_SURFACE_WITH_KNOTS('',3,1,((#1231,#1232),(#1233,#1234),(#1235,
#1236),(#1237,#1238)),.UNSPECIFIED.,.F.,.F.,.F.,(4,4),(2,2),(0.,1.),(0.,
0.24),.UNSPECIFIED.);
#28=B_SPLINE_SURFACE_WITH_KNOTS('',3,1,((#1240,#1241),(#1242,#1243),(#1244,
#1245),(#1246,#1247)),.UNSPECIFIED.,.F.,.F.,.F.,(4,4),(2,2),(0.457813183387892,
1.),(0.,0.24),.UNSPECIFIED.);
#29=B_SPLINE_CURVE_WITH_KNOTS('',3,(#932,#933,#934,#935,#936,#937),
 .UNSPECIFIED.,.F.,.F.,(4,2,4),(-0.2,-0.1,0.),.UNSPECIFIED.);
#30=B_SPLINE_CURVE_WITH_KNOTS('',3,(#970,#971,#972,#973,#974,#975),
 .UNSPECIFIED.,.F.,.F.,(4,2,4),(-0.2,-0.1,0.),.UNSPECIFIED.);
#31=B_SPLINE_CURVE_WITH_KNOTS('',3,(#979,#980,#981,#982,#983,#984),
 .UNSPECIFIED.,.F.,.F.,(4,2,4),(-0.2,-0.1,0.),.UNSPECIFIED.);
#32=B_SPLINE_CURVE_WITH_KNOTS('',3,(#988,#989,#990,#991,#992,#993),
 .UNSPECIFIED.,.F.,.F.,(4,2,4),(-0.2,-0.1,0.),.UNSPECIFIED.);
#33=B_SPLINE_CURVE_WITH_KNOTS('',3,(#1027,#1028,#1029,#1030),
 .UNSPECIFIED.,.F.,.F.,(4,4),(0.470706714950138,1.),.UNSPECIFIED.);
#34=B_SPLINE_CURVE_WITH_KNOTS('',3,(#1033,#1034,#1035,#1036),
 .UNSPECIFIED.,.F.,.F.,(4,4),(0.470706714950138,1.),.UNSPECIFIED.);
#35=B_SPLINE_CURVE_WITH_KNOTS('',3,(#1039,#1040,#1041,#1042),
 .UNSPECIFIED.,.F.,.F.,(4,4),(0.,0.382824481071752),.UNSPECIFIED.);
#36=B_SPLINE_CURVE_WITH_KNOTS('',3,(#1046,#1047,#1048,#1049),
 .UNSPECIFIED.,.F.,.F.,(4,4),(0.457813183387892,1.),.UNSPECIFIED.);
#37=B_SPLINE_CURVE_WITH_KNOTS('',3,(#1050,#1051,#1052,#1053),
 .UNSPECIFIED.,.F.,.F.,(4,4),(0.,0.263995274766774),.UNSPECIFIED.);
#38=B_SPLINE_CURVE_WITH_KNOTS('',3,(#1069,#1070,#1071,#1072),
 .UNSPECIFIED.,.F.,.F.,(4,4),(0.,0.263995274766774),.UNSPECIFIED.);
#39=B_SPLINE_CURVE_WITH_KNOTS('',3,(#1073,#1074,#1075,#1076),
 .UNSPECIFIED.,.F.,.F.,(4,4),(0.457813183387892,1.),.UNSPECIFIED.);
#40=B_SPLINE_CURVE_WITH_KNOTS('',3,(#1079,#1080,#1081,#1082),
 .UNSPECIFIED.,.F.,.F.,(4,4),(0.,0.303668894801994),.UNSPECIFIED.);
#41=B_SPLINE_CURVE_WITH_KNOTS('',3,(#1084,#1085,#1086,#1087),
 .UNSPECIFIED.,.F.,.F.,(4,4),(0.,1.),.UNSPECIFIED.);
#42=B_SPLINE_CURVE_WITH_KNOTS('',3,(#1088,#1089,#1090,#1091),
 .UNSPECIFIED.,.F.,.F.,(4,4),(0.47725673734827,1.),.UNSPECIFIED.);
#43=B_SPLINE_CURVE_WITH_KNOTS('',3,(#1093,#1094,#1095,#1096),
 .UNSPECIFIED.,.F.,.F.,(4,4),(-0.626056797836563,-0.176317139273981),
 .UNSPECIFIED.);
#44=B_SPLINE_CURVE_WITH_KNOTS('',3,(#1100,#1101,#1102,#1103),
 .UNSPECIFIED.,.F.,.F.,(4,4),(-1.,-0.635610477453223),.UNSPECIFIED.);
#45=B_SPLINE_CURVE_WITH_KNOTS('',3,(#1105,#1106,#1107,#1108),
 .UNSPECIFIED.,.F.,.F.,(4,4),(0.,0.382824481071752),.UNSPECIFIED.);
#46=B_SPLINE_CURVE_WITH_KNOTS('',3,(#1110,#1111,#1112,#1113),
 .UNSPECIFIED.,.F.,.F.,(4,4),(0.,0.0445938410009584),.UNSPECIFIED.);
#47=B_SPLINE_CURVE_WITH_KNOTS('',3,(#1114,#1115,#1116,#1117),
 .UNSPECIFIED.,.F.,.F.,(4,4),(0.991316583084977,1.),.UNSPECIFIED.);
#48=B_SPLINE_CURVE_WITH_KNOTS('',3,(#1127,#1128,#1129,#1130),
 .UNSPECIFIED.,.F.,.F.,(4,4),(0.,0.303668894801994),.UNSPECIFIED.);
#49=B_SPLINE_CURVE_WITH_KNOTS('',3,(#1141,#1142,#1143,#1144),
 .UNSPECIFIED.,.F.,.F.,(4,4),(0.,1.),.UNSPECIFIED.);
#50=B_SPLINE_CURVE_WITH_KNOTS('',3,(#1154,#1155,#1156,#1157),
 .UNSPECIFIED.,.F.,.F.,(4,4),(0.47725673734827,1.),.UNSPECIFIED.);
#51=B_SPLINE_CURVE_WITH_KNOTS('',3,(#1167,#1168,#1169,#1170),
 .UNSPECIFIED.,.F.,.F.,(4,4),(-0.626056797836563,-0.176317139273981),
 .UNSPECIFIED.);
#52=B_SPLINE_CURVE_WITH_KNOTS('',3,(#1182,#1183,#1184,#1185),
 .UNSPECIFIED.,.F.,.F.,(4,4),(-1.,-0.635610477453223),.UNSPECIFIED.);
#53=B_SPLINE_CURVE_WITH_KNOTS('',3,(#1214,#1215,#1216,#1217),
 .UNSPECIFIED.,.F.,.F.,(4,4),(0.,0.0445938410009584),.UNSPECIFIED.);
#54=B_SPLINE_CURVE_WITH_KNOTS('',3,(#1227,#1228,#1229,#1230),
 .UNSPECIFIED.,.F.,.F.,(4,4),(0.991316583084977,1.),.UNSPECIFIED.);
#55=LINE('',#890,#116);
#56=LINE('',#895,#117);
#57=LINE('',#900,#118);
#58=LINE('',#906,#119);
#59=LINE('',#908,#120);
#60=LINE('',#910,#121);
#61=LINE('',#911,#122);
#62=LINE('',#914,#123);
#63=LINE('',#916,#124);
#64=LINE('',#917,#125);
#65=LINE('',#921,#126);
#66=LINE('',#923,#127);
#67=LINE('',#925,#128);
#68=LINE('',#926,#129);
#69=LINE('',#930,#130);
#70=LINE('',#938,#131);
#71=LINE('',#940,#132);
#72=LINE('',#941,#133);
#73=LINE('',#944,#134);
#74=LINE('',#946,#135);
#75=LINE('',#947,#136);
#76=LINE('',#950,#137);
#77=LINE('',#952,#138);
#78=LINE('',#953,#139);
#79=LINE('',#956,#140);
#80=LINE('',#958,#141);
#81=LINE('',#959,#142);
#82=LINE('',#962,#143);
#83=LINE('',#964,#144);
#84=LINE('',#965,#145);
#85=LINE('',#968,#146);
#86=LINE('',#977,#147);
#87=LINE('',#986,#148);
#88=LINE('',#994,#149);
#89=LINE('',#995,#150);
#90=LINE('',#998,#151);
#91=LINE('',#1000,#152);
#92=LINE('',#1002,#153);
#93=LINE('',#1004,#154);
#94=LINE('',#1006,#155);
#95=LINE('',#1008,#156);
#96=LINE('',#1010,#157);
#97=LINE('',#1012,#158);
#98=LINE('',#1013,#159);
#99=LINE('',#1016,#160);
#100=LINE('',#1032,#161);
#101=LINE('',#1044,#162);
#102=LINE('',#1056,#163);
#103=LINE('',#1057,#164);
#104=LINE('',#1059,#165);
#105=LINE('',#1061,#166);
#106=LINE('',#1063,#167);
#107=LINE('',#1065,#168);
#108=LINE('',#1066,#169);
#109=LINE('',#1131,#170);
#110=LINE('',#1145,#171);
#111=LINE('',#1171,#172);
#112=LINE('',#1186,#173);
#113=LINE('',#1187,#174);
#114=LINE('',#1218,#175);
#115=LINE('',#1239,#176);
#116=VECTOR('',#755,2.7);
#117=VECTOR('',#762,1.50000000000002);
#118=VECTOR('',#767,5.04999999999999);
#119=VECTOR('',#774,10.);
#120=VECTOR('',#775,10.);
#121=VECTOR('',#776,10.);
#122=VECTOR('',#777,10.);
#123=VECTOR('',#780,10.);
#124=VECTOR('',#781,10.);
#125=VECTOR('',#782,10.);
#126=VECTOR('',#785,10.);
#127=VECTOR('',#786,10.);
#128=VECTOR('',#787,10.);
#129=VECTOR('',#788,10.);
#130=VECTOR('',#791,10.);
#131=VECTOR('',#792,10.);
#132=VECTOR('',#793,10.);
#133=VECTOR('',#794,10.);
#134=VECTOR('',#797,10.);
#135=VECTOR('',#798,10.);
#136=VECTOR('',#799,10.);
#137=VECTOR('',#802,10.);
#138=VECTOR('',#803,10.);
#139=VECTOR('',#804,10.);
#140=VECTOR('',#807,10.);
#141=VECTOR('',#808,10.);
#142=VECTOR('',#809,10.);
#143=VECTOR('',#812,10.);
#144=VECTOR('',#813,10.);
#145=VECTOR('',#814,10.);
#146=VECTOR('',#817,10.);
#147=VECTOR('',#818,10.);
#148=VECTOR('',#819,10.);
#149=VECTOR('',#820,10.);
#150=VECTOR('',#821,10.);
#151=VECTOR('',#824,10.);
#152=VECTOR('',#825,10.);
#153=VECTOR('',#826,10.);
#154=VECTOR('',#827,10.);
#155=VECTOR('',#828,10.);
#156=VECTOR('',#829,10.);
#157=VECTOR('',#830,10.);
#158=VECTOR('',#831,10.);
#159=VECTOR('',#832,10.);
#160=VECTOR('',#835,10.);
#161=VECTOR('',#838,10.);
#162=VECTOR('',#841,10.);
#163=VECTOR('',#844,10.);
#164=VECTOR('',#845,10.);
#165=VECTOR('',#846,10.);
#166=VECTOR('',#847,10.);
#167=VECTOR('',#848,10.);
#168=VECTOR('',#849,10.);
#169=VECTOR('',#850,10.);
#170=VECTOR('',#859,10.);
#171=VECTOR('',#860,10.);
#172=VECTOR('',#861,10.);
#173=VECTOR('',#862,10.);
#174=VECTOR('',#863,10.);
#175=VECTOR('',#866,10.);
#176=VECTOR('',#867,10.);
#177=CYLINDRICAL_SURFACE('',#711,2.7);
#178=CYLINDRICAL_SURFACE('',#713,1.50000000000002);
#179=CYLINDRICAL_SURFACE('',#715,5.04999999999999);
#180=CYLINDRICAL_SURFACE('',#738,15.);
#181=FACE_BOUND('',#223,.T.);
#182=FACE_BOUND('',#228,.T.);
#183=FACE_BOUND('',#240,.T.);
#184=FACE_BOUND('',#246,.T.);
#185=FACE_OUTER_BOUND('',#222,.T.);
#186=FACE_OUTER_BOUND('',#224,.T.);
#187=FACE_OUTER_BOUND('',#225,.T.);
#188=FACE_OUTER_BOUND('',#226,.T.);
#189=FACE_OUTER_BOUND('',#227,.T.);
#190=FACE_OUTER_BOUND('',#229,.T.);
#191=FACE_OUTER_BOUND('',#230,.T.);
#192=FACE_OUTER_BOUND('',#231,.T.);
#193=FACE_OUTER_BOUND('',#232,.T.);
#194=FACE_OUTER_BOUND('',#233,.T.);
#195=FACE_OUTER_BOUND('',#234,.T.);
#196=FACE_OUTER_BOUND('',#235,.T.);
#197=FACE_OUTER_BOUND('',#236,.T.);
#198=FACE_OUTER_BOUND('',#237,.T.);
#199=FACE_OUTER_BOUND('',#238,.T.);
#200=FACE_OUTER_BOUND('',#239,.T.);
#201=FACE_OUTER_BOUND('',#241,.T.);
#202=FACE_OUTER_BOUND('',#242,.T.);
#203=FACE_OUTER_BOUND('',#243,.T.);
#204=FACE_OUTER_BOUND('',#244,.T.);
#205=FACE_OUTER_BOUND('',#245,.T.);
#206=FACE_OUTER_BOUND('',#247,.T.);
#207=FACE_OUTER_BOUND('',#248,.T.);
#208=FACE_OUTER_BOUND('',#249,.T.);
#209=FACE_OUTER_BOUND('',#250,.T.);
#210=FACE_OUTER_BOUND('',#251,.T.);
#211=FACE_OUTER_BOUND('',#252,.T.);
#212=FACE_OUTER_BOUND('',#253,.T.);
#213=FACE_OUTER_BOUND('',#254,.T.);
#214=FACE_OUTER_BOUND('',#255,.T.);
#215=FACE_OUTER_BOUND('',#256,.T.);
#216=FACE_OUTER_BOUND('',#257,.T.);
#217=FACE_OUTER_BOUND('',#258,.T.);
#218=FACE_OUTER_BOUND('',#259,.T.);
#219=FACE_OUTER_BOUND('',#260,.T.);
#220=FACE_OUTER_BOUND('',#261,.T.);
#221=FACE_OUTER_BOUND('',#262,.T.);
#222=EDGE_LOOP('',(#438));
#223=EDGE_LOOP('',(#439));
#224=EDGE_LOOP('',(#440,#441,#442,#443));
#225=EDGE_LOOP('',(#444,#445,#446,#447));
#226=EDGE_LOOP('',(#448,#449,#450,#451));
#227=EDGE_LOOP('',(#452));
#228=EDGE_LOOP('',(#453));
#229=EDGE_LOOP('',(#454,#455,#456,#457));
#230=EDGE_LOOP('',(#458,#459,#460,#461));
#231=EDGE_LOOP('',(#462,#463,#464,#465));
#232=EDGE_LOOP('',(#466,#467,#468,#469,#470,#471));
#233=EDGE_LOOP('',(#472,#473,#474,#475));
#234=EDGE_LOOP('',(#476,#477,#478,#479));
#235=EDGE_LOOP('',(#480,#481,#482,#483));
#236=EDGE_LOOP('',(#484,#485,#486,#487));
#237=EDGE_LOOP('',(#488,#489,#490,#491,#492,#493,#494,#495,#496,#497));
#238=EDGE_LOOP('',(#498,#499,#500,#501,#502,#503,#504,#505,#506,#507));
#239=EDGE_LOOP('',(#508,#509,#510,#511,#512,#513,#514,#515,#516,#517,#518,
#519));
#240=EDGE_LOOP('',(#520));
#241=EDGE_LOOP('',(#521,#522,#523,#524));
#242=EDGE_LOOP('',(#525,#526,#527,#528,#529,#530,#531,#532,#533,#534,#535));
#243=EDGE_LOOP('',(#536,#537,#538,#539,#540,#541,#542,#543,#544,#545));
#244=EDGE_LOOP('',(#546,#547,#548,#549,#550));
#245=EDGE_LOOP('',(#551,#552,#553,#554,#555,#556,#557,#558,#559,#560,#561,
#562,#563,#564,#565,#566,#567,#568));
#246=EDGE_LOOP('',(#569));
#247=EDGE_LOOP('',(#570,#571,#572,#573));
#248=EDGE_LOOP('',(#574,#575,#576,#577));
#249=EDGE_LOOP('',(#578,#579,#580,#581));
#250=EDGE_LOOP('',(#582,#583,#584,#585));
#251=EDGE_LOOP('',(#586,#587,#588,#589));
#252=EDGE_LOOP('',(#590,#591,#592,#593));
#253=EDGE_LOOP('',(#594,#595,#596,#597));
#254=EDGE_LOOP('',(#598,#599,#600,#601));
#255=EDGE_LOOP('',(#602,#603,#604,#605));
#256=EDGE_LOOP('',(#606,#607,#608,#609));
#257=EDGE_LOOP('',(#610,#611,#612,#613));
#258=EDGE_LOOP('',(#614,#615,#616,#617,#618,#619,#620,#621));
#259=EDGE_LOOP('',(#622,#623,#624,#625));
#260=EDGE_LOOP('',(#626,#627,#628));
#261=EDGE_LOOP('',(#629,#630,#631,#632));
#262=EDGE_LOOP('',(#633,#634,#635));
#263=CIRCLE('',#709,2.7);
#264=CIRCLE('',#710,1.50000000000002);
#265=CIRCLE('',#712,2.7);
#266=CIRCLE('',#714,1.50000000000002);
#267=CIRCLE('',#716,5.04999999999999);
#268=CIRCLE('',#717,5.04999999999999);
#269=CIRCLE('',#730,15.);
#270=CIRCLE('',#735,15.);
#271=CIRCLE('',#739,15.);
#272=CIRCLE('',#740,15.);
#273=VERTEX_POINT('',#884);
#274=VERTEX_POINT('',#886);
#275=VERTEX_POINT('',#889);
#276=VERTEX_POINT('',#893);
#277=VERTEX_POINT('',#897);
#278=VERTEX_POINT('',#899);
#279=VERTEX_POINT('',#904);
#280=VERTEX_POINT('',#905);
#281=VERTEX_POINT('',#907);
#282=VERTEX_POINT('',#909);
#283=VERTEX_POINT('',#913);
#284=VERTEX_POINT('',#915);
#285=VERTEX_POINT('',#919);
#286=VERTEX_POINT('',#920);
#287=VERTEX_POINT('',#922);
#288=VERTEX_POINT('',#924);
#289=VERTEX_POINT('',#928);
#290=VERTEX_POINT('',#929);
#291=VERTEX_POINT('',#931);
#292=VERTEX_POINT('',#939);
#293=VERTEX_POINT('',#943);
#294=VERTEX_POINT('',#945);
#295=VERTEX_POINT('',#949);
#296=VERTEX_POINT('',#951);
#297=VERTEX_POINT('',#955);
#298=VERTEX_POINT('',#957);
#299=VERTEX_POINT('',#961);
#300=VERTEX_POINT('',#963);
#301=VERTEX_POINT('',#967);
#302=VERTEX_POINT('',#969);
#303=VERTEX_POINT('',#976);
#304=VERTEX_POINT('',#978);
#305=VERTEX_POINT('',#985);
#306=VERTEX_POINT('',#987);
#307=VERTEX_POINT('',#997);
#308=VERTEX_POINT('',#999);
#309=VERTEX_POINT('',#1001);
#310=VERTEX_POINT('',#1003);
#311=VERTEX_POINT('',#1005);
#312=VERTEX_POINT('',#1007);
#313=VERTEX_POINT('',#1009);
#314=VERTEX_POINT('',#1011);
#315=VERTEX_POINT('',#1015);
#316=VERTEX_POINT('',#1026);
#317=VERTEX_POINT('',#1031);
#318=VERTEX_POINT('',#1038);
#319=VERTEX_POINT('',#1043);
#320=VERTEX_POINT('',#1045);
#321=VERTEX_POINT('',#1055);
#322=VERTEX_POINT('',#1058);
#323=VERTEX_POINT('',#1060);
#324=VERTEX_POINT('',#1062);
#325=VERTEX_POINT('',#1064);
#326=VERTEX_POINT('',#1068);
#327=VERTEX_POINT('',#1078);
#328=VERTEX_POINT('',#1083);
#329=VERTEX_POINT('',#1092);
#330=VERTEX_POINT('',#1097);
#331=VERTEX_POINT('',#1099);
#332=VERTEX_POINT('',#1109);
#333=VERTEX_POINT('',#1126);
#334=VERTEX_POINT('',#1140);
#335=VERTEX_POINT('',#1166);
#336=VERTEX_POINT('',#1180);
#337=VERTEX_POINT('',#1181);
#338=VERTEX_POINT('',#1213);
#339=EDGE_CURVE('',#273,#273,#263,.T.);
#340=EDGE_CURVE('',#274,#274,#264,.T.);
#341=EDGE_CURVE('',#273,#275,#55,.T.);
#342=EDGE_CURVE('',#275,#275,#265,.T.);
#343=EDGE_CURVE('',#276,#276,#266,.T.);
#344=EDGE_CURVE('',#276,#274,#56,.T.);
#345=EDGE_CURVE('',#277,#277,#267,.T.);
#346=EDGE_CURVE('',#277,#278,#57,.T.);
#347=EDGE_CURVE('',#278,#278,#268,.T.);
#348=EDGE_CURVE('',#279,#280,#58,.T.);
#349=EDGE_CURVE('',#281,#279,#59,.T.);
#350=EDGE_CURVE('',#282,#281,#60,.T.);
#351=EDGE_CURVE('',#282,#280,#61,.T.);
#352=EDGE_CURVE('',#280,#283,#62,.T.);
#353=EDGE_CURVE('',#284,#282,#63,.T.);
#354=EDGE_CURVE('',#283,#284,#64,.T.);
#355=EDGE_CURVE('',#285,#286,#65,.T.);
#356=EDGE_CURVE('',#287,#285,#66,.T.);
#357=EDGE_CURVE('',#288,#287,#67,.T.);
#358=EDGE_CURVE('',#288,#286,#68,.T.);
#359=EDGE_CURVE('',#289,#290,#69,.T.);
#360=EDGE_CURVE('',#291,#289,#29,.T.);
#361=EDGE_CURVE('',#286,#291,#70,.T.);
#362=EDGE_CURVE('',#292,#288,#71,.T.);
#363=EDGE_CURVE('',#292,#290,#72,.T.);
#364=EDGE_CURVE('',#290,#293,#73,.T.);
#365=EDGE_CURVE('',#294,#292,#74,.T.);
#366=EDGE_CURVE('',#294,#293,#75,.T.);
#367=EDGE_CURVE('',#293,#295,#76,.T.);
#368=EDGE_CURVE('',#296,#294,#77,.T.);
#369=EDGE_CURVE('',#296,#295,#78,.T.);
#370=EDGE_CURVE('',#295,#297,#79,.T.);
#371=EDGE_CURVE('',#298,#296,#80,.T.);
#372=EDGE_CURVE('',#298,#297,#81,.T.);
#373=EDGE_CURVE('',#297,#299,#82,.T.);
#374=EDGE_CURVE('',#300,#298,#83,.T.);
#375=EDGE_CURVE('',#300,#299,#84,.T.);
#376=EDGE_CURVE('',#301,#279,#85,.T.);
#377=EDGE_CURVE('',#302,#301,#30,.T.);
#378=EDGE_CURVE('',#303,#302,#86,.T.);
#379=EDGE_CURVE('',#304,#303,#31,.T.);
#380=EDGE_CURVE('',#305,#304,#87,.T.);
#381=EDGE_CURVE('',#306,#305,#32,.T.);
#382=EDGE_CURVE('',#299,#306,#88,.T.);
#383=EDGE_CURVE('',#281,#300,#89,.T.);
#384=EDGE_CURVE('',#284,#307,#90,.T.);
#385=EDGE_CURVE('',#307,#308,#91,.T.);
#386=EDGE_CURVE('',#309,#308,#92,.T.);
#387=EDGE_CURVE('',#309,#310,#93,.T.);
#388=EDGE_CURVE('',#310,#311,#94,.T.);
#389=EDGE_CURVE('',#311,#312,#95,.T.);
#390=EDGE_CURVE('',#313,#312,#96,.T.);
#391=EDGE_CURVE('',#313,#314,#97,.T.);
#392=EDGE_CURVE('',#314,#283,#98,.T.);
#393=EDGE_CURVE('',#315,#287,#99,.T.);
#394=EDGE_CURVE('',#307,#315,#269,.T.);
#395=EDGE_CURVE('',#305,#316,#33,.T.);
#396=EDGE_CURVE('',#317,#316,#100,.T.);
#397=EDGE_CURVE('',#306,#317,#34,.T.);
#398=EDGE_CURVE('',#317,#318,#35,.T.);
#399=EDGE_CURVE('',#318,#319,#101,.T.);
#400=EDGE_CURVE('',#319,#320,#36,.T.);
#401=EDGE_CURVE('',#320,#289,#37,.T.);
#402=EDGE_CURVE('',#285,#321,#102,.T.);
#403=EDGE_CURVE('',#321,#319,#103,.T.);
#404=EDGE_CURVE('',#318,#322,#104,.T.);
#405=EDGE_CURVE('',#322,#323,#105,.T.);
#406=EDGE_CURVE('',#323,#324,#106,.T.);
#407=EDGE_CURVE('',#325,#324,#107,.T.);
#408=EDGE_CURVE('',#315,#325,#108,.T.);
#409=EDGE_CURVE('',#326,#291,#38,.T.);
#410=EDGE_CURVE('',#321,#326,#39,.T.);
#411=EDGE_CURVE('',#327,#314,#40,.T.);
#412=EDGE_CURVE('',#328,#327,#41,.T.);
#413=EDGE_CURVE('',#311,#328,#42,.T.);
#414=EDGE_CURVE('',#329,#310,#43,.T.);
#415=EDGE_CURVE('',#330,#329,#270,.T.);
#416=EDGE_CURVE('',#331,#330,#44,.T.);
#417=EDGE_CURVE('',#323,#331,#15,.T.);
#418=EDGE_CURVE('',#316,#322,#45,.T.);
#419=EDGE_CURVE('',#332,#304,#46,.T.);
#420=EDGE_CURVE('',#301,#332,#47,.T.);
#421=EDGE_CURVE('',#333,#313,#48,.T.);
#422=EDGE_CURVE('',#333,#327,#109,.T.);
#423=EDGE_CURVE('',#334,#333,#49,.T.);
#424=EDGE_CURVE('',#334,#328,#110,.T.);
#425=EDGE_CURVE('',#312,#334,#50,.T.);
#426=EDGE_CURVE('',#335,#309,#51,.T.);
#427=EDGE_CURVE('',#329,#335,#111,.T.);
#428=EDGE_CURVE('',#336,#337,#52,.T.);
#429=EDGE_CURVE('',#336,#331,#112,.T.);
#430=EDGE_CURVE('',#337,#330,#113,.T.);
#431=EDGE_CURVE('',#324,#336,#16,.T.);
#432=EDGE_CURVE('',#338,#303,#53,.T.);
#433=EDGE_CURVE('',#338,#332,#114,.T.);
#434=EDGE_CURVE('',#302,#338,#54,.T.);
#435=EDGE_CURVE('',#320,#326,#115,.T.);
#436=EDGE_CURVE('',#308,#335,#271,.T.);
#437=EDGE_CURVE('',#337,#325,#272,.T.);
#438=ORIENTED_EDGE('',*,*,#339,.T.);
#439=ORIENTED_EDGE('',*,*,#340,.F.);
#440=ORIENTED_EDGE('',*,*,#339,.F.);
#441=ORIENTED_EDGE('',*,*,#341,.T.);
#442=ORIENTED_EDGE('',*,*,#342,.F.);
#443=ORIENTED_EDGE('',*,*,#341,.F.);
#444=ORIENTED_EDGE('',*,*,#343,.F.);
#445=ORIENTED_EDGE('',*,*,#344,.T.);
#446=ORIENTED_EDGE('',*,*,#340,.T.);
#447=ORIENTED_EDGE('',*,*,#344,.F.);
#448=ORIENTED_EDGE('',*,*,#345,.F.);
#449=ORIENTED_EDGE('',*,*,#346,.T.);
#450=ORIENTED_EDGE('',*,*,#347,.T.);
#451=ORIENTED_EDGE('',*,*,#346,.F.);
#452=ORIENTED_EDGE('',*,*,#347,.F.);
#453=ORIENTED_EDGE('',*,*,#343,.T.);
#454=ORIENTED_EDGE('',*,*,#348,.F.);
#455=ORIENTED_EDGE('',*,*,#349,.F.);
#456=ORIENTED_EDGE('',*,*,#350,.F.);
#457=ORIENTED_EDGE('',*,*,#351,.T.);
#458=ORIENTED_EDGE('',*,*,#352,.F.);
#459=ORIENTED_EDGE('',*,*,#351,.F.);
#460=ORIENTED_EDGE('',*,*,#353,.F.);
#461=ORIENTED_EDGE('',*,*,#354,.F.);
#462=ORIENTED_EDGE('',*,*,#355,.F.);
#463=ORIENTED_EDGE('',*,*,#356,.F.);
#464=ORIENTED_EDGE('',*,*,#357,.F.);
#465=ORIENTED_EDGE('',*,*,#358,.T.);
#466=ORIENTED_EDGE('',*,*,#359,.F.);
#467=ORIENTED_EDGE('',*,*,#360,.F.);
#468=ORIENTED_EDGE('',*,*,#361,.F.);
#469=ORIENTED_EDGE('',*,*,#358,.F.);
#470=ORIENTED_EDGE('',*,*,#362,.F.);
#471=ORIENTED_EDGE('',*,*,#363,.T.);
#472=ORIENTED_EDGE('',*,*,#364,.F.);
#473=ORIENTED_EDGE('',*,*,#363,.F.);
#474=ORIENTED_EDGE('',*,*,#365,.F.);
#475=ORIENTED_EDGE('',*,*,#366,.T.);
#476=ORIENTED_EDGE('',*,*,#367,.F.);
#477=ORIENTED_EDGE('',*,*,#366,.F.);
#478=ORIENTED_EDGE('',*,*,#368,.F.);
#479=ORIENTED_EDGE('',*,*,#369,.T.);
#480=ORIENTED_EDGE('',*,*,#370,.F.);
#481=ORIENTED_EDGE('',*,*,#369,.F.);
#482=ORIENTED_EDGE('',*,*,#371,.F.);
#483=ORIENTED_EDGE('',*,*,#372,.T.);
#484=ORIENTED_EDGE('',*,*,#373,.F.);
#485=ORIENTED_EDGE('',*,*,#372,.F.);
#486=ORIENTED_EDGE('',*,*,#374,.F.);
#487=ORIENTED_EDGE('',*,*,#375,.T.);
#488=ORIENTED_EDGE('',*,*,#376,.F.);
#489=ORIENTED_EDGE('',*,*,#377,.F.);
#490=ORIENTED_EDGE('',*,*,#378,.F.);
#491=ORIENTED_EDGE('',*,*,#379,.F.);
#492=ORIENTED_EDGE('',*,*,#380,.F.);
#493=ORIENTED_EDGE('',*,*,#381,.F.);
#494=ORIENTED_EDGE('',*,*,#382,.F.);
#495=ORIENTED_EDGE('',*,*,#375,.F.);
#496=ORIENTED_EDGE('',*,*,#383,.F.);
#497=ORIENTED_EDGE('',*,*,#349,.T.);
#498=ORIENTED_EDGE('',*,*,#354,.T.);
#499=ORIENTED_EDGE('',*,*,#384,.T.);
#500=ORIENTED_EDGE('',*,*,#385,.T.);
#501=ORIENTED_EDGE('',*,*,#386,.F.);
#502=ORIENTED_EDGE('',*,*,#387,.T.);
#503=ORIENTED_EDGE('',*,*,#388,.T.);
#504=ORIENTED_EDGE('',*,*,#389,.T.);
#505=ORIENTED_EDGE('',*,*,#390,.F.);
#506=ORIENTED_EDGE('',*,*,#391,.T.);
#507=ORIENTED_EDGE('',*,*,#392,.T.);
#508=ORIENTED_EDGE('',*,*,#353,.T.);
#509=ORIENTED_EDGE('',*,*,#350,.T.);
#510=ORIENTED_EDGE('',*,*,#383,.T.);
#511=ORIENTED_EDGE('',*,*,#374,.T.);
#512=ORIENTED_EDGE('',*,*,#371,.T.);
#513=ORIENTED_EDGE('',*,*,#368,.T.);
#514=ORIENTED_EDGE('',*,*,#365,.T.);
#515=ORIENTED_EDGE('',*,*,#362,.T.);
#516=ORIENTED_EDGE('',*,*,#357,.T.);
#517=ORIENTED_EDGE('',*,*,#393,.F.);
#518=ORIENTED_EDGE('',*,*,#394,.F.);
#519=ORIENTED_EDGE('',*,*,#384,.F.);
#520=ORIENTED_EDGE('',*,*,#345,.T.);
#521=ORIENTED_EDGE('',*,*,#381,.T.);
#522=ORIENTED_EDGE('',*,*,#395,.T.);
#523=ORIENTED_EDGE('',*,*,#396,.F.);
#524=ORIENTED_EDGE('',*,*,#397,.F.);
#525=ORIENTED_EDGE('',*,*,#382,.T.);
#526=ORIENTED_EDGE('',*,*,#397,.T.);
#527=ORIENTED_EDGE('',*,*,#398,.T.);
#528=ORIENTED_EDGE('',*,*,#399,.T.);
#529=ORIENTED_EDGE('',*,*,#400,.T.);
#530=ORIENTED_EDGE('',*,*,#401,.T.);
#531=ORIENTED_EDGE('',*,*,#359,.T.);
#532=ORIENTED_EDGE('',*,*,#364,.T.);
#533=ORIENTED_EDGE('',*,*,#367,.T.);
#534=ORIENTED_EDGE('',*,*,#370,.T.);
#535=ORIENTED_EDGE('',*,*,#373,.T.);
#536=ORIENTED_EDGE('',*,*,#356,.T.);
#537=ORIENTED_EDGE('',*,*,#402,.T.);
#538=ORIENTED_EDGE('',*,*,#403,.T.);
#539=ORIENTED_EDGE('',*,*,#399,.F.);
#540=ORIENTED_EDGE('',*,*,#404,.T.);
#541=ORIENTED_EDGE('',*,*,#405,.T.);
#542=ORIENTED_EDGE('',*,*,#406,.T.);
#543=ORIENTED_EDGE('',*,*,#407,.F.);
#544=ORIENTED_EDGE('',*,*,#408,.F.);
#545=ORIENTED_EDGE('',*,*,#393,.T.);
#546=ORIENTED_EDGE('',*,*,#361,.T.);
#547=ORIENTED_EDGE('',*,*,#409,.F.);
#548=ORIENTED_EDGE('',*,*,#410,.F.);
#549=ORIENTED_EDGE('',*,*,#402,.F.);
#550=ORIENTED_EDGE('',*,*,#355,.T.);
#551=ORIENTED_EDGE('',*,*,#376,.T.);
#552=ORIENTED_EDGE('',*,*,#348,.T.);
#553=ORIENTED_EDGE('',*,*,#352,.T.);
#554=ORIENTED_EDGE('',*,*,#392,.F.);
#555=ORIENTED_EDGE('',*,*,#411,.F.);
#556=ORIENTED_EDGE('',*,*,#412,.F.);
#557=ORIENTED_EDGE('',*,*,#413,.F.);
#558=ORIENTED_EDGE('',*,*,#388,.F.);
#559=ORIENTED_EDGE('',*,*,#414,.F.);
#560=ORIENTED_EDGE('',*,*,#415,.F.);
#561=ORIENTED_EDGE('',*,*,#416,.F.);
#562=ORIENTED_EDGE('',*,*,#417,.F.);
#563=ORIENTED_EDGE('',*,*,#405,.F.);
#564=ORIENTED_EDGE('',*,*,#418,.F.);
#565=ORIENTED_EDGE('',*,*,#395,.F.);
#566=ORIENTED_EDGE('',*,*,#380,.T.);
#567=ORIENTED_EDGE('',*,*,#419,.F.);
#568=ORIENTED_EDGE('',*,*,#420,.F.);
#569=ORIENTED_EDGE('',*,*,#342,.T.);
#570=ORIENTED_EDGE('',*,*,#421,.F.);
#571=ORIENTED_EDGE('',*,*,#422,.T.);
#572=ORIENTED_EDGE('',*,*,#411,.T.);
#573=ORIENTED_EDGE('',*,*,#391,.F.);
#574=ORIENTED_EDGE('',*,*,#423,.F.);
#575=ORIENTED_EDGE('',*,*,#424,.T.);
#576=ORIENTED_EDGE('',*,*,#412,.T.);
#577=ORIENTED_EDGE('',*,*,#422,.F.);
#578=ORIENTED_EDGE('',*,*,#425,.F.);
#579=ORIENTED_EDGE('',*,*,#389,.F.);
#580=ORIENTED_EDGE('',*,*,#413,.T.);
#581=ORIENTED_EDGE('',*,*,#424,.F.);
#582=ORIENTED_EDGE('',*,*,#426,.F.);
#583=ORIENTED_EDGE('',*,*,#427,.F.);
#584=ORIENTED_EDGE('',*,*,#414,.T.);
#585=ORIENTED_EDGE('',*,*,#387,.F.);
#586=ORIENTED_EDGE('',*,*,#428,.F.);
#587=ORIENTED_EDGE('',*,*,#429,.T.);
#588=ORIENTED_EDGE('',*,*,#416,.T.);
#589=ORIENTED_EDGE('',*,*,#430,.F.);
#590=ORIENTED_EDGE('',*,*,#431,.F.);
#591=ORIENTED_EDGE('',*,*,#406,.F.);
#592=ORIENTED_EDGE('',*,*,#417,.T.);
#593=ORIENTED_EDGE('',*,*,#429,.F.);
#594=ORIENTED_EDGE('',*,*,#398,.F.);
#595=ORIENTED_EDGE('',*,*,#396,.T.);
#596=ORIENTED_EDGE('',*,*,#418,.T.);
#597=ORIENTED_EDGE('',*,*,#404,.F.);
#598=ORIENTED_EDGE('',*,*,#379,.T.);
#599=ORIENTED_EDGE('',*,*,#432,.F.);
#600=ORIENTED_EDGE('',*,*,#433,.T.);
#601=ORIENTED_EDGE('',*,*,#419,.T.);
#602=ORIENTED_EDGE('',*,*,#377,.T.);
#603=ORIENTED_EDGE('',*,*,#420,.T.);
#604=ORIENTED_EDGE('',*,*,#433,.F.);
#605=ORIENTED_EDGE('',*,*,#434,.F.);
#606=ORIENTED_EDGE('',*,*,#360,.T.);
#607=ORIENTED_EDGE('',*,*,#401,.F.);
#608=ORIENTED_EDGE('',*,*,#435,.T.);
#609=ORIENTED_EDGE('',*,*,#409,.T.);
#610=ORIENTED_EDGE('',*,*,#400,.F.);
#611=ORIENTED_EDGE('',*,*,#403,.F.);
#612=ORIENTED_EDGE('',*,*,#410,.T.);
#613=ORIENTED_EDGE('',*,*,#435,.F.);
#614=ORIENTED_EDGE('',*,*,#430,.T.);
#615=ORIENTED_EDGE('',*,*,#415,.T.);
#616=ORIENTED_EDGE('',*,*,#427,.T.);
#617=ORIENTED_EDGE('',*,*,#436,.F.);
#618=ORIENTED_EDGE('',*,*,#385,.F.);
#619=ORIENTED_EDGE('',*,*,#394,.T.);
#620=ORIENTED_EDGE('',*,*,#408,.T.);
#621=ORIENTED_EDGE('',*,*,#437,.F.);
#622=ORIENTED_EDGE('',*,*,#425,.T.);
#623=ORIENTED_EDGE('',*,*,#423,.T.);
#624=ORIENTED_EDGE('',*,*,#421,.T.);
#625=ORIENTED_EDGE('',*,*,#390,.T.);
#626=ORIENTED_EDGE('',*,*,#426,.T.);
#627=ORIENTED_EDGE('',*,*,#386,.T.);
#628=ORIENTED_EDGE('',*,*,#436,.T.);
#629=ORIENTED_EDGE('',*,*,#431,.T.);
#630=ORIENTED_EDGE('',*,*,#428,.T.);
#631=ORIENTED_EDGE('',*,*,#437,.T.);
#632=ORIENTED_EDGE('',*,*,#407,.T.);
#633=ORIENTED_EDGE('',*,*,#378,.T.);
#634=ORIENTED_EDGE('',*,*,#434,.T.);
#635=ORIENTED_EDGE('',*,*,#432,.T.);
#636=PLANE('',#708);
#637=PLANE('',#718);
#638=PLANE('',#719);
#639=PLANE('',#720);
#640=PLANE('',#721);
#641=PLANE('',#722);
#642=PLANE('',#723);
#643=PLANE('',#724);
#644=PLANE('',#725);
#645=PLANE('',#726);
#646=PLANE('',#727);
#647=PLANE('',#728);
#648=PLANE('',#729);
#649=PLANE('',#731);
#650=PLANE('',#732);
#651=PLANE('',#733);
#652=PLANE('',#734);
#653=PLANE('',#741);
#654=PLANE('',#742);
#655=PLANE('',#743);
#656=PLANE('',#744);
#657=ADVANCED_FACE('',(#185,#181),#636,.F.);
#658=ADVANCED_FACE('',(#186),#177,.F.);
#659=ADVANCED_FACE('',(#187),#178,.F.);
#660=ADVANCED_FACE('',(#188),#179,.F.);
#661=ADVANCED_FACE('',(#189,#182),#637,.T.);
#662=ADVANCED_FACE('',(#190),#638,.F.);
#663=ADVANCED_FACE('',(#191),#639,.F.);
#664=ADVANCED_FACE('',(#192),#640,.F.);
#665=ADVANCED_FACE('',(#193),#641,.F.);
#666=ADVANCED_FACE('',(#194),#642,.F.);
#667=ADVANCED_FACE('',(#195),#643,.F.);
#668=ADVANCED_FACE('',(#196),#644,.F.);
#669=ADVANCED_FACE('',(#197),#645,.F.);
#670=ADVANCED_FACE('',(#198),#646,.F.);
#671=ADVANCED_FACE('',(#199),#647,.T.);
#672=ADVANCED_FACE('',(#200,#183),#648,.T.);
#673=ADVANCED_FACE('',(#201),#17,.F.);
#674=ADVANCED_FACE('',(#202),#649,.F.);
#675=ADVANCED_FACE('',(#203),#650,.T.);
#676=ADVANCED_FACE('',(#204),#651,.T.);
#677=ADVANCED_FACE('',(#205,#184),#652,.T.);
#678=ADVANCED_FACE('',(#206),#18,.F.);
#679=ADVANCED_FACE('',(#207),#19,.F.);
#680=ADVANCED_FACE('',(#208),#20,.F.);
#681=ADVANCED_FACE('',(#209),#21,.F.);
#682=ADVANCED_FACE('',(#210),#22,.F.);
#683=ADVANCED_FACE('',(#211),#23,.F.);
#684=ADVANCED_FACE('',(#212),#24,.F.);
#685=ADVANCED_FACE('',(#213),#25,.F.);
#686=ADVANCED_FACE('',(#214),#26,.F.);
#687=ADVANCED_FACE('',(#215),#27,.F.);
#688=ADVANCED_FACE('',(#216),#28,.F.);
#689=ADVANCED_FACE('',(#217),#180,.T.);
#690=ADVANCED_FACE('',(#218),#653,.F.);
#691=ADVANCED_FACE('',(#219),#654,.F.);
#692=ADVANCED_FACE('',(#220),#655,.F.);
#693=ADVANCED_FACE('',(#221),#656,.F.);
#694=CLOSED_SHELL('',(#657,#658,#659,#660,#661,#662,#663,#664,#665,#666,
#667,#668,#669,#670,#671,#672,#673,#674,#675,#676,#677,#678,#679,#680,#681,
#682,#683,#684,#685,#686,#687,#688,#689,#690,#691,#692,#693));
#695=DERIVED_UNIT_ELEMENT(#697,1.);
#696=DERIVED_UNIT_ELEMENT(#1260,-3.);
#697=(
MASS_UNIT()
NAMED_UNIT(*)
SI_UNIT(.KILO.,.GRAM.)
);
#698=DERIVED_UNIT((#695,#696));
#699=MEASURE_REPRESENTATION_ITEM('density measure',
POSITIVE_RATIO_MEASURE(7850.),#698);
#700=PROPERTY_DEFINITION_REPRESENTATION(#705,#702);
#701=PROPERTY_DEFINITION_REPRESENTATION(#706,#703);
#702=REPRESENTATION('material name',(#704),#1257);
#703=REPRESENTATION('density',(#699),#1257);
#704=DESCRIPTIVE_REPRESENTATION_ITEM('Steel','Steel');
#705=PROPERTY_DEFINITION('material property','material name',#1267);
#706=PROPERTY_DEFINITION('material property','density of part',#1267);
#707=AXIS2_PLACEMENT_3D('',#882,#745,#746);
#708=AXIS2_PLACEMENT_3D('',#883,#747,#748);
#709=AXIS2_PLACEMENT_3D('',#885,#749,#750);
#710=AXIS2_PLACEMENT_3D('',#887,#751,#752);
#711=AXIS2_PLACEMENT_3D('',#888,#753,#754);
#712=AXIS2_PLACEMENT_3D('',#891,#756,#757);
#713=AXIS2_PLACEMENT_3D('',#892,#758,#759);
#714=AXIS2_PLACEMENT_3D('',#894,#760,#761);
#715=AXIS2_PLACEMENT_3D('',#896,#763,#764);
#716=AXIS2_PLACEMENT_3D('',#898,#765,#766);
#717=AXIS2_PLACEMENT_3D('',#901,#768,#769);
#718=AXIS2_PLACEMENT_3D('',#902,#770,#771);
#719=AXIS2_PLACEMENT_3D('',#903,#772,#773);
#720=AXIS2_PLACEMENT_3D('',#912,#778,#779);
#721=AXIS2_PLACEMENT_3D('',#918,#783,#784);
#722=AXIS2_PLACEMENT_3D('',#927,#789,#790);
#723=AXIS2_PLACEMENT_3D('',#942,#795,#796);
#724=AXIS2_PLACEMENT_3D('',#948,#800,#801);
#725=AXIS2_PLACEMENT_3D('',#954,#805,#806);
#726=AXIS2_PLACEMENT_3D('',#960,#810,#811);
#727=AXIS2_PLACEMENT_3D('',#966,#815,#816);
#728=AXIS2_PLACEMENT_3D('',#996,#822,#823);
#729=AXIS2_PLACEMENT_3D('',#1014,#833,#834);
#730=AXIS2_PLACEMENT_3D('',#1017,#836,#837);
#731=AXIS2_PLACEMENT_3D('',#1037,#839,#840);
#732=AXIS2_PLACEMENT_3D('',#1054,#842,#843);
#733=AXIS2_PLACEMENT_3D('',#1067,#851,#852);
#734=AXIS2_PLACEMENT_3D('',#1077,#853,#854);
#735=AXIS2_PLACEMENT_3D('',#1098,#855,#856);
#736=AXIS2_PLACEMENT_3D('',#1104,#857,#858);
#737=AXIS2_PLACEMENT_3D('',#1196,#864,#865);
#738=AXIS2_PLACEMENT_3D('',#1248,#868,#869);
#739=AXIS2_PLACEMENT_3D('',#1249,#870,#871);
#740=AXIS2_PLACEMENT_3D('',#1250,#872,#873);
#741=AXIS2_PLACEMENT_3D('',#1251,#874,#875);
#742=AXIS2_PLACEMENT_3D('',#1252,#876,#877);
#743=AXIS2_PLACEMENT_3D('',#1253,#878,#879);
#744=AXIS2_PLACEMENT_3D('',#1254,#880,#881);
#745=DIRECTION('axis',(0.,0.,1.));
#746=DIRECTION('refdir',(1.,0.,0.));
#747=DIRECTION('center_axis',(0.,0.,1.));
#748=DIRECTION('ref_axis',(-1.,0.,0.));
#749=DIRECTION('center_axis',(0.,0.,-1.));
#750=DIRECTION('ref_axis',(-1.,0.,0.));
#751=DIRECTION('center_axis',(0.,0.,-1.));
#752=DIRECTION('ref_axis',(-1.,0.,0.));
#753=DIRECTION('center_axis',(0.,0.,-1.));
#754=DIRECTION('ref_axis',(-1.,0.,0.));
#755=DIRECTION('',(0.,0.,-1.));
#756=DIRECTION('center_axis',(0.,0.,1.));
#757=DIRECTION('ref_axis',(-1.,0.,0.));
#758=DIRECTION('center_axis',(0.,0.,-1.));
#759=DIRECTION('ref_axis',(-1.,0.,0.));
#760=DIRECTION('center_axis',(0.,0.,-1.));
#761=DIRECTION('ref_axis',(-1.,0.,0.));
#762=DIRECTION('',(0.,0.,-1.));
#763=DIRECTION('center_axis',(0.,0.,-1.));
#764=DIRECTION('ref_axis',(-1.,0.,0.));
#765=DIRECTION('center_axis',(0.,0.,-1.));
#766=DIRECTION('ref_axis',(-1.,0.,0.));
#767=DIRECTION('',(0.,0.,-1.));
#768=DIRECTION('center_axis',(0.,0.,-1.));
#769=DIRECTION('ref_axis',(-1.,0.,0.));
#770=DIRECTION('center_axis',(0.,0.,1.));
#771=DIRECTION('ref_axis',(-1.,0.,0.));
#772=DIRECTION('center_axis',(-0.957339427808642,0.28896577645635,0.));
#773=DIRECTION('ref_axis',(0.28896577645635,0.957339427808642,0.));
#774=DIRECTION('',(-0.28896577645635,-0.957339427808642,0.));
#775=DIRECTION('',(0.,0.,-1.));
#776=DIRECTION('',(0.28896577645635,0.957339427808642,0.));
#777=DIRECTION('',(0.,0.,-1.));
#778=DIRECTION('center_axis',(0.666481058265804,0.745521964111652,0.));
#779=DIRECTION('ref_axis',(0.745521964111652,-0.666481058265804,0.));
#780=DIRECTION('',(-0.745521964111652,0.666481058265804,0.));
#781=DIRECTION('',(0.745521964111652,-0.666481058265804,0.));
#782=DIRECTION('',(0.,0.,1.));
#783=DIRECTION('center_axis',(0.666481058265848,0.745521964111612,0.));
#784=DIRECTION('ref_axis',(0.745521964111612,-0.666481058265848,0.));
#785=DIRECTION('',(-0.745521964111612,0.666481058265848,0.));
#786=DIRECTION('',(0.,0.,-1.));
#787=DIRECTION('',(0.745521964111612,-0.666481058265848,0.));
#788=DIRECTION('',(0.,0.,-1.));
#789=DIRECTION('center_axis',(0.394005295154459,-0.919108169580843,0.));
#790=DIRECTION('ref_axis',(-0.919108169580843,-0.394005295154459,0.));
#791=DIRECTION('',(0.919108169580843,0.394005295154459,0.));
#792=DIRECTION('',(0.919108169580843,0.394005295154459,0.));
#793=DIRECTION('',(-0.919108169580843,-0.394005295154459,0.));
#794=DIRECTION('',(0.,0.,-1.));
#795=DIRECTION('center_axis',(0.66648105826578,0.745521964111673,0.));
#796=DIRECTION('ref_axis',(0.745521964111673,-0.66648105826578,0.));
#797=DIRECTION('',(-0.745521964111673,0.66648105826578,0.));
#798=DIRECTION('',(0.745521964111673,-0.66648105826578,0.));
#799=DIRECTION('',(0.,0.,-1.));
#800=DIRECTION('center_axis',(-0.957339427808653,0.288965776456314,0.));
#801=DIRECTION('ref_axis',(0.288965776456314,0.957339427808653,0.));
#802=DIRECTION('',(-0.288965776456314,-0.957339427808653,0.));
#803=DIRECTION('',(0.288965776456314,0.957339427808653,0.));
#804=DIRECTION('',(0.,0.,-1.));
#805=DIRECTION('center_axis',(0.666481058265793,0.745521964111661,0.));
#806=DIRECTION('ref_axis',(0.745521964111661,-0.666481058265793,0.));
#807=DIRECTION('',(-0.745521964111661,0.666481058265793,0.));
#808=DIRECTION('',(0.745521964111661,-0.666481058265793,0.));
#809=DIRECTION('',(0.,0.,-1.));
#810=DIRECTION('center_axis',(0.394005295153811,-0.919108169581121,0.));
#811=DIRECTION('ref_axis',(-0.919108169581121,-0.394005295153811,0.));
#812=DIRECTION('',(0.919108169581121,0.394005295153811,0.));
#813=DIRECTION('',(-0.919108169581121,-0.394005295153811,0.));
#814=DIRECTION('',(0.,0.,-1.));
#815=DIRECTION('center_axis',(0.666481058265808,0.745521964111648,0.));
#816=DIRECTION('ref_axis',(0.745521964111648,-0.666481058265808,0.));
#817=DIRECTION('',(-0.745521964111648,0.666481058265808,0.));
#818=DIRECTION('',(-0.745521964111648,0.666481058265808,0.));
#819=DIRECTION('',(-0.745521964111648,0.666481058265808,0.));
#820=DIRECTION('',(-0.745521964111648,0.666481058265808,0.));
#821=DIRECTION('',(0.745521964111648,-0.666481058265808,0.));
#822=DIRECTION('center_axis',(-0.74552196411165,0.666481058265805,0.));
#823=DIRECTION('ref_axis',(0.666481058265805,0.74552196411165,0.));
#824=DIRECTION('',(0.666481058265805,0.74552196411165,0.));
#825=DIRECTION('',(0.,0.,-1.));
#826=DIRECTION('',(0.666481058265805,0.74552196411165,0.));
#827=DIRECTION('',(0.,0.,1.));
#828=DIRECTION('',(-0.666481058265805,-0.74552196411165,0.));
#829=DIRECTION('',(0.,0.,-1.));
#830=DIRECTION('',(0.666481058265805,0.74552196411165,0.));
#831=DIRECTION('',(0.,0.,1.));
#832=DIRECTION('',(-0.666481058265805,-0.74552196411165,0.));
#833=DIRECTION('center_axis',(0.,0.,1.));
#834=DIRECTION('ref_axis',(-1.,0.,0.));
#835=DIRECTION('',(-0.666481058265804,-0.745521964111651,0.));
#836=DIRECTION('center_axis',(0.,0.,-1.));
#837=DIRECTION('ref_axis',(0.745521964111651,-0.666481058265805,0.));
#838=DIRECTION('',(0.,0.,1.));
#839=DIRECTION('center_axis',(0.,0.,1.));
#840=DIRECTION('ref_axis',(-1.,0.,0.));
#841=DIRECTION('',(-0.666481058265804,-0.745521964111651,0.));
#842=DIRECTION('center_axis',(0.745521964111651,-0.666481058265804,0.));
#843=DIRECTION('ref_axis',(-0.666481058265804,-0.745521964111651,0.));
#844=DIRECTION('',(0.666481058265804,0.745521964111651,0.));
#845=DIRECTION('',(0.,0.,-1.));
#846=DIRECTION('',(0.,0.,1.));
#847=DIRECTION('',(0.666481058265804,0.745521964111651,0.));
#848=DIRECTION('',(0.,0.,-1.));
#849=DIRECTION('',(-0.666481058265804,-0.745521964111651,0.));
#850=DIRECTION('',(0.,0.,-1.));
#851=DIRECTION('center_axis',(0.,0.,-1.));
#852=DIRECTION('ref_axis',(1.,0.,0.));
#853=DIRECTION('center_axis',(0.,0.,-1.));
#854=DIRECTION('ref_axis',(1.,0.,0.));
#855=DIRECTION('center_axis',(0.,0.,1.));
#856=DIRECTION('ref_axis',(0.745521964111651,-0.666481058265805,0.));
#857=DIRECTION('center_axis',(0.,0.,1.));
#858=DIRECTION('ref_axis',(0.92013348739555,0.391604858720246,0.));
#859=DIRECTION('',(0.,0.,1.));
#860=DIRECTION('',(0.,0.,1.));
#861=DIRECTION('',(0.,0.,-1.));
#862=DIRECTION('',(0.,0.,1.));
#863=DIRECTION('',(0.,0.,1.));
#864=DIRECTION('center_axis',(0.,0.,1.));
#865=DIRECTION('ref_axis',(0.92013348739555,0.391604858720246,0.));
#866=DIRECTION('',(0.,0.,1.));
#867=DIRECTION('',(0.,0.,1.));
#868=DIRECTION('center_axis',(0.,0.,-1.));
#869=DIRECTION('ref_axis',(0.745521964111651,-0.666481058265805,0.));
#870=DIRECTION('center_axis',(0.,0.,-1.));
#871=DIRECTION('ref_axis',(0.745521964111651,-0.666481058265805,0.));
#872=DIRECTION('center_axis',(0.,0.,-1.));
#873=DIRECTION('ref_axis',(0.745521964111651,-0.666481058265805,0.));
#874=DIRECTION('center_axis',(0.,0.,1.));
#875=DIRECTION('ref_axis',(-1.,0.,0.));
#876=DIRECTION('center_axis',(0.,0.,1.));
#877=DIRECTION('ref_axis',(-1.,0.,0.));
#878=DIRECTION('center_axis',(0.,0.,1.));
#879=DIRECTION('ref_axis',(-1.,0.,0.));
#880=DIRECTION('center_axis',(0.,0.,1.));
#881=DIRECTION('ref_axis',(-1.,0.,0.));
#882=CARTESIAN_POINT('',(0.,0.,0.));
#883=CARTESIAN_POINT('Origin',(175.578113255177,141.631973976087,6.1035162724936));
#884=CARTESIAN_POINT('',(178.278113255177,141.631973976087,6.1035162724936));
#885=CARTESIAN_POINT('Origin',(175.578113255177,141.631973976087,6.1035162724936));
#886=CARTESIAN_POINT('',(177.078113255177,141.631973976087,6.1035162724936));
#887=CARTESIAN_POINT('Origin',(175.578113255177,141.631973976087,6.1035162724936));
#888=CARTESIAN_POINT('Origin',(175.578113255177,141.631973976087,10.1035162724936));
#889=CARTESIAN_POINT('',(178.278113255177,141.631973976087,4.1035162724936));
#890=CARTESIAN_POINT('',(178.278113255177,141.631973976087,10.1035162724936));
#891=CARTESIAN_POINT('Origin',(175.578113255177,141.631973976087,4.10351627249359));
#892=CARTESIAN_POINT('Origin',(175.578113255177,141.631973976087,10.1035162724936));
#893=CARTESIAN_POINT('',(177.078113255177,141.631973976087,8.1035162724936));
#894=CARTESIAN_POINT('Origin',(175.578113255177,141.631973976087,8.1035162724936));
#895=CARTESIAN_POINT('',(177.078113255177,141.631973976087,10.1035162724936));
#896=CARTESIAN_POINT('Origin',(175.578113255177,141.631973976087,10.1035162724936));
#897=CARTESIAN_POINT('',(180.628113255177,141.631973976087,10.1035162724936));
#898=CARTESIAN_POINT('Origin',(175.578113255177,141.631973976087,10.1035162724936));
#899=CARTESIAN_POINT('',(180.628113255177,141.631973976087,8.1035162724936));
#900=CARTESIAN_POINT('',(180.628113255177,141.631973976087,10.1035162724936));
#901=CARTESIAN_POINT('Origin',(175.578113255177,141.631973976087,8.1035162724936));
#902=CARTESIAN_POINT('Origin',(175.578113255177,141.631973976087,8.1035162724936));
#903=CARTESIAN_POINT('Origin',(135.561413199577,110.373277927129,10.1035162724936));
#904=CARTESIAN_POINT('',(137.474443942043,116.711121040707,4.10351627249359));
#905=CARTESIAN_POINT('',(135.561413199577,110.373277927129,4.10351627249359));
#906=CARTESIAN_POINT('',(127.528013132969,83.7587399792899,4.10351627249359));
#907=CARTESIAN_POINT('',(137.474443942043,116.711121040707,10.1035162724936));
#908=CARTESIAN_POINT('',(137.474443942043,116.711121040707,10.1035162724936));
#909=CARTESIAN_POINT('',(135.561413199577,110.373277927129,10.1035162724936));
#910=CARTESIAN_POINT('',(124.068022984982,72.2958427839271,10.1035162724936));
#911=CARTESIAN_POINT('',(135.561413199577,110.373277927129,10.1035162724936));
#912=CARTESIAN_POINT('Origin',(131.088281414907,114.372164276724,10.1035162724936));
#913=CARTESIAN_POINT('',(131.088281414907,114.372164276724,4.10351627249359));
#914=CARTESIAN_POINT('',(107.539563781875,135.424225791192,4.10351627249359));
#915=CARTESIAN_POINT('',(131.088281414907,114.372164276724,10.1035162724936));
#916=CARTESIAN_POINT('',(112.636282833806,130.867865454495,10.1035162724936));
#917=CARTESIAN_POINT('',(131.088281414906,114.372164276725,45.1035162724936));
#918=CARTESIAN_POINT('Origin',(148.092605766194,99.1706536113143,10.1035162724936));
#919=CARTESIAN_POINT('',(153.453940338256,94.3777325287502,4.10351627249359));
#920=CARTESIAN_POINT('',(148.092605766194,99.1706536113143,4.10351627249359));
#921=CARTESIAN_POINT('',(116.041725957522,127.823470458488,4.10351627249359));
#922=CARTESIAN_POINT('',(153.453940338256,94.3777325287502,10.1035162724936));
#923=CARTESIAN_POINT('',(153.453940338256,94.3777325287502,45.1035162724936));
#924=CARTESIAN_POINT('',(148.092605766194,99.1706536113143,10.1035162724936));
#925=CARTESIAN_POINT('',(121.138445009454,123.26711012179,10.1035162724936));
#926=CARTESIAN_POINT('',(148.092605766194,99.1706536113143,10.1035162724936));
#927=CARTESIAN_POINT('Origin',(154.177347722913,101.77907406708,10.1035162724936));
#928=CARTESIAN_POINT('',(148.936788550489,99.5325397288562,2.10351627249359));
#929=CARTESIAN_POINT('',(154.177347722913,101.77907406708,2.10351627249359));
#930=CARTESIAN_POINT('',(89.7553448590703,74.1625093439248,2.10351627249359));
#931=CARTESIAN_POINT('',(148.936788550489,99.5325397288562,4.10351627249359));
#932=CARTESIAN_POINT('Ctrl Pts',(148.93678855049,99.5325397288562,4.10351627249359));
#933=CARTESIAN_POINT('Ctrl Pts',(148.93678855049,99.5325397288562,3.77018293916026));
#934=CARTESIAN_POINT('Ctrl Pts',(148.93678855049,99.5325397288562,3.43684960582692));
#935=CARTESIAN_POINT('Ctrl Pts',(148.93678855049,99.5325397288562,2.77018293916026));
#936=CARTESIAN_POINT('Ctrl Pts',(148.93678855049,99.5325397288562,2.43684960582692));
#937=CARTESIAN_POINT('Ctrl Pts',(148.93678855049,99.5325397288562,2.10351627249359));
#938=CARTESIAN_POINT('',(95.4494866423194,76.6034864652397,4.10351627249359));
#939=CARTESIAN_POINT('',(154.177347722913,101.77907406708,10.1035162724936));
#940=CARTESIAN_POINT('',(89.7553448590703,74.1625093439248,10.1035162724936));
#941=CARTESIAN_POINT('',(154.177347722913,101.77907406708,10.1035162724936));
#942=CARTESIAN_POINT('Origin',(146.722128081796,108.443884649737,10.1035162724936));
#943=CARTESIAN_POINT('',(146.722128081796,108.443884649737,2.10351627249359));
#944=CARTESIAN_POINT('',(122.452649342046,130.140291533337,2.10351627249359));
#945=CARTESIAN_POINT('',(146.722128081796,108.443884649737,10.1035162724936));
#946=CARTESIAN_POINT('',(122.452649342046,130.140291533337,10.1035162724936));
#947=CARTESIAN_POINT('',(146.722128081796,108.443884649737,10.1035162724936));
#948=CARTESIAN_POINT('Origin',(144.80909733933,102.10604153616,10.1035162724936));
#949=CARTESIAN_POINT('',(144.80909733933,102.10604153616,2.10351627249359));
#950=CARTESIAN_POINT('',(134.073127909944,66.53793047283,2.10351627249359));
#951=CARTESIAN_POINT('',(144.80909733933,102.10604153616,10.1035162724936));
#952=CARTESIAN_POINT('',(134.073127909944,66.53793047283,10.1035162724936));
#953=CARTESIAN_POINT('',(144.80909733933,102.10604153616,10.1035162724936));
#954=CARTESIAN_POINT('Origin',(138.844921626436,107.437890002286,10.1035162724936));
#955=CARTESIAN_POINT('',(138.844921626436,107.437890002286,2.10351627249359));
#956=CARTESIAN_POINT('',(116.51460293957,127.400728317277,2.10351627249359));
#957=CARTESIAN_POINT('',(138.844921626436,107.437890002286,10.1035162724936));
#958=CARTESIAN_POINT('',(116.51460293957,127.400728317277,10.1035162724936));
#959=CARTESIAN_POINT('',(138.844921626436,107.437890002286,10.1035162724936));
#960=CARTESIAN_POINT('Origin',(144.92966358316,110.046310458049,10.1035162724936));
#961=CARTESIAN_POINT('',(144.92966358316,110.046310458049,2.10351627249359));
#962=CARTESIAN_POINT('',(82.9167751827117,83.462490178555,2.10351627249359));
#963=CARTESIAN_POINT('',(144.92966358316,110.046310458049,10.1035162724936));
#964=CARTESIAN_POINT('',(82.9167751827117,83.462490178555,10.1035162724936));
#965=CARTESIAN_POINT('',(144.92966358316,110.046310458049,10.1035162724936));
#966=CARTESIAN_POINT('Origin',(137.474443942043,116.711121040707,10.1035162724936));
#967=CARTESIAN_POINT('',(142.601125571234,112.127974786007,4.10351627249359));
#968=CARTESIAN_POINT('',(112.732088220241,138.830270065519,4.10351627249359));
#969=CARTESIAN_POINT('',(142.601125571234,112.127974786007,2.10351627249359));
#970=CARTESIAN_POINT('Ctrl Pts',(142.601125571234,112.127974786007,2.10351627249359));
#971=CARTESIAN_POINT('Ctrl Pts',(142.601125571234,112.127974786007,2.43684960582692));
#972=CARTESIAN_POINT('Ctrl Pts',(142.601125571234,112.127974786007,2.77018293916026));
#973=CARTESIAN_POINT('Ctrl Pts',(142.601125571234,112.127974786007,3.43684960582692));
#974=CARTESIAN_POINT('Ctrl Pts',(142.601125571234,112.127974786007,3.77018293916026));
#975=CARTESIAN_POINT('Ctrl Pts',(142.601125571234,112.127974786007,4.10351627249359));
#976=CARTESIAN_POINT('',(142.860213004095,111.89635603465,2.10351627249359));
#977=CARTESIAN_POINT('',(117.828807272172,134.273909728822,2.10351627249359));
#978=CARTESIAN_POINT('',(142.860213004095,111.89635603465,4.10351627249359));
#979=CARTESIAN_POINT('Ctrl Pts',(142.860213004095,111.89635603465,4.10351627249359));
#980=CARTESIAN_POINT('Ctrl Pts',(142.860213004095,111.89635603465,3.77018293916026));
#981=CARTESIAN_POINT('Ctrl Pts',(142.860213004095,111.89635603465,3.43684960582692));
#982=CARTESIAN_POINT('Ctrl Pts',(142.860213004095,111.89635603465,2.77018293916026));
#983=CARTESIAN_POINT('Ctrl Pts',(142.860213004095,111.89635603465,2.43684960582692));
#984=CARTESIAN_POINT('Ctrl Pts',(142.860213004095,111.89635603465,2.10351627249359));
#985=CARTESIAN_POINT('',(144.651429707998,110.295045728758,4.10351627249359));
#986=CARTESIAN_POINT('',(112.732088220241,138.830270065519,4.10351627249359));
#987=CARTESIAN_POINT('',(144.651429707998,110.295045728758,2.10351627249359));
#988=CARTESIAN_POINT('Ctrl Pts',(144.651429707998,110.295045728758,2.10351627249359));
#989=CARTESIAN_POINT('Ctrl Pts',(144.651429707998,110.295045728758,2.43684960582692));
#990=CARTESIAN_POINT('Ctrl Pts',(144.651429707998,110.295045728758,2.77018293916026));
#991=CARTESIAN_POINT('Ctrl Pts',(144.651429707998,110.295045728758,3.43684960582692));
#992=CARTESIAN_POINT('Ctrl Pts',(144.651429707998,110.295045728758,3.77018293916026));
#993=CARTESIAN_POINT('Ctrl Pts',(144.651429707998,110.295045728758,4.10351627249359));
#994=CARTESIAN_POINT('',(117.828807272172,134.273909728822,2.10351627249359));
#995=CARTESIAN_POINT('',(117.828807272172,134.273909728822,10.1035162724936));
#996=CARTESIAN_POINT('Origin',(131.071230880212,114.353091644492,80.1035162724936));
#997=CARTESIAN_POINT('',(164.395284004178,151.629190085735,10.1035162724936));
#998=CARTESIAN_POINT('',(93.2061388725041,71.9974126424391,10.1035162724936));
#999=CARTESIAN_POINT('',(164.395284004178,151.629190085735,2.10351627249359));
#1000=CARTESIAN_POINT('',(164.395284004178,151.629190085735,80.1035162724936));
#1001=CARTESIAN_POINT('',(157.792019249752,144.242815262003,2.10351627249359));
#1002=CARTESIAN_POINT('',(131.071230880212,114.353091644492,2.10351627249359));
#1003=CARTESIAN_POINT('',(157.792019249752,144.242815262003,4.10351627249359));
#1004=CARTESIAN_POINT('',(157.792019249754,144.242815262003,2.10351627249359));
#1005=CARTESIAN_POINT('',(148.729896037429,134.105975193581,4.10351627249359));
#1006=CARTESIAN_POINT('',(99.8867000490167,79.4702508092747,4.10351627249359));
#1007=CARTESIAN_POINT('',(148.729896037429,134.105975193581,2.10351627249359));
#1008=CARTESIAN_POINT('',(148.729896037429,134.105975193581,2.10351627249359));
#1009=CARTESIAN_POINT('',(137.666712743714,121.7307605702,2.10351627249359));
#1010=CARTESIAN_POINT('',(131.071230880212,114.353091644492,2.10351627249359));
#1011=CARTESIAN_POINT('',(137.666712743714,121.7307605702,4.10351627249359));
#1012=CARTESIAN_POINT('',(137.666712743714,121.7307605702,2.10351627249359));
#1013=CARTESIAN_POINT('',(99.8867000490167,79.4702508092747,4.10351627249359));
#1014=CARTESIAN_POINT('Origin',(18.4370497025956,62.6331359959283,10.1035162724936));
#1015=CARTESIAN_POINT('',(186.760942716852,131.6347581021,10.1035162724936));
#1016=CARTESIAN_POINT('',(132.233824252499,70.6410299972562,10.1035162724936));
#1017=CARTESIAN_POINT('Origin',(175.578113255177,141.631973976087,10.1035162724936));
#1018=CARTESIAN_POINT('Ctrl Pts',(142.727318659495,112.19237188989,2.10351627249359));
#1019=CARTESIAN_POINT('Ctrl Pts',(142.727318659495,112.19237188989,4.50351627249359));
#1020=CARTESIAN_POINT('Ctrl Pts',(143.664897089671,109.883112812182,2.10351627249359));
#1021=CARTESIAN_POINT('Ctrl Pts',(143.664897089671,109.883112812182,4.50351627249359));
#1022=CARTESIAN_POINT('Ctrl Pts',(145.889984948507,109.751530081571,2.10351627249359));
#1023=CARTESIAN_POINT('Ctrl Pts',(145.889984948507,109.751530081571,4.50351627249359));
#1024=CARTESIAN_POINT('Ctrl Pts',(146.951170982391,110.993494809609,2.10351627249359));
#1025=CARTESIAN_POINT('Ctrl Pts',(146.951170982391,110.993494809609,4.50351627249359));
#1026=CARTESIAN_POINT('',(146.951170982391,110.993494809609,4.10351627249359));
#1027=CARTESIAN_POINT('Ctrl Pts',(144.651429707998,110.295045728758,4.10351627249359));
#1028=CARTESIAN_POINT('Ctrl Pts',(145.501744994238,110.063568846203,4.10351627249359));
#1029=CARTESIAN_POINT('Ctrl Pts',(146.389492340468,110.33613121879,4.10351627249359));
#1030=CARTESIAN_POINT('Ctrl Pts',(146.951170982391,110.993494809609,4.10351627249359));
#1031=CARTESIAN_POINT('',(146.951170982391,110.993494809609,2.10351627249359));
#1032=CARTESIAN_POINT('',(146.951170982391,110.993494809609,2.10351627249359));
#1033=CARTESIAN_POINT('Ctrl Pts',(144.651429707998,110.295045728758,2.10351627249359));
#1034=CARTESIAN_POINT('Ctrl Pts',(145.501744994238,110.063568846203,2.10351627249359));
#1035=CARTESIAN_POINT('Ctrl Pts',(146.389492340468,110.33613121879,2.10351627249359));
#1036=CARTESIAN_POINT('Ctrl Pts',(146.951170982391,110.993494809609,2.10351627249359));
#1037=CARTESIAN_POINT('Origin',(18.4370497025956,62.6331359959283,2.10351627249359));
#1038=CARTESIAN_POINT('',(171.247017406699,114.280968485931,2.10351627249359));
#1039=CARTESIAN_POINT('Ctrl Pts',(146.951170982391,110.993494809609,2.10351627249359));
#1040=CARTESIAN_POINT('Ctrl Pts',(154.070545011074,116.597876857388,2.10351627249359));
#1041=CARTESIAN_POINT('Ctrl Pts',(163.278448687078,116.99419483594,2.10351627249359));
#1042=CARTESIAN_POINT('Ctrl Pts',(171.247017406699,114.280968485931,2.10351627249359));
#1043=CARTESIAN_POINT('',(155.626149458575,96.8075534362728,2.10351627249359));
#1044=CARTESIAN_POINT('',(136.620024735932,75.5474091941458,2.10351627249359));
#1045=CARTESIAN_POINT('',(148.730942030619,98.8457979839453,2.10351627249359));
#1046=CARTESIAN_POINT('Ctrl Pts',(155.626149458517,96.8075534363116,2.10351627249359));
#1047=CARTESIAN_POINT('Ctrl Pts',(152.97942928128,98.5718096560613,2.10351627249359));
#1048=CARTESIAN_POINT('Ctrl Pts',(150.132650189657,98.9107548645778,2.10351627249359));
#1049=CARTESIAN_POINT('Ctrl Pts',(148.730942030619,98.8457979839453,2.10351627249359));
#1050=CARTESIAN_POINT('Ctrl Pts',(148.730942030619,98.8457979839453,2.10351627249359));
#1051=CARTESIAN_POINT('Ctrl Pts',(148.8259167621,99.0600736467784,2.10351627249359));
#1052=CARTESIAN_POINT('Ctrl Pts',(148.895373770279,99.2923400985599,2.10351627249359));
#1053=CARTESIAN_POINT('Ctrl Pts',(148.93678855049,99.5325397288562,2.10351627249359));
#1054=CARTESIAN_POINT('Origin',(186.760942716852,131.6347581021,80.1035162724936));
#1055=CARTESIAN_POINT('',(155.626149458575,96.8075534362728,4.10351627249359));
#1056=CARTESIAN_POINT('',(138.914385429011,78.1138681640919,4.10351627249359));
#1057=CARTESIAN_POINT('',(155.626149458517,96.8075534363116,2.10351627249359));
#1058=CARTESIAN_POINT('',(171.247017406699,114.280968485931,4.10351627249359));
#1059=CARTESIAN_POINT('',(171.247017406699,114.280968485931,2.10351627249359));
#1060=CARTESIAN_POINT('',(182.303142303255,126.64828762594,4.10351627249359));
#1061=CARTESIAN_POINT('',(138.914385429011,78.1138681640919,4.10351627249359));
#1062=CARTESIAN_POINT('',(182.303142303255,126.64828762594,2.10351627249359));
#1063=CARTESIAN_POINT('',(182.303142303153,126.648287625978,2.10351627249359));
#1064=CARTESIAN_POINT('',(186.760942716852,131.6347581021,2.10351627249359));
#1065=CARTESIAN_POINT('',(136.620024735932,75.5474091941458,2.10351627249359));
#1066=CARTESIAN_POINT('',(186.760942716852,131.6347581021,80.1035162724936));
#1067=CARTESIAN_POINT('Origin',(21.6047339517581,86.6915330029934,4.10351627249359));
#1068=CARTESIAN_POINT('',(148.730942030619,98.8457979839453,4.10351627249359));
#1069=CARTESIAN_POINT('Ctrl Pts',(148.730942030619,98.8457979839453,4.10351627249359));
#1070=CARTESIAN_POINT('Ctrl Pts',(148.8259167621,99.0600736467784,4.10351627249359));
#1071=CARTESIAN_POINT('Ctrl Pts',(148.895373770279,99.2923400985599,4.10351627249359));
#1072=CARTESIAN_POINT('Ctrl Pts',(148.93678855049,99.5325397288562,4.10351627249359));
#1073=CARTESIAN_POINT('Ctrl Pts',(155.626149458517,96.8075534363116,4.10351627249359));
#1074=CARTESIAN_POINT('Ctrl Pts',(152.97942928128,98.5718096560613,4.10351627249359));
#1075=CARTESIAN_POINT('Ctrl Pts',(150.132650189657,98.9107548645778,4.10351627249359));
#1076=CARTESIAN_POINT('Ctrl Pts',(148.730942030619,98.8457979839453,4.10351627249359));
#1077=CARTESIAN_POINT('Origin',(21.6047339517581,86.6915330029934,4.10351627249359));
#1078=CARTESIAN_POINT('',(138.463453436564,119.995107021472,4.10351627249359));
#1079=CARTESIAN_POINT('Ctrl Pts',(138.463453436564,119.995107021472,4.10351627249359));
#1080=CARTESIAN_POINT('Ctrl Pts',(138.193695988068,120.630197487668,4.10351627249359));
#1081=CARTESIAN_POINT('Ctrl Pts',(137.937033150007,121.197449137848,4.10351627249359));
#1082=CARTESIAN_POINT('Ctrl Pts',(137.666712743714,121.7307605702,4.10351627249359));
#1083=CARTESIAN_POINT('',(161.7017515666,129.935340881488,4.10351627249359));
#1084=CARTESIAN_POINT('Ctrl Pts',(161.7017515666,129.935340881488,4.10351627249359));
#1085=CARTESIAN_POINT('Ctrl Pts',(153.02565081663,128.208979848366,4.10351627249359));
#1086=CARTESIAN_POINT('Ctrl Pts',(144.95204962797,124.480793330015,4.10351627249359));
#1087=CARTESIAN_POINT('Ctrl Pts',(138.463453436564,119.995107021472,4.10351627249359));
#1088=CARTESIAN_POINT('Ctrl Pts',(148.729896037429,134.105975193581,4.10351627249359));
#1089=CARTESIAN_POINT('Ctrl Pts',(152.79564448294,132.287237349761,4.10351627249359));
#1090=CARTESIAN_POINT('Ctrl Pts',(157.166378353465,130.837777304994,4.10351627249359));
#1091=CARTESIAN_POINT('Ctrl Pts',(161.7017515666,129.935340881488,4.10351627249359));
#1092=CARTESIAN_POINT('',(184.081349069295,153.988955026874,4.10351627249359));
#1093=CARTESIAN_POINT('Ctrl Pts',(184.081349069295,153.988955026874,4.10351627249359));
#1094=CARTESIAN_POINT('Ctrl Pts',(178.148285292023,147.154639179403,4.10351627249359));
#1095=CARTESIAN_POINT('Ctrl Pts',(167.586599145858,142.771761305872,4.10351627249359));
#1096=CARTESIAN_POINT('Ctrl Pts',(157.792019249754,144.242815262003,4.10351627249359));
#1097=CARTESIAN_POINT('',(189.641871528866,136.415586028547,4.10351627249359));
#1098=CARTESIAN_POINT('Origin',(175.578113255177,141.631973976087,4.10351627249359));
#1099=CARTESIAN_POINT('',(170.245528352132,129.935327154935,4.10351627249359));
#1100=CARTESIAN_POINT('Ctrl Pts',(170.245528352132,129.935327154935,4.10351627249359));
#1101=CARTESIAN_POINT('Ctrl Pts',(177.900726359576,131.413257518213,4.10351627249359));
#1102=CARTESIAN_POINT('Ctrl Pts',(184.348602511646,133.683681460512,4.10351627249359));
#1103=CARTESIAN_POINT('Ctrl Pts',(189.641871528866,136.415586028547,4.10351627249359));
#1104=CARTESIAN_POINT('Origin',(108.531882995602,60.2114441890009,4.10351627249359));
#1105=CARTESIAN_POINT('Ctrl Pts',(146.951170982391,110.993494809609,4.10351627249359));
#1106=CARTESIAN_POINT('Ctrl Pts',(154.070545011074,116.597876857388,4.10351627249359));
#1107=CARTESIAN_POINT('Ctrl Pts',(163.278448687078,116.99419483594,4.10351627249359));
#1108=CARTESIAN_POINT('Ctrl Pts',(171.247017406699,114.280968485931,4.10351627249359));
#1109=CARTESIAN_POINT('',(142.727318659495,112.19237188989,4.10351627249359));
#1110=CARTESIAN_POINT('Ctrl Pts',(142.727318659495,112.19237188989,4.10351627249359));
#1111=CARTESIAN_POINT('Ctrl Pts',(142.769128882936,112.089393157749,4.10351627249359));
#1112=CARTESIAN_POINT('Ctrl Pts',(142.813499461346,111.990744975995,4.10351627249359));
#1113=CARTESIAN_POINT('Ctrl Pts',(142.860213004095,111.89635603465,4.10351627249359));
#1114=CARTESIAN_POINT('Ctrl Pts',(142.601125571234,112.127974786007,4.10351627249359));
#1115=CARTESIAN_POINT('Ctrl Pts',(142.643789968304,112.150314406575,4.10351627249359));
#1116=CARTESIAN_POINT('Ctrl Pts',(142.685858792936,112.171784929066,4.10351627249359));
#1117=CARTESIAN_POINT('Ctrl Pts',(142.727318659495,112.19237188989,4.10351627249359));
#1118=CARTESIAN_POINT('Ctrl Pts',(138.463453436564,119.995107021472,2.10351627249359));
#1119=CARTESIAN_POINT('Ctrl Pts',(138.463453436564,119.995107021472,4.50351627249359));
#1120=CARTESIAN_POINT('Ctrl Pts',(138.193695988068,120.630197487668,2.10351627249359));
#1121=CARTESIAN_POINT('Ctrl Pts',(138.193695988068,120.630197487668,4.50351627249359));
#1122=CARTESIAN_POINT('Ctrl Pts',(137.937033150007,121.197449137848,2.10351627249359));
#1123=CARTESIAN_POINT('Ctrl Pts',(137.937033150007,121.197449137848,4.50351627249359));
#1124=CARTESIAN_POINT('Ctrl Pts',(137.666712743714,121.7307605702,2.10351627249359));
#1125=CARTESIAN_POINT('Ctrl Pts',(137.666712743714,121.7307605702,4.50351627249359));
#1126=CARTESIAN_POINT('',(138.463453436564,119.995107021472,2.10351627249359));
#1127=CARTESIAN_POINT('Ctrl Pts',(138.463453436564,119.995107021472,2.10351627249359));
#1128=CARTESIAN_POINT('Ctrl Pts',(138.193695988068,120.630197487668,2.10351627249359));
#1129=CARTESIAN_POINT('Ctrl Pts',(137.937033150007,121.197449137848,2.10351627249359));
#1130=CARTESIAN_POINT('Ctrl Pts',(137.666712743714,121.7307605702,2.10351627249359));
#1131=CARTESIAN_POINT('',(138.463453436564,119.995107021472,2.10351627249359));
#1132=CARTESIAN_POINT('Ctrl Pts',(161.7017515666,129.935340881488,2.10351627249359));
#1133=CARTESIAN_POINT('Ctrl Pts',(161.7017515666,129.935340881488,4.50351627249359));
#1134=CARTESIAN_POINT('Ctrl Pts',(153.02565081663,128.208979848366,2.10351627249359));
#1135=CARTESIAN_POINT('Ctrl Pts',(153.02565081663,128.208979848366,4.50351627249359));
#1136=CARTESIAN_POINT('Ctrl Pts',(144.95204962797,124.480793330015,2.10351627249359));
#1137=CARTESIAN_POINT('Ctrl Pts',(144.95204962797,124.480793330015,4.50351627249359));
#1138=CARTESIAN_POINT('Ctrl Pts',(138.463453436564,119.995107021472,2.10351627249359));
#1139=CARTESIAN_POINT('Ctrl Pts',(138.463453436564,119.995107021472,4.50351627249359));
#1140=CARTESIAN_POINT('',(161.7017515666,129.935340881488,2.10351627249359));
#1141=CARTESIAN_POINT('Ctrl Pts',(161.7017515666,129.935340881488,2.10351627249359));
#1142=CARTESIAN_POINT('Ctrl Pts',(153.02565081663,128.208979848366,2.10351627249359));
#1143=CARTESIAN_POINT('Ctrl Pts',(144.95204962797,124.480793330015,2.10351627249359));
#1144=CARTESIAN_POINT('Ctrl Pts',(138.463453436564,119.995107021472,2.10351627249359));
#1145=CARTESIAN_POINT('',(161.7017515666,129.935340881488,2.10351627249359));
#1146=CARTESIAN_POINT('Ctrl Pts',(148.729896037429,134.105975193581,2.10351627249359));
#1147=CARTESIAN_POINT('Ctrl Pts',(148.729896037429,134.105975193581,4.50351627249359));
#1148=CARTESIAN_POINT('Ctrl Pts',(152.79564448294,132.287237349761,2.10351627249359));
#1149=CARTESIAN_POINT('Ctrl Pts',(152.79564448294,132.287237349761,4.50351627249359));
#1150=CARTESIAN_POINT('Ctrl Pts',(157.166378353465,130.837777304994,2.10351627249359));
#1151=CARTESIAN_POINT('Ctrl Pts',(157.166378353465,130.837777304994,4.50351627249359));
#1152=CARTESIAN_POINT('Ctrl Pts',(161.7017515666,129.935340881488,2.10351627249359));
#1153=CARTESIAN_POINT('Ctrl Pts',(161.7017515666,129.935340881488,4.50351627249359));
#1154=CARTESIAN_POINT('Ctrl Pts',(148.729896037429,134.105975193581,2.10351627249359));
#1155=CARTESIAN_POINT('Ctrl Pts',(152.79564448294,132.287237349761,2.10351627249359));
#1156=CARTESIAN_POINT('Ctrl Pts',(157.166378353465,130.837777304994,2.10351627249359));
#1157=CARTESIAN_POINT('Ctrl Pts',(161.7017515666,129.935340881488,2.10351627249359));
#1158=CARTESIAN_POINT('Ctrl Pts',(184.081349069295,153.988955026874,2.10351627249359));
#1159=CARTESIAN_POINT('Ctrl Pts',(184.081349069295,153.988955026874,4.50351627249359));
#1160=CARTESIAN_POINT('Ctrl Pts',(178.148285292023,147.154639179403,2.10351627249359));
#1161=CARTESIAN_POINT('Ctrl Pts',(178.148285292023,147.154639179403,4.50351627249359));
#1162=CARTESIAN_POINT('Ctrl Pts',(167.586599145858,142.771761305872,2.10351627249359));
#1163=CARTESIAN_POINT('Ctrl Pts',(167.586599145858,142.771761305872,4.50351627249359));
#1164=CARTESIAN_POINT('Ctrl Pts',(157.792019249754,144.242815262003,2.10351627249359));
#1165=CARTESIAN_POINT('Ctrl Pts',(157.792019249754,144.242815262003,4.50351627249359));
#1166=CARTESIAN_POINT('',(184.081349069295,153.988955026874,2.10351627249359));
#1167=CARTESIAN_POINT('Ctrl Pts',(184.081349069295,153.988955026874,2.10351627249359));
#1168=CARTESIAN_POINT('Ctrl Pts',(178.148285292023,147.154639179403,2.10351627249359));
#1169=CARTESIAN_POINT('Ctrl Pts',(167.586599145858,142.771761305872,2.10351627249359));
#1170=CARTESIAN_POINT('Ctrl Pts',(157.792019249754,144.242815262003,2.10351627249359));
#1171=CARTESIAN_POINT('',(184.081349069295,153.988955026874,2.10351627249359));
#1172=CARTESIAN_POINT('Ctrl Pts',(170.245528352132,129.935327154935,2.10351627249359));
#1173=CARTESIAN_POINT('Ctrl Pts',(170.245528352132,129.935327154935,4.50351627249359));
#1174=CARTESIAN_POINT('Ctrl Pts',(177.900726359576,131.413257518213,2.10351627249359));
#1175=CARTESIAN_POINT('Ctrl Pts',(177.900726359576,131.413257518213,4.50351627249359));
#1176=CARTESIAN_POINT('Ctrl Pts',(184.348602511646,133.683681460512,2.10351627249359));
#1177=CARTESIAN_POINT('Ctrl Pts',(184.348602511646,133.683681460512,4.50351627249359));
#1178=CARTESIAN_POINT('Ctrl Pts',(189.641871528866,136.415586028547,2.10351627249359));
#1179=CARTESIAN_POINT('Ctrl Pts',(189.641871528866,136.415586028547,4.50351627249359));
#1180=CARTESIAN_POINT('',(170.245528352132,129.935327154935,2.10351627249359));
#1181=CARTESIAN_POINT('',(189.641871528866,136.415586028547,2.10351627249359));
#1182=CARTESIAN_POINT('Ctrl Pts',(170.245528352132,129.935327154935,2.10351627249359));
#1183=CARTESIAN_POINT('Ctrl Pts',(177.900726359576,131.413257518213,2.10351627249359));
#1184=CARTESIAN_POINT('Ctrl Pts',(184.348602511646,133.683681460512,2.10351627249359));
#1185=CARTESIAN_POINT('Ctrl Pts',(189.641871528866,136.415586028547,2.10351627249359));
#1186=CARTESIAN_POINT('',(170.245528352132,129.935327154935,2.10351627249359));
#1187=CARTESIAN_POINT('',(189.641871528866,136.415586028547,2.10351627249359));
#1188=CARTESIAN_POINT('Ctrl Pts',(182.303142303153,126.648287625978,2.10351627249359));
#1189=CARTESIAN_POINT('Ctrl Pts',(182.303142303153,126.648287625978,4.50351627249359));
#1190=CARTESIAN_POINT('Ctrl Pts',(178.679297754505,127.965500467219,2.10351627249359));
#1191=CARTESIAN_POINT('Ctrl Pts',(178.679297754505,127.965500467219,4.50351627249359));
#1192=CARTESIAN_POINT('Ctrl Pts',(174.663470715805,129.082388908774,2.10351627249359));
#1193=CARTESIAN_POINT('Ctrl Pts',(174.663470715805,129.082388908774,4.50351627249359));
#1194=CARTESIAN_POINT('Ctrl Pts',(170.245528352132,129.935327154935,2.10351627249359));
#1195=CARTESIAN_POINT('Ctrl Pts',(170.245528352132,129.935327154935,4.50351627249359));
#1196=CARTESIAN_POINT('Origin',(108.531882995602,60.2114441890009,2.10351627249359));
#1197=CARTESIAN_POINT('Ctrl Pts',(146.951170982391,110.993494809609,2.10351627249359));
#1198=CARTESIAN_POINT('Ctrl Pts',(146.951170982391,110.993494809609,4.50351627249359));
#1199=CARTESIAN_POINT('Ctrl Pts',(154.070545011074,116.597876857388,2.10351627249359));
#1200=CARTESIAN_POINT('Ctrl Pts',(154.070545011074,116.597876857388,4.50351627249359));
#1201=CARTESIAN_POINT('Ctrl Pts',(163.278448687078,116.99419483594,2.10351627249359));
#1202=CARTESIAN_POINT('Ctrl Pts',(163.278448687078,116.99419483594,4.50351627249359));
#1203=CARTESIAN_POINT('Ctrl Pts',(171.247017406699,114.280968485931,2.10351627249359));
#1204=CARTESIAN_POINT('Ctrl Pts',(171.247017406699,114.280968485931,4.50351627249359));
#1205=CARTESIAN_POINT('Ctrl Pts',(142.727318659495,112.19237188989,2.10351627249359));
#1206=CARTESIAN_POINT('Ctrl Pts',(142.727318659495,112.19237188989,4.50351627249359));
#1207=CARTESIAN_POINT('Ctrl Pts',(143.664897089671,109.883112812182,2.10351627249359));
#1208=CARTESIAN_POINT('Ctrl Pts',(143.664897089671,109.883112812182,4.50351627249359));
#1209=CARTESIAN_POINT('Ctrl Pts',(145.889984948507,109.751530081571,2.10351627249359));
#1210=CARTESIAN_POINT('Ctrl Pts',(145.889984948507,109.751530081571,4.50351627249359));
#1211=CARTESIAN_POINT('Ctrl Pts',(146.951170982391,110.993494809609,2.10351627249359));
#1212=CARTESIAN_POINT('Ctrl Pts',(146.951170982391,110.993494809609,4.50351627249359));
#1213=CARTESIAN_POINT('',(142.727318659495,112.19237188989,2.10351627249359));
#1214=CARTESIAN_POINT('Ctrl Pts',(142.727318659495,112.19237188989,2.10351627249359));
#1215=CARTESIAN_POINT('Ctrl Pts',(142.769128882936,112.089393157749,2.10351627249359));
#1216=CARTESIAN_POINT('Ctrl Pts',(142.813499461346,111.990744975995,2.10351627249359));
#1217=CARTESIAN_POINT('Ctrl Pts',(142.860213004095,111.89635603465,2.10351627249359));
#1218=CARTESIAN_POINT('',(142.727318659495,112.19237188989,2.10351627249359));
#1219=CARTESIAN_POINT('Ctrl Pts',(124.619017477702,92.016124420306,2.10351627249359));
#1220=CARTESIAN_POINT('Ctrl Pts',(124.619017477702,92.016124420306,4.50351627249359));
#1221=CARTESIAN_POINT('Ctrl Pts',(125.101931315135,95.7326433691789,2.10351627249359));
#1222=CARTESIAN_POINT('Ctrl Pts',(125.101931315135,95.7326433691789,4.50351627249359));
#1223=CARTESIAN_POINT('Ctrl Pts',(137.952715877564,109.821535498441,2.10351627249359));
#1224=CARTESIAN_POINT('Ctrl Pts',(137.952715877564,109.821535498441,4.50351627249359));
#1225=CARTESIAN_POINT('Ctrl Pts',(142.727318659495,112.19237188989,2.10351627249359));
#1226=CARTESIAN_POINT('Ctrl Pts',(142.727318659495,112.19237188989,4.50351627249359));
#1227=CARTESIAN_POINT('Ctrl Pts',(142.601125571234,112.127974786007,2.10351627249359));
#1228=CARTESIAN_POINT('Ctrl Pts',(142.643789968304,112.150314406575,2.10351627249359));
#1229=CARTESIAN_POINT('Ctrl Pts',(142.685858792936,112.171784929066,2.10351627249359));
#1230=CARTESIAN_POINT('Ctrl Pts',(142.727318659495,112.19237188989,2.10351627249359));
#1231=CARTESIAN_POINT('Ctrl Pts',(148.730942030619,98.8457979839453,2.10351627249359));
#1232=CARTESIAN_POINT('Ctrl Pts',(148.730942030619,98.8457979839453,4.50351627249359));
#1233=CARTESIAN_POINT('Ctrl Pts',(149.09070124057,99.6574627496212,2.10351627249359));
#1234=CARTESIAN_POINT('Ctrl Pts',(149.09070124057,99.6574627496212,4.50351627249359));
#1235=CARTESIAN_POINT('Ctrl Pts',(149.084318393738,100.727269058368,2.10351627249359));
#1236=CARTESIAN_POINT('Ctrl Pts',(149.084318393738,100.727269058368,4.50351627249359));
#1237=CARTESIAN_POINT('Ctrl Pts',(148.574582873057,101.508570690295,2.10351627249359));
#1238=CARTESIAN_POINT('Ctrl Pts',(148.574582873057,101.508570690295,4.50351627249359));
#1239=CARTESIAN_POINT('',(148.730942030619,98.8457979839453,2.10351627249359));
#1240=CARTESIAN_POINT('Ctrl Pts',(155.626149458517,96.8075534363116,2.10351627249359));
#1241=CARTESIAN_POINT('Ctrl Pts',(155.626149458517,96.8075534363116,4.50351627249359));
#1242=CARTESIAN_POINT('Ctrl Pts',(152.97942928128,98.5718096560613,2.10351627249359));
#1243=CARTESIAN_POINT('Ctrl Pts',(152.97942928128,98.5718096560613,4.50351627249359));
#1244=CARTESIAN_POINT('Ctrl Pts',(150.132650189657,98.9107548645778,2.10351627249359));
#1245=CARTESIAN_POINT('Ctrl Pts',(150.132650189657,98.9107548645778,4.50351627249359));
#1246=CARTESIAN_POINT('Ctrl Pts',(148.730942030619,98.8457979839453,2.10351627249359));
#1247=CARTESIAN_POINT('Ctrl Pts',(148.730942030619,98.8457979839453,4.50351627249359));
#1248=CARTESIAN_POINT('Origin',(175.578113255177,141.631973976087,80.1035162724936));
#1249=CARTESIAN_POINT('Origin',(175.578113255177,141.631973976087,2.10351627249359));
#1250=CARTESIAN_POINT('Origin',(175.578113255177,141.631973976087,2.10351627249359));
#1251=CARTESIAN_POINT('Origin',(18.4370497025956,62.6331359959283,2.10351627249359));
#1252=CARTESIAN_POINT('Origin',(18.4370497025956,62.6331359959283,2.10351627249359));
#1253=CARTESIAN_POINT('Origin',(18.4370497025956,62.6331359959283,2.10351627249359));
#1254=CARTESIAN_POINT('Origin',(18.4370497025956,62.6331359959283,2.10351627249359));
#1255=UNCERTAINTY_MEASURE_WITH_UNIT(LENGTH_MEASURE(0.01),#1259,
'DISTANCE_ACCURACY_VALUE',
'Maximum model space distance between geometric entities at asserted c
onnectivities');
#1256=UNCERTAINTY_MEASURE_WITH_UNIT(LENGTH_MEASURE(0.01),#1259,
'DISTANCE_ACCURACY_VALUE',
'Maximum model space distance between geometric entities at asserted c
onnectivities');
#1257=(
GEOMETRIC_REPRESENTATION_CONTEXT(3)
GLOBAL_UNCERTAINTY_ASSIGNED_CONTEXT((#1255))
GLOBAL_UNIT_ASSIGNED_CONTEXT((#1259,#1261,#1262))
REPRESENTATION_CONTEXT('','3D')
);
#1258=(
GEOMETRIC_REPRESENTATION_CONTEXT(3)
GLOBAL_UNCERTAINTY_ASSIGNED_CONTEXT((#1256))
GLOBAL_UNIT_ASSIGNED_CONTEXT((#1259,#1261,#1262))
REPRESENTATION_CONTEXT('','3D')
);
#1259=(
LENGTH_UNIT()
NAMED_UNIT(*)
SI_UNIT(.MILLI.,.METRE.)
);
#1260=(
LENGTH_UNIT()
NAMED_UNIT(*)
SI_UNIT($,.METRE.)
);
#1261=(
NAMED_UNIT(*)
PLANE_ANGLE_UNIT()
SI_UNIT($,.RADIAN.)
);
#1262=(
NAMED_UNIT(*)
SI_UNIT($,.STERADIAN.)
SOLID_ANGLE_UNIT()
);
#1263=SHAPE_DEFINITION_REPRESENTATION(#1264,#1265);
#1264=PRODUCT_DEFINITION_SHAPE('',$,#1267);
#1265=SHAPE_REPRESENTATION('',(#707),#1257);
#1266=PRODUCT_DEFINITION_CONTEXT('part definition',#1271,'design');
#1267=PRODUCT_DEFINITION('FusionComponent','Component51 v3',#1268,#1266);
#1268=PRODUCT_DEFINITION_FORMATION('',$,#1273);
#1269=PRODUCT_RELATED_PRODUCT_CATEGORY('Component51 v3',
'Component51 v3',(#1273));
#1270=APPLICATION_PROTOCOL_DEFINITION('international standard',
'automotive_design',2009,#1271);
#1271=APPLICATION_CONTEXT(
'Core Data for Automotive Mechanical Design Process');
#1272=PRODUCT_CONTEXT('part definition',#1271,'mechanical');
#1273=PRODUCT('FusionComponent','Component51 v3',$,(#1272));
#1274=PRESENTATION_STYLE_ASSIGNMENT((#1276));
#1275=PRESENTATION_STYLE_ASSIGNMENT((#1277));
#1276=SURFACE_STYLE_USAGE(.BOTH.,#1278);
#1277=SURFACE_STYLE_USAGE(.BOTH.,#1279);
#1278=SURFACE_SIDE_STYLE('',(#1280));
#1279=SURFACE_SIDE_STYLE('',(#1281));
#1280=SURFACE_STYLE_FILL_AREA(#1282);
#1281=SURFACE_STYLE_FILL_AREA(#1283);
#1282=FILL_AREA_STYLE('Steel - Satin',(#1284));
#1283=FILL_AREA_STYLE('Opaque(243,203,124)',(#1285));
#1284=FILL_AREA_STYLE_COLOUR('Steel - Satin',#1286);
#1285=FILL_AREA_STYLE_COLOUR('Opaque(243,203,124)',#1287);
#1286=COLOUR_RGB('Steel - Satin',0.627450980392157,0.627450980392157,0.627450980392157);
#1287=COLOUR_RGB('Opaque(243,203,124)',0.952941176470588,0.796078431372549,
0.486274509803922);
ENDSEC;
END-ISO-10303-21;
