ISO-10303-21;
HEADER;
/* Generated by software containing ST-Developer
 * from STEP Tools, Inc. (www.steptools.com) 
 */

FILE_DESCRIPTION(
/* description */ (''),
/* implementation_level */ '2;1');

FILE_NAME(
/* name */ 'orumcekkolu.step',
/* time_stamp */ '2026-08-14T16:04:51+03:00',
/* author */ (''),
/* organization */ (''),
/* preprocessor_version */ 'ST-DEVELOPER v20.1',
/* originating_system */ 'Autodesk Translation Framework v15.8.0.0',
/* authorisation */ '');

FILE_SCHEMA (('AUTOMOTIVE_DESIGN { 1 0 10303 214 3 1 1 }'));
ENDSEC;

DATA;
#10=MECHANICAL_DESIGN_GEOMETRIC_PRESENTATION_REPRESENTATION('',(#13),#1197);
#11=SHAPE_REPRESENTATION_RELATIONSHIP('SRR','None',#1204,#12);
#12=ADVANCED_BREP_SHAPE_REPRESENTATION('',(#14),#1196);
#13=STYLED_ITEM('',(#1214),#14);
#14=MANIFOLD_SOLID_BREP('Body1',#647);
#15=B_SPLINE_SURFACE_WITH_KNOTS('',3,1,((#937,#938),(#939,#940),(#941,#942),
(#943,#944)),.UNSPECIFIED.,.F.,.F.,.F.,(4,4),(2,2),(0.,1.),(0.,0.239999999999999),
 .UNSPECIFIED.);
#16=B_SPLINE_SURFACE_WITH_KNOTS('',3,1,((#953,#954),(#955,#956),(#957,#958),
(#959,#960)),.UNSPECIFIED.,.F.,.F.,.F.,(4,4),(2,2),(-1.,0.),(0.,0.239999999999999),
 .UNSPECIFIED.);
#17=B_SPLINE_SURFACE_WITH_KNOTS('',3,1,((#969,#970),(#971,#972),(#973,#974),
(#975,#976)),.UNSPECIFIED.,.F.,.F.,.F.,(4,4),(2,2),(-1.,0.),(0.,0.239999999999999),
 .UNSPECIFIED.);
#18=B_SPLINE_SURFACE_WITH_KNOTS('',3,1,((#983,#984),(#985,#986),(#987,#988),
(#989,#990)),.UNSPECIFIED.,.F.,.F.,.F.,(4,4),(2,2),(-1.,0.),(0.,0.239999999999999),
 .UNSPECIFIED.);
#19=B_SPLINE_SURFACE_WITH_KNOTS('',3,1,((#997,#998),(#999,#1000),(#1001,
#1002),(#1003,#1004)),.UNSPECIFIED.,.F.,.F.,.F.,(4,4),(2,2),(-1.,0.),(0.,
0.239999999999999),.UNSPECIFIED.);
#20=B_SPLINE_SURFACE_WITH_KNOTS('',3,1,((#1011,#1012),(#1013,#1014),(#1015,
#1016),(#1017,#1018)),.UNSPECIFIED.,.F.,.F.,.F.,(4,4),(2,2),(-1.,0.),(0.,
0.239999999999999),.UNSPECIFIED.);
#21=B_SPLINE_SURFACE_WITH_KNOTS('',3,1,((#1025,#1026),(#1027,#1028),(#1029,
#1030),(#1031,#1032)),.UNSPECIFIED.,.F.,.F.,.F.,(4,4),(2,2),(-1.,0.),(0.,
0.239999999999999),.UNSPECIFIED.);
#22=B_SPLINE_SURFACE_WITH_KNOTS('',3,1,((#1037,#1038),(#1039,#1040),(#1041,
#1042),(#1043,#1044)),.UNSPECIFIED.,.F.,.F.,.F.,(4,4),(2,2),(0.,0.738437431889152),
(0.,0.239999999999999),.UNSPECIFIED.);
#23=B_SPLINE_SURFACE_WITH_KNOTS('',3,1,((#1053,#1054),(#1055,#1056),(#1057,
#1058),(#1059,#1060)),.UNSPECIFIED.,.F.,.F.,.F.,(4,4),(2,2),(0.61418603328809,
1.),(0.,0.239999999999999),.UNSPECIFIED.);
#24=B_SPLINE_SURFACE_WITH_KNOTS('',3,1,((#1067,#1068),(#1069,#1070),(#1071,
#1072),(#1073,#1074)),.UNSPECIFIED.,.F.,.F.,.F.,(4,4),(2,2),(0.,0.111225079249362),
(0.,0.239999999999999),.UNSPECIFIED.);
#25=B_SPLINE_SURFACE_WITH_KNOTS('',3,1,((#1080,#1081),(#1082,#1083),(#1084,
#1085),(#1086,#1087)),.UNSPECIFIED.,.F.,.F.,.F.,(4,4),(2,2),(0.0281695357288772,
1.),(0.,0.239999999999999),.UNSPECIFIED.);
#26=B_SPLINE_SURFACE_WITH_KNOTS('',3,1,((#1094,#1095),(#1096,#1097),(#1098,
#1099),(#1100,#1101)),.UNSPECIFIED.,.F.,.F.,.F.,(4,4),(2,2),(0.844149009808558,
0.994634186709059),(0.,0.239999999999999),.UNSPECIFIED.);
#27=B_SPLINE_SURFACE_WITH_KNOTS('',3,1,((#1110,#1111),(#1112,#1113),(#1114,
#1115),(#1116,#1117)),.UNSPECIFIED.,.F.,.F.,.F.,(4,4),(2,2),(0.,0.084402928271428),
(0.,0.239999999999999),.UNSPECIFIED.);
#28=B_SPLINE_SURFACE_WITH_KNOTS('',3,1,((#1126,#1127),(#1128,#1129),(#1130,
#1131),(#1132,#1133)),.UNSPECIFIED.,.F.,.F.,.F.,(4,4),(2,2),(0.,1.),(0.,
0.239999999999999),.UNSPECIFIED.);
#29=ELLIPSE('',#675,58.8148859096273,29.1384921773177);
#30=ELLIPSE('',#678,58.8148859097333,29.138492177344);
#31=B_SPLINE_CURVE_WITH_KNOTS('',3,(#850,#851,#852,#853),.UNSPECIFIED.,
 .F.,.F.,(4,4),(0.00806202508370015,0.430418691586052),.UNSPECIFIED.);
#32=B_SPLINE_CURVE_WITH_KNOTS('',3,(#863,#864,#865,#866),.UNSPECIFIED.,
 .F.,.F.,(4,4),(0.560704287602182,1.),.UNSPECIFIED.);
#33=B_SPLINE_CURVE_WITH_KNOTS('',3,(#868,#869,#870,#871),.UNSPECIFIED.,
 .F.,.F.,(4,4),(0.,0.084402928271428),.UNSPECIFIED.);
#34=B_SPLINE_CURVE_WITH_KNOTS('',3,(#877,#878,#879,#880),.UNSPECIFIED.,
 .F.,.F.,(4,4),(-1.02997211721628,0.),.UNSPECIFIED.);
#35=B_SPLINE_CURVE_WITH_KNOTS('',3,(#886,#887,#888,#889),.UNSPECIFIED.,
 .F.,.F.,(4,4),(0.0281695357288767,1.),.UNSPECIFIED.);
#36=B_SPLINE_CURVE_WITH_KNOTS('',3,(#899,#900,#901,#902),.UNSPECIFIED.,
 .F.,.F.,(4,4),(0.614186033288048,1.),.UNSPECIFIED.);
#37=B_SPLINE_CURVE_WITH_KNOTS('',3,(#903,#904,#905,#906),.UNSPECIFIED.,
 .F.,.F.,(4,4),(0.,0.358705524528665),.UNSPECIFIED.);
#38=B_SPLINE_CURVE_WITH_KNOTS('',3,(#909,#910,#911,#912),.UNSPECIFIED.,
 .F.,.F.,(4,4),(-1.,0.),.UNSPECIFIED.);
#39=B_SPLINE_CURVE_WITH_KNOTS('',3,(#914,#915,#916,#917),.UNSPECIFIED.,
 .F.,.F.,(4,4),(-1.,0.),.UNSPECIFIED.);
#40=B_SPLINE_CURVE_WITH_KNOTS('',3,(#919,#920,#921,#922),.UNSPECIFIED.,
 .F.,.F.,(4,4),(-1.,0.),.UNSPECIFIED.);
#41=B_SPLINE_CURVE_WITH_KNOTS('',3,(#924,#925,#926,#927),.UNSPECIFIED.,
 .F.,.F.,(4,4),(-1.,0.),.UNSPECIFIED.);
#42=B_SPLINE_CURVE_WITH_KNOTS('',3,(#929,#930,#931,#932),.UNSPECIFIED.,
 .F.,.F.,(4,4),(-1.,0.),.UNSPECIFIED.);
#43=B_SPLINE_CURVE_WITH_KNOTS('',3,(#933,#934,#935,#936),.UNSPECIFIED.,
 .F.,.F.,(4,4),(-1.,0.),.UNSPECIFIED.);
#44=B_SPLINE_CURVE_WITH_KNOTS('',3,(#949,#950,#951,#952),.UNSPECIFIED.,
 .F.,.F.,(4,4),(-0.430418691586071,-0.00806202508370167),.UNSPECIFIED.);
#45=B_SPLINE_CURVE_WITH_KNOTS('',3,(#964,#965,#966,#967),.UNSPECIFIED.,
 .F.,.F.,(4,4),(0.,1.),.UNSPECIFIED.);
#46=B_SPLINE_CURVE_WITH_KNOTS('',3,(#979,#980,#981,#982),.UNSPECIFIED.,
 .F.,.F.,(4,4),(0.,1.),.UNSPECIFIED.);
#47=B_SPLINE_CURVE_WITH_KNOTS('',3,(#993,#994,#995,#996),.UNSPECIFIED.,
 .F.,.F.,(4,4),(0.,1.),.UNSPECIFIED.);
#48=B_SPLINE_CURVE_WITH_KNOTS('',3,(#1007,#1008,#1009,#1010),
 .UNSPECIFIED.,.F.,.F.,(4,4),(0.,1.),.UNSPECIFIED.);
#49=B_SPLINE_CURVE_WITH_KNOTS('',3,(#1021,#1022,#1023,#1024),
 .UNSPECIFIED.,.F.,.F.,(4,4),(0.,1.),.UNSPECIFIED.);
#50=B_SPLINE_CURVE_WITH_KNOTS('',3,(#1033,#1034,#1035,#1036),
 .UNSPECIFIED.,.F.,.F.,(4,4),(0.,1.),.UNSPECIFIED.);
#51=B_SPLINE_CURVE_WITH_KNOTS('',3,(#1049,#1050,#1051,#1052),
 .UNSPECIFIED.,.F.,.F.,(4,4),(-0.358705524528665,0.),.UNSPECIFIED.);
#52=B_SPLINE_CURVE_WITH_KNOTS('',3,(#1063,#1064,#1065,#1066),
 .UNSPECIFIED.,.F.,.F.,(4,4),(-1.,-0.61418603328809),.UNSPECIFIED.);
#53=B_SPLINE_CURVE_WITH_KNOTS('',3,(#1090,#1091,#1092,#1093),
 .UNSPECIFIED.,.F.,.F.,(4,4),(-1.,-0.0281695357288772),.UNSPECIFIED.);
#54=B_SPLINE_CURVE_WITH_KNOTS('',3,(#1105,#1106,#1107,#1108),
 .UNSPECIFIED.,.F.,.F.,(4,4),(-1.02925546804568,0.),.UNSPECIFIED.);
#55=B_SPLINE_CURVE_WITH_KNOTS('',3,(#1121,#1122,#1123,#1124),
 .UNSPECIFIED.,.F.,.F.,(4,4),(-0.084402928271428,0.),.UNSPECIFIED.);
#56=B_SPLINE_CURVE_WITH_KNOTS('',3,(#1136,#1137,#1138,#1139),
 .UNSPECIFIED.,.F.,.F.,(4,4),(-1.,-0.56070428760416),.UNSPECIFIED.);
#57=LINE('',#841,#107);
#58=LINE('',#843,#108);
#59=LINE('',#847,#109);
#60=LINE('',#849,#110);
#61=LINE('',#857,#111);
#62=LINE('',#859,#112);
#63=LINE('',#861,#113);
#64=LINE('',#873,#114);
#65=LINE('',#895,#115);
#66=LINE('',#946,#116);
#67=LINE('',#948,#117);
#68=LINE('',#962,#118);
#69=LINE('',#968,#119);
#70=LINE('',#978,#120);
#71=LINE('',#992,#121);
#72=LINE('',#1006,#122);
#73=LINE('',#1020,#123);
#74=LINE('',#1046,#124);
#75=LINE('',#1048,#125);
#76=LINE('',#1062,#126);
#77=LINE('',#1076,#127);
#78=LINE('',#1079,#128);
#79=LINE('',#1089,#129);
#80=LINE('',#1103,#130);
#81=LINE('',#1109,#131);
#82=LINE('',#1119,#132);
#83=LINE('',#1125,#133);
#84=LINE('',#1135,#134);
#85=LINE('',#1141,#135);
#86=LINE('',#1145,#136);
#87=LINE('',#1147,#137);
#88=LINE('',#1149,#138);
#89=LINE('',#1150,#139);
#90=LINE('',#1153,#140);
#91=LINE('',#1155,#141);
#92=LINE('',#1157,#142);
#93=LINE('',#1158,#143);
#94=LINE('',#1160,#144);
#95=LINE('',#1161,#145);
#96=LINE('',#1165,#146);
#97=LINE('',#1170,#147);
#98=LINE('',#1172,#148);
#99=LINE('',#1173,#149);
#100=LINE('',#1176,#150);
#101=LINE('',#1177,#151);
#102=LINE('',#1179,#152);
#103=LINE('',#1181,#153);
#104=LINE('',#1184,#154);
#105=LINE('',#1188,#155);
#106=LINE('',#1192,#156);
#107=VECTOR('',#717,2.7);
#108=VECTOR('',#720,1.49999999999999);
#109=VECTOR('',#723,10.);
#110=VECTOR('',#724,10.);
#111=VECTOR('',#727,10.);
#112=VECTOR('',#728,10.);
#113=VECTOR('',#729,10.);
#114=VECTOR('',#730,10.);
#115=VECTOR('',#741,10.);
#116=VECTOR('',#744,10.);
#117=VECTOR('',#745,10.);
#118=VECTOR('',#746,10.);
#119=VECTOR('',#747,10.);
#120=VECTOR('',#748,10.);
#121=VECTOR('',#749,10.);
#122=VECTOR('',#750,10.);
#123=VECTOR('',#751,10.);
#124=VECTOR('',#752,10.);
#125=VECTOR('',#753,10.);
#126=VECTOR('',#754,10.);
#127=VECTOR('',#755,10.);
#128=VECTOR('',#758,10.);
#129=VECTOR('',#759,10.);
#130=VECTOR('',#760,10.);
#131=VECTOR('',#761,10.);
#132=VECTOR('',#762,10.);
#133=VECTOR('',#763,10.);
#134=VECTOR('',#764,10.);
#135=VECTOR('',#767,5.04999999999999);
#136=VECTOR('',#772,10.);
#137=VECTOR('',#773,10.);
#138=VECTOR('',#774,10.);
#139=VECTOR('',#775,10.);
#140=VECTOR('',#778,10.);
#141=VECTOR('',#779,10.);
#142=VECTOR('',#780,10.);
#143=VECTOR('',#781,10.);
#144=VECTOR('',#784,10.);
#145=VECTOR('',#785,10.);
#146=VECTOR('',#790,10.);
#147=VECTOR('',#797,10.);
#148=VECTOR('',#798,10.);
#149=VECTOR('',#799,10.);
#150=VECTOR('',#802,10.);
#151=VECTOR('',#803,10.);
#152=VECTOR('',#806,10.);
#153=VECTOR('',#809,10.);
#154=VECTOR('',#812,10.);
#155=VECTOR('',#817,10.);
#156=VECTOR('',#824,10.);
#157=CYLINDRICAL_SURFACE('',#667,2.7);
#158=CYLINDRICAL_SURFACE('',#669,1.49999999999999);
#159=CYLINDRICAL_SURFACE('',#679,5.04999999999999);
#160=CYLINDRICAL_SURFACE('',#692,35.);
#161=CYLINDRICAL_SURFACE('',#697,15.);
#162=FACE_BOUND('',#202,.T.);
#163=FACE_BOUND('',#204,.T.);
#164=FACE_BOUND('',#209,.T.);
#165=FACE_BOUND('',#236,.T.);
#166=FACE_OUTER_BOUND('',#201,.T.);
#167=FACE_OUTER_BOUND('',#203,.T.);
#168=FACE_OUTER_BOUND('',#205,.T.);
#169=FACE_OUTER_BOUND('',#206,.T.);
#170=FACE_OUTER_BOUND('',#207,.T.);
#171=FACE_OUTER_BOUND('',#208,.T.);
#172=FACE_OUTER_BOUND('',#210,.T.);
#173=FACE_OUTER_BOUND('',#211,.T.);
#174=FACE_OUTER_BOUND('',#212,.T.);
#175=FACE_OUTER_BOUND('',#213,.T.);
#176=FACE_OUTER_BOUND('',#214,.T.);
#177=FACE_OUTER_BOUND('',#215,.T.);
#178=FACE_OUTER_BOUND('',#216,.T.);
#179=FACE_OUTER_BOUND('',#217,.T.);
#180=FACE_OUTER_BOUND('',#218,.T.);
#181=FACE_OUTER_BOUND('',#219,.T.);
#182=FACE_OUTER_BOUND('',#220,.T.);
#183=FACE_OUTER_BOUND('',#221,.T.);
#184=FACE_OUTER_BOUND('',#222,.T.);
#185=FACE_OUTER_BOUND('',#223,.T.);
#186=FACE_OUTER_BOUND('',#224,.T.);
#187=FACE_OUTER_BOUND('',#225,.T.);
#188=FACE_OUTER_BOUND('',#226,.T.);
#189=FACE_OUTER_BOUND('',#227,.T.);
#190=FACE_OUTER_BOUND('',#228,.T.);
#191=FACE_OUTER_BOUND('',#229,.T.);
#192=FACE_OUTER_BOUND('',#230,.T.);
#193=FACE_OUTER_BOUND('',#231,.T.);
#194=FACE_OUTER_BOUND('',#232,.T.);
#195=FACE_OUTER_BOUND('',#233,.T.);
#196=FACE_OUTER_BOUND('',#234,.T.);
#197=FACE_OUTER_BOUND('',#235,.T.);
#198=FACE_OUTER_BOUND('',#237,.T.);
#199=FACE_OUTER_BOUND('',#238,.T.);
#200=FACE_OUTER_BOUND('',#239,.T.);
#201=EDGE_LOOP('',(#410));
#202=EDGE_LOOP('',(#411));
#203=EDGE_LOOP('',(#412));
#204=EDGE_LOOP('',(#413));
#205=EDGE_LOOP('',(#414,#415,#416,#417));
#206=EDGE_LOOP('',(#418,#419,#420,#421));
#207=EDGE_LOOP('',(#422,#423,#424));
#208=EDGE_LOOP('',(#425,#426,#427,#428,#429,#430,#431,#432,#433,#434,#435,
#436,#437,#438,#439,#440,#441));
#209=EDGE_LOOP('',(#442,#443,#444,#445,#446,#447));
#210=EDGE_LOOP('',(#448,#449,#450,#451));
#211=EDGE_LOOP('',(#452,#453,#454,#455));
#212=EDGE_LOOP('',(#456,#457,#458,#459));
#213=EDGE_LOOP('',(#460,#461,#462,#463));
#214=EDGE_LOOP('',(#464,#465,#466,#467));
#215=EDGE_LOOP('',(#468,#469,#470,#471));
#216=EDGE_LOOP('',(#472,#473,#474,#475));
#217=EDGE_LOOP('',(#476,#477,#478,#479));
#218=EDGE_LOOP('',(#480,#481,#482,#483));
#219=EDGE_LOOP('',(#484,#485,#486,#487));
#220=EDGE_LOOP('',(#488,#489,#490,#491));
#221=EDGE_LOOP('',(#492,#493,#494,#495));
#222=EDGE_LOOP('',(#496,#497,#498,#499));
#223=EDGE_LOOP('',(#500,#501,#502,#503));
#224=EDGE_LOOP('',(#504,#505,#506,#507,#508,#509,#510,#511));
#225=EDGE_LOOP('',(#512,#513,#514,#515,#516,#517));
#226=EDGE_LOOP('',(#518,#519,#520,#521,#522,#523));
#227=EDGE_LOOP('',(#524,#525,#526,#527,#528,#529,#530));
#228=EDGE_LOOP('',(#531,#532,#533,#534));
#229=EDGE_LOOP('',(#535,#536,#537,#538,#539));
#230=EDGE_LOOP('',(#540,#541,#542,#543,#544,#545));
#231=EDGE_LOOP('',(#546,#547,#548,#549));
#232=EDGE_LOOP('',(#550,#551,#552,#553,#554,#555));
#233=EDGE_LOOP('',(#556,#557,#558,#559,#560,#561));
#234=EDGE_LOOP('',(#562,#563,#564,#565,#566,#567));
#235=EDGE_LOOP('',(#568,#569,#570,#571,#572,#573,#574,#575,#576));
#236=EDGE_LOOP('',(#577));
#237=EDGE_LOOP('',(#578,#579,#580,#581,#582,#583));
#238=EDGE_LOOP('',(#584,#585,#586,#587,#588,#589,#590,#591));
#239=EDGE_LOOP('',(#592,#593,#594,#595));
#240=CIRCLE('',#662,5.04999999999999);
#241=CIRCLE('',#663,1.49999999999999);
#242=CIRCLE('',#665,2.7);
#243=CIRCLE('',#666,1.49999999999999);
#244=CIRCLE('',#668,2.7);
#245=CIRCLE('',#672,15.);
#246=CIRCLE('',#673,5.04999999999999);
#247=CIRCLE('',#674,5.04999999999999);
#248=CIRCLE('',#676,15.);
#249=CIRCLE('',#677,35.);
#250=CIRCLE('',#680,5.04999999999999);
#251=CIRCLE('',#685,35.);
#252=CIRCLE('',#687,15.);
#253=CIRCLE('',#693,35.);
#254=CIRCLE('',#695,15.);
#255=VERTEX_POINT('',#829);
#256=VERTEX_POINT('',#831);
#257=VERTEX_POINT('',#834);
#258=VERTEX_POINT('',#836);
#259=VERTEX_POINT('',#839);
#260=VERTEX_POINT('',#845);
#261=VERTEX_POINT('',#846);
#262=VERTEX_POINT('',#848);
#263=VERTEX_POINT('',#855);
#264=VERTEX_POINT('',#856);
#265=VERTEX_POINT('',#858);
#266=VERTEX_POINT('',#860);
#267=VERTEX_POINT('',#862);
#268=VERTEX_POINT('',#867);
#269=VERTEX_POINT('',#872);
#270=VERTEX_POINT('',#874);
#271=VERTEX_POINT('',#876);
#272=VERTEX_POINT('',#881);
#273=VERTEX_POINT('',#883);
#274=VERTEX_POINT('',#885);
#275=VERTEX_POINT('',#890);
#276=VERTEX_POINT('',#892);
#277=VERTEX_POINT('',#894);
#278=VERTEX_POINT('',#896);
#279=VERTEX_POINT('',#898);
#280=VERTEX_POINT('',#907);
#281=VERTEX_POINT('',#908);
#282=VERTEX_POINT('',#913);
#283=VERTEX_POINT('',#918);
#284=VERTEX_POINT('',#923);
#285=VERTEX_POINT('',#928);
#286=VERTEX_POINT('',#945);
#287=VERTEX_POINT('',#947);
#288=VERTEX_POINT('',#961);
#289=VERTEX_POINT('',#963);
#290=VERTEX_POINT('',#977);
#291=VERTEX_POINT('',#991);
#292=VERTEX_POINT('',#1005);
#293=VERTEX_POINT('',#1019);
#294=VERTEX_POINT('',#1045);
#295=VERTEX_POINT('',#1047);
#296=VERTEX_POINT('',#1061);
#297=VERTEX_POINT('',#1075);
#298=VERTEX_POINT('',#1077);
#299=VERTEX_POINT('',#1088);
#300=VERTEX_POINT('',#1102);
#301=VERTEX_POINT('',#1104);
#302=VERTEX_POINT('',#1118);
#303=VERTEX_POINT('',#1120);
#304=VERTEX_POINT('',#1134);
#305=VERTEX_POINT('',#1144);
#306=VERTEX_POINT('',#1146);
#307=VERTEX_POINT('',#1148);
#308=VERTEX_POINT('',#1152);
#309=VERTEX_POINT('',#1154);
#310=VERTEX_POINT('',#1156);
#311=VERTEX_POINT('',#1163);
#312=VERTEX_POINT('',#1169);
#313=VERTEX_POINT('',#1171);
#314=VERTEX_POINT('',#1175);
#315=VERTEX_POINT('',#1183);
#316=VERTEX_POINT('',#1187);
#317=EDGE_CURVE('',#255,#255,#240,.T.);
#318=EDGE_CURVE('',#256,#256,#241,.T.);
#319=EDGE_CURVE('',#257,#257,#242,.T.);
#320=EDGE_CURVE('',#258,#258,#243,.T.);
#321=EDGE_CURVE('',#259,#259,#244,.T.);
#322=EDGE_CURVE('',#259,#257,#57,.T.);
#323=EDGE_CURVE('',#258,#256,#58,.T.);
#324=EDGE_CURVE('',#260,#261,#59,.T.);
#325=EDGE_CURVE('',#262,#260,#60,.T.);
#326=EDGE_CURVE('',#262,#261,#31,.T.);
#327=EDGE_CURVE('',#263,#264,#61,.T.);
#328=EDGE_CURVE('',#265,#263,#62,.T.);
#329=EDGE_CURVE('',#266,#265,#63,.T.);
#330=EDGE_CURVE('',#266,#267,#32,.T.);
#331=EDGE_CURVE('',#267,#268,#33,.T.);
#332=EDGE_CURVE('',#269,#268,#64,.T.);
#333=EDGE_CURVE('',#270,#269,#245,.T.);
#334=EDGE_CURVE('',#270,#271,#34,.T.);
#335=EDGE_CURVE('',#272,#271,#246,.T.);
#336=EDGE_CURVE('',#273,#272,#247,.T.);
#337=EDGE_CURVE('',#273,#274,#35,.T.);
#338=EDGE_CURVE('',#274,#275,#29,.T.);
#339=EDGE_CURVE('',#276,#275,#248,.T.);
#340=EDGE_CURVE('',#277,#276,#65,.T.);
#341=EDGE_CURVE('',#278,#277,#249,.T.);
#342=EDGE_CURVE('',#278,#279,#36,.T.);
#343=EDGE_CURVE('',#279,#264,#37,.T.);
#344=EDGE_CURVE('',#280,#281,#38,.T.);
#345=EDGE_CURVE('',#281,#282,#39,.T.);
#346=EDGE_CURVE('',#282,#283,#40,.T.);
#347=EDGE_CURVE('',#283,#284,#41,.T.);
#348=EDGE_CURVE('',#284,#285,#42,.T.);
#349=EDGE_CURVE('',#285,#280,#43,.T.);
#350=EDGE_CURVE('',#261,#286,#66,.T.);
#351=EDGE_CURVE('',#287,#262,#67,.T.);
#352=EDGE_CURVE('',#286,#287,#44,.T.);
#353=EDGE_CURVE('',#285,#288,#68,.T.);
#354=EDGE_CURVE('',#289,#288,#45,.T.);
#355=EDGE_CURVE('',#280,#289,#69,.T.);
#356=EDGE_CURVE('',#284,#290,#70,.T.);
#357=EDGE_CURVE('',#288,#290,#46,.T.);
#358=EDGE_CURVE('',#283,#291,#71,.T.);
#359=EDGE_CURVE('',#290,#291,#47,.T.);
#360=EDGE_CURVE('',#282,#292,#72,.T.);
#361=EDGE_CURVE('',#291,#292,#48,.T.);
#362=EDGE_CURVE('',#281,#293,#73,.T.);
#363=EDGE_CURVE('',#292,#293,#49,.T.);
#364=EDGE_CURVE('',#293,#289,#50,.T.);
#365=EDGE_CURVE('',#264,#294,#74,.T.);
#366=EDGE_CURVE('',#279,#295,#75,.T.);
#367=EDGE_CURVE('',#294,#295,#51,.T.);
#368=EDGE_CURVE('',#296,#278,#76,.T.);
#369=EDGE_CURVE('',#295,#296,#52,.T.);
#370=EDGE_CURVE('',#274,#297,#77,.T.);
#371=EDGE_CURVE('',#298,#297,#30,.T.);
#372=EDGE_CURVE('',#275,#298,#78,.T.);
#373=EDGE_CURVE('',#299,#273,#79,.T.);
#374=EDGE_CURVE('',#297,#299,#53,.T.);
#375=EDGE_CURVE('',#300,#270,#80,.T.);
#376=EDGE_CURVE('',#301,#300,#54,.T.);
#377=EDGE_CURVE('',#271,#301,#81,.T.);
#378=EDGE_CURVE('',#267,#302,#82,.T.);
#379=EDGE_CURVE('',#303,#302,#55,.T.);
#380=EDGE_CURVE('',#268,#303,#83,.T.);
#381=EDGE_CURVE('',#304,#266,#84,.T.);
#382=EDGE_CURVE('',#302,#304,#56,.T.);
#383=EDGE_CURVE('',#272,#255,#85,.T.);
#384=EDGE_CURVE('',#299,#301,#250,.T.);
#385=EDGE_CURVE('',#305,#303,#86,.T.);
#386=EDGE_CURVE('',#305,#306,#87,.T.);
#387=EDGE_CURVE('',#307,#306,#88,.T.);
#388=EDGE_CURVE('',#269,#307,#89,.T.);
#389=EDGE_CURVE('',#308,#286,#90,.T.);
#390=EDGE_CURVE('',#309,#308,#91,.T.);
#391=EDGE_CURVE('',#310,#309,#92,.T.);
#392=EDGE_CURVE('',#310,#260,#93,.T.);
#393=EDGE_CURVE('',#304,#308,#94,.T.);
#394=EDGE_CURVE('',#287,#305,#95,.T.);
#395=EDGE_CURVE('',#296,#311,#251,.T.);
#396=EDGE_CURVE('',#311,#294,#96,.T.);
#397=EDGE_CURVE('',#298,#300,#252,.T.);
#398=EDGE_CURVE('',#312,#311,#97,.T.);
#399=EDGE_CURVE('',#313,#312,#98,.T.);
#400=EDGE_CURVE('',#313,#263,#99,.T.);
#401=EDGE_CURVE('',#314,#313,#100,.T.);
#402=EDGE_CURVE('',#314,#265,#101,.T.);
#403=EDGE_CURVE('',#309,#314,#102,.T.);
#404=EDGE_CURVE('',#306,#310,#103,.T.);
#405=EDGE_CURVE('',#277,#315,#104,.T.);
#406=EDGE_CURVE('',#312,#315,#253,.T.);
#407=EDGE_CURVE('',#315,#316,#105,.T.);
#408=EDGE_CURVE('',#316,#307,#254,.T.);
#409=EDGE_CURVE('',#276,#316,#106,.T.);
#410=ORIENTED_EDGE('',*,*,#317,.F.);
#411=ORIENTED_EDGE('',*,*,#318,.T.);
#412=ORIENTED_EDGE('',*,*,#319,.F.);
#413=ORIENTED_EDGE('',*,*,#320,.F.);
#414=ORIENTED_EDGE('',*,*,#321,.F.);
#415=ORIENTED_EDGE('',*,*,#322,.T.);
#416=ORIENTED_EDGE('',*,*,#319,.T.);
#417=ORIENTED_EDGE('',*,*,#322,.F.);
#418=ORIENTED_EDGE('',*,*,#320,.T.);
#419=ORIENTED_EDGE('',*,*,#323,.T.);
#420=ORIENTED_EDGE('',*,*,#318,.F.);
#421=ORIENTED_EDGE('',*,*,#323,.F.);
#422=ORIENTED_EDGE('',*,*,#324,.F.);
#423=ORIENTED_EDGE('',*,*,#325,.F.);
#424=ORIENTED_EDGE('',*,*,#326,.T.);
#425=ORIENTED_EDGE('',*,*,#327,.F.);
#426=ORIENTED_EDGE('',*,*,#328,.F.);
#427=ORIENTED_EDGE('',*,*,#329,.F.);
#428=ORIENTED_EDGE('',*,*,#330,.T.);
#429=ORIENTED_EDGE('',*,*,#331,.T.);
#430=ORIENTED_EDGE('',*,*,#332,.F.);
#431=ORIENTED_EDGE('',*,*,#333,.F.);
#432=ORIENTED_EDGE('',*,*,#334,.T.);
#433=ORIENTED_EDGE('',*,*,#335,.F.);
#434=ORIENTED_EDGE('',*,*,#336,.F.);
#435=ORIENTED_EDGE('',*,*,#337,.T.);
#436=ORIENTED_EDGE('',*,*,#338,.T.);
#437=ORIENTED_EDGE('',*,*,#339,.F.);
#438=ORIENTED_EDGE('',*,*,#340,.F.);
#439=ORIENTED_EDGE('',*,*,#341,.F.);
#440=ORIENTED_EDGE('',*,*,#342,.T.);
#441=ORIENTED_EDGE('',*,*,#343,.T.);
#442=ORIENTED_EDGE('',*,*,#344,.T.);
#443=ORIENTED_EDGE('',*,*,#345,.T.);
#444=ORIENTED_EDGE('',*,*,#346,.T.);
#445=ORIENTED_EDGE('',*,*,#347,.T.);
#446=ORIENTED_EDGE('',*,*,#348,.T.);
#447=ORIENTED_EDGE('',*,*,#349,.T.);
#448=ORIENTED_EDGE('',*,*,#350,.F.);
#449=ORIENTED_EDGE('',*,*,#326,.F.);
#450=ORIENTED_EDGE('',*,*,#351,.F.);
#451=ORIENTED_EDGE('',*,*,#352,.F.);
#452=ORIENTED_EDGE('',*,*,#349,.F.);
#453=ORIENTED_EDGE('',*,*,#353,.T.);
#454=ORIENTED_EDGE('',*,*,#354,.F.);
#455=ORIENTED_EDGE('',*,*,#355,.F.);
#456=ORIENTED_EDGE('',*,*,#348,.F.);
#457=ORIENTED_EDGE('',*,*,#356,.T.);
#458=ORIENTED_EDGE('',*,*,#357,.F.);
#459=ORIENTED_EDGE('',*,*,#353,.F.);
#460=ORIENTED_EDGE('',*,*,#347,.F.);
#461=ORIENTED_EDGE('',*,*,#358,.T.);
#462=ORIENTED_EDGE('',*,*,#359,.F.);
#463=ORIENTED_EDGE('',*,*,#356,.F.);
#464=ORIENTED_EDGE('',*,*,#346,.F.);
#465=ORIENTED_EDGE('',*,*,#360,.T.);
#466=ORIENTED_EDGE('',*,*,#361,.F.);
#467=ORIENTED_EDGE('',*,*,#358,.F.);
#468=ORIENTED_EDGE('',*,*,#345,.F.);
#469=ORIENTED_EDGE('',*,*,#362,.T.);
#470=ORIENTED_EDGE('',*,*,#363,.F.);
#471=ORIENTED_EDGE('',*,*,#360,.F.);
#472=ORIENTED_EDGE('',*,*,#344,.F.);
#473=ORIENTED_EDGE('',*,*,#355,.T.);
#474=ORIENTED_EDGE('',*,*,#364,.F.);
#475=ORIENTED_EDGE('',*,*,#362,.F.);
#476=ORIENTED_EDGE('',*,*,#365,.F.);
#477=ORIENTED_EDGE('',*,*,#343,.F.);
#478=ORIENTED_EDGE('',*,*,#366,.T.);
#479=ORIENTED_EDGE('',*,*,#367,.F.);
#480=ORIENTED_EDGE('',*,*,#342,.F.);
#481=ORIENTED_EDGE('',*,*,#368,.F.);
#482=ORIENTED_EDGE('',*,*,#369,.F.);
#483=ORIENTED_EDGE('',*,*,#366,.F.);
#484=ORIENTED_EDGE('',*,*,#338,.F.);
#485=ORIENTED_EDGE('',*,*,#370,.T.);
#486=ORIENTED_EDGE('',*,*,#371,.F.);
#487=ORIENTED_EDGE('',*,*,#372,.F.);
#488=ORIENTED_EDGE('',*,*,#337,.F.);
#489=ORIENTED_EDGE('',*,*,#373,.F.);
#490=ORIENTED_EDGE('',*,*,#374,.F.);
#491=ORIENTED_EDGE('',*,*,#370,.F.);
#492=ORIENTED_EDGE('',*,*,#334,.F.);
#493=ORIENTED_EDGE('',*,*,#375,.F.);
#494=ORIENTED_EDGE('',*,*,#376,.F.);
#495=ORIENTED_EDGE('',*,*,#377,.F.);
#496=ORIENTED_EDGE('',*,*,#331,.F.);
#497=ORIENTED_EDGE('',*,*,#378,.T.);
#498=ORIENTED_EDGE('',*,*,#379,.F.);
#499=ORIENTED_EDGE('',*,*,#380,.F.);
#500=ORIENTED_EDGE('',*,*,#381,.F.);
#501=ORIENTED_EDGE('',*,*,#382,.F.);
#502=ORIENTED_EDGE('',*,*,#378,.F.);
#503=ORIENTED_EDGE('',*,*,#330,.F.);
#504=ORIENTED_EDGE('',*,*,#336,.T.);
#505=ORIENTED_EDGE('',*,*,#383,.T.);
#506=ORIENTED_EDGE('',*,*,#317,.T.);
#507=ORIENTED_EDGE('',*,*,#383,.F.);
#508=ORIENTED_EDGE('',*,*,#335,.T.);
#509=ORIENTED_EDGE('',*,*,#377,.T.);
#510=ORIENTED_EDGE('',*,*,#384,.F.);
#511=ORIENTED_EDGE('',*,*,#373,.T.);
#512=ORIENTED_EDGE('',*,*,#332,.T.);
#513=ORIENTED_EDGE('',*,*,#380,.T.);
#514=ORIENTED_EDGE('',*,*,#385,.F.);
#515=ORIENTED_EDGE('',*,*,#386,.T.);
#516=ORIENTED_EDGE('',*,*,#387,.F.);
#517=ORIENTED_EDGE('',*,*,#388,.F.);
#518=ORIENTED_EDGE('',*,*,#324,.T.);
#519=ORIENTED_EDGE('',*,*,#350,.T.);
#520=ORIENTED_EDGE('',*,*,#389,.F.);
#521=ORIENTED_EDGE('',*,*,#390,.F.);
#522=ORIENTED_EDGE('',*,*,#391,.F.);
#523=ORIENTED_EDGE('',*,*,#392,.T.);
#524=ORIENTED_EDGE('',*,*,#379,.T.);
#525=ORIENTED_EDGE('',*,*,#382,.T.);
#526=ORIENTED_EDGE('',*,*,#393,.T.);
#527=ORIENTED_EDGE('',*,*,#389,.T.);
#528=ORIENTED_EDGE('',*,*,#352,.T.);
#529=ORIENTED_EDGE('',*,*,#394,.T.);
#530=ORIENTED_EDGE('',*,*,#385,.T.);
#531=ORIENTED_EDGE('',*,*,#369,.T.);
#532=ORIENTED_EDGE('',*,*,#395,.T.);
#533=ORIENTED_EDGE('',*,*,#396,.T.);
#534=ORIENTED_EDGE('',*,*,#367,.T.);
#535=ORIENTED_EDGE('',*,*,#371,.T.);
#536=ORIENTED_EDGE('',*,*,#374,.T.);
#537=ORIENTED_EDGE('',*,*,#384,.T.);
#538=ORIENTED_EDGE('',*,*,#376,.T.);
#539=ORIENTED_EDGE('',*,*,#397,.F.);
#540=ORIENTED_EDGE('',*,*,#365,.T.);
#541=ORIENTED_EDGE('',*,*,#396,.F.);
#542=ORIENTED_EDGE('',*,*,#398,.F.);
#543=ORIENTED_EDGE('',*,*,#399,.F.);
#544=ORIENTED_EDGE('',*,*,#400,.T.);
#545=ORIENTED_EDGE('',*,*,#327,.T.);
#546=ORIENTED_EDGE('',*,*,#328,.T.);
#547=ORIENTED_EDGE('',*,*,#400,.F.);
#548=ORIENTED_EDGE('',*,*,#401,.F.);
#549=ORIENTED_EDGE('',*,*,#402,.T.);
#550=ORIENTED_EDGE('',*,*,#329,.T.);
#551=ORIENTED_EDGE('',*,*,#402,.F.);
#552=ORIENTED_EDGE('',*,*,#403,.F.);
#553=ORIENTED_EDGE('',*,*,#390,.T.);
#554=ORIENTED_EDGE('',*,*,#393,.F.);
#555=ORIENTED_EDGE('',*,*,#381,.T.);
#556=ORIENTED_EDGE('',*,*,#325,.T.);
#557=ORIENTED_EDGE('',*,*,#392,.F.);
#558=ORIENTED_EDGE('',*,*,#404,.F.);
#559=ORIENTED_EDGE('',*,*,#386,.F.);
#560=ORIENTED_EDGE('',*,*,#394,.F.);
#561=ORIENTED_EDGE('',*,*,#351,.T.);
#562=ORIENTED_EDGE('',*,*,#341,.T.);
#563=ORIENTED_EDGE('',*,*,#405,.T.);
#564=ORIENTED_EDGE('',*,*,#406,.F.);
#565=ORIENTED_EDGE('',*,*,#398,.T.);
#566=ORIENTED_EDGE('',*,*,#395,.F.);
#567=ORIENTED_EDGE('',*,*,#368,.T.);
#568=ORIENTED_EDGE('',*,*,#399,.T.);
#569=ORIENTED_EDGE('',*,*,#406,.T.);
#570=ORIENTED_EDGE('',*,*,#407,.T.);
#571=ORIENTED_EDGE('',*,*,#408,.T.);
#572=ORIENTED_EDGE('',*,*,#387,.T.);
#573=ORIENTED_EDGE('',*,*,#404,.T.);
#574=ORIENTED_EDGE('',*,*,#391,.T.);
#575=ORIENTED_EDGE('',*,*,#403,.T.);
#576=ORIENTED_EDGE('',*,*,#401,.T.);
#577=ORIENTED_EDGE('',*,*,#321,.T.);
#578=ORIENTED_EDGE('',*,*,#354,.T.);
#579=ORIENTED_EDGE('',*,*,#357,.T.);
#580=ORIENTED_EDGE('',*,*,#359,.T.);
#581=ORIENTED_EDGE('',*,*,#361,.T.);
#582=ORIENTED_EDGE('',*,*,#363,.T.);
#583=ORIENTED_EDGE('',*,*,#364,.T.);
#584=ORIENTED_EDGE('',*,*,#372,.T.);
#585=ORIENTED_EDGE('',*,*,#397,.T.);
#586=ORIENTED_EDGE('',*,*,#375,.T.);
#587=ORIENTED_EDGE('',*,*,#333,.T.);
#588=ORIENTED_EDGE('',*,*,#388,.T.);
#589=ORIENTED_EDGE('',*,*,#408,.F.);
#590=ORIENTED_EDGE('',*,*,#409,.F.);
#591=ORIENTED_EDGE('',*,*,#339,.T.);
#592=ORIENTED_EDGE('',*,*,#340,.T.);
#593=ORIENTED_EDGE('',*,*,#409,.T.);
#594=ORIENTED_EDGE('',*,*,#407,.F.);
#595=ORIENTED_EDGE('',*,*,#405,.F.);
#596=PLANE('',#661);
#597=PLANE('',#664);
#598=PLANE('',#670);
#599=PLANE('',#671);
#600=PLANE('',#681);
#601=PLANE('',#682);
#602=PLANE('',#683);
#603=PLANE('',#684);
#604=PLANE('',#686);
#605=PLANE('',#688);
#606=PLANE('',#689);
#607=PLANE('',#690);
#608=PLANE('',#691);
#609=PLANE('',#694);
#610=PLANE('',#696);
#611=PLANE('',#698);
#612=ADVANCED_FACE('',(#166,#162),#596,.F.);
#613=ADVANCED_FACE('',(#167,#163),#597,.T.);
#614=ADVANCED_FACE('',(#168),#157,.F.);
#615=ADVANCED_FACE('',(#169),#158,.F.);
#616=ADVANCED_FACE('',(#170),#598,.T.);
#617=ADVANCED_FACE('',(#171,#164),#599,.T.);
#618=ADVANCED_FACE('',(#172),#15,.F.);
#619=ADVANCED_FACE('',(#173),#16,.F.);
#620=ADVANCED_FACE('',(#174),#17,.F.);
#621=ADVANCED_FACE('',(#175),#18,.F.);
#622=ADVANCED_FACE('',(#176),#19,.F.);
#623=ADVANCED_FACE('',(#177),#20,.F.);
#624=ADVANCED_FACE('',(#178),#21,.F.);
#625=ADVANCED_FACE('',(#179),#22,.F.);
#626=ADVANCED_FACE('',(#180),#23,.F.);
#627=ADVANCED_FACE('',(#181),#24,.F.);
#628=ADVANCED_FACE('',(#182),#25,.F.);
#629=ADVANCED_FACE('',(#183),#26,.F.);
#630=ADVANCED_FACE('',(#184),#27,.F.);
#631=ADVANCED_FACE('',(#185),#28,.F.);
#632=ADVANCED_FACE('',(#186),#159,.F.);
#633=ADVANCED_FACE('',(#187),#600,.T.);
#634=ADVANCED_FACE('',(#188),#601,.F.);
#635=ADVANCED_FACE('',(#189),#602,.F.);
#636=ADVANCED_FACE('',(#190),#603,.F.);
#637=ADVANCED_FACE('',(#191),#604,.F.);
#638=ADVANCED_FACE('',(#192),#605,.F.);
#639=ADVANCED_FACE('',(#193),#606,.F.);
#640=ADVANCED_FACE('',(#194),#607,.F.);
#641=ADVANCED_FACE('',(#195),#608,.F.);
#642=ADVANCED_FACE('',(#196),#160,.F.);
#643=ADVANCED_FACE('',(#197,#165),#609,.T.);
#644=ADVANCED_FACE('',(#198),#610,.F.);
#645=ADVANCED_FACE('',(#199),#161,.T.);
#646=ADVANCED_FACE('',(#200),#611,.T.);
#647=CLOSED_SHELL('',(#612,#613,#614,#615,#616,#617,#618,#619,#620,#621,
#622,#623,#624,#625,#626,#627,#628,#629,#630,#631,#632,#633,#634,#635,#636,
#637,#638,#639,#640,#641,#642,#643,#644,#645,#646));
#648=DERIVED_UNIT_ELEMENT(#650,1.);
#649=DERIVED_UNIT_ELEMENT(#1199,-3.);
#650=(
MASS_UNIT()
NAMED_UNIT(*)
SI_UNIT(.KILO.,.GRAM.)
);
#651=DERIVED_UNIT((#648,#649));
#652=MEASURE_REPRESENTATION_ITEM('density measure',
POSITIVE_RATIO_MEASURE(7850.),#651);
#653=PROPERTY_DEFINITION_REPRESENTATION(#658,#655);
#654=PROPERTY_DEFINITION_REPRESENTATION(#659,#656);
#655=REPRESENTATION('material name',(#657),#1196);
#656=REPRESENTATION('density',(#652),#1196);
#657=DESCRIPTIVE_REPRESENTATION_ITEM('Steel','Steel');
#658=PROPERTY_DEFINITION('material property','material name',#1206);
#659=PROPERTY_DEFINITION('material property','density of part',#1206);
#660=AXIS2_PLACEMENT_3D('',#827,#699,#700);
#661=AXIS2_PLACEMENT_3D('',#828,#701,#702);
#662=AXIS2_PLACEMENT_3D('',#830,#703,#704);
#663=AXIS2_PLACEMENT_3D('',#832,#705,#706);
#664=AXIS2_PLACEMENT_3D('',#833,#707,#708);
#665=AXIS2_PLACEMENT_3D('',#835,#709,#710);
#666=AXIS2_PLACEMENT_3D('',#837,#711,#712);
#667=AXIS2_PLACEMENT_3D('',#838,#713,#714);
#668=AXIS2_PLACEMENT_3D('',#840,#715,#716);
#669=AXIS2_PLACEMENT_3D('',#842,#718,#719);
#670=AXIS2_PLACEMENT_3D('',#844,#721,#722);
#671=AXIS2_PLACEMENT_3D('',#854,#725,#726);
#672=AXIS2_PLACEMENT_3D('',#875,#731,#732);
#673=AXIS2_PLACEMENT_3D('',#882,#733,#734);
#674=AXIS2_PLACEMENT_3D('',#884,#735,#736);
#675=AXIS2_PLACEMENT_3D('',#891,#737,#738);
#676=AXIS2_PLACEMENT_3D('',#893,#739,#740);
#677=AXIS2_PLACEMENT_3D('',#897,#742,#743);
#678=AXIS2_PLACEMENT_3D('',#1078,#756,#757);
#679=AXIS2_PLACEMENT_3D('',#1140,#765,#766);
#680=AXIS2_PLACEMENT_3D('',#1142,#768,#769);
#681=AXIS2_PLACEMENT_3D('',#1143,#770,#771);
#682=AXIS2_PLACEMENT_3D('',#1151,#776,#777);
#683=AXIS2_PLACEMENT_3D('',#1159,#782,#783);
#684=AXIS2_PLACEMENT_3D('',#1162,#786,#787);
#685=AXIS2_PLACEMENT_3D('',#1164,#788,#789);
#686=AXIS2_PLACEMENT_3D('',#1166,#791,#792);
#687=AXIS2_PLACEMENT_3D('',#1167,#793,#794);
#688=AXIS2_PLACEMENT_3D('',#1168,#795,#796);
#689=AXIS2_PLACEMENT_3D('',#1174,#800,#801);
#690=AXIS2_PLACEMENT_3D('',#1178,#804,#805);
#691=AXIS2_PLACEMENT_3D('',#1180,#807,#808);
#692=AXIS2_PLACEMENT_3D('',#1182,#810,#811);
#693=AXIS2_PLACEMENT_3D('',#1185,#813,#814);
#694=AXIS2_PLACEMENT_3D('',#1186,#815,#816);
#695=AXIS2_PLACEMENT_3D('',#1189,#818,#819);
#696=AXIS2_PLACEMENT_3D('',#1190,#820,#821);
#697=AXIS2_PLACEMENT_3D('',#1191,#822,#823);
#698=AXIS2_PLACEMENT_3D('',#1193,#825,#826);
#699=DIRECTION('axis',(0.,0.,1.));
#700=DIRECTION('refdir',(1.,0.,0.));
#701=DIRECTION('center_axis',(0.,0.,1.));
#702=DIRECTION('ref_axis',(-1.,0.,0.));
#703=DIRECTION('center_axis',(0.,0.,1.));
#704=DIRECTION('ref_axis',(1.,0.,0.));
#705=DIRECTION('center_axis',(0.,0.,1.));
#706=DIRECTION('ref_axis',(-1.,0.,0.));
#707=DIRECTION('center_axis',(0.,0.,1.));
#708=DIRECTION('ref_axis',(-1.,0.,0.));
#709=DIRECTION('center_axis',(0.,0.,-1.));
#710=DIRECTION('ref_axis',(-1.,0.,0.));
#711=DIRECTION('center_axis',(0.,0.,1.));
#712=DIRECTION('ref_axis',(-1.,0.,0.));
#713=DIRECTION('center_axis',(0.,0.,-1.));
#714=DIRECTION('ref_axis',(-1.,0.,0.));
#715=DIRECTION('center_axis',(0.,0.,-1.));
#716=DIRECTION('ref_axis',(-1.,0.,0.));
#717=DIRECTION('',(0.,0.,-1.));
#718=DIRECTION('center_axis',(0.,0.,-1.));
#719=DIRECTION('ref_axis',(-1.,0.,0.));
#720=DIRECTION('',(0.,0.,-1.));
#721=DIRECTION('center_axis',(0.,0.,-1.));
#722=DIRECTION('ref_axis',(1.,0.,0.));
#723=DIRECTION('',(0.91910816958045,-0.394005295155376,0.));
#724=DIRECTION('',(-0.745521964111652,-0.666481058265803,0.));
#725=DIRECTION('center_axis',(0.,0.,-1.));
#726=DIRECTION('ref_axis',(1.,0.,0.));
#727=DIRECTION('',(-0.745521964111648,-0.666481058265808,0.));
#728=DIRECTION('',(-0.288965776456359,0.95733942780864,0.));
#729=DIRECTION('',(-0.745521964111648,-0.666481058265808,0.));
#730=DIRECTION('',(-0.6664810582658,0.745521964111655,0.));
#731=DIRECTION('center_axis',(0.,0.,1.));
#732=DIRECTION('ref_axis',(-0.745521964111651,-0.666481058265805,0.));
#733=DIRECTION('center_axis',(0.,0.,-1.));
#734=DIRECTION('ref_axis',(1.,0.,0.));
#735=DIRECTION('center_axis',(0.,0.,-1.));
#736=DIRECTION('ref_axis',(1.,0.,0.));
#737=DIRECTION('center_axis',(0.,0.,1.));
#738=DIRECTION('ref_axis',(0.999456637000814,-0.0329610490582888,0.));
#739=DIRECTION('center_axis',(0.,0.,1.));
#740=DIRECTION('ref_axis',(-0.745521964111651,-0.666481058265805,0.));
#741=DIRECTION('',(0.666481058265805,-0.74552196411165,0.));
#742=DIRECTION('center_axis',(0.,0.,-1.));
#743=DIRECTION('ref_axis',(0.745521964111651,0.666481058265804,0.));
#744=DIRECTION('',(0.,0.,-1.));
#745=DIRECTION('',(0.,0.,1.));
#746=DIRECTION('',(0.,0.,-1.));
#747=DIRECTION('',(0.,0.,-1.));
#748=DIRECTION('',(0.,0.,-1.));
#749=DIRECTION('',(0.,0.,-1.));
#750=DIRECTION('',(0.,0.,-1.));
#751=DIRECTION('',(0.,0.,-1.));
#752=DIRECTION('',(0.,0.,-1.));
#753=DIRECTION('',(0.,0.,-1.));
#754=DIRECTION('',(0.,0.,1.));
#755=DIRECTION('',(0.,0.,-1.));
#756=DIRECTION('center_axis',(0.,0.,-1.));
#757=DIRECTION('ref_axis',(0.999456637000815,-0.0329610490582744,0.));
#758=DIRECTION('',(0.,0.,-1.));
#759=DIRECTION('',(0.,0.,1.));
#760=DIRECTION('',(0.,0.,1.));
#761=DIRECTION('',(0.,0.,-1.));
#762=DIRECTION('',(0.,0.,-1.));
#763=DIRECTION('',(0.,0.,-1.));
#764=DIRECTION('',(0.,0.,1.));
#765=DIRECTION('center_axis',(0.,0.,1.));
#766=DIRECTION('ref_axis',(1.,0.,0.));
#767=DIRECTION('',(0.,0.,1.));
#768=DIRECTION('center_axis',(0.,0.,1.));
#769=DIRECTION('ref_axis',(1.,0.,0.));
#770=DIRECTION('center_axis',(0.745521964111655,0.6664810582658,0.));
#771=DIRECTION('ref_axis',(-0.6664810582658,0.745521964111655,0.));
#772=DIRECTION('',(0.6664810582658,-0.745521964111655,0.));
#773=DIRECTION('',(0.,0.,1.));
#774=DIRECTION('',(-0.6664810582658,0.745521964111655,0.));
#775=DIRECTION('',(0.,0.,1.));
#776=DIRECTION('center_axis',(0.394005295155376,0.91910816958045,0.));
#777=DIRECTION('ref_axis',(0.91910816958045,-0.394005295155376,0.));
#778=DIRECTION('',(-0.91910816958045,0.394005295155376,0.));
#779=DIRECTION('',(0.,0.,-1.));
#780=DIRECTION('',(0.91910816958045,-0.394005295155376,0.));
#781=DIRECTION('',(0.,0.,-1.));
#782=DIRECTION('center_axis',(0.,0.,1.));
#783=DIRECTION('ref_axis',(-1.,0.,0.));
#784=DIRECTION('',(0.745521964111648,0.666481058265808,0.));
#785=DIRECTION('',(0.745521964111652,0.666481058265803,0.));
#786=DIRECTION('center_axis',(0.,0.,1.));
#787=DIRECTION('ref_axis',(-1.,0.,0.));
#788=DIRECTION('center_axis',(0.,0.,1.));
#789=DIRECTION('ref_axis',(0.745521964111651,0.666481058265804,0.));
#790=DIRECTION('',(0.745521964111648,0.666481058265808,0.));
#791=DIRECTION('center_axis',(0.,0.,1.));
#792=DIRECTION('ref_axis',(-1.,0.,0.));
#793=DIRECTION('center_axis',(0.,0.,1.));
#794=DIRECTION('ref_axis',(-0.745521964111651,-0.666481058265805,0.));
#795=DIRECTION('center_axis',(0.666481058265808,-0.745521964111648,0.));
#796=DIRECTION('ref_axis',(-0.745521964111648,-0.666481058265808,0.));
#797=DIRECTION('',(0.,0.,-1.));
#798=DIRECTION('',(-0.745521964111648,-0.666481058265808,0.));
#799=DIRECTION('',(0.,0.,-1.));
#800=DIRECTION('center_axis',(-0.95733942780864,-0.288965776456359,0.));
#801=DIRECTION('ref_axis',(-0.288965776456359,0.95733942780864,0.));
#802=DIRECTION('',(-0.288965776456359,0.95733942780864,0.));
#803=DIRECTION('',(0.,0.,-1.));
#804=DIRECTION('center_axis',(0.666481058265808,-0.745521964111648,0.));
#805=DIRECTION('ref_axis',(-0.745521964111648,-0.666481058265808,0.));
#806=DIRECTION('',(-0.745521964111648,-0.666481058265808,0.));
#807=DIRECTION('center_axis',(0.666481058265803,-0.745521964111652,0.));
#808=DIRECTION('ref_axis',(-0.745521964111652,-0.666481058265803,0.));
#809=DIRECTION('',(-0.745521964111652,-0.666481058265803,0.));
#810=DIRECTION('center_axis',(0.,0.,1.));
#811=DIRECTION('ref_axis',(0.745521964111651,0.666481058265804,0.));
#812=DIRECTION('',(0.,0.,1.));
#813=DIRECTION('center_axis',(0.,0.,-1.));
#814=DIRECTION('ref_axis',(0.745521964111651,0.666481058265804,0.));
#815=DIRECTION('center_axis',(0.,0.,1.));
#816=DIRECTION('ref_axis',(-1.,0.,0.));
#817=DIRECTION('',(0.666481058265805,-0.74552196411165,0.));
#818=DIRECTION('center_axis',(0.,0.,1.));
#819=DIRECTION('ref_axis',(-0.745521964111651,-0.666481058265805,0.));
#820=DIRECTION('center_axis',(0.,0.,1.));
#821=DIRECTION('ref_axis',(-1.,0.,0.));
#822=DIRECTION('center_axis',(0.,0.,1.));
#823=DIRECTION('ref_axis',(-0.745521964111651,-0.666481058265805,0.));
#824=DIRECTION('',(0.,0.,1.));
#825=DIRECTION('center_axis',(-0.74552196411165,-0.666481058265805,0.));
#826=DIRECTION('ref_axis',(0.666481058265805,-0.74552196411165,0.));
#827=CARTESIAN_POINT('',(0.,0.,0.));
#828=CARTESIAN_POINT('Origin',(175.578113255177,-16.3657019842309,74.1035162724936));
#829=CARTESIAN_POINT('',(170.528113255177,-16.3657019842309,74.1035162724936));
#830=CARTESIAN_POINT('Origin',(175.578113255177,-16.3657019842309,74.1035162724936));
#831=CARTESIAN_POINT('',(177.078113255177,-16.3657019842309,74.1035162724936));
#832=CARTESIAN_POINT('Origin',(175.578113255177,-16.3657019842309,74.1035162724936));
#833=CARTESIAN_POINT('Origin',(175.578113255177,-16.3657019842309,76.6035162724936));
#834=CARTESIAN_POINT('',(178.278113255177,-16.3657019842309,76.6035162724936));
#835=CARTESIAN_POINT('Origin',(175.578113255177,-16.3657019842309,76.6035162724936));
#836=CARTESIAN_POINT('',(177.078113255177,-16.3657019842309,76.6035162724936));
#837=CARTESIAN_POINT('Origin',(175.578113255177,-16.3657019842309,76.6035162724936));
#838=CARTESIAN_POINT('Origin',(175.578113255177,-16.3657019842309,78.1035162724936));
#839=CARTESIAN_POINT('',(178.278113255177,-16.3657019842309,78.1035162724936));
#840=CARTESIAN_POINT('Origin',(175.578113255177,-16.3657019842309,78.1035162724936));
#841=CARTESIAN_POINT('',(178.278113255177,-16.3657019842309,78.1035162724936));
#842=CARTESIAN_POINT('Origin',(175.578113255177,-16.3657019842309,78.1035162724936));
#843=CARTESIAN_POINT('',(177.078113255177,-16.3657019842309,78.1035162724936));
#844=CARTESIAN_POINT('Origin',(18.4370497025956,63.0466774510599,72.1035162724936));
#845=CARTESIAN_POINT('',(132.764912659889,33.5682924529954,72.1035162724936));
#846=CARTESIAN_POINT('',(143.849466677655,28.8165416558837,72.1035162724936));
#847=CARTESIAN_POINT('',(79.137564615957,56.5573809996618,72.1035162724936));
#848=CARTESIAN_POINT('',(140.774116397118,40.7283532421035,72.1035162724936));
#849=CARTESIAN_POINT('',(113.400342050235,16.2567709498518,72.1035162724936));
#850=CARTESIAN_POINT('Ctrl Pts',(140.774116397118,40.7283532421035,72.1035162724936));
#851=CARTESIAN_POINT('Ctrl Pts',(139.837356482874,35.4609934823535,72.1035162724936));
#852=CARTESIAN_POINT('Ctrl Pts',(141.346070868565,31.5951372340777,72.1035162724936));
#853=CARTESIAN_POINT('Ctrl Pts',(143.849466677655,28.8165416558837,72.1035162724936));
#854=CARTESIAN_POINT('Origin',(18.4370497025956,63.0466774510599,72.1035162724936));
#855=CARTESIAN_POINT('',(129.197376376673,30.0650532564894,72.1035162724936));
#856=CARTESIAN_POINT('',(119.64580143804,21.5261448411075,72.1035162724936));
#857=CARTESIAN_POINT('',(106.610808674956,9.87313367653408,72.1035162724936));
#858=CARTESIAN_POINT('',(133.690932549203,15.1779668070464,72.1035162724936));
#859=CARTESIAN_POINT('',(122.257852525648,53.0555951617439,72.1035162724936));
#860=CARTESIAN_POINT('',(146.407519522726,26.546329848827,72.1035162724936));
#861=CARTESIAN_POINT('',(120.356070920091,3.25687914199202,72.1035162724936));
#862=CARTESIAN_POINT('',(155.846290432076,22.7364482575286,72.1035162724936));
#863=CARTESIAN_POINT('Ctrl Pts',(146.407519522726,26.546329848827,72.1035162724936));
#864=CARTESIAN_POINT('Ctrl Pts',(149.506005137163,24.3228779700649,72.1035162724936));
#865=CARTESIAN_POINT('Ctrl Pts',(153.196410051184,23.1707802985562,72.1035162724936));
#866=CARTESIAN_POINT('Ctrl Pts',(155.846290432076,22.7364482575286,72.1035162724936));
#867=CARTESIAN_POINT('',(160.979121092166,22.4709145863414,72.1035162724936));
#868=CARTESIAN_POINT('Ctrl Pts',(155.846290432076,22.7364482575286,72.1035162724936));
#869=CARTESIAN_POINT('Ctrl Pts',(157.695481957201,22.5317654077637,72.1035162724936));
#870=CARTESIAN_POINT('Ctrl Pts',(159.400025888785,22.4486149229235,72.1035162724936));
#871=CARTESIAN_POINT('Ctrl Pts',(160.979121092166,22.4709145863414,72.1035162724936));
#872=CARTESIAN_POINT('',(186.760942716851,-6.36848611024387,72.1035162724936));
#873=CARTESIAN_POINT('',(132.131084785137,54.7401657850813,72.1035162724936));
#874=CARTESIAN_POINT('',(189.782855017215,-21.1849666038384,72.1035162724936));
#875=CARTESIAN_POINT('Origin',(175.578113255177,-16.3657019842309,72.1035162724936));
#876=CARTESIAN_POINT('',(180.623704861135,-16.5766648859172,72.1035162724936));
#877=CARTESIAN_POINT('Ctrl Pts',(189.782855017049,-21.1849666037861,72.1035162724936));
#878=CARTESIAN_POINT('Ctrl Pts',(186.784944938183,-20.2419668984288,72.1035162724936));
#879=CARTESIAN_POINT('Ctrl Pts',(183.700858171111,-18.7357981161626,72.1035162724936));
#880=CARTESIAN_POINT('Ctrl Pts',(180.623704861135,-16.5766648859172,72.1035162724936));
#881=CARTESIAN_POINT('',(170.528113255177,-16.3657019842309,72.1035162724936));
#882=CARTESIAN_POINT('Origin',(175.578113255177,-16.3657019842309,72.1035162724936));
#883=CARTESIAN_POINT('',(180.589022352934,-16.9928303714177,72.1035162724936));
#884=CARTESIAN_POINT('Origin',(175.578113255177,-16.3657019842309,72.1035162724936));
#885=CARTESIAN_POINT('',(169.240628089242,-26.9522449629914,72.1035162724936));
#886=CARTESIAN_POINT('Ctrl Pts',(180.589022352934,-16.9928303714177,72.1035162724936));
#887=CARTESIAN_POINT('Ctrl Pts',(183.640036052995,-24.4143617985435,72.1035162724936));
#888=CARTESIAN_POINT('Ctrl Pts',(175.263296803892,-30.0777491178418,72.1035162724936));
#889=CARTESIAN_POINT('Ctrl Pts',(169.240628089242,-26.9522449629914,72.1035162724936));
#890=CARTESIAN_POINT('',(169.195480869094,-29.9400161040715,72.1035162724936));
#891=CARTESIAN_POINT('Origin',(227.929867167934,-30.1247764081417,72.1035162724936));
#892=CARTESIAN_POINT('',(164.395283793503,-26.362917858218,72.1035162724936));
#893=CARTESIAN_POINT('Origin',(175.578113255177,-16.3657019842309,72.1035162724936));
#894=CARTESIAN_POINT('',(131.071230880212,10.9131803473645,72.1035162724936));
#895=CARTESIAN_POINT('',(93.1033994051419,53.3837831398983,72.1035162724936));
#896=CARTESIAN_POINT('',(127.811214294957,14.1126056881892,72.1035162724936));
#897=CARTESIAN_POINT('Origin',(104.977962136305,-12.4136566919386,72.1035162724936));
#898=CARTESIAN_POINT('',(131.140086697869,14.0554774075378,72.1035162724936));
#899=CARTESIAN_POINT('Ctrl Pts',(127.811214294957,14.1126056881892,72.1035162724936));
#900=CARTESIAN_POINT('Ctrl Pts',(128.786837994584,14.1151352567284,72.1035162724936));
#901=CARTESIAN_POINT('Ctrl Pts',(129.803056180901,14.0790156136688,72.1035162724936));
#902=CARTESIAN_POINT('Ctrl Pts',(131.140086697869,14.0554774075378,72.1035162724936));
#903=CARTESIAN_POINT('Ctrl Pts',(131.140086697869,14.0554774075378,72.1035162724936));
#904=CARTESIAN_POINT('Ctrl Pts',(129.164273563952,16.5609044134912,72.1035162724936));
#905=CARTESIAN_POINT('Ctrl Pts',(124.707890277875,19.5541574961932,72.1035162724936));
#906=CARTESIAN_POINT('Ctrl Pts',(119.64580143804,21.5261448411075,72.1035162724936));
#907=CARTESIAN_POINT('',(176.269378277306,-11.127620037378,72.1035162724936));
#908=CARTESIAN_POINT('',(170.546296648507,0.145651738439838,72.1035162724936));
#909=CARTESIAN_POINT('Ctrl Pts',(176.269378277306,-11.127620037378,72.1035162724936));
#910=CARTESIAN_POINT('Ctrl Pts',(172.330149973397,-7.06752701789256,72.1035162724936));
#911=CARTESIAN_POINT('Ctrl Pts',(170.914302238183,-3.45356214515085,72.1035162724936));
#912=CARTESIAN_POINT('Ctrl Pts',(170.546296648507,0.145651738439838,72.1035162724936));
#913=CARTESIAN_POINT('',(164.431778156762,-1.13111916610116,72.1035162724936));
#914=CARTESIAN_POINT('Ctrl Pts',(170.546296648507,0.145651738439838,72.1035162724936));
#915=CARTESIAN_POINT('Ctrl Pts',(168.779776422601,-0.795829457391406,72.1035162724936));
#916=CARTESIAN_POINT('Ctrl Pts',(166.030777139955,-1.63424601394048,72.1035162724936));
#917=CARTESIAN_POINT('Ctrl Pts',(164.431778156762,-1.13111916610116,72.1035162724936));
#918=CARTESIAN_POINT('',(162.234965808778,11.3866196720947,72.1035162724936));
#919=CARTESIAN_POINT('Ctrl Pts',(164.431778156762,-1.13111916610116,72.1035162724936));
#920=CARTESIAN_POINT('Ctrl Pts',(163.401791026025,-0.558687391580293,72.1035162724936));
#921=CARTESIAN_POINT('Ctrl Pts',(161.876588192468,4.14564203117976,72.1035162724936));
#922=CARTESIAN_POINT('Ctrl Pts',(162.234965808778,11.3866196720947,72.1035162724936));
#923=CARTESIAN_POINT('',(140.239482952409,9.60595278061518,72.1035162724936));
#924=CARTESIAN_POINT('Ctrl Pts',(162.234965808778,11.3866196720947,72.1035162724936));
#925=CARTESIAN_POINT('Ctrl Pts',(157.312049800973,7.33347637375481,72.1035162724936));
#926=CARTESIAN_POINT('Ctrl Pts',(148.361303411965,7.83978965500481,72.1035162724936));
#927=CARTESIAN_POINT('Ctrl Pts',(140.239482952409,9.60595278061518,72.1035162724936));
#928=CARTESIAN_POINT('',(157.597867384057,-13.3499925257814,72.1035162724936));
#929=CARTESIAN_POINT('Ctrl Pts',(140.239482952409,9.60595278061518,72.1035162724936));
#930=CARTESIAN_POINT('Ctrl Pts',(149.475593681817,2.86799211052546,72.1035162724936));
#931=CARTESIAN_POINT('Ctrl Pts',(154.818748064904,-4.53137324630134,72.1035162724936));
#932=CARTESIAN_POINT('Ctrl Pts',(157.597867384057,-13.3499925257814,72.1035162724936));
#933=CARTESIAN_POINT('Ctrl Pts',(157.597867384057,-13.3499925257814,72.1035162724936));
#934=CARTESIAN_POINT('Ctrl Pts',(161.213054638581,-8.65733753577587,72.1035162724936));
#935=CARTESIAN_POINT('Ctrl Pts',(170.312025119691,-5.31877939902657,72.1035162724936));
#936=CARTESIAN_POINT('Ctrl Pts',(176.269378277306,-11.127620037378,72.1035162724936));
#937=CARTESIAN_POINT('Ctrl Pts',(140.830442738442,41.0315205002654,72.1035162724936));
#938=CARTESIAN_POINT('Ctrl Pts',(140.830442738442,41.0315205002654,69.7035162724936));
#939=CARTESIAN_POINT('Ctrl Pts',(138.390211600213,28.4332143414367,72.1035162724936));
#940=CARTESIAN_POINT('Ctrl Pts',(138.390211600213,28.4332143414367,69.7035162724936));
#941=CARTESIAN_POINT('Ctrl Pts',(149.814179700952,23.7251491001952,72.1035162724936));
#942=CARTESIAN_POINT('Ctrl Pts',(149.814179700952,23.7251491001952,69.7035162724936));
#943=CARTESIAN_POINT('Ctrl Pts',(155.846290432076,22.7364482575286,72.1035162724936));
#944=CARTESIAN_POINT('Ctrl Pts',(155.846290432076,22.7364482575286,69.7035162724936));
#945=CARTESIAN_POINT('',(143.849466677655,28.8165416558837,70.1035162724936));
#946=CARTESIAN_POINT('',(143.849466677655,28.8165416558837,72.1035162724936));
#947=CARTESIAN_POINT('',(140.774116397118,40.7283532421035,70.1035162724936));
#948=CARTESIAN_POINT('',(140.774116397118,40.7283532421035,70.1035162724936));
#949=CARTESIAN_POINT('Ctrl Pts',(143.849466677655,28.8165416558837,70.1035162724936));
#950=CARTESIAN_POINT('Ctrl Pts',(141.346070868576,31.5951372340696,70.1035162724936));
#951=CARTESIAN_POINT('Ctrl Pts',(139.837356482875,35.460993482353,70.1035162724936));
#952=CARTESIAN_POINT('Ctrl Pts',(140.774116397118,40.7283532421035,70.1035162724936));
#953=CARTESIAN_POINT('Ctrl Pts',(157.597867384057,-13.3499925257814,72.1035162724936));
#954=CARTESIAN_POINT('Ctrl Pts',(157.597867384057,-13.3499925257814,69.7035162724936));
#955=CARTESIAN_POINT('Ctrl Pts',(161.213054638581,-8.65733753577587,72.1035162724936));
#956=CARTESIAN_POINT('Ctrl Pts',(161.213054638581,-8.65733753577587,69.7035162724936));
#957=CARTESIAN_POINT('Ctrl Pts',(170.312025119691,-5.31877939902657,72.1035162724936));
#958=CARTESIAN_POINT('Ctrl Pts',(170.312025119691,-5.31877939902657,69.7035162724936));
#959=CARTESIAN_POINT('Ctrl Pts',(176.269378277306,-11.127620037378,72.1035162724936));
#960=CARTESIAN_POINT('Ctrl Pts',(176.269378277306,-11.127620037378,69.7035162724936));
#961=CARTESIAN_POINT('',(157.597867384057,-13.3499925257814,70.1035162724936));
#962=CARTESIAN_POINT('',(157.597867384057,-13.3499925257814,72.1035162724936));
#963=CARTESIAN_POINT('',(176.269378277306,-11.127620037378,70.1035162724936));
#964=CARTESIAN_POINT('Ctrl Pts',(176.269378277306,-11.127620037378,70.1035162724936));
#965=CARTESIAN_POINT('Ctrl Pts',(170.312025119691,-5.31877939902657,70.1035162724936));
#966=CARTESIAN_POINT('Ctrl Pts',(161.213054638581,-8.65733753577587,70.1035162724936));
#967=CARTESIAN_POINT('Ctrl Pts',(157.597867384057,-13.3499925257814,70.1035162724936));
#968=CARTESIAN_POINT('',(176.269378277306,-11.127620037378,72.1035162724936));
#969=CARTESIAN_POINT('Ctrl Pts',(140.239482952409,9.60595278061518,72.1035162724936));
#970=CARTESIAN_POINT('Ctrl Pts',(140.239482952409,9.60595278061518,69.7035162724936));
#971=CARTESIAN_POINT('Ctrl Pts',(149.475593681817,2.86799211052546,72.1035162724936));
#972=CARTESIAN_POINT('Ctrl Pts',(149.475593681817,2.86799211052546,69.7035162724936));
#973=CARTESIAN_POINT('Ctrl Pts',(154.818748064904,-4.53137324630134,72.1035162724936));
#974=CARTESIAN_POINT('Ctrl Pts',(154.818748064904,-4.53137324630134,69.7035162724936));
#975=CARTESIAN_POINT('Ctrl Pts',(157.597867384057,-13.3499925257814,72.1035162724936));
#976=CARTESIAN_POINT('Ctrl Pts',(157.597867384057,-13.3499925257814,69.7035162724936));
#977=CARTESIAN_POINT('',(140.239482952409,9.60595278061518,70.1035162724936));
#978=CARTESIAN_POINT('',(140.239482952409,9.60595278061518,72.1035162724936));
#979=CARTESIAN_POINT('Ctrl Pts',(157.597867384057,-13.3499925257814,70.1035162724936));
#980=CARTESIAN_POINT('Ctrl Pts',(154.818748064904,-4.53137324630134,70.1035162724936));
#981=CARTESIAN_POINT('Ctrl Pts',(149.475593681817,2.86799211052546,70.1035162724936));
#982=CARTESIAN_POINT('Ctrl Pts',(140.239482952409,9.60595278061518,70.1035162724936));
#983=CARTESIAN_POINT('Ctrl Pts',(162.234965808778,11.3866196720947,72.1035162724936));
#984=CARTESIAN_POINT('Ctrl Pts',(162.234965808778,11.3866196720947,69.7035162724936));
#985=CARTESIAN_POINT('Ctrl Pts',(157.312049800973,7.33347637375481,72.1035162724936));
#986=CARTESIAN_POINT('Ctrl Pts',(157.312049800973,7.33347637375481,69.7035162724936));
#987=CARTESIAN_POINT('Ctrl Pts',(148.361303411965,7.83978965500481,72.1035162724936));
#988=CARTESIAN_POINT('Ctrl Pts',(148.361303411965,7.83978965500481,69.7035162724936));
#989=CARTESIAN_POINT('Ctrl Pts',(140.239482952409,9.60595278061518,72.1035162724936));
#990=CARTESIAN_POINT('Ctrl Pts',(140.239482952409,9.60595278061518,69.7035162724936));
#991=CARTESIAN_POINT('',(162.234965808778,11.3866196720947,70.1035162724936));
#992=CARTESIAN_POINT('',(162.234965808778,11.3866196720947,72.1035162724936));
#993=CARTESIAN_POINT('Ctrl Pts',(140.239482952409,9.60595278061518,70.1035162724936));
#994=CARTESIAN_POINT('Ctrl Pts',(148.361303411965,7.83978965500481,70.1035162724936));
#995=CARTESIAN_POINT('Ctrl Pts',(157.312049800973,7.33347637375481,70.1035162724936));
#996=CARTESIAN_POINT('Ctrl Pts',(162.234965808778,11.3866196720947,70.1035162724936));
#997=CARTESIAN_POINT('Ctrl Pts',(164.431778156762,-1.13111916610116,72.1035162724936));
#998=CARTESIAN_POINT('Ctrl Pts',(164.431778156762,-1.13111916610116,69.7035162724936));
#999=CARTESIAN_POINT('Ctrl Pts',(163.401791026025,-0.558687391580293,72.1035162724936));
#1000=CARTESIAN_POINT('Ctrl Pts',(163.401791026025,-0.558687391580293,69.7035162724936));
#1001=CARTESIAN_POINT('Ctrl Pts',(161.876588192468,4.14564203117976,72.1035162724936));
#1002=CARTESIAN_POINT('Ctrl Pts',(161.876588192468,4.14564203117976,69.7035162724936));
#1003=CARTESIAN_POINT('Ctrl Pts',(162.234965808778,11.3866196720947,72.1035162724936));
#1004=CARTESIAN_POINT('Ctrl Pts',(162.234965808778,11.3866196720947,69.7035162724936));
#1005=CARTESIAN_POINT('',(164.431778156762,-1.13111916610116,70.1035162724936));
#1006=CARTESIAN_POINT('',(164.431778156762,-1.13111916610116,72.1035162724936));
#1007=CARTESIAN_POINT('Ctrl Pts',(162.234965808778,11.3866196720947,70.1035162724936));
#1008=CARTESIAN_POINT('Ctrl Pts',(161.876588192468,4.14564203117976,70.1035162724936));
#1009=CARTESIAN_POINT('Ctrl Pts',(163.401791026025,-0.558687391580293,70.1035162724936));
#1010=CARTESIAN_POINT('Ctrl Pts',(164.431778156762,-1.13111916610116,70.1035162724936));
#1011=CARTESIAN_POINT('Ctrl Pts',(170.546296648507,0.145651738439838,72.1035162724936));
#1012=CARTESIAN_POINT('Ctrl Pts',(170.546296648507,0.145651738439838,69.7035162724936));
#1013=CARTESIAN_POINT('Ctrl Pts',(168.779776422601,-0.795829457391406,72.1035162724936));
#1014=CARTESIAN_POINT('Ctrl Pts',(168.779776422601,-0.795829457391406,69.7035162724936));
#1015=CARTESIAN_POINT('Ctrl Pts',(166.030777139955,-1.63424601394048,72.1035162724936));
#1016=CARTESIAN_POINT('Ctrl Pts',(166.030777139955,-1.63424601394048,69.7035162724936));
#1017=CARTESIAN_POINT('Ctrl Pts',(164.431778156762,-1.13111916610116,72.1035162724936));
#1018=CARTESIAN_POINT('Ctrl Pts',(164.431778156762,-1.13111916610116,69.7035162724936));
#1019=CARTESIAN_POINT('',(170.546296648507,0.145651738439838,70.1035162724936));
#1020=CARTESIAN_POINT('',(170.546296648507,0.145651738439838,72.1035162724936));
#1021=CARTESIAN_POINT('Ctrl Pts',(164.431778156762,-1.13111916610116,70.1035162724936));
#1022=CARTESIAN_POINT('Ctrl Pts',(166.030777139955,-1.63424601394048,70.1035162724936));
#1023=CARTESIAN_POINT('Ctrl Pts',(168.779776422601,-0.795829457391406,70.1035162724936));
#1024=CARTESIAN_POINT('Ctrl Pts',(170.546296648507,0.145651738439838,70.1035162724936));
#1025=CARTESIAN_POINT('Ctrl Pts',(176.269378277306,-11.127620037378,72.1035162724936));
#1026=CARTESIAN_POINT('Ctrl Pts',(176.269378277306,-11.127620037378,69.7035162724936));
#1027=CARTESIAN_POINT('Ctrl Pts',(172.330149973397,-7.06752701789256,72.1035162724936));
#1028=CARTESIAN_POINT('Ctrl Pts',(172.330149973397,-7.06752701789256,69.7035162724936));
#1029=CARTESIAN_POINT('Ctrl Pts',(170.914302238183,-3.45356214515085,72.1035162724936));
#1030=CARTESIAN_POINT('Ctrl Pts',(170.914302238183,-3.45356214515085,69.7035162724936));
#1031=CARTESIAN_POINT('Ctrl Pts',(170.546296648507,0.145651738439838,72.1035162724936));
#1032=CARTESIAN_POINT('Ctrl Pts',(170.546296648507,0.145651738439838,69.7035162724936));
#1033=CARTESIAN_POINT('Ctrl Pts',(170.546296648507,0.145651738439838,70.1035162724936));
#1034=CARTESIAN_POINT('Ctrl Pts',(170.914302238183,-3.45356214515085,70.1035162724936));
#1035=CARTESIAN_POINT('Ctrl Pts',(172.330149973397,-7.06752701789256,70.1035162724936));
#1036=CARTESIAN_POINT('Ctrl Pts',(176.269378277306,-11.127620037378,70.1035162724936));
#1037=CARTESIAN_POINT('Ctrl Pts',(131.140086697869,14.0554774075378,72.1035162724936));
#1038=CARTESIAN_POINT('Ctrl Pts',(131.140086697869,14.0554774075378,69.7035162724936));
#1039=CARTESIAN_POINT('Ctrl Pts',(127.072643414357,19.2131930197883,72.1035162724936));
#1040=CARTESIAN_POINT('Ctrl Pts',(127.072643414357,19.2131930197883,69.7035162724936));
#1041=CARTESIAN_POINT('Ctrl Pts',(112.492778060664,26.4382694809781,72.1035162724936));
#1042=CARTESIAN_POINT('Ctrl Pts',(112.492778060664,26.4382694809781,69.7035162724936));
#1043=CARTESIAN_POINT('Ctrl Pts',(103.757233342196,22.5650485615639,72.1035162724936));
#1044=CARTESIAN_POINT('Ctrl Pts',(103.757233342196,22.5650485615639,69.7035162724936));
#1045=CARTESIAN_POINT('',(119.64580143804,21.5261448411075,70.1035162724936));
#1046=CARTESIAN_POINT('',(119.64580143804,21.5261448411075,72.1035162724936));
#1047=CARTESIAN_POINT('',(131.140086697869,14.0554774075378,70.1035162724936));
#1048=CARTESIAN_POINT('',(131.140086697869,14.0554774075378,72.1035162724936));
#1049=CARTESIAN_POINT('Ctrl Pts',(119.64580143804,21.5261448411075,70.1035162724936));
#1050=CARTESIAN_POINT('Ctrl Pts',(124.707890277875,19.5541574961932,70.1035162724936));
#1051=CARTESIAN_POINT('Ctrl Pts',(129.164273563952,16.5609044134912,70.1035162724936));
#1052=CARTESIAN_POINT('Ctrl Pts',(131.140086697869,14.0554774075378,70.1035162724936));
#1053=CARTESIAN_POINT('Ctrl Pts',(127.811214294957,14.1126056881892,72.1035162724936));
#1054=CARTESIAN_POINT('Ctrl Pts',(127.811214294957,14.1126056881892,69.7035162724936));
#1055=CARTESIAN_POINT('Ctrl Pts',(128.786837994584,14.1151352567284,72.1035162724936));
#1056=CARTESIAN_POINT('Ctrl Pts',(128.786837994584,14.1151352567284,69.7035162724936));
#1057=CARTESIAN_POINT('Ctrl Pts',(129.803056180901,14.0790156136688,72.1035162724936));
#1058=CARTESIAN_POINT('Ctrl Pts',(129.803056180901,14.0790156136688,69.7035162724936));
#1059=CARTESIAN_POINT('Ctrl Pts',(131.140086697869,14.0554774075378,72.1035162724936));
#1060=CARTESIAN_POINT('Ctrl Pts',(131.140086697869,14.0554774075378,69.7035162724936));
#1061=CARTESIAN_POINT('',(127.811214294957,14.1126056881892,70.1035162724936));
#1062=CARTESIAN_POINT('',(127.811214294957,14.1126056881892,72.1035162724936));
#1063=CARTESIAN_POINT('Ctrl Pts',(131.140086697869,14.0554774075378,70.1035162724936));
#1064=CARTESIAN_POINT('Ctrl Pts',(129.803056180901,14.0790156136688,70.1035162724936));
#1065=CARTESIAN_POINT('Ctrl Pts',(128.786837994584,14.1151352567284,70.1035162724936));
#1066=CARTESIAN_POINT('Ctrl Pts',(127.811214294957,14.1126056881892,70.1035162724936));
#1067=CARTESIAN_POINT('Ctrl Pts',(169.240628089242,-26.9522449629914,72.1035162724936));
#1068=CARTESIAN_POINT('Ctrl Pts',(169.240628089242,-26.9522449629914,69.7035162724936));
#1069=CARTESIAN_POINT('Ctrl Pts',(169.120934835565,-27.9577740062193,72.1035162724936));
#1070=CARTESIAN_POINT('Ctrl Pts',(169.120934835565,-27.9577740062193,69.7035162724936));
#1071=CARTESIAN_POINT('Ctrl Pts',(169.108615850224,-28.9551751716161,72.1035162724936));
#1072=CARTESIAN_POINT('Ctrl Pts',(169.108615850224,-28.9551751716161,69.7035162724936));
#1073=CARTESIAN_POINT('Ctrl Pts',(169.195480869094,-29.9400161040715,72.1035162724936));
#1074=CARTESIAN_POINT('Ctrl Pts',(169.195480869094,-29.9400161040715,69.7035162724936));
#1075=CARTESIAN_POINT('',(169.240628089242,-26.9522449629914,70.1035162724936));
#1076=CARTESIAN_POINT('',(169.240628089242,-26.9522449629914,72.1035162724936));
#1077=CARTESIAN_POINT('',(169.195480869094,-29.9400161040715,70.1035162724936));
#1078=CARTESIAN_POINT('Origin',(227.92986716804,-30.1247764081446,70.1035162724936));
#1079=CARTESIAN_POINT('',(169.195480869094,-29.9400161040715,72.1035162724936));
#1080=CARTESIAN_POINT('Ctrl Pts',(180.589022352934,-16.9928303714177,72.1035162724936));
#1081=CARTESIAN_POINT('Ctrl Pts',(180.589022352934,-16.9928303714177,69.7035162724936));
#1082=CARTESIAN_POINT('Ctrl Pts',(183.640036052995,-24.4143617985435,72.1035162724936));
#1083=CARTESIAN_POINT('Ctrl Pts',(183.640036052995,-24.4143617985435,69.7035162724936));
#1084=CARTESIAN_POINT('Ctrl Pts',(175.263296803892,-30.0777491178418,72.1035162724936));
#1085=CARTESIAN_POINT('Ctrl Pts',(175.263296803892,-30.0777491178418,69.7035162724936));
#1086=CARTESIAN_POINT('Ctrl Pts',(169.240628089242,-26.9522449629914,72.1035162724936));
#1087=CARTESIAN_POINT('Ctrl Pts',(169.240628089242,-26.9522449629914,69.7035162724936));
#1088=CARTESIAN_POINT('',(180.589022352934,-16.9928303714177,70.1035162724936));
#1089=CARTESIAN_POINT('',(180.589022352934,-16.9928303714177,72.1035162724936));
#1090=CARTESIAN_POINT('Ctrl Pts',(169.240628089242,-26.9522449629914,70.1035162724936));
#1091=CARTESIAN_POINT('Ctrl Pts',(175.263296803892,-30.0777491178418,70.1035162724936));
#1092=CARTESIAN_POINT('Ctrl Pts',(183.640036052995,-24.4143617985435,70.1035162724936));
#1093=CARTESIAN_POINT('Ctrl Pts',(180.589022352934,-16.9928303714178,70.1035162724936));
#1094=CARTESIAN_POINT('Ctrl Pts',(189.782855017049,-21.1849666037861,72.1035162724936));
#1095=CARTESIAN_POINT('Ctrl Pts',(189.782855017049,-21.1849666037861,69.7035162724936));
#1096=CARTESIAN_POINT('Ctrl Pts',(186.784944938183,-20.2419668984288,72.1035162724936));
#1097=CARTESIAN_POINT('Ctrl Pts',(186.784944938183,-20.2419668984288,69.7035162724936));
#1098=CARTESIAN_POINT('Ctrl Pts',(183.700858171111,-18.7357981161626,72.1035162724936));
#1099=CARTESIAN_POINT('Ctrl Pts',(183.700858171111,-18.7357981161626,69.7035162724936));
#1100=CARTESIAN_POINT('Ctrl Pts',(180.623704861135,-16.5766648859172,72.1035162724936));
#1101=CARTESIAN_POINT('Ctrl Pts',(180.623704861135,-16.5766648859172,69.7035162724936));
#1102=CARTESIAN_POINT('',(189.782855017215,-21.1849666038384,70.1035162724936));
#1103=CARTESIAN_POINT('',(189.782855017049,-21.1849666037861,72.1035162724936));
#1104=CARTESIAN_POINT('',(180.623704861135,-16.5766648859172,70.1035162724936));
#1105=CARTESIAN_POINT('Ctrl Pts',(180.623704861135,-16.5766648859172,70.1035162724936));
#1106=CARTESIAN_POINT('Ctrl Pts',(183.700858171111,-18.7357981161626,70.1035162724936));
#1107=CARTESIAN_POINT('Ctrl Pts',(186.784944938183,-20.2419668984288,70.1035162724936));
#1108=CARTESIAN_POINT('Ctrl Pts',(189.782855017049,-21.1849666037861,70.1035162724936));
#1109=CARTESIAN_POINT('',(180.623704861135,-16.5766648859172,72.1035162724936));
#1110=CARTESIAN_POINT('Ctrl Pts',(155.846290432076,22.7364482575286,72.1035162724936));
#1111=CARTESIAN_POINT('Ctrl Pts',(155.846290432076,22.7364482575286,69.7035162724936));
#1112=CARTESIAN_POINT('Ctrl Pts',(157.695481957201,22.5317654077637,72.1035162724936));
#1113=CARTESIAN_POINT('Ctrl Pts',(157.695481957201,22.5317654077637,69.7035162724936));
#1114=CARTESIAN_POINT('Ctrl Pts',(159.400025888785,22.4486149229235,72.1035162724936));
#1115=CARTESIAN_POINT('Ctrl Pts',(159.400025888785,22.4486149229235,69.7035162724936));
#1116=CARTESIAN_POINT('Ctrl Pts',(160.979121092166,22.4709145863414,72.1035162724936));
#1117=CARTESIAN_POINT('Ctrl Pts',(160.979121092166,22.4709145863414,69.7035162724936));
#1118=CARTESIAN_POINT('',(155.846290432076,22.7364482575286,70.1035162724936));
#1119=CARTESIAN_POINT('',(155.846290432076,22.7364482575286,72.1035162724936));
#1120=CARTESIAN_POINT('',(160.979121092166,22.4709145863415,70.1035162724936));
#1121=CARTESIAN_POINT('Ctrl Pts',(160.979121092166,22.4709145863414,70.1035162724936));
#1122=CARTESIAN_POINT('Ctrl Pts',(159.400025888785,22.4486149229235,70.1035162724936));
#1123=CARTESIAN_POINT('Ctrl Pts',(157.695481957201,22.5317654077637,70.1035162724936));
#1124=CARTESIAN_POINT('Ctrl Pts',(155.846290432076,22.7364482575286,70.1035162724936));
#1125=CARTESIAN_POINT('',(160.979121092166,22.4709145863414,72.1035162724936));
#1126=CARTESIAN_POINT('Ctrl Pts',(140.830442738442,41.0315205002654,72.1035162724936));
#1127=CARTESIAN_POINT('Ctrl Pts',(140.830442738442,41.0315205002654,69.7035162724936));
#1128=CARTESIAN_POINT('Ctrl Pts',(138.390211600213,28.4332143414367,72.1035162724936));
#1129=CARTESIAN_POINT('Ctrl Pts',(138.390211600213,28.4332143414367,69.7035162724936));
#1130=CARTESIAN_POINT('Ctrl Pts',(149.814179700952,23.7251491001952,72.1035162724936));
#1131=CARTESIAN_POINT('Ctrl Pts',(149.814179700952,23.7251491001952,69.7035162724936));
#1132=CARTESIAN_POINT('Ctrl Pts',(155.846290432076,22.7364482575286,72.1035162724936));
#1133=CARTESIAN_POINT('Ctrl Pts',(155.846290432076,22.7364482575286,69.7035162724936));
#1134=CARTESIAN_POINT('',(146.407519522726,26.546329848827,70.1035162724936));
#1135=CARTESIAN_POINT('',(146.407519522726,26.546329848827,70.1035162724936));
#1136=CARTESIAN_POINT('Ctrl Pts',(155.846290432076,22.7364482575286,70.1035162724936));
#1137=CARTESIAN_POINT('Ctrl Pts',(153.196410051196,23.1707802985542,70.1035162724936));
#1138=CARTESIAN_POINT('Ctrl Pts',(149.506005137154,24.3228779700846,70.1035162724936));
#1139=CARTESIAN_POINT('Ctrl Pts',(146.407519522726,26.546329848827,70.1035162724936));
#1140=CARTESIAN_POINT('Origin',(175.578113255177,-16.3657019842309,70.1035162724936));
#1141=CARTESIAN_POINT('',(170.528113255177,-16.3657019842309,70.1035162724936));
#1142=CARTESIAN_POINT('Origin',(175.578113255177,-16.3657019842309,70.1035162724936));
#1143=CARTESIAN_POINT('Origin',(186.760942716851,-6.36848611024387,70.1035162724936));
#1144=CARTESIAN_POINT('',(142.932430625648,42.657841064525,70.1035162724936));
#1145=CARTESIAN_POINT('',(136.620024735932,49.7188627977107,70.1035162724936));
#1146=CARTESIAN_POINT('',(142.932430625648,42.657841064525,78.1035162724936));
#1147=CARTESIAN_POINT('',(142.932430625648,42.657841064525,74.1035162724936));
#1148=CARTESIAN_POINT('',(186.760942716851,-6.36848611024387,78.1035162724936));
#1149=CARTESIAN_POINT('',(136.620024735932,49.7188627977107,78.1035162724936));
#1150=CARTESIAN_POINT('',(186.760942716851,-6.36848611024387,70.1035162724936));
#1151=CARTESIAN_POINT('Origin',(132.764912659889,33.5682924529954,78.1035162724936));
#1152=CARTESIAN_POINT('',(147.294836740699,27.3395729012391,70.1035162724936));
#1153=CARTESIAN_POINT('',(99.275489120759,47.9246115923862,70.1035162724936));
#1154=CARTESIAN_POINT('',(147.294836740699,27.3395729012391,78.1035162724936));
#1155=CARTESIAN_POINT('',(147.294836740699,27.3395729012391,78.1035162724936));
#1156=CARTESIAN_POINT('',(132.764912659889,33.5682924529954,78.1035162724936));
#1157=CARTESIAN_POINT('',(99.275489120759,47.9246115923862,78.1035162724936));
#1158=CARTESIAN_POINT('',(132.764912659889,33.5682924529954,78.1035162724936));
#1159=CARTESIAN_POINT('Origin',(65.9370497025956,62.6331359959283,70.1035162724936));
#1160=CARTESIAN_POINT('',(133.453652678335,14.9658435604435,70.1035162724936));
#1161=CARTESIAN_POINT('',(126.497923808479,27.9657353683033,70.1035162724936));
#1162=CARTESIAN_POINT('Origin',(65.9370497025956,62.6331359959283,70.1035162724936));
#1163=CARTESIAN_POINT('',(118.014546914998,20.0678373825023,70.1035162724936));
#1164=CARTESIAN_POINT('Origin',(104.977962136305,-12.4136566919386,70.1035162724936));
#1165=CARTESIAN_POINT('',(119.708390433199,21.5820980949856,70.1035162724936));
#1166=CARTESIAN_POINT('Origin',(65.9370497025956,62.6331359959283,70.1035162724936));
#1167=CARTESIAN_POINT('Origin',(175.578113255177,-16.3657019842309,70.1035162724936));
#1168=CARTESIAN_POINT('Origin',(129.197376376673,30.0650532564894,78.1035162724936));
#1169=CARTESIAN_POINT('',(118.014546914998,20.0678373825023,78.1035162724936));
#1170=CARTESIAN_POINT('',(118.014546914998,20.0678373825023,70.1035162724936));
#1171=CARTESIAN_POINT('',(129.197376376673,30.0650532564894,78.1035162724936));
#1172=CARTESIAN_POINT('',(119.708390433199,21.5820980949856,78.1035162724936));
#1173=CARTESIAN_POINT('',(129.197376376673,30.0650532564894,78.1035162724936));
#1174=CARTESIAN_POINT('Origin',(133.690932549203,15.1779668070464,78.1035162724936));
#1175=CARTESIAN_POINT('',(133.690932549203,15.1779668070464,78.1035162724936));
#1176=CARTESIAN_POINT('',(124.298207208762,46.2959296788185,78.1035162724936));
#1177=CARTESIAN_POINT('',(133.690932549203,15.1779668070464,78.1035162724936));
#1178=CARTESIAN_POINT('Origin',(147.294836740699,27.3395729012391,78.1035162724936));
#1179=CARTESIAN_POINT('',(133.453652678335,14.9658435604435,78.1035162724936));
#1180=CARTESIAN_POINT('Origin',(142.932430625648,42.657841064525,78.1035162724936));
#1181=CARTESIAN_POINT('',(126.497923808479,27.9657353683033,78.1035162724936));
#1182=CARTESIAN_POINT('Origin',(104.977962136305,-12.4136566919386,70.1035162724936));
#1183=CARTESIAN_POINT('',(131.071230880212,10.9131803473645,78.1035162724936));
#1184=CARTESIAN_POINT('',(131.071230880212,10.9131803473645,70.1035162724936));
#1185=CARTESIAN_POINT('Origin',(104.977962136305,-12.4136566919386,78.1035162724936));
#1186=CARTESIAN_POINT('Origin',(65.9370497025956,62.6331359959283,78.1035162724936));
#1187=CARTESIAN_POINT('',(164.395283793503,-26.362917858218,78.1035162724936));
#1188=CARTESIAN_POINT('',(131.071230880212,10.9131803473645,78.1035162724936));
#1189=CARTESIAN_POINT('Origin',(175.578113255177,-16.3657019842309,78.1035162724936));
#1190=CARTESIAN_POINT('Origin',(65.9370497025956,62.6331359959283,70.1035162724936));
#1191=CARTESIAN_POINT('Origin',(175.578113255177,-16.3657019842309,70.1035162724936));
#1192=CARTESIAN_POINT('',(164.395283793503,-26.362917858218,70.1035162724936));
#1193=CARTESIAN_POINT('Origin',(131.071230880212,10.9131803473645,70.1035162724936));
#1194=UNCERTAINTY_MEASURE_WITH_UNIT(LENGTH_MEASURE(0.01),#1198,
'DISTANCE_ACCURACY_VALUE',
'Maximum model space distance between geometric entities at asserted c
onnectivities');
#1195=UNCERTAINTY_MEASURE_WITH_UNIT(LENGTH_MEASURE(0.01),#1198,
'DISTANCE_ACCURACY_VALUE',
'Maximum model space distance between geometric entities at asserted c
onnectivities');
#1196=(
GEOMETRIC_REPRESENTATION_CONTEXT(3)
GLOBAL_UNCERTAINTY_ASSIGNED_CONTEXT((#1194))
GLOBAL_UNIT_ASSIGNED_CONTEXT((#1198,#1200,#1201))
REPRESENTATION_CONTEXT('','3D')
);
#1197=(
GEOMETRIC_REPRESENTATION_CONTEXT(3)
GLOBAL_UNCERTAINTY_ASSIGNED_CONTEXT((#1195))
GLOBAL_UNIT_ASSIGNED_CONTEXT((#1198,#1200,#1201))
REPRESENTATION_CONTEXT('','3D')
);
#1198=(
LENGTH_UNIT()
NAMED_UNIT(*)
SI_UNIT(.MILLI.,.METRE.)
);
#1199=(
LENGTH_UNIT()
NAMED_UNIT(*)
SI_UNIT($,.METRE.)
);
#1200=(
NAMED_UNIT(*)
PLANE_ANGLE_UNIT()
SI_UNIT($,.RADIAN.)
);
#1201=(
NAMED_UNIT(*)
SI_UNIT($,.STERADIAN.)
SOLID_ANGLE_UNIT()
);
#1202=SHAPE_DEFINITION_REPRESENTATION(#1203,#1204);
#1203=PRODUCT_DEFINITION_SHAPE('',$,#1206);
#1204=SHAPE_REPRESENTATION('',(#660),#1196);
#1205=PRODUCT_DEFINITION_CONTEXT('part definition',#1210,'design');
#1206=PRODUCT_DEFINITION('FusionComponent','(Unsaved)',#1207,#1205);
#1207=PRODUCT_DEFINITION_FORMATION('',$,#1212);
#1208=PRODUCT_RELATED_PRODUCT_CATEGORY('(Unsaved)','(Unsaved)',(#1212));
#1209=APPLICATION_PROTOCOL_DEFINITION('international standard',
'automotive_design',2009,#1210);
#1210=APPLICATION_CONTEXT(
'Core Data for Automotive Mechanical Design Process');
#1211=PRODUCT_CONTEXT('part definition',#1210,'mechanical');
#1212=PRODUCT('FusionComponent','(Unsaved)',$,(#1211));
#1213=PRESENTATION_STYLE_ASSIGNMENT((#1215));
#1214=PRESENTATION_STYLE_ASSIGNMENT((#1216));
#1215=SURFACE_STYLE_USAGE(.BOTH.,#1217);
#1216=SURFACE_STYLE_USAGE(.BOTH.,#1218);
#1217=SURFACE_SIDE_STYLE('',(#1219));
#1218=SURFACE_SIDE_STYLE('',(#1220));
#1219=SURFACE_STYLE_FILL_AREA(#1221);
#1220=SURFACE_STYLE_FILL_AREA(#1222);
#1221=FILL_AREA_STYLE('Steel - Satin',(#1223));
#1222=FILL_AREA_STYLE('Opaque(243,203,124)',(#1224));
#1223=FILL_AREA_STYLE_COLOUR('Steel - Satin',#1225);
#1224=FILL_AREA_STYLE_COLOUR('Opaque(243,203,124)',#1226);
#1225=COLOUR_RGB('Steel - Satin',0.627450980392157,0.627450980392157,0.627450980392157);
#1226=COLOUR_RGB('Opaque(243,203,124)',0.952941176470588,0.796078431372549,
0.486274509803922);
ENDSEC;
END-ISO-10303-21;
