ISO-10303-21;
HEADER;
/* Generated by software containing ST-Developer
 * from STEP Tools, Inc. (www.steptools.com) 
 */

FILE_DESCRIPTION(
/* description */ (''),
/* implementation_level */ '2;1');

FILE_NAME(
/* name */ 'orumcekkoluasagibacak1.step',
/* time_stamp */ '2026-09-14T15:45:47+03:00',
/* author */ (''),
/* organization */ (''),
/* preprocessor_version */ 'ST-DEVELOPER v20.2',
/* originating_system */ 'Autodesk Translation Framework v15.15.0.0',
/* authorisation */ '');

FILE_SCHEMA (('AUTOMOTIVE_DESIGN { 1 0 10303 214 3 1 1 }'));
ENDSEC;

DATA;
#10=MECHANICAL_DESIGN_GEOMETRIC_PRESENTATION_REPRESENTATION('',(#13),#1109);
#11=SHAPE_REPRESENTATION_RELATIONSHIP('SRR','None',#1116,#12);
#12=ADVANCED_BREP_SHAPE_REPRESENTATION('',(#14),#1108);
#13=STYLED_ITEM('',(#1126),#14);
#14=MANIFOLD_SOLID_BREP('Body4',#615);
#15=ELLIPSE('',#640,50.551442364287,37.6543733828875);
#16=ELLIPSE('',#641,50.5514423642445,37.6543733828394);
#17=B_SPLINE_CURVE_WITH_KNOTS('',3,(#819,#820,#821,#822),.UNSPECIFIED.,
 .F.,.F.,(4,4),(0.206150601838535,0.590483798729312),.UNSPECIFIED.);
#18=B_SPLINE_CURVE_WITH_KNOTS('',3,(#825,#826,#827,#828),.UNSPECIFIED.,
 .F.,.F.,(4,4),(-0.590483798729312,-0.206150601838535),.UNSPECIFIED.);
#19=B_SPLINE_CURVE_WITH_KNOTS('',3,(#834,#835,#836,#837),.UNSPECIFIED.,
 .F.,.F.,(4,4),(-0.340317560063504,0.),.UNSPECIFIED.);
#20=B_SPLINE_CURVE_WITH_KNOTS('',3,(#839,#840,#841,#842),.UNSPECIFIED.,
 .F.,.F.,(4,4),(-1.,-0.436082646407894),.UNSPECIFIED.);
#21=B_SPLINE_CURVE_WITH_KNOTS('',3,(#852,#853,#854,#855),.UNSPECIFIED.,
 .F.,.F.,(4,4),(-0.546651399440501,-9.99999990147771E-7),.UNSPECIFIED.);
#22=B_SPLINE_CURVE_WITH_KNOTS('',3,(#869,#870,#871,#872),.UNSPECIFIED.,
 .F.,.F.,(4,4),(0.436082646407895,1.),.UNSPECIFIED.);
#23=B_SPLINE_CURVE_WITH_KNOTS('',3,(#883,#884,#885,#886),.UNSPECIFIED.,
 .F.,.F.,(4,4),(0.,0.340317560063503),.UNSPECIFIED.);
#24=B_SPLINE_CURVE_WITH_KNOTS('',3,(#897,#898,#899,#900),.UNSPECIFIED.,
 .F.,.F.,(4,4),(0.,0.591548699041244),.UNSPECIFIED.);
#25=B_SPLINE_CURVE_WITH_KNOTS('',3,(#904,#905,#906,#907),.UNSPECIFIED.,
 .F.,.F.,(4,4),(-0.591548699041244,0.),.UNSPECIFIED.);
#26=B_SPLINE_CURVE_WITH_KNOTS('',3,(#932,#933,#934,#935),.UNSPECIFIED.,
 .F.,.F.,(4,4),(0.,0.553618477541616),.UNSPECIFIED.);
#27=B_SPLINE_CURVE_WITH_KNOTS('',3,(#939,#940,#941,#942),.UNSPECIFIED.,
 .F.,.F.,(4,4),(-0.553618477541616,0.),.UNSPECIFIED.);
#28=B_SPLINE_CURVE_WITH_KNOTS('',3,(#953,#954,#955,#956),.UNSPECIFIED.,
 .F.,.F.,(4,4),(0.692715401105509,1.),.UNSPECIFIED.);
#29=B_SPLINE_CURVE_WITH_KNOTS('',3,(#959,#960,#961,#962),.UNSPECIFIED.,
 .F.,.F.,(4,4),(-1.,-0.692715401105509),.UNSPECIFIED.);
#30=B_SPLINE_CURVE_WITH_KNOTS('',3,(#973,#974,#975,#976),.UNSPECIFIED.,
 .F.,.F.,(4,4),(0.,0.460842938087227),.UNSPECIFIED.);
#31=B_SPLINE_CURVE_WITH_KNOTS('',3,(#980,#981,#982,#983),.UNSPECIFIED.,
 .F.,.F.,(4,4),(-0.460842938087227,0.),.UNSPECIFIED.);
#32=B_SPLINE_CURVE_WITH_KNOTS('',3,(#994,#995,#996,#997),.UNSPECIFIED.,
 .F.,.F.,(4,4),(0.,1.),.UNSPECIFIED.);
#33=B_SPLINE_CURVE_WITH_KNOTS('',3,(#1000,#1001,#1002,#1003),
 .UNSPECIFIED.,.F.,.F.,(4,4),(-1.,0.),.UNSPECIFIED.);
#34=B_SPLINE_CURVE_WITH_KNOTS('',3,(#1015,#1016,#1017,#1018),
 .UNSPECIFIED.,.F.,.F.,(4,4),(-1.,-0.405479207720483),.UNSPECIFIED.);
#35=B_SPLINE_CURVE_WITH_KNOTS('',3,(#1019,#1020,#1021,#1022),
 .UNSPECIFIED.,.F.,.F.,(4,4),(0.405479207722201,1.),.UNSPECIFIED.);
#36=B_SPLINE_CURVE_WITH_KNOTS('',3,(#1034,#1035,#1036,#1037),
 .UNSPECIFIED.,.F.,.F.,(4,4),(-0.546698714899287,-9.99999988260392E-7),
 .UNSPECIFIED.);
#37=B_SPLINE_SURFACE_WITH_KNOTS('',3,1,((#807,#808),(#809,#810),(#811,#812),
(#813,#814)),.UNSPECIFIED.,.F.,.F.,.F.,(4,4),(2,2),(0.206150601838535,1.),
(0.,0.239999999999999),.UNSPECIFIED.);
#38=B_SPLINE_SURFACE_WITH_KNOTS('',3,1,((#857,#858),(#859,#860),(#861,#862),
(#863,#864)),.UNSPECIFIED.,.F.,.F.,.F.,(4,4),(2,2),(-1.,0.),(0.,0.239999999999999),
 .UNSPECIFIED.);
#39=B_SPLINE_SURFACE_WITH_KNOTS('',3,1,((#873,#874),(#875,#876),(#877,#878),
(#879,#880)),.UNSPECIFIED.,.F.,.F.,.F.,(4,4),(2,2),(-1.,0.),(0.,0.239999999999999),
 .UNSPECIFIED.);
#40=B_SPLINE_SURFACE_WITH_KNOTS('',3,1,((#887,#888),(#889,#890),(#891,#892),
(#893,#894)),.UNSPECIFIED.,.F.,.F.,.F.,(4,4),(2,2),(0.,0.591548699041244),
(0.,0.239999999999999),.UNSPECIFIED.);
#41=B_SPLINE_SURFACE_WITH_KNOTS('',3,1,((#909,#910),(#911,#912),(#913,#914),
(#915,#916)),.UNSPECIFIED.,.F.,.F.,.F.,(4,4),(2,2),(0.677920488398658,1.),
(0.,0.239999999999999),.UNSPECIFIED.);
#42=B_SPLINE_SURFACE_WITH_KNOTS('',3,1,((#922,#923),(#924,#925),(#926,#927),
(#928,#929)),.UNSPECIFIED.,.F.,.F.,.F.,(4,4),(2,2),(0.,0.553618477541616),
(0.,0.239999999999999),.UNSPECIFIED.);
#43=B_SPLINE_SURFACE_WITH_KNOTS('',3,1,((#944,#945),(#946,#947),(#948,#949),
(#950,#951)),.UNSPECIFIED.,.F.,.F.,.F.,(4,4),(2,2),(0.692715401105509,1.),
(0.,0.239999999999999),.UNSPECIFIED.);
#44=B_SPLINE_SURFACE_WITH_KNOTS('',3,1,((#963,#964),(#965,#966),(#967,#968),
(#969,#970)),.UNSPECIFIED.,.F.,.F.,.F.,(4,4),(2,2),(0.,0.460842938087227),
(0.,0.239999999999999),.UNSPECIFIED.);
#45=B_SPLINE_SURFACE_WITH_KNOTS('',3,1,((#985,#986),(#987,#988),(#989,#990),
(#991,#992)),.UNSPECIFIED.,.F.,.F.,.F.,(4,4),(2,2),(0.,1.),(0.,0.239999999999999),
 .UNSPECIFIED.);
#46=B_SPLINE_SURFACE_WITH_KNOTS('',3,1,((#1004,#1005),(#1006,#1007),(#1008,
#1009),(#1010,#1011)),.UNSPECIFIED.,.F.,.F.,.F.,(4,4),(2,2),(0.,1.),(0.,
0.239999999999999),.UNSPECIFIED.);
#47=B_SPLINE_SURFACE_WITH_KNOTS('',3,1,((#1023,#1024),(#1025,#1026),(#1027,
#1028),(#1029,#1030)),.UNSPECIFIED.,.F.,.F.,.F.,(4,4),(2,2),(0.,1.),(0.,
0.239999999999999),.UNSPECIFIED.);
#48=FACE_BOUND('',#104,.T.);
#49=FACE_BOUND('',#107,.T.);
#50=FACE_BOUND('',#134,.T.);
#51=FACE_BOUND('',#138,.T.);
#52=PLANE('',#632);
#53=PLANE('',#636);
#54=PLANE('',#638);
#55=PLANE('',#639);
#56=PLANE('',#646);
#57=PLANE('',#647);
#58=PLANE('',#648);
#59=PLANE('',#649);
#60=PLANE('',#650);
#61=PLANE('',#651);
#62=PLANE('',#652);
#63=PLANE('',#653);
#64=PLANE('',#654);
#65=PLANE('',#655);
#66=PLANE('',#659);
#67=PLANE('',#662);
#68=PLANE('',#663);
#69=FACE_OUTER_BOUND('',#102,.T.);
#70=FACE_OUTER_BOUND('',#103,.T.);
#71=FACE_OUTER_BOUND('',#105,.T.);
#72=FACE_OUTER_BOUND('',#106,.T.);
#73=FACE_OUTER_BOUND('',#108,.T.);
#74=FACE_OUTER_BOUND('',#109,.T.);
#75=FACE_OUTER_BOUND('',#110,.T.);
#76=FACE_OUTER_BOUND('',#111,.T.);
#77=FACE_OUTER_BOUND('',#112,.T.);
#78=FACE_OUTER_BOUND('',#113,.T.);
#79=FACE_OUTER_BOUND('',#114,.T.);
#80=FACE_OUTER_BOUND('',#115,.T.);
#81=FACE_OUTER_BOUND('',#116,.T.);
#82=FACE_OUTER_BOUND('',#117,.T.);
#83=FACE_OUTER_BOUND('',#118,.T.);
#84=FACE_OUTER_BOUND('',#119,.T.);
#85=FACE_OUTER_BOUND('',#120,.T.);
#86=FACE_OUTER_BOUND('',#121,.T.);
#87=FACE_OUTER_BOUND('',#122,.T.);
#88=FACE_OUTER_BOUND('',#123,.T.);
#89=FACE_OUTER_BOUND('',#124,.T.);
#90=FACE_OUTER_BOUND('',#125,.T.);
#91=FACE_OUTER_BOUND('',#126,.T.);
#92=FACE_OUTER_BOUND('',#127,.T.);
#93=FACE_OUTER_BOUND('',#128,.T.);
#94=FACE_OUTER_BOUND('',#129,.T.);
#95=FACE_OUTER_BOUND('',#130,.T.);
#96=FACE_OUTER_BOUND('',#131,.T.);
#97=FACE_OUTER_BOUND('',#132,.T.);
#98=FACE_OUTER_BOUND('',#133,.T.);
#99=FACE_OUTER_BOUND('',#135,.T.);
#100=FACE_OUTER_BOUND('',#136,.T.);
#101=FACE_OUTER_BOUND('',#137,.T.);
#102=EDGE_LOOP('',(#403,#404,#405,#406));
#103=EDGE_LOOP('',(#407));
#104=EDGE_LOOP('',(#408));
#105=EDGE_LOOP('',(#409,#410,#411,#412));
#106=EDGE_LOOP('',(#413));
#107=EDGE_LOOP('',(#414));
#108=EDGE_LOOP('',(#415,#416,#417,#418));
#109=EDGE_LOOP('',(#419,#420,#421,#422,#423,#424,#425));
#110=EDGE_LOOP('',(#426,#427,#428));
#111=EDGE_LOOP('',(#429,#430,#431,#432));
#112=EDGE_LOOP('',(#433,#434,#435,#436));
#113=EDGE_LOOP('',(#437,#438,#439,#440));
#114=EDGE_LOOP('',(#441,#442,#443,#444));
#115=EDGE_LOOP('',(#445,#446,#447,#448));
#116=EDGE_LOOP('',(#449,#450,#451,#452));
#117=EDGE_LOOP('',(#453,#454,#455,#456));
#118=EDGE_LOOP('',(#457,#458,#459,#460));
#119=EDGE_LOOP('',(#461,#462,#463,#464));
#120=EDGE_LOOP('',(#465,#466,#467,#468));
#121=EDGE_LOOP('',(#469,#470,#471,#472,#473,#474));
#122=EDGE_LOOP('',(#475,#476,#477,#478,#479,#480));
#123=EDGE_LOOP('',(#481,#482,#483,#484,#485,#486));
#124=EDGE_LOOP('',(#487,#488,#489,#490));
#125=EDGE_LOOP('',(#491,#492,#493,#494,#495,#496,#497,#498,#499));
#126=EDGE_LOOP('',(#500,#501,#502));
#127=EDGE_LOOP('',(#503,#504,#505,#506));
#128=EDGE_LOOP('',(#507,#508,#509,#510,#511,#512,#513,#514,#515,#516));
#129=EDGE_LOOP('',(#517,#518,#519,#520,#521,#522));
#130=EDGE_LOOP('',(#523,#524,#525,#526,#527,#528));
#131=EDGE_LOOP('',(#529,#530,#531,#532,#533,#534,#535,#536));
#132=EDGE_LOOP('',(#537,#538,#539,#540));
#133=EDGE_LOOP('',(#541,#542,#543,#544,#545,#546,#547,#548,#549));
#134=EDGE_LOOP('',(#550));
#135=EDGE_LOOP('',(#551,#552,#553,#554));
#136=EDGE_LOOP('',(#555,#556,#557,#558,#559,#560,#561,#562));
#137=EDGE_LOOP('',(#563,#564,#565,#566,#567,#568,#569,#570,#571,#572,#573,
#574,#575));
#138=EDGE_LOOP('',(#576));
#139=LINE('',#795,#193);
#140=LINE('',#803,#194);
#141=LINE('',#817,#195);
#142=LINE('',#824,#196);
#143=LINE('',#832,#197);
#144=LINE('',#844,#198);
#145=LINE('',#845,#199);
#146=LINE('',#846,#200);
#147=LINE('',#850,#201);
#148=LINE('',#856,#202);
#149=LINE('',#866,#203);
#150=LINE('',#868,#204);
#151=LINE('',#882,#205);
#152=LINE('',#902,#206);
#153=LINE('',#908,#207);
#154=LINE('',#920,#208);
#155=LINE('',#937,#209);
#156=LINE('',#943,#210);
#157=LINE('',#958,#211);
#158=LINE('',#978,#212);
#159=LINE('',#984,#213);
#160=LINE('',#999,#214);
#161=LINE('',#1014,#215);
#162=LINE('',#1032,#216);
#163=LINE('',#1038,#217);
#164=LINE('',#1045,#218);
#165=LINE('',#1048,#219);
#166=LINE('',#1051,#220);
#167=LINE('',#1053,#221);
#168=LINE('',#1055,#222);
#169=LINE('',#1056,#223);
#170=LINE('',#1058,#224);
#171=LINE('',#1060,#225);
#172=LINE('',#1061,#226);
#173=LINE('',#1064,#227);
#174=LINE('',#1065,#228);
#175=LINE('',#1067,#229);
#176=LINE('',#1068,#230);
#177=LINE('',#1070,#231);
#178=LINE('',#1072,#232);
#179=LINE('',#1074,#233);
#180=LINE('',#1076,#234);
#181=LINE('',#1077,#235);
#182=LINE('',#1080,#236);
#183=LINE('',#1081,#237);
#184=LINE('',#1083,#238);
#185=LINE('',#1086,#239);
#186=LINE('',#1088,#240);
#187=LINE('',#1089,#241);
#188=LINE('',#1094,#242);
#189=LINE('',#1097,#243);
#190=LINE('',#1101,#244);
#191=LINE('',#1103,#245);
#192=LINE('',#1104,#246);
#193=VECTOR('',#670,2.7);
#194=VECTOR('',#681,1.5);
#195=VECTOR('',#686,10.);
#196=VECTOR('',#687,10.);
#197=VECTOR('',#690,10.);
#198=VECTOR('',#691,10.);
#199=VECTOR('',#692,10.);
#200=VECTOR('',#693,10.);
#201=VECTOR('',#696,10.);
#202=VECTOR('',#697,10.);
#203=VECTOR('',#698,10.);
#204=VECTOR('',#699,10.);
#205=VECTOR('',#700,10.);
#206=VECTOR('',#701,10.);
#207=VECTOR('',#702,10.);
#208=VECTOR('',#705,10.);
#209=VECTOR('',#708,10.);
#210=VECTOR('',#709,10.);
#211=VECTOR('',#710,10.);
#212=VECTOR('',#711,10.);
#213=VECTOR('',#712,10.);
#214=VECTOR('',#713,10.);
#215=VECTOR('',#714,10.);
#216=VECTOR('',#715,10.);
#217=VECTOR('',#716,10.);
#218=VECTOR('',#723,10.);
#219=VECTOR('',#726,10.);
#220=VECTOR('',#729,10.);
#221=VECTOR('',#730,10.);
#222=VECTOR('',#731,10.);
#223=VECTOR('',#732,10.);
#224=VECTOR('',#735,10.);
#225=VECTOR('',#736,10.);
#226=VECTOR('',#737,10.);
#227=VECTOR('',#740,10.);
#228=VECTOR('',#741,10.);
#229=VECTOR('',#744,10.);
#230=VECTOR('',#745,10.);
#231=VECTOR('',#748,10.);
#232=VECTOR('',#751,10.);
#233=VECTOR('',#754,10.);
#234=VECTOR('',#755,10.);
#235=VECTOR('',#756,10.);
#236=VECTOR('',#759,10.);
#237=VECTOR('',#760,10.);
#238=VECTOR('',#763,10.);
#239=VECTOR('',#766,10.);
#240=VECTOR('',#767,10.);
#241=VECTOR('',#768,10.);
#242=VECTOR('',#773,10.);
#243=VECTOR('',#778,10.);
#244=VECTOR('',#783,5.05000000000001);
#245=VECTOR('',#786,10.);
#246=VECTOR('',#787,10.);
#247=CIRCLE('',#630,2.7);
#248=CIRCLE('',#631,2.7);
#249=CIRCLE('',#633,1.5);
#250=CIRCLE('',#635,1.5);
#251=CIRCLE('',#637,5.05000000000001);
#252=CIRCLE('',#643,15.);
#253=CIRCLE('',#644,15.);
#254=CIRCLE('',#645,15.);
#255=CIRCLE('',#657,35.0000000000001);
#256=CIRCLE('',#658,35.0000000000001);
#257=CIRCLE('',#661,5.05000000000001);
#258=VERTEX_POINT('',#792);
#259=VERTEX_POINT('',#794);
#260=VERTEX_POINT('',#798);
#261=VERTEX_POINT('',#801);
#262=VERTEX_POINT('',#805);
#263=VERTEX_POINT('',#815);
#264=VERTEX_POINT('',#816);
#265=VERTEX_POINT('',#818);
#266=VERTEX_POINT('',#823);
#267=VERTEX_POINT('',#830);
#268=VERTEX_POINT('',#831);
#269=VERTEX_POINT('',#833);
#270=VERTEX_POINT('',#838);
#271=VERTEX_POINT('',#843);
#272=VERTEX_POINT('',#848);
#273=VERTEX_POINT('',#849);
#274=VERTEX_POINT('',#851);
#275=VERTEX_POINT('',#865);
#276=VERTEX_POINT('',#867);
#277=VERTEX_POINT('',#881);
#278=VERTEX_POINT('',#895);
#279=VERTEX_POINT('',#896);
#280=VERTEX_POINT('',#901);
#281=VERTEX_POINT('',#903);
#282=VERTEX_POINT('',#917);
#283=VERTEX_POINT('',#919);
#284=VERTEX_POINT('',#930);
#285=VERTEX_POINT('',#931);
#286=VERTEX_POINT('',#936);
#287=VERTEX_POINT('',#938);
#288=VERTEX_POINT('',#952);
#289=VERTEX_POINT('',#957);
#290=VERTEX_POINT('',#971);
#291=VERTEX_POINT('',#972);
#292=VERTEX_POINT('',#977);
#293=VERTEX_POINT('',#979);
#294=VERTEX_POINT('',#993);
#295=VERTEX_POINT('',#998);
#296=VERTEX_POINT('',#1012);
#297=VERTEX_POINT('',#1013);
#298=VERTEX_POINT('',#1031);
#299=VERTEX_POINT('',#1033);
#300=VERTEX_POINT('',#1040);
#301=VERTEX_POINT('',#1042);
#302=VERTEX_POINT('',#1044);
#303=VERTEX_POINT('',#1046);
#304=VERTEX_POINT('',#1050);
#305=VERTEX_POINT('',#1052);
#306=VERTEX_POINT('',#1054);
#307=VERTEX_POINT('',#1059);
#308=VERTEX_POINT('',#1063);
#309=VERTEX_POINT('',#1075);
#310=VERTEX_POINT('',#1079);
#311=VERTEX_POINT('',#1085);
#312=VERTEX_POINT('',#1087);
#313=VERTEX_POINT('',#1091);
#314=VERTEX_POINT('',#1093);
#315=VERTEX_POINT('',#1099);
#316=EDGE_CURVE('',#258,#258,#247,.T.);
#317=EDGE_CURVE('',#258,#259,#139,.T.);
#318=EDGE_CURVE('',#259,#259,#248,.T.);
#319=EDGE_CURVE('',#260,#260,#249,.T.);
#320=EDGE_CURVE('',#261,#261,#250,.T.);
#321=EDGE_CURVE('',#261,#260,#140,.T.);
#322=EDGE_CURVE('',#262,#262,#251,.T.);
#323=EDGE_CURVE('',#263,#264,#141,.T.);
#324=EDGE_CURVE('',#265,#263,#17,.T.);
#325=EDGE_CURVE('',#266,#265,#142,.T.);
#326=EDGE_CURVE('',#264,#266,#18,.T.);
#327=EDGE_CURVE('',#267,#268,#143,.T.);
#328=EDGE_CURVE('',#267,#269,#19,.T.);
#329=EDGE_CURVE('',#269,#270,#20,.T.);
#330=EDGE_CURVE('',#271,#270,#144,.T.);
#331=EDGE_CURVE('',#265,#271,#145,.T.);
#332=EDGE_CURVE('',#268,#263,#146,.T.);
#333=EDGE_CURVE('',#272,#273,#147,.T.);
#334=EDGE_CURVE('',#272,#274,#21,.T.);
#335=EDGE_CURVE('',#273,#274,#148,.T.);
#336=EDGE_CURVE('',#270,#275,#149,.T.);
#337=EDGE_CURVE('',#269,#276,#150,.T.);
#338=EDGE_CURVE('',#275,#276,#22,.T.);
#339=EDGE_CURVE('',#277,#267,#151,.T.);
#340=EDGE_CURVE('',#276,#277,#23,.T.);
#341=EDGE_CURVE('',#278,#279,#24,.T.);
#342=EDGE_CURVE('',#278,#280,#152,.T.);
#343=EDGE_CURVE('',#281,#280,#25,.T.);
#344=EDGE_CURVE('',#279,#281,#153,.T.);
#345=EDGE_CURVE('',#282,#278,#15,.T.);
#346=EDGE_CURVE('',#283,#282,#154,.T.);
#347=EDGE_CURVE('',#280,#283,#16,.T.);
#348=EDGE_CURVE('',#284,#285,#26,.T.);
#349=EDGE_CURVE('',#284,#286,#155,.T.);
#350=EDGE_CURVE('',#287,#286,#27,.T.);
#351=EDGE_CURVE('',#285,#287,#156,.T.);
#352=EDGE_CURVE('',#288,#284,#28,.T.);
#353=EDGE_CURVE('',#289,#288,#157,.T.);
#354=EDGE_CURVE('',#286,#289,#29,.T.);
#355=EDGE_CURVE('',#290,#291,#30,.T.);
#356=EDGE_CURVE('',#290,#292,#158,.T.);
#357=EDGE_CURVE('',#293,#292,#31,.T.);
#358=EDGE_CURVE('',#291,#293,#159,.T.);
#359=EDGE_CURVE('',#294,#290,#32,.T.);
#360=EDGE_CURVE('',#294,#295,#160,.T.);
#361=EDGE_CURVE('',#292,#295,#33,.T.);
#362=EDGE_CURVE('',#296,#297,#161,.T.);
#363=EDGE_CURVE('',#295,#296,#34,.T.);
#364=EDGE_CURVE('',#297,#294,#35,.T.);
#365=EDGE_CURVE('',#298,#272,#162,.T.);
#366=EDGE_CURVE('',#299,#298,#36,.T.);
#367=EDGE_CURVE('',#274,#299,#163,.T.);
#368=EDGE_CURVE('',#300,#285,#252,.T.);
#369=EDGE_CURVE('',#287,#301,#253,.T.);
#370=EDGE_CURVE('',#301,#302,#164,.T.);
#371=EDGE_CURVE('',#303,#302,#254,.T.);
#372=EDGE_CURVE('',#300,#303,#165,.T.);
#373=EDGE_CURVE('',#304,#273,#166,.T.);
#374=EDGE_CURVE('',#305,#304,#167,.T.);
#375=EDGE_CURVE('',#305,#306,#168,.T.);
#376=EDGE_CURVE('',#298,#306,#169,.T.);
#377=EDGE_CURVE('',#306,#264,#170,.T.);
#378=EDGE_CURVE('',#307,#305,#171,.T.);
#379=EDGE_CURVE('',#307,#268,#172,.T.);
#380=EDGE_CURVE('',#277,#308,#173,.T.);
#381=EDGE_CURVE('',#308,#275,#174,.T.);
#382=EDGE_CURVE('',#296,#299,#175,.T.);
#383=EDGE_CURVE('',#266,#293,#176,.T.);
#384=EDGE_CURVE('',#281,#283,#177,.T.);
#385=EDGE_CURVE('',#289,#301,#178,.T.);
#386=EDGE_CURVE('',#288,#291,#179,.T.);
#387=EDGE_CURVE('',#271,#309,#180,.T.);
#388=EDGE_CURVE('',#302,#309,#181,.T.);
#389=EDGE_CURVE('',#310,#307,#182,.T.);
#390=EDGE_CURVE('',#310,#308,#183,.T.);
#391=EDGE_CURVE('',#309,#310,#184,.T.);
#392=EDGE_CURVE('',#297,#311,#185,.T.);
#393=EDGE_CURVE('',#312,#311,#186,.T.);
#394=EDGE_CURVE('',#304,#312,#187,.T.);
#395=EDGE_CURVE('',#311,#313,#255,.T.);
#396=EDGE_CURVE('',#313,#314,#188,.T.);
#397=EDGE_CURVE('',#312,#314,#256,.T.);
#398=EDGE_CURVE('',#314,#303,#189,.T.);
#399=EDGE_CURVE('',#315,#315,#257,.T.);
#400=EDGE_CURVE('',#315,#262,#190,.T.);
#401=EDGE_CURVE('',#282,#300,#191,.T.);
#402=EDGE_CURVE('',#313,#279,#192,.T.);
#403=ORIENTED_EDGE('',*,*,#316,.F.);
#404=ORIENTED_EDGE('',*,*,#317,.T.);
#405=ORIENTED_EDGE('',*,*,#318,.T.);
#406=ORIENTED_EDGE('',*,*,#317,.F.);
#407=ORIENTED_EDGE('',*,*,#318,.F.);
#408=ORIENTED_EDGE('',*,*,#319,.F.);
#409=ORIENTED_EDGE('',*,*,#320,.F.);
#410=ORIENTED_EDGE('',*,*,#321,.T.);
#411=ORIENTED_EDGE('',*,*,#319,.T.);
#412=ORIENTED_EDGE('',*,*,#321,.F.);
#413=ORIENTED_EDGE('',*,*,#322,.F.);
#414=ORIENTED_EDGE('',*,*,#320,.T.);
#415=ORIENTED_EDGE('',*,*,#323,.F.);
#416=ORIENTED_EDGE('',*,*,#324,.F.);
#417=ORIENTED_EDGE('',*,*,#325,.F.);
#418=ORIENTED_EDGE('',*,*,#326,.F.);
#419=ORIENTED_EDGE('',*,*,#327,.F.);
#420=ORIENTED_EDGE('',*,*,#328,.T.);
#421=ORIENTED_EDGE('',*,*,#329,.T.);
#422=ORIENTED_EDGE('',*,*,#330,.F.);
#423=ORIENTED_EDGE('',*,*,#331,.F.);
#424=ORIENTED_EDGE('',*,*,#324,.T.);
#425=ORIENTED_EDGE('',*,*,#332,.F.);
#426=ORIENTED_EDGE('',*,*,#333,.F.);
#427=ORIENTED_EDGE('',*,*,#334,.T.);
#428=ORIENTED_EDGE('',*,*,#335,.F.);
#429=ORIENTED_EDGE('',*,*,#336,.F.);
#430=ORIENTED_EDGE('',*,*,#329,.F.);
#431=ORIENTED_EDGE('',*,*,#337,.T.);
#432=ORIENTED_EDGE('',*,*,#338,.F.);
#433=ORIENTED_EDGE('',*,*,#339,.F.);
#434=ORIENTED_EDGE('',*,*,#340,.F.);
#435=ORIENTED_EDGE('',*,*,#337,.F.);
#436=ORIENTED_EDGE('',*,*,#328,.F.);
#437=ORIENTED_EDGE('',*,*,#341,.F.);
#438=ORIENTED_EDGE('',*,*,#342,.T.);
#439=ORIENTED_EDGE('',*,*,#343,.F.);
#440=ORIENTED_EDGE('',*,*,#344,.F.);
#441=ORIENTED_EDGE('',*,*,#345,.F.);
#442=ORIENTED_EDGE('',*,*,#346,.F.);
#443=ORIENTED_EDGE('',*,*,#347,.F.);
#444=ORIENTED_EDGE('',*,*,#342,.F.);
#445=ORIENTED_EDGE('',*,*,#348,.F.);
#446=ORIENTED_EDGE('',*,*,#349,.T.);
#447=ORIENTED_EDGE('',*,*,#350,.F.);
#448=ORIENTED_EDGE('',*,*,#351,.F.);
#449=ORIENTED_EDGE('',*,*,#352,.F.);
#450=ORIENTED_EDGE('',*,*,#353,.F.);
#451=ORIENTED_EDGE('',*,*,#354,.F.);
#452=ORIENTED_EDGE('',*,*,#349,.F.);
#453=ORIENTED_EDGE('',*,*,#355,.F.);
#454=ORIENTED_EDGE('',*,*,#356,.T.);
#455=ORIENTED_EDGE('',*,*,#357,.F.);
#456=ORIENTED_EDGE('',*,*,#358,.F.);
#457=ORIENTED_EDGE('',*,*,#359,.F.);
#458=ORIENTED_EDGE('',*,*,#360,.T.);
#459=ORIENTED_EDGE('',*,*,#361,.F.);
#460=ORIENTED_EDGE('',*,*,#356,.F.);
#461=ORIENTED_EDGE('',*,*,#362,.F.);
#462=ORIENTED_EDGE('',*,*,#363,.F.);
#463=ORIENTED_EDGE('',*,*,#360,.F.);
#464=ORIENTED_EDGE('',*,*,#364,.F.);
#465=ORIENTED_EDGE('',*,*,#365,.F.);
#466=ORIENTED_EDGE('',*,*,#366,.F.);
#467=ORIENTED_EDGE('',*,*,#367,.F.);
#468=ORIENTED_EDGE('',*,*,#334,.F.);
#469=ORIENTED_EDGE('',*,*,#368,.T.);
#470=ORIENTED_EDGE('',*,*,#351,.T.);
#471=ORIENTED_EDGE('',*,*,#369,.T.);
#472=ORIENTED_EDGE('',*,*,#370,.T.);
#473=ORIENTED_EDGE('',*,*,#371,.F.);
#474=ORIENTED_EDGE('',*,*,#372,.F.);
#475=ORIENTED_EDGE('',*,*,#365,.T.);
#476=ORIENTED_EDGE('',*,*,#333,.T.);
#477=ORIENTED_EDGE('',*,*,#373,.F.);
#478=ORIENTED_EDGE('',*,*,#374,.F.);
#479=ORIENTED_EDGE('',*,*,#375,.T.);
#480=ORIENTED_EDGE('',*,*,#376,.F.);
#481=ORIENTED_EDGE('',*,*,#332,.T.);
#482=ORIENTED_EDGE('',*,*,#323,.T.);
#483=ORIENTED_EDGE('',*,*,#377,.F.);
#484=ORIENTED_EDGE('',*,*,#375,.F.);
#485=ORIENTED_EDGE('',*,*,#378,.F.);
#486=ORIENTED_EDGE('',*,*,#379,.T.);
#487=ORIENTED_EDGE('',*,*,#340,.T.);
#488=ORIENTED_EDGE('',*,*,#380,.T.);
#489=ORIENTED_EDGE('',*,*,#381,.T.);
#490=ORIENTED_EDGE('',*,*,#338,.T.);
#491=ORIENTED_EDGE('',*,*,#357,.T.);
#492=ORIENTED_EDGE('',*,*,#361,.T.);
#493=ORIENTED_EDGE('',*,*,#363,.T.);
#494=ORIENTED_EDGE('',*,*,#382,.T.);
#495=ORIENTED_EDGE('',*,*,#366,.T.);
#496=ORIENTED_EDGE('',*,*,#376,.T.);
#497=ORIENTED_EDGE('',*,*,#377,.T.);
#498=ORIENTED_EDGE('',*,*,#326,.T.);
#499=ORIENTED_EDGE('',*,*,#383,.T.);
#500=ORIENTED_EDGE('',*,*,#347,.T.);
#501=ORIENTED_EDGE('',*,*,#384,.F.);
#502=ORIENTED_EDGE('',*,*,#343,.T.);
#503=ORIENTED_EDGE('',*,*,#350,.T.);
#504=ORIENTED_EDGE('',*,*,#354,.T.);
#505=ORIENTED_EDGE('',*,*,#385,.T.);
#506=ORIENTED_EDGE('',*,*,#369,.F.);
#507=ORIENTED_EDGE('',*,*,#353,.T.);
#508=ORIENTED_EDGE('',*,*,#386,.T.);
#509=ORIENTED_EDGE('',*,*,#358,.T.);
#510=ORIENTED_EDGE('',*,*,#383,.F.);
#511=ORIENTED_EDGE('',*,*,#325,.T.);
#512=ORIENTED_EDGE('',*,*,#331,.T.);
#513=ORIENTED_EDGE('',*,*,#387,.T.);
#514=ORIENTED_EDGE('',*,*,#388,.F.);
#515=ORIENTED_EDGE('',*,*,#370,.F.);
#516=ORIENTED_EDGE('',*,*,#385,.F.);
#517=ORIENTED_EDGE('',*,*,#327,.T.);
#518=ORIENTED_EDGE('',*,*,#379,.F.);
#519=ORIENTED_EDGE('',*,*,#389,.F.);
#520=ORIENTED_EDGE('',*,*,#390,.T.);
#521=ORIENTED_EDGE('',*,*,#380,.F.);
#522=ORIENTED_EDGE('',*,*,#339,.T.);
#523=ORIENTED_EDGE('',*,*,#336,.T.);
#524=ORIENTED_EDGE('',*,*,#381,.F.);
#525=ORIENTED_EDGE('',*,*,#390,.F.);
#526=ORIENTED_EDGE('',*,*,#391,.F.);
#527=ORIENTED_EDGE('',*,*,#387,.F.);
#528=ORIENTED_EDGE('',*,*,#330,.T.);
#529=ORIENTED_EDGE('',*,*,#392,.T.);
#530=ORIENTED_EDGE('',*,*,#393,.F.);
#531=ORIENTED_EDGE('',*,*,#394,.F.);
#532=ORIENTED_EDGE('',*,*,#373,.T.);
#533=ORIENTED_EDGE('',*,*,#335,.T.);
#534=ORIENTED_EDGE('',*,*,#367,.T.);
#535=ORIENTED_EDGE('',*,*,#382,.F.);
#536=ORIENTED_EDGE('',*,*,#362,.T.);
#537=ORIENTED_EDGE('',*,*,#395,.T.);
#538=ORIENTED_EDGE('',*,*,#396,.T.);
#539=ORIENTED_EDGE('',*,*,#397,.F.);
#540=ORIENTED_EDGE('',*,*,#393,.T.);
#541=ORIENTED_EDGE('',*,*,#394,.T.);
#542=ORIENTED_EDGE('',*,*,#397,.T.);
#543=ORIENTED_EDGE('',*,*,#398,.T.);
#544=ORIENTED_EDGE('',*,*,#371,.T.);
#545=ORIENTED_EDGE('',*,*,#388,.T.);
#546=ORIENTED_EDGE('',*,*,#391,.T.);
#547=ORIENTED_EDGE('',*,*,#389,.T.);
#548=ORIENTED_EDGE('',*,*,#378,.T.);
#549=ORIENTED_EDGE('',*,*,#374,.T.);
#550=ORIENTED_EDGE('',*,*,#316,.T.);
#551=ORIENTED_EDGE('',*,*,#399,.T.);
#552=ORIENTED_EDGE('',*,*,#400,.T.);
#553=ORIENTED_EDGE('',*,*,#322,.T.);
#554=ORIENTED_EDGE('',*,*,#400,.F.);
#555=ORIENTED_EDGE('',*,*,#401,.T.);
#556=ORIENTED_EDGE('',*,*,#372,.T.);
#557=ORIENTED_EDGE('',*,*,#398,.F.);
#558=ORIENTED_EDGE('',*,*,#396,.F.);
#559=ORIENTED_EDGE('',*,*,#402,.T.);
#560=ORIENTED_EDGE('',*,*,#344,.T.);
#561=ORIENTED_EDGE('',*,*,#384,.T.);
#562=ORIENTED_EDGE('',*,*,#346,.T.);
#563=ORIENTED_EDGE('',*,*,#368,.F.);
#564=ORIENTED_EDGE('',*,*,#401,.F.);
#565=ORIENTED_EDGE('',*,*,#345,.T.);
#566=ORIENTED_EDGE('',*,*,#341,.T.);
#567=ORIENTED_EDGE('',*,*,#402,.F.);
#568=ORIENTED_EDGE('',*,*,#395,.F.);
#569=ORIENTED_EDGE('',*,*,#392,.F.);
#570=ORIENTED_EDGE('',*,*,#364,.T.);
#571=ORIENTED_EDGE('',*,*,#359,.T.);
#572=ORIENTED_EDGE('',*,*,#355,.T.);
#573=ORIENTED_EDGE('',*,*,#386,.F.);
#574=ORIENTED_EDGE('',*,*,#352,.T.);
#575=ORIENTED_EDGE('',*,*,#348,.T.);
#576=ORIENTED_EDGE('',*,*,#399,.F.);
#577=CYLINDRICAL_SURFACE('',#629,2.7);
#578=CYLINDRICAL_SURFACE('',#634,1.5);
#579=CYLINDRICAL_SURFACE('',#642,15.);
#580=CYLINDRICAL_SURFACE('',#656,35.0000000000001);
#581=CYLINDRICAL_SURFACE('',#660,5.05000000000001);
#582=ADVANCED_FACE('',(#69),#577,.F.);
#583=ADVANCED_FACE('',(#70,#48),#52,.T.);
#584=ADVANCED_FACE('',(#71),#578,.F.);
#585=ADVANCED_FACE('',(#72,#49),#53,.F.);
#586=ADVANCED_FACE('',(#73),#37,.F.);
#587=ADVANCED_FACE('',(#74),#54,.T.);
#588=ADVANCED_FACE('',(#75),#55,.T.);
#589=ADVANCED_FACE('',(#76),#38,.F.);
#590=ADVANCED_FACE('',(#77),#39,.F.);
#591=ADVANCED_FACE('',(#78),#40,.F.);
#592=ADVANCED_FACE('',(#79),#41,.F.);
#593=ADVANCED_FACE('',(#80),#42,.F.);
#594=ADVANCED_FACE('',(#81),#43,.F.);
#595=ADVANCED_FACE('',(#82),#44,.F.);
#596=ADVANCED_FACE('',(#83),#45,.F.);
#597=ADVANCED_FACE('',(#84),#46,.F.);
#598=ADVANCED_FACE('',(#85),#47,.F.);
#599=ADVANCED_FACE('',(#86),#579,.T.);
#600=ADVANCED_FACE('',(#87),#56,.F.);
#601=ADVANCED_FACE('',(#88),#57,.F.);
#602=ADVANCED_FACE('',(#89),#58,.F.);
#603=ADVANCED_FACE('',(#90),#59,.F.);
#604=ADVANCED_FACE('',(#91),#60,.F.);
#605=ADVANCED_FACE('',(#92),#61,.F.);
#606=ADVANCED_FACE('',(#93),#62,.T.);
#607=ADVANCED_FACE('',(#94),#63,.F.);
#608=ADVANCED_FACE('',(#95),#64,.F.);
#609=ADVANCED_FACE('',(#96),#65,.F.);
#610=ADVANCED_FACE('',(#97),#580,.F.);
#611=ADVANCED_FACE('',(#98,#50),#66,.T.);
#612=ADVANCED_FACE('',(#99),#581,.F.);
#613=ADVANCED_FACE('',(#100),#67,.T.);
#614=ADVANCED_FACE('',(#101,#51),#68,.T.);
#615=CLOSED_SHELL('',(#582,#583,#584,#585,#586,#587,#588,#589,#590,#591,
#592,#593,#594,#595,#596,#597,#598,#599,#600,#601,#602,#603,#604,#605,#606,
#607,#608,#609,#610,#611,#612,#613,#614));
#616=DERIVED_UNIT_ELEMENT(#618,1.);
#617=DERIVED_UNIT_ELEMENT(#1111,-3.);
#618=(
MASS_UNIT()
NAMED_UNIT(*)
SI_UNIT(.KILO.,.GRAM.)
);
#619=DERIVED_UNIT((#616,#617));
#620=MEASURE_REPRESENTATION_ITEM('density measure',
POSITIVE_RATIO_MEASURE(7850.),#619);
#621=PROPERTY_DEFINITION_REPRESENTATION(#626,#623);
#622=PROPERTY_DEFINITION_REPRESENTATION(#627,#624);
#623=REPRESENTATION('material name',(#625),#1108);
#624=REPRESENTATION('density',(#620),#1108);
#625=DESCRIPTIVE_REPRESENTATION_ITEM('Steel','Steel');
#626=PROPERTY_DEFINITION('material property','material name',#1118);
#627=PROPERTY_DEFINITION('material property','density of part',#1118);
#628=AXIS2_PLACEMENT_3D('',#790,#664,#665);
#629=AXIS2_PLACEMENT_3D('',#791,#666,#667);
#630=AXIS2_PLACEMENT_3D('',#793,#668,#669);
#631=AXIS2_PLACEMENT_3D('',#796,#671,#672);
#632=AXIS2_PLACEMENT_3D('',#797,#673,#674);
#633=AXIS2_PLACEMENT_3D('',#799,#675,#676);
#634=AXIS2_PLACEMENT_3D('',#800,#677,#678);
#635=AXIS2_PLACEMENT_3D('',#802,#679,#680);
#636=AXIS2_PLACEMENT_3D('',#804,#682,#683);
#637=AXIS2_PLACEMENT_3D('',#806,#684,#685);
#638=AXIS2_PLACEMENT_3D('',#829,#688,#689);
#639=AXIS2_PLACEMENT_3D('',#847,#694,#695);
#640=AXIS2_PLACEMENT_3D('',#918,#703,#704);
#641=AXIS2_PLACEMENT_3D('',#921,#706,#707);
#642=AXIS2_PLACEMENT_3D('',#1039,#717,#718);
#643=AXIS2_PLACEMENT_3D('',#1041,#719,#720);
#644=AXIS2_PLACEMENT_3D('',#1043,#721,#722);
#645=AXIS2_PLACEMENT_3D('',#1047,#724,#725);
#646=AXIS2_PLACEMENT_3D('',#1049,#727,#728);
#647=AXIS2_PLACEMENT_3D('',#1057,#733,#734);
#648=AXIS2_PLACEMENT_3D('',#1062,#738,#739);
#649=AXIS2_PLACEMENT_3D('',#1066,#742,#743);
#650=AXIS2_PLACEMENT_3D('',#1069,#746,#747);
#651=AXIS2_PLACEMENT_3D('',#1071,#749,#750);
#652=AXIS2_PLACEMENT_3D('',#1073,#752,#753);
#653=AXIS2_PLACEMENT_3D('',#1078,#757,#758);
#654=AXIS2_PLACEMENT_3D('',#1082,#761,#762);
#655=AXIS2_PLACEMENT_3D('',#1084,#764,#765);
#656=AXIS2_PLACEMENT_3D('',#1090,#769,#770);
#657=AXIS2_PLACEMENT_3D('',#1092,#771,#772);
#658=AXIS2_PLACEMENT_3D('',#1095,#774,#775);
#659=AXIS2_PLACEMENT_3D('',#1096,#776,#777);
#660=AXIS2_PLACEMENT_3D('',#1098,#779,#780);
#661=AXIS2_PLACEMENT_3D('',#1100,#781,#782);
#662=AXIS2_PLACEMENT_3D('',#1102,#784,#785);
#663=AXIS2_PLACEMENT_3D('',#1105,#788,#789);
#664=DIRECTION('axis',(0.,0.,1.));
#665=DIRECTION('refdir',(1.,0.,0.));
#666=DIRECTION('center_axis',(0.,0.,-1.));
#667=DIRECTION('ref_axis',(-1.,0.,0.));
#668=DIRECTION('center_axis',(0.,0.,-1.));
#669=DIRECTION('ref_axis',(-1.,0.,0.));
#670=DIRECTION('',(0.,0.,-1.));
#671=DIRECTION('center_axis',(0.,0.,-1.));
#672=DIRECTION('ref_axis',(-1.,0.,0.));
#673=DIRECTION('center_axis',(0.,0.,1.));
#674=DIRECTION('ref_axis',(-1.,0.,0.));
#675=DIRECTION('center_axis',(0.,0.,1.));
#676=DIRECTION('ref_axis',(-1.,0.,0.));
#677=DIRECTION('center_axis',(0.,0.,-1.));
#678=DIRECTION('ref_axis',(-1.,0.,0.));
#679=DIRECTION('center_axis',(0.,0.,1.));
#680=DIRECTION('ref_axis',(-1.,0.,0.));
#681=DIRECTION('',(0.,0.,1.));
#682=DIRECTION('center_axis',(0.,0.,1.));
#683=DIRECTION('ref_axis',(-1.,0.,0.));
#684=DIRECTION('center_axis',(0.,0.,1.));
#685=DIRECTION('ref_axis',(1.,0.,0.));
#686=DIRECTION('',(0.,0.,-1.));
#687=DIRECTION('',(0.,0.,1.));
#688=DIRECTION('center_axis',(0.,0.,-1.));
#689=DIRECTION('ref_axis',(1.,0.,0.));
#690=DIRECTION('',(-0.919108169580452,0.394005295155372,0.));
#691=DIRECTION('',(0.745521964111652,0.666481058265803,0.));
#692=DIRECTION('',(0.6664810582658,-0.745521964111655,0.));
#693=DIRECTION('',(0.745521964111648,0.666481058265808,0.));
#694=DIRECTION('center_axis',(0.,0.,-1.));
#695=DIRECTION('ref_axis',(1.,0.,0.));
#696=DIRECTION('',(0.28896577645636,-0.957339427808639,0.));
#697=DIRECTION('',(0.745521964111648,0.666481058265808,0.));
#698=DIRECTION('',(0.,0.,-1.));
#699=DIRECTION('',(0.,0.,-1.));
#700=DIRECTION('',(0.,0.,1.));
#701=DIRECTION('',(0.,0.,-1.));
#702=DIRECTION('',(0.,0.,-1.));
#703=DIRECTION('center_axis',(0.,0.,-1.));
#704=DIRECTION('ref_axis',(0.818199634299288,0.574934220961418,0.));
#705=DIRECTION('',(0.,0.,1.));
#706=DIRECTION('center_axis',(0.,0.,1.));
#707=DIRECTION('ref_axis',(0.818199634299822,0.574934220960656,0.));
#708=DIRECTION('',(0.,0.,-1.));
#709=DIRECTION('',(0.,0.,-1.));
#710=DIRECTION('',(0.,0.,1.));
#711=DIRECTION('',(0.,0.,-1.));
#712=DIRECTION('',(0.,0.,-1.));
#713=DIRECTION('',(0.,0.,-1.));
#714=DIRECTION('',(0.,0.,1.));
#715=DIRECTION('',(0.,0.,1.));
#716=DIRECTION('',(0.,0.,-1.));
#717=DIRECTION('center_axis',(0.,0.,1.));
#718=DIRECTION('ref_axis',(-0.666481064355705,0.745521958667407,0.));
#719=DIRECTION('center_axis',(0.,0.,1.));
#720=DIRECTION('ref_axis',(0.745521964111651,0.666481058265805,0.));
#721=DIRECTION('center_axis',(0.,0.,1.));
#722=DIRECTION('ref_axis',(0.745521964111651,0.666481058265805,0.));
#723=DIRECTION('',(0.,0.,1.));
#724=DIRECTION('center_axis',(0.,0.,1.));
#725=DIRECTION('ref_axis',(0.745521964111651,0.666481058265805,0.));
#726=DIRECTION('',(0.,0.,1.));
#727=DIRECTION('center_axis',(0.957339427808639,0.28896577645636,0.));
#728=DIRECTION('ref_axis',(0.28896577645636,-0.957339427808639,0.));
#729=DIRECTION('',(0.,0.,-1.));
#730=DIRECTION('',(0.28896577645636,-0.957339427808639,0.));
#731=DIRECTION('',(0.,0.,-1.));
#732=DIRECTION('',(-0.28896577645636,0.957339427808639,0.));
#733=DIRECTION('center_axis',(-0.666481058265808,0.745521964111648,0.));
#734=DIRECTION('ref_axis',(0.745521964111648,0.666481058265808,0.));
#735=DIRECTION('',(-0.745521964111648,-0.666481058265808,0.));
#736=DIRECTION('',(0.745521964111648,0.666481058265808,0.));
#737=DIRECTION('',(0.,0.,-1.));
#738=DIRECTION('center_axis',(0.,0.,1.));
#739=DIRECTION('ref_axis',(-1.,0.,0.));
#740=DIRECTION('',(0.919108169580452,-0.394005295155372,0.));
#741=DIRECTION('',(-0.745521964111652,-0.666481058265803,0.));
#742=DIRECTION('center_axis',(0.,0.,1.));
#743=DIRECTION('ref_axis',(-1.,0.,0.));
#744=DIRECTION('',(-0.745521964111648,-0.666481058265808,0.));
#745=DIRECTION('',(-0.6664810582658,0.745521964111655,0.));
#746=DIRECTION('center_axis',(0.,0.,1.));
#747=DIRECTION('ref_axis',(-1.,0.,0.));
#748=DIRECTION('',(-0.666481058265804,0.745521964111651,0.));
#749=DIRECTION('center_axis',(0.,0.,1.));
#750=DIRECTION('ref_axis',(-1.,0.,0.));
#751=DIRECTION('',(-0.6664810582658,0.745521964111655,0.));
#752=DIRECTION('center_axis',(-0.745521964111655,-0.6664810582658,0.));
#753=DIRECTION('ref_axis',(0.6664810582658,-0.745521964111655,0.));
#754=DIRECTION('',(0.6664810582658,-0.745521964111655,0.));
#755=DIRECTION('',(0.,0.,1.));
#756=DIRECTION('',(0.6664810582658,-0.745521964111655,0.));
#757=DIRECTION('center_axis',(-0.394005295155372,-0.919108169580452,0.));
#758=DIRECTION('ref_axis',(-0.919108169580452,0.394005295155372,0.));
#759=DIRECTION('',(-0.919108169580452,0.394005295155372,0.));
#760=DIRECTION('',(0.,0.,-1.));
#761=DIRECTION('center_axis',(-0.666481058265803,0.745521964111652,0.));
#762=DIRECTION('ref_axis',(0.745521964111652,0.666481058265803,0.));
#763=DIRECTION('',(0.745521964111652,0.666481058265803,0.));
#764=DIRECTION('center_axis',(-0.666481058265808,0.745521964111648,0.));
#765=DIRECTION('ref_axis',(0.745521964111648,0.666481058265808,0.));
#766=DIRECTION('',(0.745521964111648,0.666481058265808,0.));
#767=DIRECTION('',(0.,0.,-1.));
#768=DIRECTION('',(0.745521964111648,0.666481058265808,0.));
#769=DIRECTION('center_axis',(0.,0.,1.));
#770=DIRECTION('ref_axis',(-0.745521964111651,-0.666481058265804,0.));
#771=DIRECTION('center_axis',(0.,0.,-1.));
#772=DIRECTION('ref_axis',(-0.745521964111651,-0.666481058265804,0.));
#773=DIRECTION('',(0.,0.,1.));
#774=DIRECTION('center_axis',(0.,0.,-1.));
#775=DIRECTION('ref_axis',(-0.745521964111651,-0.666481058265804,0.));
#776=DIRECTION('center_axis',(0.,0.,1.));
#777=DIRECTION('ref_axis',(-1.,0.,0.));
#778=DIRECTION('',(-0.666481058265804,0.745521964111651,0.));
#779=DIRECTION('center_axis',(0.,0.,1.));
#780=DIRECTION('ref_axis',(1.,0.,0.));
#781=DIRECTION('center_axis',(0.,0.,-1.));
#782=DIRECTION('ref_axis',(1.,0.,0.));
#783=DIRECTION('',(0.,0.,1.));
#784=DIRECTION('center_axis',(0.745521964111651,0.666481058265804,0.));
#785=DIRECTION('ref_axis',(-0.666481058265804,0.745521964111651,0.));
#786=DIRECTION('',(-0.666481058265804,0.745521964111651,0.));
#787=DIRECTION('',(-0.666481058265804,0.745521964111651,0.));
#788=DIRECTION('center_axis',(0.,0.,-1.));
#789=DIRECTION('ref_axis',(1.,0.,0.));
#790=CARTESIAN_POINT('',(0.,0.,0.));
#791=CARTESIAN_POINT('Origin',(-138.704013849986,141.631973976088,78.1035162724936));
#792=CARTESIAN_POINT('',(-136.004013849986,141.631973976088,78.1035162724936));
#793=CARTESIAN_POINT('Origin',(-138.704013849986,141.631973976088,78.1035162724936));
#794=CARTESIAN_POINT('',(-136.004013849986,141.631973976088,76.6035162724936));
#795=CARTESIAN_POINT('',(-136.004013849986,141.631973976088,78.1035162724936));
#796=CARTESIAN_POINT('Origin',(-138.704013849986,141.631973976088,76.6035162724936));
#797=CARTESIAN_POINT('Origin',(-138.704013849986,141.631973976088,76.6035162724936));
#798=CARTESIAN_POINT('',(-137.204013849986,141.631973976088,76.6035162724936));
#799=CARTESIAN_POINT('Origin',(-138.704013849986,141.631973976088,76.6035162724936));
#800=CARTESIAN_POINT('Origin',(-138.704013849986,141.631973976088,78.1035162724936));
#801=CARTESIAN_POINT('',(-137.204013849986,141.631973976088,75.1035162724936));
#802=CARTESIAN_POINT('Origin',(-138.704013849986,141.631973976088,75.1035162724936));
#803=CARTESIAN_POINT('',(-137.204013849986,141.631973976088,78.1035162724936));
#804=CARTESIAN_POINT('Origin',(-138.704013849986,141.631973976088,75.1035162724936));
#805=CARTESIAN_POINT('',(-143.754013849986,141.631973976088,75.1035162724936));
#806=CARTESIAN_POINT('Origin',(-138.704013849986,141.631973976088,75.1035162724936));
#807=CARTESIAN_POINT('Ctrl Pts',(-115.729432841657,93.4264708196007,72.1035162724936));
#808=CARTESIAN_POINT('Ctrl Pts',(-115.729432841657,93.4264708196007,69.7035162724936));
#809=CARTESIAN_POINT('Ctrl Pts',(-112.643271759281,98.271985499438,72.1035162724936));
#810=CARTESIAN_POINT('Ctrl Pts',(-112.643271759281,98.271985499438,69.7035162724936));
#811=CARTESIAN_POINT('Ctrl Pts',(-107.490004830402,99.0431876446313,72.1035162724936));
#812=CARTESIAN_POINT('Ctrl Pts',(-107.490004830402,99.0431876446313,69.7035162724936));
#813=CARTESIAN_POINT('Ctrl Pts',(-105.436469590659,98.9480242951263,72.1035162724936));
#814=CARTESIAN_POINT('Ctrl Pts',(-105.436469590659,98.9480242951263,69.7035162724936));
#815=CARTESIAN_POINT('',(-110.379833833211,97.963265966994,72.1035162724936));
#816=CARTESIAN_POINT('',(-110.379833833211,97.963265966994,70.1035162724936));
#817=CARTESIAN_POINT('',(-110.37983383321,97.963265966994,72.1035162724936));
#818=CARTESIAN_POINT('',(-115.729432841658,93.4264708196001,72.1035162724936));
#819=CARTESIAN_POINT('Ctrl Pts',(-115.729432841657,93.4264708196007,72.1035162724936));
#820=CARTESIAN_POINT('Ctrl Pts',(-114.235302900063,95.772371883198,72.1035162724936));
#821=CARTESIAN_POINT('Ctrl Pts',(-112.256663485812,97.1632937806635,72.1035162724936));
#822=CARTESIAN_POINT('Ctrl Pts',(-110.379833833211,97.963265966994,72.1035162724936));
#823=CARTESIAN_POINT('',(-115.729432841658,93.4264708196001,70.1035162724936));
#824=CARTESIAN_POINT('',(-115.729432841657,93.4264708196007,72.1035162724936));
#825=CARTESIAN_POINT('Ctrl Pts',(-110.379833833211,97.963265966994,70.1035162724936));
#826=CARTESIAN_POINT('Ctrl Pts',(-112.256663485812,97.1632937806635,70.1035162724936));
#827=CARTESIAN_POINT('Ctrl Pts',(-114.235302900063,95.772371883198,70.1035162724936));
#828=CARTESIAN_POINT('Ctrl Pts',(-115.729432841657,93.4264708196007,70.1035162724936));
#829=CARTESIAN_POINT('Origin',(18.4370497025956,63.0466774510599,72.1035162724936));
#830=CARTESIAN_POINT('',(-99.6523043542792,93.3104637490619,72.1035162724936));
#831=CARTESIAN_POINT('',(-110.420737335508,97.9266990906174,72.1035162724936));
#832=CARTESIAN_POINT('',(-42.4132224193671,68.7730892390712,72.1035162724936));
#833=CARTESIAN_POINT('',(-108.659766739554,88.4783380623687,72.1035162724936));
#834=CARTESIAN_POINT('Ctrl Pts',(-99.6523043542792,93.3104637490619,72.1035162724936));
#835=CARTESIAN_POINT('Ctrl Pts',(-103.443225306244,92.7831440988121,72.1035162724936));
#836=CARTESIAN_POINT('Ctrl Pts',(-106.711185433202,91.1147276337925,72.1035162724936));
#837=CARTESIAN_POINT('Ctrl Pts',(-108.659766739554,88.4783380623687,72.1035162724936));
#838=CARTESIAN_POINT('',(-104.144187585705,84.3196353408492,72.1035162724936));
#839=CARTESIAN_POINT('Ctrl Pts',(-108.659766739554,88.4783380623687,72.1035162724936));
#840=CARTESIAN_POINT('Ctrl Pts',(-107.646989631942,86.8116651739693,72.1035162724936));
#841=CARTESIAN_POINT('Ctrl Pts',(-105.949574727047,85.3509007544576,72.1035162724936));
#842=CARTESIAN_POINT('Ctrl Pts',(-104.144187585705,84.3196353408492,72.1035162724936));
#843=CARTESIAN_POINT('',(-106.058331220457,82.6084309273316,72.1035162724936));
#844=CARTESIAN_POINT('',(-76.3207637103197,109.193194916175,72.1035162724936));
#845=CARTESIAN_POINT('',(-95.4624642093322,70.7559536699071,72.1035162724936));
#846=CARTESIAN_POINT('',(-83.2764925801758,122.193086724034,72.1035162724936));
#847=CARTESIAN_POINT('Origin',(18.4370497025956,63.0466774510599,72.1035162724936));
#848=CARTESIAN_POINT('',(-93.9285033815386,100.519310558395,72.1035162724936));
#849=CARTESIAN_POINT('',(-92.3232769714814,95.2012187353672,72.1035162724936));
#850=CARTESIAN_POINT('',(-85.4981545384405,72.5896870692354,72.1035162724936));
#851=CARTESIAN_POINT('',(-88.9857453793373,98.1849022411621,72.1035162724936));
#852=CARTESIAN_POINT('Ctrl Pts',(-93.9285033815387,100.519310558395,72.1035162724936));
#853=CARTESIAN_POINT('Ctrl Pts',(-92.2137191604545,99.8862290537192,72.1035162724936));
#854=CARTESIAN_POINT('Ctrl Pts',(-90.5482633070103,99.086436110571,72.1035162724936));
#855=CARTESIAN_POINT('Ctrl Pts',(-88.9857453793374,98.184902241162,72.1035162724936));
#856=CARTESIAN_POINT('',(-69.53123033504,115.576832189492,72.1035162724936));
#857=CARTESIAN_POINT('Ctrl Pts',(-108.659766739554,88.4783380623687,72.1035162724936));
#858=CARTESIAN_POINT('Ctrl Pts',(-108.659766739554,88.4783380623687,69.7035162724936));
#859=CARTESIAN_POINT('Ctrl Pts',(-106.863799473853,85.5228111969817,72.1035162724936));
#860=CARTESIAN_POINT('Ctrl Pts',(-106.863799473853,85.5228111969817,69.7035162724936));
#861=CARTESIAN_POINT('Ctrl Pts',(-102.914901992698,83.2147895760406,72.1035162724936));
#862=CARTESIAN_POINT('Ctrl Pts',(-102.914901992698,83.2147895760406,69.7035162724936));
#863=CARTESIAN_POINT('Ctrl Pts',(-100.028789931006,82.8011026177276,72.1035162724936));
#864=CARTESIAN_POINT('Ctrl Pts',(-100.028789931006,82.8011026177276,69.7035162724936));
#865=CARTESIAN_POINT('',(-104.144187585705,84.3196353408492,70.1035162724936));
#866=CARTESIAN_POINT('',(-104.144187585705,84.3196353408492,72.1035162724936));
#867=CARTESIAN_POINT('',(-108.659766739554,88.4783380623687,70.1035162724936));
#868=CARTESIAN_POINT('',(-108.659766739554,88.4783380623687,72.1035162724936));
#869=CARTESIAN_POINT('Ctrl Pts',(-104.144187585705,84.3196353408492,70.1035162724936));
#870=CARTESIAN_POINT('Ctrl Pts',(-105.949574727047,85.3509007544575,70.1035162724936));
#871=CARTESIAN_POINT('Ctrl Pts',(-107.646989631942,86.8116651739693,70.1035162724936));
#872=CARTESIAN_POINT('Ctrl Pts',(-108.659766739554,88.4783380623687,70.1035162724936));
#873=CARTESIAN_POINT('Ctrl Pts',(-77.5127372508002,82.2529261940826,72.1035162724936));
#874=CARTESIAN_POINT('Ctrl Pts',(-77.5127372508002,82.2529261940826,69.7035162724936));
#875=CARTESIAN_POINT('Ctrl Pts',(-85.8161981493903,95.6141908699859,72.1035162724936));
#876=CARTESIAN_POINT('Ctrl Pts',(-85.8161981493903,95.6141908699859,69.7035162724936));
#877=CARTESIAN_POINT('Ctrl Pts',(-102.933993123908,96.225189476477,72.1035162724936));
#878=CARTESIAN_POINT('Ctrl Pts',(-102.933993123908,96.225189476477,69.7035162724936));
#879=CARTESIAN_POINT('Ctrl Pts',(-108.659766739554,88.4783380623687,72.1035162724936));
#880=CARTESIAN_POINT('Ctrl Pts',(-108.659766739554,88.4783380623687,69.7035162724936));
#881=CARTESIAN_POINT('',(-99.6523043542792,93.3104637490619,70.1035162724936));
#882=CARTESIAN_POINT('',(-99.6523043542792,93.3104637490619,70.1035162724936));
#883=CARTESIAN_POINT('Ctrl Pts',(-108.659766739554,88.4783380623687,70.1035162724936));
#884=CARTESIAN_POINT('Ctrl Pts',(-106.711185433202,91.1147276337925,70.1035162724936));
#885=CARTESIAN_POINT('Ctrl Pts',(-103.443225306244,92.7831440988121,70.1035162724936));
#886=CARTESIAN_POINT('Ctrl Pts',(-99.6523043542792,93.3104637490619,70.1035162724936));
#887=CARTESIAN_POINT('Ctrl Pts',(-118.414922749229,130.055896362959,72.1035162724936));
#888=CARTESIAN_POINT('Ctrl Pts',(-118.414922749229,130.055896362959,69.7035162724936));
#889=CARTESIAN_POINT('Ctrl Pts',(-113.279575741292,129.034069018197,72.1035162724936));
#890=CARTESIAN_POINT('Ctrl Pts',(-113.279575741292,129.034069018197,69.7035162724936));
#891=CARTESIAN_POINT('Ctrl Pts',(-108.355180535519,127.311331097012,72.1035162724936));
#892=CARTESIAN_POINT('Ctrl Pts',(-108.355180535519,127.311331097012,69.7035162724936));
#893=CARTESIAN_POINT('Ctrl Pts',(-103.845238780729,125.145410224749,72.1035162724936));
#894=CARTESIAN_POINT('Ctrl Pts',(-103.845238780729,125.145410224749,69.7035162724936));
#895=CARTESIAN_POINT('',(-118.414922749229,130.055896362959,72.1035162724936));
#896=CARTESIAN_POINT('',(-103.845238780729,125.145410224749,72.1035162724936));
#897=CARTESIAN_POINT('Ctrl Pts',(-118.414922749229,130.055896362959,72.1035162724936));
#898=CARTESIAN_POINT('Ctrl Pts',(-113.279575741292,129.034069018197,72.1035162724936));
#899=CARTESIAN_POINT('Ctrl Pts',(-108.355180535519,127.311331097012,72.1035162724936));
#900=CARTESIAN_POINT('Ctrl Pts',(-103.845238780729,125.145410224749,72.1035162724936));
#901=CARTESIAN_POINT('',(-118.414922749229,130.055896362959,70.1035162724936));
#902=CARTESIAN_POINT('',(-118.414922749229,130.055896362959,72.1035162724936));
#903=CARTESIAN_POINT('',(-103.845238780729,125.145410224749,70.1035162724936));
#904=CARTESIAN_POINT('Ctrl Pts',(-103.845238780729,125.145410224749,70.1035162724936));
#905=CARTESIAN_POINT('Ctrl Pts',(-108.355180535519,127.311331097012,70.1035162724936));
#906=CARTESIAN_POINT('Ctrl Pts',(-113.279575741292,129.034069018197,70.1035162724936));
#907=CARTESIAN_POINT('Ctrl Pts',(-118.414922749229,130.055896362959,70.1035162724936));
#908=CARTESIAN_POINT('',(-103.845238780729,125.145410224749,72.1035162724936));
#909=CARTESIAN_POINT('Ctrl Pts',(-110.247275383293,132.306692369327,72.1035162724936));
#910=CARTESIAN_POINT('Ctrl Pts',(-110.247275383293,132.306692369327,69.7035162724936));
#911=CARTESIAN_POINT('Ctrl Pts',(-112.885391249293,131.376376068401,72.1035162724936));
#912=CARTESIAN_POINT('Ctrl Pts',(-112.885391249293,131.376376068401,69.7035162724936));
#913=CARTESIAN_POINT('Ctrl Pts',(-115.618889119368,130.612244531547,72.1035162724936));
#914=CARTESIAN_POINT('Ctrl Pts',(-115.618889119368,130.612244531547,69.7035162724936));
#915=CARTESIAN_POINT('Ctrl Pts',(-118.414922749229,130.055896362959,72.1035162724936));
#916=CARTESIAN_POINT('Ctrl Pts',(-118.414922749229,130.055896362959,69.7035162724936));
#917=CARTESIAN_POINT('',(-110.247275383293,132.306692369327,72.1035162724936));
#918=CARTESIAN_POINT('Origin',(-115.929295752625,171.381967976411,72.1035162724936));
#919=CARTESIAN_POINT('',(-110.247275383293,132.306692369327,70.1035162724936));
#920=CARTESIAN_POINT('',(-110.247275383293,132.306692369327,72.1035162724936));
#921=CARTESIAN_POINT('Origin',(-115.929295752622,171.381967976354,70.1035162724936));
#922=CARTESIAN_POINT('Ctrl Pts',(-126.963684081931,130.055868893706,72.1035162724936));
#923=CARTESIAN_POINT('Ctrl Pts',(-126.963684081931,130.055868893706,69.7035162724936));
#924=CARTESIAN_POINT('Ctrl Pts',(-138.601106538999,132.302615319476,72.1035162724936));
#925=CARTESIAN_POINT('Ctrl Pts',(-138.601106538999,132.302615319476,69.7035162724936));
#926=CARTESIAN_POINT('Ctrl Pts',(-147.450040677829,136.379734475721,72.1035162724936));
#927=CARTESIAN_POINT('Ctrl Pts',(-147.450040677829,136.379734475721,69.7035162724936));
#928=CARTESIAN_POINT('Ctrl Pts',(-153.695467386068,141.125692556806,72.1035162724936));
#929=CARTESIAN_POINT('Ctrl Pts',(-153.695467386068,141.125692556806,69.7035162724936));
#930=CARTESIAN_POINT('',(-126.963684081931,130.055868893706,72.1035162724936));
#931=CARTESIAN_POINT('',(-153.695467386068,141.125692556806,72.1035162724936));
#932=CARTESIAN_POINT('Ctrl Pts',(-126.963684081931,130.055868893706,72.1035162724936));
#933=CARTESIAN_POINT('Ctrl Pts',(-138.601106538999,132.302615319476,72.1035162724936));
#934=CARTESIAN_POINT('Ctrl Pts',(-147.450040677829,136.379734475721,72.1035162724936));
#935=CARTESIAN_POINT('Ctrl Pts',(-153.695467386068,141.125692556806,72.1035162724936));
#936=CARTESIAN_POINT('',(-126.963684081931,130.055868893706,70.1035162724936));
#937=CARTESIAN_POINT('',(-126.963684081931,130.055868893706,72.1035162724936));
#938=CARTESIAN_POINT('',(-153.695467386068,141.125692556806,70.1035162724936));
#939=CARTESIAN_POINT('Ctrl Pts',(-153.695467386068,141.125692556806,70.1035162724936));
#940=CARTESIAN_POINT('Ctrl Pts',(-147.450040677829,136.379734475721,70.1035162724936));
#941=CARTESIAN_POINT('Ctrl Pts',(-138.601106538999,132.302615319476,70.1035162724936));
#942=CARTESIAN_POINT('Ctrl Pts',(-126.963684081931,130.055868893706,70.1035162724936));
#943=CARTESIAN_POINT('',(-153.695467386068,141.125692556806,72.1035162724936));
#944=CARTESIAN_POINT('Ctrl Pts',(-143.796058732652,124.821640720882,72.1035162724936));
#945=CARTESIAN_POINT('Ctrl Pts',(-143.796058732652,124.821640720882,69.7035162724936));
#946=CARTESIAN_POINT('Ctrl Pts',(-139.023247439056,126.99786799872,72.1035162724936));
#947=CARTESIAN_POINT('Ctrl Pts',(-139.023247439056,126.99786799872,69.7035162724936));
#948=CARTESIAN_POINT('Ctrl Pts',(-133.422998869868,128.808817716284,72.1035162724936));
#949=CARTESIAN_POINT('Ctrl Pts',(-133.422998869868,128.808817716284,69.7035162724936));
#950=CARTESIAN_POINT('Ctrl Pts',(-126.963684081931,130.055868893706,72.1035162724936));
#951=CARTESIAN_POINT('Ctrl Pts',(-126.963684081931,130.055868893706,69.7035162724936));
#952=CARTESIAN_POINT('',(-143.796058732652,124.821640720882,72.1035162724936));
#953=CARTESIAN_POINT('Ctrl Pts',(-143.796058732652,124.821640720882,72.1035162724936));
#954=CARTESIAN_POINT('Ctrl Pts',(-139.023247439056,126.99786799872,72.1035162724936));
#955=CARTESIAN_POINT('Ctrl Pts',(-133.422998869868,128.808817716284,72.1035162724936));
#956=CARTESIAN_POINT('Ctrl Pts',(-126.963684081931,130.055868893706,72.1035162724936));
#957=CARTESIAN_POINT('',(-143.796058732652,124.821640720882,70.1035162724936));
#958=CARTESIAN_POINT('',(-143.796058732652,124.821640720882,72.1035162724936));
#959=CARTESIAN_POINT('Ctrl Pts',(-126.963684081931,130.055868893706,70.1035162724936));
#960=CARTESIAN_POINT('Ctrl Pts',(-133.422998869868,128.808817716284,70.1035162724936));
#961=CARTESIAN_POINT('Ctrl Pts',(-139.023247439056,126.99786799872,70.1035162724936));
#962=CARTESIAN_POINT('Ctrl Pts',(-143.796058732652,124.821640720882,70.1035162724936));
#963=CARTESIAN_POINT('Ctrl Pts',(-103.655665352912,111.102866824805,72.1035162724936));
#964=CARTESIAN_POINT('Ctrl Pts',(-103.655665352912,111.102866824805,69.7035162724936));
#965=CARTESIAN_POINT('Ctrl Pts',(-112.230993679843,117.853373324769,72.1035162724936));
#966=CARTESIAN_POINT('Ctrl Pts',(-112.230993679843,117.853373324769,69.7035162724936));
#967=CARTESIAN_POINT('Ctrl Pts',(-123.834644254245,117.052293713053,72.1035162724936));
#968=CARTESIAN_POINT('Ctrl Pts',(-123.834644254245,117.052293713053,69.7035162724936));
#969=CARTESIAN_POINT('Ctrl Pts',(-132.657894394052,112.362552722316,72.1035162724936));
#970=CARTESIAN_POINT('Ctrl Pts',(-132.657894394052,112.362552722316,69.7035162724936));
#971=CARTESIAN_POINT('',(-103.655665352912,111.102866824805,72.1035162724936));
#972=CARTESIAN_POINT('',(-132.657894394052,112.362552722316,72.1035162724936));
#973=CARTESIAN_POINT('Ctrl Pts',(-103.655665352912,111.102866824805,72.1035162724936));
#974=CARTESIAN_POINT('Ctrl Pts',(-112.230993679843,117.853373324769,72.1035162724936));
#975=CARTESIAN_POINT('Ctrl Pts',(-123.834644254245,117.052293713053,72.1035162724936));
#976=CARTESIAN_POINT('Ctrl Pts',(-132.657894394052,112.362552722316,72.1035162724936));
#977=CARTESIAN_POINT('',(-103.655665352912,111.102866824805,70.1035162724936));
#978=CARTESIAN_POINT('',(-103.655665352912,111.102866824805,72.1035162724936));
#979=CARTESIAN_POINT('',(-132.657894394052,112.362552722316,70.1035162724936));
#980=CARTESIAN_POINT('Ctrl Pts',(-132.657894394052,112.362552722316,70.1035162724936));
#981=CARTESIAN_POINT('Ctrl Pts',(-123.834644254245,117.052293713053,70.1035162724936));
#982=CARTESIAN_POINT('Ctrl Pts',(-112.230993679843,117.853373324769,70.1035162724936));
#983=CARTESIAN_POINT('Ctrl Pts',(-103.655665352912,111.102866824805,70.1035162724936));
#984=CARTESIAN_POINT('',(-132.657894394052,112.362552722316,72.1035162724936));
#985=CARTESIAN_POINT('Ctrl Pts',(-99.4293284110022,112.302449126898,72.1035162724936));
#986=CARTESIAN_POINT('Ctrl Pts',(-99.4293284110022,112.302449126898,69.7035162724936));
#987=CARTESIAN_POINT('Ctrl Pts',(-100.367458357902,109.991831661497,72.1035162724936));
#988=CARTESIAN_POINT('Ctrl Pts',(-100.367458357902,109.991831661497,69.7035162724936));
#989=CARTESIAN_POINT('Ctrl Pts',(-102.593841357322,109.86017152928,72.1035162724936));
#990=CARTESIAN_POINT('Ctrl Pts',(-102.593841357322,109.86017152928,69.7035162724936));
#991=CARTESIAN_POINT('Ctrl Pts',(-103.655665352912,111.102866824805,72.1035162724936));
#992=CARTESIAN_POINT('Ctrl Pts',(-103.655665352912,111.102866824805,69.7035162724936));
#993=CARTESIAN_POINT('',(-99.4293284110022,112.302449126898,72.1035162724936));
#994=CARTESIAN_POINT('Ctrl Pts',(-99.4293284110022,112.302449126898,72.1035162724936));
#995=CARTESIAN_POINT('Ctrl Pts',(-100.367458357902,109.991831661497,72.1035162724936));
#996=CARTESIAN_POINT('Ctrl Pts',(-102.593841357322,109.86017152928,72.1035162724936));
#997=CARTESIAN_POINT('Ctrl Pts',(-103.655665352912,111.102866824805,72.1035162724936));
#998=CARTESIAN_POINT('',(-99.4293284110022,112.302449126898,70.1035162724936));
#999=CARTESIAN_POINT('',(-99.4293284110022,112.302449126898,72.1035162724936));
#1000=CARTESIAN_POINT('Ctrl Pts',(-103.655665352912,111.102866824805,70.1035162724936));
#1001=CARTESIAN_POINT('Ctrl Pts',(-102.593841357322,109.86017152928,70.1035162724936));
#1002=CARTESIAN_POINT('Ctrl Pts',(-100.367458357902,109.991831661497,70.1035162724936));
#1003=CARTESIAN_POINT('Ctrl Pts',(-99.4293284110022,112.302449126898,70.1035162724936));
#1004=CARTESIAN_POINT('Ctrl Pts',(-81.3103615527106,92.1143332764495,72.1035162724936));
#1005=CARTESIAN_POINT('Ctrl Pts',(-81.3103615527106,92.1143332764495,69.7035162724936));
#1006=CARTESIAN_POINT('Ctrl Pts',(-81.7935731917334,95.8330384129394,72.1035162724936));
#1007=CARTESIAN_POINT('Ctrl Pts',(-81.7935731917334,95.8330384129394,69.7035162724936));
#1008=CARTESIAN_POINT('Ctrl Pts',(-94.6519033045722,109.930218125807,72.1035162724936));
#1009=CARTESIAN_POINT('Ctrl Pts',(-94.6519033045722,109.930218125807,69.7035162724936));
#1010=CARTESIAN_POINT('Ctrl Pts',(-99.4293284110022,112.302449126898,72.1035162724936));
#1011=CARTESIAN_POINT('Ctrl Pts',(-99.4293284110022,112.302449126898,69.7035162724936));
#1012=CARTESIAN_POINT('',(-86.6383382695478,100.283435148341,70.1035162724936));
#1013=CARTESIAN_POINT('',(-86.6383382695478,100.283435148341,72.1035162724936));
#1014=CARTESIAN_POINT('',(-86.6383382695478,100.283435148341,70.1035162724936));
#1015=CARTESIAN_POINT('Ctrl Pts',(-99.4293284110022,112.302449126898,70.1035162724936));
#1016=CARTESIAN_POINT('Ctrl Pts',(-96.5890498516714,110.892108472659,70.1035162724936));
#1017=CARTESIAN_POINT('Ctrl Pts',(-90.8925352359446,105.337526394535,70.1035162724936));
#1018=CARTESIAN_POINT('Ctrl Pts',(-86.6383382695478,100.283435148341,70.1035162724936));
#1019=CARTESIAN_POINT('Ctrl Pts',(-86.6383382695478,100.283435148341,72.1035162724936));
#1020=CARTESIAN_POINT('Ctrl Pts',(-90.8925352359407,105.337526394523,72.1035162724936));
#1021=CARTESIAN_POINT('Ctrl Pts',(-96.5890498516796,110.892108472664,72.1035162724936));
#1022=CARTESIAN_POINT('Ctrl Pts',(-99.4293284110022,112.302449126898,72.1035162724936));
#1023=CARTESIAN_POINT('Ctrl Pts',(-105.280032191749,101.612363338362,72.1035162724936));
#1024=CARTESIAN_POINT('Ctrl Pts',(-105.280032191749,101.612363338362,69.7035162724936));
#1025=CARTESIAN_POINT('Ctrl Pts',(-96.6264207182837,103.684588886915,72.1035162724936));
#1026=CARTESIAN_POINT('Ctrl Pts',(-96.6264207182837,103.684588886915,69.7035162724936));
#1027=CARTESIAN_POINT('Ctrl Pts',(-86.1740401152564,97.5342367539275,72.1035162724936));
#1028=CARTESIAN_POINT('Ctrl Pts',(-86.1740401152564,97.5342367539275,69.7035162724936));
#1029=CARTESIAN_POINT('Ctrl Pts',(-81.3103615527106,92.1143332764495,72.1035162724936));
#1030=CARTESIAN_POINT('Ctrl Pts',(-81.3103615527106,92.1143332764495,69.7035162724936));
#1031=CARTESIAN_POINT('',(-93.9285033815386,100.519310558395,70.1035162724936));
#1032=CARTESIAN_POINT('',(-93.9285033815386,100.519310558395,70.1035162724936));
#1033=CARTESIAN_POINT('',(-88.9857453793373,98.1849022411621,70.1035162724936));
#1034=CARTESIAN_POINT('Ctrl Pts',(-88.9857453793374,98.184902241162,70.1035162724936));
#1035=CARTESIAN_POINT('Ctrl Pts',(-90.5482633070103,99.086436110571,70.1035162724936));
#1036=CARTESIAN_POINT('Ctrl Pts',(-92.2137191604545,99.8862290537192,70.1035162724936));
#1037=CARTESIAN_POINT('Ctrl Pts',(-93.9285033815387,100.519310558395,70.1035162724936));
#1038=CARTESIAN_POINT('',(-88.9857453793373,98.1849022411621,72.1035162724936));
#1039=CARTESIAN_POINT('Origin',(-138.704013849986,141.631973976088,70.1035162724936));
#1040=CARTESIAN_POINT('',(-127.52118438708,151.629189848697,72.1035162724936));
#1041=CARTESIAN_POINT('Origin',(-138.704013849986,141.631973976088,72.1035162724936));
#1042=CARTESIAN_POINT('',(-149.886843100985,131.63475786644,70.1035162724936));
#1043=CARTESIAN_POINT('Origin',(-138.704013849986,141.631973976088,70.1035162724936));
#1044=CARTESIAN_POINT('',(-149.886843100985,131.63475786644,78.1035162724936));
#1045=CARTESIAN_POINT('',(-149.886843100985,131.63475786644,70.1035162724936));
#1046=CARTESIAN_POINT('',(-127.521184388311,151.629189850075,78.1035162724936));
#1047=CARTESIAN_POINT('Origin',(-138.704013849986,141.631973976088,78.1035162724936));
#1048=CARTESIAN_POINT('',(-127.521184388311,151.629189850075,70.1035162724936));
#1049=CARTESIAN_POINT('Origin',(-96.8168331440118,110.08830518481,78.1035162724936));
#1050=CARTESIAN_POINT('',(-92.3232769714814,95.2012187353672,78.1035162724936));
#1051=CARTESIAN_POINT('',(-92.3232769714814,95.2012187353672,78.1035162724936));
#1052=CARTESIAN_POINT('',(-96.8168331440118,110.08830518481,78.1035162724936));
#1053=CARTESIAN_POINT('',(-83.4577998553267,65.83002158631,78.1035162724936));
#1054=CARTESIAN_POINT('',(-96.8168331440118,110.08830518481,70.1035162724936));
#1055=CARTESIAN_POINT('',(-96.8168331440118,110.08830518481,78.1035162724936));
#1056=CARTESIAN_POINT('',(-83.4577998553267,65.83002158631,70.1035162724936));
#1057=CARTESIAN_POINT('Origin',(-110.420737335508,97.9266990906174,78.1035162724936));
#1058=CARTESIAN_POINT('',(-70.1789108219319,133.902051142486,70.1035162724936));
#1059=CARTESIAN_POINT('',(-110.420737335508,97.9266990906174,78.1035162724936));
#1060=CARTESIAN_POINT('',(-70.1789108219319,133.902051142486,78.1035162724936));
#1061=CARTESIAN_POINT('',(-110.420737335508,97.9266990906174,78.1035162724936));
#1062=CARTESIAN_POINT('Origin',(65.9370497025956,62.6331359959283,70.1035162724936));
#1063=CARTESIAN_POINT('',(-95.8908132546976,91.6979795388611,70.1035162724936));
#1064=CARTESIAN_POINT('',(-22.2752979145651,60.1403198317957,70.1035162724936));
#1065=CARTESIAN_POINT('',(-63.2231819520756,120.902159334626,70.1035162724936));
#1066=CARTESIAN_POINT('Origin',(65.9370497025956,62.6331359959283,70.1035162724936));
#1067=CARTESIAN_POINT('',(-56.433648576796,127.285796607944,70.1035162724936));
#1068=CARTESIAN_POINT('',(-99.7459253307405,75.547409194146,70.1035162724936));
#1069=CARTESIAN_POINT('Origin',(65.9370497025956,62.6331359959283,70.1035162724936));
#1070=CARTESIAN_POINT('',(-94.1971314750212,114.353091644492,70.1035162724936));
#1071=CARTESIAN_POINT('Origin',(65.9370497025956,62.6331359959283,70.1035162724936));
#1072=CARTESIAN_POINT('',(-99.7459253307405,75.547409194146,70.1035162724936));
#1073=CARTESIAN_POINT('Origin',(-149.886843100985,131.63475786644,70.1035162724936));
#1074=CARTESIAN_POINT('',(-95.4624642093322,70.7559536699071,72.1035162724936));
#1075=CARTESIAN_POINT('',(-106.058331220457,82.6084309273315,78.1035162724936));
#1076=CARTESIAN_POINT('',(-106.058331220457,82.6084309273316,74.1035162724936));
#1077=CARTESIAN_POINT('',(-99.7459253307405,75.547409194146,78.1035162724936));
#1078=CARTESIAN_POINT('Origin',(-95.8908132546976,91.6979795388611,78.1035162724936));
#1079=CARTESIAN_POINT('',(-95.8908132546976,91.6979795388611,78.1035162724936));
#1080=CARTESIAN_POINT('',(-22.2752979145651,60.1403198317957,78.1035162724936));
#1081=CARTESIAN_POINT('',(-95.8908132546976,91.6979795388611,78.1035162724936));
#1082=CARTESIAN_POINT('Origin',(-106.058331220457,82.6084309273315,78.1035162724936));
#1083=CARTESIAN_POINT('',(-63.2231819520756,120.902159334626,78.1035162724936));
#1084=CARTESIAN_POINT('Origin',(-92.3232769714814,95.2012187353672,78.1035162724936));
#1085=CARTESIAN_POINT('',(-81.1404475098066,105.198434609354,72.1035162724936));
#1086=CARTESIAN_POINT('',(-69.53123033504,115.576832189492,72.1035162724936));
#1087=CARTESIAN_POINT('',(-81.1404475098067,105.198434609354,78.1035162724936));
#1088=CARTESIAN_POINT('',(-81.1404475098066,105.198434609354,70.1035162724936));
#1089=CARTESIAN_POINT('',(-56.433648576796,127.285796607944,78.1035162724936));
#1090=CARTESIAN_POINT('Origin',(-68.1038627311133,137.679928683795,70.1035162724936));
#1091=CARTESIAN_POINT('',(-94.1971314750212,114.353091644492,72.1035162724936));
#1092=CARTESIAN_POINT('Origin',(-68.1038627311133,137.679928683795,72.1035162724936));
#1093=CARTESIAN_POINT('',(-94.1971314750212,114.353091644492,78.1035162724936));
#1094=CARTESIAN_POINT('',(-94.1971314750212,114.353091644492,70.1035162724936));
#1095=CARTESIAN_POINT('Origin',(-68.1038627311133,137.679928683795,78.1035162724936));
#1096=CARTESIAN_POINT('Origin',(65.9370497025956,62.6331359959283,78.1035162724936));
#1097=CARTESIAN_POINT('',(-94.1971314750212,114.353091644492,78.1035162724936));
#1098=CARTESIAN_POINT('Origin',(-138.704013849986,141.631973976088,70.1035162724936));
#1099=CARTESIAN_POINT('',(-143.754013849986,141.631973976088,72.1035162724936));
#1100=CARTESIAN_POINT('Origin',(-138.704013849986,141.631973976088,72.1035162724936));
#1101=CARTESIAN_POINT('',(-143.754013849986,141.631973976088,70.1035162724936));
#1102=CARTESIAN_POINT('Origin',(-94.1971314750212,114.353091644492,70.1035162724936));
#1103=CARTESIAN_POINT('',(-56.4347789346751,72.1123364329201,72.1035162724936));
#1104=CARTESIAN_POINT('',(-56.4347789346751,72.1123364329201,72.1035162724936));
#1105=CARTESIAN_POINT('Origin',(18.4413229345549,95.0079310030157,72.1035162724936));
#1106=UNCERTAINTY_MEASURE_WITH_UNIT(LENGTH_MEASURE(0.01),#1110,
'DISTANCE_ACCURACY_VALUE',
'Maximum model space distance between geometric entities at asserted c
onnectivities');
#1107=UNCERTAINTY_MEASURE_WITH_UNIT(LENGTH_MEASURE(0.01),#1110,
'DISTANCE_ACCURACY_VALUE',
'Maximum model space distance between geometric entities at asserted c
onnectivities');
#1108=(
GEOMETRIC_REPRESENTATION_CONTEXT(3)
GLOBAL_UNCERTAINTY_ASSIGNED_CONTEXT((#1106))
GLOBAL_UNIT_ASSIGNED_CONTEXT((#1110,#1112,#1113))
REPRESENTATION_CONTEXT('','3D')
);
#1109=(
GEOMETRIC_REPRESENTATION_CONTEXT(3)
GLOBAL_UNCERTAINTY_ASSIGNED_CONTEXT((#1107))
GLOBAL_UNIT_ASSIGNED_CONTEXT((#1110,#1112,#1113))
REPRESENTATION_CONTEXT('','3D')
);
#1110=(
LENGTH_UNIT()
NAMED_UNIT(*)
SI_UNIT(.MILLI.,.METRE.)
);
#1111=(
LENGTH_UNIT()
NAMED_UNIT(*)
SI_UNIT($,.METRE.)
);
#1112=(
NAMED_UNIT(*)
PLANE_ANGLE_UNIT()
SI_UNIT($,.RADIAN.)
);
#1113=(
NAMED_UNIT(*)
SI_UNIT($,.STERADIAN.)
SOLID_ANGLE_UNIT()
);
#1114=SHAPE_DEFINITION_REPRESENTATION(#1115,#1116);
#1115=PRODUCT_DEFINITION_SHAPE('',$,#1118);
#1116=SHAPE_REPRESENTATION('',(#628),#1108);
#1117=PRODUCT_DEFINITION_CONTEXT('part definition',#1122,'design');
#1118=PRODUCT_DEFINITION('FusionComponent','orumcekkolu v2',#1119,#1117);
#1119=PRODUCT_DEFINITION_FORMATION('',$,#1124);
#1120=PRODUCT_RELATED_PRODUCT_CATEGORY('orumcekkolu v2',
'orumcekkolu v2',(#1124));
#1121=APPLICATION_PROTOCOL_DEFINITION('international standard',
'automotive_design',2009,#1122);
#1122=APPLICATION_CONTEXT(
'Core Data for Automotive Mechanical Design Process');
#1123=PRODUCT_CONTEXT('part definition',#1122,'mechanical');
#1124=PRODUCT('FusionComponent','orumcekkolu v2',$,(#1123));
#1125=PRESENTATION_STYLE_ASSIGNMENT((#1127));
#1126=PRESENTATION_STYLE_ASSIGNMENT((#1128));
#1127=SURFACE_STYLE_USAGE(.BOTH.,#1129);
#1128=SURFACE_STYLE_USAGE(.BOTH.,#1130);
#1129=SURFACE_SIDE_STYLE('',(#1131));
#1130=SURFACE_SIDE_STYLE('',(#1132));
#1131=SURFACE_STYLE_FILL_AREA(#1133);
#1132=SURFACE_STYLE_FILL_AREA(#1134);
#1133=FILL_AREA_STYLE('Steel - Satin',(#1135));
#1134=FILL_AREA_STYLE('Opaque(243,203,124)',(#1136));
#1135=FILL_AREA_STYLE_COLOUR('Steel - Satin',#1137);
#1136=FILL_AREA_STYLE_COLOUR('Opaque(243,203,124)',#1138);
#1137=COLOUR_RGB('Steel - Satin',0.627450980392157,0.627450980392157,0.627450980392157);
#1138=COLOUR_RGB('Opaque(243,203,124)',0.952941176470588,0.796078431372549,
0.486274509803922);
ENDSEC;
END-ISO-10303-21;
