ISO-10303-21;
HEADER;
/* Generated by software containing ST-Developer
 * from STEP Tools, Inc. (www.steptools.com) 
 */

FILE_DESCRIPTION(
/* description */ (''),
/* implementation_level */ '2;1');

FILE_NAME(
/* name */ 'orumcekkoluasagibacak2.step',
/* time_stamp */ '2026-09-14T15:50:07+03:00',
/* author */ (''),
/* organization */ (''),
/* preprocessor_version */ 'ST-DEVELOPER v20.2',
/* originating_system */ 'Autodesk Translation Framework v15.15.0.0',
/* authorisation */ '');

FILE_SCHEMA (('AUTOMOTIVE_DESIGN { 1 0 10303 214 3 1 1 }'));
ENDSEC;

DATA;
#10=MECHANICAL_DESIGN_GEOMETRIC_PRESENTATION_REPRESENTATION('',(#13),#1069);
#11=SHAPE_REPRESENTATION_RELATIONSHIP('SRR','None',#1076,#12);
#12=ADVANCED_BREP_SHAPE_REPRESENTATION('',(#14),#1068);
#13=STYLED_ITEM('',(#1086),#14);
#14=MANIFOLD_SOLID_BREP('Body3',#585);
#15=ELLIPSE('',#615,112.258287727884,37.3580025444355);
#16=ELLIPSE('',#616,112.258287918612,37.3580025762693);
#17=B_SPLINE_CURVE_WITH_KNOTS('',3,(#786,#787,#788,#789),.UNSPECIFIED.,
 .F.,.F.,(4,4),(0.746102448797584,1.),.UNSPECIFIED.);
#18=B_SPLINE_CURVE_WITH_KNOTS('',3,(#792,#793,#794,#795),.UNSPECIFIED.,
 .F.,.F.,(4,4),(0.746102448797584,1.),.UNSPECIFIED.);
#19=B_SPLINE_CURVE_WITH_KNOTS('',3,(#808,#809,#810,#811),.UNSPECIFIED.,
 .F.,.F.,(4,4),(0.131959357906625,1.),.UNSPECIFIED.);
#20=B_SPLINE_CURVE_WITH_KNOTS('',3,(#813,#814,#815,#816),.UNSPECIFIED.,
 .F.,.F.,(4,4),(0.,1.),.UNSPECIFIED.);
#21=B_SPLINE_CURVE_WITH_KNOTS('',3,(#818,#819,#820,#821),.UNSPECIFIED.,
 .F.,.F.,(4,4),(0.,1.),.UNSPECIFIED.);
#22=B_SPLINE_CURVE_WITH_KNOTS('',3,(#823,#824,#825,#826),.UNSPECIFIED.,
 .F.,.F.,(4,4),(0.,1.),.UNSPECIFIED.);
#23=B_SPLINE_CURVE_WITH_KNOTS('',3,(#828,#829,#830,#831),.UNSPECIFIED.,
 .F.,.F.,(4,4),(0.,1.),.UNSPECIFIED.);
#24=B_SPLINE_CURVE_WITH_KNOTS('',3,(#833,#834,#835,#836),.UNSPECIFIED.,
 .F.,.F.,(4,4),(0.,0.925151438157411),.UNSPECIFIED.);
#25=B_SPLINE_CURVE_WITH_KNOTS('',3,(#842,#843,#844,#845),.UNSPECIFIED.,
 .F.,.F.,(4,4),(0.228463044939428,0.829554022338679),.UNSPECIFIED.);
#26=B_SPLINE_CURVE_WITH_KNOTS('',3,(#851,#852,#853,#854),.UNSPECIFIED.,
 .F.,.F.,(4,4),(0.737779599567847,0.906585289769619),.UNSPECIFIED.);
#27=B_SPLINE_CURVE_WITH_KNOTS('',3,(#859,#860,#861,#862),.UNSPECIFIED.,
 .F.,.F.,(4,4),(0.,0.204585465881401),.UNSPECIFIED.);
#28=B_SPLINE_CURVE_WITH_KNOTS('',3,(#893,#894,#895,#896),.UNSPECIFIED.,
 .F.,.F.,(4,4),(0.,0.204585465881401),.UNSPECIFIED.);
#29=B_SPLINE_CURVE_WITH_KNOTS('',3,(#908,#909,#910,#911),.UNSPECIFIED.,
 .F.,.F.,(4,4),(0.737779599567847,0.906585289769619),.UNSPECIFIED.);
#30=B_SPLINE_CURVE_WITH_KNOTS('',3,(#924,#925,#926,#927),.UNSPECIFIED.,
 .F.,.F.,(4,4),(0.228463044939429,0.829554022338678),.UNSPECIFIED.);
#31=B_SPLINE_CURVE_WITH_KNOTS('',3,(#940,#941,#942,#943),.UNSPECIFIED.,
 .F.,.F.,(4,4),(-0.925151438157411,0.),.UNSPECIFIED.);
#32=B_SPLINE_CURVE_WITH_KNOTS('',3,(#955,#956,#957,#958),.UNSPECIFIED.,
 .F.,.F.,(4,4),(-1.,0.),.UNSPECIFIED.);
#33=B_SPLINE_CURVE_WITH_KNOTS('',3,(#969,#970,#971,#972),.UNSPECIFIED.,
 .F.,.F.,(4,4),(-1.,0.),.UNSPECIFIED.);
#34=B_SPLINE_CURVE_WITH_KNOTS('',3,(#983,#984,#985,#986),.UNSPECIFIED.,
 .F.,.F.,(4,4),(-1.,0.),.UNSPECIFIED.);
#35=B_SPLINE_CURVE_WITH_KNOTS('',3,(#997,#998,#999,#1000),.UNSPECIFIED.,
 .F.,.F.,(4,4),(-1.,0.),.UNSPECIFIED.);
#36=B_SPLINE_CURVE_WITH_KNOTS('',3,(#1011,#1012,#1013,#1014),
 .UNSPECIFIED.,.F.,.F.,(4,4),(-1.,-0.131959357906625),.UNSPECIFIED.);
#37=B_SPLINE_SURFACE_WITH_KNOTS('',3,1,((#774,#775),(#776,#777),(#778,#779),
(#780,#781)),.UNSPECIFIED.,.F.,.F.,.F.,(4,4),(2,2),(-1.,0.),(0.,0.239999999999999),
 .UNSPECIFIED.);
#38=B_SPLINE_SURFACE_WITH_KNOTS('',3,1,((#870,#871),(#872,#873),(#874,#875),
(#876,#877)),.UNSPECIFIED.,.F.,.F.,.F.,(4,4),(2,2),(-1.,0.),(0.,0.239999999999999),
 .UNSPECIFIED.);
#39=B_SPLINE_SURFACE_WITH_KNOTS('',3,1,((#883,#884),(#885,#886),(#887,#888),
(#889,#890)),.UNSPECIFIED.,.F.,.F.,.F.,(4,4),(2,2),(-0.204585465881401,
0.),(0.,0.239999999999999),.UNSPECIFIED.);
#40=B_SPLINE_SURFACE_WITH_KNOTS('',3,1,((#897,#898),(#899,#900),(#901,#902),
(#903,#904)),.UNSPECIFIED.,.F.,.F.,.F.,(4,4),(2,2),(-0.906585289769619,
-0.737779599567847),(0.,0.239999999999999),.UNSPECIFIED.);
#41=B_SPLINE_SURFACE_WITH_KNOTS('',3,1,((#913,#914),(#915,#916),(#917,#918),
(#919,#920)),.UNSPECIFIED.,.F.,.F.,.F.,(4,4),(2,2),(-0.829554022338678,
-0.228463044939429),(0.,0.239999999999999),.UNSPECIFIED.);
#42=B_SPLINE_SURFACE_WITH_KNOTS('',3,1,((#929,#930),(#931,#932),(#933,#934),
(#935,#936)),.UNSPECIFIED.,.F.,.F.,.F.,(4,4),(2,2),(0.,0.925151438157411),
(0.,0.239999999999999),.UNSPECIFIED.);
#43=B_SPLINE_SURFACE_WITH_KNOTS('',3,1,((#945,#946),(#947,#948),(#949,#950),
(#951,#952)),.UNSPECIFIED.,.F.,.F.,.F.,(4,4),(2,2),(0.,1.),(0.,0.239999999999999),
 .UNSPECIFIED.);
#44=B_SPLINE_SURFACE_WITH_KNOTS('',3,1,((#959,#960),(#961,#962),(#963,#964),
(#965,#966)),.UNSPECIFIED.,.F.,.F.,.F.,(4,4),(2,2),(0.,1.),(0.,0.239999999999999),
 .UNSPECIFIED.);
#45=B_SPLINE_SURFACE_WITH_KNOTS('',3,1,((#973,#974),(#975,#976),(#977,#978),
(#979,#980)),.UNSPECIFIED.,.F.,.F.,.F.,(4,4),(2,2),(0.,1.),(0.,0.239999999999999),
 .UNSPECIFIED.);
#46=B_SPLINE_SURFACE_WITH_KNOTS('',3,1,((#987,#988),(#989,#990),(#991,#992),
(#993,#994)),.UNSPECIFIED.,.F.,.F.,.F.,(4,4),(2,2),(0.,1.),(0.,0.239999999999999),
 .UNSPECIFIED.);
#47=B_SPLINE_SURFACE_WITH_KNOTS('',3,1,((#1001,#1002),(#1003,#1004),(#1005,
#1006),(#1007,#1008)),.UNSPECIFIED.,.F.,.F.,.F.,(4,4),(2,2),(0.131959357906625,
1.),(0.,0.239999999999999),.UNSPECIFIED.);
#48=FACE_BOUND('',#99,.T.);
#49=FACE_BOUND('',#102,.T.);
#50=FACE_BOUND('',#126,.T.);
#51=PLANE('',#602);
#52=PLANE('',#606);
#53=PLANE('',#608);
#54=PLANE('',#614);
#55=PLANE('',#617);
#56=PLANE('',#621);
#57=PLANE('',#622);
#58=PLANE('',#624);
#59=PLANE('',#625);
#60=PLANE('',#629);
#61=PLANE('',#630);
#62=PLANE('',#631);
#63=PLANE('',#632);
#64=PLANE('',#633);
#65=PLANE('',#634);
#66=FACE_OUTER_BOUND('',#97,.T.);
#67=FACE_OUTER_BOUND('',#98,.T.);
#68=FACE_OUTER_BOUND('',#100,.T.);
#69=FACE_OUTER_BOUND('',#101,.T.);
#70=FACE_OUTER_BOUND('',#103,.T.);
#71=FACE_OUTER_BOUND('',#104,.T.);
#72=FACE_OUTER_BOUND('',#105,.T.);
#73=FACE_OUTER_BOUND('',#106,.T.);
#74=FACE_OUTER_BOUND('',#107,.T.);
#75=FACE_OUTER_BOUND('',#108,.T.);
#76=FACE_OUTER_BOUND('',#109,.T.);
#77=FACE_OUTER_BOUND('',#110,.T.);
#78=FACE_OUTER_BOUND('',#111,.T.);
#79=FACE_OUTER_BOUND('',#112,.T.);
#80=FACE_OUTER_BOUND('',#113,.T.);
#81=FACE_OUTER_BOUND('',#114,.T.);
#82=FACE_OUTER_BOUND('',#115,.T.);
#83=FACE_OUTER_BOUND('',#116,.T.);
#84=FACE_OUTER_BOUND('',#117,.T.);
#85=FACE_OUTER_BOUND('',#118,.T.);
#86=FACE_OUTER_BOUND('',#119,.T.);
#87=FACE_OUTER_BOUND('',#120,.T.);
#88=FACE_OUTER_BOUND('',#121,.T.);
#89=FACE_OUTER_BOUND('',#122,.T.);
#90=FACE_OUTER_BOUND('',#123,.T.);
#91=FACE_OUTER_BOUND('',#124,.T.);
#92=FACE_OUTER_BOUND('',#125,.T.);
#93=FACE_OUTER_BOUND('',#127,.T.);
#94=FACE_OUTER_BOUND('',#128,.T.);
#95=FACE_OUTER_BOUND('',#129,.T.);
#96=FACE_OUTER_BOUND('',#130,.T.);
#97=EDGE_LOOP('',(#381,#382,#383,#384));
#98=EDGE_LOOP('',(#385));
#99=EDGE_LOOP('',(#386));
#100=EDGE_LOOP('',(#387,#388,#389,#390));
#101=EDGE_LOOP('',(#391));
#102=EDGE_LOOP('',(#392));
#103=EDGE_LOOP('',(#393,#394,#395,#396));
#104=EDGE_LOOP('',(#397,#398,#399,#400,#401,#402,#403,#404,#405,#406,#407,
#408,#409,#410,#411,#412,#413,#414,#415,#416,#417));
#105=EDGE_LOOP('',(#418,#419,#420));
#106=EDGE_LOOP('',(#421,#422,#423,#424));
#107=EDGE_LOOP('',(#425,#426,#427,#428));
#108=EDGE_LOOP('',(#429,#430,#431,#432));
#109=EDGE_LOOP('',(#433,#434,#435,#436));
#110=EDGE_LOOP('',(#437,#438,#439,#440));
#111=EDGE_LOOP('',(#441,#442,#443,#444));
#112=EDGE_LOOP('',(#445,#446,#447,#448));
#113=EDGE_LOOP('',(#449,#450,#451,#452));
#114=EDGE_LOOP('',(#453,#454,#455,#456));
#115=EDGE_LOOP('',(#457,#458,#459,#460));
#116=EDGE_LOOP('',(#461,#462,#463,#464,#465,#466));
#117=EDGE_LOOP('',(#467,#468,#469,#470,#471,#472,#473,#474));
#118=EDGE_LOOP('',(#475,#476,#477,#478,#479,#480,#481));
#119=EDGE_LOOP('',(#482,#483,#484,#485));
#120=EDGE_LOOP('',(#486,#487,#488,#489,#490,#491,#492,#493));
#121=EDGE_LOOP('',(#494,#495,#496,#497,#498,#499));
#122=EDGE_LOOP('',(#500,#501,#502,#503));
#123=EDGE_LOOP('',(#504,#505,#506,#507,#508,#509,#510,#511));
#124=EDGE_LOOP('',(#512,#513,#514,#515,#516,#517,#518));
#125=EDGE_LOOP('',(#519,#520,#521,#522,#523,#524,#525,#526,#527));
#126=EDGE_LOOP('',(#528));
#127=EDGE_LOOP('',(#529,#530,#531,#532));
#128=EDGE_LOOP('',(#533,#534,#535,#536));
#129=EDGE_LOOP('',(#537,#538,#539,#540,#541,#542));
#130=EDGE_LOOP('',(#543,#544,#545,#546,#547,#548));
#131=LINE('',#762,#179);
#132=LINE('',#770,#180);
#133=LINE('',#784,#181);
#134=LINE('',#791,#182);
#135=LINE('',#798,#183);
#136=LINE('',#800,#184);
#137=LINE('',#802,#185);
#138=LINE('',#806,#186);
#139=LINE('',#838,#187);
#140=LINE('',#858,#188);
#141=LINE('',#866,#189);
#142=LINE('',#869,#190);
#143=LINE('',#879,#191);
#144=LINE('',#882,#192);
#145=LINE('',#892,#193);
#146=LINE('',#906,#194);
#147=LINE('',#912,#195);
#148=LINE('',#922,#196);
#149=LINE('',#928,#197);
#150=LINE('',#938,#198);
#151=LINE('',#944,#199);
#152=LINE('',#954,#200);
#153=LINE('',#968,#201);
#154=LINE('',#982,#202);
#155=LINE('',#996,#203);
#156=LINE('',#1010,#204);
#157=LINE('',#1017,#205);
#158=LINE('',#1019,#206);
#159=LINE('',#1021,#207);
#160=LINE('',#1022,#208);
#161=LINE('',#1025,#209);
#162=LINE('',#1028,#210);
#163=LINE('',#1031,#211);
#164=LINE('',#1036,#212);
#165=LINE('',#1037,#213);
#166=LINE('',#1039,#214);
#167=LINE('',#1040,#215);
#168=LINE('',#1043,#216);
#169=LINE('',#1046,#217);
#170=LINE('',#1049,#218);
#171=LINE('',#1050,#219);
#172=LINE('',#1053,#220);
#173=LINE('',#1055,#221);
#174=LINE('',#1057,#222);
#175=LINE('',#1058,#223);
#176=LINE('',#1060,#224);
#177=LINE('',#1062,#225);
#178=LINE('',#1064,#226);
#179=VECTOR('',#641,2.7);
#180=VECTOR('',#652,1.5);
#181=VECTOR('',#657,10.);
#182=VECTOR('',#658,10.);
#183=VECTOR('',#661,10.);
#184=VECTOR('',#662,10.);
#185=VECTOR('',#663,10.);
#186=VECTOR('',#666,10.);
#187=VECTOR('',#667,10.);
#188=VECTOR('',#676,10.);
#189=VECTOR('',#679,10.);
#190=VECTOR('',#682,10.);
#191=VECTOR('',#683,10.);
#192=VECTOR('',#686,10.);
#193=VECTOR('',#687,10.);
#194=VECTOR('',#688,10.);
#195=VECTOR('',#689,10.);
#196=VECTOR('',#690,10.);
#197=VECTOR('',#691,10.);
#198=VECTOR('',#692,10.);
#199=VECTOR('',#693,10.);
#200=VECTOR('',#694,10.);
#201=VECTOR('',#695,10.);
#202=VECTOR('',#696,10.);
#203=VECTOR('',#697,10.);
#204=VECTOR('',#698,10.);
#205=VECTOR('',#701,10.);
#206=VECTOR('',#702,10.);
#207=VECTOR('',#703,10.);
#208=VECTOR('',#704,10.);
#209=VECTOR('',#707,10.);
#210=VECTOR('',#710,10.);
#211=VECTOR('',#715,10.);
#212=VECTOR('',#722,10.);
#213=VECTOR('',#723,10.);
#214=VECTOR('',#726,10.);
#215=VECTOR('',#727,10.);
#216=VECTOR('',#730,10.);
#217=VECTOR('',#735,5.05000000000001);
#218=VECTOR('',#738,10.);
#219=VECTOR('',#739,10.);
#220=VECTOR('',#742,10.);
#221=VECTOR('',#743,10.);
#222=VECTOR('',#744,10.);
#223=VECTOR('',#745,10.);
#224=VECTOR('',#748,10.);
#225=VECTOR('',#751,10.);
#226=VECTOR('',#754,10.);
#227=CIRCLE('',#600,2.7);
#228=CIRCLE('',#601,2.7);
#229=CIRCLE('',#603,1.5);
#230=CIRCLE('',#605,1.5);
#231=CIRCLE('',#607,5.05000000000001);
#232=CIRCLE('',#609,35.);
#233=CIRCLE('',#610,14.9999999999999);
#234=CIRCLE('',#611,5.05000000000001);
#235=CIRCLE('',#612,5.05000000000001);
#236=CIRCLE('',#613,14.9999999999999);
#237=CIRCLE('',#619,14.9999999999999);
#238=CIRCLE('',#620,14.9999999999999);
#239=CIRCLE('',#623,5.05000000000001);
#240=CIRCLE('',#627,35.);
#241=VERTEX_POINT('',#759);
#242=VERTEX_POINT('',#761);
#243=VERTEX_POINT('',#765);
#244=VERTEX_POINT('',#768);
#245=VERTEX_POINT('',#772);
#246=VERTEX_POINT('',#782);
#247=VERTEX_POINT('',#783);
#248=VERTEX_POINT('',#785);
#249=VERTEX_POINT('',#790);
#250=VERTEX_POINT('',#797);
#251=VERTEX_POINT('',#799);
#252=VERTEX_POINT('',#801);
#253=VERTEX_POINT('',#803);
#254=VERTEX_POINT('',#805);
#255=VERTEX_POINT('',#807);
#256=VERTEX_POINT('',#812);
#257=VERTEX_POINT('',#817);
#258=VERTEX_POINT('',#822);
#259=VERTEX_POINT('',#827);
#260=VERTEX_POINT('',#832);
#261=VERTEX_POINT('',#837);
#262=VERTEX_POINT('',#839);
#263=VERTEX_POINT('',#841);
#264=VERTEX_POINT('',#846);
#265=VERTEX_POINT('',#848);
#266=VERTEX_POINT('',#850);
#267=VERTEX_POINT('',#855);
#268=VERTEX_POINT('',#857);
#269=VERTEX_POINT('',#864);
#270=VERTEX_POINT('',#865);
#271=VERTEX_POINT('',#867);
#272=VERTEX_POINT('',#878);
#273=VERTEX_POINT('',#880);
#274=VERTEX_POINT('',#891);
#275=VERTEX_POINT('',#905);
#276=VERTEX_POINT('',#907);
#277=VERTEX_POINT('',#921);
#278=VERTEX_POINT('',#923);
#279=VERTEX_POINT('',#937);
#280=VERTEX_POINT('',#939);
#281=VERTEX_POINT('',#953);
#282=VERTEX_POINT('',#967);
#283=VERTEX_POINT('',#981);
#284=VERTEX_POINT('',#995);
#285=VERTEX_POINT('',#1009);
#286=VERTEX_POINT('',#1016);
#287=VERTEX_POINT('',#1018);
#288=VERTEX_POINT('',#1020);
#289=VERTEX_POINT('',#1024);
#290=VERTEX_POINT('',#1026);
#291=VERTEX_POINT('',#1035);
#292=VERTEX_POINT('',#1042);
#293=VERTEX_POINT('',#1048);
#294=VERTEX_POINT('',#1052);
#295=VERTEX_POINT('',#1054);
#296=VERTEX_POINT('',#1056);
#297=EDGE_CURVE('',#241,#241,#227,.T.);
#298=EDGE_CURVE('',#241,#242,#131,.T.);
#299=EDGE_CURVE('',#242,#242,#228,.T.);
#300=EDGE_CURVE('',#243,#243,#229,.T.);
#301=EDGE_CURVE('',#244,#244,#230,.T.);
#302=EDGE_CURVE('',#244,#243,#132,.T.);
#303=EDGE_CURVE('',#245,#245,#231,.T.);
#304=EDGE_CURVE('',#246,#247,#133,.T.);
#305=EDGE_CURVE('',#246,#248,#17,.T.);
#306=EDGE_CURVE('',#248,#249,#134,.T.);
#307=EDGE_CURVE('',#247,#249,#18,.T.);
#308=EDGE_CURVE('',#250,#246,#135,.T.);
#309=EDGE_CURVE('',#251,#250,#136,.T.);
#310=EDGE_CURVE('',#252,#251,#137,.T.);
#311=EDGE_CURVE('',#253,#252,#232,.T.);
#312=EDGE_CURVE('',#254,#253,#138,.T.);
#313=EDGE_CURVE('',#254,#255,#19,.T.);
#314=EDGE_CURVE('',#255,#256,#20,.T.);
#315=EDGE_CURVE('',#256,#257,#21,.T.);
#316=EDGE_CURVE('',#257,#258,#22,.T.);
#317=EDGE_CURVE('',#258,#259,#23,.T.);
#318=EDGE_CURVE('',#259,#260,#24,.T.);
#319=EDGE_CURVE('',#261,#260,#139,.T.);
#320=EDGE_CURVE('',#262,#261,#233,.T.);
#321=EDGE_CURVE('',#263,#262,#25,.T.);
#322=EDGE_CURVE('',#264,#263,#234,.T.);
#323=EDGE_CURVE('',#265,#264,#235,.T.);
#324=EDGE_CURVE('',#266,#265,#26,.T.);
#325=EDGE_CURVE('',#267,#266,#236,.T.);
#326=EDGE_CURVE('',#268,#267,#140,.T.);
#327=EDGE_CURVE('',#248,#268,#27,.T.);
#328=EDGE_CURVE('',#269,#270,#141,.T.);
#329=EDGE_CURVE('',#271,#269,#15,.T.);
#330=EDGE_CURVE('',#270,#271,#142,.T.);
#331=EDGE_CURVE('',#272,#269,#143,.T.);
#332=EDGE_CURVE('',#273,#272,#16,.T.);
#333=EDGE_CURVE('',#271,#273,#144,.T.);
#334=EDGE_CURVE('',#274,#268,#145,.T.);
#335=EDGE_CURVE('',#249,#274,#28,.T.);
#336=EDGE_CURVE('',#275,#265,#146,.T.);
#337=EDGE_CURVE('',#276,#275,#29,.T.);
#338=EDGE_CURVE('',#266,#276,#147,.T.);
#339=EDGE_CURVE('',#277,#262,#148,.T.);
#340=EDGE_CURVE('',#278,#277,#30,.T.);
#341=EDGE_CURVE('',#263,#278,#149,.T.);
#342=EDGE_CURVE('',#259,#279,#150,.T.);
#343=EDGE_CURVE('',#280,#279,#31,.T.);
#344=EDGE_CURVE('',#260,#280,#151,.T.);
#345=EDGE_CURVE('',#258,#281,#152,.T.);
#346=EDGE_CURVE('',#279,#281,#32,.T.);
#347=EDGE_CURVE('',#257,#282,#153,.T.);
#348=EDGE_CURVE('',#281,#282,#33,.T.);
#349=EDGE_CURVE('',#256,#283,#154,.T.);
#350=EDGE_CURVE('',#282,#283,#34,.T.);
#351=EDGE_CURVE('',#255,#284,#155,.T.);
#352=EDGE_CURVE('',#283,#284,#35,.T.);
#353=EDGE_CURVE('',#285,#254,#156,.T.);
#354=EDGE_CURVE('',#284,#285,#36,.T.);
#355=EDGE_CURVE('',#286,#273,#157,.T.);
#356=EDGE_CURVE('',#287,#286,#158,.T.);
#357=EDGE_CURVE('',#288,#287,#159,.T.);
#358=EDGE_CURVE('',#288,#270,#160,.T.);
#359=EDGE_CURVE('',#261,#289,#161,.T.);
#360=EDGE_CURVE('',#290,#289,#237,.T.);
#361=EDGE_CURVE('',#267,#290,#162,.T.);
#362=EDGE_CURVE('',#276,#277,#238,.T.);
#363=EDGE_CURVE('',#285,#280,#163,.T.);
#364=EDGE_CURVE('',#275,#278,#239,.T.);
#365=EDGE_CURVE('',#253,#291,#164,.T.);
#366=EDGE_CURVE('',#289,#291,#165,.T.);
#367=EDGE_CURVE('',#287,#290,#166,.T.);
#368=EDGE_CURVE('',#286,#274,#167,.T.);
#369=EDGE_CURVE('',#252,#292,#168,.T.);
#370=EDGE_CURVE('',#291,#292,#240,.T.);
#371=EDGE_CURVE('',#264,#245,#169,.T.);
#372=EDGE_CURVE('',#272,#293,#170,.T.);
#373=EDGE_CURVE('',#293,#247,#171,.T.);
#374=EDGE_CURVE('',#292,#294,#172,.T.);
#375=EDGE_CURVE('',#294,#295,#173,.T.);
#376=EDGE_CURVE('',#295,#296,#174,.T.);
#377=EDGE_CURVE('',#296,#288,#175,.T.);
#378=EDGE_CURVE('',#294,#251,#176,.T.);
#379=EDGE_CURVE('',#295,#250,#177,.T.);
#380=EDGE_CURVE('',#296,#293,#178,.T.);
#381=ORIENTED_EDGE('',*,*,#297,.F.);
#382=ORIENTED_EDGE('',*,*,#298,.T.);
#383=ORIENTED_EDGE('',*,*,#299,.T.);
#384=ORIENTED_EDGE('',*,*,#298,.F.);
#385=ORIENTED_EDGE('',*,*,#299,.F.);
#386=ORIENTED_EDGE('',*,*,#300,.F.);
#387=ORIENTED_EDGE('',*,*,#301,.F.);
#388=ORIENTED_EDGE('',*,*,#302,.T.);
#389=ORIENTED_EDGE('',*,*,#300,.T.);
#390=ORIENTED_EDGE('',*,*,#302,.F.);
#391=ORIENTED_EDGE('',*,*,#303,.F.);
#392=ORIENTED_EDGE('',*,*,#301,.T.);
#393=ORIENTED_EDGE('',*,*,#304,.F.);
#394=ORIENTED_EDGE('',*,*,#305,.T.);
#395=ORIENTED_EDGE('',*,*,#306,.T.);
#396=ORIENTED_EDGE('',*,*,#307,.F.);
#397=ORIENTED_EDGE('',*,*,#308,.F.);
#398=ORIENTED_EDGE('',*,*,#309,.F.);
#399=ORIENTED_EDGE('',*,*,#310,.F.);
#400=ORIENTED_EDGE('',*,*,#311,.F.);
#401=ORIENTED_EDGE('',*,*,#312,.F.);
#402=ORIENTED_EDGE('',*,*,#313,.T.);
#403=ORIENTED_EDGE('',*,*,#314,.T.);
#404=ORIENTED_EDGE('',*,*,#315,.T.);
#405=ORIENTED_EDGE('',*,*,#316,.T.);
#406=ORIENTED_EDGE('',*,*,#317,.T.);
#407=ORIENTED_EDGE('',*,*,#318,.T.);
#408=ORIENTED_EDGE('',*,*,#319,.F.);
#409=ORIENTED_EDGE('',*,*,#320,.F.);
#410=ORIENTED_EDGE('',*,*,#321,.F.);
#411=ORIENTED_EDGE('',*,*,#322,.F.);
#412=ORIENTED_EDGE('',*,*,#323,.F.);
#413=ORIENTED_EDGE('',*,*,#324,.F.);
#414=ORIENTED_EDGE('',*,*,#325,.F.);
#415=ORIENTED_EDGE('',*,*,#326,.F.);
#416=ORIENTED_EDGE('',*,*,#327,.F.);
#417=ORIENTED_EDGE('',*,*,#305,.F.);
#418=ORIENTED_EDGE('',*,*,#328,.F.);
#419=ORIENTED_EDGE('',*,*,#329,.F.);
#420=ORIENTED_EDGE('',*,*,#330,.F.);
#421=ORIENTED_EDGE('',*,*,#331,.F.);
#422=ORIENTED_EDGE('',*,*,#332,.F.);
#423=ORIENTED_EDGE('',*,*,#333,.F.);
#424=ORIENTED_EDGE('',*,*,#329,.T.);
#425=ORIENTED_EDGE('',*,*,#327,.T.);
#426=ORIENTED_EDGE('',*,*,#334,.F.);
#427=ORIENTED_EDGE('',*,*,#335,.F.);
#428=ORIENTED_EDGE('',*,*,#306,.F.);
#429=ORIENTED_EDGE('',*,*,#324,.T.);
#430=ORIENTED_EDGE('',*,*,#336,.F.);
#431=ORIENTED_EDGE('',*,*,#337,.F.);
#432=ORIENTED_EDGE('',*,*,#338,.F.);
#433=ORIENTED_EDGE('',*,*,#321,.T.);
#434=ORIENTED_EDGE('',*,*,#339,.F.);
#435=ORIENTED_EDGE('',*,*,#340,.F.);
#436=ORIENTED_EDGE('',*,*,#341,.F.);
#437=ORIENTED_EDGE('',*,*,#318,.F.);
#438=ORIENTED_EDGE('',*,*,#342,.T.);
#439=ORIENTED_EDGE('',*,*,#343,.F.);
#440=ORIENTED_EDGE('',*,*,#344,.F.);
#441=ORIENTED_EDGE('',*,*,#317,.F.);
#442=ORIENTED_EDGE('',*,*,#345,.T.);
#443=ORIENTED_EDGE('',*,*,#346,.F.);
#444=ORIENTED_EDGE('',*,*,#342,.F.);
#445=ORIENTED_EDGE('',*,*,#316,.F.);
#446=ORIENTED_EDGE('',*,*,#347,.T.);
#447=ORIENTED_EDGE('',*,*,#348,.F.);
#448=ORIENTED_EDGE('',*,*,#345,.F.);
#449=ORIENTED_EDGE('',*,*,#315,.F.);
#450=ORIENTED_EDGE('',*,*,#349,.T.);
#451=ORIENTED_EDGE('',*,*,#350,.F.);
#452=ORIENTED_EDGE('',*,*,#347,.F.);
#453=ORIENTED_EDGE('',*,*,#314,.F.);
#454=ORIENTED_EDGE('',*,*,#351,.T.);
#455=ORIENTED_EDGE('',*,*,#352,.F.);
#456=ORIENTED_EDGE('',*,*,#349,.F.);
#457=ORIENTED_EDGE('',*,*,#313,.F.);
#458=ORIENTED_EDGE('',*,*,#353,.F.);
#459=ORIENTED_EDGE('',*,*,#354,.F.);
#460=ORIENTED_EDGE('',*,*,#351,.F.);
#461=ORIENTED_EDGE('',*,*,#330,.T.);
#462=ORIENTED_EDGE('',*,*,#333,.T.);
#463=ORIENTED_EDGE('',*,*,#355,.F.);
#464=ORIENTED_EDGE('',*,*,#356,.F.);
#465=ORIENTED_EDGE('',*,*,#357,.F.);
#466=ORIENTED_EDGE('',*,*,#358,.T.);
#467=ORIENTED_EDGE('',*,*,#339,.T.);
#468=ORIENTED_EDGE('',*,*,#320,.T.);
#469=ORIENTED_EDGE('',*,*,#359,.T.);
#470=ORIENTED_EDGE('',*,*,#360,.F.);
#471=ORIENTED_EDGE('',*,*,#361,.F.);
#472=ORIENTED_EDGE('',*,*,#325,.T.);
#473=ORIENTED_EDGE('',*,*,#338,.T.);
#474=ORIENTED_EDGE('',*,*,#362,.T.);
#475=ORIENTED_EDGE('',*,*,#343,.T.);
#476=ORIENTED_EDGE('',*,*,#346,.T.);
#477=ORIENTED_EDGE('',*,*,#348,.T.);
#478=ORIENTED_EDGE('',*,*,#350,.T.);
#479=ORIENTED_EDGE('',*,*,#352,.T.);
#480=ORIENTED_EDGE('',*,*,#354,.T.);
#481=ORIENTED_EDGE('',*,*,#363,.T.);
#482=ORIENTED_EDGE('',*,*,#340,.T.);
#483=ORIENTED_EDGE('',*,*,#362,.F.);
#484=ORIENTED_EDGE('',*,*,#337,.T.);
#485=ORIENTED_EDGE('',*,*,#364,.T.);
#486=ORIENTED_EDGE('',*,*,#319,.T.);
#487=ORIENTED_EDGE('',*,*,#344,.T.);
#488=ORIENTED_EDGE('',*,*,#363,.F.);
#489=ORIENTED_EDGE('',*,*,#353,.T.);
#490=ORIENTED_EDGE('',*,*,#312,.T.);
#491=ORIENTED_EDGE('',*,*,#365,.T.);
#492=ORIENTED_EDGE('',*,*,#366,.F.);
#493=ORIENTED_EDGE('',*,*,#359,.F.);
#494=ORIENTED_EDGE('',*,*,#326,.T.);
#495=ORIENTED_EDGE('',*,*,#361,.T.);
#496=ORIENTED_EDGE('',*,*,#367,.F.);
#497=ORIENTED_EDGE('',*,*,#356,.T.);
#498=ORIENTED_EDGE('',*,*,#368,.T.);
#499=ORIENTED_EDGE('',*,*,#334,.T.);
#500=ORIENTED_EDGE('',*,*,#311,.T.);
#501=ORIENTED_EDGE('',*,*,#369,.T.);
#502=ORIENTED_EDGE('',*,*,#370,.F.);
#503=ORIENTED_EDGE('',*,*,#365,.F.);
#504=ORIENTED_EDGE('',*,*,#323,.T.);
#505=ORIENTED_EDGE('',*,*,#371,.T.);
#506=ORIENTED_EDGE('',*,*,#303,.T.);
#507=ORIENTED_EDGE('',*,*,#371,.F.);
#508=ORIENTED_EDGE('',*,*,#322,.T.);
#509=ORIENTED_EDGE('',*,*,#341,.T.);
#510=ORIENTED_EDGE('',*,*,#364,.F.);
#511=ORIENTED_EDGE('',*,*,#336,.T.);
#512=ORIENTED_EDGE('',*,*,#332,.T.);
#513=ORIENTED_EDGE('',*,*,#372,.T.);
#514=ORIENTED_EDGE('',*,*,#373,.T.);
#515=ORIENTED_EDGE('',*,*,#307,.T.);
#516=ORIENTED_EDGE('',*,*,#335,.T.);
#517=ORIENTED_EDGE('',*,*,#368,.F.);
#518=ORIENTED_EDGE('',*,*,#355,.T.);
#519=ORIENTED_EDGE('',*,*,#374,.T.);
#520=ORIENTED_EDGE('',*,*,#375,.T.);
#521=ORIENTED_EDGE('',*,*,#376,.T.);
#522=ORIENTED_EDGE('',*,*,#377,.T.);
#523=ORIENTED_EDGE('',*,*,#357,.T.);
#524=ORIENTED_EDGE('',*,*,#367,.T.);
#525=ORIENTED_EDGE('',*,*,#360,.T.);
#526=ORIENTED_EDGE('',*,*,#366,.T.);
#527=ORIENTED_EDGE('',*,*,#370,.T.);
#528=ORIENTED_EDGE('',*,*,#297,.T.);
#529=ORIENTED_EDGE('',*,*,#310,.T.);
#530=ORIENTED_EDGE('',*,*,#378,.F.);
#531=ORIENTED_EDGE('',*,*,#374,.F.);
#532=ORIENTED_EDGE('',*,*,#369,.F.);
#533=ORIENTED_EDGE('',*,*,#309,.T.);
#534=ORIENTED_EDGE('',*,*,#379,.F.);
#535=ORIENTED_EDGE('',*,*,#375,.F.);
#536=ORIENTED_EDGE('',*,*,#378,.T.);
#537=ORIENTED_EDGE('',*,*,#304,.T.);
#538=ORIENTED_EDGE('',*,*,#373,.F.);
#539=ORIENTED_EDGE('',*,*,#380,.F.);
#540=ORIENTED_EDGE('',*,*,#376,.F.);
#541=ORIENTED_EDGE('',*,*,#379,.T.);
#542=ORIENTED_EDGE('',*,*,#308,.T.);
#543=ORIENTED_EDGE('',*,*,#328,.T.);
#544=ORIENTED_EDGE('',*,*,#358,.F.);
#545=ORIENTED_EDGE('',*,*,#377,.F.);
#546=ORIENTED_EDGE('',*,*,#380,.T.);
#547=ORIENTED_EDGE('',*,*,#372,.F.);
#548=ORIENTED_EDGE('',*,*,#331,.T.);
#549=CYLINDRICAL_SURFACE('',#599,2.7);
#550=CYLINDRICAL_SURFACE('',#604,1.5);
#551=CYLINDRICAL_SURFACE('',#618,14.9999999999999);
#552=CYLINDRICAL_SURFACE('',#626,35.);
#553=CYLINDRICAL_SURFACE('',#628,5.05000000000001);
#554=ADVANCED_FACE('',(#66),#549,.F.);
#555=ADVANCED_FACE('',(#67,#48),#51,.T.);
#556=ADVANCED_FACE('',(#68),#550,.F.);
#557=ADVANCED_FACE('',(#69,#49),#52,.F.);
#558=ADVANCED_FACE('',(#70),#37,.F.);
#559=ADVANCED_FACE('',(#71),#53,.T.);
#560=ADVANCED_FACE('',(#72),#54,.T.);
#561=ADVANCED_FACE('',(#73),#38,.F.);
#562=ADVANCED_FACE('',(#74),#39,.F.);
#563=ADVANCED_FACE('',(#75),#40,.F.);
#564=ADVANCED_FACE('',(#76),#41,.F.);
#565=ADVANCED_FACE('',(#77),#42,.F.);
#566=ADVANCED_FACE('',(#78),#43,.F.);
#567=ADVANCED_FACE('',(#79),#44,.F.);
#568=ADVANCED_FACE('',(#80),#45,.F.);
#569=ADVANCED_FACE('',(#81),#46,.F.);
#570=ADVANCED_FACE('',(#82),#47,.F.);
#571=ADVANCED_FACE('',(#83),#55,.F.);
#572=ADVANCED_FACE('',(#84),#551,.T.);
#573=ADVANCED_FACE('',(#85),#56,.F.);
#574=ADVANCED_FACE('',(#86),#57,.F.);
#575=ADVANCED_FACE('',(#87),#58,.T.);
#576=ADVANCED_FACE('',(#88),#59,.T.);
#577=ADVANCED_FACE('',(#89),#552,.F.);
#578=ADVANCED_FACE('',(#90),#553,.F.);
#579=ADVANCED_FACE('',(#91),#60,.F.);
#580=ADVANCED_FACE('',(#92,#50),#61,.T.);
#581=ADVANCED_FACE('',(#93),#62,.F.);
#582=ADVANCED_FACE('',(#94),#63,.F.);
#583=ADVANCED_FACE('',(#95),#64,.F.);
#584=ADVANCED_FACE('',(#96),#65,.F.);
#585=CLOSED_SHELL('',(#554,#555,#556,#557,#558,#559,#560,#561,#562,#563,
#564,#565,#566,#567,#568,#569,#570,#571,#572,#573,#574,#575,#576,#577,#578,
#579,#580,#581,#582,#583,#584));
#586=DERIVED_UNIT_ELEMENT(#588,1.);
#587=DERIVED_UNIT_ELEMENT(#1071,-3.);
#588=(
MASS_UNIT()
NAMED_UNIT(*)
SI_UNIT(.KILO.,.GRAM.)
);
#589=DERIVED_UNIT((#586,#587));
#590=MEASURE_REPRESENTATION_ITEM('density measure',
POSITIVE_RATIO_MEASURE(7850.),#589);
#591=PROPERTY_DEFINITION_REPRESENTATION(#596,#593);
#592=PROPERTY_DEFINITION_REPRESENTATION(#597,#594);
#593=REPRESENTATION('material name',(#595),#1068);
#594=REPRESENTATION('density',(#590),#1068);
#595=DESCRIPTIVE_REPRESENTATION_ITEM('Steel','Steel');
#596=PROPERTY_DEFINITION('material property','material name',#1078);
#597=PROPERTY_DEFINITION('material property','density of part',#1078);
#598=AXIS2_PLACEMENT_3D('',#757,#635,#636);
#599=AXIS2_PLACEMENT_3D('',#758,#637,#638);
#600=AXIS2_PLACEMENT_3D('',#760,#639,#640);
#601=AXIS2_PLACEMENT_3D('',#763,#642,#643);
#602=AXIS2_PLACEMENT_3D('',#764,#644,#645);
#603=AXIS2_PLACEMENT_3D('',#766,#646,#647);
#604=AXIS2_PLACEMENT_3D('',#767,#648,#649);
#605=AXIS2_PLACEMENT_3D('',#769,#650,#651);
#606=AXIS2_PLACEMENT_3D('',#771,#653,#654);
#607=AXIS2_PLACEMENT_3D('',#773,#655,#656);
#608=AXIS2_PLACEMENT_3D('',#796,#659,#660);
#609=AXIS2_PLACEMENT_3D('',#804,#664,#665);
#610=AXIS2_PLACEMENT_3D('',#840,#668,#669);
#611=AXIS2_PLACEMENT_3D('',#847,#670,#671);
#612=AXIS2_PLACEMENT_3D('',#849,#672,#673);
#613=AXIS2_PLACEMENT_3D('',#856,#674,#675);
#614=AXIS2_PLACEMENT_3D('',#863,#677,#678);
#615=AXIS2_PLACEMENT_3D('',#868,#680,#681);
#616=AXIS2_PLACEMENT_3D('',#881,#684,#685);
#617=AXIS2_PLACEMENT_3D('',#1015,#699,#700);
#618=AXIS2_PLACEMENT_3D('',#1023,#705,#706);
#619=AXIS2_PLACEMENT_3D('',#1027,#708,#709);
#620=AXIS2_PLACEMENT_3D('',#1029,#711,#712);
#621=AXIS2_PLACEMENT_3D('',#1030,#713,#714);
#622=AXIS2_PLACEMENT_3D('',#1032,#716,#717);
#623=AXIS2_PLACEMENT_3D('',#1033,#718,#719);
#624=AXIS2_PLACEMENT_3D('',#1034,#720,#721);
#625=AXIS2_PLACEMENT_3D('',#1038,#724,#725);
#626=AXIS2_PLACEMENT_3D('',#1041,#728,#729);
#627=AXIS2_PLACEMENT_3D('',#1044,#731,#732);
#628=AXIS2_PLACEMENT_3D('',#1045,#733,#734);
#629=AXIS2_PLACEMENT_3D('',#1047,#736,#737);
#630=AXIS2_PLACEMENT_3D('',#1051,#740,#741);
#631=AXIS2_PLACEMENT_3D('',#1059,#746,#747);
#632=AXIS2_PLACEMENT_3D('',#1061,#749,#750);
#633=AXIS2_PLACEMENT_3D('',#1063,#752,#753);
#634=AXIS2_PLACEMENT_3D('',#1065,#755,#756);
#635=DIRECTION('axis',(0.,0.,1.));
#636=DIRECTION('refdir',(1.,0.,0.));
#637=DIRECTION('center_axis',(0.,0.,-1.));
#638=DIRECTION('ref_axis',(-1.,0.,0.));
#639=DIRECTION('center_axis',(0.,0.,-1.));
#640=DIRECTION('ref_axis',(-1.,0.,0.));
#641=DIRECTION('',(0.,0.,-1.));
#642=DIRECTION('center_axis',(0.,0.,-1.));
#643=DIRECTION('ref_axis',(-1.,0.,0.));
#644=DIRECTION('center_axis',(0.,0.,1.));
#645=DIRECTION('ref_axis',(-1.,0.,0.));
#646=DIRECTION('center_axis',(0.,0.,1.));
#647=DIRECTION('ref_axis',(-1.,0.,0.));
#648=DIRECTION('center_axis',(0.,0.,-1.));
#649=DIRECTION('ref_axis',(-1.,0.,0.));
#650=DIRECTION('center_axis',(0.,0.,1.));
#651=DIRECTION('ref_axis',(-1.,0.,0.));
#652=DIRECTION('',(0.,0.,1.));
#653=DIRECTION('center_axis',(0.,0.,1.));
#654=DIRECTION('ref_axis',(-1.,0.,0.));
#655=DIRECTION('center_axis',(0.,0.,1.));
#656=DIRECTION('ref_axis',(1.,0.,0.));
#657=DIRECTION('',(0.,0.,-1.));
#658=DIRECTION('',(0.,0.,-1.));
#659=DIRECTION('center_axis',(0.,0.,-1.));
#660=DIRECTION('ref_axis',(1.,0.,0.));
#661=DIRECTION('',(-0.745521964111648,0.666481058265808,0.));
#662=DIRECTION('',(-0.288965776456359,-0.95733942780864,0.));
#663=DIRECTION('',(-0.745521964111648,0.666481058265808,0.));
#664=DIRECTION('center_axis',(0.,0.,-1.));
#665=DIRECTION('ref_axis',(0.624654598939342,0.780901166617089,0.));
#666=DIRECTION('',(0.666481058265804,0.745521964111652,0.));
#667=DIRECTION('',(0.666481058265804,0.745521964111652,0.));
#668=DIRECTION('center_axis',(0.,0.,1.));
#669=DIRECTION('ref_axis',(-0.745521964111653,0.666481058265802,0.));
#670=DIRECTION('center_axis',(0.,0.,-1.));
#671=DIRECTION('ref_axis',(1.,0.,0.));
#672=DIRECTION('center_axis',(0.,0.,-1.));
#673=DIRECTION('ref_axis',(1.,0.,0.));
#674=DIRECTION('center_axis',(0.,0.,1.));
#675=DIRECTION('ref_axis',(-0.745521964111653,0.666481058265802,0.));
#676=DIRECTION('',(-0.666481058265802,-0.745521964111653,0.));
#677=DIRECTION('center_axis',(0.,0.,-1.));
#678=DIRECTION('ref_axis',(1.,0.,0.));
#679=DIRECTION('',(0.919108169580449,0.394005295155377,0.));
#680=DIRECTION('center_axis',(0.,0.,-1.));
#681=DIRECTION('ref_axis',(0.92127724940541,-0.388906453698062,0.));
#682=DIRECTION('',(-0.745521964111652,0.666481058265803,0.));
#683=DIRECTION('',(0.,0.,1.));
#684=DIRECTION('center_axis',(0.,0.,-1.));
#685=DIRECTION('ref_axis',(0.921277249418242,-0.388906453667664,0.));
#686=DIRECTION('',(0.,0.,-1.));
#687=DIRECTION('',(0.,0.,1.));
#688=DIRECTION('',(0.,0.,1.));
#689=DIRECTION('',(0.,0.,-1.));
#690=DIRECTION('',(0.,0.,1.));
#691=DIRECTION('',(0.,0.,-1.));
#692=DIRECTION('',(0.,0.,-1.));
#693=DIRECTION('',(0.,0.,-1.));
#694=DIRECTION('',(0.,0.,-1.));
#695=DIRECTION('',(0.,0.,-1.));
#696=DIRECTION('',(0.,0.,-1.));
#697=DIRECTION('',(0.,0.,-1.));
#698=DIRECTION('',(0.,0.,1.));
#699=DIRECTION('center_axis',(-0.666481058265803,-0.745521964111652,0.));
#700=DIRECTION('ref_axis',(-0.745521964111652,0.666481058265803,0.));
#701=DIRECTION('',(0.745521964111652,-0.666481058265803,0.));
#702=DIRECTION('',(0.,0.,-1.));
#703=DIRECTION('',(-0.745521964111652,0.666481058265803,0.));
#704=DIRECTION('',(0.,0.,-1.));
#705=DIRECTION('center_axis',(0.,0.,1.));
#706=DIRECTION('ref_axis',(-0.745521964111653,0.666481058265802,0.));
#707=DIRECTION('',(0.,0.,1.));
#708=DIRECTION('center_axis',(0.,0.,1.));
#709=DIRECTION('ref_axis',(-0.745521964111653,0.666481058265802,0.));
#710=DIRECTION('',(0.,0.,1.));
#711=DIRECTION('center_axis',(0.,0.,1.));
#712=DIRECTION('ref_axis',(-0.745521964111653,0.666481058265802,0.));
#713=DIRECTION('center_axis',(0.,0.,1.));
#714=DIRECTION('ref_axis',(-1.,0.,0.));
#715=DIRECTION('',(-0.666481058265804,-0.745521964111652,0.));
#716=DIRECTION('center_axis',(0.,0.,1.));
#717=DIRECTION('ref_axis',(-1.,0.,0.));
#718=DIRECTION('center_axis',(0.,0.,1.));
#719=DIRECTION('ref_axis',(1.,0.,0.));
#720=DIRECTION('center_axis',(0.745521964111652,-0.666481058265804,0.));
#721=DIRECTION('ref_axis',(0.666481058265804,0.745521964111652,0.));
#722=DIRECTION('',(0.,0.,1.));
#723=DIRECTION('',(0.666481058265804,0.745521964111652,0.));
#724=DIRECTION('center_axis',(-0.745521964111653,0.666481058265802,0.));
#725=DIRECTION('ref_axis',(-0.666481058265802,-0.745521964111653,0.));
#726=DIRECTION('',(-0.666481058265802,-0.745521964111653,0.));
#727=DIRECTION('',(-0.666481058265802,-0.745521964111653,0.));
#728=DIRECTION('center_axis',(0.,0.,1.));
#729=DIRECTION('ref_axis',(0.624654598939342,0.780901166617089,0.));
#730=DIRECTION('',(0.,0.,1.));
#731=DIRECTION('center_axis',(0.,0.,-1.));
#732=DIRECTION('ref_axis',(0.624654598939342,0.780901166617089,0.));
#733=DIRECTION('center_axis',(0.,0.,1.));
#734=DIRECTION('ref_axis',(1.,0.,0.));
#735=DIRECTION('',(0.,0.,1.));
#736=DIRECTION('center_axis',(0.,0.,1.));
#737=DIRECTION('ref_axis',(-1.,0.,0.));
#738=DIRECTION('',(-0.919108169580449,-0.394005295155377,0.));
#739=DIRECTION('',(0.745521964111648,-0.666481058265808,0.));
#740=DIRECTION('center_axis',(0.,0.,1.));
#741=DIRECTION('ref_axis',(-1.,0.,0.));
#742=DIRECTION('',(-0.745521964111648,0.666481058265808,0.));
#743=DIRECTION('',(-0.288965776456359,-0.95733942780864,0.));
#744=DIRECTION('',(-0.745521964111648,0.666481058265808,0.));
#745=DIRECTION('',(0.919108169580449,0.394005295155377,0.));
#746=DIRECTION('center_axis',(-0.666481058265808,-0.745521964111648,0.));
#747=DIRECTION('ref_axis',(-0.745521964111648,0.666481058265808,0.));
#748=DIRECTION('',(0.,0.,-1.));
#749=DIRECTION('center_axis',(0.95733942780864,-0.288965776456359,0.));
#750=DIRECTION('ref_axis',(-0.288965776456359,-0.95733942780864,0.));
#751=DIRECTION('',(0.,0.,-1.));
#752=DIRECTION('center_axis',(-0.666481058265808,-0.745521964111648,0.));
#753=DIRECTION('ref_axis',(-0.745521964111648,0.666481058265808,0.));
#754=DIRECTION('',(0.,0.,-1.));
#755=DIRECTION('center_axis',(-0.394005295155377,0.91910816958045,0.));
#756=DIRECTION('ref_axis',(0.919108169580449,0.394005295155377,0.));
#757=CARTESIAN_POINT('',(0.,0.,0.));
#758=CARTESIAN_POINT('Origin',(-138.704013849986,-16.3657019842312,78.1035162724936));
#759=CARTESIAN_POINT('',(-136.004013849986,-16.3657019842312,78.1035162724936));
#760=CARTESIAN_POINT('Origin',(-138.704013849986,-16.3657019842312,78.1035162724936));
#761=CARTESIAN_POINT('',(-136.004013849986,-16.3657019842312,76.6035162724936));
#762=CARTESIAN_POINT('',(-136.004013849986,-16.3657019842312,78.1035162724936));
#763=CARTESIAN_POINT('Origin',(-138.704013849986,-16.3657019842312,76.6035162724936));
#764=CARTESIAN_POINT('Origin',(-138.704013849986,-16.3657019842312,76.6035162724936));
#765=CARTESIAN_POINT('',(-137.204013849986,-16.3657019842312,76.6035162724936));
#766=CARTESIAN_POINT('Origin',(-138.704013849986,-16.3657019842312,76.6035162724936));
#767=CARTESIAN_POINT('Origin',(-138.704013849986,-16.3657019842312,78.1035162724936));
#768=CARTESIAN_POINT('',(-137.204013849986,-16.3657019842312,75.1035162724936));
#769=CARTESIAN_POINT('Origin',(-138.704013849986,-16.3657019842312,75.1035162724936));
#770=CARTESIAN_POINT('',(-137.204013849986,-16.3657019842312,78.1035162724936));
#771=CARTESIAN_POINT('Origin',(-138.704013849986,-16.3657019842312,75.1035162724936));
#772=CARTESIAN_POINT('',(-143.754013849986,-16.3657019842312,75.1035162724936));
#773=CARTESIAN_POINT('Origin',(-138.704013849986,-16.3657019842312,75.1035162724936));
#774=CARTESIAN_POINT('Ctrl Pts',(-112.317270379157,22.7364482575286,72.1035162724936));
#775=CARTESIAN_POINT('Ctrl Pts',(-112.317270379157,22.7364482575286,69.7035162724936));
#776=CARTESIAN_POINT('Ctrl Pts',(-106.285132178779,23.7251491001952,72.1035162724936));
#777=CARTESIAN_POINT('Ctrl Pts',(-106.285132178779,23.7251491001952,69.7035162724936));
#778=CARTESIAN_POINT('Ctrl Pts',(-94.8611640780402,28.4332143414367,72.1035162724936));
#779=CARTESIAN_POINT('Ctrl Pts',(-94.8611640780402,28.4332143414367,69.7035162724936));
#780=CARTESIAN_POINT('Ctrl Pts',(-97.3013952162695,41.0315205002654,72.1035162724936));
#781=CARTESIAN_POINT('Ctrl Pts',(-97.3013952162695,41.0315205002654,69.7035162724936));
#782=CARTESIAN_POINT('',(-106.995066912766,24.277095122547,72.1035162724936));
#783=CARTESIAN_POINT('',(-106.995066912766,24.277095122547,70.1035162724936));
#784=CARTESIAN_POINT('',(-106.995066912766,24.277095122547,72.1035162724936));
#785=CARTESIAN_POINT('',(-112.317270379157,22.7364482575286,72.1035162724936));
#786=CARTESIAN_POINT('Ctrl Pts',(-106.995066912766,24.277095122547,72.1035162724936));
#787=CARTESIAN_POINT('Ctrl Pts',(-108.90660140187,23.4782706851938,72.1035162724936));
#788=CARTESIAN_POINT('Ctrl Pts',(-110.785725261566,22.9874769803534,72.1035162724936));
#789=CARTESIAN_POINT('Ctrl Pts',(-112.317270379157,22.7364482575286,72.1035162724936));
#790=CARTESIAN_POINT('',(-112.317270379157,22.7364482575286,70.1035162724936));
#791=CARTESIAN_POINT('',(-112.317270379157,22.7364482575286,72.1035162724936));
#792=CARTESIAN_POINT('Ctrl Pts',(-106.995066912766,24.277095122547,70.1035162724936));
#793=CARTESIAN_POINT('Ctrl Pts',(-108.90660140187,23.4782706851937,70.1035162724936));
#794=CARTESIAN_POINT('Ctrl Pts',(-110.785725261566,22.9874769803534,70.1035162724936));
#795=CARTESIAN_POINT('Ctrl Pts',(-112.317270379157,22.7364482575286,70.1035162724936));
#796=CARTESIAN_POINT('Origin',(18.4370497025956,63.0466774510599,72.1035162724936));
#797=CARTESIAN_POINT('',(-96.8168331440118,15.1779668070464,72.1035162724936));
#798=CARTESIAN_POINT('',(-76.6800194191522,-2.82392390510435,72.1035162724936));
#799=CARTESIAN_POINT('',(-92.3232769714814,30.0650532564894,72.1035162724936));
#800=CARTESIAN_POINT('',(-83.1369750341916,60.4991383864654,72.1035162724936));
#801=CARTESIAN_POINT('',(-81.1404475098065,20.0678373825021,72.1035162724936));
#802=CARTESIAN_POINT('',(-64.145294538927,4.87452573954052,72.1035162724936));
#803=CARTESIAN_POINT('',(-94.1971314750211,10.9131803473642,72.1035162724936));
#804=CARTESIAN_POINT('Origin',(-68.1038627311133,-12.4136566919388,72.1035162724936));
#805=CARTESIAN_POINT('',(-112.831656584891,-9.93129465744171,72.1035162724936));
#806=CARTESIAN_POINT('',(-72.8913264565959,34.745734037107,72.1035162724936));
#807=CARTESIAN_POINT('',(-96.7104766341162,9.60595278061518,72.1035162724936));
#808=CARTESIAN_POINT('Ctrl Pts',(-112.831656584891,-9.93129465744171,72.1035162724936));
#809=CARTESIAN_POINT('Ctrl Pts',(-109.811780699689,-2.59005946329881,72.1035162724936));
#810=CARTESIAN_POINT('Ctrl Pts',(-104.727784199903,3.7571290741506,72.1035162724936));
#811=CARTESIAN_POINT('Ctrl Pts',(-96.7104766341162,9.60595278061518,72.1035162724936));
#812=CARTESIAN_POINT('',(-118.705959490485,11.3866196720947,72.1035162724936));
#813=CARTESIAN_POINT('Ctrl Pts',(-96.7104766341162,9.60595278061518,72.1035162724936));
#814=CARTESIAN_POINT('Ctrl Pts',(-104.8323108283,7.83978965500481,72.1035162724936));
#815=CARTESIAN_POINT('Ctrl Pts',(-113.783029748054,7.33347637375481,72.1035162724936));
#816=CARTESIAN_POINT('Ctrl Pts',(-118.705959490485,11.3866196720947,72.1035162724936));
#817=CARTESIAN_POINT('',(-120.902758103843,-1.13111916610116,72.1035162724936));
#818=CARTESIAN_POINT('Ctrl Pts',(-118.705959490485,11.3866196720947,72.1035162724936));
#819=CARTESIAN_POINT('Ctrl Pts',(-118.347568139548,4.14564203117976,72.1035162724936));
#820=CARTESIAN_POINT('Ctrl Pts',(-119.872770973105,-0.558687391580293,72.1035162724936));
#821=CARTESIAN_POINT('Ctrl Pts',(-120.902758103843,-1.13111916610116,72.1035162724936));
#822=CARTESIAN_POINT('',(-127.017276595588,0.145651738439838,72.1035162724936));
#823=CARTESIAN_POINT('Ctrl Pts',(-120.902758103843,-1.13111916610116,72.1035162724936));
#824=CARTESIAN_POINT('Ctrl Pts',(-122.501743352408,-1.63424601394048,72.1035162724936));
#825=CARTESIAN_POINT('Ctrl Pts',(-125.250756369681,-0.795829457391406,72.1035162724936));
#826=CARTESIAN_POINT('Ctrl Pts',(-127.017276595588,0.145651738439838,72.1035162724936));
#827=CARTESIAN_POINT('',(-132.740358224387,-11.127620037378,72.1035162724936));
#828=CARTESIAN_POINT('Ctrl Pts',(-127.017276595588,0.145651738439838,72.1035162724936));
#829=CARTESIAN_POINT('Ctrl Pts',(-127.385282185264,-3.45356214515085,72.1035162724936));
#830=CARTESIAN_POINT('Ctrl Pts',(-128.801129920478,-7.06752701789256,72.1035162724936));
#831=CARTESIAN_POINT('Ctrl Pts',(-132.740358224387,-11.127620037378,72.1035162724936));
#832=CARTESIAN_POINT('',(-114.969168277383,-12.3223032173016,72.1035162724936));
#833=CARTESIAN_POINT('Ctrl Pts',(-132.740358224387,-11.127620037378,72.1035162724936));
#834=CARTESIAN_POINT('Ctrl Pts',(-127.228917089617,-5.75356276677996,72.1035162724936));
#835=CARTESIAN_POINT('Ctrl Pts',(-119.028514136403,-8.20881152355836,72.1035162724936));
#836=CARTESIAN_POINT('Ctrl Pts',(-114.969168277383,-12.3223032173016,72.1035162724936));
#837=CARTESIAN_POINT('',(-127.521184388311,-26.3629178582182,72.1035162724936));
#838=CARTESIAN_POINT('',(-72.8913264565959,34.745734037107,72.1035162724936));
#839=CARTESIAN_POINT('',(-129.023328220344,-27.823639221799,72.1035162724936));
#840=CARTESIAN_POINT('Origin',(-138.704013849986,-16.3657019842312,72.1035162724936));
#841=CARTESIAN_POINT('',(-137.610801706419,-21.2959542302282,72.1035162724936));
#842=CARTESIAN_POINT('Ctrl Pts',(-137.610801706419,-21.2959542302282,72.1035162724936));
#843=CARTESIAN_POINT('Ctrl Pts',(-136.946467869408,-25.2533214032534,72.1035162724936));
#844=CARTESIAN_POINT('Ctrl Pts',(-132.996965224667,-27.9837518811079,72.1035162724936));
#845=CARTESIAN_POINT('Ctrl Pts',(-129.023328220344,-27.823639221799,72.1035162724936));
#846=CARTESIAN_POINT('',(-143.754013849986,-16.3657019842312,72.1035162724936));
#847=CARTESIAN_POINT('Origin',(-138.704013849986,-16.3657019842312,72.1035162724936));
#848=CARTESIAN_POINT('',(-142.484439999912,-19.7139669266982,72.1035162724936));
#849=CARTESIAN_POINT('Origin',(-138.704013849986,-16.3657019842312,72.1035162724936));
#850=CARTESIAN_POINT('',(-152.448897303173,-22.3722133559276,72.1035162724936));
#851=CARTESIAN_POINT('Ctrl Pts',(-152.448897303173,-22.3722133559276,72.1035162724936));
#852=CARTESIAN_POINT('Ctrl Pts',(-149.274853698762,-22.1571532957506,72.1035162724936));
#853=CARTESIAN_POINT('Ctrl Pts',(-145.909559512763,-21.3133197963618,72.1035162724936));
#854=CARTESIAN_POINT('Ctrl Pts',(-142.484439999912,-19.7139669266982,72.1035162724936));
#855=CARTESIAN_POINT('',(-149.886843311661,-6.36848611024427,72.1035162724936));
#856=CARTESIAN_POINT('Origin',(-138.704013849986,-16.3657019842312,72.1035162724936));
#857=CARTESIAN_POINT('',(-123.487962265123,23.1611537858617,72.1035162724936));
#858=CARTESIAN_POINT('',(-70.1865263894854,82.7838402390584,72.1035162724936));
#859=CARTESIAN_POINT('Ctrl Pts',(-112.317270379157,22.7364482575286,72.1035162724936));
#860=CARTESIAN_POINT('Ctrl Pts',(-116.79955218406,22.2403145683938,72.1035162724936));
#861=CARTESIAN_POINT('Ctrl Pts',(-120.431976642715,22.4582273472655,72.1035162724936));
#862=CARTESIAN_POINT('Ctrl Pts',(-123.487962265123,23.1611537858617,72.1035162724936));
#863=CARTESIAN_POINT('Origin',(18.4370497025956,63.0466774510599,72.1035162724936));
#864=CARTESIAN_POINT('',(-97.8771184974055,32.7167987884586,72.1035162724936));
#865=CARTESIAN_POINT('',(-95.8908132546976,33.5682924529954,72.1035162724936));
#866=CARTESIAN_POINT('',(-49.5284272511708,53.4430212237837,72.1035162724936));
#867=CARTESIAN_POINT('',(-97.255848630377,34.7886055564962,72.1035162724936));
#868=CARTESIAN_POINT('Origin',(-201.401418308509,76.1223912804044,72.1035162724936));
#869=CARTESIAN_POINT('',(-71.4424836621644,11.711996644087,72.1035162724936));
#870=CARTESIAN_POINT('Ctrl Pts',(-112.317270379157,22.7364482575286,72.1035162724936));
#871=CARTESIAN_POINT('Ctrl Pts',(-112.317270379157,22.7364482575286,69.7035162724936));
#872=CARTESIAN_POINT('Ctrl Pts',(-106.285132178779,23.7251491001952,72.1035162724936));
#873=CARTESIAN_POINT('Ctrl Pts',(-106.285132178779,23.7251491001952,69.7035162724936));
#874=CARTESIAN_POINT('Ctrl Pts',(-94.8611640780402,28.4332143414367,72.1035162724936));
#875=CARTESIAN_POINT('Ctrl Pts',(-94.8611640780402,28.4332143414367,69.7035162724936));
#876=CARTESIAN_POINT('Ctrl Pts',(-97.3013952162695,41.0315205002654,72.1035162724936));
#877=CARTESIAN_POINT('Ctrl Pts',(-97.3013952162695,41.0315205002654,69.7035162724936));
#878=CARTESIAN_POINT('',(-97.8771184974055,32.7167987884585,70.1035162724936));
#879=CARTESIAN_POINT('',(-97.8771184974055,32.7167987884586,70.1035162724936));
#880=CARTESIAN_POINT('',(-97.255848630377,34.7886055564962,70.1035162724936));
#881=CARTESIAN_POINT('Origin',(-201.401418485504,76.1223913515433,70.1035162724936));
#882=CARTESIAN_POINT('',(-97.255848630377,34.7886055564962,72.1035162724936));
#883=CARTESIAN_POINT('Ctrl Pts',(-123.487962265123,23.1611537858617,72.1035162724936));
#884=CARTESIAN_POINT('Ctrl Pts',(-123.487962265123,23.1611537858617,69.7035162724936));
#885=CARTESIAN_POINT('Ctrl Pts',(-120.431976642715,22.4582273472655,72.1035162724936));
#886=CARTESIAN_POINT('Ctrl Pts',(-120.431976642715,22.4582273472655,69.7035162724936));
#887=CARTESIAN_POINT('Ctrl Pts',(-116.79955218406,22.2403145683938,72.1035162724936));
#888=CARTESIAN_POINT('Ctrl Pts',(-116.79955218406,22.2403145683938,69.7035162724936));
#889=CARTESIAN_POINT('Ctrl Pts',(-112.317270379157,22.7364482575286,72.1035162724936));
#890=CARTESIAN_POINT('Ctrl Pts',(-112.317270379157,22.7364482575286,69.7035162724936));
#891=CARTESIAN_POINT('',(-123.487962265123,23.1611537858617,70.1035162724936));
#892=CARTESIAN_POINT('',(-123.487962265123,23.1611537858617,72.1035162724936));
#893=CARTESIAN_POINT('Ctrl Pts',(-112.317270379157,22.7364482575286,70.1035162724936));
#894=CARTESIAN_POINT('Ctrl Pts',(-116.79955218406,22.2403145683938,70.1035162724936));
#895=CARTESIAN_POINT('Ctrl Pts',(-120.431976642715,22.4582273472655,70.1035162724936));
#896=CARTESIAN_POINT('Ctrl Pts',(-123.487962265123,23.1611537858617,70.1035162724936));
#897=CARTESIAN_POINT('Ctrl Pts',(-142.484439999912,-19.7139669266982,72.1035162724936));
#898=CARTESIAN_POINT('Ctrl Pts',(-142.484439999912,-19.7139669266982,69.7035162724936));
#899=CARTESIAN_POINT('Ctrl Pts',(-145.909559512763,-21.3133197963618,72.1035162724936));
#900=CARTESIAN_POINT('Ctrl Pts',(-145.909559512763,-21.3133197963618,69.7035162724936));
#901=CARTESIAN_POINT('Ctrl Pts',(-149.274853698762,-22.1571532957506,72.1035162724936));
#902=CARTESIAN_POINT('Ctrl Pts',(-149.274853698762,-22.1571532957506,69.7035162724936));
#903=CARTESIAN_POINT('Ctrl Pts',(-152.448897303173,-22.3722133559276,72.1035162724936));
#904=CARTESIAN_POINT('Ctrl Pts',(-152.448897303173,-22.3722133559276,69.7035162724936));
#905=CARTESIAN_POINT('',(-142.484439999912,-19.7139669266982,70.1035162724936));
#906=CARTESIAN_POINT('',(-142.484439999912,-19.7139669266982,72.1035162724936));
#907=CARTESIAN_POINT('',(-152.448897303173,-22.3722133559276,70.1035162724936));
#908=CARTESIAN_POINT('Ctrl Pts',(-152.448897303173,-22.3722133559276,70.1035162724936));
#909=CARTESIAN_POINT('Ctrl Pts',(-149.274853698762,-22.1571532957506,70.1035162724936));
#910=CARTESIAN_POINT('Ctrl Pts',(-145.909559512763,-21.3133197963618,70.1035162724936));
#911=CARTESIAN_POINT('Ctrl Pts',(-142.484439999912,-19.7139669266982,70.1035162724936));
#912=CARTESIAN_POINT('',(-152.448897303173,-22.3722133559276,72.1035162724936));
#913=CARTESIAN_POINT('Ctrl Pts',(-129.023328220344,-27.823639221799,72.1035162724936));
#914=CARTESIAN_POINT('Ctrl Pts',(-129.023328220344,-27.823639221799,69.7035162724936));
#915=CARTESIAN_POINT('Ctrl Pts',(-132.996965224667,-27.9837518811079,72.1035162724936));
#916=CARTESIAN_POINT('Ctrl Pts',(-132.996965224667,-27.9837518811079,69.7035162724936));
#917=CARTESIAN_POINT('Ctrl Pts',(-136.946467869408,-25.2533214032534,72.1035162724936));
#918=CARTESIAN_POINT('Ctrl Pts',(-136.946467869408,-25.2533214032534,69.7035162724936));
#919=CARTESIAN_POINT('Ctrl Pts',(-137.610801706419,-21.2959542302282,72.1035162724936));
#920=CARTESIAN_POINT('Ctrl Pts',(-137.610801706419,-21.2959542302282,69.7035162724936));
#921=CARTESIAN_POINT('',(-129.023328220344,-27.823639221799,70.1035162724936));
#922=CARTESIAN_POINT('',(-129.023328220344,-27.823639221799,72.1035162724936));
#923=CARTESIAN_POINT('',(-137.610801706419,-21.2959542302282,70.1035162724936));
#924=CARTESIAN_POINT('Ctrl Pts',(-137.610801706419,-21.2959542302282,70.1035162724936));
#925=CARTESIAN_POINT('Ctrl Pts',(-136.946467869408,-25.2533214032534,70.1035162724936));
#926=CARTESIAN_POINT('Ctrl Pts',(-132.996965224667,-27.9837518811079,70.1035162724936));
#927=CARTESIAN_POINT('Ctrl Pts',(-129.023328220344,-27.823639221799,70.1035162724936));
#928=CARTESIAN_POINT('',(-137.610801706419,-21.2959542302282,72.1035162724936));
#929=CARTESIAN_POINT('Ctrl Pts',(-132.740358224387,-11.127620037378,72.1035162724936));
#930=CARTESIAN_POINT('Ctrl Pts',(-132.740358224387,-11.127620037378,69.7035162724936));
#931=CARTESIAN_POINT('Ctrl Pts',(-127.228917089617,-5.75356276677996,72.1035162724936));
#932=CARTESIAN_POINT('Ctrl Pts',(-127.228917089617,-5.75356276677996,69.7035162724936));
#933=CARTESIAN_POINT('Ctrl Pts',(-119.028514136403,-8.20881152355836,72.1035162724936));
#934=CARTESIAN_POINT('Ctrl Pts',(-119.028514136403,-8.20881152355836,69.7035162724936));
#935=CARTESIAN_POINT('Ctrl Pts',(-114.969168277383,-12.3223032173016,72.1035162724936));
#936=CARTESIAN_POINT('Ctrl Pts',(-114.969168277383,-12.3223032173016,69.7035162724936));
#937=CARTESIAN_POINT('',(-132.740358224387,-11.127620037378,70.1035162724936));
#938=CARTESIAN_POINT('',(-132.740358224387,-11.127620037378,72.1035162724936));
#939=CARTESIAN_POINT('',(-114.969168277383,-12.3223032173016,70.1035162724936));
#940=CARTESIAN_POINT('Ctrl Pts',(-114.969168277383,-12.3223032173016,70.1035162724936));
#941=CARTESIAN_POINT('Ctrl Pts',(-119.028514136403,-8.20881152355836,70.1035162724936));
#942=CARTESIAN_POINT('Ctrl Pts',(-127.228917089617,-5.75356276677996,70.1035162724936));
#943=CARTESIAN_POINT('Ctrl Pts',(-132.740358224387,-11.127620037378,70.1035162724936));
#944=CARTESIAN_POINT('',(-114.969168277383,-12.3223032173016,72.1035162724936));
#945=CARTESIAN_POINT('Ctrl Pts',(-127.017276595588,0.145651738439838,72.1035162724936));
#946=CARTESIAN_POINT('Ctrl Pts',(-127.017276595588,0.145651738439838,69.7035162724936));
#947=CARTESIAN_POINT('Ctrl Pts',(-127.385282185264,-3.45356214515085,72.1035162724936));
#948=CARTESIAN_POINT('Ctrl Pts',(-127.385282185264,-3.45356214515085,69.7035162724936));
#949=CARTESIAN_POINT('Ctrl Pts',(-128.801129920478,-7.06752701789256,72.1035162724936));
#950=CARTESIAN_POINT('Ctrl Pts',(-128.801129920478,-7.06752701789256,69.7035162724936));
#951=CARTESIAN_POINT('Ctrl Pts',(-132.740358224387,-11.127620037378,72.1035162724936));
#952=CARTESIAN_POINT('Ctrl Pts',(-132.740358224387,-11.127620037378,69.7035162724936));
#953=CARTESIAN_POINT('',(-127.017276595588,0.145651738439838,70.1035162724936));
#954=CARTESIAN_POINT('',(-127.017276595588,0.145651738439838,72.1035162724936));
#955=CARTESIAN_POINT('Ctrl Pts',(-132.740358224387,-11.127620037378,70.1035162724936));
#956=CARTESIAN_POINT('Ctrl Pts',(-128.801129920478,-7.06752701789256,70.1035162724936));
#957=CARTESIAN_POINT('Ctrl Pts',(-127.385282185264,-3.45356214515085,70.1035162724936));
#958=CARTESIAN_POINT('Ctrl Pts',(-127.017276595588,0.145651738439838,70.1035162724936));
#959=CARTESIAN_POINT('Ctrl Pts',(-120.902758103843,-1.13111916610116,72.1035162724936));
#960=CARTESIAN_POINT('Ctrl Pts',(-120.902758103843,-1.13111916610116,69.7035162724936));
#961=CARTESIAN_POINT('Ctrl Pts',(-122.501743352408,-1.63424601394048,72.1035162724936));
#962=CARTESIAN_POINT('Ctrl Pts',(-122.501743352408,-1.63424601394048,69.7035162724936));
#963=CARTESIAN_POINT('Ctrl Pts',(-125.250756369681,-0.795829457391406,72.1035162724936));
#964=CARTESIAN_POINT('Ctrl Pts',(-125.250756369681,-0.795829457391406,69.7035162724936));
#965=CARTESIAN_POINT('Ctrl Pts',(-127.017276595588,0.145651738439838,72.1035162724936));
#966=CARTESIAN_POINT('Ctrl Pts',(-127.017276595588,0.145651738439838,69.7035162724936));
#967=CARTESIAN_POINT('',(-120.902758103843,-1.13111916610116,70.1035162724936));
#968=CARTESIAN_POINT('',(-120.902758103843,-1.13111916610116,72.1035162724936));
#969=CARTESIAN_POINT('Ctrl Pts',(-127.017276595588,0.145651738439838,70.1035162724936));
#970=CARTESIAN_POINT('Ctrl Pts',(-125.250756369681,-0.795829457391406,70.1035162724936));
#971=CARTESIAN_POINT('Ctrl Pts',(-122.501743352408,-1.63424601394048,70.1035162724936));
#972=CARTESIAN_POINT('Ctrl Pts',(-120.902758103843,-1.13111916610116,70.1035162724936));
#973=CARTESIAN_POINT('Ctrl Pts',(-118.705959490485,11.3866196720947,72.1035162724936));
#974=CARTESIAN_POINT('Ctrl Pts',(-118.705959490485,11.3866196720947,69.7035162724936));
#975=CARTESIAN_POINT('Ctrl Pts',(-118.347568139548,4.14564203117976,72.1035162724936));
#976=CARTESIAN_POINT('Ctrl Pts',(-118.347568139548,4.14564203117976,69.7035162724936));
#977=CARTESIAN_POINT('Ctrl Pts',(-119.872770973105,-0.558687391580293,72.1035162724936));
#978=CARTESIAN_POINT('Ctrl Pts',(-119.872770973105,-0.558687391580293,69.7035162724936));
#979=CARTESIAN_POINT('Ctrl Pts',(-120.902758103843,-1.13111916610116,72.1035162724936));
#980=CARTESIAN_POINT('Ctrl Pts',(-120.902758103843,-1.13111916610116,69.7035162724936));
#981=CARTESIAN_POINT('',(-118.705959490485,11.3866196720947,70.1035162724936));
#982=CARTESIAN_POINT('',(-118.705959490485,11.3866196720947,72.1035162724936));
#983=CARTESIAN_POINT('Ctrl Pts',(-120.902758103843,-1.13111916610116,70.1035162724936));
#984=CARTESIAN_POINT('Ctrl Pts',(-119.872770973105,-0.558687391580293,70.1035162724936));
#985=CARTESIAN_POINT('Ctrl Pts',(-118.347568139548,4.14564203117976,70.1035162724936));
#986=CARTESIAN_POINT('Ctrl Pts',(-118.705959490485,11.3866196720947,70.1035162724936));
#987=CARTESIAN_POINT('Ctrl Pts',(-96.7104766341162,9.60595278061518,72.1035162724936));
#988=CARTESIAN_POINT('Ctrl Pts',(-96.7104766341162,9.60595278061518,69.7035162724936));
#989=CARTESIAN_POINT('Ctrl Pts',(-104.8323108283,7.83978965500481,72.1035162724936));
#990=CARTESIAN_POINT('Ctrl Pts',(-104.8323108283,7.83978965500481,69.7035162724936));
#991=CARTESIAN_POINT('Ctrl Pts',(-113.783029748054,7.33347637375481,72.1035162724936));
#992=CARTESIAN_POINT('Ctrl Pts',(-113.783029748054,7.33347637375481,69.7035162724936));
#993=CARTESIAN_POINT('Ctrl Pts',(-118.705959490485,11.3866196720947,72.1035162724936));
#994=CARTESIAN_POINT('Ctrl Pts',(-118.705959490485,11.3866196720947,69.7035162724936));
#995=CARTESIAN_POINT('',(-96.7104766341162,9.60595278061518,70.1035162724936));
#996=CARTESIAN_POINT('',(-96.7104766341162,9.60595278061518,72.1035162724936));
#997=CARTESIAN_POINT('Ctrl Pts',(-118.705959490485,11.3866196720947,70.1035162724936));
#998=CARTESIAN_POINT('Ctrl Pts',(-113.783029748054,7.33347637375481,70.1035162724936));
#999=CARTESIAN_POINT('Ctrl Pts',(-104.8323108283,7.83978965500481,70.1035162724936));
#1000=CARTESIAN_POINT('Ctrl Pts',(-96.7104766341162,9.60595278061518,70.1035162724936));
#1001=CARTESIAN_POINT('Ctrl Pts',(-112.831656584891,-9.93129465744171,72.1035162724936));
#1002=CARTESIAN_POINT('Ctrl Pts',(-112.831656584891,-9.93129465744171,69.7035162724936));
#1003=CARTESIAN_POINT('Ctrl Pts',(-109.811780699689,-2.59005946329881,72.1035162724936));
#1004=CARTESIAN_POINT('Ctrl Pts',(-109.811780699689,-2.59005946329881,69.7035162724936));
#1005=CARTESIAN_POINT('Ctrl Pts',(-104.727784199903,3.7571290741506,72.1035162724936));
#1006=CARTESIAN_POINT('Ctrl Pts',(-104.727784199903,3.7571290741506,69.7035162724936));
#1007=CARTESIAN_POINT('Ctrl Pts',(-96.7104766341162,9.60595278061518,72.1035162724936));
#1008=CARTESIAN_POINT('Ctrl Pts',(-96.7104766341162,9.60595278061518,69.7035162724936));
#1009=CARTESIAN_POINT('',(-112.831656584891,-9.93129465744172,70.1035162724936));
#1010=CARTESIAN_POINT('',(-112.831656584891,-9.93129465744171,72.1035162724936));
#1011=CARTESIAN_POINT('Ctrl Pts',(-96.7104766341162,9.60595278061518,70.1035162724936));
#1012=CARTESIAN_POINT('Ctrl Pts',(-104.727784199903,3.7571290741506,70.1035162724936));
#1013=CARTESIAN_POINT('Ctrl Pts',(-109.811780699689,-2.59005946329881,70.1035162724936));
#1014=CARTESIAN_POINT('Ctrl Pts',(-112.831656584891,-9.93129465744171,70.1035162724936));
#1015=CARTESIAN_POINT('Origin',(-95.8908132546976,33.5682924529954,78.1035162724936));
#1016=CARTESIAN_POINT('',(-106.058331220457,42.6578410645249,70.1035162724936));
#1017=CARTESIAN_POINT('',(-58.139422969196,-0.180661648534368,70.1035162724936));
#1018=CARTESIAN_POINT('',(-106.058331220457,42.657841064525,78.1035162724936));
#1019=CARTESIAN_POINT('',(-106.058331220457,42.6578410645249,74.1035162724936));
#1020=CARTESIAN_POINT('',(-95.8908132546976,33.5682924529954,78.1035162724936));
#1021=CARTESIAN_POINT('',(-58.139422969196,-0.180661648534368,78.1035162724936));
#1022=CARTESIAN_POINT('',(-95.8908132546976,33.5682924529954,78.1035162724936));
#1023=CARTESIAN_POINT('Origin',(-138.704013849986,-16.3657019842312,70.1035162724936));
#1024=CARTESIAN_POINT('',(-127.521184388311,-26.3629178582182,78.1035162724936));
#1025=CARTESIAN_POINT('',(-127.521184388311,-26.3629178582182,70.1035162724936));
#1026=CARTESIAN_POINT('',(-149.886843311661,-6.36848611024426,78.1035162724936));
#1027=CARTESIAN_POINT('Origin',(-138.704013849986,-16.3657019842312,78.1035162724936));
#1028=CARTESIAN_POINT('',(-149.886843311661,-6.36848611024427,70.1035162724936));
#1029=CARTESIAN_POINT('Origin',(-138.704013849986,-16.3657019842312,70.1035162724936));
#1030=CARTESIAN_POINT('Origin',(65.9370497025956,62.6331359959283,70.1035162724936));
#1031=CARTESIAN_POINT('',(-94.1971314750212,10.9131803473643,70.1035162724936));
#1032=CARTESIAN_POINT('Origin',(65.9370497025956,62.6331359959283,70.1035162724936));
#1033=CARTESIAN_POINT('Origin',(-138.704013849986,-16.3657019842312,70.1035162724936));
#1034=CARTESIAN_POINT('Origin',(-127.521184388311,-26.3629178582183,70.1035162724936));
#1035=CARTESIAN_POINT('',(-94.1971314750212,10.9131803473643,78.1035162724936));
#1036=CARTESIAN_POINT('',(-94.1971314750212,10.9131803473643,70.1035162724936));
#1037=CARTESIAN_POINT('',(-94.1971314750212,10.9131803473643,78.1035162724936));
#1038=CARTESIAN_POINT('Origin',(-99.7459253307405,49.7188627977105,70.1035162724936));
#1039=CARTESIAN_POINT('',(-99.7459253307405,49.7188627977105,78.1035162724936));
#1040=CARTESIAN_POINT('',(-99.7459253307405,49.7188627977105,70.1035162724936));
#1041=CARTESIAN_POINT('Origin',(-68.1038627311133,-12.4136566919388,70.1035162724936));
#1042=CARTESIAN_POINT('',(-81.1404475098067,20.0678373825023,78.1035162724936));
#1043=CARTESIAN_POINT('',(-81.1404475098065,20.0678373825021,70.1035162724936));
#1044=CARTESIAN_POINT('Origin',(-68.1038627311133,-12.4136566919388,78.1035162724936));
#1045=CARTESIAN_POINT('Origin',(-138.704013849986,-16.3657019842312,70.1035162724936));
#1046=CARTESIAN_POINT('',(-143.754013849986,-16.3657019842312,70.1035162724936));
#1047=CARTESIAN_POINT('Origin',(65.9370497025956,62.6331359959283,70.1035162724936));
#1048=CARTESIAN_POINT('',(-110.420737335508,27.3395729012391,70.1035162724936));
#1049=CARTESIAN_POINT('',(-29.5402599549703,62.011592384183,70.1035162724936));
#1050=CARTESIAN_POINT('',(-63.376958726184,-14.7165821977257,70.1035162724936));
#1051=CARTESIAN_POINT('Origin',(65.9370497025956,62.6331359959283,78.1035162724936));
#1052=CARTESIAN_POINT('',(-92.3232769714814,30.0650532564894,78.1035162724936));
#1053=CARTESIAN_POINT('',(-50.8422338459587,-7.01813255308086,78.1035162724936));
#1054=CARTESIAN_POINT('',(-96.8168331440118,15.1779668070464,78.1035162724936));
#1055=CARTESIAN_POINT('',(-81.2110217690616,66.879793630268,78.1035162724936));
#1056=CARTESIAN_POINT('',(-110.420737335508,27.3395729012391,78.1035162724936));
#1057=CARTESIAN_POINT('',(-63.376958726184,-14.7165821977257,78.1035162724936));
#1058=CARTESIAN_POINT('',(-29.5402599549703,62.011592384183,78.1035162724936));
#1059=CARTESIAN_POINT('Origin',(-81.1404475098067,20.0678373825023,78.1035162724936));
#1060=CARTESIAN_POINT('',(-92.3232769714814,30.0650532564894,78.1035162724936));
#1061=CARTESIAN_POINT('Origin',(-92.3232769714814,30.0650532564894,78.1035162724936));
#1062=CARTESIAN_POINT('',(-96.8168331440118,15.1779668070464,78.1035162724936));
#1063=CARTESIAN_POINT('Origin',(-96.8168331440118,15.1779668070464,78.1035162724936));
#1064=CARTESIAN_POINT('',(-110.420737335508,27.3395729012391,78.1035162724936));
#1065=CARTESIAN_POINT('Origin',(-110.420737335508,27.3395729012391,78.1035162724936));
#1066=UNCERTAINTY_MEASURE_WITH_UNIT(LENGTH_MEASURE(0.01),#1070,
'DISTANCE_ACCURACY_VALUE',
'Maximum model space distance between geometric entities at asserted c
onnectivities');
#1067=UNCERTAINTY_MEASURE_WITH_UNIT(LENGTH_MEASURE(0.01),#1070,
'DISTANCE_ACCURACY_VALUE',
'Maximum model space distance between geometric entities at asserted c
onnectivities');
#1068=(
GEOMETRIC_REPRESENTATION_CONTEXT(3)
GLOBAL_UNCERTAINTY_ASSIGNED_CONTEXT((#1066))
GLOBAL_UNIT_ASSIGNED_CONTEXT((#1070,#1072,#1073))
REPRESENTATION_CONTEXT('','3D')
);
#1069=(
GEOMETRIC_REPRESENTATION_CONTEXT(3)
GLOBAL_UNCERTAINTY_ASSIGNED_CONTEXT((#1067))
GLOBAL_UNIT_ASSIGNED_CONTEXT((#1070,#1072,#1073))
REPRESENTATION_CONTEXT('','3D')
);
#1070=(
LENGTH_UNIT()
NAMED_UNIT(*)
SI_UNIT(.MILLI.,.METRE.)
);
#1071=(
LENGTH_UNIT()
NAMED_UNIT(*)
SI_UNIT($,.METRE.)
);
#1072=(
NAMED_UNIT(*)
PLANE_ANGLE_UNIT()
SI_UNIT($,.RADIAN.)
);
#1073=(
NAMED_UNIT(*)
SI_UNIT($,.STERADIAN.)
SOLID_ANGLE_UNIT()
);
#1074=SHAPE_DEFINITION_REPRESENTATION(#1075,#1076);
#1075=PRODUCT_DEFINITION_SHAPE('',$,#1078);
#1076=SHAPE_REPRESENTATION('',(#598),#1068);
#1077=PRODUCT_DEFINITION_CONTEXT('part definition',#1082,'design');
#1078=PRODUCT_DEFINITION('FusionComponent','orumcekkolu v2',#1079,#1077);
#1079=PRODUCT_DEFINITION_FORMATION('',$,#1084);
#1080=PRODUCT_RELATED_PRODUCT_CATEGORY('orumcekkolu v2',
'orumcekkolu v2',(#1084));
#1081=APPLICATION_PROTOCOL_DEFINITION('international standard',
'automotive_design',2009,#1082);
#1082=APPLICATION_CONTEXT(
'Core Data for Automotive Mechanical Design Process');
#1083=PRODUCT_CONTEXT('part definition',#1082,'mechanical');
#1084=PRODUCT('FusionComponent','orumcekkolu v2',$,(#1083));
#1085=PRESENTATION_STYLE_ASSIGNMENT((#1087));
#1086=PRESENTATION_STYLE_ASSIGNMENT((#1088));
#1087=SURFACE_STYLE_USAGE(.BOTH.,#1089);
#1088=SURFACE_STYLE_USAGE(.BOTH.,#1090);
#1089=SURFACE_SIDE_STYLE('',(#1091));
#1090=SURFACE_SIDE_STYLE('',(#1092));
#1091=SURFACE_STYLE_FILL_AREA(#1093);
#1092=SURFACE_STYLE_FILL_AREA(#1094);
#1093=FILL_AREA_STYLE('Steel - Satin',(#1095));
#1094=FILL_AREA_STYLE('Opaque(243,203,124)',(#1096));
#1095=FILL_AREA_STYLE_COLOUR('Steel - Satin',#1097);
#1096=FILL_AREA_STYLE_COLOUR('Opaque(243,203,124)',#1098);
#1097=COLOUR_RGB('Steel - Satin',0.627450980392157,0.627450980392157,0.627450980392157);
#1098=COLOUR_RGB('Opaque(243,203,124)',0.952941176470588,0.796078431372549,
0.486274509803922);
ENDSEC;
END-ISO-10303-21;
