ISO-10303-21;
HEADER;
/* Generated by software containing ST-Developer
 * from STEP Tools, Inc. (www.steptools.com) 
 */

FILE_DESCRIPTION(
/* description */ (''),
/* implementation_level */ '2;1');

FILE_NAME(
/* name */ 'orumcekkoluasagibacak3.step',
/* time_stamp */ '2026-09-14T15:50:17+03:00',
/* author */ (''),
/* organization */ (''),
/* preprocessor_version */ 'ST-DEVELOPER v20.2',
/* originating_system */ 'Autodesk Translation Framework v15.15.0.0',
/* authorisation */ '');

FILE_SCHEMA (('AUTOMOTIVE_DESIGN { 1 0 10303 214 3 1 1 }'));
ENDSEC;

DATA;
#10=MECHANICAL_DESIGN_GEOMETRIC_PRESENTATION_REPRESENTATION('',(#13),#1404);
#11=SHAPE_REPRESENTATION_RELATIONSHIP('SRR','None',#1411,#12);
#12=ADVANCED_BREP_SHAPE_REPRESENTATION('',(#14),#1403);
#13=STYLED_ITEM('',(#1421),#14);
#14=MANIFOLD_SOLID_BREP('Body2',#772);
#15=ELLIPSE('',#798,110.095748885607,62.3091304525685);
#16=ELLIPSE('',#803,110.09574888817,62.3091304533421);
#17=B_SPLINE_CURVE_WITH_KNOTS('',3,(#1001,#1002,#1003,#1004),
 .UNSPECIFIED.,.F.,.F.,(4,4),(0.103028214574807,0.555463020305678),
 .UNSPECIFIED.);
#18=B_SPLINE_CURVE_WITH_KNOTS('',3,(#1007,#1008,#1009,#1010),
 .UNSPECIFIED.,.F.,.F.,(4,4),(-0.555463020305677,-0.103028214574807),
 .UNSPECIFIED.);
#19=B_SPLINE_CURVE_WITH_KNOTS('',3,(#1023,#1024,#1025,#1026),
 .UNSPECIFIED.,.F.,.F.,(4,4),(-0.100677889355828,-9.99999996073586E-7),
 .UNSPECIFIED.);
#20=B_SPLINE_CURVE_WITH_KNOTS('',3,(#1029,#1030,#1031,#1032),
 .UNSPECIFIED.,.F.,.F.,(4,4),(9.99999998631954E-7,0.100678602874698),
 .UNSPECIFIED.);
#21=B_SPLINE_CURVE_WITH_KNOTS('',3,(#1045,#1046,#1047,#1048),
 .UNSPECIFIED.,.F.,.F.,(4,4),(-0.574979687476358,-9.9999994673805E-7),
 .UNSPECIFIED.);
#22=B_SPLINE_CURVE_WITH_KNOTS('',3,(#1051,#1052,#1053,#1054),
 .UNSPECIFIED.,.F.,.F.,(4,4),(9.99999894001424E-7,0.57382328707302),
 .UNSPECIFIED.);
#23=B_SPLINE_CURVE_WITH_KNOTS('',3,(#1067,#1068,#1069,#1070),
 .UNSPECIFIED.,.F.,.F.,(4,4),(0.688596428887282,1.),.UNSPECIFIED.);
#24=B_SPLINE_CURVE_WITH_KNOTS('',3,(#1073,#1074,#1075,#1076),
 .UNSPECIFIED.,.F.,.F.,(4,4),(0.688596428887283,1.),.UNSPECIFIED.);
#25=B_SPLINE_CURVE_WITH_KNOTS('',3,(#1088,#1089,#1090,#1091),
 .UNSPECIFIED.,.F.,.F.,(4,4),(0.679437463142102,1.),.UNSPECIFIED.);
#26=B_SPLINE_CURVE_WITH_KNOTS('',3,(#1093,#1094,#1095,#1096),
 .UNSPECIFIED.,.F.,.F.,(4,4),(0.,1.),.UNSPECIFIED.);
#27=B_SPLINE_CURVE_WITH_KNOTS('',3,(#1098,#1099,#1100,#1101),
 .UNSPECIFIED.,.F.,.F.,(4,4),(0.,0.52655570064273),.UNSPECIFIED.);
#28=B_SPLINE_CURVE_WITH_KNOTS('',3,(#1105,#1106,#1107,#1108),
 .UNSPECIFIED.,.F.,.F.,(4,4),(0.174639074476831,0.621793956050494),
 .UNSPECIFIED.);
#29=B_SPLINE_CURVE_WITH_KNOTS('',3,(#1112,#1113,#1114,#1115),
 .UNSPECIFIED.,.F.,.F.,(4,4),(0.,0.358393243613788),.UNSPECIFIED.);
#30=B_SPLINE_CURVE_WITH_KNOTS('',3,(#1121,#1122,#1123,#1124),
 .UNSPECIFIED.,.F.,.F.,(4,4),(0.,0.381003739004386),.UNSPECIFIED.);
#31=B_SPLINE_CURVE_WITH_KNOTS('',3,(#1125,#1126,#1127,#1128),
 .UNSPECIFIED.,.F.,.F.,(4,4),(0.,1.),.UNSPECIFIED.);
#32=B_SPLINE_CURVE_WITH_KNOTS('',3,(#1140,#1141,#1142,#1143),
 .UNSPECIFIED.,.F.,.F.,(4,4),(0.,0.59749387802093),.UNSPECIFIED.);
#33=B_SPLINE_CURVE_WITH_KNOTS('',3,(#1145,#1146,#1147,#1148),
 .UNSPECIFIED.,.F.,.F.,(4,4),(0.,1.),.UNSPECIFIED.);
#34=B_SPLINE_CURVE_WITH_KNOTS('',3,(#1150,#1151,#1152,#1153),
 .UNSPECIFIED.,.F.,.F.,(4,4),(0.464172730421463,1.),.UNSPECIFIED.);
#35=B_SPLINE_CURVE_WITH_KNOTS('',3,(#1161,#1162,#1163,#1164),
 .UNSPECIFIED.,.F.,.F.,(4,4),(0.775247439021954,0.983268808828449),
 .UNSPECIFIED.);
#36=B_SPLINE_CURVE_WITH_KNOTS('',3,(#1177,#1178,#1179,#1180),
 .UNSPECIFIED.,.F.,.F.,(4,4),(-0.983268808828449,-0.775247439021956),
 .UNSPECIFIED.);
#37=B_SPLINE_CURVE_WITH_KNOTS('',3,(#1193,#1194,#1195,#1196),
 .UNSPECIFIED.,.F.,.F.,(4,4),(0.464172730421463,1.),.UNSPECIFIED.);
#38=B_SPLINE_CURVE_WITH_KNOTS('',3,(#1208,#1209,#1210,#1211),
 .UNSPECIFIED.,.F.,.F.,(4,4),(0.,1.),.UNSPECIFIED.);
#39=B_SPLINE_CURVE_WITH_KNOTS('',3,(#1222,#1223,#1224,#1225),
 .UNSPECIFIED.,.F.,.F.,(4,4),(-0.597537917284043,-1.00000000291534E-6),
 .UNSPECIFIED.);
#40=B_SPLINE_CURVE_WITH_KNOTS('',3,(#1236,#1237,#1238,#1239),
 .UNSPECIFIED.,.F.,.F.,(4,4),(0.,1.),.UNSPECIFIED.);
#41=B_SPLINE_CURVE_WITH_KNOTS('',3,(#1250,#1251,#1252,#1253),
 .UNSPECIFIED.,.F.,.F.,(4,4),(0.,0.381003739004386),.UNSPECIFIED.);
#42=B_SPLINE_CURVE_WITH_KNOTS('',3,(#1277,#1278,#1279,#1280),
 .UNSPECIFIED.,.F.,.F.,(4,4),(0.,0.358393243613788),.UNSPECIFIED.);
#43=B_SPLINE_CURVE_WITH_KNOTS('',3,(#1292,#1293,#1294,#1295),
 .UNSPECIFIED.,.F.,.F.,(4,4),(-0.621793956050494,-0.174639074476831),
 .UNSPECIFIED.);
#44=B_SPLINE_CURVE_WITH_KNOTS('',3,(#1308,#1309,#1310,#1311),
 .UNSPECIFIED.,.F.,.F.,(4,4),(-0.52655570064273,0.),.UNSPECIFIED.);
#45=B_SPLINE_CURVE_WITH_KNOTS('',3,(#1323,#1324,#1325,#1326),
 .UNSPECIFIED.,.F.,.F.,(4,4),(-1.,0.),.UNSPECIFIED.);
#46=B_SPLINE_CURVE_WITH_KNOTS('',3,(#1337,#1338,#1339,#1340),
 .UNSPECIFIED.,.F.,.F.,(4,4),(-1.,-0.679437463142102),.UNSPECIFIED.);
#47=B_SPLINE_SURFACE_WITH_KNOTS('',3,1,((#989,#990),(#991,#992),(#993,#994),
(#995,#996)),.UNSPECIFIED.,.F.,.F.,.F.,(4,4),(2,2),(0.103028214574807,1.),
(0.,0.239999999999999),.UNSPECIFIED.);
#48=B_SPLINE_SURFACE_WITH_KNOTS('',3,1,((#1011,#1012),(#1013,#1014),(#1015,
#1016),(#1017,#1018)),.UNSPECIFIED.,.F.,.F.,.F.,(4,4),(2,2),(-1.,0.),(0.,
0.239999999999999),.UNSPECIFIED.);
#49=B_SPLINE_SURFACE_WITH_KNOTS('',3,1,((#1033,#1034),(#1035,#1036),(#1037,
#1038),(#1039,#1040)),.UNSPECIFIED.,.F.,.F.,.F.,(4,4),(2,2),(-1.,0.),(0.,
0.239999999999999),.UNSPECIFIED.);
#50=B_SPLINE_SURFACE_WITH_KNOTS('',3,1,((#1055,#1056),(#1057,#1058),(#1059,
#1060),(#1061,#1062)),.UNSPECIFIED.,.F.,.F.,.F.,(4,4),(2,2),(-1.,0.),(0.,
0.239999999999999),.UNSPECIFIED.);
#51=B_SPLINE_SURFACE_WITH_KNOTS('',3,1,((#1166,#1167),(#1168,#1169),(#1170,
#1171),(#1172,#1173)),.UNSPECIFIED.,.F.,.F.,.F.,(4,4),(2,2),(0.,0.983268808828449),
(0.,0.239999999999999),.UNSPECIFIED.);
#52=B_SPLINE_SURFACE_WITH_KNOTS('',3,1,((#1182,#1183),(#1184,#1185),(#1186,
#1187),(#1188,#1189)),.UNSPECIFIED.,.F.,.F.,.F.,(4,4),(2,2),(-1.,-0.464172730421463),
(0.,0.239999999999999),.UNSPECIFIED.);
#53=B_SPLINE_SURFACE_WITH_KNOTS('',3,1,((#1198,#1199),(#1200,#1201),(#1202,
#1203),(#1204,#1205)),.UNSPECIFIED.,.F.,.F.,.F.,(4,4),(2,2),(-1.,0.),(0.,
0.239999999999999),.UNSPECIFIED.);
#54=B_SPLINE_SURFACE_WITH_KNOTS('',3,1,((#1212,#1213),(#1214,#1215),(#1216,
#1217),(#1218,#1219)),.UNSPECIFIED.,.F.,.F.,.F.,(4,4),(2,2),(-1.,0.),(0.,
0.239999999999999),.UNSPECIFIED.);
#55=B_SPLINE_SURFACE_WITH_KNOTS('',3,1,((#1226,#1227),(#1228,#1229),(#1230,
#1231),(#1232,#1233)),.UNSPECIFIED.,.F.,.F.,.F.,(4,4),(2,2),(-1.,0.),(0.,
0.239999999999999),.UNSPECIFIED.);
#56=B_SPLINE_SURFACE_WITH_KNOTS('',3,1,((#1240,#1241),(#1242,#1243),(#1244,
#1245),(#1246,#1247)),.UNSPECIFIED.,.F.,.F.,.F.,(4,4),(2,2),(-0.381003739004386,
0.),(0.,0.239999999999999),.UNSPECIFIED.);
#57=B_SPLINE_SURFACE_WITH_KNOTS('',3,1,((#1254,#1255),(#1256,#1257),(#1258,
#1259),(#1260,#1261)),.UNSPECIFIED.,.F.,.F.,.F.,(4,4),(2,2),(-1.,-0.791867075243517),
(0.,0.239999999999999),.UNSPECIFIED.);
#58=B_SPLINE_SURFACE_WITH_KNOTS('',3,1,((#1267,#1268),(#1269,#1270),(#1271,
#1272),(#1273,#1274)),.UNSPECIFIED.,.F.,.F.,.F.,(4,4),(2,2),(-0.358393243613788,
0.),(0.,0.239999999999999),.UNSPECIFIED.);
#59=B_SPLINE_SURFACE_WITH_KNOTS('',3,1,((#1281,#1282),(#1283,#1284),(#1285,
#1286),(#1287,#1288)),.UNSPECIFIED.,.F.,.F.,.F.,(4,4),(2,2),(0.174639074476831,
0.621793956050494),(0.,0.239999999999999),.UNSPECIFIED.);
#60=B_SPLINE_SURFACE_WITH_KNOTS('',3,1,((#1297,#1298),(#1299,#1300),(#1301,
#1302),(#1303,#1304)),.UNSPECIFIED.,.F.,.F.,.F.,(4,4),(2,2),(0.,0.52655570064273),
(0.,0.239999999999999),.UNSPECIFIED.);
#61=B_SPLINE_SURFACE_WITH_KNOTS('',3,1,((#1313,#1314),(#1315,#1316),(#1317,
#1318),(#1319,#1320)),.UNSPECIFIED.,.F.,.F.,.F.,(4,4),(2,2),(0.,1.),(0.,
0.239999999999999),.UNSPECIFIED.);
#62=B_SPLINE_SURFACE_WITH_KNOTS('',3,1,((#1327,#1328),(#1329,#1330),(#1331,
#1332),(#1333,#1334)),.UNSPECIFIED.,.F.,.F.,.F.,(4,4),(2,2),(0.679437463142102,
1.),(0.,0.239999999999999),.UNSPECIFIED.);
#63=FACE_BOUND('',#130,.T.);
#64=FACE_BOUND('',#133,.T.);
#65=FACE_BOUND('',#139,.T.);
#66=FACE_BOUND('',#171,.T.);
#67=PLANE('',#789);
#68=PLANE('',#793);
#69=PLANE('',#795);
#70=PLANE('',#800);
#71=PLANE('',#801);
#72=PLANE('',#802);
#73=PLANE('',#804);
#74=PLANE('',#805);
#75=PLANE('',#806);
#76=PLANE('',#811);
#77=PLANE('',#812);
#78=PLANE('',#813);
#79=PLANE('',#814);
#80=PLANE('',#815);
#81=PLANE('',#816);
#82=PLANE('',#817);
#83=PLANE('',#818);
#84=PLANE('',#819);
#85=PLANE('',#823);
#86=PLANE('',#824);
#87=FACE_OUTER_BOUND('',#128,.T.);
#88=FACE_OUTER_BOUND('',#129,.T.);
#89=FACE_OUTER_BOUND('',#131,.T.);
#90=FACE_OUTER_BOUND('',#132,.T.);
#91=FACE_OUTER_BOUND('',#134,.T.);
#92=FACE_OUTER_BOUND('',#135,.T.);
#93=FACE_OUTER_BOUND('',#136,.T.);
#94=FACE_OUTER_BOUND('',#137,.T.);
#95=FACE_OUTER_BOUND('',#138,.T.);
#96=FACE_OUTER_BOUND('',#140,.T.);
#97=FACE_OUTER_BOUND('',#141,.T.);
#98=FACE_OUTER_BOUND('',#142,.T.);
#99=FACE_OUTER_BOUND('',#143,.T.);
#100=FACE_OUTER_BOUND('',#144,.T.);
#101=FACE_OUTER_BOUND('',#145,.T.);
#102=FACE_OUTER_BOUND('',#146,.T.);
#103=FACE_OUTER_BOUND('',#147,.T.);
#104=FACE_OUTER_BOUND('',#148,.T.);
#105=FACE_OUTER_BOUND('',#149,.T.);
#106=FACE_OUTER_BOUND('',#150,.T.);
#107=FACE_OUTER_BOUND('',#151,.T.);
#108=FACE_OUTER_BOUND('',#152,.T.);
#109=FACE_OUTER_BOUND('',#153,.T.);
#110=FACE_OUTER_BOUND('',#154,.T.);
#111=FACE_OUTER_BOUND('',#155,.T.);
#112=FACE_OUTER_BOUND('',#156,.T.);
#113=FACE_OUTER_BOUND('',#157,.T.);
#114=FACE_OUTER_BOUND('',#158,.T.);
#115=FACE_OUTER_BOUND('',#159,.T.);
#116=FACE_OUTER_BOUND('',#160,.T.);
#117=FACE_OUTER_BOUND('',#161,.T.);
#118=FACE_OUTER_BOUND('',#162,.T.);
#119=FACE_OUTER_BOUND('',#163,.T.);
#120=FACE_OUTER_BOUND('',#164,.T.);
#121=FACE_OUTER_BOUND('',#165,.T.);
#122=FACE_OUTER_BOUND('',#166,.T.);
#123=FACE_OUTER_BOUND('',#167,.T.);
#124=FACE_OUTER_BOUND('',#168,.T.);
#125=FACE_OUTER_BOUND('',#169,.T.);
#126=FACE_OUTER_BOUND('',#170,.T.);
#127=FACE_OUTER_BOUND('',#172,.T.);
#128=EDGE_LOOP('',(#504,#505,#506,#507));
#129=EDGE_LOOP('',(#508));
#130=EDGE_LOOP('',(#509));
#131=EDGE_LOOP('',(#510,#511,#512,#513));
#132=EDGE_LOOP('',(#514));
#133=EDGE_LOOP('',(#515));
#134=EDGE_LOOP('',(#516,#517,#518,#519));
#135=EDGE_LOOP('',(#520,#521,#522,#523));
#136=EDGE_LOOP('',(#524,#525,#526,#527));
#137=EDGE_LOOP('',(#528,#529,#530,#531));
#138=EDGE_LOOP('',(#532,#533,#534,#535,#536,#537,#538,#539,#540,#541,#542,
#543,#544,#545,#546,#547,#548,#549));
#139=EDGE_LOOP('',(#550));
#140=EDGE_LOOP('',(#551,#552,#553));
#141=EDGE_LOOP('',(#554,#555,#556,#557,#558,#559,#560));
#142=EDGE_LOOP('',(#561,#562,#563));
#143=EDGE_LOOP('',(#564,#565,#566,#567));
#144=EDGE_LOOP('',(#568,#569,#570,#571));
#145=EDGE_LOOP('',(#572,#573,#574,#575));
#146=EDGE_LOOP('',(#576,#577,#578,#579));
#147=EDGE_LOOP('',(#580,#581,#582,#583));
#148=EDGE_LOOP('',(#584,#585,#586,#587));
#149=EDGE_LOOP('',(#588,#589,#590,#591));
#150=EDGE_LOOP('',(#592,#593,#594,#595));
#151=EDGE_LOOP('',(#596,#597,#598,#599));
#152=EDGE_LOOP('',(#600,#601,#602,#603));
#153=EDGE_LOOP('',(#604,#605,#606,#607));
#154=EDGE_LOOP('',(#608,#609,#610,#611));
#155=EDGE_LOOP('',(#612,#613,#614,#615,#616,#617));
#156=EDGE_LOOP('',(#618,#619,#620,#621,#622,#623));
#157=EDGE_LOOP('',(#624,#625,#626,#627,#628,#629,#630,#631,#632,#633,#634,
#635,#636,#637));
#158=EDGE_LOOP('',(#638,#639,#640,#641,#642,#643,#644,#645));
#159=EDGE_LOOP('',(#646,#647,#648,#649,#650,#651,#652,#653));
#160=EDGE_LOOP('',(#654,#655,#656,#657,#658,#659,#660,#661));
#161=EDGE_LOOP('',(#662,#663,#664,#665));
#162=EDGE_LOOP('',(#666,#667,#668));
#163=EDGE_LOOP('',(#669,#670,#671,#672));
#164=EDGE_LOOP('',(#673,#674,#675,#676));
#165=EDGE_LOOP('',(#677,#678,#679,#680,#681,#682,#683,#684));
#166=EDGE_LOOP('',(#685,#686,#687,#688,#689));
#167=EDGE_LOOP('',(#690,#691,#692,#693,#694,#695,#696,#697,#698,#699));
#168=EDGE_LOOP('',(#700,#701,#702,#703));
#169=EDGE_LOOP('',(#704,#705,#706,#707));
#170=EDGE_LOOP('',(#708,#709,#710,#711,#712,#713,#714,#715,#716));
#171=EDGE_LOOP('',(#717));
#172=EDGE_LOOP('',(#718,#719,#720,#721,#722,#723,#724,#725));
#173=LINE('',#977,#240);
#174=LINE('',#985,#241);
#175=LINE('',#999,#242);
#176=LINE('',#1006,#243);
#177=LINE('',#1021,#244);
#178=LINE('',#1028,#245);
#179=LINE('',#1043,#246);
#180=LINE('',#1050,#247);
#181=LINE('',#1065,#248);
#182=LINE('',#1072,#249);
#183=LINE('',#1079,#250);
#184=LINE('',#1080,#251);
#185=LINE('',#1082,#252);
#186=LINE('',#1086,#253);
#187=LINE('',#1103,#254);
#188=LINE('',#1119,#255);
#189=LINE('',#1133,#256);
#190=LINE('',#1134,#257);
#191=LINE('',#1138,#258);
#192=LINE('',#1154,#259);
#193=LINE('',#1155,#260);
#194=LINE('',#1159,#261);
#195=LINE('',#1165,#262);
#196=LINE('',#1175,#263);
#197=LINE('',#1181,#264);
#198=LINE('',#1191,#265);
#199=LINE('',#1197,#266);
#200=LINE('',#1207,#267);
#201=LINE('',#1221,#268);
#202=LINE('',#1235,#269);
#203=LINE('',#1249,#270);
#204=LINE('',#1263,#271);
#205=LINE('',#1266,#272);
#206=LINE('',#1276,#273);
#207=LINE('',#1290,#274);
#208=LINE('',#1296,#275);
#209=LINE('',#1306,#276);
#210=LINE('',#1312,#277);
#211=LINE('',#1322,#278);
#212=LINE('',#1336,#279);
#213=LINE('',#1343,#280);
#214=LINE('',#1345,#281);
#215=LINE('',#1347,#282);
#216=LINE('',#1348,#283);
#217=LINE('',#1350,#284);
#218=LINE('',#1352,#285);
#219=LINE('',#1353,#286);
#220=LINE('',#1355,#287);
#221=LINE('',#1356,#288);
#222=LINE('',#1358,#289);
#223=LINE('',#1360,#290);
#224=LINE('',#1361,#291);
#225=LINE('',#1366,#292);
#226=LINE('',#1371,#293);
#227=LINE('',#1372,#294);
#228=LINE('',#1373,#295);
#229=LINE('',#1375,#296);
#230=LINE('',#1377,#297);
#231=LINE('',#1378,#298);
#232=LINE('',#1380,#299);
#233=LINE('',#1382,#300);
#234=LINE('',#1385,#301);
#235=LINE('',#1390,#302);
#236=LINE('',#1391,#303);
#237=LINE('',#1393,#304);
#238=LINE('',#1396,#305);
#239=LINE('',#1399,#306);
#240=VECTOR('',#831,2.7);
#241=VECTOR('',#842,1.50000000000002);
#242=VECTOR('',#847,10.);
#243=VECTOR('',#848,10.);
#244=VECTOR('',#849,10.);
#245=VECTOR('',#850,10.);
#246=VECTOR('',#851,10.);
#247=VECTOR('',#852,10.);
#248=VECTOR('',#853,10.);
#249=VECTOR('',#854,10.);
#250=VECTOR('',#857,10.);
#251=VECTOR('',#858,10.);
#252=VECTOR('',#859,10.);
#253=VECTOR('',#862,10.);
#254=VECTOR('',#863,10.);
#255=VECTOR('',#868,10.);
#256=VECTOR('',#873,10.);
#257=VECTOR('',#874,10.);
#258=VECTOR('',#877,10.);
#259=VECTOR('',#878,10.);
#260=VECTOR('',#879,10.);
#261=VECTOR('',#882,10.);
#262=VECTOR('',#883,10.);
#263=VECTOR('',#884,10.);
#264=VECTOR('',#885,10.);
#265=VECTOR('',#886,10.);
#266=VECTOR('',#887,10.);
#267=VECTOR('',#888,10.);
#268=VECTOR('',#889,10.);
#269=VECTOR('',#890,10.);
#270=VECTOR('',#891,10.);
#271=VECTOR('',#892,10.);
#272=VECTOR('',#895,10.);
#273=VECTOR('',#896,10.);
#274=VECTOR('',#897,10.);
#275=VECTOR('',#898,10.);
#276=VECTOR('',#899,10.);
#277=VECTOR('',#900,10.);
#278=VECTOR('',#901,10.);
#279=VECTOR('',#902,10.);
#280=VECTOR('',#905,10.);
#281=VECTOR('',#906,10.);
#282=VECTOR('',#907,10.);
#283=VECTOR('',#908,10.);
#284=VECTOR('',#911,10.);
#285=VECTOR('',#912,10.);
#286=VECTOR('',#913,10.);
#287=VECTOR('',#916,10.);
#288=VECTOR('',#917,10.);
#289=VECTOR('',#918,10.);
#290=VECTOR('',#919,10.);
#291=VECTOR('',#920,10.);
#292=VECTOR('',#925,10.);
#293=VECTOR('',#932,10.);
#294=VECTOR('',#933,10.);
#295=VECTOR('',#934,10.);
#296=VECTOR('',#937,10.);
#297=VECTOR('',#938,10.);
#298=VECTOR('',#939,10.);
#299=VECTOR('',#942,10.);
#300=VECTOR('',#945,10.);
#301=VECTOR('',#950,10.);
#302=VECTOR('',#957,10.);
#303=VECTOR('',#958,10.);
#304=VECTOR('',#961,5.04999999999999);
#305=VECTOR('',#964,10.);
#306=VECTOR('',#969,10.);
#307=CIRCLE('',#787,2.7);
#308=CIRCLE('',#788,2.7);
#309=CIRCLE('',#790,1.50000000000002);
#310=CIRCLE('',#792,1.50000000000002);
#311=CIRCLE('',#794,5.04999999999999);
#312=CIRCLE('',#796,35.);
#313=CIRCLE('',#797,15.);
#314=CIRCLE('',#799,5.04999999999999);
#315=CIRCLE('',#808,15.);
#316=CIRCLE('',#809,15.);
#317=CIRCLE('',#810,15.);
#318=CIRCLE('',#822,35.);
#319=VERTEX_POINT('',#974);
#320=VERTEX_POINT('',#976);
#321=VERTEX_POINT('',#980);
#322=VERTEX_POINT('',#983);
#323=VERTEX_POINT('',#987);
#324=VERTEX_POINT('',#997);
#325=VERTEX_POINT('',#998);
#326=VERTEX_POINT('',#1000);
#327=VERTEX_POINT('',#1005);
#328=VERTEX_POINT('',#1019);
#329=VERTEX_POINT('',#1020);
#330=VERTEX_POINT('',#1022);
#331=VERTEX_POINT('',#1027);
#332=VERTEX_POINT('',#1041);
#333=VERTEX_POINT('',#1042);
#334=VERTEX_POINT('',#1044);
#335=VERTEX_POINT('',#1049);
#336=VERTEX_POINT('',#1063);
#337=VERTEX_POINT('',#1064);
#338=VERTEX_POINT('',#1066);
#339=VERTEX_POINT('',#1071);
#340=VERTEX_POINT('',#1078);
#341=VERTEX_POINT('',#1081);
#342=VERTEX_POINT('',#1083);
#343=VERTEX_POINT('',#1085);
#344=VERTEX_POINT('',#1087);
#345=VERTEX_POINT('',#1092);
#346=VERTEX_POINT('',#1097);
#347=VERTEX_POINT('',#1102);
#348=VERTEX_POINT('',#1104);
#349=VERTEX_POINT('',#1109);
#350=VERTEX_POINT('',#1111);
#351=VERTEX_POINT('',#1116);
#352=VERTEX_POINT('',#1118);
#353=VERTEX_POINT('',#1120);
#354=VERTEX_POINT('',#1129);
#355=VERTEX_POINT('',#1132);
#356=VERTEX_POINT('',#1136);
#357=VERTEX_POINT('',#1137);
#358=VERTEX_POINT('',#1139);
#359=VERTEX_POINT('',#1144);
#360=VERTEX_POINT('',#1149);
#361=VERTEX_POINT('',#1157);
#362=VERTEX_POINT('',#1158);
#363=VERTEX_POINT('',#1160);
#364=VERTEX_POINT('',#1174);
#365=VERTEX_POINT('',#1176);
#366=VERTEX_POINT('',#1190);
#367=VERTEX_POINT('',#1192);
#368=VERTEX_POINT('',#1206);
#369=VERTEX_POINT('',#1220);
#370=VERTEX_POINT('',#1234);
#371=VERTEX_POINT('',#1248);
#372=VERTEX_POINT('',#1262);
#373=VERTEX_POINT('',#1264);
#374=VERTEX_POINT('',#1275);
#375=VERTEX_POINT('',#1289);
#376=VERTEX_POINT('',#1291);
#377=VERTEX_POINT('',#1305);
#378=VERTEX_POINT('',#1307);
#379=VERTEX_POINT('',#1321);
#380=VERTEX_POINT('',#1335);
#381=VERTEX_POINT('',#1342);
#382=VERTEX_POINT('',#1344);
#383=VERTEX_POINT('',#1346);
#384=VERTEX_POINT('',#1351);
#385=VERTEX_POINT('',#1357);
#386=VERTEX_POINT('',#1359);
#387=VERTEX_POINT('',#1363);
#388=VERTEX_POINT('',#1365);
#389=VERTEX_POINT('',#1370);
#390=VERTEX_POINT('',#1376);
#391=VERTEX_POINT('',#1389);
#392=VERTEX_POINT('',#1395);
#393=EDGE_CURVE('',#319,#319,#307,.T.);
#394=EDGE_CURVE('',#319,#320,#173,.T.);
#395=EDGE_CURVE('',#320,#320,#308,.T.);
#396=EDGE_CURVE('',#321,#321,#309,.T.);
#397=EDGE_CURVE('',#322,#322,#310,.T.);
#398=EDGE_CURVE('',#322,#321,#174,.T.);
#399=EDGE_CURVE('',#323,#323,#311,.T.);
#400=EDGE_CURVE('',#324,#325,#175,.T.);
#401=EDGE_CURVE('',#326,#324,#17,.T.);
#402=EDGE_CURVE('',#327,#326,#176,.T.);
#403=EDGE_CURVE('',#325,#327,#18,.T.);
#404=EDGE_CURVE('',#328,#329,#177,.T.);
#405=EDGE_CURVE('',#330,#328,#19,.T.);
#406=EDGE_CURVE('',#331,#330,#178,.T.);
#407=EDGE_CURVE('',#331,#329,#20,.T.);
#408=EDGE_CURVE('',#332,#333,#179,.T.);
#409=EDGE_CURVE('',#334,#332,#21,.T.);
#410=EDGE_CURVE('',#335,#334,#180,.T.);
#411=EDGE_CURVE('',#335,#333,#22,.T.);
#412=EDGE_CURVE('',#336,#337,#181,.T.);
#413=EDGE_CURVE('',#336,#338,#23,.T.);
#414=EDGE_CURVE('',#338,#339,#182,.T.);
#415=EDGE_CURVE('',#337,#339,#24,.T.);
#416=EDGE_CURVE('',#340,#336,#183,.T.);
#417=EDGE_CURVE('',#333,#340,#184,.T.);
#418=EDGE_CURVE('',#341,#335,#185,.T.);
#419=EDGE_CURVE('',#342,#341,#312,.T.);
#420=EDGE_CURVE('',#343,#342,#186,.T.);
#421=EDGE_CURVE('',#343,#344,#25,.T.);
#422=EDGE_CURVE('',#344,#345,#26,.T.);
#423=EDGE_CURVE('',#345,#346,#27,.T.);
#424=EDGE_CURVE('',#347,#346,#187,.T.);
#425=EDGE_CURVE('',#347,#348,#28,.T.);
#426=EDGE_CURVE('',#349,#348,#313,.T.);
#427=EDGE_CURVE('',#350,#349,#29,.T.);
#428=EDGE_CURVE('',#351,#350,#15,.T.);
#429=EDGE_CURVE('',#352,#351,#188,.T.);
#430=EDGE_CURVE('',#353,#352,#30,.T.);
#431=EDGE_CURVE('',#338,#353,#31,.T.);
#432=EDGE_CURVE('',#354,#354,#314,.T.);
#433=EDGE_CURVE('',#329,#355,#189,.T.);
#434=EDGE_CURVE('',#355,#331,#190,.T.);
#435=EDGE_CURVE('',#356,#357,#191,.T.);
#436=EDGE_CURVE('',#358,#356,#32,.T.);
#437=EDGE_CURVE('',#359,#358,#33,.T.);
#438=EDGE_CURVE('',#360,#359,#34,.T.);
#439=EDGE_CURVE('',#326,#360,#192,.T.);
#440=EDGE_CURVE('',#357,#324,#193,.T.);
#441=EDGE_CURVE('',#361,#362,#194,.T.);
#442=EDGE_CURVE('',#361,#363,#35,.T.);
#443=EDGE_CURVE('',#362,#363,#195,.T.);
#444=EDGE_CURVE('',#364,#361,#196,.T.);
#445=EDGE_CURVE('',#365,#364,#36,.T.);
#446=EDGE_CURVE('',#363,#365,#197,.T.);
#447=EDGE_CURVE('',#359,#366,#198,.T.);
#448=EDGE_CURVE('',#367,#366,#37,.T.);
#449=EDGE_CURVE('',#360,#367,#199,.T.);
#450=EDGE_CURVE('',#358,#368,#200,.T.);
#451=EDGE_CURVE('',#366,#368,#38,.T.);
#452=EDGE_CURVE('',#369,#356,#201,.T.);
#453=EDGE_CURVE('',#368,#369,#39,.T.);
#454=EDGE_CURVE('',#353,#370,#202,.T.);
#455=EDGE_CURVE('',#339,#370,#40,.T.);
#456=EDGE_CURVE('',#371,#352,#203,.T.);
#457=EDGE_CURVE('',#370,#371,#41,.T.);
#458=EDGE_CURVE('',#350,#372,#204,.T.);
#459=EDGE_CURVE('',#373,#372,#16,.T.);
#460=EDGE_CURVE('',#351,#373,#205,.T.);
#461=EDGE_CURVE('',#374,#349,#206,.T.);
#462=EDGE_CURVE('',#372,#374,#42,.T.);
#463=EDGE_CURVE('',#375,#347,#207,.T.);
#464=EDGE_CURVE('',#376,#375,#43,.T.);
#465=EDGE_CURVE('',#348,#376,#208,.T.);
#466=EDGE_CURVE('',#345,#377,#209,.T.);
#467=EDGE_CURVE('',#378,#377,#44,.T.);
#468=EDGE_CURVE('',#346,#378,#210,.T.);
#469=EDGE_CURVE('',#344,#379,#211,.T.);
#470=EDGE_CURVE('',#377,#379,#45,.T.);
#471=EDGE_CURVE('',#380,#343,#212,.T.);
#472=EDGE_CURVE('',#379,#380,#46,.T.);
#473=EDGE_CURVE('',#381,#362,#213,.T.);
#474=EDGE_CURVE('',#382,#381,#214,.T.);
#475=EDGE_CURVE('',#382,#383,#215,.T.);
#476=EDGE_CURVE('',#364,#383,#216,.T.);
#477=EDGE_CURVE('',#383,#325,#217,.T.);
#478=EDGE_CURVE('',#384,#382,#218,.T.);
#479=EDGE_CURVE('',#384,#357,#219,.T.);
#480=EDGE_CURVE('',#365,#327,#220,.T.);
#481=EDGE_CURVE('',#367,#371,#221,.T.);
#482=EDGE_CURVE('',#373,#385,#222,.T.);
#483=EDGE_CURVE('',#385,#386,#223,.T.);
#484=EDGE_CURVE('',#381,#386,#224,.T.);
#485=EDGE_CURVE('',#376,#387,#315,.T.);
#486=EDGE_CURVE('',#387,#388,#225,.T.);
#487=EDGE_CURVE('',#386,#388,#316,.T.);
#488=EDGE_CURVE('',#385,#374,#317,.T.);
#489=EDGE_CURVE('',#389,#384,#226,.T.);
#490=EDGE_CURVE('',#389,#340,#227,.T.);
#491=EDGE_CURVE('',#369,#337,#228,.T.);
#492=EDGE_CURVE('',#332,#330,#229,.T.);
#493=EDGE_CURVE('',#390,#389,#230,.T.);
#494=EDGE_CURVE('',#390,#355,#231,.T.);
#495=EDGE_CURVE('',#380,#378,#232,.T.);
#496=EDGE_CURVE('',#375,#387,#233,.T.);
#497=EDGE_CURVE('',#328,#334,#234,.T.);
#498=EDGE_CURVE('',#342,#391,#235,.T.);
#499=EDGE_CURVE('',#388,#391,#236,.T.);
#500=EDGE_CURVE('',#354,#323,#237,.T.);
#501=EDGE_CURVE('',#341,#392,#238,.T.);
#502=EDGE_CURVE('',#391,#392,#318,.T.);
#503=EDGE_CURVE('',#392,#390,#239,.T.);
#504=ORIENTED_EDGE('',*,*,#393,.F.);
#505=ORIENTED_EDGE('',*,*,#394,.T.);
#506=ORIENTED_EDGE('',*,*,#395,.T.);
#507=ORIENTED_EDGE('',*,*,#394,.F.);
#508=ORIENTED_EDGE('',*,*,#395,.F.);
#509=ORIENTED_EDGE('',*,*,#396,.F.);
#510=ORIENTED_EDGE('',*,*,#397,.F.);
#511=ORIENTED_EDGE('',*,*,#398,.T.);
#512=ORIENTED_EDGE('',*,*,#396,.T.);
#513=ORIENTED_EDGE('',*,*,#398,.F.);
#514=ORIENTED_EDGE('',*,*,#399,.F.);
#515=ORIENTED_EDGE('',*,*,#397,.T.);
#516=ORIENTED_EDGE('',*,*,#400,.F.);
#517=ORIENTED_EDGE('',*,*,#401,.F.);
#518=ORIENTED_EDGE('',*,*,#402,.F.);
#519=ORIENTED_EDGE('',*,*,#403,.F.);
#520=ORIENTED_EDGE('',*,*,#404,.F.);
#521=ORIENTED_EDGE('',*,*,#405,.F.);
#522=ORIENTED_EDGE('',*,*,#406,.F.);
#523=ORIENTED_EDGE('',*,*,#407,.T.);
#524=ORIENTED_EDGE('',*,*,#408,.F.);
#525=ORIENTED_EDGE('',*,*,#409,.F.);
#526=ORIENTED_EDGE('',*,*,#410,.F.);
#527=ORIENTED_EDGE('',*,*,#411,.T.);
#528=ORIENTED_EDGE('',*,*,#412,.F.);
#529=ORIENTED_EDGE('',*,*,#413,.T.);
#530=ORIENTED_EDGE('',*,*,#414,.T.);
#531=ORIENTED_EDGE('',*,*,#415,.F.);
#532=ORIENTED_EDGE('',*,*,#416,.F.);
#533=ORIENTED_EDGE('',*,*,#417,.F.);
#534=ORIENTED_EDGE('',*,*,#411,.F.);
#535=ORIENTED_EDGE('',*,*,#418,.F.);
#536=ORIENTED_EDGE('',*,*,#419,.F.);
#537=ORIENTED_EDGE('',*,*,#420,.F.);
#538=ORIENTED_EDGE('',*,*,#421,.T.);
#539=ORIENTED_EDGE('',*,*,#422,.T.);
#540=ORIENTED_EDGE('',*,*,#423,.T.);
#541=ORIENTED_EDGE('',*,*,#424,.F.);
#542=ORIENTED_EDGE('',*,*,#425,.T.);
#543=ORIENTED_EDGE('',*,*,#426,.F.);
#544=ORIENTED_EDGE('',*,*,#427,.F.);
#545=ORIENTED_EDGE('',*,*,#428,.F.);
#546=ORIENTED_EDGE('',*,*,#429,.F.);
#547=ORIENTED_EDGE('',*,*,#430,.F.);
#548=ORIENTED_EDGE('',*,*,#431,.F.);
#549=ORIENTED_EDGE('',*,*,#413,.F.);
#550=ORIENTED_EDGE('',*,*,#432,.F.);
#551=ORIENTED_EDGE('',*,*,#433,.F.);
#552=ORIENTED_EDGE('',*,*,#407,.F.);
#553=ORIENTED_EDGE('',*,*,#434,.F.);
#554=ORIENTED_EDGE('',*,*,#435,.F.);
#555=ORIENTED_EDGE('',*,*,#436,.F.);
#556=ORIENTED_EDGE('',*,*,#437,.F.);
#557=ORIENTED_EDGE('',*,*,#438,.F.);
#558=ORIENTED_EDGE('',*,*,#439,.F.);
#559=ORIENTED_EDGE('',*,*,#401,.T.);
#560=ORIENTED_EDGE('',*,*,#440,.F.);
#561=ORIENTED_EDGE('',*,*,#441,.F.);
#562=ORIENTED_EDGE('',*,*,#442,.T.);
#563=ORIENTED_EDGE('',*,*,#443,.F.);
#564=ORIENTED_EDGE('',*,*,#444,.F.);
#565=ORIENTED_EDGE('',*,*,#445,.F.);
#566=ORIENTED_EDGE('',*,*,#446,.F.);
#567=ORIENTED_EDGE('',*,*,#442,.F.);
#568=ORIENTED_EDGE('',*,*,#438,.T.);
#569=ORIENTED_EDGE('',*,*,#447,.T.);
#570=ORIENTED_EDGE('',*,*,#448,.F.);
#571=ORIENTED_EDGE('',*,*,#449,.F.);
#572=ORIENTED_EDGE('',*,*,#437,.T.);
#573=ORIENTED_EDGE('',*,*,#450,.T.);
#574=ORIENTED_EDGE('',*,*,#451,.F.);
#575=ORIENTED_EDGE('',*,*,#447,.F.);
#576=ORIENTED_EDGE('',*,*,#452,.F.);
#577=ORIENTED_EDGE('',*,*,#453,.F.);
#578=ORIENTED_EDGE('',*,*,#450,.F.);
#579=ORIENTED_EDGE('',*,*,#436,.T.);
#580=ORIENTED_EDGE('',*,*,#431,.T.);
#581=ORIENTED_EDGE('',*,*,#454,.T.);
#582=ORIENTED_EDGE('',*,*,#455,.F.);
#583=ORIENTED_EDGE('',*,*,#414,.F.);
#584=ORIENTED_EDGE('',*,*,#430,.T.);
#585=ORIENTED_EDGE('',*,*,#456,.F.);
#586=ORIENTED_EDGE('',*,*,#457,.F.);
#587=ORIENTED_EDGE('',*,*,#454,.F.);
#588=ORIENTED_EDGE('',*,*,#428,.T.);
#589=ORIENTED_EDGE('',*,*,#458,.T.);
#590=ORIENTED_EDGE('',*,*,#459,.F.);
#591=ORIENTED_EDGE('',*,*,#460,.F.);
#592=ORIENTED_EDGE('',*,*,#427,.T.);
#593=ORIENTED_EDGE('',*,*,#461,.F.);
#594=ORIENTED_EDGE('',*,*,#462,.F.);
#595=ORIENTED_EDGE('',*,*,#458,.F.);
#596=ORIENTED_EDGE('',*,*,#425,.F.);
#597=ORIENTED_EDGE('',*,*,#463,.F.);
#598=ORIENTED_EDGE('',*,*,#464,.F.);
#599=ORIENTED_EDGE('',*,*,#465,.F.);
#600=ORIENTED_EDGE('',*,*,#423,.F.);
#601=ORIENTED_EDGE('',*,*,#466,.T.);
#602=ORIENTED_EDGE('',*,*,#467,.F.);
#603=ORIENTED_EDGE('',*,*,#468,.F.);
#604=ORIENTED_EDGE('',*,*,#422,.F.);
#605=ORIENTED_EDGE('',*,*,#469,.T.);
#606=ORIENTED_EDGE('',*,*,#470,.F.);
#607=ORIENTED_EDGE('',*,*,#466,.F.);
#608=ORIENTED_EDGE('',*,*,#421,.F.);
#609=ORIENTED_EDGE('',*,*,#471,.F.);
#610=ORIENTED_EDGE('',*,*,#472,.F.);
#611=ORIENTED_EDGE('',*,*,#469,.F.);
#612=ORIENTED_EDGE('',*,*,#444,.T.);
#613=ORIENTED_EDGE('',*,*,#441,.T.);
#614=ORIENTED_EDGE('',*,*,#473,.F.);
#615=ORIENTED_EDGE('',*,*,#474,.F.);
#616=ORIENTED_EDGE('',*,*,#475,.T.);
#617=ORIENTED_EDGE('',*,*,#476,.F.);
#618=ORIENTED_EDGE('',*,*,#440,.T.);
#619=ORIENTED_EDGE('',*,*,#400,.T.);
#620=ORIENTED_EDGE('',*,*,#477,.F.);
#621=ORIENTED_EDGE('',*,*,#475,.F.);
#622=ORIENTED_EDGE('',*,*,#478,.F.);
#623=ORIENTED_EDGE('',*,*,#479,.T.);
#624=ORIENTED_EDGE('',*,*,#443,.T.);
#625=ORIENTED_EDGE('',*,*,#446,.T.);
#626=ORIENTED_EDGE('',*,*,#480,.T.);
#627=ORIENTED_EDGE('',*,*,#402,.T.);
#628=ORIENTED_EDGE('',*,*,#439,.T.);
#629=ORIENTED_EDGE('',*,*,#449,.T.);
#630=ORIENTED_EDGE('',*,*,#481,.T.);
#631=ORIENTED_EDGE('',*,*,#456,.T.);
#632=ORIENTED_EDGE('',*,*,#429,.T.);
#633=ORIENTED_EDGE('',*,*,#460,.T.);
#634=ORIENTED_EDGE('',*,*,#482,.T.);
#635=ORIENTED_EDGE('',*,*,#483,.T.);
#636=ORIENTED_EDGE('',*,*,#484,.F.);
#637=ORIENTED_EDGE('',*,*,#473,.T.);
#638=ORIENTED_EDGE('',*,*,#461,.T.);
#639=ORIENTED_EDGE('',*,*,#426,.T.);
#640=ORIENTED_EDGE('',*,*,#465,.T.);
#641=ORIENTED_EDGE('',*,*,#485,.T.);
#642=ORIENTED_EDGE('',*,*,#486,.T.);
#643=ORIENTED_EDGE('',*,*,#487,.F.);
#644=ORIENTED_EDGE('',*,*,#483,.F.);
#645=ORIENTED_EDGE('',*,*,#488,.T.);
#646=ORIENTED_EDGE('',*,*,#452,.T.);
#647=ORIENTED_EDGE('',*,*,#435,.T.);
#648=ORIENTED_EDGE('',*,*,#479,.F.);
#649=ORIENTED_EDGE('',*,*,#489,.F.);
#650=ORIENTED_EDGE('',*,*,#490,.T.);
#651=ORIENTED_EDGE('',*,*,#416,.T.);
#652=ORIENTED_EDGE('',*,*,#412,.T.);
#653=ORIENTED_EDGE('',*,*,#491,.F.);
#654=ORIENTED_EDGE('',*,*,#434,.T.);
#655=ORIENTED_EDGE('',*,*,#406,.T.);
#656=ORIENTED_EDGE('',*,*,#492,.F.);
#657=ORIENTED_EDGE('',*,*,#408,.T.);
#658=ORIENTED_EDGE('',*,*,#417,.T.);
#659=ORIENTED_EDGE('',*,*,#490,.F.);
#660=ORIENTED_EDGE('',*,*,#493,.F.);
#661=ORIENTED_EDGE('',*,*,#494,.T.);
#662=ORIENTED_EDGE('',*,*,#467,.T.);
#663=ORIENTED_EDGE('',*,*,#470,.T.);
#664=ORIENTED_EDGE('',*,*,#472,.T.);
#665=ORIENTED_EDGE('',*,*,#495,.T.);
#666=ORIENTED_EDGE('',*,*,#464,.T.);
#667=ORIENTED_EDGE('',*,*,#496,.T.);
#668=ORIENTED_EDGE('',*,*,#485,.F.);
#669=ORIENTED_EDGE('',*,*,#459,.T.);
#670=ORIENTED_EDGE('',*,*,#462,.T.);
#671=ORIENTED_EDGE('',*,*,#488,.F.);
#672=ORIENTED_EDGE('',*,*,#482,.F.);
#673=ORIENTED_EDGE('',*,*,#405,.T.);
#674=ORIENTED_EDGE('',*,*,#497,.T.);
#675=ORIENTED_EDGE('',*,*,#409,.T.);
#676=ORIENTED_EDGE('',*,*,#492,.T.);
#677=ORIENTED_EDGE('',*,*,#453,.T.);
#678=ORIENTED_EDGE('',*,*,#491,.T.);
#679=ORIENTED_EDGE('',*,*,#415,.T.);
#680=ORIENTED_EDGE('',*,*,#455,.T.);
#681=ORIENTED_EDGE('',*,*,#457,.T.);
#682=ORIENTED_EDGE('',*,*,#481,.F.);
#683=ORIENTED_EDGE('',*,*,#448,.T.);
#684=ORIENTED_EDGE('',*,*,#451,.T.);
#685=ORIENTED_EDGE('',*,*,#445,.T.);
#686=ORIENTED_EDGE('',*,*,#476,.T.);
#687=ORIENTED_EDGE('',*,*,#477,.T.);
#688=ORIENTED_EDGE('',*,*,#403,.T.);
#689=ORIENTED_EDGE('',*,*,#480,.F.);
#690=ORIENTED_EDGE('',*,*,#463,.T.);
#691=ORIENTED_EDGE('',*,*,#424,.T.);
#692=ORIENTED_EDGE('',*,*,#468,.T.);
#693=ORIENTED_EDGE('',*,*,#495,.F.);
#694=ORIENTED_EDGE('',*,*,#471,.T.);
#695=ORIENTED_EDGE('',*,*,#420,.T.);
#696=ORIENTED_EDGE('',*,*,#498,.T.);
#697=ORIENTED_EDGE('',*,*,#499,.F.);
#698=ORIENTED_EDGE('',*,*,#486,.F.);
#699=ORIENTED_EDGE('',*,*,#496,.F.);
#700=ORIENTED_EDGE('',*,*,#432,.T.);
#701=ORIENTED_EDGE('',*,*,#500,.T.);
#702=ORIENTED_EDGE('',*,*,#399,.T.);
#703=ORIENTED_EDGE('',*,*,#500,.F.);
#704=ORIENTED_EDGE('',*,*,#419,.T.);
#705=ORIENTED_EDGE('',*,*,#501,.T.);
#706=ORIENTED_EDGE('',*,*,#502,.F.);
#707=ORIENTED_EDGE('',*,*,#498,.F.);
#708=ORIENTED_EDGE('',*,*,#503,.T.);
#709=ORIENTED_EDGE('',*,*,#493,.T.);
#710=ORIENTED_EDGE('',*,*,#489,.T.);
#711=ORIENTED_EDGE('',*,*,#478,.T.);
#712=ORIENTED_EDGE('',*,*,#474,.T.);
#713=ORIENTED_EDGE('',*,*,#484,.T.);
#714=ORIENTED_EDGE('',*,*,#487,.T.);
#715=ORIENTED_EDGE('',*,*,#499,.T.);
#716=ORIENTED_EDGE('',*,*,#502,.T.);
#717=ORIENTED_EDGE('',*,*,#393,.T.);
#718=ORIENTED_EDGE('',*,*,#433,.T.);
#719=ORIENTED_EDGE('',*,*,#494,.F.);
#720=ORIENTED_EDGE('',*,*,#503,.F.);
#721=ORIENTED_EDGE('',*,*,#501,.F.);
#722=ORIENTED_EDGE('',*,*,#418,.T.);
#723=ORIENTED_EDGE('',*,*,#410,.T.);
#724=ORIENTED_EDGE('',*,*,#497,.F.);
#725=ORIENTED_EDGE('',*,*,#404,.T.);
#726=CYLINDRICAL_SURFACE('',#786,2.7);
#727=CYLINDRICAL_SURFACE('',#791,1.50000000000002);
#728=CYLINDRICAL_SURFACE('',#807,15.);
#729=CYLINDRICAL_SURFACE('',#820,5.04999999999999);
#730=CYLINDRICAL_SURFACE('',#821,35.);
#731=ADVANCED_FACE('',(#87),#726,.F.);
#732=ADVANCED_FACE('',(#88,#63),#67,.T.);
#733=ADVANCED_FACE('',(#89),#727,.F.);
#734=ADVANCED_FACE('',(#90,#64),#68,.F.);
#735=ADVANCED_FACE('',(#91),#47,.F.);
#736=ADVANCED_FACE('',(#92),#48,.F.);
#737=ADVANCED_FACE('',(#93),#49,.F.);
#738=ADVANCED_FACE('',(#94),#50,.F.);
#739=ADVANCED_FACE('',(#95,#65),#69,.T.);
#740=ADVANCED_FACE('',(#96),#70,.T.);
#741=ADVANCED_FACE('',(#97),#71,.T.);
#742=ADVANCED_FACE('',(#98),#72,.T.);
#743=ADVANCED_FACE('',(#99),#51,.F.);
#744=ADVANCED_FACE('',(#100),#52,.F.);
#745=ADVANCED_FACE('',(#101),#53,.F.);
#746=ADVANCED_FACE('',(#102),#54,.F.);
#747=ADVANCED_FACE('',(#103),#55,.F.);
#748=ADVANCED_FACE('',(#104),#56,.F.);
#749=ADVANCED_FACE('',(#105),#57,.F.);
#750=ADVANCED_FACE('',(#106),#58,.F.);
#751=ADVANCED_FACE('',(#107),#59,.F.);
#752=ADVANCED_FACE('',(#108),#60,.F.);
#753=ADVANCED_FACE('',(#109),#61,.F.);
#754=ADVANCED_FACE('',(#110),#62,.F.);
#755=ADVANCED_FACE('',(#111),#73,.F.);
#756=ADVANCED_FACE('',(#112),#74,.F.);
#757=ADVANCED_FACE('',(#113),#75,.T.);
#758=ADVANCED_FACE('',(#114),#728,.T.);
#759=ADVANCED_FACE('',(#115),#76,.F.);
#760=ADVANCED_FACE('',(#116),#77,.F.);
#761=ADVANCED_FACE('',(#117),#78,.F.);
#762=ADVANCED_FACE('',(#118),#79,.F.);
#763=ADVANCED_FACE('',(#119),#80,.F.);
#764=ADVANCED_FACE('',(#120),#81,.F.);
#765=ADVANCED_FACE('',(#121),#82,.F.);
#766=ADVANCED_FACE('',(#122),#83,.F.);
#767=ADVANCED_FACE('',(#123),#84,.T.);
#768=ADVANCED_FACE('',(#124),#729,.F.);
#769=ADVANCED_FACE('',(#125),#730,.F.);
#770=ADVANCED_FACE('',(#126,#66),#85,.T.);
#771=ADVANCED_FACE('',(#127),#86,.F.);
#772=CLOSED_SHELL('',(#731,#732,#733,#734,#735,#736,#737,#738,#739,#740,
#741,#742,#743,#744,#745,#746,#747,#748,#749,#750,#751,#752,#753,#754,#755,
#756,#757,#758,#759,#760,#761,#762,#763,#764,#765,#766,#767,#768,#769,#770,
#771));
#773=DERIVED_UNIT_ELEMENT(#775,1.);
#774=DERIVED_UNIT_ELEMENT(#1406,-3.);
#775=(
MASS_UNIT()
NAMED_UNIT(*)
SI_UNIT(.KILO.,.GRAM.)
);
#776=DERIVED_UNIT((#773,#774));
#777=MEASURE_REPRESENTATION_ITEM('density measure',
POSITIVE_RATIO_MEASURE(7850.),#776);
#778=PROPERTY_DEFINITION_REPRESENTATION(#783,#780);
#779=PROPERTY_DEFINITION_REPRESENTATION(#784,#781);
#780=REPRESENTATION('material name',(#782),#1403);
#781=REPRESENTATION('density',(#777),#1403);
#782=DESCRIPTIVE_REPRESENTATION_ITEM('Steel','Steel');
#783=PROPERTY_DEFINITION('material property','material name',#1413);
#784=PROPERTY_DEFINITION('material property','density of part',#1413);
#785=AXIS2_PLACEMENT_3D('',#972,#825,#826);
#786=AXIS2_PLACEMENT_3D('',#973,#827,#828);
#787=AXIS2_PLACEMENT_3D('',#975,#829,#830);
#788=AXIS2_PLACEMENT_3D('',#978,#832,#833);
#789=AXIS2_PLACEMENT_3D('',#979,#834,#835);
#790=AXIS2_PLACEMENT_3D('',#981,#836,#837);
#791=AXIS2_PLACEMENT_3D('',#982,#838,#839);
#792=AXIS2_PLACEMENT_3D('',#984,#840,#841);
#793=AXIS2_PLACEMENT_3D('',#986,#843,#844);
#794=AXIS2_PLACEMENT_3D('',#988,#845,#846);
#795=AXIS2_PLACEMENT_3D('',#1077,#855,#856);
#796=AXIS2_PLACEMENT_3D('',#1084,#860,#861);
#797=AXIS2_PLACEMENT_3D('',#1110,#864,#865);
#798=AXIS2_PLACEMENT_3D('',#1117,#866,#867);
#799=AXIS2_PLACEMENT_3D('',#1130,#869,#870);
#800=AXIS2_PLACEMENT_3D('',#1131,#871,#872);
#801=AXIS2_PLACEMENT_3D('',#1135,#875,#876);
#802=AXIS2_PLACEMENT_3D('',#1156,#880,#881);
#803=AXIS2_PLACEMENT_3D('',#1265,#893,#894);
#804=AXIS2_PLACEMENT_3D('',#1341,#903,#904);
#805=AXIS2_PLACEMENT_3D('',#1349,#909,#910);
#806=AXIS2_PLACEMENT_3D('',#1354,#914,#915);
#807=AXIS2_PLACEMENT_3D('',#1362,#921,#922);
#808=AXIS2_PLACEMENT_3D('',#1364,#923,#924);
#809=AXIS2_PLACEMENT_3D('',#1367,#926,#927);
#810=AXIS2_PLACEMENT_3D('',#1368,#928,#929);
#811=AXIS2_PLACEMENT_3D('',#1369,#930,#931);
#812=AXIS2_PLACEMENT_3D('',#1374,#935,#936);
#813=AXIS2_PLACEMENT_3D('',#1379,#940,#941);
#814=AXIS2_PLACEMENT_3D('',#1381,#943,#944);
#815=AXIS2_PLACEMENT_3D('',#1383,#946,#947);
#816=AXIS2_PLACEMENT_3D('',#1384,#948,#949);
#817=AXIS2_PLACEMENT_3D('',#1386,#951,#952);
#818=AXIS2_PLACEMENT_3D('',#1387,#953,#954);
#819=AXIS2_PLACEMENT_3D('',#1388,#955,#956);
#820=AXIS2_PLACEMENT_3D('',#1392,#959,#960);
#821=AXIS2_PLACEMENT_3D('',#1394,#962,#963);
#822=AXIS2_PLACEMENT_3D('',#1397,#965,#966);
#823=AXIS2_PLACEMENT_3D('',#1398,#967,#968);
#824=AXIS2_PLACEMENT_3D('',#1400,#970,#971);
#825=DIRECTION('axis',(0.,0.,1.));
#826=DIRECTION('refdir',(1.,0.,0.));
#827=DIRECTION('center_axis',(0.,0.,-1.));
#828=DIRECTION('ref_axis',(-1.,0.,0.));
#829=DIRECTION('center_axis',(0.,0.,-1.));
#830=DIRECTION('ref_axis',(-1.,0.,0.));
#831=DIRECTION('',(0.,0.,-1.));
#832=DIRECTION('center_axis',(0.,0.,-1.));
#833=DIRECTION('ref_axis',(-1.,0.,0.));
#834=DIRECTION('center_axis',(0.,0.,1.));
#835=DIRECTION('ref_axis',(-1.,0.,0.));
#836=DIRECTION('center_axis',(0.,0.,1.));
#837=DIRECTION('ref_axis',(-1.,0.,0.));
#838=DIRECTION('center_axis',(0.,0.,-1.));
#839=DIRECTION('ref_axis',(-1.,0.,0.));
#840=DIRECTION('center_axis',(0.,0.,1.));
#841=DIRECTION('ref_axis',(-1.,0.,0.));
#842=DIRECTION('',(0.,0.,1.));
#843=DIRECTION('center_axis',(0.,0.,1.));
#844=DIRECTION('ref_axis',(-1.,0.,0.));
#845=DIRECTION('center_axis',(0.,0.,1.));
#846=DIRECTION('ref_axis',(1.,0.,0.));
#847=DIRECTION('',(0.,0.,-1.));
#848=DIRECTION('',(0.,0.,1.));
#849=DIRECTION('',(0.,0.,1.));
#850=DIRECTION('',(0.,0.,-1.));
#851=DIRECTION('',(0.,0.,1.));
#852=DIRECTION('',(0.,0.,-1.));
#853=DIRECTION('',(0.,0.,-1.));
#854=DIRECTION('',(0.,0.,-1.));
#855=DIRECTION('center_axis',(0.,0.,-1.));
#856=DIRECTION('ref_axis',(1.,0.,0.));
#857=DIRECTION('',(0.745521964111647,-0.666481058265808,0.));
#858=DIRECTION('',(0.288965776456359,0.95733942780864,0.));
#859=DIRECTION('',(0.745521964111648,-0.666481058265808,0.));
#860=DIRECTION('center_axis',(0.,0.,-1.));
#861=DIRECTION('ref_axis',(-0.624654598939344,-0.780901166617087,0.));
#862=DIRECTION('',(-0.666481058265805,-0.74552196411165,0.));
#863=DIRECTION('',(-0.666481058265805,-0.74552196411165,0.));
#864=DIRECTION('center_axis',(0.,0.,1.));
#865=DIRECTION('ref_axis',(0.745521964111651,-0.666481058265805,0.));
#866=DIRECTION('center_axis',(0.,0.,1.));
#867=DIRECTION('ref_axis',(0.919764444680291,0.392470847709681,0.));
#868=DIRECTION('',(0.666481058265804,0.745521964111651,0.));
#869=DIRECTION('center_axis',(0.,0.,-1.));
#870=DIRECTION('ref_axis',(1.,0.,0.));
#871=DIRECTION('center_axis',(0.,0.,-1.));
#872=DIRECTION('ref_axis',(1.,0.,0.));
#873=DIRECTION('',(0.745521964111648,-0.666481058265808,0.));
#874=DIRECTION('',(0.288965776456359,0.95733942780864,0.));
#875=DIRECTION('center_axis',(0.,0.,-1.));
#876=DIRECTION('ref_axis',(1.,0.,0.));
#877=DIRECTION('',(0.745521964111647,-0.666481058265808,0.));
#878=DIRECTION('',(0.666481058265804,0.745521964111651,0.));
#879=DIRECTION('',(-0.919108169580451,-0.394005295155374,0.));
#880=DIRECTION('center_axis',(0.,0.,-1.));
#881=DIRECTION('ref_axis',(1.,0.,0.));
#882=DIRECTION('',(0.745521964111652,-0.666481058265803,0.));
#883=DIRECTION('',(0.666481058265804,0.745521964111651,0.));
#884=DIRECTION('',(0.,0.,1.));
#885=DIRECTION('',(0.,0.,-1.));
#886=DIRECTION('',(0.,0.,-1.));
#887=DIRECTION('',(0.,0.,-1.));
#888=DIRECTION('',(0.,0.,-1.));
#889=DIRECTION('',(0.,0.,1.));
#890=DIRECTION('',(0.,0.,-1.));
#891=DIRECTION('',(0.,0.,1.));
#892=DIRECTION('',(0.,0.,-1.));
#893=DIRECTION('center_axis',(0.,0.,1.));
#894=DIRECTION('ref_axis',(0.919764444677102,0.392470847717154,0.));
#895=DIRECTION('',(0.,0.,-1.));
#896=DIRECTION('',(0.,0.,1.));
#897=DIRECTION('',(0.,0.,1.));
#898=DIRECTION('',(0.,0.,-1.));
#899=DIRECTION('',(0.,0.,-1.));
#900=DIRECTION('',(0.,0.,-1.));
#901=DIRECTION('',(0.,0.,-1.));
#902=DIRECTION('',(0.,0.,1.));
#903=DIRECTION('center_axis',(0.666481058265803,0.745521964111652,0.));
#904=DIRECTION('ref_axis',(0.745521964111652,-0.666481058265803,0.));
#905=DIRECTION('',(0.,0.,-1.));
#906=DIRECTION('',(0.745521964111652,-0.666481058265803,0.));
#907=DIRECTION('',(0.,0.,-1.));
#908=DIRECTION('',(-0.745521964111652,0.666481058265803,0.));
#909=DIRECTION('center_axis',(0.394005295155374,-0.919108169580451,0.));
#910=DIRECTION('ref_axis',(-0.919108169580451,-0.394005295155374,0.));
#911=DIRECTION('',(0.919108169580451,0.394005295155374,0.));
#912=DIRECTION('',(-0.919108169580451,-0.394005295155374,0.));
#913=DIRECTION('',(0.,0.,-1.));
#914=DIRECTION('center_axis',(0.745521964111651,-0.666481058265804,0.));
#915=DIRECTION('ref_axis',(0.666481058265804,0.745521964111651,0.));
#916=DIRECTION('',(0.666481058265804,0.745521964111651,0.));
#917=DIRECTION('',(0.666481058265804,0.745521964111651,0.));
#918=DIRECTION('',(0.666481058265804,0.745521964111651,0.));
#919=DIRECTION('',(0.,0.,1.));
#920=DIRECTION('',(0.666481058265804,0.745521964111651,0.));
#921=DIRECTION('center_axis',(0.,0.,1.));
#922=DIRECTION('ref_axis',(0.745521964111651,-0.666481058265805,0.));
#923=DIRECTION('center_axis',(0.,0.,1.));
#924=DIRECTION('ref_axis',(0.745521964111651,-0.666481058265805,0.));
#925=DIRECTION('',(0.,0.,1.));
#926=DIRECTION('center_axis',(0.,0.,1.));
#927=DIRECTION('ref_axis',(0.745521964111651,-0.666481058265805,0.));
#928=DIRECTION('center_axis',(0.,0.,1.));
#929=DIRECTION('ref_axis',(0.745521964111651,-0.666481058265805,0.));
#930=DIRECTION('center_axis',(0.666481058265808,0.745521964111647,0.));
#931=DIRECTION('ref_axis',(0.745521964111647,-0.666481058265808,0.));
#932=DIRECTION('',(0.745521964111647,-0.666481058265808,0.));
#933=DIRECTION('',(0.,0.,-1.));
#934=DIRECTION('',(-0.745521964111647,0.666481058265808,0.));
#935=DIRECTION('center_axis',(-0.95733942780864,0.288965776456359,0.));
#936=DIRECTION('ref_axis',(0.288965776456359,0.95733942780864,0.));
#937=DIRECTION('',(-0.288965776456359,-0.95733942780864,0.));
#938=DIRECTION('',(0.288965776456359,0.95733942780864,0.));
#939=DIRECTION('',(0.,0.,-1.));
#940=DIRECTION('center_axis',(0.,0.,1.));
#941=DIRECTION('ref_axis',(-1.,0.,0.));
#942=DIRECTION('',(0.666481058265805,0.74552196411165,0.));
#943=DIRECTION('center_axis',(0.,0.,1.));
#944=DIRECTION('ref_axis',(-1.,0.,0.));
#945=DIRECTION('',(0.666481058265805,0.74552196411165,0.));
#946=DIRECTION('center_axis',(0.,0.,1.));
#947=DIRECTION('ref_axis',(-1.,0.,0.));
#948=DIRECTION('center_axis',(0.,0.,1.));
#949=DIRECTION('ref_axis',(-1.,0.,0.));
#950=DIRECTION('',(-0.745521964111648,0.666481058265808,0.));
#951=DIRECTION('center_axis',(0.,0.,1.));
#952=DIRECTION('ref_axis',(-1.,0.,0.));
#953=DIRECTION('center_axis',(0.,0.,1.));
#954=DIRECTION('ref_axis',(-1.,0.,0.));
#955=DIRECTION('center_axis',(-0.74552196411165,0.666481058265805,0.));
#956=DIRECTION('ref_axis',(-0.666481058265805,-0.74552196411165,0.));
#957=DIRECTION('',(0.,0.,1.));
#958=DIRECTION('',(-0.666481058265805,-0.74552196411165,0.));
#959=DIRECTION('center_axis',(0.,0.,1.));
#960=DIRECTION('ref_axis',(1.,0.,0.));
#961=DIRECTION('',(0.,0.,1.));
#962=DIRECTION('center_axis',(0.,0.,1.));
#963=DIRECTION('ref_axis',(-0.624654598939344,-0.780901166617087,0.));
#964=DIRECTION('',(0.,0.,1.));
#965=DIRECTION('center_axis',(0.,0.,-1.));
#966=DIRECTION('ref_axis',(-0.624654598939344,-0.780901166617087,0.));
#967=DIRECTION('center_axis',(0.,0.,1.));
#968=DIRECTION('ref_axis',(-1.,0.,0.));
#969=DIRECTION('',(0.745521964111648,-0.666481058265808,0.));
#970=DIRECTION('center_axis',(0.666481058265808,0.745521964111648,0.));
#971=DIRECTION('ref_axis',(0.745521964111648,-0.666481058265808,0.));
#972=CARTESIAN_POINT('',(0.,0.,0.));
#973=CARTESIAN_POINT('Origin',(175.578113255177,141.631973976087,78.1035162724936));
#974=CARTESIAN_POINT('',(178.278113255177,141.631973976087,78.1035162724936));
#975=CARTESIAN_POINT('Origin',(175.578113255177,141.631973976087,78.1035162724936));
#976=CARTESIAN_POINT('',(178.278113255177,141.631973976087,76.6035162724936));
#977=CARTESIAN_POINT('',(178.278113255177,141.631973976087,78.1035162724936));
#978=CARTESIAN_POINT('Origin',(175.578113255177,141.631973976087,76.6035162724936));
#979=CARTESIAN_POINT('Origin',(175.578113255177,141.631973976087,76.6035162724936));
#980=CARTESIAN_POINT('',(177.078113255177,141.631973976087,76.6035162724936));
#981=CARTESIAN_POINT('Origin',(175.578113255177,141.631973976087,76.6035162724936));
#982=CARTESIAN_POINT('Origin',(175.578113255177,141.631973976087,78.1035162724936));
#983=CARTESIAN_POINT('',(177.078113255177,141.631973976087,75.1035162724936));
#984=CARTESIAN_POINT('Origin',(175.578113255177,141.631973976087,75.1035162724936));
#985=CARTESIAN_POINT('',(177.078113255177,141.631973976087,78.1035162724936));
#986=CARTESIAN_POINT('Origin',(175.578113255177,141.631973976087,75.1035162724936));
#987=CARTESIAN_POINT('',(170.528113255177,141.631973976087,75.1035162724936));
#988=CARTESIAN_POINT('Origin',(175.578113255177,141.631973976087,75.1035162724936));
#989=CARTESIAN_POINT('Ctrl Pts',(150.078350010747,90.6018161695533,72.1035162724936));
#990=CARTESIAN_POINT('Ctrl Pts',(150.078350010747,90.6018161695533,69.7035162724936));
#991=CARTESIAN_POINT('Ctrl Pts',(143.029330242758,95.9639475954005,72.1035162724936));
#992=CARTESIAN_POINT('Ctrl Pts',(143.029330242758,95.9639475954005,69.7035162724936));
#993=CARTESIAN_POINT('Ctrl Pts',(128.489713716509,94.2376036259661,72.1035162724936));
#994=CARTESIAN_POINT('Ctrl Pts',(128.489713716509,94.2376036259661,69.7035162724936));
#995=CARTESIAN_POINT('Ctrl Pts',(121.041743569093,82.2529261940826,72.1035162724936));
#996=CARTESIAN_POINT('Ctrl Pts',(121.041743569093,82.2529261940826,69.7035162724936));
#997=CARTESIAN_POINT('',(135.565759778535,92.898652791685,72.1035162724936));
#998=CARTESIAN_POINT('',(135.565759778535,92.898652791685,70.1035162724936));
#999=CARTESIAN_POINT('',(135.565759778534,92.898652791685,72.1035162724936));
#1000=CARTESIAN_POINT('',(150.078350010747,90.6018161695533,72.1035162724936));
#1001=CARTESIAN_POINT('Ctrl Pts',(150.078350010747,90.6018161695533,72.1035162724936));
#1002=CARTESIAN_POINT('Ctrl Pts',(146.522806858616,93.3064886345925,72.1035162724936));
#1003=CARTESIAN_POINT('Ctrl Pts',(141.061492026271,94.2076978909995,72.1035162724936));
#1004=CARTESIAN_POINT('Ctrl Pts',(135.565759778535,92.898652791685,72.1035162724936));
#1005=CARTESIAN_POINT('',(150.078350010747,90.6018161695533,70.1035162724936));
#1006=CARTESIAN_POINT('',(150.078350010747,90.6018161695533,72.1035162724936));
#1007=CARTESIAN_POINT('Ctrl Pts',(135.565759778535,92.898652791685,70.1035162724936));
#1008=CARTESIAN_POINT('Ctrl Pts',(141.061492026271,94.2076978909995,70.1035162724936));
#1009=CARTESIAN_POINT('Ctrl Pts',(146.522806858616,93.3064886345925,70.1035162724936));
#1010=CARTESIAN_POINT('Ctrl Pts',(150.078350010747,90.6018161695533,70.1035162724936));
#1011=CARTESIAN_POINT('Ctrl Pts',(124.83938160563,92.1143332764495,72.1035162724936));
#1012=CARTESIAN_POINT('Ctrl Pts',(124.83938160563,92.1143332764495,69.7035162724936));
#1013=CARTESIAN_POINT('Ctrl Pts',(129.703046433549,97.5342367539275,72.1035162724936));
#1014=CARTESIAN_POINT('Ctrl Pts',(129.703046433549,97.5342367539275,69.7035162724936));
#1015=CARTESIAN_POINT('Ctrl Pts',(140.155440771203,103.684588886915,72.1035162724936));
#1016=CARTESIAN_POINT('Ctrl Pts',(140.155440771203,103.684588886915,69.7035162724936));
#1017=CARTESIAN_POINT('Ctrl Pts',(148.809038510041,101.612363338362,72.1035162724936));
#1018=CARTESIAN_POINT('Ctrl Pts',(148.809038510041,101.612363338362,69.7035162724936));
#1019=CARTESIAN_POINT('',(128.703926811454,95.6423523360651,70.1035162724936));
#1020=CARTESIAN_POINT('',(128.703926811454,95.6423523360651,72.1035162724936));
#1021=CARTESIAN_POINT('',(128.703926811454,95.6423523360651,70.1035162724936));
#1022=CARTESIAN_POINT('',(129.511861307188,96.2431027505806,70.1035162724936));
#1023=CARTESIAN_POINT('Ctrl Pts',(129.511861307188,96.2431027505807,70.1035162724936));
#1024=CARTESIAN_POINT('Ctrl Pts',(129.237051172952,96.0449233299849,70.1035162724936));
#1025=CARTESIAN_POINT('Ctrl Pts',(128.967604340903,95.8445091796508,70.1035162724936));
#1026=CARTESIAN_POINT('Ctrl Pts',(128.703926811454,95.6423523360653,70.1035162724936));
#1027=CARTESIAN_POINT('',(129.511861307188,96.2431027505806,72.1035162724936));
#1028=CARTESIAN_POINT('',(129.511861307188,96.2431027505805,72.1035162724936));
#1029=CARTESIAN_POINT('Ctrl Pts',(129.511861307188,96.2431027505807,72.1035162724936));
#1030=CARTESIAN_POINT('Ctrl Pts',(129.237051172952,96.0449233299849,72.1035162724936));
#1031=CARTESIAN_POINT('Ctrl Pts',(128.967604340903,95.8445091796508,72.1035162724936));
#1032=CARTESIAN_POINT('Ctrl Pts',(128.703926811454,95.6423523360653,72.1035162724936));
#1033=CARTESIAN_POINT('Ctrl Pts',(142.958334729295,112.302449126898,72.1035162724936));
#1034=CARTESIAN_POINT('Ctrl Pts',(142.958334729295,112.302449126898,69.7035162724936));
#1035=CARTESIAN_POINT('Ctrl Pts',(138.180923357491,109.930218125807,72.1035162724936));
#1036=CARTESIAN_POINT('Ctrl Pts',(138.180923357491,109.930218125807,69.7035162724936));
#1037=CARTESIAN_POINT('Ctrl Pts',(125.322579510026,95.8330384129394,72.1035162724936));
#1038=CARTESIAN_POINT('Ctrl Pts',(125.322579510026,95.8330384129394,69.7035162724936));
#1039=CARTESIAN_POINT('Ctrl Pts',(124.83938160563,92.1143332764495,72.1035162724936));
#1040=CARTESIAN_POINT('Ctrl Pts',(124.83938160563,92.1143332764495,69.7035162724936));
#1041=CARTESIAN_POINT('',(131.03915935483,101.303019038778,70.1035162724936));
#1042=CARTESIAN_POINT('',(131.03915935483,101.303019038778,72.1035162724936));
#1043=CARTESIAN_POINT('',(131.03915935483,101.303019038778,70.1035162724936));
#1044=CARTESIAN_POINT('',(127.413534839309,96.7959357964763,70.1035162724936));
#1045=CARTESIAN_POINT('Ctrl Pts',(127.413534839309,96.7959357964762,70.1035162724936));
#1046=CARTESIAN_POINT('Ctrl Pts',(128.430568084358,98.1909747466214,70.1035162724936));
#1047=CARTESIAN_POINT('Ctrl Pts',(129.680502926996,99.7380626044642,70.1035162724936));
#1048=CARTESIAN_POINT('Ctrl Pts',(131.03915935483,101.303019038778,70.1035162724936));
#1049=CARTESIAN_POINT('',(127.413534839309,96.7959357964763,72.1035162724936));
#1050=CARTESIAN_POINT('',(127.413534839309,96.7959357964763,72.1035162724936));
#1051=CARTESIAN_POINT('Ctrl Pts',(127.413534839309,96.7959357964761,72.1035162724936));
#1052=CARTESIAN_POINT('Ctrl Pts',(128.430568084358,98.1909747466213,72.1035162724936));
#1053=CARTESIAN_POINT('Ctrl Pts',(129.680502926996,99.7380626044642,72.1035162724936));
#1054=CARTESIAN_POINT('Ctrl Pts',(131.03915935483,101.303019038778,72.1035162724936));
#1055=CARTESIAN_POINT('Ctrl Pts',(142.958334729295,112.302449126898,72.1035162724936));
#1056=CARTESIAN_POINT('Ctrl Pts',(142.958334729295,112.302449126898,69.7035162724936));
#1057=CARTESIAN_POINT('Ctrl Pts',(138.180923357491,109.930218125807,72.1035162724936));
#1058=CARTESIAN_POINT('Ctrl Pts',(138.180923357491,109.930218125807,69.7035162724936));
#1059=CARTESIAN_POINT('Ctrl Pts',(125.322579510026,95.8330384129394,72.1035162724936));
#1060=CARTESIAN_POINT('Ctrl Pts',(125.322579510026,95.8330384129394,69.7035162724936));
#1061=CARTESIAN_POINT('Ctrl Pts',(124.83938160563,92.1143332764495,72.1035162724936));
#1062=CARTESIAN_POINT('Ctrl Pts',(124.83938160563,92.1143332764495,69.7035162724936));
#1063=CARTESIAN_POINT('',(136.762070938007,107.342771636527,72.1035162724936));
#1064=CARTESIAN_POINT('',(136.762070938007,107.342771636527,70.1035162724936));
#1065=CARTESIAN_POINT('',(136.762070938007,107.342771636527,72.1035162724936));
#1066=CARTESIAN_POINT('',(142.958334729295,112.302449126898,72.1035162724936));
#1067=CARTESIAN_POINT('Ctrl Pts',(136.762070938007,107.342771636527,72.1035162724936));
#1068=CARTESIAN_POINT('Ctrl Pts',(139.199303133843,109.688012831348,72.1035162724936));
#1069=CARTESIAN_POINT('Ctrl Pts',(141.470631767441,111.563727921654,72.1035162724936));
#1070=CARTESIAN_POINT('Ctrl Pts',(142.958334729295,112.302449126898,72.1035162724936));
#1071=CARTESIAN_POINT('',(142.958334729295,112.302449126898,70.1035162724936));
#1072=CARTESIAN_POINT('',(142.958334729295,112.302449126898,72.1035162724936));
#1073=CARTESIAN_POINT('Ctrl Pts',(136.762070938007,107.342771636527,70.1035162724936));
#1074=CARTESIAN_POINT('Ctrl Pts',(139.199303133843,109.688012831348,70.1035162724936));
#1075=CARTESIAN_POINT('Ctrl Pts',(141.470631767441,111.563727921654,70.1035162724936));
#1076=CARTESIAN_POINT('Ctrl Pts',(142.958334729295,112.302449126898,70.1035162724936));
#1077=CARTESIAN_POINT('Origin',(18.4370497025956,63.0466774510599,72.1035162724936));
#1078=CARTESIAN_POINT('',(133.690932549203,110.08830518481,72.1035162724936));
#1079=CARTESIAN_POINT('',(113.348639889619,128.273889771131,72.1035162724936));
#1080=CARTESIAN_POINT('',(120.125475857367,65.146143844514,72.1035162724936));
#1081=CARTESIAN_POINT('',(118.014546914998,105.198434609354,72.1035162724936));
#1082=CARTESIAN_POINT('',(100.813915009394,120.575440126486,72.1035162724936));
#1083=CARTESIAN_POINT('',(131.071230880212,114.353091644492,72.1035162724936));
#1084=CARTESIAN_POINT('Origin',(104.977962136305,137.679928683795,72.1035162724936));
#1085=CARTESIAN_POINT('',(137.849478740025,121.935201585968,72.1035162724936));
#1086=CARTESIAN_POINT('',(109.970904796511,90.7503855357113,72.1035162724936));
#1087=CARTESIAN_POINT('',(138.69196135035,120.109774102675,72.1035162724936));
#1088=CARTESIAN_POINT('Ctrl Pts',(137.849478740025,121.935201585968,72.1035162724936));
#1089=CARTESIAN_POINT('Ctrl Pts',(138.136697934106,121.375766380508,72.1035162724936));
#1090=CARTESIAN_POINT('Ctrl Pts',(138.407029305469,120.780590149559,72.1035162724936));
#1091=CARTESIAN_POINT('Ctrl Pts',(138.69196135035,120.109774102675,72.1035162724936));
#1092=CARTESIAN_POINT('',(161.943929067521,130.055855159079,72.1035162724936));
#1093=CARTESIAN_POINT('Ctrl Pts',(138.69196135035,120.109774102675,72.1035162724936));
#1094=CARTESIAN_POINT('Ctrl Pts',(145.184374363046,124.598112784849,72.1035162724936));
#1095=CARTESIAN_POINT('Ctrl Pts',(153.262724728875,128.328492354094,72.1035162724936));
#1096=CARTESIAN_POINT('Ctrl Pts',(161.943929067521,130.055855159079,72.1035162724936));
#1097=CARTESIAN_POINT('',(148.875483281739,134.268828266421,72.1035162724936));
#1098=CARTESIAN_POINT('Ctrl Pts',(161.943929067521,130.055855159079,72.1035162724936));
#1099=CARTESIAN_POINT('Ctrl Pts',(157.372791434563,130.965415123168,72.1035162724936));
#1100=CARTESIAN_POINT('Ctrl Pts',(152.96880164022,132.430329521732,72.1035162724936));
#1101=CARTESIAN_POINT('Ctrl Pts',(148.875483281739,134.268828266421,72.1035162724936));
#1102=CARTESIAN_POINT('',(157.922228393776,144.388466478334,72.1035162724936));
#1103=CARTESIAN_POINT('',(109.970904796511,90.7503855357113,72.1035162724936));
#1104=CARTESIAN_POINT('',(184.166639119015,153.929828402214,72.1035162724936));
#1105=CARTESIAN_POINT('Ctrl Pts',(157.922228393776,144.388466478334,72.1035162724936));
#1106=CARTESIAN_POINT('Ctrl Pts',(167.660474942217,142.881500643059,72.1035162724936));
#1107=CARTESIAN_POINT('Ctrl Pts',(178.177395061589,147.177332473211,72.1035162724936));
#1108=CARTESIAN_POINT('Ctrl Pts',(184.166639119014,153.929828402214,72.1035162724936));
#1109=CARTESIAN_POINT('',(189.638077138594,136.405367467365,72.1035162724936));
#1110=CARTESIAN_POINT('Origin',(175.578113255177,141.631973976087,72.1035162724936));
#1111=CARTESIAN_POINT('',(170.492731604104,130.055868893706,72.1035162724936));
#1112=CARTESIAN_POINT('Ctrl Pts',(170.492731604104,130.055868893706,72.1035162724936));
#1113=CARTESIAN_POINT('Ctrl Pts',(178.026387046897,131.510333966268,72.1035162724936));
#1114=CARTESIAN_POINT('Ctrl Pts',(184.391440428289,133.731874360982,72.1035162724936));
#1115=CARTESIAN_POINT('Ctrl Pts',(189.638077138594,136.405367467365,72.1035162724936));
#1116=CARTESIAN_POINT('',(182.445463236837,126.807487021965,72.1035162724936));
#1117=CARTESIAN_POINT('Origin',(108.583705578975,60.1285321311667,72.1035162724936));
#1118=CARTESIAN_POINT('',(171.38096175651,114.430797882452,72.1035162724936));
#1119=CARTESIAN_POINT('',(107.266104729401,42.7122793337598,72.1035162724936));
#1120=CARTESIAN_POINT('',(147.184671671205,111.102866824805,72.1035162724936));
#1121=CARTESIAN_POINT('Ctrl Pts',(147.184671671205,111.102866824805,72.1035162724936));
#1122=CARTESIAN_POINT('Ctrl Pts',(154.27435337002,116.683875025418,72.1035162724936));
#1123=CARTESIAN_POINT('Ctrl Pts',(163.433962439111,117.103206743791,72.1035162724936));
#1124=CARTESIAN_POINT('Ctrl Pts',(171.38096175651,114.430797882452,72.1035162724936));
#1125=CARTESIAN_POINT('Ctrl Pts',(142.958334729295,112.302449126898,72.1035162724936));
#1126=CARTESIAN_POINT('Ctrl Pts',(143.896464676194,109.991831661497,72.1035162724936));
#1127=CARTESIAN_POINT('Ctrl Pts',(146.122861410241,109.86017152928,72.1035162724936));
#1128=CARTESIAN_POINT('Ctrl Pts',(147.184671671205,111.102866824805,72.1035162724936));
#1129=CARTESIAN_POINT('',(170.528113255177,141.631973976087,72.1035162724936));
#1130=CARTESIAN_POINT('Origin',(175.578113255177,141.631973976087,72.1035162724936));
#1131=CARTESIAN_POINT('Origin',(18.4370497025956,63.0466774510599,72.1035162724936));
#1132=CARTESIAN_POINT('',(129.197376376673,95.2012187353672,72.1035162724936));
#1133=CARTESIAN_POINT('',(100.813915009394,120.575440126486,72.1035162724936));
#1134=CARTESIAN_POINT('',(120.125475857367,65.146143844514,72.1035162724936));
#1135=CARTESIAN_POINT('Origin',(18.4370497025956,63.0466774510599,72.1035162724936));
#1136=CARTESIAN_POINT('',(142.876422987255,101.876668663627,72.1035162724936));
#1137=CARTESIAN_POINT('',(147.294836740699,97.9266990906174,72.1035162724936));
#1138=CARTESIAN_POINT('',(113.348639889619,128.273889771131,72.1035162724936));
#1139=CARTESIAN_POINT('',(148.809038510041,101.612363338362,72.1035162724936));
#1140=CARTESIAN_POINT('Ctrl Pts',(148.809038510041,101.612363338362,72.1035162724936));
#1141=CARTESIAN_POINT('Ctrl Pts',(146.892957534727,102.071195845947,72.1035162724936));
#1142=CARTESIAN_POINT('Ctrl Pts',(144.888687163265,102.126900973264,72.1035162724936));
#1143=CARTESIAN_POINT('Ctrl Pts',(142.876422987255,101.876668663627,72.1035162724936));
#1144=CARTESIAN_POINT('',(148.965489643578,98.9480242951263,72.1035162724936));
#1145=CARTESIAN_POINT('Ctrl Pts',(148.965489643578,98.9480242951263,72.1035162724936));
#1146=CARTESIAN_POINT('Ctrl Pts',(149.325460476594,99.7601527760375,72.1035162724936));
#1147=CARTESIAN_POINT('Ctrl Pts',(149.319073875146,100.830602117239,72.1035162724936));
#1148=CARTESIAN_POINT('Ctrl Pts',(148.809038510041,101.612363338362,72.1035162724936));
#1149=CARTESIAN_POINT('',(155.771484700708,96.9701246208934,72.1035162724936));
#1150=CARTESIAN_POINT('Ctrl Pts',(155.771484700708,96.9701246208934,72.1035162724936));
#1151=CARTESIAN_POINT('Ctrl Pts',(153.149853408396,98.681783034247,72.1035162724936));
#1152=CARTESIAN_POINT('Ctrl Pts',(150.351571415566,99.0122570297574,72.1035162724936));
#1153=CARTESIAN_POINT('Ctrl Pts',(148.965489643578,98.9480242951263,72.1035162724936));
#1154=CARTESIAN_POINT('',(107.266104729401,42.7122793337598,72.1035162724936));
#1155=CARTESIAN_POINT('',(86.5522838649634,71.8874490149492,72.1035162724936));
#1156=CARTESIAN_POINT('Origin',(18.4370497025956,63.0466774510599,72.1035162724936));
#1157=CARTESIAN_POINT('',(139.690858771846,85.5063284321236,72.1035162724936));
#1158=CARTESIAN_POINT('',(142.932430625648,82.6084309273315,72.1035162724936));
#1159=CARTESIAN_POINT('',(108.111104132631,113.737969221939,72.1035162724936));
#1160=CARTESIAN_POINT('',(143.345550816456,83.070544849769,72.1035162724936));
#1161=CARTESIAN_POINT('Ctrl Pts',(139.690858771846,85.5063284321236,72.1035162724936));
#1162=CARTESIAN_POINT('Ctrl Pts',(141.17343787136,84.965507915471,72.1035162724936));
#1163=CARTESIAN_POINT('Ctrl Pts',(142.437066549517,84.1637153880206,72.1035162724936));
#1164=CARTESIAN_POINT('Ctrl Pts',(143.345550816456,83.070544849769,72.1035162724936));
#1165=CARTESIAN_POINT('',(107.266104729401,42.7122793337598,72.1035162724936));
#1166=CARTESIAN_POINT('Ctrl Pts',(121.041743569093,82.2529261940826,72.1035162724936));
#1167=CARTESIAN_POINT('Ctrl Pts',(121.041743569093,82.2529261940826,69.7035162724936));
#1168=CARTESIAN_POINT('Ctrl Pts',(126.82240506607,86.8948063973815,72.1035162724936));
#1169=CARTESIAN_POINT('Ctrl Pts',(126.82240506607,86.8948063973815,69.7035162724936));
#1170=CARTESIAN_POINT('Ctrl Pts',(139.051356216045,88.2377086560305,72.1035162724936));
#1171=CARTESIAN_POINT('Ctrl Pts',(139.051356216045,88.2377086560305,69.7035162724936));
#1172=CARTESIAN_POINT('Ctrl Pts',(143.345550816456,83.070544849769,72.1035162724936));
#1173=CARTESIAN_POINT('Ctrl Pts',(143.345550816456,83.070544849769,69.7035162724936));
#1174=CARTESIAN_POINT('',(139.690858771846,85.5063284321236,70.1035162724936));
#1175=CARTESIAN_POINT('',(139.690858771846,85.5063284321236,70.1035162724936));
#1176=CARTESIAN_POINT('',(143.345550816456,83.070544849769,70.1035162724936));
#1177=CARTESIAN_POINT('Ctrl Pts',(143.345550816456,83.070544849769,70.1035162724936));
#1178=CARTESIAN_POINT('Ctrl Pts',(142.437066549517,84.1637153880206,70.1035162724936));
#1179=CARTESIAN_POINT('Ctrl Pts',(141.17343787136,84.965507915471,70.1035162724936));
#1180=CARTESIAN_POINT('Ctrl Pts',(139.690858771846,85.5063284321236,70.1035162724936));
#1181=CARTESIAN_POINT('',(143.345550816456,83.070544849769,72.1035162724936));
#1182=CARTESIAN_POINT('Ctrl Pts',(148.965489643578,98.9480242951263,72.1035162724936));
#1183=CARTESIAN_POINT('Ctrl Pts',(148.965489643578,98.9480242951263,69.7035162724936));
#1184=CARTESIAN_POINT('Ctrl Pts',(150.351571415566,99.0122570297575,72.1035162724936));
#1185=CARTESIAN_POINT('Ctrl Pts',(150.351571415566,99.0122570297575,69.7035162724936));
#1186=CARTESIAN_POINT('Ctrl Pts',(153.149853408396,98.6817830342471,72.1035162724936));
#1187=CARTESIAN_POINT('Ctrl Pts',(153.149853408396,98.6817830342471,69.7035162724936));
#1188=CARTESIAN_POINT('Ctrl Pts',(155.771484700708,96.9701246208934,72.1035162724936));
#1189=CARTESIAN_POINT('Ctrl Pts',(155.771484700708,96.9701246208934,69.7035162724936));
#1190=CARTESIAN_POINT('',(148.965489643578,98.9480242951263,70.1035162724936));
#1191=CARTESIAN_POINT('',(148.965489643578,98.9480242951263,72.1035162724936));
#1192=CARTESIAN_POINT('',(155.771484700708,96.9701246208934,70.1035162724936));
#1193=CARTESIAN_POINT('Ctrl Pts',(155.771484700708,96.9701246208934,70.1035162724936));
#1194=CARTESIAN_POINT('Ctrl Pts',(153.149853408396,98.681783034247,70.1035162724936));
#1195=CARTESIAN_POINT('Ctrl Pts',(150.351571415566,99.0122570297574,70.1035162724936));
#1196=CARTESIAN_POINT('Ctrl Pts',(148.965489643578,98.9480242951263,70.1035162724936));
#1197=CARTESIAN_POINT('',(155.771484700708,96.9701246208934,72.1035162724936));
#1198=CARTESIAN_POINT('Ctrl Pts',(148.809038510041,101.612363338362,72.1035162724936));
#1199=CARTESIAN_POINT('Ctrl Pts',(148.809038510041,101.612363338362,69.7035162724936));
#1200=CARTESIAN_POINT('Ctrl Pts',(149.319073875146,100.830602117239,72.1035162724936));
#1201=CARTESIAN_POINT('Ctrl Pts',(149.319073875146,100.830602117239,69.7035162724936));
#1202=CARTESIAN_POINT('Ctrl Pts',(149.325460476594,99.7601527760375,72.1035162724936));
#1203=CARTESIAN_POINT('Ctrl Pts',(149.325460476594,99.7601527760375,69.7035162724936));
#1204=CARTESIAN_POINT('Ctrl Pts',(148.965489643578,98.9480242951263,72.1035162724936));
#1205=CARTESIAN_POINT('Ctrl Pts',(148.965489643578,98.9480242951263,69.7035162724936));
#1206=CARTESIAN_POINT('',(148.809038510041,101.612363338362,70.1035162724936));
#1207=CARTESIAN_POINT('',(148.809038510041,101.612363338362,72.1035162724936));
#1208=CARTESIAN_POINT('Ctrl Pts',(148.965489643578,98.9480242951263,70.1035162724936));
#1209=CARTESIAN_POINT('Ctrl Pts',(149.325460476594,99.7601527760375,70.1035162724936));
#1210=CARTESIAN_POINT('Ctrl Pts',(149.319073875146,100.830602117239,70.1035162724936));
#1211=CARTESIAN_POINT('Ctrl Pts',(148.809038510041,101.612363338362,70.1035162724936));
#1212=CARTESIAN_POINT('Ctrl Pts',(124.83938160563,92.1143332764495,72.1035162724936));
#1213=CARTESIAN_POINT('Ctrl Pts',(124.83938160563,92.1143332764495,69.7035162724936));
#1214=CARTESIAN_POINT('Ctrl Pts',(129.703046433549,97.5342367539275,72.1035162724936));
#1215=CARTESIAN_POINT('Ctrl Pts',(129.703046433549,97.5342367539275,69.7035162724936));
#1216=CARTESIAN_POINT('Ctrl Pts',(140.155440771203,103.684588886915,72.1035162724936));
#1217=CARTESIAN_POINT('Ctrl Pts',(140.155440771203,103.684588886915,69.7035162724936));
#1218=CARTESIAN_POINT('Ctrl Pts',(148.809038510041,101.612363338362,72.1035162724936));
#1219=CARTESIAN_POINT('Ctrl Pts',(148.809038510041,101.612363338362,69.7035162724936));
#1220=CARTESIAN_POINT('',(142.876422987255,101.876668663627,70.1035162724936));
#1221=CARTESIAN_POINT('',(142.876422987255,101.876668663627,70.1035162724936));
#1222=CARTESIAN_POINT('Ctrl Pts',(148.809038510041,101.612363338362,70.1035162724936));
#1223=CARTESIAN_POINT('Ctrl Pts',(146.892957534727,102.071195845947,70.1035162724936));
#1224=CARTESIAN_POINT('Ctrl Pts',(144.888687163265,102.126900973264,70.1035162724936));
#1225=CARTESIAN_POINT('Ctrl Pts',(142.876422987255,101.876668663627,70.1035162724936));
#1226=CARTESIAN_POINT('Ctrl Pts',(147.184671671205,111.102866824805,72.1035162724936));
#1227=CARTESIAN_POINT('Ctrl Pts',(147.184671671205,111.102866824805,69.7035162724936));
#1228=CARTESIAN_POINT('Ctrl Pts',(146.122861410241,109.86017152928,72.1035162724936));
#1229=CARTESIAN_POINT('Ctrl Pts',(146.122861410241,109.86017152928,69.7035162724936));
#1230=CARTESIAN_POINT('Ctrl Pts',(143.896464676194,109.991831661497,72.1035162724936));
#1231=CARTESIAN_POINT('Ctrl Pts',(143.896464676194,109.991831661497,69.7035162724936));
#1232=CARTESIAN_POINT('Ctrl Pts',(142.958334729295,112.302449126898,72.1035162724936));
#1233=CARTESIAN_POINT('Ctrl Pts',(142.958334729295,112.302449126898,69.7035162724936));
#1234=CARTESIAN_POINT('',(147.184671671205,111.102866824805,70.1035162724936));
#1235=CARTESIAN_POINT('',(147.184671671205,111.102866824805,72.1035162724936));
#1236=CARTESIAN_POINT('Ctrl Pts',(142.958334729295,112.302449126898,70.1035162724936));
#1237=CARTESIAN_POINT('Ctrl Pts',(143.896464676194,109.991831661497,70.1035162724936));
#1238=CARTESIAN_POINT('Ctrl Pts',(146.122861410241,109.86017152928,70.1035162724936));
#1239=CARTESIAN_POINT('Ctrl Pts',(147.184671671205,111.102866824805,70.1035162724936));
#1240=CARTESIAN_POINT('Ctrl Pts',(171.38096175651,114.430797882452,72.1035162724936));
#1241=CARTESIAN_POINT('Ctrl Pts',(171.38096175651,114.430797882452,69.7035162724936));
#1242=CARTESIAN_POINT('Ctrl Pts',(163.433962439111,117.103206743791,72.1035162724936));
#1243=CARTESIAN_POINT('Ctrl Pts',(163.433962439111,117.103206743791,69.7035162724936));
#1244=CARTESIAN_POINT('Ctrl Pts',(154.27435337002,116.683875025418,72.1035162724936));
#1245=CARTESIAN_POINT('Ctrl Pts',(154.27435337002,116.683875025418,69.7035162724936));
#1246=CARTESIAN_POINT('Ctrl Pts',(147.184671671205,111.102866824805,72.1035162724936));
#1247=CARTESIAN_POINT('Ctrl Pts',(147.184671671205,111.102866824805,69.7035162724936));
#1248=CARTESIAN_POINT('',(171.38096175651,114.430797882452,70.1035162724936));
#1249=CARTESIAN_POINT('',(171.38096175651,114.430797882452,72.1035162724936));
#1250=CARTESIAN_POINT('Ctrl Pts',(147.184671671205,111.102866824805,70.1035162724936));
#1251=CARTESIAN_POINT('Ctrl Pts',(154.27435337002,116.683875025418,70.1035162724936));
#1252=CARTESIAN_POINT('Ctrl Pts',(163.433962439111,117.103206743791,70.1035162724936));
#1253=CARTESIAN_POINT('Ctrl Pts',(171.38096175651,114.430797882452,70.1035162724936));
#1254=CARTESIAN_POINT('Ctrl Pts',(170.492731604104,130.055868893706,72.1035162724936));
#1255=CARTESIAN_POINT('Ctrl Pts',(170.492731604104,130.055868893706,69.7035162724936));
#1256=CARTESIAN_POINT('Ctrl Pts',(174.86781894003,129.21120433905,72.1035162724936));
#1257=CARTESIAN_POINT('Ctrl Pts',(174.86781894003,129.21120433905,69.7035162724936));
#1258=CARTESIAN_POINT('Ctrl Pts',(178.848786463999,128.107837087221,72.1035162724936));
#1259=CARTESIAN_POINT('Ctrl Pts',(178.848786463999,128.107837087221,69.7035162724936));
#1260=CARTESIAN_POINT('Ctrl Pts',(182.445463236751,126.807487021996,72.1035162724936));
#1261=CARTESIAN_POINT('Ctrl Pts',(182.445463236751,126.807487021996,69.7035162724936));
#1262=CARTESIAN_POINT('',(170.492731604104,130.055868893706,70.1035162724936));
#1263=CARTESIAN_POINT('',(170.492731604104,130.055868893706,72.1035162724936));
#1264=CARTESIAN_POINT('',(182.445463236837,126.807487021965,70.1035162724936));
#1265=CARTESIAN_POINT('Origin',(108.583705576764,60.1285321296611,70.1035162724936));
#1266=CARTESIAN_POINT('',(182.445463236751,126.807487021996,72.1035162724936));
#1267=CARTESIAN_POINT('Ctrl Pts',(189.638077138594,136.405367467365,72.1035162724936));
#1268=CARTESIAN_POINT('Ctrl Pts',(189.638077138594,136.405367467365,69.7035162724936));
#1269=CARTESIAN_POINT('Ctrl Pts',(184.391440428289,133.731874360982,72.1035162724936));
#1270=CARTESIAN_POINT('Ctrl Pts',(184.391440428289,133.731874360982,69.7035162724936));
#1271=CARTESIAN_POINT('Ctrl Pts',(178.026387046897,131.510333966268,72.1035162724936));
#1272=CARTESIAN_POINT('Ctrl Pts',(178.026387046897,131.510333966268,69.7035162724936));
#1273=CARTESIAN_POINT('Ctrl Pts',(170.492731604104,130.055868893706,72.1035162724936));
#1274=CARTESIAN_POINT('Ctrl Pts',(170.492731604104,130.055868893706,69.7035162724936));
#1275=CARTESIAN_POINT('',(189.638077138594,136.405367467365,70.1035162724936));
#1276=CARTESIAN_POINT('',(189.638077138594,136.405367467365,72.1035162724936));
#1277=CARTESIAN_POINT('Ctrl Pts',(170.492731604104,130.055868893706,70.1035162724936));
#1278=CARTESIAN_POINT('Ctrl Pts',(178.026387046897,131.510333966268,70.1035162724936));
#1279=CARTESIAN_POINT('Ctrl Pts',(184.391440428289,133.731874360982,70.1035162724936));
#1280=CARTESIAN_POINT('Ctrl Pts',(189.638077138594,136.405367467365,70.1035162724936));
#1281=CARTESIAN_POINT('Ctrl Pts',(157.922228393778,144.388466478334,72.1035162724936));
#1282=CARTESIAN_POINT('Ctrl Pts',(157.922228393778,144.388466478334,69.7035162724936));
#1283=CARTESIAN_POINT('Ctrl Pts',(167.660474942217,142.881500643059,72.1035162724936));
#1284=CARTESIAN_POINT('Ctrl Pts',(167.660474942217,142.881500643059,69.7035162724936));
#1285=CARTESIAN_POINT('Ctrl Pts',(178.177395061589,147.177332473211,72.1035162724936));
#1286=CARTESIAN_POINT('Ctrl Pts',(178.177395061589,147.177332473211,69.7035162724936));
#1287=CARTESIAN_POINT('Ctrl Pts',(184.166639119014,153.929828402214,72.1035162724936));
#1288=CARTESIAN_POINT('Ctrl Pts',(184.166639119014,153.929828402214,69.7035162724936));
#1289=CARTESIAN_POINT('',(157.922228393776,144.388466478334,70.1035162724936));
#1290=CARTESIAN_POINT('',(157.922228393778,144.388466478334,72.1035162724936));
#1291=CARTESIAN_POINT('',(184.166639119015,153.929828402214,70.1035162724936));
#1292=CARTESIAN_POINT('Ctrl Pts',(184.166639119014,153.929828402214,70.1035162724936));
#1293=CARTESIAN_POINT('Ctrl Pts',(178.177395061589,147.177332473211,70.1035162724936));
#1294=CARTESIAN_POINT('Ctrl Pts',(167.660474942217,142.881500643059,70.1035162724936));
#1295=CARTESIAN_POINT('Ctrl Pts',(157.922228393778,144.388466478334,70.1035162724936));
#1296=CARTESIAN_POINT('',(184.166639119014,153.929828402214,72.1035162724936));
#1297=CARTESIAN_POINT('Ctrl Pts',(161.943929067521,130.055855159079,72.1035162724936));
#1298=CARTESIAN_POINT('Ctrl Pts',(161.943929067521,130.055855159079,69.7035162724936));
#1299=CARTESIAN_POINT('Ctrl Pts',(157.372791434563,130.965415123168,72.1035162724936));
#1300=CARTESIAN_POINT('Ctrl Pts',(157.372791434563,130.965415123168,69.7035162724936));
#1301=CARTESIAN_POINT('Ctrl Pts',(152.96880164022,132.430329521732,72.1035162724936));
#1302=CARTESIAN_POINT('Ctrl Pts',(152.96880164022,132.430329521732,69.7035162724936));
#1303=CARTESIAN_POINT('Ctrl Pts',(148.875483281739,134.268828266421,72.1035162724936));
#1304=CARTESIAN_POINT('Ctrl Pts',(148.875483281739,134.268828266421,69.7035162724936));
#1305=CARTESIAN_POINT('',(161.943929067521,130.055855159079,70.1035162724936));
#1306=CARTESIAN_POINT('',(161.943929067521,130.055855159079,72.1035162724936));
#1307=CARTESIAN_POINT('',(148.875483281739,134.268828266421,70.1035162724936));
#1308=CARTESIAN_POINT('Ctrl Pts',(148.875483281739,134.268828266421,70.1035162724936));
#1309=CARTESIAN_POINT('Ctrl Pts',(152.96880164022,132.430329521732,70.1035162724936));
#1310=CARTESIAN_POINT('Ctrl Pts',(157.372791434563,130.965415123168,70.1035162724936));
#1311=CARTESIAN_POINT('Ctrl Pts',(161.943929067521,130.055855159079,70.1035162724936));
#1312=CARTESIAN_POINT('',(148.875483281739,134.268828266421,72.1035162724936));
#1313=CARTESIAN_POINT('Ctrl Pts',(138.69196135035,120.109774102675,72.1035162724936));
#1314=CARTESIAN_POINT('Ctrl Pts',(138.69196135035,120.109774102675,69.7035162724936));
#1315=CARTESIAN_POINT('Ctrl Pts',(145.184374363046,124.598112784849,72.1035162724936));
#1316=CARTESIAN_POINT('Ctrl Pts',(145.184374363046,124.598112784849,69.7035162724936));
#1317=CARTESIAN_POINT('Ctrl Pts',(153.262724728875,128.328492354094,72.1035162724936));
#1318=CARTESIAN_POINT('Ctrl Pts',(153.262724728875,128.328492354094,69.7035162724936));
#1319=CARTESIAN_POINT('Ctrl Pts',(161.943929067521,130.055855159079,72.1035162724936));
#1320=CARTESIAN_POINT('Ctrl Pts',(161.943929067521,130.055855159079,69.7035162724936));
#1321=CARTESIAN_POINT('',(138.69196135035,120.109774102675,70.1035162724936));
#1322=CARTESIAN_POINT('',(138.69196135035,120.109774102675,72.1035162724936));
#1323=CARTESIAN_POINT('Ctrl Pts',(161.943929067521,130.055855159079,70.1035162724936));
#1324=CARTESIAN_POINT('Ctrl Pts',(153.262724728875,128.328492354094,70.1035162724936));
#1325=CARTESIAN_POINT('Ctrl Pts',(145.184374363046,124.598112784849,70.1035162724936));
#1326=CARTESIAN_POINT('Ctrl Pts',(138.69196135035,120.109774102675,70.1035162724936));
#1327=CARTESIAN_POINT('Ctrl Pts',(137.849478740025,121.935201585968,72.1035162724936));
#1328=CARTESIAN_POINT('Ctrl Pts',(137.849478740025,121.935201585968,69.7035162724936));
#1329=CARTESIAN_POINT('Ctrl Pts',(138.136697934106,121.375766380508,72.1035162724936));
#1330=CARTESIAN_POINT('Ctrl Pts',(138.136697934106,121.375766380508,69.7035162724936));
#1331=CARTESIAN_POINT('Ctrl Pts',(138.407029305469,120.780590149559,72.1035162724936));
#1332=CARTESIAN_POINT('Ctrl Pts',(138.407029305469,120.780590149559,69.7035162724936));
#1333=CARTESIAN_POINT('Ctrl Pts',(138.69196135035,120.109774102675,72.1035162724936));
#1334=CARTESIAN_POINT('Ctrl Pts',(138.69196135035,120.109774102675,69.7035162724936));
#1335=CARTESIAN_POINT('',(137.849478740025,121.935201585968,70.1035162724936));
#1336=CARTESIAN_POINT('',(137.849478740025,121.935201585968,72.1035162724936));
#1337=CARTESIAN_POINT('Ctrl Pts',(138.69196135035,120.109774102675,70.1035162724936));
#1338=CARTESIAN_POINT('Ctrl Pts',(138.407029305469,120.780590149559,70.1035162724936));
#1339=CARTESIAN_POINT('Ctrl Pts',(138.136697934106,121.375766380508,70.1035162724936));
#1340=CARTESIAN_POINT('Ctrl Pts',(137.849478740025,121.935201585968,70.1035162724936));
#1341=CARTESIAN_POINT('Origin',(132.764912659889,91.6979795388611,78.1035162724936));
#1342=CARTESIAN_POINT('',(142.932430625648,82.6084309273315,78.1035162724936));
#1343=CARTESIAN_POINT('',(142.932430625648,82.6084309273315,74.1035162724936));
#1344=CARTESIAN_POINT('',(132.764912659889,91.6979795388611,78.1035162724936));
#1345=CARTESIAN_POINT('',(121.4141648256,101.845310929318,78.1035162724936));
#1346=CARTESIAN_POINT('',(132.764912659889,91.6979795388611,70.1035162724936));
#1347=CARTESIAN_POINT('',(132.764912659889,91.6979795388611,78.1035162724936));
#1348=CARTESIAN_POINT('',(121.4141648256,101.845310929318,70.1035162724936));
#1349=CARTESIAN_POINT('Origin',(147.294836740699,97.9266990906174,78.1035162724936));
#1350=CARTESIAN_POINT('',(106.540451161164,80.4560201753486,70.1035162724936));
#1351=CARTESIAN_POINT('',(147.294836740699,97.9266990906174,78.1035162724936));
#1352=CARTESIAN_POINT('',(106.540451161164,80.4560201753486,78.1035162724936));
#1353=CARTESIAN_POINT('',(147.294836740699,97.9266990906174,78.1035162724936));
#1354=CARTESIAN_POINT('Origin',(136.620024735932,75.5474091941458,70.1035162724936));
#1355=CARTESIAN_POINT('',(136.620024735932,75.5474091941458,70.1035162724936));
#1356=CARTESIAN_POINT('',(136.620024735932,75.5474091941458,70.1035162724936));
#1357=CARTESIAN_POINT('',(186.760942716852,131.6347581021,70.1035162724936));
#1358=CARTESIAN_POINT('',(136.620024735932,75.5474091941458,70.1035162724936));
#1359=CARTESIAN_POINT('',(186.760942716852,131.6347581021,78.1035162724936));
#1360=CARTESIAN_POINT('',(186.760942716852,131.6347581021,70.1035162724936));
#1361=CARTESIAN_POINT('',(136.620024735932,75.5474091941458,78.1035162724936));
#1362=CARTESIAN_POINT('Origin',(175.578113255177,141.631973976087,70.1035162724936));
#1363=CARTESIAN_POINT('',(164.395284004178,151.629190085735,70.1035162724936));
#1364=CARTESIAN_POINT('Origin',(175.578113255177,141.631973976087,70.1035162724936));
#1365=CARTESIAN_POINT('',(164.395284004178,151.629190085735,78.1035162724936));
#1366=CARTESIAN_POINT('',(164.395284004178,151.629190085735,70.1035162724936));
#1367=CARTESIAN_POINT('Origin',(175.578113255177,141.631973976087,78.1035162724936));
#1368=CARTESIAN_POINT('Origin',(175.578113255177,141.631973976087,70.1035162724936));
#1369=CARTESIAN_POINT('Origin',(133.690932549203,110.08830518481,78.1035162724936));
#1370=CARTESIAN_POINT('',(133.690932549203,110.08830518481,78.1035162724936));
#1371=CARTESIAN_POINT('',(126.651700582587,116.381231478509,78.1035162724936));
#1372=CARTESIAN_POINT('',(133.690932549203,110.08830518481,78.1035162724936));
#1373=CARTESIAN_POINT('',(126.651700582587,116.381231478509,70.1035162724936));
#1374=CARTESIAN_POINT('Origin',(129.197376376673,95.2012187353672,78.1035162724936));
#1375=CARTESIAN_POINT('',(122.051429122497,71.5267990883166,70.1035162724936));
#1376=CARTESIAN_POINT('',(129.197376376673,95.2012187353672,78.1035162724936));
#1377=CARTESIAN_POINT('',(122.051429122497,71.5267990883166,78.1035162724936));
#1378=CARTESIAN_POINT('',(129.197376376673,95.2012187353672,78.1035162724936));
#1379=CARTESIAN_POINT('Origin',(65.9370497025956,62.6331359959283,70.1035162724936));
#1380=CARTESIAN_POINT('',(131.071230880212,114.353091644492,70.1035162724936));
#1381=CARTESIAN_POINT('Origin',(65.9370497025956,62.6331359959283,70.1035162724936));
#1382=CARTESIAN_POINT('',(131.071230880212,114.353091644492,70.1035162724936));
#1383=CARTESIAN_POINT('Origin',(65.9370497025956,62.6331359959283,70.1035162724936));
#1384=CARTESIAN_POINT('Origin',(65.9370497025956,62.6331359959283,70.1035162724936));
#1385=CARTESIAN_POINT('',(114.116975702362,108.682781833865,70.1035162724936));
#1386=CARTESIAN_POINT('Origin',(65.9370497025956,62.6331359959283,70.1035162724936));
#1387=CARTESIAN_POINT('Origin',(65.9370497025956,62.6331359959283,70.1035162724936));
#1388=CARTESIAN_POINT('Origin',(164.395283793503,151.629189850075,70.1035162724936));
#1389=CARTESIAN_POINT('',(131.071230880212,114.353091644492,78.1035162724936));
#1390=CARTESIAN_POINT('',(131.071230880212,114.353091644492,70.1035162724936));
#1391=CARTESIAN_POINT('',(131.071230880212,114.353091644492,78.1035162724936));
#1392=CARTESIAN_POINT('Origin',(175.578113255177,141.631973976087,70.1035162724936));
#1393=CARTESIAN_POINT('',(170.528113255177,141.631973976087,70.1035162724936));
#1394=CARTESIAN_POINT('Origin',(104.977962136305,137.679928683795,70.1035162724936));
#1395=CARTESIAN_POINT('',(118.014546914998,105.198434609354,78.1035162724936));
#1396=CARTESIAN_POINT('',(118.014546914998,105.198434609354,70.1035162724936));
#1397=CARTESIAN_POINT('Origin',(104.977962136305,137.679928683795,78.1035162724936));
#1398=CARTESIAN_POINT('Origin',(65.9370497025956,62.6331359959283,78.1035162724936));
#1399=CARTESIAN_POINT('',(114.116975702362,108.682781833865,78.1035162724936));
#1400=CARTESIAN_POINT('Origin',(118.014546914998,105.198434609354,78.1035162724936));
#1401=UNCERTAINTY_MEASURE_WITH_UNIT(LENGTH_MEASURE(0.01),#1405,
'DISTANCE_ACCURACY_VALUE',
'Maximum model space distance between geometric entities at asserted c
onnectivities');
#1402=UNCERTAINTY_MEASURE_WITH_UNIT(LENGTH_MEASURE(0.01),#1405,
'DISTANCE_ACCURACY_VALUE',
'Maximum model space distance between geometric entities at asserted c
onnectivities');
#1403=(
GEOMETRIC_REPRESENTATION_CONTEXT(3)
GLOBAL_UNCERTAINTY_ASSIGNED_CONTEXT((#1401))
GLOBAL_UNIT_ASSIGNED_CONTEXT((#1405,#1407,#1408))
REPRESENTATION_CONTEXT('','3D')
);
#1404=(
GEOMETRIC_REPRESENTATION_CONTEXT(3)
GLOBAL_UNCERTAINTY_ASSIGNED_CONTEXT((#1402))
GLOBAL_UNIT_ASSIGNED_CONTEXT((#1405,#1407,#1408))
REPRESENTATION_CONTEXT('','3D')
);
#1405=(
LENGTH_UNIT()
NAMED_UNIT(*)
SI_UNIT(.MILLI.,.METRE.)
);
#1406=(
LENGTH_UNIT()
NAMED_UNIT(*)
SI_UNIT($,.METRE.)
);
#1407=(
NAMED_UNIT(*)
PLANE_ANGLE_UNIT()
SI_UNIT($,.RADIAN.)
);
#1408=(
NAMED_UNIT(*)
SI_UNIT($,.STERADIAN.)
SOLID_ANGLE_UNIT()
);
#1409=SHAPE_DEFINITION_REPRESENTATION(#1410,#1411);
#1410=PRODUCT_DEFINITION_SHAPE('',$,#1413);
#1411=SHAPE_REPRESENTATION('',(#785),#1403);
#1412=PRODUCT_DEFINITION_CONTEXT('part definition',#1417,'design');
#1413=PRODUCT_DEFINITION('FusionComponent','orumcekkolu v2',#1414,#1412);
#1414=PRODUCT_DEFINITION_FORMATION('',$,#1419);
#1415=PRODUCT_RELATED_PRODUCT_CATEGORY('orumcekkolu v2',
'orumcekkolu v2',(#1419));
#1416=APPLICATION_PROTOCOL_DEFINITION('international standard',
'automotive_design',2009,#1417);
#1417=APPLICATION_CONTEXT(
'Core Data for Automotive Mechanical Design Process');
#1418=PRODUCT_CONTEXT('part definition',#1417,'mechanical');
#1419=PRODUCT('FusionComponent','orumcekkolu v2',$,(#1418));
#1420=PRESENTATION_STYLE_ASSIGNMENT((#1422));
#1421=PRESENTATION_STYLE_ASSIGNMENT((#1423));
#1422=SURFACE_STYLE_USAGE(.BOTH.,#1424);
#1423=SURFACE_STYLE_USAGE(.BOTH.,#1425);
#1424=SURFACE_SIDE_STYLE('',(#1426));
#1425=SURFACE_SIDE_STYLE('',(#1427));
#1426=SURFACE_STYLE_FILL_AREA(#1428);
#1427=SURFACE_STYLE_FILL_AREA(#1429);
#1428=FILL_AREA_STYLE('Steel - Satin',(#1430));
#1429=FILL_AREA_STYLE('Opaque(243,203,124)',(#1431));
#1430=FILL_AREA_STYLE_COLOUR('Steel - Satin',#1432);
#1431=FILL_AREA_STYLE_COLOUR('Opaque(243,203,124)',#1433);
#1432=COLOUR_RGB('Steel - Satin',0.627450980392157,0.627450980392157,0.627450980392157);
#1433=COLOUR_RGB('Opaque(243,203,124)',0.952941176470588,0.796078431372549,
0.486274509803922);
ENDSEC;
END-ISO-10303-21;
