ISO-10303-21;
HEADER;
/* Generated by software containing ST-Developer
 * from STEP Tools, Inc. (www.steptools.com) 
 */

FILE_DESCRIPTION(
/* description */ (''),
/* implementation_level */ '2;1');

FILE_NAME(
/* name */ 'ustorumcekbacak4.step',
/* time_stamp */ '2026-08-19T14:49:46+03:00',
/* author */ (''),
/* organization */ (''),
/* preprocessor_version */ 'ST-DEVELOPER v20.1',
/* originating_system */ 'Autodesk Translation Framework v15.8.0.0',
/* authorisation */ '');

FILE_SCHEMA (('AUTOMOTIVE_DESIGN { 1 0 10303 214 3 1 1 }'));
ENDSEC;

DATA;
#10=MECHANICAL_DESIGN_GEOMETRIC_PRESENTATION_REPRESENTATION('',(#13),#1142);
#11=SHAPE_REPRESENTATION_RELATIONSHIP('SRR','None',#1149,#12);
#12=ADVANCED_BREP_SHAPE_REPRESENTATION('',(#14),#1141);
#13=STYLED_ITEM('',(#1159),#14);
#14=MANIFOLD_SOLID_BREP('Body7',#626);
#15=B_SPLINE_SURFACE_WITH_KNOTS('',3,1,((#840,#841),(#842,#843),(#844,#845),
(#846,#847)),.UNSPECIFIED.,.F.,.F.,.F.,(4,4),(2,2),(0.,0.831584338597338),
(0.,0.24),.UNSPECIFIED.);
#16=B_SPLINE_SURFACE_WITH_KNOTS('',3,1,((#911,#912),(#913,#914),(#915,#916),
(#917,#918)),.UNSPECIFIED.,.F.,.F.,.F.,(4,4),(2,2),(0.738999820685638,1.),
(0.,0.24),.UNSPECIFIED.);
#17=B_SPLINE_SURFACE_WITH_KNOTS('',3,1,((#1015,#1016),(#1017,#1018),(#1019,
#1020),(#1021,#1022)),.UNSPECIFIED.,.F.,.F.,.F.,(4,4),(2,2),(-1.,0.),(0.,
0.24),.UNSPECIFIED.);
#18=B_SPLINE_SURFACE_WITH_KNOTS('',3,1,((#1079,#1080),(#1081,#1082),(#1083,
#1084),(#1085,#1086)),.UNSPECIFIED.,.F.,.F.,.F.,(4,4),(2,2),(0.,0.204163544787647),
(0.,0.24),.UNSPECIFIED.);
#19=B_SPLINE_SURFACE_WITH_KNOTS('',3,1,((#1087,#1088),(#1089,#1090),(#1091,
#1092),(#1093,#1094)),.UNSPECIFIED.,.F.,.F.,.F.,(4,4),(2,2),(-0.927004745843444,
0.),(0.,0.24),.UNSPECIFIED.);
#20=B_SPLINE_SURFACE_WITH_KNOTS('',3,1,((#1096,#1097),(#1098,#1099),(#1100,
#1101),(#1102,#1103)),.UNSPECIFIED.,.F.,.F.,.F.,(4,4),(2,2),(-1.,0.),(0.,
0.24),.UNSPECIFIED.);
#21=B_SPLINE_SURFACE_WITH_KNOTS('',3,1,((#1105,#1106),(#1107,#1108),(#1109,
#1110),(#1111,#1112)),.UNSPECIFIED.,.F.,.F.,.F.,(4,4),(2,2),(-1.,0.),(0.,
0.24),.UNSPECIFIED.);
#22=B_SPLINE_SURFACE_WITH_KNOTS('',3,1,((#1114,#1115),(#1116,#1117),(#1118,
#1119),(#1120,#1121)),.UNSPECIFIED.,.F.,.F.,.F.,(4,4),(2,2),(-1.,0.),(0.,
0.24),.UNSPECIFIED.);
#23=B_SPLINE_SURFACE_WITH_KNOTS('',3,1,((#1122,#1123),(#1124,#1125),(#1126,
#1127),(#1128,#1129)),.UNSPECIFIED.,.F.,.F.,.F.,(4,4),(2,2),(-1.,0.),(0.,
0.24),.UNSPECIFIED.);
#24=B_SPLINE_SURFACE_WITH_KNOTS('',3,1,((#1131,#1132),(#1133,#1134),(#1135,
#1136),(#1137,#1138)),.UNSPECIFIED.,.F.,.F.,.F.,(4,4),(2,2),(-1.,-0.128178441317897),
(0.,0.24),.UNSPECIFIED.);
#25=B_SPLINE_CURVE_WITH_KNOTS('',3,(#812,#813,#814,#815,#816,#817),
 .UNSPECIFIED.,.F.,.F.,(4,2,4),(-0.199999999999999,-0.1,0.),
 .UNSPECIFIED.);
#26=B_SPLINE_CURVE_WITH_KNOTS('',3,(#821,#822,#823,#824,#825,#826),
 .UNSPECIFIED.,.F.,.F.,(4,2,4),(-0.2,-0.1,0.),.UNSPECIFIED.);
#27=B_SPLINE_CURVE_WITH_KNOTS('',3,(#830,#831,#832,#833),.UNSPECIFIED.,
 .F.,.F.,(4,4),(0.109876257477892,0.831584338597338),.UNSPECIFIED.);
#28=B_SPLINE_CURVE_WITH_KNOTS('',3,(#836,#837,#838,#839),.UNSPECIFIED.,
 .F.,.F.,(4,4),(0.738999820685638,0.944021016211194),.UNSPECIFIED.);
#29=B_SPLINE_CURVE_WITH_KNOTS('',3,(#849,#850,#851,#852),.UNSPECIFIED.,
 .F.,.F.,(4,4),(0.109876257477892,0.831584338597338),.UNSPECIFIED.);
#30=B_SPLINE_CURVE_WITH_KNOTS('',3,(#860,#861,#862,#863),.UNSPECIFIED.,
 .F.,.F.,(4,4),(0.738999820685638,0.944021016211194),.UNSPECIFIED.);
#31=B_SPLINE_CURVE_WITH_KNOTS('',3,(#869,#870,#871,#872),.UNSPECIFIED.,
 .F.,.F.,(4,4),(0.0597257525563327,0.204163544787647),.UNSPECIFIED.);
#32=B_SPLINE_CURVE_WITH_KNOTS('',3,(#884,#885,#886,#887),.UNSPECIFIED.,
 .F.,.F.,(4,4),(-1.,-0.165343999097782),.UNSPECIFIED.);
#33=B_SPLINE_CURVE_WITH_KNOTS('',3,(#889,#890,#891,#892),.UNSPECIFIED.,
 .F.,.F.,(4,4),(-1.,0.),.UNSPECIFIED.);
#34=B_SPLINE_CURVE_WITH_KNOTS('',3,(#894,#895,#896,#897),.UNSPECIFIED.,
 .F.,.F.,(4,4),(-1.,0.),.UNSPECIFIED.);
#35=B_SPLINE_CURVE_WITH_KNOTS('',3,(#899,#900,#901,#902),.UNSPECIFIED.,
 .F.,.F.,(4,4),(-1.,0.),.UNSPECIFIED.);
#36=B_SPLINE_CURVE_WITH_KNOTS('',3,(#904,#905,#906,#907),.UNSPECIFIED.,
 .F.,.F.,(4,4),(-0.927004745843444,0.),.UNSPECIFIED.);
#37=B_SPLINE_CURVE_WITH_KNOTS('',3,(#953,#954,#955,#956,#957,#958),
 .UNSPECIFIED.,.F.,.F.,(4,2,4),(-0.2,-0.1,0.),.UNSPECIFIED.);
#38=B_SPLINE_CURVE_WITH_KNOTS('',3,(#979,#980,#981,#982,#983,#984),
 .UNSPECIFIED.,.F.,.F.,(4,2,4),(-0.2,-0.1,0.),.UNSPECIFIED.);
#39=B_SPLINE_CURVE_WITH_KNOTS('',3,(#992,#993,#994,#995,#996,#997),
 .UNSPECIFIED.,.F.,.F.,(4,2,4),(-0.2,-0.1,0.),.UNSPECIFIED.);
#40=B_SPLINE_CURVE_WITH_KNOTS('',3,(#1024,#1025,#1026,#1027),
 .UNSPECIFIED.,.F.,.F.,(4,4),(-1.,-0.165343999097782),.UNSPECIFIED.);
#41=B_SPLINE_CURVE_WITH_KNOTS('',3,(#1031,#1032,#1033,#1034),
 .UNSPECIFIED.,.F.,.F.,(4,4),(-1.,-0.128178441317897),.UNSPECIFIED.);
#42=B_SPLINE_CURVE_WITH_KNOTS('',3,(#1035,#1036,#1037,#1038),
 .UNSPECIFIED.,.F.,.F.,(4,4),(-0.150683555625005,0.),.UNSPECIFIED.);
#43=B_SPLINE_CURVE_WITH_KNOTS('',3,(#1047,#1048,#1049,#1050),
 .UNSPECIFIED.,.F.,.F.,(4,4),(-0.150683555625005,0.),.UNSPECIFIED.);
#44=B_SPLINE_CURVE_WITH_KNOTS('',3,(#1051,#1052,#1053,#1054),
 .UNSPECIFIED.,.F.,.F.,(4,4),(-1.,-0.128178441317897),.UNSPECIFIED.);
#45=B_SPLINE_CURVE_WITH_KNOTS('',3,(#1056,#1057,#1058,#1059),
 .UNSPECIFIED.,.F.,.F.,(4,4),(-0.927004745843444,0.),.UNSPECIFIED.);
#46=B_SPLINE_CURVE_WITH_KNOTS('',3,(#1061,#1062,#1063,#1064),
 .UNSPECIFIED.,.F.,.F.,(4,4),(-1.,0.),.UNSPECIFIED.);
#47=B_SPLINE_CURVE_WITH_KNOTS('',3,(#1066,#1067,#1068,#1069),
 .UNSPECIFIED.,.F.,.F.,(4,4),(-1.,0.),.UNSPECIFIED.);
#48=B_SPLINE_CURVE_WITH_KNOTS('',3,(#1070,#1071,#1072,#1073),
 .UNSPECIFIED.,.F.,.F.,(4,4),(-1.,0.),.UNSPECIFIED.);
#49=B_SPLINE_CURVE_WITH_KNOTS('',3,(#1075,#1076,#1077,#1078),
 .UNSPECIFIED.,.F.,.F.,(4,4),(0.0597257525563327,0.204163544787647),
 .UNSPECIFIED.);
#50=LINE('',#808,#103);
#51=LINE('',#853,#104);
#52=LINE('',#857,#105);
#53=LINE('',#867,#106);
#54=LINE('',#874,#107);
#55=LINE('',#876,#108);
#56=LINE('',#878,#109);
#57=LINE('',#880,#110);
#58=LINE('',#882,#111);
#59=LINE('',#909,#112);
#60=LINE('',#919,#113);
#61=LINE('',#924,#114);
#62=LINE('',#930,#115);
#63=LINE('',#932,#116);
#64=LINE('',#934,#117);
#65=LINE('',#935,#118);
#66=LINE('',#939,#119);
#67=LINE('',#941,#120);
#68=LINE('',#943,#121);
#69=LINE('',#944,#122);
#70=LINE('',#947,#123);
#71=LINE('',#949,#124);
#72=LINE('',#950,#125);
#73=LINE('',#959,#126);
#74=LINE('',#961,#127);
#75=LINE('',#962,#128);
#76=LINE('',#965,#129);
#77=LINE('',#966,#130);
#78=LINE('',#969,#131);
#79=LINE('',#970,#132);
#80=LINE('',#973,#133);
#81=LINE('',#974,#134);
#82=LINE('',#978,#135);
#83=LINE('',#986,#136);
#84=LINE('',#987,#137);
#85=LINE('',#990,#138);
#86=LINE('',#998,#139);
#87=LINE('',#999,#140);
#88=LINE('',#1002,#141);
#89=LINE('',#1003,#142);
#90=LINE('',#1005,#143);
#91=LINE('',#1007,#144);
#92=LINE('',#1009,#145);
#93=LINE('',#1010,#146);
#94=LINE('',#1013,#147);
#95=LINE('',#1028,#148);
#96=LINE('',#1041,#149);
#97=LINE('',#1042,#150);
#98=LINE('',#1043,#151);
#99=LINE('',#1095,#152);
#100=LINE('',#1104,#153);
#101=LINE('',#1113,#154);
#102=LINE('',#1130,#155);
#103=VECTOR('',#685,2.7);
#104=VECTOR('',#696,10.);
#105=VECTOR('',#701,1.5);
#106=VECTOR('',#706,10.);
#107=VECTOR('',#707,10.);
#108=VECTOR('',#708,10.);
#109=VECTOR('',#709,10.);
#110=VECTOR('',#710,10.);
#111=VECTOR('',#711,10.);
#112=VECTOR('',#712,10.);
#113=VECTOR('',#715,10.);
#114=VECTOR('',#720,5.04999999999999);
#115=VECTOR('',#727,10.);
#116=VECTOR('',#728,10.);
#117=VECTOR('',#729,10.);
#118=VECTOR('',#730,10.);
#119=VECTOR('',#733,10.);
#120=VECTOR('',#734,10.);
#121=VECTOR('',#735,10.);
#122=VECTOR('',#736,10.);
#123=VECTOR('',#739,10.);
#124=VECTOR('',#740,10.);
#125=VECTOR('',#741,10.);
#126=VECTOR('',#744,10.);
#127=VECTOR('',#745,10.);
#128=VECTOR('',#746,10.);
#129=VECTOR('',#749,10.);
#130=VECTOR('',#750,10.);
#131=VECTOR('',#753,10.);
#132=VECTOR('',#754,10.);
#133=VECTOR('',#757,10.);
#134=VECTOR('',#758,10.);
#135=VECTOR('',#761,10.);
#136=VECTOR('',#762,10.);
#137=VECTOR('',#763,10.);
#138=VECTOR('',#766,10.);
#139=VECTOR('',#767,10.);
#140=VECTOR('',#768,10.);
#141=VECTOR('',#771,10.);
#142=VECTOR('',#772,10.);
#143=VECTOR('',#773,10.);
#144=VECTOR('',#774,10.);
#145=VECTOR('',#775,10.);
#146=VECTOR('',#776,10.);
#147=VECTOR('',#779,10.);
#148=VECTOR('',#782,10.);
#149=VECTOR('',#787,10.);
#150=VECTOR('',#788,10.);
#151=VECTOR('',#789,10.);
#152=VECTOR('',#796,10.);
#153=VECTOR('',#797,10.);
#154=VECTOR('',#798,10.);
#155=VECTOR('',#799,10.);
#156=CYLINDRICAL_SURFACE('',#643,2.7);
#157=CYLINDRICAL_SURFACE('',#649,1.5);
#158=CYLINDRICAL_SURFACE('',#654,5.04999999999999);
#159=CYLINDRICAL_SURFACE('',#672,14.9999999999999);
#160=FACE_BOUND('',#197,.T.);
#161=FACE_BOUND('',#206,.T.);
#162=FACE_BOUND('',#218,.T.);
#163=FACE_OUTER_BOUND('',#196,.T.);
#164=FACE_OUTER_BOUND('',#198,.T.);
#165=FACE_OUTER_BOUND('',#199,.T.);
#166=FACE_OUTER_BOUND('',#200,.T.);
#167=FACE_OUTER_BOUND('',#201,.T.);
#168=FACE_OUTER_BOUND('',#202,.T.);
#169=FACE_OUTER_BOUND('',#203,.T.);
#170=FACE_OUTER_BOUND('',#204,.T.);
#171=FACE_OUTER_BOUND('',#205,.T.);
#172=FACE_OUTER_BOUND('',#207,.T.);
#173=FACE_OUTER_BOUND('',#208,.T.);
#174=FACE_OUTER_BOUND('',#209,.T.);
#175=FACE_OUTER_BOUND('',#210,.T.);
#176=FACE_OUTER_BOUND('',#211,.T.);
#177=FACE_OUTER_BOUND('',#212,.T.);
#178=FACE_OUTER_BOUND('',#213,.T.);
#179=FACE_OUTER_BOUND('',#214,.T.);
#180=FACE_OUTER_BOUND('',#215,.T.);
#181=FACE_OUTER_BOUND('',#216,.T.);
#182=FACE_OUTER_BOUND('',#217,.T.);
#183=FACE_OUTER_BOUND('',#219,.T.);
#184=FACE_OUTER_BOUND('',#220,.T.);
#185=FACE_OUTER_BOUND('',#221,.T.);
#186=FACE_OUTER_BOUND('',#222,.T.);
#187=FACE_OUTER_BOUND('',#223,.T.);
#188=FACE_OUTER_BOUND('',#224,.T.);
#189=FACE_OUTER_BOUND('',#225,.T.);
#190=FACE_OUTER_BOUND('',#226,.T.);
#191=FACE_OUTER_BOUND('',#227,.T.);
#192=FACE_OUTER_BOUND('',#228,.T.);
#193=FACE_OUTER_BOUND('',#229,.T.);
#194=FACE_OUTER_BOUND('',#230,.T.);
#195=FACE_OUTER_BOUND('',#231,.T.);
#196=EDGE_LOOP('',(#394));
#197=EDGE_LOOP('',(#395));
#198=EDGE_LOOP('',(#396,#397,#398,#399,#400,#401,#402,#403));
#199=EDGE_LOOP('',(#404,#405,#406,#407));
#200=EDGE_LOOP('',(#408,#409,#410,#411));
#201=EDGE_LOOP('',(#412,#413,#414,#415));
#202=EDGE_LOOP('',(#416,#417,#418,#419,#420,#421,#422,#423,#424,#425,#426,
#427,#428,#429,#430,#431,#432,#433,#434));
#203=EDGE_LOOP('',(#435,#436,#437,#438));
#204=EDGE_LOOP('',(#439,#440,#441,#442));
#205=EDGE_LOOP('',(#443));
#206=EDGE_LOOP('',(#444));
#207=EDGE_LOOP('',(#445,#446,#447,#448));
#208=EDGE_LOOP('',(#449,#450,#451,#452));
#209=EDGE_LOOP('',(#453,#454,#455,#456));
#210=EDGE_LOOP('',(#457,#458,#459,#460,#461,#462));
#211=EDGE_LOOP('',(#463,#464,#465,#466));
#212=EDGE_LOOP('',(#467,#468,#469,#470));
#213=EDGE_LOOP('',(#471,#472,#473,#474));
#214=EDGE_LOOP('',(#475,#476,#477,#478,#479,#480));
#215=EDGE_LOOP('',(#481,#482,#483,#484,#485,#486));
#216=EDGE_LOOP('',(#487,#488,#489,#490,#491,#492,#493,#494));
#217=EDGE_LOOP('',(#495,#496,#497,#498,#499,#500,#501,#502,#503,#504,#505,
#506));
#218=EDGE_LOOP('',(#507));
#219=EDGE_LOOP('',(#508,#509,#510,#511));
#220=EDGE_LOOP('',(#512,#513,#514,#515,#516));
#221=EDGE_LOOP('',(#517,#518,#519,#520,#521,#522));
#222=EDGE_LOOP('',(#523,#524,#525,#526,#527,#528,#529,#530));
#223=EDGE_LOOP('',(#531,#532,#533,#534,#535,#536,#537,#538,#539,#540));
#224=EDGE_LOOP('',(#541,#542,#543,#544,#545));
#225=EDGE_LOOP('',(#546,#547,#548,#549));
#226=EDGE_LOOP('',(#550,#551,#552,#553));
#227=EDGE_LOOP('',(#554,#555,#556,#557));
#228=EDGE_LOOP('',(#558,#559,#560,#561));
#229=EDGE_LOOP('',(#562,#563,#564,#565));
#230=EDGE_LOOP('',(#566,#567,#568,#569));
#231=EDGE_LOOP('',(#570,#571,#572,#573));
#232=CIRCLE('',#641,2.7);
#233=CIRCLE('',#642,1.5);
#234=CIRCLE('',#644,2.7);
#235=CIRCLE('',#645,2.7);
#236=CIRCLE('',#646,2.7);
#237=CIRCLE('',#648,14.9999999999999);
#238=CIRCLE('',#650,1.5);
#239=CIRCLE('',#652,14.9999999999999);
#240=CIRCLE('',#653,14.9999999999999);
#241=CIRCLE('',#655,5.04999999999999);
#242=CIRCLE('',#656,5.04999999999999);
#243=CIRCLE('',#669,14.9999999999999);
#244=VERTEX_POINT('',#802);
#245=VERTEX_POINT('',#804);
#246=VERTEX_POINT('',#807);
#247=VERTEX_POINT('',#809);
#248=VERTEX_POINT('',#811);
#249=VERTEX_POINT('',#818);
#250=VERTEX_POINT('',#820);
#251=VERTEX_POINT('',#829);
#252=VERTEX_POINT('',#834);
#253=VERTEX_POINT('',#848);
#254=VERTEX_POINT('',#855);
#255=VERTEX_POINT('',#859);
#256=VERTEX_POINT('',#864);
#257=VERTEX_POINT('',#866);
#258=VERTEX_POINT('',#868);
#259=VERTEX_POINT('',#873);
#260=VERTEX_POINT('',#875);
#261=VERTEX_POINT('',#877);
#262=VERTEX_POINT('',#879);
#263=VERTEX_POINT('',#881);
#264=VERTEX_POINT('',#883);
#265=VERTEX_POINT('',#888);
#266=VERTEX_POINT('',#893);
#267=VERTEX_POINT('',#898);
#268=VERTEX_POINT('',#903);
#269=VERTEX_POINT('',#908);
#270=VERTEX_POINT('',#921);
#271=VERTEX_POINT('',#923);
#272=VERTEX_POINT('',#928);
#273=VERTEX_POINT('',#929);
#274=VERTEX_POINT('',#931);
#275=VERTEX_POINT('',#933);
#276=VERTEX_POINT('',#937);
#277=VERTEX_POINT('',#938);
#278=VERTEX_POINT('',#940);
#279=VERTEX_POINT('',#942);
#280=VERTEX_POINT('',#946);
#281=VERTEX_POINT('',#948);
#282=VERTEX_POINT('',#952);
#283=VERTEX_POINT('',#960);
#284=VERTEX_POINT('',#964);
#285=VERTEX_POINT('',#968);
#286=VERTEX_POINT('',#972);
#287=VERTEX_POINT('',#976);
#288=VERTEX_POINT('',#977);
#289=VERTEX_POINT('',#985);
#290=VERTEX_POINT('',#989);
#291=VERTEX_POINT('',#991);
#292=VERTEX_POINT('',#1001);
#293=VERTEX_POINT('',#1004);
#294=VERTEX_POINT('',#1006);
#295=VERTEX_POINT('',#1008);
#296=VERTEX_POINT('',#1012);
#297=VERTEX_POINT('',#1023);
#298=VERTEX_POINT('',#1030);
#299=VERTEX_POINT('',#1040);
#300=VERTEX_POINT('',#1046);
#301=VERTEX_POINT('',#1055);
#302=VERTEX_POINT('',#1060);
#303=VERTEX_POINT('',#1065);
#304=EDGE_CURVE('',#244,#244,#232,.T.);
#305=EDGE_CURVE('',#245,#245,#233,.T.);
#306=EDGE_CURVE('',#244,#246,#50,.T.);
#307=EDGE_CURVE('',#247,#246,#234,.T.);
#308=EDGE_CURVE('',#248,#247,#25,.T.);
#309=EDGE_CURVE('',#249,#248,#235,.T.);
#310=EDGE_CURVE('',#250,#249,#26,.T.);
#311=EDGE_CURVE('',#246,#250,#236,.T.);
#312=EDGE_CURVE('',#248,#251,#27,.T.);
#313=EDGE_CURVE('',#251,#252,#237,.T.);
#314=EDGE_CURVE('',#252,#249,#28,.T.);
#315=EDGE_CURVE('',#247,#253,#29,.T.);
#316=EDGE_CURVE('',#251,#253,#51,.T.);
#317=EDGE_CURVE('',#254,#254,#238,.T.);
#318=EDGE_CURVE('',#254,#245,#52,.T.);
#319=EDGE_CURVE('',#255,#250,#30,.T.);
#320=EDGE_CURVE('',#256,#255,#239,.T.);
#321=EDGE_CURVE('',#257,#256,#53,.T.);
#322=EDGE_CURVE('',#258,#257,#31,.T.);
#323=EDGE_CURVE('',#258,#259,#54,.T.);
#324=EDGE_CURVE('',#259,#260,#55,.T.);
#325=EDGE_CURVE('',#260,#261,#56,.T.);
#326=EDGE_CURVE('',#261,#262,#57,.T.);
#327=EDGE_CURVE('',#262,#263,#58,.T.);
#328=EDGE_CURVE('',#264,#263,#32,.T.);
#329=EDGE_CURVE('',#265,#264,#33,.T.);
#330=EDGE_CURVE('',#266,#265,#34,.T.);
#331=EDGE_CURVE('',#267,#266,#35,.T.);
#332=EDGE_CURVE('',#268,#267,#36,.T.);
#333=EDGE_CURVE('',#269,#268,#59,.T.);
#334=EDGE_CURVE('',#253,#269,#240,.T.);
#335=EDGE_CURVE('',#255,#252,#60,.T.);
#336=EDGE_CURVE('',#270,#270,#241,.T.);
#337=EDGE_CURVE('',#270,#271,#61,.T.);
#338=EDGE_CURVE('',#271,#271,#242,.T.);
#339=EDGE_CURVE('',#272,#273,#62,.T.);
#340=EDGE_CURVE('',#274,#272,#63,.T.);
#341=EDGE_CURVE('',#275,#274,#64,.T.);
#342=EDGE_CURVE('',#273,#275,#65,.T.);
#343=EDGE_CURVE('',#276,#277,#66,.T.);
#344=EDGE_CURVE('',#278,#276,#67,.T.);
#345=EDGE_CURVE('',#279,#278,#68,.T.);
#346=EDGE_CURVE('',#279,#277,#69,.T.);
#347=EDGE_CURVE('',#277,#280,#70,.T.);
#348=EDGE_CURVE('',#281,#279,#71,.T.);
#349=EDGE_CURVE('',#281,#280,#72,.T.);
#350=EDGE_CURVE('',#282,#258,#37,.T.);
#351=EDGE_CURVE('',#280,#282,#73,.T.);
#352=EDGE_CURVE('',#283,#281,#74,.T.);
#353=EDGE_CURVE('',#283,#259,#75,.T.);
#354=EDGE_CURVE('',#284,#283,#76,.T.);
#355=EDGE_CURVE('',#284,#260,#77,.T.);
#356=EDGE_CURVE('',#285,#284,#78,.T.);
#357=EDGE_CURVE('',#285,#261,#79,.T.);
#358=EDGE_CURVE('',#286,#285,#80,.T.);
#359=EDGE_CURVE('',#286,#262,#81,.T.);
#360=EDGE_CURVE('',#287,#288,#82,.T.);
#361=EDGE_CURVE('',#263,#287,#38,.T.);
#362=EDGE_CURVE('',#289,#286,#83,.T.);
#363=EDGE_CURVE('',#289,#288,#84,.T.);
#364=EDGE_CURVE('',#290,#272,#85,.T.);
#365=EDGE_CURVE('',#291,#290,#39,.T.);
#366=EDGE_CURVE('',#288,#291,#86,.T.);
#367=EDGE_CURVE('',#274,#289,#87,.T.);
#368=EDGE_CURVE('',#275,#292,#88,.T.);
#369=EDGE_CURVE('',#292,#269,#89,.T.);
#370=EDGE_CURVE('',#268,#293,#90,.T.);
#371=EDGE_CURVE('',#294,#293,#91,.T.);
#372=EDGE_CURVE('',#294,#295,#92,.T.);
#373=EDGE_CURVE('',#295,#273,#93,.T.);
#374=EDGE_CURVE('',#296,#278,#94,.T.);
#375=EDGE_CURVE('',#292,#296,#243,.T.);
#376=EDGE_CURVE('',#297,#287,#40,.T.);
#377=EDGE_CURVE('',#297,#264,#95,.T.);
#378=EDGE_CURVE('',#298,#295,#41,.T.);
#379=EDGE_CURVE('',#290,#298,#42,.T.);
#380=EDGE_CURVE('',#299,#276,#96,.T.);
#381=EDGE_CURVE('',#299,#257,#97,.T.);
#382=EDGE_CURVE('',#296,#256,#98,.T.);
#383=EDGE_CURVE('',#291,#300,#43,.T.);
#384=EDGE_CURVE('',#300,#294,#44,.T.);
#385=EDGE_CURVE('',#293,#301,#45,.T.);
#386=EDGE_CURVE('',#301,#302,#46,.T.);
#387=EDGE_CURVE('',#302,#303,#47,.T.);
#388=EDGE_CURVE('',#303,#297,#48,.T.);
#389=EDGE_CURVE('',#282,#299,#49,.T.);
#390=EDGE_CURVE('',#301,#267,#99,.T.);
#391=EDGE_CURVE('',#302,#266,#100,.T.);
#392=EDGE_CURVE('',#303,#265,#101,.T.);
#393=EDGE_CURVE('',#300,#298,#102,.T.);
#394=ORIENTED_EDGE('',*,*,#304,.T.);
#395=ORIENTED_EDGE('',*,*,#305,.F.);
#396=ORIENTED_EDGE('',*,*,#304,.F.);
#397=ORIENTED_EDGE('',*,*,#306,.T.);
#398=ORIENTED_EDGE('',*,*,#307,.F.);
#399=ORIENTED_EDGE('',*,*,#308,.F.);
#400=ORIENTED_EDGE('',*,*,#309,.F.);
#401=ORIENTED_EDGE('',*,*,#310,.F.);
#402=ORIENTED_EDGE('',*,*,#311,.F.);
#403=ORIENTED_EDGE('',*,*,#306,.F.);
#404=ORIENTED_EDGE('',*,*,#309,.T.);
#405=ORIENTED_EDGE('',*,*,#312,.T.);
#406=ORIENTED_EDGE('',*,*,#313,.T.);
#407=ORIENTED_EDGE('',*,*,#314,.T.);
#408=ORIENTED_EDGE('',*,*,#308,.T.);
#409=ORIENTED_EDGE('',*,*,#315,.T.);
#410=ORIENTED_EDGE('',*,*,#316,.F.);
#411=ORIENTED_EDGE('',*,*,#312,.F.);
#412=ORIENTED_EDGE('',*,*,#317,.F.);
#413=ORIENTED_EDGE('',*,*,#318,.T.);
#414=ORIENTED_EDGE('',*,*,#305,.T.);
#415=ORIENTED_EDGE('',*,*,#318,.F.);
#416=ORIENTED_EDGE('',*,*,#307,.T.);
#417=ORIENTED_EDGE('',*,*,#311,.T.);
#418=ORIENTED_EDGE('',*,*,#319,.F.);
#419=ORIENTED_EDGE('',*,*,#320,.F.);
#420=ORIENTED_EDGE('',*,*,#321,.F.);
#421=ORIENTED_EDGE('',*,*,#322,.F.);
#422=ORIENTED_EDGE('',*,*,#323,.T.);
#423=ORIENTED_EDGE('',*,*,#324,.T.);
#424=ORIENTED_EDGE('',*,*,#325,.T.);
#425=ORIENTED_EDGE('',*,*,#326,.T.);
#426=ORIENTED_EDGE('',*,*,#327,.T.);
#427=ORIENTED_EDGE('',*,*,#328,.F.);
#428=ORIENTED_EDGE('',*,*,#329,.F.);
#429=ORIENTED_EDGE('',*,*,#330,.F.);
#430=ORIENTED_EDGE('',*,*,#331,.F.);
#431=ORIENTED_EDGE('',*,*,#332,.F.);
#432=ORIENTED_EDGE('',*,*,#333,.F.);
#433=ORIENTED_EDGE('',*,*,#334,.F.);
#434=ORIENTED_EDGE('',*,*,#315,.F.);
#435=ORIENTED_EDGE('',*,*,#310,.T.);
#436=ORIENTED_EDGE('',*,*,#314,.F.);
#437=ORIENTED_EDGE('',*,*,#335,.F.);
#438=ORIENTED_EDGE('',*,*,#319,.T.);
#439=ORIENTED_EDGE('',*,*,#336,.F.);
#440=ORIENTED_EDGE('',*,*,#337,.T.);
#441=ORIENTED_EDGE('',*,*,#338,.T.);
#442=ORIENTED_EDGE('',*,*,#337,.F.);
#443=ORIENTED_EDGE('',*,*,#338,.F.);
#444=ORIENTED_EDGE('',*,*,#317,.T.);
#445=ORIENTED_EDGE('',*,*,#339,.F.);
#446=ORIENTED_EDGE('',*,*,#340,.F.);
#447=ORIENTED_EDGE('',*,*,#341,.F.);
#448=ORIENTED_EDGE('',*,*,#342,.F.);
#449=ORIENTED_EDGE('',*,*,#343,.F.);
#450=ORIENTED_EDGE('',*,*,#344,.F.);
#451=ORIENTED_EDGE('',*,*,#345,.F.);
#452=ORIENTED_EDGE('',*,*,#346,.T.);
#453=ORIENTED_EDGE('',*,*,#347,.F.);
#454=ORIENTED_EDGE('',*,*,#346,.F.);
#455=ORIENTED_EDGE('',*,*,#348,.F.);
#456=ORIENTED_EDGE('',*,*,#349,.T.);
#457=ORIENTED_EDGE('',*,*,#323,.F.);
#458=ORIENTED_EDGE('',*,*,#350,.F.);
#459=ORIENTED_EDGE('',*,*,#351,.F.);
#460=ORIENTED_EDGE('',*,*,#349,.F.);
#461=ORIENTED_EDGE('',*,*,#352,.F.);
#462=ORIENTED_EDGE('',*,*,#353,.T.);
#463=ORIENTED_EDGE('',*,*,#324,.F.);
#464=ORIENTED_EDGE('',*,*,#353,.F.);
#465=ORIENTED_EDGE('',*,*,#354,.F.);
#466=ORIENTED_EDGE('',*,*,#355,.T.);
#467=ORIENTED_EDGE('',*,*,#325,.F.);
#468=ORIENTED_EDGE('',*,*,#355,.F.);
#469=ORIENTED_EDGE('',*,*,#356,.F.);
#470=ORIENTED_EDGE('',*,*,#357,.T.);
#471=ORIENTED_EDGE('',*,*,#326,.F.);
#472=ORIENTED_EDGE('',*,*,#357,.F.);
#473=ORIENTED_EDGE('',*,*,#358,.F.);
#474=ORIENTED_EDGE('',*,*,#359,.T.);
#475=ORIENTED_EDGE('',*,*,#360,.F.);
#476=ORIENTED_EDGE('',*,*,#361,.F.);
#477=ORIENTED_EDGE('',*,*,#327,.F.);
#478=ORIENTED_EDGE('',*,*,#359,.F.);
#479=ORIENTED_EDGE('',*,*,#362,.F.);
#480=ORIENTED_EDGE('',*,*,#363,.T.);
#481=ORIENTED_EDGE('',*,*,#364,.F.);
#482=ORIENTED_EDGE('',*,*,#365,.F.);
#483=ORIENTED_EDGE('',*,*,#366,.F.);
#484=ORIENTED_EDGE('',*,*,#363,.F.);
#485=ORIENTED_EDGE('',*,*,#367,.F.);
#486=ORIENTED_EDGE('',*,*,#340,.T.);
#487=ORIENTED_EDGE('',*,*,#342,.T.);
#488=ORIENTED_EDGE('',*,*,#368,.T.);
#489=ORIENTED_EDGE('',*,*,#369,.T.);
#490=ORIENTED_EDGE('',*,*,#333,.T.);
#491=ORIENTED_EDGE('',*,*,#370,.T.);
#492=ORIENTED_EDGE('',*,*,#371,.F.);
#493=ORIENTED_EDGE('',*,*,#372,.T.);
#494=ORIENTED_EDGE('',*,*,#373,.T.);
#495=ORIENTED_EDGE('',*,*,#341,.T.);
#496=ORIENTED_EDGE('',*,*,#367,.T.);
#497=ORIENTED_EDGE('',*,*,#362,.T.);
#498=ORIENTED_EDGE('',*,*,#358,.T.);
#499=ORIENTED_EDGE('',*,*,#356,.T.);
#500=ORIENTED_EDGE('',*,*,#354,.T.);
#501=ORIENTED_EDGE('',*,*,#352,.T.);
#502=ORIENTED_EDGE('',*,*,#348,.T.);
#503=ORIENTED_EDGE('',*,*,#345,.T.);
#504=ORIENTED_EDGE('',*,*,#374,.F.);
#505=ORIENTED_EDGE('',*,*,#375,.F.);
#506=ORIENTED_EDGE('',*,*,#368,.F.);
#507=ORIENTED_EDGE('',*,*,#336,.T.);
#508=ORIENTED_EDGE('',*,*,#361,.T.);
#509=ORIENTED_EDGE('',*,*,#376,.F.);
#510=ORIENTED_EDGE('',*,*,#377,.T.);
#511=ORIENTED_EDGE('',*,*,#328,.T.);
#512=ORIENTED_EDGE('',*,*,#364,.T.);
#513=ORIENTED_EDGE('',*,*,#339,.T.);
#514=ORIENTED_EDGE('',*,*,#373,.F.);
#515=ORIENTED_EDGE('',*,*,#378,.F.);
#516=ORIENTED_EDGE('',*,*,#379,.F.);
#517=ORIENTED_EDGE('',*,*,#344,.T.);
#518=ORIENTED_EDGE('',*,*,#380,.F.);
#519=ORIENTED_EDGE('',*,*,#381,.T.);
#520=ORIENTED_EDGE('',*,*,#321,.T.);
#521=ORIENTED_EDGE('',*,*,#382,.F.);
#522=ORIENTED_EDGE('',*,*,#374,.T.);
#523=ORIENTED_EDGE('',*,*,#334,.T.);
#524=ORIENTED_EDGE('',*,*,#369,.F.);
#525=ORIENTED_EDGE('',*,*,#375,.T.);
#526=ORIENTED_EDGE('',*,*,#382,.T.);
#527=ORIENTED_EDGE('',*,*,#320,.T.);
#528=ORIENTED_EDGE('',*,*,#335,.T.);
#529=ORIENTED_EDGE('',*,*,#313,.F.);
#530=ORIENTED_EDGE('',*,*,#316,.T.);
#531=ORIENTED_EDGE('',*,*,#366,.T.);
#532=ORIENTED_EDGE('',*,*,#383,.T.);
#533=ORIENTED_EDGE('',*,*,#384,.T.);
#534=ORIENTED_EDGE('',*,*,#371,.T.);
#535=ORIENTED_EDGE('',*,*,#385,.T.);
#536=ORIENTED_EDGE('',*,*,#386,.T.);
#537=ORIENTED_EDGE('',*,*,#387,.T.);
#538=ORIENTED_EDGE('',*,*,#388,.T.);
#539=ORIENTED_EDGE('',*,*,#376,.T.);
#540=ORIENTED_EDGE('',*,*,#360,.T.);
#541=ORIENTED_EDGE('',*,*,#351,.T.);
#542=ORIENTED_EDGE('',*,*,#389,.T.);
#543=ORIENTED_EDGE('',*,*,#380,.T.);
#544=ORIENTED_EDGE('',*,*,#343,.T.);
#545=ORIENTED_EDGE('',*,*,#347,.T.);
#546=ORIENTED_EDGE('',*,*,#350,.T.);
#547=ORIENTED_EDGE('',*,*,#322,.T.);
#548=ORIENTED_EDGE('',*,*,#381,.F.);
#549=ORIENTED_EDGE('',*,*,#389,.F.);
#550=ORIENTED_EDGE('',*,*,#385,.F.);
#551=ORIENTED_EDGE('',*,*,#370,.F.);
#552=ORIENTED_EDGE('',*,*,#332,.T.);
#553=ORIENTED_EDGE('',*,*,#390,.F.);
#554=ORIENTED_EDGE('',*,*,#386,.F.);
#555=ORIENTED_EDGE('',*,*,#390,.T.);
#556=ORIENTED_EDGE('',*,*,#331,.T.);
#557=ORIENTED_EDGE('',*,*,#391,.F.);
#558=ORIENTED_EDGE('',*,*,#387,.F.);
#559=ORIENTED_EDGE('',*,*,#391,.T.);
#560=ORIENTED_EDGE('',*,*,#330,.T.);
#561=ORIENTED_EDGE('',*,*,#392,.F.);
#562=ORIENTED_EDGE('',*,*,#388,.F.);
#563=ORIENTED_EDGE('',*,*,#392,.T.);
#564=ORIENTED_EDGE('',*,*,#329,.T.);
#565=ORIENTED_EDGE('',*,*,#377,.F.);
#566=ORIENTED_EDGE('',*,*,#365,.T.);
#567=ORIENTED_EDGE('',*,*,#379,.T.);
#568=ORIENTED_EDGE('',*,*,#393,.F.);
#569=ORIENTED_EDGE('',*,*,#383,.F.);
#570=ORIENTED_EDGE('',*,*,#384,.F.);
#571=ORIENTED_EDGE('',*,*,#393,.T.);
#572=ORIENTED_EDGE('',*,*,#378,.T.);
#573=ORIENTED_EDGE('',*,*,#372,.F.);
#574=PLANE('',#640);
#575=PLANE('',#647);
#576=PLANE('',#651);
#577=PLANE('',#657);
#578=PLANE('',#658);
#579=PLANE('',#659);
#580=PLANE('',#660);
#581=PLANE('',#661);
#582=PLANE('',#662);
#583=PLANE('',#663);
#584=PLANE('',#664);
#585=PLANE('',#665);
#586=PLANE('',#666);
#587=PLANE('',#667);
#588=PLANE('',#668);
#589=PLANE('',#670);
#590=PLANE('',#671);
#591=PLANE('',#673);
#592=PLANE('',#674);
#593=ADVANCED_FACE('',(#163,#160),#574,.F.);
#594=ADVANCED_FACE('',(#164),#156,.F.);
#595=ADVANCED_FACE('',(#165),#575,.F.);
#596=ADVANCED_FACE('',(#166),#15,.F.);
#597=ADVANCED_FACE('',(#167),#157,.F.);
#598=ADVANCED_FACE('',(#168),#576,.T.);
#599=ADVANCED_FACE('',(#169),#16,.F.);
#600=ADVANCED_FACE('',(#170),#158,.F.);
#601=ADVANCED_FACE('',(#171,#161),#577,.T.);
#602=ADVANCED_FACE('',(#172),#578,.F.);
#603=ADVANCED_FACE('',(#173),#579,.F.);
#604=ADVANCED_FACE('',(#174),#580,.F.);
#605=ADVANCED_FACE('',(#175),#581,.F.);
#606=ADVANCED_FACE('',(#176),#582,.F.);
#607=ADVANCED_FACE('',(#177),#583,.F.);
#608=ADVANCED_FACE('',(#178),#584,.F.);
#609=ADVANCED_FACE('',(#179),#585,.F.);
#610=ADVANCED_FACE('',(#180),#586,.F.);
#611=ADVANCED_FACE('',(#181),#587,.T.);
#612=ADVANCED_FACE('',(#182,#162),#588,.T.);
#613=ADVANCED_FACE('',(#183),#17,.F.);
#614=ADVANCED_FACE('',(#184),#589,.T.);
#615=ADVANCED_FACE('',(#185),#590,.T.);
#616=ADVANCED_FACE('',(#186),#159,.T.);
#617=ADVANCED_FACE('',(#187),#591,.F.);
#618=ADVANCED_FACE('',(#188),#592,.F.);
#619=ADVANCED_FACE('',(#189),#18,.F.);
#620=ADVANCED_FACE('',(#190),#19,.F.);
#621=ADVANCED_FACE('',(#191),#20,.F.);
#622=ADVANCED_FACE('',(#192),#21,.F.);
#623=ADVANCED_FACE('',(#193),#22,.F.);
#624=ADVANCED_FACE('',(#194),#23,.F.);
#625=ADVANCED_FACE('',(#195),#24,.F.);
#626=CLOSED_SHELL('',(#593,#594,#595,#596,#597,#598,#599,#600,#601,#602,
#603,#604,#605,#606,#607,#608,#609,#610,#611,#612,#613,#614,#615,#616,#617,
#618,#619,#620,#621,#622,#623,#624,#625));
#627=DERIVED_UNIT_ELEMENT(#629,1.);
#628=DERIVED_UNIT_ELEMENT(#1144,-3.);
#629=(
MASS_UNIT()
NAMED_UNIT(*)
SI_UNIT(.KILO.,.GRAM.)
);
#630=DERIVED_UNIT((#627,#628));
#631=MEASURE_REPRESENTATION_ITEM('density measure',
POSITIVE_RATIO_MEASURE(7850.),#630);
#632=PROPERTY_DEFINITION_REPRESENTATION(#637,#634);
#633=PROPERTY_DEFINITION_REPRESENTATION(#638,#635);
#634=REPRESENTATION('material name',(#636),#1141);
#635=REPRESENTATION('density',(#631),#1141);
#636=DESCRIPTIVE_REPRESENTATION_ITEM('Steel','Steel');
#637=PROPERTY_DEFINITION('material property','material name',#1151);
#638=PROPERTY_DEFINITION('material property','density of part',#1151);
#639=AXIS2_PLACEMENT_3D('',#800,#675,#676);
#640=AXIS2_PLACEMENT_3D('',#801,#677,#678);
#641=AXIS2_PLACEMENT_3D('',#803,#679,#680);
#642=AXIS2_PLACEMENT_3D('',#805,#681,#682);
#643=AXIS2_PLACEMENT_3D('',#806,#683,#684);
#644=AXIS2_PLACEMENT_3D('',#810,#686,#687);
#645=AXIS2_PLACEMENT_3D('',#819,#688,#689);
#646=AXIS2_PLACEMENT_3D('',#827,#690,#691);
#647=AXIS2_PLACEMENT_3D('',#828,#692,#693);
#648=AXIS2_PLACEMENT_3D('',#835,#694,#695);
#649=AXIS2_PLACEMENT_3D('',#854,#697,#698);
#650=AXIS2_PLACEMENT_3D('',#856,#699,#700);
#651=AXIS2_PLACEMENT_3D('',#858,#702,#703);
#652=AXIS2_PLACEMENT_3D('',#865,#704,#705);
#653=AXIS2_PLACEMENT_3D('',#910,#713,#714);
#654=AXIS2_PLACEMENT_3D('',#920,#716,#717);
#655=AXIS2_PLACEMENT_3D('',#922,#718,#719);
#656=AXIS2_PLACEMENT_3D('',#925,#721,#722);
#657=AXIS2_PLACEMENT_3D('',#926,#723,#724);
#658=AXIS2_PLACEMENT_3D('',#927,#725,#726);
#659=AXIS2_PLACEMENT_3D('',#936,#731,#732);
#660=AXIS2_PLACEMENT_3D('',#945,#737,#738);
#661=AXIS2_PLACEMENT_3D('',#951,#742,#743);
#662=AXIS2_PLACEMENT_3D('',#963,#747,#748);
#663=AXIS2_PLACEMENT_3D('',#967,#751,#752);
#664=AXIS2_PLACEMENT_3D('',#971,#755,#756);
#665=AXIS2_PLACEMENT_3D('',#975,#759,#760);
#666=AXIS2_PLACEMENT_3D('',#988,#764,#765);
#667=AXIS2_PLACEMENT_3D('',#1000,#769,#770);
#668=AXIS2_PLACEMENT_3D('',#1011,#777,#778);
#669=AXIS2_PLACEMENT_3D('',#1014,#780,#781);
#670=AXIS2_PLACEMENT_3D('',#1029,#783,#784);
#671=AXIS2_PLACEMENT_3D('',#1039,#785,#786);
#672=AXIS2_PLACEMENT_3D('',#1044,#790,#791);
#673=AXIS2_PLACEMENT_3D('',#1045,#792,#793);
#674=AXIS2_PLACEMENT_3D('',#1074,#794,#795);
#675=DIRECTION('axis',(0.,0.,1.));
#676=DIRECTION('refdir',(1.,0.,0.));
#677=DIRECTION('center_axis',(0.,0.,1.));
#678=DIRECTION('ref_axis',(-1.,0.,0.));
#679=DIRECTION('center_axis',(0.,0.,-1.));
#680=DIRECTION('ref_axis',(-1.,0.,0.));
#681=DIRECTION('center_axis',(0.,0.,-1.));
#682=DIRECTION('ref_axis',(-1.,0.,0.));
#683=DIRECTION('center_axis',(0.,0.,-1.));
#684=DIRECTION('ref_axis',(-1.,0.,0.));
#685=DIRECTION('',(0.,0.,-1.));
#686=DIRECTION('center_axis',(0.,0.,1.));
#687=DIRECTION('ref_axis',(-1.,0.,0.));
#688=DIRECTION('center_axis',(0.,0.,1.));
#689=DIRECTION('ref_axis',(-1.,0.,0.));
#690=DIRECTION('center_axis',(0.,0.,1.));
#691=DIRECTION('ref_axis',(-1.,0.,0.));
#692=DIRECTION('center_axis',(0.,0.,1.));
#693=DIRECTION('ref_axis',(-1.,0.,0.));
#694=DIRECTION('center_axis',(0.,0.,-1.));
#695=DIRECTION('ref_axis',(-0.745521964111653,0.666481058265802,0.));
#696=DIRECTION('',(0.,0.,1.));
#697=DIRECTION('center_axis',(0.,0.,-1.));
#698=DIRECTION('ref_axis',(-1.,0.,0.));
#699=DIRECTION('center_axis',(0.,0.,-1.));
#700=DIRECTION('ref_axis',(-1.,0.,0.));
#701=DIRECTION('',(0.,0.,-1.));
#702=DIRECTION('center_axis',(0.,0.,-1.));
#703=DIRECTION('ref_axis',(1.,0.,0.));
#704=DIRECTION('center_axis',(0.,0.,1.));
#705=DIRECTION('ref_axis',(-0.745521964111653,0.666481058265802,0.));
#706=DIRECTION('',(-0.666481058265802,-0.745521964111653,0.));
#707=DIRECTION('',(0.745521964111673,-0.666481058265779,0.));
#708=DIRECTION('',(0.288965776456318,0.957339427808652,0.));
#709=DIRECTION('',(0.745521964111662,-0.666481058265792,0.));
#710=DIRECTION('',(-0.91910816958112,-0.394005295153813,0.));
#711=DIRECTION('',(0.745521964111648,-0.666481058265807,0.));
#712=DIRECTION('',(0.666481058265804,0.745521964111652,0.));
#713=DIRECTION('center_axis',(0.,0.,1.));
#714=DIRECTION('ref_axis',(-0.745521964111653,0.666481058265802,0.));
#715=DIRECTION('',(0.,0.,-1.));
#716=DIRECTION('center_axis',(0.,0.,-1.));
#717=DIRECTION('ref_axis',(-1.,0.,0.));
#718=DIRECTION('center_axis',(0.,0.,-1.));
#719=DIRECTION('ref_axis',(-1.,0.,0.));
#720=DIRECTION('',(0.,0.,-1.));
#721=DIRECTION('center_axis',(0.,0.,-1.));
#722=DIRECTION('ref_axis',(-1.,0.,0.));
#723=DIRECTION('center_axis',(0.,0.,1.));
#724=DIRECTION('ref_axis',(-1.,0.,0.));
#725=DIRECTION('center_axis',(-0.666481058265802,-0.745521964111653,0.));
#726=DIRECTION('ref_axis',(-0.745521964111653,0.666481058265802,0.));
#727=DIRECTION('',(0.745521964111653,-0.666481058265802,0.));
#728=DIRECTION('',(0.,0.,-1.));
#729=DIRECTION('',(-0.745521964111653,0.666481058265802,0.));
#730=DIRECTION('',(0.,0.,1.));
#731=DIRECTION('center_axis',(-0.666481058265846,-0.745521964111613,0.));
#732=DIRECTION('ref_axis',(-0.745521964111613,0.666481058265846,0.));
#733=DIRECTION('',(0.745521964111613,-0.666481058265846,0.));
#734=DIRECTION('',(0.,0.,-1.));
#735=DIRECTION('',(-0.745521964111613,0.666481058265846,0.));
#736=DIRECTION('',(0.,0.,-1.));
#737=DIRECTION('center_axis',(-0.394005295154457,0.919108169580844,0.));
#738=DIRECTION('ref_axis',(0.919108169580844,0.394005295154457,0.));
#739=DIRECTION('',(-0.919108169580844,-0.394005295154457,0.));
#740=DIRECTION('',(0.919108169580844,0.394005295154457,0.));
#741=DIRECTION('',(0.,0.,-1.));
#742=DIRECTION('center_axis',(-0.666481058265779,-0.745521964111673,0.));
#743=DIRECTION('ref_axis',(-0.745521964111673,0.666481058265779,0.));
#744=DIRECTION('',(0.745521964111673,-0.666481058265779,0.));
#745=DIRECTION('',(-0.745521964111673,0.666481058265779,0.));
#746=DIRECTION('',(0.,0.,-1.));
#747=DIRECTION('center_axis',(0.957339427808652,-0.288965776456318,0.));
#748=DIRECTION('ref_axis',(-0.288965776456318,-0.957339427808652,0.));
#749=DIRECTION('',(-0.288965776456318,-0.957339427808652,0.));
#750=DIRECTION('',(0.,0.,-1.));
#751=DIRECTION('center_axis',(-0.666481058265792,-0.745521964111662,0.));
#752=DIRECTION('ref_axis',(-0.745521964111662,0.666481058265792,0.));
#753=DIRECTION('',(-0.745521964111662,0.666481058265792,0.));
#754=DIRECTION('',(0.,0.,-1.));
#755=DIRECTION('center_axis',(-0.394005295153813,0.91910816958112,0.));
#756=DIRECTION('ref_axis',(0.91910816958112,0.394005295153813,0.));
#757=DIRECTION('',(0.91910816958112,0.394005295153813,0.));
#758=DIRECTION('',(0.,0.,-1.));
#759=DIRECTION('center_axis',(-0.666481058265807,-0.745521964111648,0.));
#760=DIRECTION('ref_axis',(-0.745521964111648,0.666481058265807,0.));
#761=DIRECTION('',(0.745521964111648,-0.666481058265807,0.));
#762=DIRECTION('',(-0.745521964111648,0.666481058265807,0.));
#763=DIRECTION('',(0.,0.,-1.));
#764=DIRECTION('center_axis',(0.957339427808642,-0.288965776456351,0.));
#765=DIRECTION('ref_axis',(-0.288965776456351,-0.957339427808642,0.));
#766=DIRECTION('',(0.288965776456351,0.957339427808642,0.));
#767=DIRECTION('',(0.288965776456351,0.957339427808642,0.));
#768=DIRECTION('',(-0.288965776456351,-0.957339427808642,0.));
#769=DIRECTION('center_axis',(0.745521964111652,-0.666481058265804,0.));
#770=DIRECTION('ref_axis',(-0.666481058265804,-0.745521964111652,0.));
#771=DIRECTION('',(-0.666481058265804,-0.745521964111652,0.));
#772=DIRECTION('',(0.,0.,-1.));
#773=DIRECTION('',(0.,0.,-1.));
#774=DIRECTION('',(-0.666481058265804,-0.745521964111652,0.));
#775=DIRECTION('',(0.,0.,1.));
#776=DIRECTION('',(0.666481058265804,0.745521964111652,0.));
#777=DIRECTION('center_axis',(0.,0.,1.));
#778=DIRECTION('ref_axis',(-1.,0.,0.));
#779=DIRECTION('',(0.666481058265802,0.745521964111653,0.));
#780=DIRECTION('center_axis',(0.,0.,-1.));
#781=DIRECTION('ref_axis',(-0.745521964111653,0.666481058265802,0.));
#782=DIRECTION('',(0.,0.,1.));
#783=DIRECTION('center_axis',(0.,0.,-1.));
#784=DIRECTION('ref_axis',(1.,0.,0.));
#785=DIRECTION('center_axis',(-0.745521964111653,0.666481058265802,0.));
#786=DIRECTION('ref_axis',(0.666481058265802,0.745521964111653,0.));
#787=DIRECTION('',(0.666481058265802,0.745521964111653,0.));
#788=DIRECTION('',(0.,0.,1.));
#789=DIRECTION('',(0.,0.,-1.));
#790=DIRECTION('center_axis',(0.,0.,-1.));
#791=DIRECTION('ref_axis',(-0.745521964111653,0.666481058265802,0.));
#792=DIRECTION('center_axis',(0.,0.,1.));
#793=DIRECTION('ref_axis',(-1.,0.,0.));
#794=DIRECTION('center_axis',(0.,0.,1.));
#795=DIRECTION('ref_axis',(-1.,0.,0.));
#796=DIRECTION('',(0.,0.,1.));
#797=DIRECTION('',(0.,0.,1.));
#798=DIRECTION('',(0.,0.,1.));
#799=DIRECTION('',(0.,0.,1.));
#800=CARTESIAN_POINT('',(0.,0.,0.));
#801=CARTESIAN_POINT('Origin',(-138.704013849986,-16.3657019842312,6.1035162724936));
#802=CARTESIAN_POINT('',(-136.004013849986,-16.3657019842312,6.1035162724936));
#803=CARTESIAN_POINT('Origin',(-138.704013849986,-16.3657019842312,6.1035162724936));
#804=CARTESIAN_POINT('',(-137.204013849986,-16.3657019842312,6.1035162724936));
#805=CARTESIAN_POINT('Origin',(-138.704013849986,-16.3657019842312,6.1035162724936));
#806=CARTESIAN_POINT('Origin',(-138.704013849986,-16.3657019842312,10.1035162724936));
#807=CARTESIAN_POINT('',(-136.004013849986,-16.3657019842312,4.10351627249359));
#808=CARTESIAN_POINT('',(-136.004013849986,-16.3657019842312,10.1035162724936));
#809=CARTESIAN_POINT('',(-137.661440405001,-18.8562923985332,4.10351627249359));
#810=CARTESIAN_POINT('Origin',(-138.704013849986,-16.3657019842312,4.10351627249359));
#811=CARTESIAN_POINT('',(-137.661440405001,-18.8562923985332,2.10351627249359));
#812=CARTESIAN_POINT('Ctrl Pts',(-137.661440405001,-18.8562923985332,2.1035162724936));
#813=CARTESIAN_POINT('Ctrl Pts',(-137.661440405001,-18.8562923985332,2.43684960582693));
#814=CARTESIAN_POINT('Ctrl Pts',(-137.661440405001,-18.8562923985332,2.77018293916026));
#815=CARTESIAN_POINT('Ctrl Pts',(-137.661440405001,-18.8562923985332,3.43684960582692));
#816=CARTESIAN_POINT('Ctrl Pts',(-137.661440405001,-18.8562923985332,3.77018293916026));
#817=CARTESIAN_POINT('Ctrl Pts',(-137.661440405001,-18.8562923985332,4.10351627249359));
#818=CARTESIAN_POINT('',(-140.26285056181,-18.5702491272674,2.1035162724936));
#819=CARTESIAN_POINT('Origin',(-138.704013849986,-16.3657019842312,2.10351627249359));
#820=CARTESIAN_POINT('',(-140.26285056181,-18.5702491272674,4.10351627249359));
#821=CARTESIAN_POINT('Ctrl Pts',(-140.26285056181,-18.5702491272674,4.10351627249359));
#822=CARTESIAN_POINT('Ctrl Pts',(-140.26285056181,-18.5702491272674,3.77018293916026));
#823=CARTESIAN_POINT('Ctrl Pts',(-140.26285056181,-18.5702491272674,3.43684960582692));
#824=CARTESIAN_POINT('Ctrl Pts',(-140.26285056181,-18.5702491272674,2.77018293916026));
#825=CARTESIAN_POINT('Ctrl Pts',(-140.26285056181,-18.5702491272674,2.43684960582692));
#826=CARTESIAN_POINT('Ctrl Pts',(-140.26285056181,-18.5702491272674,2.10351627249359));
#827=CARTESIAN_POINT('Origin',(-138.704013849986,-16.3657019842312,4.10351627249359));
#828=CARTESIAN_POINT('Origin',(18.4370497025956,62.6331359959283,2.10351627249359));
#829=CARTESIAN_POINT('',(-129.054206619785,-27.8496568961922,2.10351627249359));
#830=CARTESIAN_POINT('Ctrl Pts',(-137.661440405001,-18.8562923985332,2.10351627249359));
#831=CARTESIAN_POINT('Ctrl Pts',(-138.57200004124,-24.1081878933102,2.10351627249359));
#832=CARTESIAN_POINT('Ctrl Pts',(-133.822554263726,-28.0652346288411,2.10351627249359));
#833=CARTESIAN_POINT('Ctrl Pts',(-129.054206619785,-27.8496568961922,2.10351627249359));
#834=CARTESIAN_POINT('',(-152.437425881854,-22.3983957409988,2.10351627249359));
#835=CARTESIAN_POINT('Origin',(-138.704013849986,-16.3657019842312,2.10351627249359));
#836=CARTESIAN_POINT('Ctrl Pts',(-152.437425881854,-22.3983957409988,2.10351627249359));
#837=CARTESIAN_POINT('Ctrl Pts',(-148.581342738027,-22.1263069994422,2.10351627249359));
#838=CARTESIAN_POINT('Ctrl Pts',(-144.444711030689,-20.9259051530453,2.10351627249359));
#839=CARTESIAN_POINT('Ctrl Pts',(-140.26285056181,-18.5702491272674,2.10351627249359));
#840=CARTESIAN_POINT('Ctrl Pts',(-136.832079718241,-16.377689332822,2.10351627249359));
#841=CARTESIAN_POINT('Ctrl Pts',(-136.832079718241,-16.377689332822,4.50351627249359));
#842=CARTESIAN_POINT('Ctrl Pts',(-140.017718177948,-22.8065937990456,2.10351627249359));
#843=CARTESIAN_POINT('Ctrl Pts',(-140.017718177948,-22.8065937990456,4.50351627249359));
#844=CARTESIAN_POINT('Ctrl Pts',(-134.548510099854,-28.0980552041938,2.10351627249359));
#845=CARTESIAN_POINT('Ctrl Pts',(-134.548510099854,-28.0980552041938,4.50351627249359));
#846=CARTESIAN_POINT('Ctrl Pts',(-129.054206619785,-27.8496568961922,2.10351627249359));
#847=CARTESIAN_POINT('Ctrl Pts',(-129.054206619785,-27.8496568961922,4.50351627249359));
#848=CARTESIAN_POINT('',(-129.054206619785,-27.8496568961922,4.10351627249359));
#849=CARTESIAN_POINT('Ctrl Pts',(-137.661440405001,-18.8562923985332,4.10351627249359));
#850=CARTESIAN_POINT('Ctrl Pts',(-138.57200004124,-24.1081878933102,4.10351627249359));
#851=CARTESIAN_POINT('Ctrl Pts',(-133.822554263726,-28.0652346288411,4.10351627249359));
#852=CARTESIAN_POINT('Ctrl Pts',(-129.054206619785,-27.8496568961922,4.10351627249359));
#853=CARTESIAN_POINT('',(-129.054206619785,-27.8496568961922,2.10351627249359));
#854=CARTESIAN_POINT('Origin',(-138.704013849986,-16.3657019842312,10.1035162724936));
#855=CARTESIAN_POINT('',(-137.204013849986,-16.3657019842312,8.1035162724936));
#856=CARTESIAN_POINT('Origin',(-138.704013849986,-16.3657019842312,8.1035162724936));
#857=CARTESIAN_POINT('',(-137.204013849986,-16.3657019842312,10.1035162724936));
#858=CARTESIAN_POINT('Origin',(21.6047339517581,86.6915330029934,4.10351627249359));
#859=CARTESIAN_POINT('',(-152.437425881854,-22.3983957409988,4.10351627249359));
#860=CARTESIAN_POINT('Ctrl Pts',(-152.437425881854,-22.3983957409988,4.10351627249359));
#861=CARTESIAN_POINT('Ctrl Pts',(-148.581342738027,-22.1263069994422,4.10351627249359));
#862=CARTESIAN_POINT('Ctrl Pts',(-144.444711030689,-20.9259051530453,4.10351627249359));
#863=CARTESIAN_POINT('Ctrl Pts',(-140.26285056181,-18.5702491272674,4.10351627249359));
#864=CARTESIAN_POINT('',(-149.886843311661,-6.36848611024426,4.10351627249359));
#865=CARTESIAN_POINT('Origin',(-138.704013849986,-16.3657019842312,4.10351627249359));
#866=CARTESIAN_POINT('',(-123.543433844489,23.0991035891031,4.10351627249359));
#867=CARTESIAN_POINT('',(-88.6791636707951,62.0980801614358,4.10351627249359));
#868=CARTESIAN_POINT('',(-116.11115174201,22.4214884948985,4.10351627249359));
#869=CARTESIAN_POINT('Ctrl Pts',(-116.11115174201,22.4214884948985,4.10351627249359));
#870=CARTESIAN_POINT('Ctrl Pts',(-118.940116875964,22.3518180332012,4.10351627249359));
#871=CARTESIAN_POINT('Ctrl Pts',(-121.385491186328,22.6045394330615,4.10351627249359));
#872=CARTESIAN_POINT('Ctrl Pts',(-123.543433844489,23.0991035891031,4.10351627249359));
#873=CARTESIAN_POINT('',(-109.848028676604,16.822387342119,4.10351627249359));
#874=CARTESIAN_POINT('',(-90.6752689887858,-0.317659204784277,4.10351627249359));
#875=CARTESIAN_POINT('',(-107.934997934138,23.1602304556963,4.10351627249359));
#876=CARTESIAN_POINT('',(-93.7390383567652,70.1912387143896,4.10351627249359));
#877=CARTESIAN_POINT('',(-101.970822221245,17.82838198957,4.10351627249359));
#878=CARTESIAN_POINT('',(-84.7372225863099,2.42190401127659,4.10351627249359));
#879=CARTESIAN_POINT('',(-108.055564177968,15.2199615338078,4.10351627249359));
#880=CARTESIAN_POINT('',(-40.3485339942762,44.2447589346094,4.10351627249359));
#881=CARTESIAN_POINT('',(-100.872916298884,8.79882441103166,4.10351627249359));
#882=CARTESIAN_POINT('',(-86.051426918912,-4.45127740026801,4.10351627249359));
#883=CARTESIAN_POINT('',(-118.783145875264,11.3358148830542,4.10351627249359));
#884=CARTESIAN_POINT('Ctrl Pts',(-118.783145875264,11.3358148830542,4.10351627249359));
#885=CARTESIAN_POINT('Ctrl Pts',(-114.676608633866,7.95484623904027,4.10351627249359));
#886=CARTESIAN_POINT('Ctrl Pts',(-107.765759080414,7.74832990892969,4.10351627249359));
#887=CARTESIAN_POINT('Ctrl Pts',(-100.872916298884,8.79882441103166,4.10351627249359));
#888=CARTESIAN_POINT('',(-120.978653013835,-1.17455804492938,4.10351627249359));
#889=CARTESIAN_POINT('Ctrl Pts',(-120.978653013835,-1.17455804492939,4.10351627249359));
#890=CARTESIAN_POINT('Ctrl Pts',(-119.949271401693,-0.602455933748764,4.10351627249359));
#891=CARTESIAN_POINT('Ctrl Pts',(-118.424965218831,4.09910099997214,4.10351627249359));
#892=CARTESIAN_POINT('Ctrl Pts',(-118.783145875264,11.3358148830542,4.10351627249359));
#893=CARTESIAN_POINT('',(-127.089576844503,0.101462259432594,4.10351627249359));
#894=CARTESIAN_POINT('Ctrl Pts',(-127.089576844503,0.101462259432594,4.10351627249359));
#895=CARTESIAN_POINT('Ctrl Pts',(-125.324095137248,-0.839479176063422,4.10351627249359));
#896=CARTESIAN_POINT('Ctrl Pts',(-122.576698235799,-1.67739597306558,4.10351627249359));
#897=CARTESIAN_POINT('Ctrl Pts',(-120.978653013835,-1.17455804492939,4.10351627249359));
#898=CARTESIAN_POINT('',(-132.809293933838,-11.1651820785394,4.10351627249359));
#899=CARTESIAN_POINT('Ctrl Pts',(-132.809293933838,-11.1651820785394,4.10351627249359));
#900=CARTESIAN_POINT('Ctrl Pts',(-128.872381460795,-7.10747594501484,4.10351627249359));
#901=CARTESIAN_POINT('Ctrl Pts',(-127.457366087565,-3.49562882091511,4.10351627249359));
#902=CARTESIAN_POINT('Ctrl Pts',(-127.089576844503,0.101462259432594,4.10351627249359));
#903=CARTESIAN_POINT('',(-115.024220075767,-12.3838838494143,4.10351627249359));
#904=CARTESIAN_POINT('Ctrl Pts',(-115.024220075767,-12.3838838494142,4.10351627249359));
#905=CARTESIAN_POINT('Ctrl Pts',(-119.072664545098,-8.25795206293229,4.10351627249359));
#906=CARTESIAN_POINT('Ctrl Pts',(-127.290058625132,-5.78352491962108,4.10351627249359));
#907=CARTESIAN_POINT('Ctrl Pts',(-132.809293933838,-11.1651820785394,4.10351627249359));
#908=CARTESIAN_POINT('',(-127.521184388311,-26.3629178582182,4.10351627249359));
#909=CARTESIAN_POINT('',(-49.6514782908004,60.741697516253,4.10351627249359));
#910=CARTESIAN_POINT('Origin',(-138.704013849986,-16.3657019842312,4.10351627249359));
#911=CARTESIAN_POINT('Ctrl Pts',(-152.437425881854,-22.3983957409988,2.10351627249359));
#912=CARTESIAN_POINT('Ctrl Pts',(-152.437425881854,-22.3983957409988,4.50351627249359));
#913=CARTESIAN_POINT('Ctrl Pts',(-147.52847786109,-22.0520158940096,2.10351627249359));
#914=CARTESIAN_POINT('Ctrl Pts',(-147.52847786109,-22.0520158940096,4.50351627249359));
#915=CARTESIAN_POINT('Ctrl Pts',(-142.164864197709,-20.2011832382834,2.10351627249359));
#916=CARTESIAN_POINT('Ctrl Pts',(-142.164864197709,-20.2011832382834,4.50351627249359));
#917=CARTESIAN_POINT('Ctrl Pts',(-136.832079718241,-16.377689332822,2.10351627249359));
#918=CARTESIAN_POINT('Ctrl Pts',(-136.832079718241,-16.377689332822,4.50351627249359));
#919=CARTESIAN_POINT('',(-152.437425881854,-22.3983957409988,2.10351627249359));
#920=CARTESIAN_POINT('Origin',(-138.704013849986,-16.3657019842312,10.1035162724936));
#921=CARTESIAN_POINT('',(-133.654013849986,-16.3657019842312,10.1035162724936));
#922=CARTESIAN_POINT('Origin',(-138.704013849986,-16.3657019842312,10.1035162724936));
#923=CARTESIAN_POINT('',(-133.654013849986,-16.3657019842312,8.1035162724936));
#924=CARTESIAN_POINT('',(-133.654013849986,-16.3657019842312,10.1035162724936));
#925=CARTESIAN_POINT('Origin',(-138.704013849986,-16.3657019842312,8.1035162724936));
#926=CARTESIAN_POINT('Origin',(-138.704013849986,-16.3657019842312,8.1035162724936));
#927=CARTESIAN_POINT('Origin',(-94.2141820097149,10.8941077151325,10.1035162724936));
#928=CARTESIAN_POINT('',(-98.6873137943848,14.8929940647273,4.10351627249359));
#929=CARTESIAN_POINT('',(-94.2141820097149,10.8941077151325,4.10351627249359));
#930=CARTESIAN_POINT('',(-80.8589024805458,-1.04523312594187,4.10351627249359));
#931=CARTESIAN_POINT('',(-98.6873137943848,14.8929940647273,10.1035162724936));
#932=CARTESIAN_POINT('',(-98.6873137943848,14.8929940647273,10.1035162724936));
#933=CARTESIAN_POINT('',(-94.2141820097149,10.8941077151325,10.1035162724936));
#934=CARTESIAN_POINT('',(-75.7621834286145,-5.60159346263873,10.1035162724936));
#935=CARTESIAN_POINT('',(-94.2141820097147,10.8941077151323,45.1035162724936));
#936=CARTESIAN_POINT('Origin',(-111.218506361002,26.0956183805422,10.1035162724936));
#937=CARTESIAN_POINT('',(-116.579840933064,30.8885394631063,2.10351627249359));
#938=CARTESIAN_POINT('',(-111.218506361002,26.0956183805422,2.10351627249359));
#939=CARTESIAN_POINT('',(-84.2643456042623,1.99916187006663,2.10351627249359));
#940=CARTESIAN_POINT('',(-116.579840933064,30.8885394631063,10.1035162724936));
#941=CARTESIAN_POINT('',(-116.579840933064,30.8885394631064,45.1035162724936));
#942=CARTESIAN_POINT('',(-111.218506361002,26.0956183805422,10.1035162724936));
#943=CARTESIAN_POINT('',(-84.2643456042623,1.99916187006663,10.1035162724936));
#944=CARTESIAN_POINT('',(-111.218506361002,26.0956183805422,10.1035162724936));
#945=CARTESIAN_POINT('Origin',(-117.303248317721,23.4871979247768,10.1035162724936));
#946=CARTESIAN_POINT('',(-117.303248317721,23.4871979247768,2.10351627249359));
#947=CARTESIAN_POINT('',(-52.8812454538787,51.1037626479314,2.10351627249359));
#948=CARTESIAN_POINT('',(-117.303248317721,23.4871979247768,10.1035162724936));
#949=CARTESIAN_POINT('',(-52.8812454538787,51.1037626479314,10.1035162724936));
#950=CARTESIAN_POINT('',(-117.303248317721,23.4871979247768,10.1035162724936));
#951=CARTESIAN_POINT('Origin',(-109.848028676604,16.822387342119,10.1035162724936));
#952=CARTESIAN_POINT('',(-116.11115174201,22.4214884948985,2.10351627249359));
#953=CARTESIAN_POINT('Ctrl Pts',(-116.11115174201,22.4214884948985,2.10351627249359));
#954=CARTESIAN_POINT('Ctrl Pts',(-116.11115174201,22.4214884948985,2.43684960582692));
#955=CARTESIAN_POINT('Ctrl Pts',(-116.11115174201,22.4214884948985,2.77018293916026));
#956=CARTESIAN_POINT('Ctrl Pts',(-116.11115174201,22.4214884948985,3.43684960582692));
#957=CARTESIAN_POINT('Ctrl Pts',(-116.11115174201,22.4214884948985,3.77018293916026));
#958=CARTESIAN_POINT('Ctrl Pts',(-116.11115174201,22.4214884948985,4.10351627249359));
#959=CARTESIAN_POINT('',(-85.5785499368546,-4.87401954148079,2.10351627249359));
#960=CARTESIAN_POINT('',(-109.848028676604,16.822387342119,10.1035162724936));
#961=CARTESIAN_POINT('',(-85.5785499368546,-4.87401954148079,10.1035162724936));
#962=CARTESIAN_POINT('',(-109.848028676604,16.822387342119,10.1035162724936));
#963=CARTESIAN_POINT('Origin',(-107.934997934138,23.1602304556963,10.1035162724936));
#964=CARTESIAN_POINT('',(-107.934997934138,23.1602304556963,10.1035162724936));
#965=CARTESIAN_POINT('',(-97.1990285047518,58.7283415190266,10.1035162724936));
#966=CARTESIAN_POINT('',(-107.934997934138,23.1602304556963,10.1035162724936));
#967=CARTESIAN_POINT('Origin',(-101.970822221245,17.82838198957,10.1035162724936));
#968=CARTESIAN_POINT('',(-101.970822221245,17.82838198957,10.1035162724936));
#969=CARTESIAN_POINT('',(-79.6405035343785,-2.13445632542012,10.1035162724936));
#970=CARTESIAN_POINT('',(-101.970822221245,17.82838198957,10.1035162724936));
#971=CARTESIAN_POINT('Origin',(-108.055564177968,15.2199615338078,10.1035162724936));
#972=CARTESIAN_POINT('',(-108.055564177968,15.2199615338078,10.1035162724936));
#973=CARTESIAN_POINT('',(-46.0426757775203,41.8037818133015,10.1035162724936));
#974=CARTESIAN_POINT('',(-108.055564177968,15.2199615338078,10.1035162724936));
#975=CARTESIAN_POINT('Origin',(-100.600344536852,8.55515095114972,10.1035162724936));
#976=CARTESIAN_POINT('',(-100.872916298884,8.79882441103166,2.10351627249359));
#977=CARTESIAN_POINT('',(-100.600344536852,8.55515095114972,2.10351627249359));
#978=CARTESIAN_POINT('',(-80.9547078669807,-9.00763773696495,2.10351627249359));
#979=CARTESIAN_POINT('Ctrl Pts',(-100.872916298884,8.79882441103166,4.10351627249359));
#980=CARTESIAN_POINT('Ctrl Pts',(-100.872916298884,8.79882441103166,3.77018293916026));
#981=CARTESIAN_POINT('Ctrl Pts',(-100.872916298884,8.79882441103166,3.43684960582692));
#982=CARTESIAN_POINT('Ctrl Pts',(-100.872916298884,8.79882441103166,2.77018293916026));
#983=CARTESIAN_POINT('Ctrl Pts',(-100.872916298884,8.79882441103166,2.43684960582692));
#984=CARTESIAN_POINT('Ctrl Pts',(-100.872916298884,8.79882441103166,2.10351627249359));
#985=CARTESIAN_POINT('',(-100.600344536852,8.55515095114972,10.1035162724936));
#986=CARTESIAN_POINT('',(-80.9547078669807,-9.00763773696495,10.1035162724936));
#987=CARTESIAN_POINT('',(-100.600344536852,8.55515095114972,10.1035162724936));
#988=CARTESIAN_POINT('Origin',(-98.6873137943848,14.8929940647273,10.1035162724936));
#989=CARTESIAN_POINT('',(-100.509737073319,8.8553321641551,4.10351627249359));
#990=CARTESIAN_POINT('',(-83.7339334318029,64.4333264032923,4.10351627249359));
#991=CARTESIAN_POINT('',(-100.509737073319,8.8553321641551,2.10351627249359));
#992=CARTESIAN_POINT('Ctrl Pts',(-100.509737073319,8.8553321641551,2.10351627249359));
#993=CARTESIAN_POINT('Ctrl Pts',(-100.509737073319,8.8553321641551,2.43684960582692));
#994=CARTESIAN_POINT('Ctrl Pts',(-100.509737073319,8.8553321641551,2.77018293916026));
#995=CARTESIAN_POINT('Ctrl Pts',(-100.509737073319,8.8553321641551,3.43684960582692));
#996=CARTESIAN_POINT('Ctrl Pts',(-100.509737073319,8.8553321641551,3.77018293916026));
#997=CARTESIAN_POINT('Ctrl Pts',(-100.509737073319,8.8553321641551,4.10351627249359));
#998=CARTESIAN_POINT('',(-87.1939235797899,52.9704292079294,2.10351627249359));
#999=CARTESIAN_POINT('',(-87.1939235797899,52.9704292079294,10.1035162724936));
#1000=CARTESIAN_POINT('Origin',(-94.1971314750212,10.9131803473643,80.1035162724936));
#1001=CARTESIAN_POINT('',(-127.521184388311,-26.3629178582182,10.1035162724936));
#1002=CARTESIAN_POINT('',(-56.332039467313,53.2688593494173,10.1035162724936));
#1003=CARTESIAN_POINT('',(-127.521184388311,-26.3629178582182,80.1035162724936));
#1004=CARTESIAN_POINT('',(-115.024220075767,-12.3838838494143,2.10351627249359));
#1005=CARTESIAN_POINT('',(-115.024220075767,-12.3838838494142,2.10351627249359));
#1006=CARTESIAN_POINT('',(-112.951616807274,-10.0654814876553,2.10351627249359));
#1007=CARTESIAN_POINT('',(-94.1971314750212,10.9131803473643,2.10351627249359));
#1008=CARTESIAN_POINT('',(-112.951616807274,-10.0654814876553,4.10351627249359));
#1009=CARTESIAN_POINT('',(-112.951616807274,-10.0654814876553,2.10351627249359));
#1010=CARTESIAN_POINT('',(-49.6514782908004,60.741697516253,4.10351627249359));
#1011=CARTESIAN_POINT('Origin',(18.4370497025956,62.6331359959283,10.1035162724936));
#1012=CARTESIAN_POINT('',(-149.886843311661,-6.36848611024427,10.1035162724936));
#1013=CARTESIAN_POINT('',(-95.3597248473077,54.6252419946001,10.1035162724936));
#1014=CARTESIAN_POINT('Origin',(-138.704013849986,-16.3657019842312,10.1035162724936));
#1015=CARTESIAN_POINT('Ctrl Pts',(-118.783145875264,11.3358148830542,2.10351627249359));
#1016=CARTESIAN_POINT('Ctrl Pts',(-118.783145875264,11.3358148830542,4.50351627249359));
#1017=CARTESIAN_POINT('Ctrl Pts',(-113.863110271423,7.28508183811199,2.10351627249359));
#1018=CARTESIAN_POINT('Ctrl Pts',(-113.863110271423,7.28508183811199,4.50351627249359));
#1019=CARTESIAN_POINT('Ctrl Pts',(-104.917653385132,7.79108373655967,2.10351627249359));
#1020=CARTESIAN_POINT('Ctrl Pts',(-104.917653385132,7.79108373655967,4.50351627249359));
#1021=CARTESIAN_POINT('Ctrl Pts',(-96.8005939318034,9.55620855345421,2.10351627249359));
#1022=CARTESIAN_POINT('Ctrl Pts',(-96.8005939318034,9.55620855345421,4.50351627249359));
#1023=CARTESIAN_POINT('',(-118.783145875264,11.3358148830542,2.10351627249359));
#1024=CARTESIAN_POINT('Ctrl Pts',(-118.783145875264,11.3358148830542,2.10351627249359));
#1025=CARTESIAN_POINT('Ctrl Pts',(-114.676608633866,7.95484623904027,2.10351627249359));
#1026=CARTESIAN_POINT('Ctrl Pts',(-107.765759080414,7.74832990892969,2.10351627249359));
#1027=CARTESIAN_POINT('Ctrl Pts',(-100.872916298884,8.79882441103166,2.10351627249359));
#1028=CARTESIAN_POINT('',(-118.783145875264,11.3358148830542,2.10351627249359));
#1029=CARTESIAN_POINT('Origin',(21.6047339517581,86.6915330029934,4.10351627249359));
#1030=CARTESIAN_POINT('',(-96.8005939318034,9.55620855345421,4.10351627249359));
#1031=CARTESIAN_POINT('Ctrl Pts',(-96.8005939318034,9.55620855345421,4.10351627249359));
#1032=CARTESIAN_POINT('Ctrl Pts',(-104.848088589546,3.68536860205526,4.10351627249359));
#1033=CARTESIAN_POINT('Ctrl Pts',(-109.938402856555,-2.68790197337889,4.10351627249359));
#1034=CARTESIAN_POINT('Ctrl Pts',(-112.951616807274,-10.0654814876553,4.10351627249359));
#1035=CARTESIAN_POINT('Ctrl Pts',(-100.509737073319,8.8553321641551,4.10351627249359));
#1036=CARTESIAN_POINT('Ctrl Pts',(-99.2656178971241,9.05284704454513,4.10351627249359));
#1037=CARTESIAN_POINT('Ctrl Pts',(-98.0237013114505,9.29023326992261,4.10351627249359));
#1038=CARTESIAN_POINT('Ctrl Pts',(-96.8005939318034,9.55620855345421,4.10351627249359));
#1039=CARTESIAN_POINT('Origin',(-149.886843311661,-6.36848611024427,80.1035162724936));
#1040=CARTESIAN_POINT('',(-123.543433844489,23.0991035891031,2.10351627249359));
#1041=CARTESIAN_POINT('',(-99.7459253307405,49.7188627977105,2.10351627249359));
#1042=CARTESIAN_POINT('',(-123.543433844489,23.0991035891031,2.10351627249359));
#1043=CARTESIAN_POINT('',(-149.886843311661,-6.36848611024427,80.1035162724936));
#1044=CARTESIAN_POINT('Origin',(-138.704013849986,-16.3657019842312,80.1035162724936));
#1045=CARTESIAN_POINT('Origin',(18.4370497025956,62.6331359959283,2.10351627249359));
#1046=CARTESIAN_POINT('',(-96.8005939318034,9.55620855345421,2.10351627249359));
#1047=CARTESIAN_POINT('Ctrl Pts',(-100.509737073319,8.8553321641551,2.10351627249359));
#1048=CARTESIAN_POINT('Ctrl Pts',(-99.2656178971241,9.05284704454513,2.10351627249359));
#1049=CARTESIAN_POINT('Ctrl Pts',(-98.0237013114505,9.29023326992261,2.10351627249359));
#1050=CARTESIAN_POINT('Ctrl Pts',(-96.8005939318034,9.55620855345421,2.10351627249359));
#1051=CARTESIAN_POINT('Ctrl Pts',(-96.8005939318034,9.55620855345421,2.10351627249359));
#1052=CARTESIAN_POINT('Ctrl Pts',(-104.848088589546,3.68536860205526,2.10351627249359));
#1053=CARTESIAN_POINT('Ctrl Pts',(-109.938402856555,-2.68790197337889,2.10351627249359));
#1054=CARTESIAN_POINT('Ctrl Pts',(-112.951616807274,-10.0654814876553,2.10351627249359));
#1055=CARTESIAN_POINT('',(-132.809293933838,-11.1651820785394,2.10351627249359));
#1056=CARTESIAN_POINT('Ctrl Pts',(-115.024220075767,-12.3838838494142,2.10351627249359));
#1057=CARTESIAN_POINT('Ctrl Pts',(-119.072664545099,-8.25795206293229,2.10351627249359));
#1058=CARTESIAN_POINT('Ctrl Pts',(-127.290058625132,-5.78352491962109,2.10351627249359));
#1059=CARTESIAN_POINT('Ctrl Pts',(-132.809293933838,-11.1651820785394,2.10351627249359));
#1060=CARTESIAN_POINT('',(-127.089576844503,0.101462259432594,2.10351627249359));
#1061=CARTESIAN_POINT('Ctrl Pts',(-132.809293933838,-11.1651820785394,2.10351627249359));
#1062=CARTESIAN_POINT('Ctrl Pts',(-128.872381460795,-7.10747594501484,2.10351627249359));
#1063=CARTESIAN_POINT('Ctrl Pts',(-127.457366087565,-3.49562882091511,2.10351627249359));
#1064=CARTESIAN_POINT('Ctrl Pts',(-127.089576844503,0.101462259432594,2.10351627249359));
#1065=CARTESIAN_POINT('',(-120.978653013835,-1.17455804492939,2.10351627249359));
#1066=CARTESIAN_POINT('Ctrl Pts',(-127.089576844503,0.101462259432594,2.10351627249359));
#1067=CARTESIAN_POINT('Ctrl Pts',(-125.324095137248,-0.839479176063422,
2.10351627249359));
#1068=CARTESIAN_POINT('Ctrl Pts',(-122.576698235799,-1.67739597306558,2.10351627249359));
#1069=CARTESIAN_POINT('Ctrl Pts',(-120.978653013835,-1.17455804492939,2.10351627249359));
#1070=CARTESIAN_POINT('Ctrl Pts',(-120.978653013835,-1.17455804492939,2.10351627249359));
#1071=CARTESIAN_POINT('Ctrl Pts',(-119.949271401693,-0.602455933748765,
2.10351627249359));
#1072=CARTESIAN_POINT('Ctrl Pts',(-118.424965218831,4.09910099997214,2.10351627249359));
#1073=CARTESIAN_POINT('Ctrl Pts',(-118.783145875264,11.3358148830542,2.10351627249359));
#1074=CARTESIAN_POINT('Origin',(18.4370497025956,62.6331359959283,2.10351627249359));
#1075=CARTESIAN_POINT('Ctrl Pts',(-116.11115174201,22.4214884948985,2.10351627249359));
#1076=CARTESIAN_POINT('Ctrl Pts',(-118.940116875964,22.3518180332012,2.10351627249359));
#1077=CARTESIAN_POINT('Ctrl Pts',(-121.385491186328,22.6045394330615,2.10351627249359));
#1078=CARTESIAN_POINT('Ctrl Pts',(-123.543433844489,23.0991035891031,2.10351627249359));
#1079=CARTESIAN_POINT('Ctrl Pts',(-112.398212607035,22.6789847502519,2.10351627249359));
#1080=CARTESIAN_POINT('Ctrl Pts',(-112.398212607035,22.6789847502519,4.50351627249359));
#1081=CARTESIAN_POINT('Ctrl Pts',(-116.868620851947,22.1841667199912,2.10351627249359));
#1082=CARTESIAN_POINT('Ctrl Pts',(-116.868620851947,22.1841667199912,4.50351627249359));
#1083=CARTESIAN_POINT('Ctrl Pts',(-120.493171058465,22.4000346704875,2.10351627249359));
#1084=CARTESIAN_POINT('Ctrl Pts',(-120.493171058465,22.4000346704875,4.50351627249359));
#1085=CARTESIAN_POINT('Ctrl Pts',(-123.543433844489,23.0991035891031,2.10351627249359));
#1086=CARTESIAN_POINT('Ctrl Pts',(-123.543433844489,23.0991035891031,4.50351627249359));
#1087=CARTESIAN_POINT('Ctrl Pts',(-115.024220075767,-12.3838838494142,2.10351627249359));
#1088=CARTESIAN_POINT('Ctrl Pts',(-115.024220075767,-12.3838838494142,4.50351627249359));
#1089=CARTESIAN_POINT('Ctrl Pts',(-119.072664545099,-8.25795206293229,2.10351627249359));
#1090=CARTESIAN_POINT('Ctrl Pts',(-119.072664545099,-8.25795206293229,4.50351627249359));
#1091=CARTESIAN_POINT('Ctrl Pts',(-127.290058625132,-5.78352491962109,2.10351627249359));
#1092=CARTESIAN_POINT('Ctrl Pts',(-127.290058625132,-5.78352491962109,4.50351627249359));
#1093=CARTESIAN_POINT('Ctrl Pts',(-132.809293933838,-11.1651820785394,2.10351627249359));
#1094=CARTESIAN_POINT('Ctrl Pts',(-132.809293933838,-11.1651820785394,4.50351627249359));
#1095=CARTESIAN_POINT('',(-132.809293933838,-11.1651820785394,2.10351627249359));
#1096=CARTESIAN_POINT('Ctrl Pts',(-132.809293933838,-11.1651820785394,2.10351627249359));
#1097=CARTESIAN_POINT('Ctrl Pts',(-132.809293933838,-11.1651820785394,4.50351627249359));
#1098=CARTESIAN_POINT('Ctrl Pts',(-128.872381460795,-7.10747594501484,2.10351627249359));
#1099=CARTESIAN_POINT('Ctrl Pts',(-128.872381460795,-7.10747594501484,4.50351627249359));
#1100=CARTESIAN_POINT('Ctrl Pts',(-127.457366087565,-3.49562882091511,2.10351627249359));
#1101=CARTESIAN_POINT('Ctrl Pts',(-127.457366087565,-3.49562882091511,4.50351627249359));
#1102=CARTESIAN_POINT('Ctrl Pts',(-127.089576844503,0.101462259432594,2.10351627249359));
#1103=CARTESIAN_POINT('Ctrl Pts',(-127.089576844503,0.101462259432594,4.50351627249359));
#1104=CARTESIAN_POINT('',(-127.089576844503,0.101462259432594,2.10351627249359));
#1105=CARTESIAN_POINT('Ctrl Pts',(-127.089576844503,0.101462259432594,2.10351627249359));
#1106=CARTESIAN_POINT('Ctrl Pts',(-127.089576844503,0.101462259432594,4.50351627249359));
#1107=CARTESIAN_POINT('Ctrl Pts',(-125.324095137248,-0.839479176063422,
2.10351627249359));
#1108=CARTESIAN_POINT('Ctrl Pts',(-125.324095137248,-0.839479176063422,
4.50351627249359));
#1109=CARTESIAN_POINT('Ctrl Pts',(-122.576698235799,-1.67739597306558,2.10351627249359));
#1110=CARTESIAN_POINT('Ctrl Pts',(-122.576698235799,-1.67739597306558,4.50351627249359));
#1111=CARTESIAN_POINT('Ctrl Pts',(-120.978653013835,-1.17455804492939,2.10351627249359));
#1112=CARTESIAN_POINT('Ctrl Pts',(-120.978653013835,-1.17455804492939,4.50351627249359));
#1113=CARTESIAN_POINT('',(-120.978653013835,-1.17455804492939,2.10351627249359));
#1114=CARTESIAN_POINT('Ctrl Pts',(-120.978653013835,-1.17455804492939,2.10351627249359));
#1115=CARTESIAN_POINT('Ctrl Pts',(-120.978653013835,-1.17455804492939,4.50351627249359));
#1116=CARTESIAN_POINT('Ctrl Pts',(-119.949271401693,-0.602455933748765,
2.10351627249359));
#1117=CARTESIAN_POINT('Ctrl Pts',(-119.949271401693,-0.602455933748765,
4.50351627249359));
#1118=CARTESIAN_POINT('Ctrl Pts',(-118.424965218831,4.09910099997214,2.10351627249359));
#1119=CARTESIAN_POINT('Ctrl Pts',(-118.424965218831,4.09910099997214,4.50351627249359));
#1120=CARTESIAN_POINT('Ctrl Pts',(-118.783145875264,11.3358148830542,2.10351627249359));
#1121=CARTESIAN_POINT('Ctrl Pts',(-118.783145875264,11.3358148830542,4.50351627249359));
#1122=CARTESIAN_POINT('Ctrl Pts',(-118.783145875264,11.3358148830542,2.10351627249359));
#1123=CARTESIAN_POINT('Ctrl Pts',(-118.783145875264,11.3358148830542,4.50351627249359));
#1124=CARTESIAN_POINT('Ctrl Pts',(-113.863110271423,7.28508183811199,2.10351627249359));
#1125=CARTESIAN_POINT('Ctrl Pts',(-113.863110271423,7.28508183811199,4.50351627249359));
#1126=CARTESIAN_POINT('Ctrl Pts',(-104.917653385132,7.79108373655967,2.10351627249359));
#1127=CARTESIAN_POINT('Ctrl Pts',(-104.917653385132,7.79108373655967,4.50351627249359));
#1128=CARTESIAN_POINT('Ctrl Pts',(-96.8005939318034,9.55620855345421,2.10351627249359));
#1129=CARTESIAN_POINT('Ctrl Pts',(-96.8005939318034,9.55620855345421,4.50351627249359));
#1130=CARTESIAN_POINT('',(-96.8005939318034,9.55620855345421,2.10351627249359));
#1131=CARTESIAN_POINT('Ctrl Pts',(-96.8005939318034,9.55620855345421,2.10351627249359));
#1132=CARTESIAN_POINT('Ctrl Pts',(-96.8005939318034,9.55620855345421,4.50351627249359));
#1133=CARTESIAN_POINT('Ctrl Pts',(-104.848088589546,3.68536860205526,2.10351627249359));
#1134=CARTESIAN_POINT('Ctrl Pts',(-104.848088589546,3.68536860205526,4.50351627249359));
#1135=CARTESIAN_POINT('Ctrl Pts',(-109.938402856555,-2.68790197337889,2.10351627249359));
#1136=CARTESIAN_POINT('Ctrl Pts',(-109.938402856555,-2.68790197337889,4.50351627249359));
#1137=CARTESIAN_POINT('Ctrl Pts',(-112.951616807274,-10.0654814876553,2.10351627249359));
#1138=CARTESIAN_POINT('Ctrl Pts',(-112.951616807274,-10.0654814876553,4.50351627249359));
#1139=UNCERTAINTY_MEASURE_WITH_UNIT(LENGTH_MEASURE(0.01),#1143,
'DISTANCE_ACCURACY_VALUE',
'Maximum model space distance between geometric entities at asserted c
onnectivities');
#1140=UNCERTAINTY_MEASURE_WITH_UNIT(LENGTH_MEASURE(0.01),#1143,
'DISTANCE_ACCURACY_VALUE',
'Maximum model space distance between geometric entities at asserted c
onnectivities');
#1141=(
GEOMETRIC_REPRESENTATION_CONTEXT(3)
GLOBAL_UNCERTAINTY_ASSIGNED_CONTEXT((#1139))
GLOBAL_UNIT_ASSIGNED_CONTEXT((#1143,#1145,#1146))
REPRESENTATION_CONTEXT('','3D')
);
#1142=(
GEOMETRIC_REPRESENTATION_CONTEXT(3)
GLOBAL_UNCERTAINTY_ASSIGNED_CONTEXT((#1140))
GLOBAL_UNIT_ASSIGNED_CONTEXT((#1143,#1145,#1146))
REPRESENTATION_CONTEXT('','3D')
);
#1143=(
LENGTH_UNIT()
NAMED_UNIT(*)
SI_UNIT(.MILLI.,.METRE.)
);
#1144=(
LENGTH_UNIT()
NAMED_UNIT(*)
SI_UNIT($,.METRE.)
);
#1145=(
NAMED_UNIT(*)
PLANE_ANGLE_UNIT()
SI_UNIT($,.RADIAN.)
);
#1146=(
NAMED_UNIT(*)
SI_UNIT($,.STERADIAN.)
SOLID_ANGLE_UNIT()
);
#1147=SHAPE_DEFINITION_REPRESENTATION(#1148,#1149);
#1148=PRODUCT_DEFINITION_SHAPE('',$,#1151);
#1149=SHAPE_REPRESENTATION('',(#639),#1141);
#1150=PRODUCT_DEFINITION_CONTEXT('part definition',#1155,'design');
#1151=PRODUCT_DEFINITION('FusionComponent','Component51 v3',#1152,#1150);
#1152=PRODUCT_DEFINITION_FORMATION('',$,#1157);
#1153=PRODUCT_RELATED_PRODUCT_CATEGORY('Component51 v3',
'Component51 v3',(#1157));
#1154=APPLICATION_PROTOCOL_DEFINITION('international standard',
'automotive_design',2009,#1155);
#1155=APPLICATION_CONTEXT(
'Core Data for Automotive Mechanical Design Process');
#1156=PRODUCT_CONTEXT('part definition',#1155,'mechanical');
#1157=PRODUCT('FusionComponent','Component51 v3',$,(#1156));
#1158=PRESENTATION_STYLE_ASSIGNMENT((#1160));
#1159=PRESENTATION_STYLE_ASSIGNMENT((#1161));
#1160=SURFACE_STYLE_USAGE(.BOTH.,#1162);
#1161=SURFACE_STYLE_USAGE(.BOTH.,#1163);
#1162=SURFACE_SIDE_STYLE('',(#1164));
#1163=SURFACE_SIDE_STYLE('',(#1165));
#1164=SURFACE_STYLE_FILL_AREA(#1166);
#1165=SURFACE_STYLE_FILL_AREA(#1167);
#1166=FILL_AREA_STYLE('Steel - Satin',(#1168));
#1167=FILL_AREA_STYLE('Opaque(243,203,124)',(#1169));
#1168=FILL_AREA_STYLE_COLOUR('Steel - Satin',#1170);
#1169=FILL_AREA_STYLE_COLOUR('Opaque(243,203,124)',#1171);
#1170=COLOUR_RGB('Steel - Satin',0.627450980392157,0.627450980392157,0.627450980392157);
#1171=COLOUR_RGB('Opaque(243,203,124)',0.952941176470588,0.796078431372549,
0.486274509803922);
ENDSEC;
END-ISO-10303-21;
