ISO-10303-21;
HEADER;
/* Generated by software containing ST-Developer
 * from STEP Tools, Inc. (www.steptools.com) 
 */

FILE_DESCRIPTION(
/* description */ (''),
/* implementation_level */ '2;1');

FILE_NAME(
/* name */ 'ustorumcekbacak2.step',
/* time_stamp */ '2026-08-19T14:00:41+03:00',
/* author */ (''),
/* organization */ (''),
/* preprocessor_version */ 'ST-DEVELOPER v20.1',
/* originating_system */ 'Autodesk Translation Framework v15.8.0.0',
/* authorisation */ '');

FILE_SCHEMA (('AUTOMOTIVE_DESIGN { 1 0 10303 214 3 1 1 }'));
ENDSEC;

DATA;
#10=MECHANICAL_DESIGN_GEOMETRIC_PRESENTATION_REPRESENTATION('',(#13),#1027);
#11=SHAPE_REPRESENTATION_RELATIONSHIP('SRR','None',#1034,#12);
#12=ADVANCED_BREP_SHAPE_REPRESENTATION('',(#14),#1026);
#13=STYLED_ITEM('',(#1044),#14);
#14=MANIFOLD_SOLID_BREP('Body8',#579);
#15=ELLIPSE('',#604,50.4170400148332,37.5140510969501);
#16=ELLIPSE('',#605,50.4170400148332,37.5140510969501);
#17=B_SPLINE_CURVE_WITH_KNOTS('',3,(#788,#789,#790,#791),.UNSPECIFIED.,
 .F.,.F.,(4,4),(0.448257791473639,1.),.UNSPECIFIED.);
#18=B_SPLINE_CURVE_WITH_KNOTS('',3,(#795,#796,#797,#798),.UNSPECIFIED.,
 .F.,.F.,(4,4),(0.448257791473639,1.),.UNSPECIFIED.);
#19=B_SPLINE_CURVE_WITH_KNOTS('',3,(#810,#811,#812,#813),.UNSPECIFIED.,
 .F.,.F.,(4,4),(0.269925040332899,0.67159496359326),.UNSPECIFIED.);
#20=B_SPLINE_CURVE_WITH_KNOTS('',3,(#817,#818,#819,#820),.UNSPECIFIED.,
 .F.,.F.,(4,4),(0.269925040332899,0.67159496359326),.UNSPECIFIED.);
#21=B_SPLINE_CURVE_WITH_KNOTS('',3,(#847,#848,#849,#850),.UNSPECIFIED.,
 .F.,.F.,(4,4),(0.393681876359332,1.),.UNSPECIFIED.);
#22=B_SPLINE_CURVE_WITH_KNOTS('',3,(#853,#854,#855,#856),.UNSPECIFIED.,
 .F.,.F.,(4,4),(0.393681876359332,1.),.UNSPECIFIED.);
#23=B_SPLINE_CURVE_WITH_KNOTS('',3,(#866,#867,#868,#869),.UNSPECIFIED.,
 .F.,.F.,(4,4),(0.,0.304731610516127),.UNSPECIFIED.);
#24=B_SPLINE_CURVE_WITH_KNOTS('',3,(#871,#872,#873,#874),.UNSPECIFIED.,
 .F.,.F.,(4,4),(0.,0.304731610516127),.UNSPECIFIED.);
#25=B_SPLINE_CURVE_WITH_KNOTS('',3,(#903,#904,#905,#906,#907,#908),
 .UNSPECIFIED.,.F.,.F.,(4,2,4),(-0.2,-0.1,0.),.UNSPECIFIED.);
#26=B_SPLINE_CURVE_WITH_KNOTS('',3,(#910,#911,#912,#913),.UNSPECIFIED.,
 .F.,.F.,(4,4),(-0.458865380236541,-0.031758757311848),.UNSPECIFIED.);
#27=B_SPLINE_CURVE_WITH_KNOTS('',3,(#916,#917,#918,#919),.UNSPECIFIED.,
 .F.,.F.,(4,4),(-0.458865380236541,-0.031758757311848),.UNSPECIFIED.);
#28=B_SPLINE_CURVE_WITH_KNOTS('',3,(#925,#926,#927,#928),.UNSPECIFIED.,
 .F.,.F.,(4,4),(-0.977442492683675,-0.898605183084806),.UNSPECIFIED.);
#29=B_SPLINE_CURVE_WITH_KNOTS('',3,(#944,#945,#946,#947,#948,#949),
 .UNSPECIFIED.,.F.,.F.,(4,2,4),(-0.2,-0.1,0.),.UNSPECIFIED.);
#30=B_SPLINE_CURVE_WITH_KNOTS('',3,(#951,#952,#953,#954),.UNSPECIFIED.,
 .F.,.F.,(4,4),(-0.977442492683675,-0.898605183084806),.UNSPECIFIED.);
#31=B_SPLINE_CURVE_WITH_KNOTS('',3,(#955,#956,#957,#958,#959,#960),
 .UNSPECIFIED.,.F.,.F.,(4,2,4),(-0.2,-0.1,0.),.UNSPECIFIED.);
#32=B_SPLINE_SURFACE_WITH_KNOTS('',3,1,((#778,#779),(#780,#781),(#782,#783),
(#784,#785)),.UNSPECIFIED.,.F.,.F.,.F.,(4,4),(2,2),(0.448257791473639,1.),
(0.,0.24),.UNSPECIFIED.);
#33=B_SPLINE_SURFACE_WITH_KNOTS('',3,1,((#800,#801),(#802,#803),(#804,#805),
(#806,#807)),.UNSPECIFIED.,.F.,.F.,.F.,(4,4),(2,2),(0.269925040332899,0.67159496359326),
(0.,0.24),.UNSPECIFIED.);
#34=B_SPLINE_SURFACE_WITH_KNOTS('',3,1,((#822,#823),(#824,#825),(#826,#827),
(#828,#829)),.UNSPECIFIED.,.F.,.F.,.F.,(4,4),(2,2),(0.,0.327995594691716),
(0.,0.24),.UNSPECIFIED.);
#35=B_SPLINE_SURFACE_WITH_KNOTS('',3,1,((#838,#839),(#840,#841),(#842,#843),
(#844,#845)),.UNSPECIFIED.,.F.,.F.,.F.,(4,4),(2,2),(0.393681876359332,1.),
(0.,0.24),.UNSPECIFIED.);
#36=B_SPLINE_SURFACE_WITH_KNOTS('',3,1,((#857,#858),(#859,#860),(#861,#862),
(#863,#864)),.UNSPECIFIED.,.F.,.F.,.F.,(4,4),(2,2),(0.,0.304731610516127),
(0.,0.24),.UNSPECIFIED.);
#37=B_SPLINE_SURFACE_WITH_KNOTS('',3,1,((#893,#894),(#895,#896),(#897,#898),
(#899,#900)),.UNSPECIFIED.,.F.,.F.,.F.,(4,4),(2,2),(-0.458865380236541,
0.),(0.,0.24),.UNSPECIFIED.);
#38=B_SPLINE_SURFACE_WITH_KNOTS('',3,1,((#935,#936),(#937,#938),(#939,#940),
(#941,#942)),.UNSPECIFIED.,.F.,.F.,.F.,(4,4),(2,2),(-1.,0.),(0.,0.24),
 .UNSPECIFIED.);
#39=LINE('',#765,#93);
#40=LINE('',#770,#94);
#41=LINE('',#775,#95);
#42=LINE('',#793,#96);
#43=LINE('',#799,#97);
#44=LINE('',#815,#98);
#45=LINE('',#821,#99);
#46=LINE('',#834,#100);
#47=LINE('',#837,#101);
#48=LINE('',#852,#102);
#49=LINE('',#875,#103);
#50=LINE('',#881,#104);
#51=LINE('',#885,#105);
#52=LINE('',#888,#106);
#53=LINE('',#890,#107);
#54=LINE('',#892,#108);
#55=LINE('',#915,#109);
#56=LINE('',#923,#110);
#57=LINE('',#930,#111);
#58=LINE('',#931,#112);
#59=LINE('',#932,#113);
#60=LINE('',#933,#114);
#61=LINE('',#934,#115);
#62=LINE('',#964,#116);
#63=LINE('',#965,#117);
#64=LINE('',#967,#118);
#65=LINE('',#969,#119);
#66=LINE('',#971,#120);
#67=LINE('',#973,#121);
#68=LINE('',#975,#122);
#69=LINE('',#976,#123);
#70=LINE('',#979,#124);
#71=LINE('',#980,#125);
#72=LINE('',#983,#126);
#73=LINE('',#984,#127);
#74=LINE('',#987,#128);
#75=LINE('',#988,#129);
#76=LINE('',#991,#130);
#77=LINE('',#993,#131);
#78=LINE('',#995,#132);
#79=LINE('',#997,#133);
#80=LINE('',#999,#134);
#81=LINE('',#1001,#135);
#82=LINE('',#1003,#136);
#83=LINE('',#1005,#137);
#84=LINE('',#1006,#138);
#85=LINE('',#1008,#139);
#86=LINE('',#1010,#140);
#87=LINE('',#1012,#141);
#88=LINE('',#1014,#142);
#89=LINE('',#1016,#143);
#90=LINE('',#1018,#144);
#91=LINE('',#1020,#145);
#92=LINE('',#1022,#146);
#93=VECTOR('',#639,2.70000000000001);
#94=VECTOR('',#646,1.5);
#95=VECTOR('',#651,5.05000000000001);
#96=VECTOR('',#656,10.);
#97=VECTOR('',#657,10.);
#98=VECTOR('',#658,10.);
#99=VECTOR('',#659,10.);
#100=VECTOR('',#662,10.);
#101=VECTOR('',#665,10.);
#102=VECTOR('',#666,10.);
#103=VECTOR('',#667,10.);
#104=VECTOR('',#674,10.);
#105=VECTOR('',#677,10.);
#106=VECTOR('',#682,10.);
#107=VECTOR('',#685,10.);
#108=VECTOR('',#688,10.);
#109=VECTOR('',#689,10.);
#110=VECTOR('',#692,10.);
#111=VECTOR('',#693,10.);
#112=VECTOR('',#694,10.);
#113=VECTOR('',#695,10.);
#114=VECTOR('',#696,10.);
#115=VECTOR('',#697,10.);
#116=VECTOR('',#700,10.);
#117=VECTOR('',#701,10.);
#118=VECTOR('',#702,10.);
#119=VECTOR('',#703,10.);
#120=VECTOR('',#704,10.);
#121=VECTOR('',#705,10.);
#122=VECTOR('',#706,10.);
#123=VECTOR('',#707,10.);
#124=VECTOR('',#710,10.);
#125=VECTOR('',#711,10.);
#126=VECTOR('',#714,10.);
#127=VECTOR('',#715,10.);
#128=VECTOR('',#718,10.);
#129=VECTOR('',#719,10.);
#130=VECTOR('',#722,10.);
#131=VECTOR('',#723,10.);
#132=VECTOR('',#724,10.);
#133=VECTOR('',#725,10.);
#134=VECTOR('',#726,10.);
#135=VECTOR('',#727,10.);
#136=VECTOR('',#728,10.);
#137=VECTOR('',#729,10.);
#138=VECTOR('',#730,10.);
#139=VECTOR('',#733,10.);
#140=VECTOR('',#736,10.);
#141=VECTOR('',#739,10.);
#142=VECTOR('',#742,10.);
#143=VECTOR('',#745,10.);
#144=VECTOR('',#748,10.);
#145=VECTOR('',#751,10.);
#146=VECTOR('',#754,10.);
#147=CYLINDRICAL_SURFACE('',#596,2.70000000000001);
#148=CYLINDRICAL_SURFACE('',#598,1.5);
#149=CYLINDRICAL_SURFACE('',#600,5.05000000000001);
#150=CYLINDRICAL_SURFACE('',#606,15.);
#151=FACE_BOUND('',#187,.T.);
#152=FACE_BOUND('',#192,.T.);
#153=FACE_BOUND('',#204,.T.);
#154=FACE_BOUND('',#211,.T.);
#155=FACE_OUTER_BOUND('',#186,.T.);
#156=FACE_OUTER_BOUND('',#188,.T.);
#157=FACE_OUTER_BOUND('',#189,.T.);
#158=FACE_OUTER_BOUND('',#190,.T.);
#159=FACE_OUTER_BOUND('',#191,.T.);
#160=FACE_OUTER_BOUND('',#193,.T.);
#161=FACE_OUTER_BOUND('',#194,.T.);
#162=FACE_OUTER_BOUND('',#195,.T.);
#163=FACE_OUTER_BOUND('',#196,.T.);
#164=FACE_OUTER_BOUND('',#197,.T.);
#165=FACE_OUTER_BOUND('',#198,.T.);
#166=FACE_OUTER_BOUND('',#199,.T.);
#167=FACE_OUTER_BOUND('',#200,.T.);
#168=FACE_OUTER_BOUND('',#201,.T.);
#169=FACE_OUTER_BOUND('',#202,.T.);
#170=FACE_OUTER_BOUND('',#203,.T.);
#171=FACE_OUTER_BOUND('',#205,.T.);
#172=FACE_OUTER_BOUND('',#206,.T.);
#173=FACE_OUTER_BOUND('',#207,.T.);
#174=FACE_OUTER_BOUND('',#208,.T.);
#175=FACE_OUTER_BOUND('',#209,.T.);
#176=FACE_OUTER_BOUND('',#210,.T.);
#177=FACE_OUTER_BOUND('',#212,.T.);
#178=FACE_OUTER_BOUND('',#213,.T.);
#179=FACE_OUTER_BOUND('',#214,.T.);
#180=FACE_OUTER_BOUND('',#215,.T.);
#181=FACE_OUTER_BOUND('',#216,.T.);
#182=FACE_OUTER_BOUND('',#217,.T.);
#183=FACE_OUTER_BOUND('',#218,.T.);
#184=FACE_OUTER_BOUND('',#219,.T.);
#185=FACE_OUTER_BOUND('',#220,.T.);
#186=EDGE_LOOP('',(#366));
#187=EDGE_LOOP('',(#367));
#188=EDGE_LOOP('',(#368,#369,#370,#371));
#189=EDGE_LOOP('',(#372,#373,#374,#375));
#190=EDGE_LOOP('',(#376,#377,#378,#379));
#191=EDGE_LOOP('',(#380));
#192=EDGE_LOOP('',(#381));
#193=EDGE_LOOP('',(#382,#383,#384,#385));
#194=EDGE_LOOP('',(#386,#387,#388,#389));
#195=EDGE_LOOP('',(#390,#391,#392,#393));
#196=EDGE_LOOP('',(#394,#395,#396,#397));
#197=EDGE_LOOP('',(#398,#399,#400,#401));
#198=EDGE_LOOP('',(#402,#403,#404,#405,#406,#407,#408,#409));
#199=EDGE_LOOP('',(#410,#411,#412));
#200=EDGE_LOOP('',(#413,#414,#415,#416));
#201=EDGE_LOOP('',(#417,#418,#419));
#202=EDGE_LOOP('',(#420,#421,#422,#423));
#203=EDGE_LOOP('',(#424,#425,#426,#427,#428,#429,#430,#431,#432,#433,#434,
#435,#436,#437));
#204=EDGE_LOOP('',(#438));
#205=EDGE_LOOP('',(#439,#440,#441,#442));
#206=EDGE_LOOP('',(#443,#444,#445,#446,#447,#448,#449,#450,#451));
#207=EDGE_LOOP('',(#452,#453,#454));
#208=EDGE_LOOP('',(#455,#456,#457,#458,#459,#460,#461,#462));
#209=EDGE_LOOP('',(#463,#464,#465,#466,#467,#468,#469,#470,#471,#472));
#210=EDGE_LOOP('',(#473,#474,#475,#476,#477,#478,#479,#480,#481,#482,#483,
#484));
#211=EDGE_LOOP('',(#485));
#212=EDGE_LOOP('',(#486,#487,#488,#489));
#213=EDGE_LOOP('',(#490,#491,#492,#493));
#214=EDGE_LOOP('',(#494,#495,#496,#497));
#215=EDGE_LOOP('',(#498,#499,#500,#501));
#216=EDGE_LOOP('',(#502,#503,#504,#505));
#217=EDGE_LOOP('',(#506,#507,#508,#509));
#218=EDGE_LOOP('',(#510,#511,#512,#513,#514,#515));
#219=EDGE_LOOP('',(#516,#517,#518,#519,#520,#521));
#220=EDGE_LOOP('',(#522,#523,#524,#525,#526,#527));
#221=CIRCLE('',#594,2.70000000000001);
#222=CIRCLE('',#595,1.5);
#223=CIRCLE('',#597,2.70000000000001);
#224=CIRCLE('',#599,1.5);
#225=CIRCLE('',#601,5.05000000000001);
#226=CIRCLE('',#602,5.05000000000001);
#227=CIRCLE('',#607,15.);
#228=CIRCLE('',#608,15.);
#229=CIRCLE('',#609,15.);
#230=CIRCLE('',#610,15.);
#231=VERTEX_POINT('',#759);
#232=VERTEX_POINT('',#761);
#233=VERTEX_POINT('',#764);
#234=VERTEX_POINT('',#768);
#235=VERTEX_POINT('',#772);
#236=VERTEX_POINT('',#774);
#237=VERTEX_POINT('',#786);
#238=VERTEX_POINT('',#787);
#239=VERTEX_POINT('',#792);
#240=VERTEX_POINT('',#794);
#241=VERTEX_POINT('',#808);
#242=VERTEX_POINT('',#809);
#243=VERTEX_POINT('',#814);
#244=VERTEX_POINT('',#816);
#245=VERTEX_POINT('',#830);
#246=VERTEX_POINT('',#831);
#247=VERTEX_POINT('',#833);
#248=VERTEX_POINT('',#835);
#249=VERTEX_POINT('',#846);
#250=VERTEX_POINT('',#851);
#251=VERTEX_POINT('',#865);
#252=VERTEX_POINT('',#870);
#253=VERTEX_POINT('',#878);
#254=VERTEX_POINT('',#880);
#255=VERTEX_POINT('',#882);
#256=VERTEX_POINT('',#884);
#257=VERTEX_POINT('',#901);
#258=VERTEX_POINT('',#902);
#259=VERTEX_POINT('',#909);
#260=VERTEX_POINT('',#914);
#261=VERTEX_POINT('',#921);
#262=VERTEX_POINT('',#922);
#263=VERTEX_POINT('',#924);
#264=VERTEX_POINT('',#929);
#265=VERTEX_POINT('',#943);
#266=VERTEX_POINT('',#950);
#267=VERTEX_POINT('',#962);
#268=VERTEX_POINT('',#963);
#269=VERTEX_POINT('',#966);
#270=VERTEX_POINT('',#968);
#271=VERTEX_POINT('',#970);
#272=VERTEX_POINT('',#972);
#273=VERTEX_POINT('',#974);
#274=VERTEX_POINT('',#978);
#275=VERTEX_POINT('',#982);
#276=VERTEX_POINT('',#986);
#277=VERTEX_POINT('',#990);
#278=VERTEX_POINT('',#992);
#279=VERTEX_POINT('',#994);
#280=VERTEX_POINT('',#996);
#281=VERTEX_POINT('',#998);
#282=VERTEX_POINT('',#1000);
#283=VERTEX_POINT('',#1002);
#284=VERTEX_POINT('',#1004);
#285=EDGE_CURVE('',#231,#231,#221,.T.);
#286=EDGE_CURVE('',#232,#232,#222,.T.);
#287=EDGE_CURVE('',#231,#233,#39,.T.);
#288=EDGE_CURVE('',#233,#233,#223,.T.);
#289=EDGE_CURVE('',#234,#234,#224,.T.);
#290=EDGE_CURVE('',#234,#232,#40,.T.);
#291=EDGE_CURVE('',#235,#235,#225,.T.);
#292=EDGE_CURVE('',#235,#236,#41,.T.);
#293=EDGE_CURVE('',#236,#236,#226,.T.);
#294=EDGE_CURVE('',#237,#238,#17,.T.);
#295=EDGE_CURVE('',#239,#237,#42,.T.);
#296=EDGE_CURVE('',#239,#240,#18,.T.);
#297=EDGE_CURVE('',#238,#240,#43,.T.);
#298=EDGE_CURVE('',#241,#242,#19,.T.);
#299=EDGE_CURVE('',#243,#241,#44,.T.);
#300=EDGE_CURVE('',#243,#244,#20,.T.);
#301=EDGE_CURVE('',#242,#244,#45,.T.);
#302=EDGE_CURVE('',#245,#246,#15,.T.);
#303=EDGE_CURVE('',#245,#247,#46,.T.);
#304=EDGE_CURVE('',#247,#248,#16,.T.);
#305=EDGE_CURVE('',#246,#248,#47,.T.);
#306=EDGE_CURVE('',#249,#245,#21,.T.);
#307=EDGE_CURVE('',#250,#249,#48,.T.);
#308=EDGE_CURVE('',#250,#247,#22,.T.);
#309=EDGE_CURVE('',#238,#251,#23,.T.);
#310=EDGE_CURVE('',#240,#252,#24,.T.);
#311=EDGE_CURVE('',#251,#252,#49,.T.);
#312=EDGE_CURVE('',#244,#239,#227,.T.);
#313=EDGE_CURVE('',#253,#237,#228,.T.);
#314=EDGE_CURVE('',#254,#253,#50,.T.);
#315=EDGE_CURVE('',#254,#255,#229,.T.);
#316=EDGE_CURVE('',#255,#256,#51,.T.);
#317=EDGE_CURVE('',#242,#256,#230,.T.);
#318=EDGE_CURVE('',#246,#249,#52,.T.);
#319=EDGE_CURVE('',#251,#253,#53,.T.);
#320=EDGE_CURVE('',#256,#241,#54,.T.);
#321=EDGE_CURVE('',#257,#258,#25,.T.);
#322=EDGE_CURVE('',#259,#258,#26,.T.);
#323=EDGE_CURVE('',#260,#259,#55,.T.);
#324=EDGE_CURVE('',#260,#257,#27,.T.);
#325=EDGE_CURVE('',#261,#262,#56,.T.);
#326=EDGE_CURVE('',#263,#262,#28,.T.);
#327=EDGE_CURVE('',#263,#264,#57,.T.);
#328=EDGE_CURVE('',#264,#257,#58,.T.);
#329=EDGE_CURVE('',#252,#260,#59,.T.);
#330=EDGE_CURVE('',#248,#243,#60,.T.);
#331=EDGE_CURVE('',#261,#250,#61,.T.);
#332=EDGE_CURVE('',#262,#265,#29,.T.);
#333=EDGE_CURVE('',#266,#265,#30,.T.);
#334=EDGE_CURVE('',#266,#263,#31,.T.);
#335=EDGE_CURVE('',#267,#268,#62,.T.);
#336=EDGE_CURVE('',#268,#259,#63,.T.);
#337=EDGE_CURVE('',#258,#269,#64,.T.);
#338=EDGE_CURVE('',#269,#270,#65,.T.);
#339=EDGE_CURVE('',#270,#271,#66,.T.);
#340=EDGE_CURVE('',#271,#272,#67,.T.);
#341=EDGE_CURVE('',#272,#273,#68,.T.);
#342=EDGE_CURVE('',#273,#267,#69,.T.);
#343=EDGE_CURVE('',#265,#274,#70,.T.);
#344=EDGE_CURVE('',#274,#266,#71,.T.);
#345=EDGE_CURVE('',#268,#275,#72,.T.);
#346=EDGE_CURVE('',#275,#254,#73,.T.);
#347=EDGE_CURVE('',#276,#261,#74,.T.);
#348=EDGE_CURVE('',#255,#276,#75,.T.);
#349=EDGE_CURVE('',#277,#276,#76,.T.);
#350=EDGE_CURVE('',#275,#278,#77,.T.);
#351=EDGE_CURVE('',#278,#279,#78,.T.);
#352=EDGE_CURVE('',#279,#280,#79,.T.);
#353=EDGE_CURVE('',#280,#281,#80,.T.);
#354=EDGE_CURVE('',#281,#282,#81,.T.);
#355=EDGE_CURVE('',#282,#283,#82,.T.);
#356=EDGE_CURVE('',#283,#284,#83,.T.);
#357=EDGE_CURVE('',#284,#277,#84,.T.);
#358=EDGE_CURVE('',#278,#267,#85,.T.);
#359=EDGE_CURVE('',#279,#273,#86,.T.);
#360=EDGE_CURVE('',#280,#272,#87,.T.);
#361=EDGE_CURVE('',#281,#271,#88,.T.);
#362=EDGE_CURVE('',#282,#270,#89,.T.);
#363=EDGE_CURVE('',#283,#269,#90,.T.);
#364=EDGE_CURVE('',#284,#264,#91,.T.);
#365=EDGE_CURVE('',#277,#274,#92,.T.);
#366=ORIENTED_EDGE('',*,*,#285,.T.);
#367=ORIENTED_EDGE('',*,*,#286,.F.);
#368=ORIENTED_EDGE('',*,*,#285,.F.);
#369=ORIENTED_EDGE('',*,*,#287,.T.);
#370=ORIENTED_EDGE('',*,*,#288,.F.);
#371=ORIENTED_EDGE('',*,*,#287,.F.);
#372=ORIENTED_EDGE('',*,*,#289,.F.);
#373=ORIENTED_EDGE('',*,*,#290,.T.);
#374=ORIENTED_EDGE('',*,*,#286,.T.);
#375=ORIENTED_EDGE('',*,*,#290,.F.);
#376=ORIENTED_EDGE('',*,*,#291,.F.);
#377=ORIENTED_EDGE('',*,*,#292,.T.);
#378=ORIENTED_EDGE('',*,*,#293,.T.);
#379=ORIENTED_EDGE('',*,*,#292,.F.);
#380=ORIENTED_EDGE('',*,*,#293,.F.);
#381=ORIENTED_EDGE('',*,*,#289,.T.);
#382=ORIENTED_EDGE('',*,*,#294,.F.);
#383=ORIENTED_EDGE('',*,*,#295,.F.);
#384=ORIENTED_EDGE('',*,*,#296,.T.);
#385=ORIENTED_EDGE('',*,*,#297,.F.);
#386=ORIENTED_EDGE('',*,*,#298,.F.);
#387=ORIENTED_EDGE('',*,*,#299,.F.);
#388=ORIENTED_EDGE('',*,*,#300,.T.);
#389=ORIENTED_EDGE('',*,*,#301,.F.);
#390=ORIENTED_EDGE('',*,*,#302,.F.);
#391=ORIENTED_EDGE('',*,*,#303,.T.);
#392=ORIENTED_EDGE('',*,*,#304,.T.);
#393=ORIENTED_EDGE('',*,*,#305,.F.);
#394=ORIENTED_EDGE('',*,*,#306,.F.);
#395=ORIENTED_EDGE('',*,*,#307,.F.);
#396=ORIENTED_EDGE('',*,*,#308,.T.);
#397=ORIENTED_EDGE('',*,*,#303,.F.);
#398=ORIENTED_EDGE('',*,*,#309,.F.);
#399=ORIENTED_EDGE('',*,*,#297,.T.);
#400=ORIENTED_EDGE('',*,*,#310,.T.);
#401=ORIENTED_EDGE('',*,*,#311,.F.);
#402=ORIENTED_EDGE('',*,*,#301,.T.);
#403=ORIENTED_EDGE('',*,*,#312,.T.);
#404=ORIENTED_EDGE('',*,*,#295,.T.);
#405=ORIENTED_EDGE('',*,*,#313,.F.);
#406=ORIENTED_EDGE('',*,*,#314,.F.);
#407=ORIENTED_EDGE('',*,*,#315,.T.);
#408=ORIENTED_EDGE('',*,*,#316,.T.);
#409=ORIENTED_EDGE('',*,*,#317,.F.);
#410=ORIENTED_EDGE('',*,*,#306,.T.);
#411=ORIENTED_EDGE('',*,*,#302,.T.);
#412=ORIENTED_EDGE('',*,*,#318,.T.);
#413=ORIENTED_EDGE('',*,*,#294,.T.);
#414=ORIENTED_EDGE('',*,*,#309,.T.);
#415=ORIENTED_EDGE('',*,*,#319,.T.);
#416=ORIENTED_EDGE('',*,*,#313,.T.);
#417=ORIENTED_EDGE('',*,*,#298,.T.);
#418=ORIENTED_EDGE('',*,*,#317,.T.);
#419=ORIENTED_EDGE('',*,*,#320,.T.);
#420=ORIENTED_EDGE('',*,*,#321,.T.);
#421=ORIENTED_EDGE('',*,*,#322,.F.);
#422=ORIENTED_EDGE('',*,*,#323,.F.);
#423=ORIENTED_EDGE('',*,*,#324,.T.);
#424=ORIENTED_EDGE('',*,*,#325,.T.);
#425=ORIENTED_EDGE('',*,*,#326,.F.);
#426=ORIENTED_EDGE('',*,*,#327,.T.);
#427=ORIENTED_EDGE('',*,*,#328,.T.);
#428=ORIENTED_EDGE('',*,*,#324,.F.);
#429=ORIENTED_EDGE('',*,*,#329,.F.);
#430=ORIENTED_EDGE('',*,*,#310,.F.);
#431=ORIENTED_EDGE('',*,*,#296,.F.);
#432=ORIENTED_EDGE('',*,*,#312,.F.);
#433=ORIENTED_EDGE('',*,*,#300,.F.);
#434=ORIENTED_EDGE('',*,*,#330,.F.);
#435=ORIENTED_EDGE('',*,*,#304,.F.);
#436=ORIENTED_EDGE('',*,*,#308,.F.);
#437=ORIENTED_EDGE('',*,*,#331,.F.);
#438=ORIENTED_EDGE('',*,*,#288,.T.);
#439=ORIENTED_EDGE('',*,*,#332,.T.);
#440=ORIENTED_EDGE('',*,*,#333,.F.);
#441=ORIENTED_EDGE('',*,*,#334,.T.);
#442=ORIENTED_EDGE('',*,*,#326,.T.);
#443=ORIENTED_EDGE('',*,*,#335,.T.);
#444=ORIENTED_EDGE('',*,*,#336,.T.);
#445=ORIENTED_EDGE('',*,*,#322,.T.);
#446=ORIENTED_EDGE('',*,*,#337,.T.);
#447=ORIENTED_EDGE('',*,*,#338,.T.);
#448=ORIENTED_EDGE('',*,*,#339,.T.);
#449=ORIENTED_EDGE('',*,*,#340,.T.);
#450=ORIENTED_EDGE('',*,*,#341,.T.);
#451=ORIENTED_EDGE('',*,*,#342,.T.);
#452=ORIENTED_EDGE('',*,*,#343,.T.);
#453=ORIENTED_EDGE('',*,*,#344,.T.);
#454=ORIENTED_EDGE('',*,*,#333,.T.);
#455=ORIENTED_EDGE('',*,*,#345,.T.);
#456=ORIENTED_EDGE('',*,*,#346,.T.);
#457=ORIENTED_EDGE('',*,*,#314,.T.);
#458=ORIENTED_EDGE('',*,*,#319,.F.);
#459=ORIENTED_EDGE('',*,*,#311,.T.);
#460=ORIENTED_EDGE('',*,*,#329,.T.);
#461=ORIENTED_EDGE('',*,*,#323,.T.);
#462=ORIENTED_EDGE('',*,*,#336,.F.);
#463=ORIENTED_EDGE('',*,*,#347,.T.);
#464=ORIENTED_EDGE('',*,*,#331,.T.);
#465=ORIENTED_EDGE('',*,*,#307,.T.);
#466=ORIENTED_EDGE('',*,*,#318,.F.);
#467=ORIENTED_EDGE('',*,*,#305,.T.);
#468=ORIENTED_EDGE('',*,*,#330,.T.);
#469=ORIENTED_EDGE('',*,*,#299,.T.);
#470=ORIENTED_EDGE('',*,*,#320,.F.);
#471=ORIENTED_EDGE('',*,*,#316,.F.);
#472=ORIENTED_EDGE('',*,*,#348,.T.);
#473=ORIENTED_EDGE('',*,*,#349,.T.);
#474=ORIENTED_EDGE('',*,*,#348,.F.);
#475=ORIENTED_EDGE('',*,*,#315,.F.);
#476=ORIENTED_EDGE('',*,*,#346,.F.);
#477=ORIENTED_EDGE('',*,*,#350,.T.);
#478=ORIENTED_EDGE('',*,*,#351,.T.);
#479=ORIENTED_EDGE('',*,*,#352,.T.);
#480=ORIENTED_EDGE('',*,*,#353,.T.);
#481=ORIENTED_EDGE('',*,*,#354,.T.);
#482=ORIENTED_EDGE('',*,*,#355,.T.);
#483=ORIENTED_EDGE('',*,*,#356,.T.);
#484=ORIENTED_EDGE('',*,*,#357,.T.);
#485=ORIENTED_EDGE('',*,*,#291,.T.);
#486=ORIENTED_EDGE('',*,*,#335,.F.);
#487=ORIENTED_EDGE('',*,*,#358,.F.);
#488=ORIENTED_EDGE('',*,*,#350,.F.);
#489=ORIENTED_EDGE('',*,*,#345,.F.);
#490=ORIENTED_EDGE('',*,*,#342,.F.);
#491=ORIENTED_EDGE('',*,*,#359,.F.);
#492=ORIENTED_EDGE('',*,*,#351,.F.);
#493=ORIENTED_EDGE('',*,*,#358,.T.);
#494=ORIENTED_EDGE('',*,*,#341,.F.);
#495=ORIENTED_EDGE('',*,*,#360,.F.);
#496=ORIENTED_EDGE('',*,*,#352,.F.);
#497=ORIENTED_EDGE('',*,*,#359,.T.);
#498=ORIENTED_EDGE('',*,*,#340,.F.);
#499=ORIENTED_EDGE('',*,*,#361,.F.);
#500=ORIENTED_EDGE('',*,*,#353,.F.);
#501=ORIENTED_EDGE('',*,*,#360,.T.);
#502=ORIENTED_EDGE('',*,*,#339,.F.);
#503=ORIENTED_EDGE('',*,*,#362,.F.);
#504=ORIENTED_EDGE('',*,*,#354,.F.);
#505=ORIENTED_EDGE('',*,*,#361,.T.);
#506=ORIENTED_EDGE('',*,*,#338,.F.);
#507=ORIENTED_EDGE('',*,*,#363,.F.);
#508=ORIENTED_EDGE('',*,*,#355,.F.);
#509=ORIENTED_EDGE('',*,*,#362,.T.);
#510=ORIENTED_EDGE('',*,*,#328,.F.);
#511=ORIENTED_EDGE('',*,*,#364,.F.);
#512=ORIENTED_EDGE('',*,*,#356,.F.);
#513=ORIENTED_EDGE('',*,*,#363,.T.);
#514=ORIENTED_EDGE('',*,*,#337,.F.);
#515=ORIENTED_EDGE('',*,*,#321,.F.);
#516=ORIENTED_EDGE('',*,*,#344,.F.);
#517=ORIENTED_EDGE('',*,*,#365,.F.);
#518=ORIENTED_EDGE('',*,*,#357,.F.);
#519=ORIENTED_EDGE('',*,*,#364,.T.);
#520=ORIENTED_EDGE('',*,*,#327,.F.);
#521=ORIENTED_EDGE('',*,*,#334,.F.);
#522=ORIENTED_EDGE('',*,*,#325,.F.);
#523=ORIENTED_EDGE('',*,*,#347,.F.);
#524=ORIENTED_EDGE('',*,*,#349,.F.);
#525=ORIENTED_EDGE('',*,*,#365,.T.);
#526=ORIENTED_EDGE('',*,*,#343,.F.);
#527=ORIENTED_EDGE('',*,*,#332,.F.);
#528=PLANE('',#593);
#529=PLANE('',#603);
#530=PLANE('',#611);
#531=PLANE('',#612);
#532=PLANE('',#613);
#533=PLANE('',#614);
#534=PLANE('',#615);
#535=PLANE('',#616);
#536=PLANE('',#617);
#537=PLANE('',#618);
#538=PLANE('',#619);
#539=PLANE('',#620);
#540=PLANE('',#621);
#541=PLANE('',#622);
#542=PLANE('',#623);
#543=PLANE('',#624);
#544=PLANE('',#625);
#545=PLANE('',#626);
#546=PLANE('',#627);
#547=PLANE('',#628);
#548=ADVANCED_FACE('',(#155,#151),#528,.F.);
#549=ADVANCED_FACE('',(#156),#147,.F.);
#550=ADVANCED_FACE('',(#157),#148,.F.);
#551=ADVANCED_FACE('',(#158),#149,.F.);
#552=ADVANCED_FACE('',(#159,#152),#529,.T.);
#553=ADVANCED_FACE('',(#160),#32,.F.);
#554=ADVANCED_FACE('',(#161),#33,.F.);
#555=ADVANCED_FACE('',(#162),#34,.F.);
#556=ADVANCED_FACE('',(#163),#35,.F.);
#557=ADVANCED_FACE('',(#164),#36,.F.);
#558=ADVANCED_FACE('',(#165),#150,.T.);
#559=ADVANCED_FACE('',(#166),#530,.F.);
#560=ADVANCED_FACE('',(#167),#531,.F.);
#561=ADVANCED_FACE('',(#168),#532,.F.);
#562=ADVANCED_FACE('',(#169),#37,.F.);
#563=ADVANCED_FACE('',(#170,#153),#533,.T.);
#564=ADVANCED_FACE('',(#171),#38,.F.);
#565=ADVANCED_FACE('',(#172),#534,.F.);
#566=ADVANCED_FACE('',(#173),#535,.F.);
#567=ADVANCED_FACE('',(#174),#536,.T.);
#568=ADVANCED_FACE('',(#175),#537,.T.);
#569=ADVANCED_FACE('',(#176,#154),#538,.T.);
#570=ADVANCED_FACE('',(#177),#539,.F.);
#571=ADVANCED_FACE('',(#178),#540,.F.);
#572=ADVANCED_FACE('',(#179),#541,.F.);
#573=ADVANCED_FACE('',(#180),#542,.F.);
#574=ADVANCED_FACE('',(#181),#543,.F.);
#575=ADVANCED_FACE('',(#182),#544,.F.);
#576=ADVANCED_FACE('',(#183),#545,.F.);
#577=ADVANCED_FACE('',(#184),#546,.F.);
#578=ADVANCED_FACE('',(#185),#547,.F.);
#579=CLOSED_SHELL('',(#548,#549,#550,#551,#552,#553,#554,#555,#556,#557,
#558,#559,#560,#561,#562,#563,#564,#565,#566,#567,#568,#569,#570,#571,#572,
#573,#574,#575,#576,#577,#578));
#580=DERIVED_UNIT_ELEMENT(#582,1.);
#581=DERIVED_UNIT_ELEMENT(#1029,-3.);
#582=(
MASS_UNIT()
NAMED_UNIT(*)
SI_UNIT(.KILO.,.GRAM.)
);
#583=DERIVED_UNIT((#580,#581));
#584=MEASURE_REPRESENTATION_ITEM('density measure',
POSITIVE_RATIO_MEASURE(7850.),#583);
#585=PROPERTY_DEFINITION_REPRESENTATION(#590,#587);
#586=PROPERTY_DEFINITION_REPRESENTATION(#591,#588);
#587=REPRESENTATION('material name',(#589),#1026);
#588=REPRESENTATION('density',(#584),#1026);
#589=DESCRIPTIVE_REPRESENTATION_ITEM('Steel','Steel');
#590=PROPERTY_DEFINITION('material property','material name',#1036);
#591=PROPERTY_DEFINITION('material property','density of part',#1036);
#592=AXIS2_PLACEMENT_3D('',#757,#629,#630);
#593=AXIS2_PLACEMENT_3D('',#758,#631,#632);
#594=AXIS2_PLACEMENT_3D('',#760,#633,#634);
#595=AXIS2_PLACEMENT_3D('',#762,#635,#636);
#596=AXIS2_PLACEMENT_3D('',#763,#637,#638);
#597=AXIS2_PLACEMENT_3D('',#766,#640,#641);
#598=AXIS2_PLACEMENT_3D('',#767,#642,#643);
#599=AXIS2_PLACEMENT_3D('',#769,#644,#645);
#600=AXIS2_PLACEMENT_3D('',#771,#647,#648);
#601=AXIS2_PLACEMENT_3D('',#773,#649,#650);
#602=AXIS2_PLACEMENT_3D('',#776,#652,#653);
#603=AXIS2_PLACEMENT_3D('',#777,#654,#655);
#604=AXIS2_PLACEMENT_3D('',#832,#660,#661);
#605=AXIS2_PLACEMENT_3D('',#836,#663,#664);
#606=AXIS2_PLACEMENT_3D('',#876,#668,#669);
#607=AXIS2_PLACEMENT_3D('',#877,#670,#671);
#608=AXIS2_PLACEMENT_3D('',#879,#672,#673);
#609=AXIS2_PLACEMENT_3D('',#883,#675,#676);
#610=AXIS2_PLACEMENT_3D('',#886,#678,#679);
#611=AXIS2_PLACEMENT_3D('',#887,#680,#681);
#612=AXIS2_PLACEMENT_3D('',#889,#683,#684);
#613=AXIS2_PLACEMENT_3D('',#891,#686,#687);
#614=AXIS2_PLACEMENT_3D('',#920,#690,#691);
#615=AXIS2_PLACEMENT_3D('',#961,#698,#699);
#616=AXIS2_PLACEMENT_3D('',#977,#708,#709);
#617=AXIS2_PLACEMENT_3D('',#981,#712,#713);
#618=AXIS2_PLACEMENT_3D('',#985,#716,#717);
#619=AXIS2_PLACEMENT_3D('',#989,#720,#721);
#620=AXIS2_PLACEMENT_3D('',#1007,#731,#732);
#621=AXIS2_PLACEMENT_3D('',#1009,#734,#735);
#622=AXIS2_PLACEMENT_3D('',#1011,#737,#738);
#623=AXIS2_PLACEMENT_3D('',#1013,#740,#741);
#624=AXIS2_PLACEMENT_3D('',#1015,#743,#744);
#625=AXIS2_PLACEMENT_3D('',#1017,#746,#747);
#626=AXIS2_PLACEMENT_3D('',#1019,#749,#750);
#627=AXIS2_PLACEMENT_3D('',#1021,#752,#753);
#628=AXIS2_PLACEMENT_3D('',#1023,#755,#756);
#629=DIRECTION('axis',(0.,0.,1.));
#630=DIRECTION('refdir',(1.,0.,0.));
#631=DIRECTION('center_axis',(0.,0.,1.));
#632=DIRECTION('ref_axis',(-1.,0.,0.));
#633=DIRECTION('center_axis',(0.,0.,-1.));
#634=DIRECTION('ref_axis',(-1.,0.,0.));
#635=DIRECTION('center_axis',(0.,0.,-1.));
#636=DIRECTION('ref_axis',(-1.,0.,0.));
#637=DIRECTION('center_axis',(0.,0.,-1.));
#638=DIRECTION('ref_axis',(-1.,0.,0.));
#639=DIRECTION('',(0.,0.,-1.));
#640=DIRECTION('center_axis',(0.,0.,1.));
#641=DIRECTION('ref_axis',(-1.,0.,0.));
#642=DIRECTION('center_axis',(0.,0.,-1.));
#643=DIRECTION('ref_axis',(-1.,0.,0.));
#644=DIRECTION('center_axis',(0.,0.,-1.));
#645=DIRECTION('ref_axis',(-1.,0.,0.));
#646=DIRECTION('',(0.,0.,-1.));
#647=DIRECTION('center_axis',(0.,0.,-1.));
#648=DIRECTION('ref_axis',(-1.,0.,0.));
#649=DIRECTION('center_axis',(0.,0.,-1.));
#650=DIRECTION('ref_axis',(-1.,0.,0.));
#651=DIRECTION('',(0.,0.,-1.));
#652=DIRECTION('center_axis',(0.,0.,-1.));
#653=DIRECTION('ref_axis',(-1.,0.,0.));
#654=DIRECTION('center_axis',(0.,0.,1.));
#655=DIRECTION('ref_axis',(-1.,0.,0.));
#656=DIRECTION('',(0.,0.,-1.));
#657=DIRECTION('',(0.,0.,1.));
#658=DIRECTION('',(0.,0.,-1.));
#659=DIRECTION('',(0.,0.,1.));
#660=DIRECTION('center_axis',(0.,0.,1.));
#661=DIRECTION('ref_axis',(0.81952382162068,0.573045116719649,0.));
#662=DIRECTION('',(0.,0.,1.));
#663=DIRECTION('center_axis',(0.,0.,1.));
#664=DIRECTION('ref_axis',(0.81952382162068,0.573045116719649,0.));
#665=DIRECTION('',(0.,0.,1.));
#666=DIRECTION('',(0.,0.,-1.));
#667=DIRECTION('',(0.,0.,1.));
#668=DIRECTION('center_axis',(0.,0.,-1.));
#669=DIRECTION('ref_axis',(-0.666481066121155,0.745521957089132,0.));
#670=DIRECTION('center_axis',(0.,0.,1.));
#671=DIRECTION('ref_axis',(0.745521964111651,0.666481058265805,0.));
#672=DIRECTION('center_axis',(0.,0.,-1.));
#673=DIRECTION('ref_axis',(0.745521964111651,0.666481058265805,0.));
#674=DIRECTION('',(0.,0.,-1.));
#675=DIRECTION('center_axis',(0.,0.,-1.));
#676=DIRECTION('ref_axis',(0.745521964111651,0.666481058265805,0.));
#677=DIRECTION('',(0.,0.,-1.));
#678=DIRECTION('center_axis',(0.,0.,-1.));
#679=DIRECTION('ref_axis',(0.745521964111651,0.666481058265805,0.));
#680=DIRECTION('center_axis',(0.,0.,1.));
#681=DIRECTION('ref_axis',(-1.,0.,0.));
#682=DIRECTION('',(0.666481058265804,-0.745521964111651,0.));
#683=DIRECTION('center_axis',(0.,0.,1.));
#684=DIRECTION('ref_axis',(-1.,0.,0.));
#685=DIRECTION('',(-0.6664810582658,0.745521964111655,0.));
#686=DIRECTION('center_axis',(0.,0.,1.));
#687=DIRECTION('ref_axis',(-1.,0.,0.));
#688=DIRECTION('',(0.666481058265804,-0.745521964111651,0.));
#689=DIRECTION('',(0.,0.,-1.));
#690=DIRECTION('center_axis',(0.,0.,-1.));
#691=DIRECTION('ref_axis',(1.,0.,0.));
#692=DIRECTION('',(-0.745521964111653,-0.666481058265802,0.));
#693=DIRECTION('',(-0.288965776456351,0.957339427808642,0.));
#694=DIRECTION('',(-0.745521964111648,-0.666481058265808,0.));
#695=DIRECTION('',(0.6664810582658,-0.745521964111655,0.));
#696=DIRECTION('',(-0.666481058265804,0.745521964111651,0.));
#697=DIRECTION('',(-0.666481058265804,0.745521964111651,0.));
#698=DIRECTION('center_axis',(0.,0.,1.));
#699=DIRECTION('ref_axis',(-1.,0.,0.));
#700=DIRECTION('',(-0.745521964111612,-0.666481058265848,0.));
#701=DIRECTION('',(-0.6664810582658,0.745521964111655,0.));
#702=DIRECTION('',(-0.745521964111648,-0.666481058265808,0.));
#703=DIRECTION('',(0.91910816958112,-0.394005295153812,0.));
#704=DIRECTION('',(-0.745521964111661,-0.666481058265793,0.));
#705=DIRECTION('',(-0.288965776456318,0.957339427808652,0.));
#706=DIRECTION('',(-0.745521964111673,-0.66648105826578,0.));
#707=DIRECTION('',(0.919108169580845,-0.394005295154455,0.));
#708=DIRECTION('center_axis',(0.,0.,1.));
#709=DIRECTION('ref_axis',(-1.,0.,0.));
#710=DIRECTION('',(-0.745521964111653,-0.666481058265802,0.));
#711=DIRECTION('',(-0.288965776456351,0.957339427808642,0.));
#712=DIRECTION('center_axis',(-0.745521964111655,-0.6664810582658,0.));
#713=DIRECTION('ref_axis',(-0.6664810582658,0.745521964111655,0.));
#714=DIRECTION('',(0.,0.,1.));
#715=DIRECTION('',(-0.6664810582658,0.745521964111655,0.));
#716=DIRECTION('center_axis',(0.745521964111651,0.666481058265804,0.));
#717=DIRECTION('ref_axis',(0.666481058265804,-0.745521964111651,0.));
#718=DIRECTION('',(0.,0.,-1.));
#719=DIRECTION('',(0.666481058265804,-0.745521964111651,0.));
#720=DIRECTION('center_axis',(0.,0.,1.));
#721=DIRECTION('ref_axis',(-1.,0.,0.));
#722=DIRECTION('',(0.745521964111653,0.666481058265802,0.));
#723=DIRECTION('',(0.745521964111612,0.666481058265848,0.));
#724=DIRECTION('',(-0.919108169580845,0.394005295154455,0.));
#725=DIRECTION('',(0.745521964111673,0.66648105826578,0.));
#726=DIRECTION('',(0.288965776456318,-0.957339427808652,0.));
#727=DIRECTION('',(0.745521964111661,0.666481058265793,0.));
#728=DIRECTION('',(-0.91910816958112,0.394005295153812,0.));
#729=DIRECTION('',(0.745521964111648,0.666481058265808,0.));
#730=DIRECTION('',(0.288965776456351,-0.957339427808642,0.));
#731=DIRECTION('center_axis',(-0.666481058265848,0.745521964111612,0.));
#732=DIRECTION('ref_axis',(0.745521964111612,0.666481058265848,0.));
#733=DIRECTION('',(0.,0.,-1.));
#734=DIRECTION('center_axis',(-0.394005295154455,-0.919108169580845,0.));
#735=DIRECTION('ref_axis',(-0.919108169580845,0.394005295154455,0.));
#736=DIRECTION('',(0.,0.,-1.));
#737=DIRECTION('center_axis',(-0.66648105826578,0.745521964111673,0.));
#738=DIRECTION('ref_axis',(0.745521964111673,0.66648105826578,0.));
#739=DIRECTION('',(0.,0.,-1.));
#740=DIRECTION('center_axis',(0.957339427808652,0.288965776456318,0.));
#741=DIRECTION('ref_axis',(0.288965776456318,-0.957339427808652,0.));
#742=DIRECTION('',(0.,0.,-1.));
#743=DIRECTION('center_axis',(-0.666481058265793,0.745521964111661,0.));
#744=DIRECTION('ref_axis',(0.745521964111661,0.666481058265793,0.));
#745=DIRECTION('',(0.,0.,-1.));
#746=DIRECTION('center_axis',(-0.394005295153812,-0.91910816958112,0.));
#747=DIRECTION('ref_axis',(-0.91910816958112,0.394005295153812,0.));
#748=DIRECTION('',(0.,0.,-1.));
#749=DIRECTION('center_axis',(-0.666481058265808,0.745521964111648,0.));
#750=DIRECTION('ref_axis',(0.745521964111648,0.666481058265808,0.));
#751=DIRECTION('',(0.,0.,-1.));
#752=DIRECTION('center_axis',(0.957339427808642,0.288965776456351,0.));
#753=DIRECTION('ref_axis',(0.288965776456351,-0.957339427808642,0.));
#754=DIRECTION('',(0.,0.,-1.));
#755=DIRECTION('center_axis',(-0.666481058265802,0.745521964111653,0.));
#756=DIRECTION('ref_axis',(0.745521964111653,0.666481058265802,0.));
#757=CARTESIAN_POINT('',(0.,0.,0.));
#758=CARTESIAN_POINT('Origin',(-138.704013849986,141.631973976088,6.1035162724936));
#759=CARTESIAN_POINT('',(-136.004013849986,141.631973976088,6.1035162724936));
#760=CARTESIAN_POINT('Origin',(-138.704013849986,141.631973976088,6.1035162724936));
#761=CARTESIAN_POINT('',(-137.204013849986,141.631973976088,6.1035162724936));
#762=CARTESIAN_POINT('Origin',(-138.704013849986,141.631973976088,6.1035162724936));
#763=CARTESIAN_POINT('Origin',(-138.704013849986,141.631973976088,10.1035162724936));
#764=CARTESIAN_POINT('',(-136.004013849986,141.631973976088,4.1035162724936));
#765=CARTESIAN_POINT('',(-136.004013849986,141.631973976088,10.1035162724936));
#766=CARTESIAN_POINT('Origin',(-138.704013849986,141.631973976088,4.10351627249359));
#767=CARTESIAN_POINT('Origin',(-138.704013849986,141.631973976088,10.1035162724936));
#768=CARTESIAN_POINT('',(-137.204013849986,141.631973976088,8.1035162724936));
#769=CARTESIAN_POINT('Origin',(-138.704013849986,141.631973976088,8.1035162724936));
#770=CARTESIAN_POINT('',(-137.204013849986,141.631973976088,10.1035162724936));
#771=CARTESIAN_POINT('Origin',(-138.704013849986,141.631973976088,10.1035162724936));
#772=CARTESIAN_POINT('',(-133.654013849986,141.631973976088,10.1035162724936));
#773=CARTESIAN_POINT('Origin',(-138.704013849986,141.631973976088,10.1035162724936));
#774=CARTESIAN_POINT('',(-133.654013849986,141.631973976088,8.1035162724936));
#775=CARTESIAN_POINT('',(-133.654013849986,141.631973976088,10.1035162724936));
#776=CARTESIAN_POINT('Origin',(-138.704013849986,141.631973976088,8.1035162724936));
#777=CARTESIAN_POINT('Origin',(-138.704013849986,141.631973976088,8.1035162724936));
#778=CARTESIAN_POINT('Ctrl Pts',(-153.688523192567,140.950446454913,2.10351627249359));
#779=CARTESIAN_POINT('Ctrl Pts',(-153.688523192567,140.950446454913,4.50351627249359));
#780=CARTESIAN_POINT('Ctrl Pts',(-147.450338526355,136.22788090112,2.10351627249359));
#781=CARTESIAN_POINT('Ctrl Pts',(-147.450338526355,136.22788090112,4.50351627249359));
#782=CARTESIAN_POINT('Ctrl Pts',(-138.627164413995,132.1731427677,2.10351627249359));
#783=CARTESIAN_POINT('Ctrl Pts',(-138.627164413995,132.1731427677,4.50351627249359));
#784=CARTESIAN_POINT('Ctrl Pts',(-127.036015837321,129.935327154935,2.10351627249359));
#785=CARTESIAN_POINT('Ctrl Pts',(-127.036015837321,129.935327154935,4.50351627249359));
#786=CARTESIAN_POINT('',(-153.688523192567,140.950446454913,2.10351627249359));
#787=CARTESIAN_POINT('',(-127.036015837321,129.935327154935,2.10351627249359));
#788=CARTESIAN_POINT('Ctrl Pts',(-153.688523192567,140.950446454913,2.10351627249359));
#789=CARTESIAN_POINT('Ctrl Pts',(-147.450338526355,136.22788090112,2.10351627249359));
#790=CARTESIAN_POINT('Ctrl Pts',(-138.627164413995,132.1731427677,2.10351627249359));
#791=CARTESIAN_POINT('Ctrl Pts',(-127.036015837321,129.935327154935,2.10351627249359));
#792=CARTESIAN_POINT('',(-153.688523192567,140.950446454913,4.10351627249359));
#793=CARTESIAN_POINT('',(-153.688523192567,140.950446454913,2.10351627249359));
#794=CARTESIAN_POINT('',(-127.036015837321,129.935327154935,4.10351627249359));
#795=CARTESIAN_POINT('Ctrl Pts',(-153.688523192566,140.950446454913,4.10351627249359));
#796=CARTESIAN_POINT('Ctrl Pts',(-147.450338526354,136.22788090112,4.10351627249359));
#797=CARTESIAN_POINT('Ctrl Pts',(-138.627164413995,132.1731427677,4.10351627249359));
#798=CARTESIAN_POINT('Ctrl Pts',(-127.036015837321,129.935327154935,4.10351627249359));
#799=CARTESIAN_POINT('',(-127.036015837321,129.935327154935,2.10351627249359));
#800=CARTESIAN_POINT('Ctrl Pts',(-120.749472337048,144.05439082729,2.10351627249359));
#801=CARTESIAN_POINT('Ctrl Pts',(-120.749472337048,144.05439082729,4.50351627249359));
#802=CARTESIAN_POINT('Ctrl Pts',(-129.573606965813,144.785314007292,2.10351627249359));
#803=CARTESIAN_POINT('Ctrl Pts',(-129.573606965813,144.785314007292,4.50351627249359));
#804=CARTESIAN_POINT('Ctrl Pts',(-138.113814104119,149.620776333999,2.10351627249359));
#805=CARTESIAN_POINT('Ctrl Pts',(-138.113814104119,149.620776333999,4.50351627249359));
#806=CARTESIAN_POINT('Ctrl Pts',(-142.526173399322,156.136838552478,2.10351627249359));
#807=CARTESIAN_POINT('Ctrl Pts',(-142.526173399322,156.136838552478,4.50351627249359));
#808=CARTESIAN_POINT('',(-120.749472337048,144.05439082729,2.10351627249359));
#809=CARTESIAN_POINT('',(-142.526173399322,156.136838552478,2.10351627249359));
#810=CARTESIAN_POINT('Ctrl Pts',(-120.749472337048,144.05439082729,2.10351627249359));
#811=CARTESIAN_POINT('Ctrl Pts',(-129.573606965813,144.785314007292,2.10351627249359));
#812=CARTESIAN_POINT('Ctrl Pts',(-138.113814104119,149.620776333999,2.10351627249359));
#813=CARTESIAN_POINT('Ctrl Pts',(-142.526173399322,156.136838552478,2.10351627249359));
#814=CARTESIAN_POINT('',(-120.749472337048,144.05439082729,4.10351627249359));
#815=CARTESIAN_POINT('',(-120.749472337048,144.05439082729,2.10351627249359));
#816=CARTESIAN_POINT('',(-142.526173399322,156.136838552478,4.10351627249359));
#817=CARTESIAN_POINT('Ctrl Pts',(-120.749472337048,144.05439082729,4.10351627249359));
#818=CARTESIAN_POINT('Ctrl Pts',(-129.573606965813,144.785314007293,4.10351627249359));
#819=CARTESIAN_POINT('Ctrl Pts',(-138.113814104119,149.620776333999,4.10351627249359));
#820=CARTESIAN_POINT('Ctrl Pts',(-142.526173399322,156.136838552478,4.10351627249359));
#821=CARTESIAN_POINT('',(-142.526173399322,156.136838552478,2.10351627249359));
#822=CARTESIAN_POINT('Ctrl Pts',(-118.492280231445,129.935299701831,2.10351627249359));
#823=CARTESIAN_POINT('Ctrl Pts',(-118.492280231445,129.935299701831,4.50351627249359));
#824=CARTESIAN_POINT('Ctrl Pts',(-115.646561908603,130.501538515542,2.10351627249359));
#825=CARTESIAN_POINT('Ctrl Pts',(-115.646561908603,130.501538515542,4.50351627249359));
#826=CARTESIAN_POINT('Ctrl Pts',(-112.865659680705,131.283135937255,2.10351627249359));
#827=CARTESIAN_POINT('Ctrl Pts',(-112.865659680705,131.283135937255,4.50351627249359));
#828=CARTESIAN_POINT('Ctrl Pts',(-110.184242846841,132.236184528488,2.10351627249359));
#829=CARTESIAN_POINT('Ctrl Pts',(-110.184242846841,132.236184528488,4.50351627249359));
#830=CARTESIAN_POINT('',(-118.492280231445,129.935299701831,2.10351627249359));
#831=CARTESIAN_POINT('',(-110.184242846841,132.236184528488,2.10351627249359));
#832=CARTESIAN_POINT('Origin',(-116.004051606614,171.096403878999,2.10351627249359));
#833=CARTESIAN_POINT('',(-118.492280231445,129.935299701831,4.10351627249359));
#834=CARTESIAN_POINT('',(-118.492280231445,129.935299701831,2.10351627249359));
#835=CARTESIAN_POINT('',(-110.184242846841,132.236184528488,4.10351627249359));
#836=CARTESIAN_POINT('Origin',(-116.004051606614,171.096403878999,4.10351627249359));
#837=CARTESIAN_POINT('',(-110.184242846841,132.236184528488,2.10351627249359));
#838=CARTESIAN_POINT('Ctrl Pts',(-103.59433363478,124.864749139346,2.10351627249359));
#839=CARTESIAN_POINT('Ctrl Pts',(-103.59433363478,124.864749139346,4.50351627249359));
#840=CARTESIAN_POINT('Ctrl Pts',(-108.192829469233,127.105948914276,2.10351627249359));
#841=CARTESIAN_POINT('Ctrl Pts',(-108.192829469233,127.105948914276,4.50351627249359));
#842=CARTESIAN_POINT('Ctrl Pts',(-113.231811426864,128.888584042159,2.10351627249359));
#843=CARTESIAN_POINT('Ctrl Pts',(-113.231811426864,128.888584042159,4.50351627249359));
#844=CARTESIAN_POINT('Ctrl Pts',(-118.492280231445,129.935299701831,2.10351627249359));
#845=CARTESIAN_POINT('Ctrl Pts',(-118.492280231445,129.935299701831,4.50351627249359));
#846=CARTESIAN_POINT('',(-103.59433363478,124.864749139346,2.10351627249359));
#847=CARTESIAN_POINT('Ctrl Pts',(-103.59433363478,124.864749139346,2.10351627249359));
#848=CARTESIAN_POINT('Ctrl Pts',(-108.192829469233,127.105948914276,2.10351627249359));
#849=CARTESIAN_POINT('Ctrl Pts',(-113.231811426864,128.888584042159,2.10351627249359));
#850=CARTESIAN_POINT('Ctrl Pts',(-118.492280231445,129.935299701831,2.10351627249359));
#851=CARTESIAN_POINT('',(-103.59433363478,124.864749139346,4.10351627249359));
#852=CARTESIAN_POINT('',(-103.59433363478,124.864749139346,2.10351627249359));
#853=CARTESIAN_POINT('Ctrl Pts',(-103.59433363478,124.864749139346,4.10351627249359));
#854=CARTESIAN_POINT('Ctrl Pts',(-108.192829469233,127.105948914277,4.10351627249359));
#855=CARTESIAN_POINT('Ctrl Pts',(-113.231811426864,128.888584042159,4.10351627249359));
#856=CARTESIAN_POINT('Ctrl Pts',(-118.492280231445,129.935299701831,4.10351627249359));
#857=CARTESIAN_POINT('Ctrl Pts',(-127.036015837321,129.935327154935,2.10351627249359));
#858=CARTESIAN_POINT('Ctrl Pts',(-127.036015837321,129.935327154935,4.50351627249359));
#859=CARTESIAN_POINT('Ctrl Pts',(-133.437907762023,128.699363791651,2.10351627249359));
#860=CARTESIAN_POINT('Ctrl Pts',(-133.437907762023,128.699363791651,4.50351627249359));
#861=CARTESIAN_POINT('Ctrl Pts',(-138.995440374009,126.909160250774,2.10351627249359));
#862=CARTESIAN_POINT('Ctrl Pts',(-138.995440374009,126.909160250774,4.50351627249359));
#863=CARTESIAN_POINT('Ctrl Pts',(-143.739445003133,124.758312921384,2.10351627249359));
#864=CARTESIAN_POINT('Ctrl Pts',(-143.739445003133,124.758312921384,4.50351627249359));
#865=CARTESIAN_POINT('',(-143.739445003133,124.758312921384,2.10351627249359));
#866=CARTESIAN_POINT('Ctrl Pts',(-127.036015837321,129.935327154935,2.10351627249359));
#867=CARTESIAN_POINT('Ctrl Pts',(-133.437907762023,128.699363791651,2.10351627249359));
#868=CARTESIAN_POINT('Ctrl Pts',(-138.995440374009,126.909160250774,2.10351627249359));
#869=CARTESIAN_POINT('Ctrl Pts',(-143.739445003133,124.758312921384,2.10351627249359));
#870=CARTESIAN_POINT('',(-143.739445003133,124.758312921384,4.10351627249359));
#871=CARTESIAN_POINT('Ctrl Pts',(-127.036015837321,129.935327154935,4.10351627249359));
#872=CARTESIAN_POINT('Ctrl Pts',(-133.437907762023,128.699363791651,4.10351627249359));
#873=CARTESIAN_POINT('Ctrl Pts',(-138.995440374009,126.909160250774,4.10351627249359));
#874=CARTESIAN_POINT('Ctrl Pts',(-143.739445003133,124.758312921384,4.10351627249359));
#875=CARTESIAN_POINT('',(-143.739445003133,124.758312921384,2.10351627249359));
#876=CARTESIAN_POINT('Origin',(-138.704013849986,141.631973976088,80.1035162724936));
#877=CARTESIAN_POINT('Origin',(-138.704013849986,141.631973976088,4.10351627249359));
#878=CARTESIAN_POINT('',(-149.886843100985,131.63475786644,2.10351627249359));
#879=CARTESIAN_POINT('Origin',(-138.704013849986,141.631973976088,2.10351627249359));
#880=CARTESIAN_POINT('',(-149.886843100985,131.63475786644,10.1035162724936));
#881=CARTESIAN_POINT('',(-149.886843100985,131.63475786644,80.1035162724936));
#882=CARTESIAN_POINT('',(-127.521184388311,151.629189850075,10.1035162724936));
#883=CARTESIAN_POINT('Origin',(-138.704013849986,141.631973976088,10.1035162724936));
#884=CARTESIAN_POINT('',(-127.521184388311,151.629189850075,2.10351627249359));
#885=CARTESIAN_POINT('',(-127.521184388311,151.629189850075,80.1035162724936));
#886=CARTESIAN_POINT('Origin',(-138.704013849986,141.631973976088,2.10351627249359));
#887=CARTESIAN_POINT('Origin',(18.4370497025956,62.6331359959283,2.10351627249359));
#888=CARTESIAN_POINT('',(-94.1971314750212,114.353091644492,2.10351627249359));
#889=CARTESIAN_POINT('Origin',(18.4370497025956,62.6331359959283,2.10351627249359));
#890=CARTESIAN_POINT('',(-99.7459253307405,75.547409194146,2.10351627249359));
#891=CARTESIAN_POINT('Origin',(18.4370497025956,62.6331359959283,2.10351627249359));
#892=CARTESIAN_POINT('',(-94.1971314750212,114.353091644492,2.10351627249359));
#893=CARTESIAN_POINT('Ctrl Pts',(-132.613205971722,112.312564504383,2.10351627249359));
#894=CARTESIAN_POINT('Ctrl Pts',(-132.613205971722,112.312564504383,4.50351627249359));
#895=CARTESIAN_POINT('Ctrl Pts',(-123.809343218085,116.946156222158,2.10351627249359));
#896=CARTESIAN_POINT('Ctrl Pts',(-123.809343218085,116.946156222158,4.50351627249359));
#897=CARTESIAN_POINT('Ctrl Pts',(-112.275210024748,117.711082180577,2.10351627249359));
#898=CARTESIAN_POINT('Ctrl Pts',(-112.275210024748,117.711082180577,4.50351627249359));
#899=CARTESIAN_POINT('Ctrl Pts',(-103.741699647237,110.993494809609,2.10351627249359));
#900=CARTESIAN_POINT('Ctrl Pts',(-103.741699647237,110.993494809609,4.50351627249359));
#901=CARTESIAN_POINT('',(-105.554771597745,112.281966770813,4.10351627249359));
#902=CARTESIAN_POINT('',(-105.554771597745,112.281966770813,2.10351627249359));
#903=CARTESIAN_POINT('Ctrl Pts',(-105.554771597745,112.281966770813,4.10351627249359));
#904=CARTESIAN_POINT('Ctrl Pts',(-105.554771597745,112.281966770813,3.77018293916026));
#905=CARTESIAN_POINT('Ctrl Pts',(-105.554771597745,112.281966770813,3.43684960582692));
#906=CARTESIAN_POINT('Ctrl Pts',(-105.554771597745,112.281966770813,2.77018293916026));
#907=CARTESIAN_POINT('Ctrl Pts',(-105.554771597745,112.281966770813,2.43684960582692));
#908=CARTESIAN_POINT('Ctrl Pts',(-105.554771597745,112.281966770813,2.10351627249359));
#909=CARTESIAN_POINT('',(-132.613205971722,112.312564504383,2.10351627249359));
#910=CARTESIAN_POINT('Ctrl Pts',(-132.613205971722,112.312564504383,2.10351627249359));
#911=CARTESIAN_POINT('Ctrl Pts',(-124.418671689227,116.625458428894,2.10351627249359));
#912=CARTESIAN_POINT('Ctrl Pts',(-113.85872052023,117.586667046943,2.10351627249359));
#913=CARTESIAN_POINT('Ctrl Pts',(-105.554771597745,112.281966770813,2.10351627249359));
#914=CARTESIAN_POINT('',(-132.613205971722,112.312564504383,4.10351627249359));
#915=CARTESIAN_POINT('',(-132.613205971722,112.312564504383,2.10351627249359));
#916=CARTESIAN_POINT('Ctrl Pts',(-132.613205971722,112.312564504383,4.10351627249359));
#917=CARTESIAN_POINT('Ctrl Pts',(-124.418671689227,116.625458428894,4.10351627249359));
#918=CARTESIAN_POINT('Ctrl Pts',(-113.85872052023,117.586667046943,4.10351627249359));
#919=CARTESIAN_POINT('Ctrl Pts',(-105.554771597745,112.281966770813,4.10351627249359));
#920=CARTESIAN_POINT('Origin',(21.6047339517581,86.6915330029934,4.10351627249359));
#921=CARTESIAN_POINT('',(-94.2141820097149,114.372164276724,4.10351627249359));
#922=CARTESIAN_POINT('',(-97.8377040578596,111.132811279023,4.10351627249359));
#923=CARTESIAN_POINT('',(-71.1414218635343,134.998729743059,4.10351627249359));
#924=CARTESIAN_POINT('',(-99.1826432052781,112.014297083849,4.10351627249359));
#925=CARTESIAN_POINT('Ctrl Pts',(-99.1826432052781,112.014297083849,4.10351627249359));
#926=CARTESIAN_POINT('Ctrl Pts',(-98.7783205773292,111.78659474124,4.10351627249359));
#927=CARTESIAN_POINT('Ctrl Pts',(-98.326668347256,111.489158042012,4.10351627249359));
#928=CARTESIAN_POINT('Ctrl Pts',(-97.8377040578596,111.132811279023,4.10351627249359));
#929=CARTESIAN_POINT('',(-100.600344536852,116.711121040707,4.10351627249359));
#930=CARTESIAN_POINT('',(-91.3459235997475,86.0513586519735,4.10351627249359));
#931=CARTESIAN_POINT('',(-77.8249902301239,137.071811900853,4.10351627249359));
#932=CARTESIAN_POINT('',(-75.5627511896816,48.4962465834507,4.10351627249359));
#933=CARTESIAN_POINT('',(-78.2675512567919,96.5343527854021,4.10351627249359));
#934=CARTESIAN_POINT('',(-78.2675512567919,96.5343527854021,4.10351627249359));
#935=CARTESIAN_POINT('Ctrl Pts',(-99.5178473243408,112.19237188989,2.10351627249359));
#936=CARTESIAN_POINT('Ctrl Pts',(-99.5178473243408,112.19237188989,4.50351627249359));
#937=CARTESIAN_POINT('Ctrl Pts',(-94.7432308158569,109.821535498441,2.10351627249359));
#938=CARTESIAN_POINT('Ctrl Pts',(-94.7432308158569,109.821535498441,4.50351627249359));
#939=CARTESIAN_POINT('Ctrl Pts',(-81.8924599799805,95.7326433691789,2.10351627249359));
#940=CARTESIAN_POINT('Ctrl Pts',(-81.8924599799805,95.7326433691789,4.50351627249359));
#941=CARTESIAN_POINT('Ctrl Pts',(-81.4095324159953,92.016124420306,2.10351627249359));
#942=CARTESIAN_POINT('Ctrl Pts',(-81.4095324159953,92.016124420306,4.50351627249359));
#943=CARTESIAN_POINT('',(-97.8377040578596,111.132811279023,2.10351627249359));
#944=CARTESIAN_POINT('Ctrl Pts',(-97.8377040578596,111.132811279023,4.10351627249359));
#945=CARTESIAN_POINT('Ctrl Pts',(-97.8377040578596,111.132811279023,3.77018293916026));
#946=CARTESIAN_POINT('Ctrl Pts',(-97.8377040578596,111.132811279023,3.43684960582692));
#947=CARTESIAN_POINT('Ctrl Pts',(-97.8377040578596,111.132811279023,2.77018293916026));
#948=CARTESIAN_POINT('Ctrl Pts',(-97.8377040578596,111.132811279023,2.43684960582692));
#949=CARTESIAN_POINT('Ctrl Pts',(-97.8377040578596,111.132811279023,2.10351627249359));
#950=CARTESIAN_POINT('',(-99.1826432052781,112.014297083849,2.10351627249359));
#951=CARTESIAN_POINT('Ctrl Pts',(-99.1826432052781,112.014297083849,2.10351627249359));
#952=CARTESIAN_POINT('Ctrl Pts',(-98.7783205773292,111.78659474124,2.10351627249359));
#953=CARTESIAN_POINT('Ctrl Pts',(-98.326668347256,111.489158042012,2.10351627249359));
#954=CARTESIAN_POINT('Ctrl Pts',(-97.8377040578596,111.132811279023,2.10351627249359));
#955=CARTESIAN_POINT('Ctrl Pts',(-99.1826432052781,112.014297083849,2.10351627249359));
#956=CARTESIAN_POINT('Ctrl Pts',(-99.1826432052781,112.014297083849,2.43684960582692));
#957=CARTESIAN_POINT('Ctrl Pts',(-99.1826432052781,112.014297083849,2.77018293916026));
#958=CARTESIAN_POINT('Ctrl Pts',(-99.1826432052781,112.014297083849,3.43684960582692));
#959=CARTESIAN_POINT('Ctrl Pts',(-99.1826432052781,112.014297083849,3.77018293916026));
#960=CARTESIAN_POINT('Ctrl Pts',(-99.1826432052781,112.014297083849,4.10351627249359));
#961=CARTESIAN_POINT('Origin',(18.4370497025956,62.6331359959283,2.10351627249359));
#962=CARTESIAN_POINT('',(-111.218506361002,99.1706536113143,2.10351627249359));
#963=CARTESIAN_POINT('',(-116.579840933064,94.3777325287502,2.10351627249359));
#964=CARTESIAN_POINT('',(-86.9450128902934,120.870649580508,2.10351627249359));
#965=CARTESIAN_POINT('',(-99.7459253307405,75.547409194146,2.10351627249359));
#966=CARTESIAN_POINT('',(-108.055564177968,110.046310458049,2.10351627249359));
#967=CARTESIAN_POINT('',(-84.6823176875389,130.941504437492,2.10351627249359));
#968=CARTESIAN_POINT('',(-101.970822221245,107.437890002286,2.10351627249359));
#969=CARTESIAN_POINT('',(-43.0003047991586,82.158279950674,2.10351627249359));
#970=CARTESIAN_POINT('',(-107.934997934138,102.10604153616,2.10351627249359));
#971=CARTESIAN_POINT('',(-82.6225913908252,124.734804084213,2.10351627249359));
#972=CARTESIAN_POINT('',(-109.848028676604,108.443884649737,2.10351627249359));
#973=CARTESIAN_POINT('',(-98.1555438759851,69.7068520296186,2.10351627249359));
#974=CARTESIAN_POINT('',(-117.303248317721,101.77907406708,2.10351627249359));
#975=CARTESIAN_POINT('',(-89.306159757413,126.807886242008,2.10351627249359));
#976=CARTESIAN_POINT('',(-49.8388744755192,72.8582991160424,2.10351627249359));
#977=CARTESIAN_POINT('Origin',(18.4370497025956,62.6331359959283,2.10351627249359));
#978=CARTESIAN_POINT('',(-98.6873137943848,110.373277927129,2.10351627249359));
#979=CARTESIAN_POINT('',(-77.9987493209494,128.868422279698,2.10351627249359));
#980=CARTESIAN_POINT('',(-88.1504389510233,75.4647643407159,2.10351627249359));
#981=CARTESIAN_POINT('Origin',(-99.7459253307405,75.547409194146,80.1035162724936));
#982=CARTESIAN_POINT('',(-116.579840933064,94.3777325287502,10.1035162724936));
#983=CARTESIAN_POINT('',(-116.579840933064,94.3777325287502,45.1035162724936));
#984=CARTESIAN_POINT('',(-70.2892658568477,42.597355543279,10.1035162724936));
#985=CARTESIAN_POINT('Origin',(-127.521184388311,151.629189850075,80.1035162724936));
#986=CARTESIAN_POINT('',(-94.2141820097149,114.372164276724,10.1035162724936));
#987=CARTESIAN_POINT('',(-94.2141820097144,114.372164276724,45.1035162724936));
#988=CARTESIAN_POINT('',(-72.994065923958,90.6354617452305,10.1035162724936));
#989=CARTESIAN_POINT('Origin',(18.4370497025956,62.6331359959283,10.1035162724936));
#990=CARTESIAN_POINT('',(-98.6873137943848,110.373277927129,10.1035162724936));
#991=CARTESIAN_POINT('',(-77.9987493209494,128.868422279698,10.1035162724936));
#992=CARTESIAN_POINT('',(-111.218506361002,99.1706536113143,10.1035162724936));
#993=CARTESIAN_POINT('',(-86.9450128902934,120.870649580508,10.1035162724936));
#994=CARTESIAN_POINT('',(-117.303248317721,101.77907406708,10.1035162724936));
#995=CARTESIAN_POINT('',(-49.8388744755192,72.8582991160424,10.1035162724936));
#996=CARTESIAN_POINT('',(-109.848028676604,108.443884649737,10.1035162724936));
#997=CARTESIAN_POINT('',(-89.306159757413,126.807886242008,10.1035162724936));
#998=CARTESIAN_POINT('',(-107.934997934138,102.10604153616,10.1035162724936));
#999=CARTESIAN_POINT('',(-98.1555438759851,69.7068520296186,10.1035162724936));
#1000=CARTESIAN_POINT('',(-101.970822221245,107.437890002286,10.1035162724936));
#1001=CARTESIAN_POINT('',(-82.6225913908252,124.734804084213,10.1035162724936));
#1002=CARTESIAN_POINT('',(-108.055564177968,110.046310458049,10.1035162724936));
#1003=CARTESIAN_POINT('',(-43.0003047991586,82.158279950674,10.1035162724936));
#1004=CARTESIAN_POINT('',(-100.600344536852,116.711121040707,10.1035162724936));
#1005=CARTESIAN_POINT('',(-84.6823176875389,130.941504437492,10.1035162724936));
#1006=CARTESIAN_POINT('',(-88.1504389510233,75.4647643407159,10.1035162724936));
#1007=CARTESIAN_POINT('Origin',(-116.579840933064,94.3777325287502,10.1035162724936));
#1008=CARTESIAN_POINT('',(-111.218506361002,99.1706536113143,10.1035162724936));
#1009=CARTESIAN_POINT('Origin',(-111.218506361002,99.1706536113143,10.1035162724936));
#1010=CARTESIAN_POINT('',(-117.303248317721,101.77907406708,10.1035162724936));
#1011=CARTESIAN_POINT('Origin',(-117.303248317721,101.77907406708,10.1035162724936));
#1012=CARTESIAN_POINT('',(-109.848028676604,108.443884649737,10.1035162724936));
#1013=CARTESIAN_POINT('Origin',(-109.848028676604,108.443884649737,10.1035162724936));
#1014=CARTESIAN_POINT('',(-107.934997934138,102.10604153616,10.1035162724936));
#1015=CARTESIAN_POINT('Origin',(-107.934997934138,102.10604153616,10.1035162724936));
#1016=CARTESIAN_POINT('',(-101.970822221245,107.437890002286,10.1035162724936));
#1017=CARTESIAN_POINT('Origin',(-101.970822221245,107.437890002286,10.1035162724936));
#1018=CARTESIAN_POINT('',(-108.055564177968,110.046310458049,10.1035162724936));
#1019=CARTESIAN_POINT('Origin',(-108.055564177968,110.046310458049,10.1035162724936));
#1020=CARTESIAN_POINT('',(-100.600344536852,116.711121040707,10.1035162724936));
#1021=CARTESIAN_POINT('Origin',(-100.600344536852,116.711121040707,10.1035162724936));
#1022=CARTESIAN_POINT('',(-98.6873137943848,110.373277927129,10.1035162724936));
#1023=CARTESIAN_POINT('Origin',(-98.6873137943848,110.373277927129,10.1035162724936));
#1024=UNCERTAINTY_MEASURE_WITH_UNIT(LENGTH_MEASURE(0.01),#1028,
'DISTANCE_ACCURACY_VALUE',
'Maximum model space distance between geometric entities at asserted c
onnectivities');
#1025=UNCERTAINTY_MEASURE_WITH_UNIT(LENGTH_MEASURE(0.01),#1028,
'DISTANCE_ACCURACY_VALUE',
'Maximum model space distance between geometric entities at asserted c
onnectivities');
#1026=(
GEOMETRIC_REPRESENTATION_CONTEXT(3)
GLOBAL_UNCERTAINTY_ASSIGNED_CONTEXT((#1024))
GLOBAL_UNIT_ASSIGNED_CONTEXT((#1028,#1030,#1031))
REPRESENTATION_CONTEXT('','3D')
);
#1027=(
GEOMETRIC_REPRESENTATION_CONTEXT(3)
GLOBAL_UNCERTAINTY_ASSIGNED_CONTEXT((#1025))
GLOBAL_UNIT_ASSIGNED_CONTEXT((#1028,#1030,#1031))
REPRESENTATION_CONTEXT('','3D')
);
#1028=(
LENGTH_UNIT()
NAMED_UNIT(*)
SI_UNIT(.MILLI.,.METRE.)
);
#1029=(
LENGTH_UNIT()
NAMED_UNIT(*)
SI_UNIT($,.METRE.)
);
#1030=(
NAMED_UNIT(*)
PLANE_ANGLE_UNIT()
SI_UNIT($,.RADIAN.)
);
#1031=(
NAMED_UNIT(*)
SI_UNIT($,.STERADIAN.)
SOLID_ANGLE_UNIT()
);
#1032=SHAPE_DEFINITION_REPRESENTATION(#1033,#1034);
#1033=PRODUCT_DEFINITION_SHAPE('',$,#1036);
#1034=SHAPE_REPRESENTATION('',(#592),#1026);
#1035=PRODUCT_DEFINITION_CONTEXT('part definition',#1040,'design');
#1036=PRODUCT_DEFINITION('FusionComponent','Component51 v2',#1037,#1035);
#1037=PRODUCT_DEFINITION_FORMATION('',$,#1042);
#1038=PRODUCT_RELATED_PRODUCT_CATEGORY('Component51 v2',
'Component51 v2',(#1042));
#1039=APPLICATION_PROTOCOL_DEFINITION('international standard',
'automotive_design',2009,#1040);
#1040=APPLICATION_CONTEXT(
'Core Data for Automotive Mechanical Design Process');
#1041=PRODUCT_CONTEXT('part definition',#1040,'mechanical');
#1042=PRODUCT('FusionComponent','Component51 v2',$,(#1041));
#1043=PRESENTATION_STYLE_ASSIGNMENT((#1045));
#1044=PRESENTATION_STYLE_ASSIGNMENT((#1046));
#1045=SURFACE_STYLE_USAGE(.BOTH.,#1047);
#1046=SURFACE_STYLE_USAGE(.BOTH.,#1048);
#1047=SURFACE_SIDE_STYLE('',(#1049));
#1048=SURFACE_SIDE_STYLE('',(#1050));
#1049=SURFACE_STYLE_FILL_AREA(#1051);
#1050=SURFACE_STYLE_FILL_AREA(#1052);
#1051=FILL_AREA_STYLE('Steel - Satin',(#1053));
#1052=FILL_AREA_STYLE('Opaque(243,203,124)',(#1054));
#1053=FILL_AREA_STYLE_COLOUR('Steel - Satin',#1055);
#1054=FILL_AREA_STYLE_COLOUR('Opaque(243,203,124)',#1056);
#1055=COLOUR_RGB('Steel - Satin',0.627450980392157,0.627450980392157,0.627450980392157);
#1056=COLOUR_RGB('Opaque(243,203,124)',0.952941176470588,0.796078431372549,
0.486274509803922);
ENDSEC;
END-ISO-10303-21;
